M48
; DRILL file {KiCad 8.0.5} date 2025-03-25T20:51:54-0400
; FORMAT={-:-/ absolute / metric / decimal}
; #@! TF.CreationDate,2025-03-25T20:51:54-04:00
; #@! TF.GenerationSoftware,Kicad,Pcbnew,8.0.5
; #@! TF.FileFunction,Plated,1,2,PTH
FMAT,2
METRIC
; #@! TA.AperFunction,Plated,PTH,ComponentDrill
T1C0.762
; #@! TA.AperFunction,Plated,PTH,ComponentDrill
T2C0.870
; #@! TA.AperFunction,Plated,PTH,ComponentDrill
T3C1.400
%
G90
G05
T1
X100.925Y-113.297
X102.925Y-113.297
X104.925Y-113.297
X105.23Y-77.25
X105.23Y-105.19
X106.925Y-113.297
X107.77Y-77.25
X107.77Y-105.19
X110.31Y-77.25
X110.31Y-105.19
X111.425Y-113.297
X112.85Y-77.25
X112.85Y-105.19
X113.425Y-113.297
X115.39Y-77.25
X115.39Y-105.19
X115.425Y-113.297
X117.425Y-113.297
X117.93Y-77.25
X117.93Y-105.19
X120.47Y-77.25
X120.47Y-105.19
X121.925Y-113.297
X123.01Y-77.25
X123.01Y-105.19
X123.925Y-113.297
X125.55Y-77.25
X125.55Y-105.19
X125.925Y-113.297
X127.925Y-113.297
X128.09Y-77.25
X128.09Y-105.19
X130.63Y-77.25
X130.63Y-105.19
X132.425Y-113.297
X133.17Y-77.25
X133.17Y-105.19
X134.425Y-113.297
X135.71Y-77.25
X135.71Y-105.19
X136.425Y-113.297
X138.25Y-77.25
X138.25Y-105.19
X138.425Y-113.297
X140.79Y-77.25
X140.79Y-105.19
X142.925Y-113.28
X144.925Y-113.28
X146.925Y-113.28
X148.925Y-113.28
T2
X96.53Y-109.28
X96.53Y-110.78
X96.53Y-112.28
T3
X101.44Y-72.297
X105.4Y-72.297
X109.36Y-72.297
X113.32Y-72.297
X117.28Y-72.297
X121.24Y-72.297
X125.2Y-72.297
X129.16Y-72.297
X133.12Y-72.297
X137.08Y-72.297
X141.04Y-72.297
X145.0Y-72.297
X148.96Y-72.297
M30
