%TF.GenerationSoftware,KiCad,Pcbnew,8.0.5*%
%TF.CreationDate,2025-03-25T20:51:19-04:00*%
%TF.ProjectId,Microcontroller boards,4d696372-6f63-46f6-9e74-726f6c6c6572,rev?*%
%TF.SameCoordinates,Original*%
%TF.FileFunction,Soldermask,Bot*%
%TF.FilePolarity,Negative*%
%FSLAX46Y46*%
G04 Gerber Fmt 4.6, Leading zero omitted, Abs format (unit mm)*
G04 Created by KiCad (PCBNEW 8.0.5) date 2025-03-25 20:51:19*
%MOMM*%
%LPD*%
G01*
G04 APERTURE LIST*
G04 Aperture macros list*
%AMRoundRect*
0 Rectangle with rounded corners*
0 $1 Rounding radius*
0 $2 $3 $4 $5 $6 $7 $8 $9 X,Y pos of 4 corners*
0 Add a 4 corners polygon primitive as box body*
4,1,4,$2,$3,$4,$5,$6,$7,$8,$9,$2,$3,0*
0 Add four circle primitives for the rounded corners*
1,1,$1+$1,$2,$3*
1,1,$1+$1,$4,$5*
1,1,$1+$1,$6,$7*
1,1,$1+$1,$8,$9*
0 Add four rect primitives between the rounded corners*
20,1,$1+$1,$2,$3,$4,$5,0*
20,1,$1+$1,$4,$5,$6,$7,0*
20,1,$1+$1,$6,$7,$8,$9,0*
20,1,$1+$1,$8,$9,$2,$3,0*%
G04 Aperture macros list end*
%ADD10C,2.100000*%
%ADD11RoundRect,0.250000X-0.685000X0.335000X-0.685000X-0.335000X0.685000X-0.335000X0.685000X0.335000X0*%
%ADD12O,1.870000X1.170000*%
%ADD13RoundRect,0.250001X0.949999X0.949999X-0.949999X0.949999X-0.949999X-0.949999X0.949999X-0.949999X0*%
%ADD14C,2.400000*%
%ADD15C,1.270000*%
%ADD16C,1.524000*%
G04 APERTURE END LIST*
D10*
%TO.C,REF\u002A\u002A*%
X96000000Y-104000000D03*
%TD*%
%TO.C,REF\u002A\u002A*%
X149500000Y-104000000D03*
%TD*%
D11*
%TO.C,J7*%
X96530000Y-109280000D03*
D12*
X96530000Y-110780000D03*
X96530000Y-112280000D03*
%TD*%
D10*
%TO.C,REF\u002A\u002A*%
X96250000Y-72000000D03*
%TD*%
D13*
%TO.C,J6*%
X148960000Y-72297500D03*
D14*
X145000000Y-72297500D03*
X141040000Y-72297500D03*
X137080000Y-72297500D03*
X133120000Y-72297500D03*
X129160000Y-72297500D03*
X125200000Y-72297500D03*
X121240000Y-72297500D03*
X117280000Y-72297500D03*
X113320000Y-72297500D03*
X109360000Y-72297500D03*
X105400000Y-72297500D03*
X101440000Y-72297500D03*
%TD*%
D15*
%TO.C,J4*%
X148925099Y-113280000D03*
X146925100Y-113280000D03*
X144925099Y-113280000D03*
X142925101Y-113280000D03*
%TD*%
%TO.C,J5*%
X138425099Y-113297400D03*
X136425100Y-113297400D03*
X134425099Y-113297400D03*
X132425101Y-113297400D03*
%TD*%
D16*
%TO.C,U1*%
X140790000Y-77250000D03*
X138250000Y-77250000D03*
X135710000Y-77250000D03*
X133170000Y-77250000D03*
X130630000Y-77250000D03*
X128090000Y-77250000D03*
X125550000Y-77250000D03*
X123010000Y-77250000D03*
X120470000Y-77250000D03*
X117930000Y-77250000D03*
X115390000Y-77250000D03*
X112850000Y-77250000D03*
X110310000Y-77250000D03*
X107770000Y-77250000D03*
X105230000Y-77250000D03*
X105230000Y-105190000D03*
X107770000Y-105190000D03*
X110310000Y-105190000D03*
X112850000Y-105190000D03*
X115390000Y-105190000D03*
X117930000Y-105190000D03*
X120470000Y-105190000D03*
X123010000Y-105190000D03*
X125550000Y-105190000D03*
X128090000Y-105190000D03*
X130630000Y-105190000D03*
X133170000Y-105190000D03*
X135710000Y-105190000D03*
X138250000Y-105190000D03*
X140790000Y-105190000D03*
%TD*%
D15*
%TO.C,J2*%
X127925099Y-113297400D03*
X125925100Y-113297400D03*
X123925099Y-113297400D03*
X121925101Y-113297400D03*
%TD*%
%TO.C,J1*%
X106925099Y-113297400D03*
X104925100Y-113297400D03*
X102925099Y-113297400D03*
X100925101Y-113297400D03*
%TD*%
D10*
%TO.C,REF\u002A\u002A*%
X149500000Y-78500000D03*
%TD*%
D15*
%TO.C,J3*%
X117425099Y-113297400D03*
X115425100Y-113297400D03*
X113425099Y-113297400D03*
X111425101Y-113297400D03*
%TD*%
M02*
