%TF.GenerationSoftware,KiCad,Pcbnew,8.0.6*%
%TF.CreationDate,2025-03-13T21:17:41-04:00*%
%TF.ProjectId,XT60ConnectorBoard,58543630-436f-46e6-9e65-63746f72426f,rev?*%
%TF.SameCoordinates,Original*%
%TF.FileFunction,Drillmap*%
%TF.FilePolarity,Positive*%
%FSLAX45Y45*%
G04 Gerber Fmt 4.5, Leading zero omitted, Abs format (unit mm)*
G04 Created by KiCad (PCBNEW 8.0.6) date 2025-03-13 21:17:41*
%MOMM*%
%LPD*%
G01*
G04 APERTURE LIST*
%ADD10C,0.200000*%
%ADD11C,0.100000*%
%ADD12C,0.270000*%
G04 APERTURE END LIST*
D10*
D11*
X7760000Y-6370000D02*
X7820000Y-6430000D01*
X7820000Y-6370000D02*
X7760000Y-6430000D01*
X7760000Y-6345000D02*
X7760000Y-6455000D01*
X7820000Y-6455000D02*
G75*
G02*
X7760000Y-6455000I-30000J0D01*
G01*
X7820000Y-6455000D02*
X7820000Y-6345000D01*
X7820000Y-6345000D02*
G75*
G03*
X7760000Y-6345000I-30000J0D01*
G01*
X7780000Y-10385000D02*
X7840000Y-10445000D01*
X7840000Y-10385000D02*
X7780000Y-10445000D01*
X7840000Y-10470000D02*
X7840000Y-10360000D01*
X7780000Y-10360000D02*
G75*
G02*
X7840000Y-10360000I30000J0D01*
G01*
X7780000Y-10360000D02*
X7780000Y-10470000D01*
X7780000Y-10470000D02*
G75*
G03*
X7840000Y-10470000I30000J0D01*
G01*
X9110000Y-6370000D02*
X9170000Y-6430000D01*
X9170000Y-6370000D02*
X9110000Y-6430000D01*
X9110000Y-6345000D02*
X9110000Y-6455000D01*
X9170000Y-6455000D02*
G75*
G02*
X9110000Y-6455000I-30000J0D01*
G01*
X9170000Y-6455000D02*
X9170000Y-6345000D01*
X9170000Y-6345000D02*
G75*
G03*
X9110000Y-6345000I-30000J0D01*
G01*
X9130000Y-10385000D02*
X9190000Y-10445000D01*
X9190000Y-10385000D02*
X9130000Y-10445000D01*
X9190000Y-10470000D02*
X9190000Y-10360000D01*
X9130000Y-10360000D02*
G75*
G02*
X9190000Y-10360000I30000J0D01*
G01*
X9130000Y-10360000D02*
X9130000Y-10470000D01*
X9130000Y-10470000D02*
G75*
G03*
X9190000Y-10470000I30000J0D01*
G01*
X9515000Y-6370000D02*
X9575000Y-6430000D01*
X9575000Y-6370000D02*
X9515000Y-6430000D01*
X9515000Y-6345000D02*
X9515000Y-6455000D01*
X9575000Y-6455000D02*
G75*
G02*
X9515000Y-6455000I-30000J0D01*
G01*
X9575000Y-6455000D02*
X9575000Y-6345000D01*
X9575000Y-6345000D02*
G75*
G03*
X9515000Y-6345000I-30000J0D01*
G01*
X9535000Y-10385000D02*
X9595000Y-10445000D01*
X9595000Y-10385000D02*
X9535000Y-10445000D01*
X9595000Y-10470000D02*
X9595000Y-10360000D01*
X9535000Y-10360000D02*
G75*
G02*
X9595000Y-10360000I30000J0D01*
G01*
X9535000Y-10360000D02*
X9535000Y-10470000D01*
X9535000Y-10470000D02*
G75*
G03*
X9595000Y-10470000I30000J0D01*
G01*
X10865000Y-6370000D02*
X10925000Y-6430000D01*
X10925000Y-6370000D02*
X10865000Y-6430000D01*
X10865000Y-6345000D02*
X10865000Y-6455000D01*
X10925000Y-6455000D02*
G75*
G02*
X10865000Y-6455000I-30000J0D01*
G01*
X10925000Y-6455000D02*
X10925000Y-6345000D01*
X10925000Y-6345000D02*
G75*
G03*
X10865000Y-6345000I-30000J0D01*
G01*
X10885000Y-10385000D02*
X10945000Y-10445000D01*
X10945000Y-10385000D02*
X10885000Y-10445000D01*
X10945000Y-10470000D02*
X10945000Y-10360000D01*
X10885000Y-10360000D02*
G75*
G02*
X10945000Y-10360000I30000J0D01*
G01*
X10885000Y-10360000D02*
X10885000Y-10470000D01*
X10885000Y-10470000D02*
G75*
G03*
X10945000Y-10470000I30000J0D01*
G01*
X11270000Y-6370000D02*
X11330000Y-6430000D01*
X11330000Y-6370000D02*
X11270000Y-6430000D01*
X11270000Y-6345000D02*
X11270000Y-6455000D01*
X11330000Y-6455000D02*
G75*
G02*
X11270000Y-6455000I-30000J0D01*
G01*
X11330000Y-6455000D02*
X11330000Y-6345000D01*
X11330000Y-6345000D02*
G75*
G03*
X11270000Y-6345000I-30000J0D01*
G01*
X11290000Y-10385000D02*
X11350000Y-10445000D01*
X11350000Y-10385000D02*
X11290000Y-10445000D01*
X11350000Y-10470000D02*
X11350000Y-10360000D01*
X11290000Y-10360000D02*
G75*
G02*
X11350000Y-10360000I30000J0D01*
G01*
X11290000Y-10360000D02*
X11290000Y-10470000D01*
X11290000Y-10470000D02*
G75*
G03*
X11350000Y-10470000I30000J0D01*
G01*
X12620000Y-6370000D02*
X12680000Y-6430000D01*
X12680000Y-6370000D02*
X12620000Y-6430000D01*
X12620000Y-6345000D02*
X12620000Y-6455000D01*
X12680000Y-6455000D02*
G75*
G02*
X12620000Y-6455000I-30000J0D01*
G01*
X12680000Y-6455000D02*
X12680000Y-6345000D01*
X12680000Y-6345000D02*
G75*
G03*
X12620000Y-6345000I-30000J0D01*
G01*
X12640000Y-10385000D02*
X12700000Y-10445000D01*
X12700000Y-10385000D02*
X12640000Y-10445000D01*
X12700000Y-10470000D02*
X12700000Y-10360000D01*
X12640000Y-10360000D02*
G75*
G02*
X12700000Y-10360000I30000J0D01*
G01*
X12640000Y-10360000D02*
X12640000Y-10470000D01*
X12640000Y-10470000D02*
G75*
G03*
X12700000Y-10470000I30000J0D01*
G01*
X13015000Y-10370000D02*
X13075000Y-10430000D01*
X13075000Y-10370000D02*
X13015000Y-10430000D01*
X13075000Y-10455000D02*
X13075000Y-10345000D01*
X13015000Y-10345000D02*
G75*
G02*
X13075000Y-10345000I30000J0D01*
G01*
X13015000Y-10345000D02*
X13015000Y-10455000D01*
X13015000Y-10455000D02*
G75*
G03*
X13075000Y-10455000I30000J0D01*
G01*
X13025000Y-6370000D02*
X13085000Y-6430000D01*
X13085000Y-6370000D02*
X13025000Y-6430000D01*
X13025000Y-6345000D02*
X13025000Y-6455000D01*
X13085000Y-6455000D02*
G75*
G02*
X13025000Y-6455000I-30000J0D01*
G01*
X13085000Y-6455000D02*
X13085000Y-6345000D01*
X13085000Y-6345000D02*
G75*
G03*
X13025000Y-6345000I-30000J0D01*
G01*
X14365000Y-10370000D02*
X14425000Y-10430000D01*
X14425000Y-10370000D02*
X14365000Y-10430000D01*
X14425000Y-10455000D02*
X14425000Y-10345000D01*
X14365000Y-10345000D02*
G75*
G02*
X14425000Y-10345000I30000J0D01*
G01*
X14365000Y-10345000D02*
X14365000Y-10455000D01*
X14365000Y-10455000D02*
G75*
G03*
X14425000Y-10455000I30000J0D01*
G01*
X14375000Y-6370000D02*
X14435000Y-6430000D01*
X14435000Y-6370000D02*
X14375000Y-6430000D01*
X14375000Y-6345000D02*
X14375000Y-6455000D01*
X14435000Y-6455000D02*
G75*
G02*
X14375000Y-6455000I-30000J0D01*
G01*
X14435000Y-6455000D02*
X14435000Y-6345000D01*
X14435000Y-6345000D02*
G75*
G03*
X14375000Y-6345000I-30000J0D01*
G01*
X14765000Y-6370000D02*
X14825000Y-6430000D01*
X14825000Y-6370000D02*
X14765000Y-6430000D01*
X14765000Y-6345000D02*
X14765000Y-6455000D01*
X14825000Y-6455000D02*
G75*
G02*
X14765000Y-6455000I-30000J0D01*
G01*
X14825000Y-6455000D02*
X14825000Y-6345000D01*
X14825000Y-6345000D02*
G75*
G03*
X14765000Y-6345000I-30000J0D01*
G01*
X14770000Y-10370000D02*
X14830000Y-10430000D01*
X14830000Y-10370000D02*
X14770000Y-10430000D01*
X14830000Y-10455000D02*
X14830000Y-10345000D01*
X14770000Y-10345000D02*
G75*
G02*
X14830000Y-10345000I30000J0D01*
G01*
X14770000Y-10345000D02*
X14770000Y-10455000D01*
X14770000Y-10455000D02*
G75*
G03*
X14830000Y-10455000I30000J0D01*
G01*
X16115000Y-6370000D02*
X16175000Y-6430000D01*
X16175000Y-6370000D02*
X16115000Y-6430000D01*
X16115000Y-6345000D02*
X16115000Y-6455000D01*
X16175000Y-6455000D02*
G75*
G02*
X16115000Y-6455000I-30000J0D01*
G01*
X16175000Y-6455000D02*
X16175000Y-6345000D01*
X16175000Y-6345000D02*
G75*
G03*
X16115000Y-6345000I-30000J0D01*
G01*
X16120000Y-10370000D02*
X16180000Y-10430000D01*
X16180000Y-10370000D02*
X16120000Y-10430000D01*
X16180000Y-10455000D02*
X16180000Y-10345000D01*
X16120000Y-10345000D02*
G75*
G02*
X16180000Y-10345000I30000J0D01*
G01*
X16120000Y-10345000D02*
X16120000Y-10455000D01*
X16120000Y-10455000D02*
G75*
G03*
X16180000Y-10455000I30000J0D01*
G01*
X16515000Y-6370000D02*
X16575000Y-6430000D01*
X16575000Y-6370000D02*
X16515000Y-6430000D01*
X16515000Y-6345000D02*
X16515000Y-6455000D01*
X16575000Y-6455000D02*
G75*
G02*
X16515000Y-6455000I-30000J0D01*
G01*
X16575000Y-6455000D02*
X16575000Y-6345000D01*
X16575000Y-6345000D02*
G75*
G03*
X16515000Y-6345000I-30000J0D01*
G01*
X16525000Y-10370000D02*
X16585000Y-10430000D01*
X16585000Y-10370000D02*
X16525000Y-10430000D01*
X16585000Y-10455000D02*
X16585000Y-10345000D01*
X16525000Y-10345000D02*
G75*
G02*
X16585000Y-10345000I30000J0D01*
G01*
X16525000Y-10345000D02*
X16525000Y-10455000D01*
X16525000Y-10455000D02*
G75*
G03*
X16585000Y-10455000I30000J0D01*
G01*
X17865000Y-6370000D02*
X17925000Y-6430000D01*
X17925000Y-6370000D02*
X17865000Y-6430000D01*
X17865000Y-6345000D02*
X17865000Y-6455000D01*
X17925000Y-6455000D02*
G75*
G02*
X17865000Y-6455000I-30000J0D01*
G01*
X17925000Y-6455000D02*
X17925000Y-6345000D01*
X17925000Y-6345000D02*
G75*
G03*
X17865000Y-6345000I-30000J0D01*
G01*
X17875000Y-10370000D02*
X17935000Y-10430000D01*
X17935000Y-10370000D02*
X17875000Y-10430000D01*
X17935000Y-10455000D02*
X17935000Y-10345000D01*
X17875000Y-10345000D02*
G75*
G02*
X17935000Y-10345000I30000J0D01*
G01*
X17875000Y-10345000D02*
X17875000Y-10455000D01*
X17875000Y-10455000D02*
G75*
G03*
X17935000Y-10455000I30000J0D01*
G01*
X18805000Y-7695000D02*
X18865000Y-7755000D01*
X18865000Y-7695000D02*
X18805000Y-7755000D01*
X18890000Y-7695000D02*
X18780000Y-7695000D01*
X18780000Y-7755000D02*
G75*
G02*
X18780000Y-7695000I0J30000D01*
G01*
X18780000Y-7755000D02*
X18890000Y-7755000D01*
X18890000Y-7755000D02*
G75*
G03*
X18890000Y-7695000I0J30000D01*
G01*
X18805000Y-9045000D02*
X18865000Y-9105000D01*
X18865000Y-9045000D02*
X18805000Y-9105000D01*
X18890000Y-9045000D02*
X18780000Y-9045000D01*
X18780000Y-9105000D02*
G75*
G02*
X18780000Y-9045000I0J30000D01*
G01*
X18780000Y-9105000D02*
X18890000Y-9105000D01*
X18890000Y-9105000D02*
G75*
G03*
X18890000Y-9045000I0J30000D01*
G01*
D12*
X8240000Y-7000000D02*
G75*
G02*
X7970000Y-7000000I-135000J0D01*
G01*
X7970000Y-7000000D02*
G75*
G02*
X8240000Y-7000000I135000J0D01*
G01*
X8260000Y-9815000D02*
G75*
G02*
X7990000Y-9815000I-135000J0D01*
G01*
X7990000Y-9815000D02*
G75*
G02*
X8260000Y-9815000I135000J0D01*
G01*
X8960000Y-7000000D02*
G75*
G02*
X8690000Y-7000000I-135000J0D01*
G01*
X8690000Y-7000000D02*
G75*
G02*
X8960000Y-7000000I135000J0D01*
G01*
X8980000Y-9815000D02*
G75*
G02*
X8710000Y-9815000I-135000J0D01*
G01*
X8710000Y-9815000D02*
G75*
G02*
X8980000Y-9815000I135000J0D01*
G01*
X9995000Y-7000000D02*
G75*
G02*
X9725000Y-7000000I-135000J0D01*
G01*
X9725000Y-7000000D02*
G75*
G02*
X9995000Y-7000000I135000J0D01*
G01*
X10015000Y-9815000D02*
G75*
G02*
X9745000Y-9815000I-135000J0D01*
G01*
X9745000Y-9815000D02*
G75*
G02*
X10015000Y-9815000I135000J0D01*
G01*
X10715000Y-7000000D02*
G75*
G02*
X10445000Y-7000000I-135000J0D01*
G01*
X10445000Y-7000000D02*
G75*
G02*
X10715000Y-7000000I135000J0D01*
G01*
X10735000Y-9815000D02*
G75*
G02*
X10465000Y-9815000I-135000J0D01*
G01*
X10465000Y-9815000D02*
G75*
G02*
X10735000Y-9815000I135000J0D01*
G01*
X11750000Y-7000000D02*
G75*
G02*
X11480000Y-7000000I-135000J0D01*
G01*
X11480000Y-7000000D02*
G75*
G02*
X11750000Y-7000000I135000J0D01*
G01*
X11770000Y-9815000D02*
G75*
G02*
X11500000Y-9815000I-135000J0D01*
G01*
X11500000Y-9815000D02*
G75*
G02*
X11770000Y-9815000I135000J0D01*
G01*
X12470000Y-7000000D02*
G75*
G02*
X12200000Y-7000000I-135000J0D01*
G01*
X12200000Y-7000000D02*
G75*
G02*
X12470000Y-7000000I135000J0D01*
G01*
X12490000Y-9815000D02*
G75*
G02*
X12220000Y-9815000I-135000J0D01*
G01*
X12220000Y-9815000D02*
G75*
G02*
X12490000Y-9815000I135000J0D01*
G01*
X13495000Y-9800000D02*
G75*
G02*
X13225000Y-9800000I-135000J0D01*
G01*
X13225000Y-9800000D02*
G75*
G02*
X13495000Y-9800000I135000J0D01*
G01*
X13505000Y-7000000D02*
G75*
G02*
X13235000Y-7000000I-135000J0D01*
G01*
X13235000Y-7000000D02*
G75*
G02*
X13505000Y-7000000I135000J0D01*
G01*
X14215000Y-9800000D02*
G75*
G02*
X13945000Y-9800000I-135000J0D01*
G01*
X13945000Y-9800000D02*
G75*
G02*
X14215000Y-9800000I135000J0D01*
G01*
X14225000Y-7000000D02*
G75*
G02*
X13955000Y-7000000I-135000J0D01*
G01*
X13955000Y-7000000D02*
G75*
G02*
X14225000Y-7000000I135000J0D01*
G01*
X15245000Y-7000000D02*
G75*
G02*
X14975000Y-7000000I-135000J0D01*
G01*
X14975000Y-7000000D02*
G75*
G02*
X15245000Y-7000000I135000J0D01*
G01*
X15250000Y-9800000D02*
G75*
G02*
X14980000Y-9800000I-135000J0D01*
G01*
X14980000Y-9800000D02*
G75*
G02*
X15250000Y-9800000I135000J0D01*
G01*
X15965000Y-7000000D02*
G75*
G02*
X15695000Y-7000000I-135000J0D01*
G01*
X15695000Y-7000000D02*
G75*
G02*
X15965000Y-7000000I135000J0D01*
G01*
X15970000Y-9800000D02*
G75*
G02*
X15700000Y-9800000I-135000J0D01*
G01*
X15700000Y-9800000D02*
G75*
G02*
X15970000Y-9800000I135000J0D01*
G01*
X16995000Y-7000000D02*
G75*
G02*
X16725000Y-7000000I-135000J0D01*
G01*
X16725000Y-7000000D02*
G75*
G02*
X16995000Y-7000000I135000J0D01*
G01*
X17005000Y-9800000D02*
G75*
G02*
X16735000Y-9800000I-135000J0D01*
G01*
X16735000Y-9800000D02*
G75*
G02*
X17005000Y-9800000I135000J0D01*
G01*
X17715000Y-7000000D02*
G75*
G02*
X17445000Y-7000000I-135000J0D01*
G01*
X17445000Y-7000000D02*
G75*
G02*
X17715000Y-7000000I135000J0D01*
G01*
X17725000Y-9800000D02*
G75*
G02*
X17455000Y-9800000I-135000J0D01*
G01*
X17455000Y-9800000D02*
G75*
G02*
X17725000Y-9800000I135000J0D01*
G01*
X18370000Y-8040000D02*
G75*
G02*
X18100000Y-8040000I-135000J0D01*
G01*
X18100000Y-8040000D02*
G75*
G02*
X18370000Y-8040000I135000J0D01*
G01*
X18370000Y-8760000D02*
G75*
G02*
X18100000Y-8760000I-135000J0D01*
G01*
X18100000Y-8760000D02*
G75*
G02*
X18370000Y-8760000I135000J0D01*
G01*
D10*
X260777Y-311484D02*
X260777Y-111484D01*
X260777Y-111484D02*
X308396Y-111484D01*
X308396Y-111484D02*
X336967Y-121008D01*
X336967Y-121008D02*
X356015Y-140055D01*
X356015Y-140055D02*
X365539Y-159103D01*
X365539Y-159103D02*
X375062Y-197198D01*
X375062Y-197198D02*
X375062Y-225769D01*
X375062Y-225769D02*
X365539Y-263865D01*
X365539Y-263865D02*
X356015Y-282912D01*
X356015Y-282912D02*
X336967Y-301960D01*
X336967Y-301960D02*
X308396Y-311484D01*
X308396Y-311484D02*
X260777Y-311484D01*
X460777Y-311484D02*
X460777Y-178150D01*
X460777Y-216246D02*
X470301Y-197198D01*
X470301Y-197198D02*
X479824Y-187674D01*
X479824Y-187674D02*
X498872Y-178150D01*
X498872Y-178150D02*
X517920Y-178150D01*
X584586Y-311484D02*
X584586Y-178150D01*
X584586Y-111484D02*
X575063Y-121008D01*
X575063Y-121008D02*
X584586Y-130531D01*
X584586Y-130531D02*
X594110Y-121008D01*
X594110Y-121008D02*
X584586Y-111484D01*
X584586Y-111484D02*
X584586Y-130531D01*
X708396Y-311484D02*
X689348Y-301960D01*
X689348Y-301960D02*
X679824Y-282912D01*
X679824Y-282912D02*
X679824Y-111484D01*
X813158Y-311484D02*
X794110Y-301960D01*
X794110Y-301960D02*
X784586Y-282912D01*
X784586Y-282912D02*
X784586Y-111484D01*
X1041729Y-311484D02*
X1041729Y-111484D01*
X1041729Y-111484D02*
X1108396Y-254341D01*
X1108396Y-254341D02*
X1175063Y-111484D01*
X1175063Y-111484D02*
X1175063Y-311484D01*
X1356015Y-311484D02*
X1356015Y-206722D01*
X1356015Y-206722D02*
X1346491Y-187674D01*
X1346491Y-187674D02*
X1327444Y-178150D01*
X1327444Y-178150D02*
X1289348Y-178150D01*
X1289348Y-178150D02*
X1270301Y-187674D01*
X1356015Y-301960D02*
X1336967Y-311484D01*
X1336967Y-311484D02*
X1289348Y-311484D01*
X1289348Y-311484D02*
X1270301Y-301960D01*
X1270301Y-301960D02*
X1260777Y-282912D01*
X1260777Y-282912D02*
X1260777Y-263865D01*
X1260777Y-263865D02*
X1270301Y-244817D01*
X1270301Y-244817D02*
X1289348Y-235293D01*
X1289348Y-235293D02*
X1336967Y-235293D01*
X1336967Y-235293D02*
X1356015Y-225769D01*
X1451253Y-178150D02*
X1451253Y-378150D01*
X1451253Y-187674D02*
X1470301Y-178150D01*
X1470301Y-178150D02*
X1508396Y-178150D01*
X1508396Y-178150D02*
X1527443Y-187674D01*
X1527443Y-187674D02*
X1536967Y-197198D01*
X1536967Y-197198D02*
X1546491Y-216246D01*
X1546491Y-216246D02*
X1546491Y-273389D01*
X1546491Y-273389D02*
X1536967Y-292436D01*
X1536967Y-292436D02*
X1527443Y-301960D01*
X1527443Y-301960D02*
X1508396Y-311484D01*
X1508396Y-311484D02*
X1470301Y-311484D01*
X1470301Y-311484D02*
X1451253Y-301960D01*
X1632205Y-292436D02*
X1641729Y-301960D01*
X1641729Y-301960D02*
X1632205Y-311484D01*
X1632205Y-311484D02*
X1622682Y-301960D01*
X1622682Y-301960D02*
X1632205Y-292436D01*
X1632205Y-292436D02*
X1632205Y-311484D01*
X1632205Y-187674D02*
X1641729Y-197198D01*
X1641729Y-197198D02*
X1632205Y-206722D01*
X1632205Y-206722D02*
X1622682Y-197198D01*
X1622682Y-197198D02*
X1632205Y-187674D01*
X1632205Y-187674D02*
X1632205Y-206722D01*
D11*
X-60000Y-610000D02*
X0Y-670000D01*
X0Y-610000D02*
X-60000Y-670000D01*
D10*
X298872Y-531484D02*
X317920Y-531484D01*
X317920Y-531484D02*
X336967Y-541008D01*
X336967Y-541008D02*
X346491Y-550531D01*
X346491Y-550531D02*
X356015Y-569579D01*
X356015Y-569579D02*
X365539Y-607674D01*
X365539Y-607674D02*
X365539Y-655293D01*
X365539Y-655293D02*
X356015Y-693389D01*
X356015Y-693389D02*
X346491Y-712436D01*
X346491Y-712436D02*
X336967Y-721960D01*
X336967Y-721960D02*
X317920Y-731484D01*
X317920Y-731484D02*
X298872Y-731484D01*
X298872Y-731484D02*
X279824Y-721960D01*
X279824Y-721960D02*
X270301Y-712436D01*
X270301Y-712436D02*
X260777Y-693389D01*
X260777Y-693389D02*
X251253Y-655293D01*
X251253Y-655293D02*
X251253Y-607674D01*
X251253Y-607674D02*
X260777Y-569579D01*
X260777Y-569579D02*
X270301Y-550531D01*
X270301Y-550531D02*
X279824Y-541008D01*
X279824Y-541008D02*
X298872Y-531484D01*
X451253Y-712436D02*
X460777Y-721960D01*
X460777Y-721960D02*
X451253Y-731484D01*
X451253Y-731484D02*
X441729Y-721960D01*
X441729Y-721960D02*
X451253Y-712436D01*
X451253Y-712436D02*
X451253Y-731484D01*
X632205Y-531484D02*
X594110Y-531484D01*
X594110Y-531484D02*
X575063Y-541008D01*
X575063Y-541008D02*
X565539Y-550531D01*
X565539Y-550531D02*
X546491Y-579103D01*
X546491Y-579103D02*
X536967Y-617198D01*
X536967Y-617198D02*
X536967Y-693389D01*
X536967Y-693389D02*
X546491Y-712436D01*
X546491Y-712436D02*
X556015Y-721960D01*
X556015Y-721960D02*
X575063Y-731484D01*
X575063Y-731484D02*
X613158Y-731484D01*
X613158Y-731484D02*
X632205Y-721960D01*
X632205Y-721960D02*
X641729Y-712436D01*
X641729Y-712436D02*
X651253Y-693389D01*
X651253Y-693389D02*
X651253Y-645770D01*
X651253Y-645770D02*
X641729Y-626722D01*
X641729Y-626722D02*
X632205Y-617198D01*
X632205Y-617198D02*
X613158Y-607674D01*
X613158Y-607674D02*
X575063Y-607674D01*
X575063Y-607674D02*
X556015Y-617198D01*
X556015Y-617198D02*
X546491Y-626722D01*
X546491Y-626722D02*
X536967Y-645770D01*
X775062Y-531484D02*
X794110Y-531484D01*
X794110Y-531484D02*
X813158Y-541008D01*
X813158Y-541008D02*
X822682Y-550531D01*
X822682Y-550531D02*
X832205Y-569579D01*
X832205Y-569579D02*
X841729Y-607674D01*
X841729Y-607674D02*
X841729Y-655293D01*
X841729Y-655293D02*
X832205Y-693389D01*
X832205Y-693389D02*
X822682Y-712436D01*
X822682Y-712436D02*
X813158Y-721960D01*
X813158Y-721960D02*
X794110Y-731484D01*
X794110Y-731484D02*
X775062Y-731484D01*
X775062Y-731484D02*
X756015Y-721960D01*
X756015Y-721960D02*
X746491Y-712436D01*
X746491Y-712436D02*
X736967Y-693389D01*
X736967Y-693389D02*
X727443Y-655293D01*
X727443Y-655293D02*
X727443Y-607674D01*
X727443Y-607674D02*
X736967Y-569579D01*
X736967Y-569579D02*
X746491Y-550531D01*
X746491Y-550531D02*
X756015Y-541008D01*
X756015Y-541008D02*
X775062Y-531484D01*
X965539Y-531484D02*
X984586Y-531484D01*
X984586Y-531484D02*
X1003634Y-541008D01*
X1003634Y-541008D02*
X1013158Y-550531D01*
X1013158Y-550531D02*
X1022682Y-569579D01*
X1022682Y-569579D02*
X1032205Y-607674D01*
X1032205Y-607674D02*
X1032205Y-655293D01*
X1032205Y-655293D02*
X1022682Y-693389D01*
X1022682Y-693389D02*
X1013158Y-712436D01*
X1013158Y-712436D02*
X1003634Y-721960D01*
X1003634Y-721960D02*
X984586Y-731484D01*
X984586Y-731484D02*
X965539Y-731484D01*
X965539Y-731484D02*
X946491Y-721960D01*
X946491Y-721960D02*
X936967Y-712436D01*
X936967Y-712436D02*
X927443Y-693389D01*
X927443Y-693389D02*
X917920Y-655293D01*
X917920Y-655293D02*
X917920Y-607674D01*
X917920Y-607674D02*
X927443Y-569579D01*
X927443Y-569579D02*
X936967Y-550531D01*
X936967Y-550531D02*
X946491Y-541008D01*
X946491Y-541008D02*
X965539Y-531484D01*
X1117920Y-731484D02*
X1117920Y-598150D01*
X1117920Y-617198D02*
X1127444Y-607674D01*
X1127444Y-607674D02*
X1146491Y-598150D01*
X1146491Y-598150D02*
X1175063Y-598150D01*
X1175063Y-598150D02*
X1194110Y-607674D01*
X1194110Y-607674D02*
X1203634Y-626722D01*
X1203634Y-626722D02*
X1203634Y-731484D01*
X1203634Y-626722D02*
X1213158Y-607674D01*
X1213158Y-607674D02*
X1232205Y-598150D01*
X1232205Y-598150D02*
X1260777Y-598150D01*
X1260777Y-598150D02*
X1279825Y-607674D01*
X1279825Y-607674D02*
X1289348Y-626722D01*
X1289348Y-626722D02*
X1289348Y-731484D01*
X1384586Y-731484D02*
X1384586Y-598150D01*
X1384586Y-617198D02*
X1394110Y-607674D01*
X1394110Y-607674D02*
X1413158Y-598150D01*
X1413158Y-598150D02*
X1441729Y-598150D01*
X1441729Y-598150D02*
X1460777Y-607674D01*
X1460777Y-607674D02*
X1470301Y-626722D01*
X1470301Y-626722D02*
X1470301Y-731484D01*
X1470301Y-626722D02*
X1479824Y-607674D01*
X1479824Y-607674D02*
X1498872Y-598150D01*
X1498872Y-598150D02*
X1527443Y-598150D01*
X1527443Y-598150D02*
X1546491Y-607674D01*
X1546491Y-607674D02*
X1556015Y-626722D01*
X1556015Y-626722D02*
X1556015Y-731484D01*
X1946491Y-521960D02*
X1775063Y-779103D01*
X2203634Y-531484D02*
X2222682Y-531484D01*
X2222682Y-531484D02*
X2241729Y-541008D01*
X2241729Y-541008D02*
X2251253Y-550531D01*
X2251253Y-550531D02*
X2260777Y-569579D01*
X2260777Y-569579D02*
X2270301Y-607674D01*
X2270301Y-607674D02*
X2270301Y-655293D01*
X2270301Y-655293D02*
X2260777Y-693389D01*
X2260777Y-693389D02*
X2251253Y-712436D01*
X2251253Y-712436D02*
X2241729Y-721960D01*
X2241729Y-721960D02*
X2222682Y-731484D01*
X2222682Y-731484D02*
X2203634Y-731484D01*
X2203634Y-731484D02*
X2184587Y-721960D01*
X2184587Y-721960D02*
X2175063Y-712436D01*
X2175063Y-712436D02*
X2165539Y-693389D01*
X2165539Y-693389D02*
X2156015Y-655293D01*
X2156015Y-655293D02*
X2156015Y-607674D01*
X2156015Y-607674D02*
X2165539Y-569579D01*
X2165539Y-569579D02*
X2175063Y-550531D01*
X2175063Y-550531D02*
X2184587Y-541008D01*
X2184587Y-541008D02*
X2203634Y-531484D01*
X2356015Y-712436D02*
X2365539Y-721960D01*
X2365539Y-721960D02*
X2356015Y-731484D01*
X2356015Y-731484D02*
X2346491Y-721960D01*
X2346491Y-721960D02*
X2356015Y-712436D01*
X2356015Y-712436D02*
X2356015Y-731484D01*
X2489348Y-531484D02*
X2508396Y-531484D01*
X2508396Y-531484D02*
X2527444Y-541008D01*
X2527444Y-541008D02*
X2536968Y-550531D01*
X2536968Y-550531D02*
X2546491Y-569579D01*
X2546491Y-569579D02*
X2556015Y-607674D01*
X2556015Y-607674D02*
X2556015Y-655293D01*
X2556015Y-655293D02*
X2546491Y-693389D01*
X2546491Y-693389D02*
X2536968Y-712436D01*
X2536968Y-712436D02*
X2527444Y-721960D01*
X2527444Y-721960D02*
X2508396Y-731484D01*
X2508396Y-731484D02*
X2489348Y-731484D01*
X2489348Y-731484D02*
X2470301Y-721960D01*
X2470301Y-721960D02*
X2460777Y-712436D01*
X2460777Y-712436D02*
X2451253Y-693389D01*
X2451253Y-693389D02*
X2441729Y-655293D01*
X2441729Y-655293D02*
X2441729Y-607674D01*
X2441729Y-607674D02*
X2451253Y-569579D01*
X2451253Y-569579D02*
X2460777Y-550531D01*
X2460777Y-550531D02*
X2470301Y-541008D01*
X2470301Y-541008D02*
X2489348Y-531484D01*
X2632206Y-550531D02*
X2641729Y-541008D01*
X2641729Y-541008D02*
X2660777Y-531484D01*
X2660777Y-531484D02*
X2708396Y-531484D01*
X2708396Y-531484D02*
X2727444Y-541008D01*
X2727444Y-541008D02*
X2736968Y-550531D01*
X2736968Y-550531D02*
X2746491Y-569579D01*
X2746491Y-569579D02*
X2746491Y-588627D01*
X2746491Y-588627D02*
X2736968Y-617198D01*
X2736968Y-617198D02*
X2622682Y-731484D01*
X2622682Y-731484D02*
X2746491Y-731484D01*
X2813158Y-531484D02*
X2936967Y-531484D01*
X2936967Y-531484D02*
X2870301Y-607674D01*
X2870301Y-607674D02*
X2898872Y-607674D01*
X2898872Y-607674D02*
X2917920Y-617198D01*
X2917920Y-617198D02*
X2927444Y-626722D01*
X2927444Y-626722D02*
X2936967Y-645770D01*
X2936967Y-645770D02*
X2936967Y-693389D01*
X2936967Y-693389D02*
X2927444Y-712436D01*
X2927444Y-712436D02*
X2917920Y-721960D01*
X2917920Y-721960D02*
X2898872Y-731484D01*
X2898872Y-731484D02*
X2841729Y-731484D01*
X2841729Y-731484D02*
X2822682Y-721960D01*
X2822682Y-721960D02*
X2813158Y-712436D01*
X3108396Y-531484D02*
X3070301Y-531484D01*
X3070301Y-531484D02*
X3051253Y-541008D01*
X3051253Y-541008D02*
X3041729Y-550531D01*
X3041729Y-550531D02*
X3022682Y-579103D01*
X3022682Y-579103D02*
X3013158Y-617198D01*
X3013158Y-617198D02*
X3013158Y-693389D01*
X3013158Y-693389D02*
X3022682Y-712436D01*
X3022682Y-712436D02*
X3032206Y-721960D01*
X3032206Y-721960D02*
X3051253Y-731484D01*
X3051253Y-731484D02*
X3089348Y-731484D01*
X3089348Y-731484D02*
X3108396Y-721960D01*
X3108396Y-721960D02*
X3117920Y-712436D01*
X3117920Y-712436D02*
X3127444Y-693389D01*
X3127444Y-693389D02*
X3127444Y-645770D01*
X3127444Y-645770D02*
X3117920Y-626722D01*
X3117920Y-626722D02*
X3108396Y-617198D01*
X3108396Y-617198D02*
X3089348Y-607674D01*
X3089348Y-607674D02*
X3051253Y-607674D01*
X3051253Y-607674D02*
X3032206Y-617198D01*
X3032206Y-617198D02*
X3022682Y-626722D01*
X3022682Y-626722D02*
X3013158Y-645770D01*
X3203634Y-531484D02*
X3203634Y-569579D01*
X3279825Y-531484D02*
X3279825Y-569579D01*
X3575063Y-807674D02*
X3565539Y-798150D01*
X3565539Y-798150D02*
X3546491Y-769579D01*
X3546491Y-769579D02*
X3536968Y-750531D01*
X3536968Y-750531D02*
X3527444Y-721960D01*
X3527444Y-721960D02*
X3517920Y-674341D01*
X3517920Y-674341D02*
X3517920Y-636246D01*
X3517920Y-636246D02*
X3527444Y-588627D01*
X3527444Y-588627D02*
X3536968Y-560055D01*
X3536968Y-560055D02*
X3546491Y-541008D01*
X3546491Y-541008D02*
X3565539Y-512436D01*
X3565539Y-512436D02*
X3575063Y-502912D01*
X3689348Y-531484D02*
X3708396Y-531484D01*
X3708396Y-531484D02*
X3727444Y-541008D01*
X3727444Y-541008D02*
X3736968Y-550531D01*
X3736968Y-550531D02*
X3746491Y-569579D01*
X3746491Y-569579D02*
X3756015Y-607674D01*
X3756015Y-607674D02*
X3756015Y-655293D01*
X3756015Y-655293D02*
X3746491Y-693389D01*
X3746491Y-693389D02*
X3736968Y-712436D01*
X3736968Y-712436D02*
X3727444Y-721960D01*
X3727444Y-721960D02*
X3708396Y-731484D01*
X3708396Y-731484D02*
X3689348Y-731484D01*
X3689348Y-731484D02*
X3670301Y-721960D01*
X3670301Y-721960D02*
X3660777Y-712436D01*
X3660777Y-712436D02*
X3651253Y-693389D01*
X3651253Y-693389D02*
X3641729Y-655293D01*
X3641729Y-655293D02*
X3641729Y-607674D01*
X3641729Y-607674D02*
X3651253Y-569579D01*
X3651253Y-569579D02*
X3660777Y-550531D01*
X3660777Y-550531D02*
X3670301Y-541008D01*
X3670301Y-541008D02*
X3689348Y-531484D01*
X3994110Y-731484D02*
X3994110Y-531484D01*
X4079825Y-731484D02*
X4079825Y-626722D01*
X4079825Y-626722D02*
X4070301Y-607674D01*
X4070301Y-607674D02*
X4051253Y-598150D01*
X4051253Y-598150D02*
X4022682Y-598150D01*
X4022682Y-598150D02*
X4003634Y-607674D01*
X4003634Y-607674D02*
X3994110Y-617198D01*
X4203634Y-731484D02*
X4184587Y-721960D01*
X4184587Y-721960D02*
X4175063Y-712436D01*
X4175063Y-712436D02*
X4165539Y-693389D01*
X4165539Y-693389D02*
X4165539Y-636246D01*
X4165539Y-636246D02*
X4175063Y-617198D01*
X4175063Y-617198D02*
X4184587Y-607674D01*
X4184587Y-607674D02*
X4203634Y-598150D01*
X4203634Y-598150D02*
X4232206Y-598150D01*
X4232206Y-598150D02*
X4251253Y-607674D01*
X4251253Y-607674D02*
X4260777Y-617198D01*
X4260777Y-617198D02*
X4270301Y-636246D01*
X4270301Y-636246D02*
X4270301Y-693389D01*
X4270301Y-693389D02*
X4260777Y-712436D01*
X4260777Y-712436D02*
X4251253Y-721960D01*
X4251253Y-721960D02*
X4232206Y-731484D01*
X4232206Y-731484D02*
X4203634Y-731484D01*
X4384587Y-731484D02*
X4365539Y-721960D01*
X4365539Y-721960D02*
X4356015Y-702912D01*
X4356015Y-702912D02*
X4356015Y-531484D01*
X4536968Y-721960D02*
X4517920Y-731484D01*
X4517920Y-731484D02*
X4479825Y-731484D01*
X4479825Y-731484D02*
X4460777Y-721960D01*
X4460777Y-721960D02*
X4451253Y-702912D01*
X4451253Y-702912D02*
X4451253Y-626722D01*
X4451253Y-626722D02*
X4460777Y-607674D01*
X4460777Y-607674D02*
X4479825Y-598150D01*
X4479825Y-598150D02*
X4517920Y-598150D01*
X4517920Y-598150D02*
X4536968Y-607674D01*
X4536968Y-607674D02*
X4546492Y-626722D01*
X4546492Y-626722D02*
X4546492Y-645770D01*
X4546492Y-645770D02*
X4451253Y-664817D01*
X4622682Y-721960D02*
X4641730Y-731484D01*
X4641730Y-731484D02*
X4679825Y-731484D01*
X4679825Y-731484D02*
X4698873Y-721960D01*
X4698873Y-721960D02*
X4708396Y-702912D01*
X4708396Y-702912D02*
X4708396Y-693389D01*
X4708396Y-693389D02*
X4698873Y-674341D01*
X4698873Y-674341D02*
X4679825Y-664817D01*
X4679825Y-664817D02*
X4651253Y-664817D01*
X4651253Y-664817D02*
X4632206Y-655293D01*
X4632206Y-655293D02*
X4622682Y-636246D01*
X4622682Y-636246D02*
X4622682Y-626722D01*
X4622682Y-626722D02*
X4632206Y-607674D01*
X4632206Y-607674D02*
X4651253Y-598150D01*
X4651253Y-598150D02*
X4679825Y-598150D01*
X4679825Y-598150D02*
X4698873Y-607674D01*
X4946492Y-655293D02*
X5098873Y-655293D01*
X5022682Y-731484D02*
X5022682Y-579103D01*
X5336968Y-550531D02*
X5346492Y-541008D01*
X5346492Y-541008D02*
X5365539Y-531484D01*
X5365539Y-531484D02*
X5413158Y-531484D01*
X5413158Y-531484D02*
X5432206Y-541008D01*
X5432206Y-541008D02*
X5441730Y-550531D01*
X5441730Y-550531D02*
X5451254Y-569579D01*
X5451254Y-569579D02*
X5451254Y-588627D01*
X5451254Y-588627D02*
X5441730Y-617198D01*
X5441730Y-617198D02*
X5327444Y-731484D01*
X5327444Y-731484D02*
X5451254Y-731484D01*
X5622682Y-531484D02*
X5584587Y-531484D01*
X5584587Y-531484D02*
X5565539Y-541008D01*
X5565539Y-541008D02*
X5556015Y-550531D01*
X5556015Y-550531D02*
X5536968Y-579103D01*
X5536968Y-579103D02*
X5527444Y-617198D01*
X5527444Y-617198D02*
X5527444Y-693389D01*
X5527444Y-693389D02*
X5536968Y-712436D01*
X5536968Y-712436D02*
X5546492Y-721960D01*
X5546492Y-721960D02*
X5565539Y-731484D01*
X5565539Y-731484D02*
X5603634Y-731484D01*
X5603634Y-731484D02*
X5622682Y-721960D01*
X5622682Y-721960D02*
X5632206Y-712436D01*
X5632206Y-712436D02*
X5641730Y-693389D01*
X5641730Y-693389D02*
X5641730Y-645770D01*
X5641730Y-645770D02*
X5632206Y-626722D01*
X5632206Y-626722D02*
X5622682Y-617198D01*
X5622682Y-617198D02*
X5603634Y-607674D01*
X5603634Y-607674D02*
X5565539Y-607674D01*
X5565539Y-607674D02*
X5546492Y-617198D01*
X5546492Y-617198D02*
X5536968Y-626722D01*
X5536968Y-626722D02*
X5527444Y-645770D01*
X5870301Y-721960D02*
X5889349Y-731484D01*
X5889349Y-731484D02*
X5927444Y-731484D01*
X5927444Y-731484D02*
X5946492Y-721960D01*
X5946492Y-721960D02*
X5956015Y-702912D01*
X5956015Y-702912D02*
X5956015Y-693389D01*
X5956015Y-693389D02*
X5946492Y-674341D01*
X5946492Y-674341D02*
X5927444Y-664817D01*
X5927444Y-664817D02*
X5898873Y-664817D01*
X5898873Y-664817D02*
X5879825Y-655293D01*
X5879825Y-655293D02*
X5870301Y-636246D01*
X5870301Y-636246D02*
X5870301Y-626722D01*
X5870301Y-626722D02*
X5879825Y-607674D01*
X5879825Y-607674D02*
X5898873Y-598150D01*
X5898873Y-598150D02*
X5927444Y-598150D01*
X5927444Y-598150D02*
X5946492Y-607674D01*
X6070301Y-731484D02*
X6051254Y-721960D01*
X6051254Y-721960D02*
X6041730Y-702912D01*
X6041730Y-702912D02*
X6041730Y-531484D01*
X6175063Y-731484D02*
X6156015Y-721960D01*
X6156015Y-721960D02*
X6146492Y-712436D01*
X6146492Y-712436D02*
X6136968Y-693389D01*
X6136968Y-693389D02*
X6136968Y-636246D01*
X6136968Y-636246D02*
X6146492Y-617198D01*
X6146492Y-617198D02*
X6156015Y-607674D01*
X6156015Y-607674D02*
X6175063Y-598150D01*
X6175063Y-598150D02*
X6203635Y-598150D01*
X6203635Y-598150D02*
X6222682Y-607674D01*
X6222682Y-607674D02*
X6232206Y-617198D01*
X6232206Y-617198D02*
X6241730Y-636246D01*
X6241730Y-636246D02*
X6241730Y-693389D01*
X6241730Y-693389D02*
X6232206Y-712436D01*
X6232206Y-712436D02*
X6222682Y-721960D01*
X6222682Y-721960D02*
X6203635Y-731484D01*
X6203635Y-731484D02*
X6175063Y-731484D01*
X6298873Y-598150D02*
X6375063Y-598150D01*
X6327444Y-531484D02*
X6327444Y-702912D01*
X6327444Y-702912D02*
X6336968Y-721960D01*
X6336968Y-721960D02*
X6356015Y-731484D01*
X6356015Y-731484D02*
X6375063Y-731484D01*
X6432206Y-721960D02*
X6451254Y-731484D01*
X6451254Y-731484D02*
X6489349Y-731484D01*
X6489349Y-731484D02*
X6508396Y-721960D01*
X6508396Y-721960D02*
X6517920Y-702912D01*
X6517920Y-702912D02*
X6517920Y-693389D01*
X6517920Y-693389D02*
X6508396Y-674341D01*
X6508396Y-674341D02*
X6489349Y-664817D01*
X6489349Y-664817D02*
X6460777Y-664817D01*
X6460777Y-664817D02*
X6441730Y-655293D01*
X6441730Y-655293D02*
X6432206Y-636246D01*
X6432206Y-636246D02*
X6432206Y-626722D01*
X6432206Y-626722D02*
X6441730Y-607674D01*
X6441730Y-607674D02*
X6460777Y-598150D01*
X6460777Y-598150D02*
X6489349Y-598150D01*
X6489349Y-598150D02*
X6508396Y-607674D01*
X6584587Y-807674D02*
X6594111Y-798150D01*
X6594111Y-798150D02*
X6613158Y-769579D01*
X6613158Y-769579D02*
X6622682Y-750531D01*
X6622682Y-750531D02*
X6632206Y-721960D01*
X6632206Y-721960D02*
X6641730Y-674341D01*
X6641730Y-674341D02*
X6641730Y-636246D01*
X6641730Y-636246D02*
X6632206Y-588627D01*
X6632206Y-588627D02*
X6622682Y-560055D01*
X6622682Y-560055D02*
X6613158Y-541008D01*
X6613158Y-541008D02*
X6594111Y-512436D01*
X6594111Y-512436D02*
X6584587Y-502912D01*
X0Y-904000D02*
G75*
G02*
X-200000Y-904000I-100000J0D01*
G01*
X-200000Y-904000D02*
G75*
G02*
X0Y-904000I100000J0D01*
G01*
X251253Y-814531D02*
X260777Y-805008D01*
X260777Y-805008D02*
X279824Y-795484D01*
X279824Y-795484D02*
X327444Y-795484D01*
X327444Y-795484D02*
X346491Y-805008D01*
X346491Y-805008D02*
X356015Y-814531D01*
X356015Y-814531D02*
X365539Y-833579D01*
X365539Y-833579D02*
X365539Y-852627D01*
X365539Y-852627D02*
X356015Y-881198D01*
X356015Y-881198D02*
X241729Y-995484D01*
X241729Y-995484D02*
X365539Y-995484D01*
X451253Y-976436D02*
X460777Y-985960D01*
X460777Y-985960D02*
X451253Y-995484D01*
X451253Y-995484D02*
X441729Y-985960D01*
X441729Y-985960D02*
X451253Y-976436D01*
X451253Y-976436D02*
X451253Y-995484D01*
X527444Y-795484D02*
X660777Y-795484D01*
X660777Y-795484D02*
X575063Y-995484D01*
X775062Y-795484D02*
X794110Y-795484D01*
X794110Y-795484D02*
X813158Y-805008D01*
X813158Y-805008D02*
X822682Y-814531D01*
X822682Y-814531D02*
X832205Y-833579D01*
X832205Y-833579D02*
X841729Y-871674D01*
X841729Y-871674D02*
X841729Y-919293D01*
X841729Y-919293D02*
X832205Y-957388D01*
X832205Y-957388D02*
X822682Y-976436D01*
X822682Y-976436D02*
X813158Y-985960D01*
X813158Y-985960D02*
X794110Y-995484D01*
X794110Y-995484D02*
X775062Y-995484D01*
X775062Y-995484D02*
X756015Y-985960D01*
X756015Y-985960D02*
X746491Y-976436D01*
X746491Y-976436D02*
X736967Y-957388D01*
X736967Y-957388D02*
X727443Y-919293D01*
X727443Y-919293D02*
X727443Y-871674D01*
X727443Y-871674D02*
X736967Y-833579D01*
X736967Y-833579D02*
X746491Y-814531D01*
X746491Y-814531D02*
X756015Y-805008D01*
X756015Y-805008D02*
X775062Y-795484D01*
X965539Y-795484D02*
X984586Y-795484D01*
X984586Y-795484D02*
X1003634Y-805008D01*
X1003634Y-805008D02*
X1013158Y-814531D01*
X1013158Y-814531D02*
X1022682Y-833579D01*
X1022682Y-833579D02*
X1032205Y-871674D01*
X1032205Y-871674D02*
X1032205Y-919293D01*
X1032205Y-919293D02*
X1022682Y-957388D01*
X1022682Y-957388D02*
X1013158Y-976436D01*
X1013158Y-976436D02*
X1003634Y-985960D01*
X1003634Y-985960D02*
X984586Y-995484D01*
X984586Y-995484D02*
X965539Y-995484D01*
X965539Y-995484D02*
X946491Y-985960D01*
X946491Y-985960D02*
X936967Y-976436D01*
X936967Y-976436D02*
X927443Y-957388D01*
X927443Y-957388D02*
X917920Y-919293D01*
X917920Y-919293D02*
X917920Y-871674D01*
X917920Y-871674D02*
X927443Y-833579D01*
X927443Y-833579D02*
X936967Y-814531D01*
X936967Y-814531D02*
X946491Y-805008D01*
X946491Y-805008D02*
X965539Y-795484D01*
X1117920Y-995484D02*
X1117920Y-862150D01*
X1117920Y-881198D02*
X1127444Y-871674D01*
X1127444Y-871674D02*
X1146491Y-862150D01*
X1146491Y-862150D02*
X1175063Y-862150D01*
X1175063Y-862150D02*
X1194110Y-871674D01*
X1194110Y-871674D02*
X1203634Y-890722D01*
X1203634Y-890722D02*
X1203634Y-995484D01*
X1203634Y-890722D02*
X1213158Y-871674D01*
X1213158Y-871674D02*
X1232205Y-862150D01*
X1232205Y-862150D02*
X1260777Y-862150D01*
X1260777Y-862150D02*
X1279825Y-871674D01*
X1279825Y-871674D02*
X1289348Y-890722D01*
X1289348Y-890722D02*
X1289348Y-995484D01*
X1384586Y-995484D02*
X1384586Y-862150D01*
X1384586Y-881198D02*
X1394110Y-871674D01*
X1394110Y-871674D02*
X1413158Y-862150D01*
X1413158Y-862150D02*
X1441729Y-862150D01*
X1441729Y-862150D02*
X1460777Y-871674D01*
X1460777Y-871674D02*
X1470301Y-890722D01*
X1470301Y-890722D02*
X1470301Y-995484D01*
X1470301Y-890722D02*
X1479824Y-871674D01*
X1479824Y-871674D02*
X1498872Y-862150D01*
X1498872Y-862150D02*
X1527443Y-862150D01*
X1527443Y-862150D02*
X1546491Y-871674D01*
X1546491Y-871674D02*
X1556015Y-890722D01*
X1556015Y-890722D02*
X1556015Y-995484D01*
X1946491Y-785960D02*
X1775063Y-1043103D01*
X2203634Y-795484D02*
X2222682Y-795484D01*
X2222682Y-795484D02*
X2241729Y-805008D01*
X2241729Y-805008D02*
X2251253Y-814531D01*
X2251253Y-814531D02*
X2260777Y-833579D01*
X2260777Y-833579D02*
X2270301Y-871674D01*
X2270301Y-871674D02*
X2270301Y-919293D01*
X2270301Y-919293D02*
X2260777Y-957388D01*
X2260777Y-957388D02*
X2251253Y-976436D01*
X2251253Y-976436D02*
X2241729Y-985960D01*
X2241729Y-985960D02*
X2222682Y-995484D01*
X2222682Y-995484D02*
X2203634Y-995484D01*
X2203634Y-995484D02*
X2184587Y-985960D01*
X2184587Y-985960D02*
X2175063Y-976436D01*
X2175063Y-976436D02*
X2165539Y-957388D01*
X2165539Y-957388D02*
X2156015Y-919293D01*
X2156015Y-919293D02*
X2156015Y-871674D01*
X2156015Y-871674D02*
X2165539Y-833579D01*
X2165539Y-833579D02*
X2175063Y-814531D01*
X2175063Y-814531D02*
X2184587Y-805008D01*
X2184587Y-805008D02*
X2203634Y-795484D01*
X2356015Y-976436D02*
X2365539Y-985960D01*
X2365539Y-985960D02*
X2356015Y-995484D01*
X2356015Y-995484D02*
X2346491Y-985960D01*
X2346491Y-985960D02*
X2356015Y-976436D01*
X2356015Y-976436D02*
X2356015Y-995484D01*
X2556015Y-995484D02*
X2441729Y-995484D01*
X2498872Y-995484D02*
X2498872Y-795484D01*
X2498872Y-795484D02*
X2479825Y-824055D01*
X2479825Y-824055D02*
X2460777Y-843103D01*
X2460777Y-843103D02*
X2441729Y-852627D01*
X2679825Y-795484D02*
X2698872Y-795484D01*
X2698872Y-795484D02*
X2717920Y-805008D01*
X2717920Y-805008D02*
X2727444Y-814531D01*
X2727444Y-814531D02*
X2736968Y-833579D01*
X2736968Y-833579D02*
X2746491Y-871674D01*
X2746491Y-871674D02*
X2746491Y-919293D01*
X2746491Y-919293D02*
X2736968Y-957388D01*
X2736968Y-957388D02*
X2727444Y-976436D01*
X2727444Y-976436D02*
X2717920Y-985960D01*
X2717920Y-985960D02*
X2698872Y-995484D01*
X2698872Y-995484D02*
X2679825Y-995484D01*
X2679825Y-995484D02*
X2660777Y-985960D01*
X2660777Y-985960D02*
X2651253Y-976436D01*
X2651253Y-976436D02*
X2641729Y-957388D01*
X2641729Y-957388D02*
X2632206Y-919293D01*
X2632206Y-919293D02*
X2632206Y-871674D01*
X2632206Y-871674D02*
X2641729Y-833579D01*
X2641729Y-833579D02*
X2651253Y-814531D01*
X2651253Y-814531D02*
X2660777Y-805008D01*
X2660777Y-805008D02*
X2679825Y-795484D01*
X2917920Y-795484D02*
X2879825Y-795484D01*
X2879825Y-795484D02*
X2860777Y-805008D01*
X2860777Y-805008D02*
X2851253Y-814531D01*
X2851253Y-814531D02*
X2832206Y-843103D01*
X2832206Y-843103D02*
X2822682Y-881198D01*
X2822682Y-881198D02*
X2822682Y-957388D01*
X2822682Y-957388D02*
X2832206Y-976436D01*
X2832206Y-976436D02*
X2841729Y-985960D01*
X2841729Y-985960D02*
X2860777Y-995484D01*
X2860777Y-995484D02*
X2898872Y-995484D01*
X2898872Y-995484D02*
X2917920Y-985960D01*
X2917920Y-985960D02*
X2927444Y-976436D01*
X2927444Y-976436D02*
X2936967Y-957388D01*
X2936967Y-957388D02*
X2936967Y-909769D01*
X2936967Y-909769D02*
X2927444Y-890722D01*
X2927444Y-890722D02*
X2917920Y-881198D01*
X2917920Y-881198D02*
X2898872Y-871674D01*
X2898872Y-871674D02*
X2860777Y-871674D01*
X2860777Y-871674D02*
X2841729Y-881198D01*
X2841729Y-881198D02*
X2832206Y-890722D01*
X2832206Y-890722D02*
X2822682Y-909769D01*
X3003634Y-795484D02*
X3127444Y-795484D01*
X3127444Y-795484D02*
X3060777Y-871674D01*
X3060777Y-871674D02*
X3089348Y-871674D01*
X3089348Y-871674D02*
X3108396Y-881198D01*
X3108396Y-881198D02*
X3117920Y-890722D01*
X3117920Y-890722D02*
X3127444Y-909769D01*
X3127444Y-909769D02*
X3127444Y-957388D01*
X3127444Y-957388D02*
X3117920Y-976436D01*
X3117920Y-976436D02*
X3108396Y-985960D01*
X3108396Y-985960D02*
X3089348Y-995484D01*
X3089348Y-995484D02*
X3032206Y-995484D01*
X3032206Y-995484D02*
X3013158Y-985960D01*
X3013158Y-985960D02*
X3003634Y-976436D01*
X3203634Y-795484D02*
X3203634Y-833579D01*
X3279825Y-795484D02*
X3279825Y-833579D01*
X3575063Y-1071674D02*
X3565539Y-1062150D01*
X3565539Y-1062150D02*
X3546491Y-1033579D01*
X3546491Y-1033579D02*
X3536968Y-1014531D01*
X3536968Y-1014531D02*
X3527444Y-985960D01*
X3527444Y-985960D02*
X3517920Y-938341D01*
X3517920Y-938341D02*
X3517920Y-900246D01*
X3517920Y-900246D02*
X3527444Y-852627D01*
X3527444Y-852627D02*
X3536968Y-824055D01*
X3536968Y-824055D02*
X3546491Y-805008D01*
X3546491Y-805008D02*
X3565539Y-776436D01*
X3565539Y-776436D02*
X3575063Y-766912D01*
X3641729Y-814531D02*
X3651253Y-805008D01*
X3651253Y-805008D02*
X3670301Y-795484D01*
X3670301Y-795484D02*
X3717920Y-795484D01*
X3717920Y-795484D02*
X3736968Y-805008D01*
X3736968Y-805008D02*
X3746491Y-814531D01*
X3746491Y-814531D02*
X3756015Y-833579D01*
X3756015Y-833579D02*
X3756015Y-852627D01*
X3756015Y-852627D02*
X3746491Y-881198D01*
X3746491Y-881198D02*
X3632206Y-995484D01*
X3632206Y-995484D02*
X3756015Y-995484D01*
X3927444Y-795484D02*
X3889348Y-795484D01*
X3889348Y-795484D02*
X3870301Y-805008D01*
X3870301Y-805008D02*
X3860777Y-814531D01*
X3860777Y-814531D02*
X3841729Y-843103D01*
X3841729Y-843103D02*
X3832206Y-881198D01*
X3832206Y-881198D02*
X3832206Y-957388D01*
X3832206Y-957388D02*
X3841729Y-976436D01*
X3841729Y-976436D02*
X3851253Y-985960D01*
X3851253Y-985960D02*
X3870301Y-995484D01*
X3870301Y-995484D02*
X3908396Y-995484D01*
X3908396Y-995484D02*
X3927444Y-985960D01*
X3927444Y-985960D02*
X3936968Y-976436D01*
X3936968Y-976436D02*
X3946491Y-957388D01*
X3946491Y-957388D02*
X3946491Y-909769D01*
X3946491Y-909769D02*
X3936968Y-890722D01*
X3936968Y-890722D02*
X3927444Y-881198D01*
X3927444Y-881198D02*
X3908396Y-871674D01*
X3908396Y-871674D02*
X3870301Y-871674D01*
X3870301Y-871674D02*
X3851253Y-881198D01*
X3851253Y-881198D02*
X3841729Y-890722D01*
X3841729Y-890722D02*
X3832206Y-909769D01*
X4184587Y-995484D02*
X4184587Y-795484D01*
X4270301Y-995484D02*
X4270301Y-890722D01*
X4270301Y-890722D02*
X4260777Y-871674D01*
X4260777Y-871674D02*
X4241730Y-862150D01*
X4241730Y-862150D02*
X4213158Y-862150D01*
X4213158Y-862150D02*
X4194110Y-871674D01*
X4194110Y-871674D02*
X4184587Y-881198D01*
X4394111Y-995484D02*
X4375063Y-985960D01*
X4375063Y-985960D02*
X4365539Y-976436D01*
X4365539Y-976436D02*
X4356015Y-957388D01*
X4356015Y-957388D02*
X4356015Y-900246D01*
X4356015Y-900246D02*
X4365539Y-881198D01*
X4365539Y-881198D02*
X4375063Y-871674D01*
X4375063Y-871674D02*
X4394111Y-862150D01*
X4394111Y-862150D02*
X4422682Y-862150D01*
X4422682Y-862150D02*
X4441730Y-871674D01*
X4441730Y-871674D02*
X4451253Y-881198D01*
X4451253Y-881198D02*
X4460777Y-900246D01*
X4460777Y-900246D02*
X4460777Y-957388D01*
X4460777Y-957388D02*
X4451253Y-976436D01*
X4451253Y-976436D02*
X4441730Y-985960D01*
X4441730Y-985960D02*
X4422682Y-995484D01*
X4422682Y-995484D02*
X4394111Y-995484D01*
X4575063Y-995484D02*
X4556015Y-985960D01*
X4556015Y-985960D02*
X4546492Y-966912D01*
X4546492Y-966912D02*
X4546492Y-795484D01*
X4727444Y-985960D02*
X4708396Y-995484D01*
X4708396Y-995484D02*
X4670301Y-995484D01*
X4670301Y-995484D02*
X4651253Y-985960D01*
X4651253Y-985960D02*
X4641730Y-966912D01*
X4641730Y-966912D02*
X4641730Y-890722D01*
X4641730Y-890722D02*
X4651253Y-871674D01*
X4651253Y-871674D02*
X4670301Y-862150D01*
X4670301Y-862150D02*
X4708396Y-862150D01*
X4708396Y-862150D02*
X4727444Y-871674D01*
X4727444Y-871674D02*
X4736968Y-890722D01*
X4736968Y-890722D02*
X4736968Y-909769D01*
X4736968Y-909769D02*
X4641730Y-928817D01*
X4813158Y-985960D02*
X4832206Y-995484D01*
X4832206Y-995484D02*
X4870301Y-995484D01*
X4870301Y-995484D02*
X4889349Y-985960D01*
X4889349Y-985960D02*
X4898873Y-966912D01*
X4898873Y-966912D02*
X4898873Y-957388D01*
X4898873Y-957388D02*
X4889349Y-938341D01*
X4889349Y-938341D02*
X4870301Y-928817D01*
X4870301Y-928817D02*
X4841730Y-928817D01*
X4841730Y-928817D02*
X4822682Y-919293D01*
X4822682Y-919293D02*
X4813158Y-900246D01*
X4813158Y-900246D02*
X4813158Y-890722D01*
X4813158Y-890722D02*
X4822682Y-871674D01*
X4822682Y-871674D02*
X4841730Y-862150D01*
X4841730Y-862150D02*
X4870301Y-862150D01*
X4870301Y-862150D02*
X4889349Y-871674D01*
X4965539Y-1071674D02*
X4975063Y-1062150D01*
X4975063Y-1062150D02*
X4994111Y-1033579D01*
X4994111Y-1033579D02*
X5003634Y-1014531D01*
X5003634Y-1014531D02*
X5013158Y-985960D01*
X5013158Y-985960D02*
X5022682Y-938341D01*
X5022682Y-938341D02*
X5022682Y-900246D01*
X5022682Y-900246D02*
X5013158Y-852627D01*
X5013158Y-852627D02*
X5003634Y-824055D01*
X5003634Y-824055D02*
X4994111Y-805008D01*
X4994111Y-805008D02*
X4975063Y-776436D01*
X4975063Y-776436D02*
X4965539Y-766912D01*
M02*
