%TF.GenerationSoftware,KiCad,Pcbnew,8.0.6*%
%TF.CreationDate,2025-03-13T21:17:34-04:00*%
%TF.ProjectId,XT60ConnectorBoard,58543630-436f-46e6-9e65-63746f72426f,rev?*%
%TF.SameCoordinates,Original*%
%TF.FileFunction,Copper,L1,Top*%
%TF.FilePolarity,Positive*%
%FSLAX46Y46*%
G04 Gerber Fmt 4.6, Leading zero omitted, Abs format (unit mm)*
G04 Created by KiCad (PCBNEW 8.0.6) date 2025-03-13 21:17:34*
%MOMM*%
%LPD*%
G01*
G04 APERTURE LIST*
G04 Aperture macros list*
%AMRoundRect*
0 Rectangle with rounded corners*
0 $1 Rounding radius*
0 $2 $3 $4 $5 $6 $7 $8 $9 X,Y pos of 4 corners*
0 Add a 4 corners polygon primitive as box body*
4,1,4,$2,$3,$4,$5,$6,$7,$8,$9,$2,$3,0*
0 Add four circle primitives for the rounded corners*
1,1,$1+$1,$2,$3*
1,1,$1+$1,$4,$5*
1,1,$1+$1,$6,$7*
1,1,$1+$1,$8,$9*
0 Add four rect primitives between the rounded corners*
20,1,$1+$1,$2,$3,$4,$5,0*
20,1,$1+$1,$4,$5,$6,$7,0*
20,1,$1+$1,$6,$7,$8,$9,0*
20,1,$1+$1,$8,$9,$2,$3,0*%
G04 Aperture macros list end*
%TA.AperFunction,NonConductor*%
%ADD10C,0.200000*%
%TD*%
%TA.AperFunction,ComponentPad*%
%ADD11R,0.900000X2.000000*%
%TD*%
%TA.AperFunction,ComponentPad*%
%ADD12RoundRect,1.025000X1.025000X1.025000X-1.025000X1.025000X-1.025000X-1.025000X1.025000X-1.025000X0*%
%TD*%
%TA.AperFunction,ComponentPad*%
%ADD13C,4.100000*%
%TD*%
%TA.AperFunction,ComponentPad*%
%ADD14R,2.000000X0.900000*%
%TD*%
%TA.AperFunction,ComponentPad*%
%ADD15RoundRect,1.025000X-1.025000X1.025000X-1.025000X-1.025000X1.025000X-1.025000X1.025000X1.025000X0*%
%TD*%
%TA.AperFunction,ComponentPad*%
%ADD16RoundRect,1.025000X-1.025000X-1.025000X1.025000X-1.025000X1.025000X1.025000X-1.025000X1.025000X0*%
%TD*%
G04 APERTURE END LIST*
D10*
X68500000Y-53000000D02*
X199500000Y-53000000D01*
X199500000Y-115000000D01*
X68500000Y-115000000D01*
X68500000Y-53000000D01*
D11*
%TO.P,J12,*%
%TO.N,*%
X109150000Y-104150000D03*
X95650000Y-104150000D03*
D12*
%TO.P,J12,1,+*%
%TO.N,GND*%
X106000000Y-98150000D03*
D13*
%TO.P,J12,2,-*%
%TO.N,VCC*%
X98800000Y-98150000D03*
%TD*%
D11*
%TO.P,J8,*%
%TO.N,*%
X179050000Y-104000000D03*
X165550000Y-104000000D03*
D12*
%TO.P,J8,1,+*%
%TO.N,GND*%
X175900000Y-98000000D03*
D13*
%TO.P,J8,2,-*%
%TO.N,VCC*%
X168700000Y-98000000D03*
%TD*%
D14*
%TO.P,J1,*%
%TO.N,*%
X188350000Y-77250000D03*
X188350000Y-90750000D03*
D15*
%TO.P,J1,1,+*%
%TO.N,GND*%
X182350000Y-80400000D03*
D13*
%TO.P,J1,2,-*%
%TO.N,VCC*%
X182350000Y-87600000D03*
%TD*%
D11*
%TO.P,J13,*%
%TO.N,*%
X91600000Y-104150000D03*
X78100000Y-104150000D03*
D12*
%TO.P,J13,1,+*%
%TO.N,GND*%
X88450000Y-98150000D03*
D13*
%TO.P,J13,2,-*%
%TO.N,VCC*%
X81250000Y-98150000D03*
%TD*%
D11*
%TO.P,J9,*%
%TO.N,*%
X161500000Y-104000000D03*
X148000000Y-104000000D03*
D12*
%TO.P,J9,1,+*%
%TO.N,GND*%
X158350000Y-98000000D03*
D13*
%TO.P,J9,2,-*%
%TO.N,VCC*%
X151150000Y-98000000D03*
%TD*%
D11*
%TO.P,J2,*%
%TO.N,*%
X77900000Y-64000000D03*
X91400000Y-64000000D03*
D16*
%TO.P,J2,1,+*%
%TO.N,GND*%
X81050000Y-70000000D03*
D13*
%TO.P,J2,2,-*%
%TO.N,VCC*%
X88250000Y-70000000D03*
%TD*%
D11*
%TO.P,J6,*%
%TO.N,*%
X147950000Y-64000000D03*
X161450000Y-64000000D03*
D16*
%TO.P,J6,1,+*%
%TO.N,GND*%
X151100000Y-70000000D03*
D13*
%TO.P,J6,2,-*%
%TO.N,VCC*%
X158300000Y-70000000D03*
%TD*%
D11*
%TO.P,J10,*%
%TO.N,*%
X143950000Y-104000000D03*
X130450000Y-104000000D03*
D12*
%TO.P,J10,1,+*%
%TO.N,GND*%
X140800000Y-98000000D03*
D13*
%TO.P,J10,2,-*%
%TO.N,VCC*%
X133600000Y-98000000D03*
%TD*%
D11*
%TO.P,J5,*%
%TO.N,*%
X130550000Y-64000000D03*
X144050000Y-64000000D03*
D16*
%TO.P,J5,1,+*%
%TO.N,GND*%
X133700000Y-70000000D03*
D13*
%TO.P,J5,2,-*%
%TO.N,VCC*%
X140900000Y-70000000D03*
%TD*%
D11*
%TO.P,J7,*%
%TO.N,*%
X165450000Y-64000000D03*
X178950000Y-64000000D03*
D16*
%TO.P,J7,1,+*%
%TO.N,unconnected-(J7-+-Pad1)*%
X168600000Y-70000000D03*
D13*
%TO.P,J7,2,-*%
%TO.N,VCC*%
X175800000Y-70000000D03*
%TD*%
D11*
%TO.P,J11,*%
%TO.N,*%
X126700000Y-104150000D03*
X113200000Y-104150000D03*
D12*
%TO.P,J11,1,+*%
%TO.N,GND*%
X123550000Y-98150000D03*
D13*
%TO.P,J11,2,-*%
%TO.N,VCC*%
X116350000Y-98150000D03*
%TD*%
D11*
%TO.P,J4,*%
%TO.N,*%
X113000000Y-64000000D03*
X126500000Y-64000000D03*
D16*
%TO.P,J4,1,+*%
%TO.N,GND*%
X116150000Y-70000000D03*
D13*
%TO.P,J4,2,-*%
%TO.N,VCC*%
X123350000Y-70000000D03*
%TD*%
D11*
%TO.P,J3,*%
%TO.N,*%
X95450000Y-64000000D03*
X108950000Y-64000000D03*
D16*
%TO.P,J3,1,+*%
%TO.N,GND*%
X98600000Y-70000000D03*
D13*
%TO.P,J3,2,-*%
%TO.N,VCC*%
X105800000Y-70000000D03*
%TD*%
%TA.AperFunction,Conductor*%
%TO.N,VCC*%
G36*
X78705203Y-98560681D02*
G01*
X78742977Y-98619459D01*
X78745804Y-98631159D01*
X78775230Y-98785417D01*
X78874382Y-99090575D01*
X78874384Y-99090580D01*
X79010998Y-99380897D01*
X79011001Y-99380903D01*
X79182921Y-99651806D01*
X79278773Y-99767671D01*
X80134728Y-98911716D01*
X80220278Y-99029466D01*
X80370534Y-99179722D01*
X80488281Y-99265270D01*
X79629175Y-100124375D01*
X79629176Y-100124377D01*
X79837430Y-100275682D01*
X79880096Y-100331012D01*
X79886075Y-100400625D01*
X79853469Y-100462420D01*
X79792631Y-100496777D01*
X79764545Y-100500000D01*
X78624000Y-100500000D01*
X78556961Y-100480315D01*
X78511206Y-100427511D01*
X78500000Y-100376000D01*
X78500000Y-98654394D01*
X78519685Y-98587355D01*
X78572489Y-98541600D01*
X78641647Y-98531656D01*
X78705203Y-98560681D01*
G37*
%TD.AperFunction*%
%TA.AperFunction,Conductor*%
G36*
X87088412Y-67519685D02*
G01*
X87134167Y-67572489D01*
X87144111Y-67641647D01*
X87115086Y-67705203D01*
X87081111Y-67732662D01*
X86880940Y-67842707D01*
X86880928Y-67842714D01*
X86629176Y-68025622D01*
X86629175Y-68025623D01*
X87488281Y-68884729D01*
X87370534Y-68970278D01*
X87220278Y-69120534D01*
X87134729Y-69238282D01*
X86278773Y-68382326D01*
X86182924Y-68498188D01*
X86011001Y-68769096D01*
X86010998Y-68769102D01*
X85874384Y-69059419D01*
X85874382Y-69059424D01*
X85775230Y-69364582D01*
X85715104Y-69679771D01*
X85715103Y-69679778D01*
X85694958Y-69999994D01*
X85694958Y-70000005D01*
X85715103Y-70320221D01*
X85715104Y-70320228D01*
X85775230Y-70635417D01*
X85874382Y-70940575D01*
X85874384Y-70940580D01*
X86010998Y-71230897D01*
X86011001Y-71230903D01*
X86182921Y-71501806D01*
X86278773Y-71617671D01*
X87134728Y-70761716D01*
X87220278Y-70879466D01*
X87370534Y-71029722D01*
X87488281Y-71115270D01*
X86629175Y-71974375D01*
X86629176Y-71974377D01*
X86880928Y-72157285D01*
X86880946Y-72157297D01*
X87162116Y-72311871D01*
X87162124Y-72311875D01*
X87460444Y-72429987D01*
X87771233Y-72509784D01*
X87771242Y-72509786D01*
X88089556Y-72549999D01*
X88089570Y-72550000D01*
X88410430Y-72550000D01*
X88410443Y-72549999D01*
X88728757Y-72509786D01*
X88728766Y-72509784D01*
X89039555Y-72429987D01*
X89337875Y-72311875D01*
X89337883Y-72311871D01*
X89619053Y-72157297D01*
X89619063Y-72157290D01*
X89870822Y-71974375D01*
X89870823Y-71974375D01*
X89011718Y-71115270D01*
X89129466Y-71029722D01*
X89279722Y-70879466D01*
X89365270Y-70761717D01*
X90221225Y-71617672D01*
X90317068Y-71501819D01*
X90489002Y-71230896D01*
X90625615Y-70940580D01*
X90625617Y-70940575D01*
X90724769Y-70635417D01*
X90784895Y-70320228D01*
X90784896Y-70320221D01*
X90805042Y-70000005D01*
X90805042Y-69999994D01*
X90784896Y-69679778D01*
X90784895Y-69679771D01*
X90724769Y-69364582D01*
X90625617Y-69059424D01*
X90625615Y-69059419D01*
X90489001Y-68769102D01*
X90488998Y-68769096D01*
X90317078Y-68498193D01*
X90221224Y-68382326D01*
X89365269Y-69238281D01*
X89279722Y-69120534D01*
X89129466Y-68970278D01*
X89011716Y-68884728D01*
X89870823Y-68025623D01*
X89870822Y-68025621D01*
X89619071Y-67842714D01*
X89619059Y-67842707D01*
X89418889Y-67732662D01*
X89369625Y-67683116D01*
X89354969Y-67614801D01*
X89379573Y-67549406D01*
X89435626Y-67507695D01*
X89478627Y-67500000D01*
X96621387Y-67500000D01*
X96688426Y-67519685D01*
X96734181Y-67572489D01*
X96744125Y-67641647D01*
X96715100Y-67705203D01*
X96685539Y-67730115D01*
X96680425Y-67733206D01*
X96680407Y-67733219D01*
X96492798Y-67892798D01*
X96333219Y-68080407D01*
X96333212Y-68080417D01*
X96205798Y-68291185D01*
X96205795Y-68291190D01*
X96113835Y-68519680D01*
X96113835Y-68519682D01*
X96059719Y-68759963D01*
X96059718Y-68759970D01*
X96049500Y-68904702D01*
X96049500Y-71095292D01*
X96049501Y-71095298D01*
X96059718Y-71240027D01*
X96059718Y-71240031D01*
X96059719Y-71240034D01*
X96059720Y-71240038D01*
X96113834Y-71480314D01*
X96113835Y-71480319D01*
X96205795Y-71708809D01*
X96333216Y-71919589D01*
X96333219Y-71919592D01*
X96492798Y-72107201D01*
X96602990Y-72200930D01*
X96680411Y-72266784D01*
X96891191Y-72394205D01*
X97119683Y-72486165D01*
X97359966Y-72540281D01*
X97504705Y-72550500D01*
X99695294Y-72550499D01*
X99840034Y-72540281D01*
X100080317Y-72486165D01*
X100308809Y-72394205D01*
X100519589Y-72266784D01*
X100707201Y-72107201D01*
X100866784Y-71919589D01*
X100994205Y-71708809D01*
X101086165Y-71480317D01*
X101140281Y-71240034D01*
X101150500Y-71095295D01*
X101150499Y-68904706D01*
X101140281Y-68759966D01*
X101086165Y-68519683D01*
X100994205Y-68291191D01*
X100866784Y-68080411D01*
X100800930Y-68002990D01*
X100707201Y-67892798D01*
X100577654Y-67782606D01*
X100519589Y-67733216D01*
X100519581Y-67733211D01*
X100519574Y-67733206D01*
X100514461Y-67730115D01*
X100467274Y-67678587D01*
X100455437Y-67609727D01*
X100482708Y-67545399D01*
X100540427Y-67506026D01*
X100578613Y-67500000D01*
X104571373Y-67500000D01*
X104638412Y-67519685D01*
X104684167Y-67572489D01*
X104694111Y-67641647D01*
X104665086Y-67705203D01*
X104631111Y-67732662D01*
X104430940Y-67842707D01*
X104430928Y-67842714D01*
X104179176Y-68025622D01*
X104179175Y-68025623D01*
X105038281Y-68884729D01*
X104920534Y-68970278D01*
X104770278Y-69120534D01*
X104684729Y-69238282D01*
X103828773Y-68382326D01*
X103732924Y-68498188D01*
X103561001Y-68769096D01*
X103560998Y-68769102D01*
X103424384Y-69059419D01*
X103424382Y-69059424D01*
X103325230Y-69364582D01*
X103265104Y-69679771D01*
X103265103Y-69679778D01*
X103244958Y-69999994D01*
X103244958Y-70000005D01*
X103265103Y-70320221D01*
X103265104Y-70320228D01*
X103325230Y-70635417D01*
X103424382Y-70940575D01*
X103424384Y-70940580D01*
X103560998Y-71230897D01*
X103561001Y-71230903D01*
X103732921Y-71501806D01*
X103828773Y-71617671D01*
X104684728Y-70761716D01*
X104770278Y-70879466D01*
X104920534Y-71029722D01*
X105038281Y-71115270D01*
X104179175Y-71974375D01*
X104179176Y-71974377D01*
X104430928Y-72157285D01*
X104430946Y-72157297D01*
X104712116Y-72311871D01*
X104712124Y-72311875D01*
X105010444Y-72429987D01*
X105321233Y-72509784D01*
X105321242Y-72509786D01*
X105639556Y-72549999D01*
X105639570Y-72550000D01*
X105960430Y-72550000D01*
X105960443Y-72549999D01*
X106278757Y-72509786D01*
X106278766Y-72509784D01*
X106589555Y-72429987D01*
X106887875Y-72311875D01*
X106887883Y-72311871D01*
X107169053Y-72157297D01*
X107169063Y-72157290D01*
X107420822Y-71974375D01*
X107420823Y-71974375D01*
X106561718Y-71115270D01*
X106679466Y-71029722D01*
X106829722Y-70879466D01*
X106915270Y-70761717D01*
X107771225Y-71617672D01*
X107867068Y-71501819D01*
X108039002Y-71230896D01*
X108175615Y-70940580D01*
X108175617Y-70940575D01*
X108274769Y-70635417D01*
X108334895Y-70320228D01*
X108334896Y-70320221D01*
X108355042Y-70000005D01*
X108355042Y-69999994D01*
X108334896Y-69679778D01*
X108334895Y-69679771D01*
X108274769Y-69364582D01*
X108175617Y-69059424D01*
X108175615Y-69059419D01*
X108039001Y-68769102D01*
X108038998Y-68769096D01*
X107867078Y-68498193D01*
X107771224Y-68382326D01*
X106915269Y-69238281D01*
X106829722Y-69120534D01*
X106679466Y-68970278D01*
X106561716Y-68884728D01*
X107420823Y-68025623D01*
X107420822Y-68025621D01*
X107169071Y-67842714D01*
X107169059Y-67842707D01*
X106968889Y-67732662D01*
X106919625Y-67683116D01*
X106904969Y-67614801D01*
X106929573Y-67549406D01*
X106985626Y-67507695D01*
X107028627Y-67500000D01*
X114171387Y-67500000D01*
X114238426Y-67519685D01*
X114284181Y-67572489D01*
X114294125Y-67641647D01*
X114265100Y-67705203D01*
X114235539Y-67730115D01*
X114230425Y-67733206D01*
X114230407Y-67733219D01*
X114042798Y-67892798D01*
X113883219Y-68080407D01*
X113883212Y-68080417D01*
X113755798Y-68291185D01*
X113755795Y-68291190D01*
X113663835Y-68519680D01*
X113663835Y-68519682D01*
X113609719Y-68759963D01*
X113609718Y-68759970D01*
X113599500Y-68904702D01*
X113599500Y-71095292D01*
X113599501Y-71095298D01*
X113609718Y-71240027D01*
X113609718Y-71240031D01*
X113609719Y-71240034D01*
X113609720Y-71240038D01*
X113663834Y-71480314D01*
X113663835Y-71480319D01*
X113755795Y-71708809D01*
X113883216Y-71919589D01*
X113883219Y-71919592D01*
X114042798Y-72107201D01*
X114152990Y-72200930D01*
X114230411Y-72266784D01*
X114441191Y-72394205D01*
X114669683Y-72486165D01*
X114909966Y-72540281D01*
X115054705Y-72550500D01*
X117245294Y-72550499D01*
X117390034Y-72540281D01*
X117630317Y-72486165D01*
X117858809Y-72394205D01*
X118069589Y-72266784D01*
X118257201Y-72107201D01*
X118416784Y-71919589D01*
X118544205Y-71708809D01*
X118636165Y-71480317D01*
X118690281Y-71240034D01*
X118700500Y-71095295D01*
X118700499Y-68904706D01*
X118690281Y-68759966D01*
X118636165Y-68519683D01*
X118544205Y-68291191D01*
X118416784Y-68080411D01*
X118350930Y-68002990D01*
X118257201Y-67892798D01*
X118127654Y-67782606D01*
X118069589Y-67733216D01*
X118069581Y-67733211D01*
X118069574Y-67733206D01*
X118064461Y-67730115D01*
X118017274Y-67678587D01*
X118005437Y-67609727D01*
X118032708Y-67545399D01*
X118090427Y-67506026D01*
X118128613Y-67500000D01*
X122121373Y-67500000D01*
X122188412Y-67519685D01*
X122234167Y-67572489D01*
X122244111Y-67641647D01*
X122215086Y-67705203D01*
X122181111Y-67732662D01*
X121980940Y-67842707D01*
X121980928Y-67842714D01*
X121729176Y-68025622D01*
X121729175Y-68025623D01*
X122588281Y-68884729D01*
X122470534Y-68970278D01*
X122320278Y-69120534D01*
X122234729Y-69238282D01*
X121378773Y-68382326D01*
X121282924Y-68498188D01*
X121111001Y-68769096D01*
X121110998Y-68769102D01*
X120974384Y-69059419D01*
X120974382Y-69059424D01*
X120875230Y-69364582D01*
X120815104Y-69679771D01*
X120815103Y-69679778D01*
X120794958Y-69999994D01*
X120794958Y-70000005D01*
X120815103Y-70320221D01*
X120815104Y-70320228D01*
X120875230Y-70635417D01*
X120974382Y-70940575D01*
X120974384Y-70940580D01*
X121110998Y-71230897D01*
X121111001Y-71230903D01*
X121282921Y-71501806D01*
X121378773Y-71617671D01*
X122234728Y-70761716D01*
X122320278Y-70879466D01*
X122470534Y-71029722D01*
X122588281Y-71115270D01*
X121729175Y-71974375D01*
X121729176Y-71974377D01*
X121980928Y-72157285D01*
X121980946Y-72157297D01*
X122262116Y-72311871D01*
X122262124Y-72311875D01*
X122560444Y-72429987D01*
X122871233Y-72509784D01*
X122871242Y-72509786D01*
X123189556Y-72549999D01*
X123189570Y-72550000D01*
X123510430Y-72550000D01*
X123510443Y-72549999D01*
X123828757Y-72509786D01*
X123828766Y-72509784D01*
X124139555Y-72429987D01*
X124437875Y-72311875D01*
X124437883Y-72311871D01*
X124719053Y-72157297D01*
X124719063Y-72157290D01*
X124970822Y-71974375D01*
X124970823Y-71974375D01*
X124111718Y-71115270D01*
X124229466Y-71029722D01*
X124379722Y-70879466D01*
X124465270Y-70761717D01*
X125321225Y-71617672D01*
X125417068Y-71501819D01*
X125589002Y-71230896D01*
X125725615Y-70940580D01*
X125725617Y-70940575D01*
X125824769Y-70635417D01*
X125884895Y-70320228D01*
X125884896Y-70320221D01*
X125905042Y-70000005D01*
X125905042Y-69999994D01*
X125884896Y-69679778D01*
X125884895Y-69679771D01*
X125824769Y-69364582D01*
X125725617Y-69059424D01*
X125725615Y-69059419D01*
X125589001Y-68769102D01*
X125588998Y-68769096D01*
X125417078Y-68498193D01*
X125321224Y-68382326D01*
X124465269Y-69238281D01*
X124379722Y-69120534D01*
X124229466Y-68970278D01*
X124111716Y-68884728D01*
X124970823Y-68025623D01*
X124970822Y-68025621D01*
X124719071Y-67842714D01*
X124719059Y-67842707D01*
X124518889Y-67732662D01*
X124469625Y-67683116D01*
X124454969Y-67614801D01*
X124479573Y-67549406D01*
X124535626Y-67507695D01*
X124578627Y-67500000D01*
X131721387Y-67500000D01*
X131788426Y-67519685D01*
X131834181Y-67572489D01*
X131844125Y-67641647D01*
X131815100Y-67705203D01*
X131785539Y-67730115D01*
X131780425Y-67733206D01*
X131780407Y-67733219D01*
X131592798Y-67892798D01*
X131433219Y-68080407D01*
X131433212Y-68080417D01*
X131305798Y-68291185D01*
X131305795Y-68291190D01*
X131213835Y-68519680D01*
X131213835Y-68519682D01*
X131159719Y-68759963D01*
X131159718Y-68759970D01*
X131149500Y-68904702D01*
X131149500Y-71095292D01*
X131149501Y-71095298D01*
X131159718Y-71240027D01*
X131159718Y-71240031D01*
X131159719Y-71240034D01*
X131159720Y-71240038D01*
X131213834Y-71480314D01*
X131213835Y-71480319D01*
X131305795Y-71708809D01*
X131433216Y-71919589D01*
X131433219Y-71919592D01*
X131592798Y-72107201D01*
X131702990Y-72200930D01*
X131780411Y-72266784D01*
X131991191Y-72394205D01*
X132219683Y-72486165D01*
X132459966Y-72540281D01*
X132604705Y-72550500D01*
X134795294Y-72550499D01*
X134940034Y-72540281D01*
X135180317Y-72486165D01*
X135408809Y-72394205D01*
X135619589Y-72266784D01*
X135807201Y-72107201D01*
X135966784Y-71919589D01*
X136094205Y-71708809D01*
X136186165Y-71480317D01*
X136240281Y-71240034D01*
X136250500Y-71095295D01*
X136250499Y-68904706D01*
X136240281Y-68759966D01*
X136186165Y-68519683D01*
X136094205Y-68291191D01*
X135966784Y-68080411D01*
X135900930Y-68002990D01*
X135807201Y-67892798D01*
X135677654Y-67782606D01*
X135619589Y-67733216D01*
X135619581Y-67733211D01*
X135619574Y-67733206D01*
X135614461Y-67730115D01*
X135567274Y-67678587D01*
X135555437Y-67609727D01*
X135582708Y-67545399D01*
X135640427Y-67506026D01*
X135678613Y-67500000D01*
X139671373Y-67500000D01*
X139738412Y-67519685D01*
X139784167Y-67572489D01*
X139794111Y-67641647D01*
X139765086Y-67705203D01*
X139731111Y-67732662D01*
X139530940Y-67842707D01*
X139530928Y-67842714D01*
X139279176Y-68025622D01*
X139279175Y-68025623D01*
X140138281Y-68884729D01*
X140020534Y-68970278D01*
X139870278Y-69120534D01*
X139784729Y-69238282D01*
X138928773Y-68382326D01*
X138832924Y-68498188D01*
X138661001Y-68769096D01*
X138660998Y-68769102D01*
X138524384Y-69059419D01*
X138524382Y-69059424D01*
X138425230Y-69364582D01*
X138365104Y-69679771D01*
X138365103Y-69679778D01*
X138344958Y-69999994D01*
X138344958Y-70000005D01*
X138365103Y-70320221D01*
X138365104Y-70320228D01*
X138425230Y-70635417D01*
X138524382Y-70940575D01*
X138524384Y-70940580D01*
X138660998Y-71230897D01*
X138661001Y-71230903D01*
X138832921Y-71501806D01*
X138928773Y-71617671D01*
X139784728Y-70761716D01*
X139870278Y-70879466D01*
X140020534Y-71029722D01*
X140138281Y-71115270D01*
X139279175Y-71974375D01*
X139279176Y-71974377D01*
X139530928Y-72157285D01*
X139530946Y-72157297D01*
X139812116Y-72311871D01*
X139812124Y-72311875D01*
X140110444Y-72429987D01*
X140421233Y-72509784D01*
X140421242Y-72509786D01*
X140739556Y-72549999D01*
X140739570Y-72550000D01*
X141060430Y-72550000D01*
X141060443Y-72549999D01*
X141378757Y-72509786D01*
X141378766Y-72509784D01*
X141689555Y-72429987D01*
X141987875Y-72311875D01*
X141987883Y-72311871D01*
X142269053Y-72157297D01*
X142269063Y-72157290D01*
X142520822Y-71974375D01*
X142520823Y-71974375D01*
X141661718Y-71115270D01*
X141779466Y-71029722D01*
X141929722Y-70879466D01*
X142015270Y-70761717D01*
X142871225Y-71617672D01*
X142967068Y-71501819D01*
X143139002Y-71230896D01*
X143275615Y-70940580D01*
X143275617Y-70940575D01*
X143374769Y-70635417D01*
X143434895Y-70320228D01*
X143434896Y-70320221D01*
X143455042Y-70000005D01*
X143455042Y-69999994D01*
X143434896Y-69679778D01*
X143434895Y-69679771D01*
X143374769Y-69364582D01*
X143275617Y-69059424D01*
X143275615Y-69059419D01*
X143139001Y-68769102D01*
X143138998Y-68769096D01*
X142967078Y-68498193D01*
X142871224Y-68382326D01*
X142015269Y-69238281D01*
X141929722Y-69120534D01*
X141779466Y-68970278D01*
X141661716Y-68884728D01*
X142520823Y-68025623D01*
X142520822Y-68025621D01*
X142269071Y-67842714D01*
X142269059Y-67842707D01*
X142068889Y-67732662D01*
X142019625Y-67683116D01*
X142004969Y-67614801D01*
X142029573Y-67549406D01*
X142085626Y-67507695D01*
X142128627Y-67500000D01*
X149121387Y-67500000D01*
X149188426Y-67519685D01*
X149234181Y-67572489D01*
X149244125Y-67641647D01*
X149215100Y-67705203D01*
X149185539Y-67730115D01*
X149180425Y-67733206D01*
X149180407Y-67733219D01*
X148992798Y-67892798D01*
X148833219Y-68080407D01*
X148833212Y-68080417D01*
X148705798Y-68291185D01*
X148705795Y-68291190D01*
X148613835Y-68519680D01*
X148613835Y-68519682D01*
X148559719Y-68759963D01*
X148559718Y-68759970D01*
X148549500Y-68904702D01*
X148549500Y-71095292D01*
X148549501Y-71095298D01*
X148559718Y-71240027D01*
X148559718Y-71240031D01*
X148559719Y-71240034D01*
X148559720Y-71240038D01*
X148613834Y-71480314D01*
X148613835Y-71480319D01*
X148705795Y-71708809D01*
X148833216Y-71919589D01*
X148833219Y-71919592D01*
X148992798Y-72107201D01*
X149102990Y-72200930D01*
X149180411Y-72266784D01*
X149391191Y-72394205D01*
X149619683Y-72486165D01*
X149859966Y-72540281D01*
X150004705Y-72550500D01*
X152195294Y-72550499D01*
X152340034Y-72540281D01*
X152580317Y-72486165D01*
X152808809Y-72394205D01*
X153019589Y-72266784D01*
X153207201Y-72107201D01*
X153366784Y-71919589D01*
X153494205Y-71708809D01*
X153586165Y-71480317D01*
X153640281Y-71240034D01*
X153650500Y-71095295D01*
X153650499Y-68904706D01*
X153640281Y-68759966D01*
X153586165Y-68519683D01*
X153494205Y-68291191D01*
X153366784Y-68080411D01*
X153300930Y-68002990D01*
X153207201Y-67892798D01*
X153077654Y-67782606D01*
X153019589Y-67733216D01*
X153019581Y-67733211D01*
X153019574Y-67733206D01*
X153014461Y-67730115D01*
X152967274Y-67678587D01*
X152955437Y-67609727D01*
X152982708Y-67545399D01*
X153040427Y-67506026D01*
X153078613Y-67500000D01*
X157071373Y-67500000D01*
X157138412Y-67519685D01*
X157184167Y-67572489D01*
X157194111Y-67641647D01*
X157165086Y-67705203D01*
X157131111Y-67732662D01*
X156930940Y-67842707D01*
X156930928Y-67842714D01*
X156679176Y-68025622D01*
X156679175Y-68025623D01*
X157538281Y-68884729D01*
X157420534Y-68970278D01*
X157270278Y-69120534D01*
X157184729Y-69238282D01*
X156328773Y-68382326D01*
X156232924Y-68498188D01*
X156061001Y-68769096D01*
X156060998Y-68769102D01*
X155924384Y-69059419D01*
X155924382Y-69059424D01*
X155825230Y-69364582D01*
X155765104Y-69679771D01*
X155765103Y-69679778D01*
X155744958Y-69999994D01*
X155744958Y-70000005D01*
X155765103Y-70320221D01*
X155765104Y-70320228D01*
X155825230Y-70635417D01*
X155924382Y-70940575D01*
X155924384Y-70940580D01*
X156060998Y-71230897D01*
X156061001Y-71230903D01*
X156232921Y-71501806D01*
X156328773Y-71617671D01*
X157184728Y-70761716D01*
X157270278Y-70879466D01*
X157420534Y-71029722D01*
X157538281Y-71115270D01*
X156679175Y-71974375D01*
X156679176Y-71974377D01*
X156930928Y-72157285D01*
X156930946Y-72157297D01*
X157212116Y-72311871D01*
X157212124Y-72311875D01*
X157510444Y-72429987D01*
X157821233Y-72509784D01*
X157821242Y-72509786D01*
X158139556Y-72549999D01*
X158139570Y-72550000D01*
X158460430Y-72550000D01*
X158460443Y-72549999D01*
X158778757Y-72509786D01*
X158778766Y-72509784D01*
X159089555Y-72429987D01*
X159387875Y-72311875D01*
X159387883Y-72311871D01*
X159669053Y-72157297D01*
X159669063Y-72157290D01*
X159920822Y-71974375D01*
X159920823Y-71974375D01*
X159061718Y-71115270D01*
X159179466Y-71029722D01*
X159329722Y-70879466D01*
X159415270Y-70761717D01*
X160271225Y-71617672D01*
X160367068Y-71501819D01*
X160539002Y-71230896D01*
X160675615Y-70940580D01*
X160675617Y-70940575D01*
X160774769Y-70635417D01*
X160834895Y-70320228D01*
X160834896Y-70320221D01*
X160855042Y-70000005D01*
X160855042Y-69999994D01*
X160834896Y-69679778D01*
X160834895Y-69679771D01*
X160774769Y-69364582D01*
X160675617Y-69059424D01*
X160675615Y-69059419D01*
X160539001Y-68769102D01*
X160538998Y-68769096D01*
X160367078Y-68498193D01*
X160271224Y-68382326D01*
X159415269Y-69238281D01*
X159329722Y-69120534D01*
X159179466Y-68970278D01*
X159061716Y-68884728D01*
X159920823Y-68025623D01*
X159920822Y-68025621D01*
X159669071Y-67842714D01*
X159669059Y-67842707D01*
X159468889Y-67732662D01*
X159419625Y-67683116D01*
X159404969Y-67614801D01*
X159429573Y-67549406D01*
X159485626Y-67507695D01*
X159528627Y-67500000D01*
X166621387Y-67500000D01*
X166688426Y-67519685D01*
X166734181Y-67572489D01*
X166744125Y-67641647D01*
X166715100Y-67705203D01*
X166685539Y-67730115D01*
X166680425Y-67733206D01*
X166680407Y-67733219D01*
X166492798Y-67892798D01*
X166333219Y-68080407D01*
X166333212Y-68080417D01*
X166205798Y-68291185D01*
X166205795Y-68291190D01*
X166113835Y-68519680D01*
X166113835Y-68519682D01*
X166059719Y-68759963D01*
X166059718Y-68759970D01*
X166049500Y-68904702D01*
X166049500Y-71095292D01*
X166049501Y-71095298D01*
X166059718Y-71240027D01*
X166059718Y-71240031D01*
X166059719Y-71240034D01*
X166059720Y-71240038D01*
X166113834Y-71480314D01*
X166113835Y-71480319D01*
X166205795Y-71708809D01*
X166333216Y-71919589D01*
X166333219Y-71919592D01*
X166492798Y-72107201D01*
X166602990Y-72200930D01*
X166680411Y-72266784D01*
X166891191Y-72394205D01*
X167119683Y-72486165D01*
X167359966Y-72540281D01*
X167504705Y-72550500D01*
X169695294Y-72550499D01*
X169840034Y-72540281D01*
X170080317Y-72486165D01*
X170308809Y-72394205D01*
X170519589Y-72266784D01*
X170707201Y-72107201D01*
X170866784Y-71919589D01*
X170994205Y-71708809D01*
X171086165Y-71480317D01*
X171140281Y-71240034D01*
X171150500Y-71095295D01*
X171150499Y-68904706D01*
X171140281Y-68759966D01*
X171086165Y-68519683D01*
X170994205Y-68291191D01*
X170866784Y-68080411D01*
X170800930Y-68002990D01*
X170707201Y-67892798D01*
X170577654Y-67782606D01*
X170519589Y-67733216D01*
X170519581Y-67733211D01*
X170519574Y-67733206D01*
X170514461Y-67730115D01*
X170467274Y-67678587D01*
X170455437Y-67609727D01*
X170482708Y-67545399D01*
X170540427Y-67506026D01*
X170578613Y-67500000D01*
X174571373Y-67500000D01*
X174638412Y-67519685D01*
X174684167Y-67572489D01*
X174694111Y-67641647D01*
X174665086Y-67705203D01*
X174631111Y-67732662D01*
X174430940Y-67842707D01*
X174430928Y-67842714D01*
X174179176Y-68025622D01*
X174179175Y-68025623D01*
X175038281Y-68884729D01*
X174920534Y-68970278D01*
X174770278Y-69120534D01*
X174684729Y-69238282D01*
X173828773Y-68382326D01*
X173732924Y-68498188D01*
X173561001Y-68769096D01*
X173560998Y-68769102D01*
X173424384Y-69059419D01*
X173424382Y-69059424D01*
X173325230Y-69364582D01*
X173265104Y-69679771D01*
X173265103Y-69679778D01*
X173244958Y-69999994D01*
X173244958Y-70000005D01*
X173265103Y-70320221D01*
X173265104Y-70320228D01*
X173325230Y-70635417D01*
X173424382Y-70940575D01*
X173424384Y-70940580D01*
X173560998Y-71230897D01*
X173561001Y-71230903D01*
X173732921Y-71501806D01*
X173828773Y-71617671D01*
X174684728Y-70761716D01*
X174770278Y-70879466D01*
X174920534Y-71029722D01*
X175038281Y-71115270D01*
X174179175Y-71974375D01*
X174179176Y-71974377D01*
X174430928Y-72157285D01*
X174430946Y-72157297D01*
X174712116Y-72311871D01*
X174712124Y-72311875D01*
X175010444Y-72429987D01*
X175321233Y-72509784D01*
X175321242Y-72509786D01*
X175639556Y-72549999D01*
X175639570Y-72550000D01*
X175960430Y-72550000D01*
X175960443Y-72549999D01*
X176278757Y-72509786D01*
X176278766Y-72509784D01*
X176589555Y-72429987D01*
X176887875Y-72311875D01*
X176887883Y-72311871D01*
X177169053Y-72157297D01*
X177169063Y-72157290D01*
X177420822Y-71974375D01*
X177420823Y-71974375D01*
X176561718Y-71115270D01*
X176679466Y-71029722D01*
X176829722Y-70879466D01*
X176915270Y-70761717D01*
X177771225Y-71617672D01*
X177867068Y-71501819D01*
X178039002Y-71230896D01*
X178175615Y-70940580D01*
X178175617Y-70940575D01*
X178274769Y-70635417D01*
X178334895Y-70320228D01*
X178334896Y-70320221D01*
X178355042Y-70000005D01*
X178355042Y-69999994D01*
X178334896Y-69679778D01*
X178334895Y-69679771D01*
X178274769Y-69364582D01*
X178175617Y-69059424D01*
X178175615Y-69059419D01*
X178039001Y-68769102D01*
X178038998Y-68769096D01*
X177867078Y-68498193D01*
X177771224Y-68382326D01*
X176915269Y-69238281D01*
X176829722Y-69120534D01*
X176679466Y-68970278D01*
X176561716Y-68884728D01*
X177420823Y-68025623D01*
X177420822Y-68025621D01*
X177169071Y-67842714D01*
X177169059Y-67842707D01*
X176968889Y-67732662D01*
X176919625Y-67683116D01*
X176904969Y-67614801D01*
X176929573Y-67549406D01*
X176985626Y-67507695D01*
X177028627Y-67500000D01*
X184876000Y-67500000D01*
X184943039Y-67519685D01*
X184988794Y-67572489D01*
X185000000Y-67624000D01*
X185000000Y-78686543D01*
X184980315Y-78753582D01*
X184927511Y-78799337D01*
X184858353Y-78809281D01*
X184794797Y-78780256D01*
X184760967Y-78732840D01*
X184744205Y-78691191D01*
X184616784Y-78480411D01*
X184550930Y-78402990D01*
X184457201Y-78292798D01*
X184327654Y-78182606D01*
X184269589Y-78133216D01*
X184058809Y-78005795D01*
X183830318Y-77913835D01*
X183590036Y-77859719D01*
X183590029Y-77859718D01*
X183445296Y-77849500D01*
X181254707Y-77849500D01*
X181254701Y-77849501D01*
X181109972Y-77859718D01*
X181109966Y-77859718D01*
X181109966Y-77859719D01*
X181109963Y-77859719D01*
X181109961Y-77859720D01*
X180869685Y-77913834D01*
X180869680Y-77913835D01*
X180641190Y-78005795D01*
X180641185Y-78005798D01*
X180430417Y-78133212D01*
X180430407Y-78133219D01*
X180242798Y-78292798D01*
X180083219Y-78480407D01*
X180083212Y-78480417D01*
X179955798Y-78691185D01*
X179955795Y-78691190D01*
X179863835Y-78919680D01*
X179863835Y-78919682D01*
X179809719Y-79159963D01*
X179809718Y-79159970D01*
X179799500Y-79304702D01*
X179799500Y-81495292D01*
X179799501Y-81495298D01*
X179809718Y-81640027D01*
X179809720Y-81640038D01*
X179863834Y-81880314D01*
X179863835Y-81880319D01*
X179907812Y-81989586D01*
X179955795Y-82108809D01*
X180083216Y-82319589D01*
X180083219Y-82319592D01*
X180242798Y-82507201D01*
X180352990Y-82600930D01*
X180430411Y-82666784D01*
X180641191Y-82794205D01*
X180869683Y-82886165D01*
X181109966Y-82940281D01*
X181254705Y-82950500D01*
X183445294Y-82950499D01*
X183590034Y-82940281D01*
X183830317Y-82886165D01*
X184058809Y-82794205D01*
X184269589Y-82666784D01*
X184457201Y-82507201D01*
X184616784Y-82319589D01*
X184744205Y-82108809D01*
X184760968Y-82067157D01*
X184804258Y-82012317D01*
X184870326Y-81989586D01*
X184938196Y-82006182D01*
X184986319Y-82056838D01*
X185000000Y-82113456D01*
X185000000Y-86720981D01*
X184980315Y-86788020D01*
X184927511Y-86833775D01*
X184858353Y-86843719D01*
X184794797Y-86814694D01*
X184758069Y-86759299D01*
X184725617Y-86659424D01*
X184725615Y-86659419D01*
X184589001Y-86369102D01*
X184588998Y-86369096D01*
X184417078Y-86098193D01*
X184321224Y-85982326D01*
X183465269Y-86838281D01*
X183379722Y-86720534D01*
X183229466Y-86570278D01*
X183111716Y-86484728D01*
X183970823Y-85625623D01*
X183970822Y-85625621D01*
X183719071Y-85442714D01*
X183719053Y-85442702D01*
X183437883Y-85288128D01*
X183437875Y-85288124D01*
X183139555Y-85170012D01*
X182828766Y-85090215D01*
X182828757Y-85090213D01*
X182510443Y-85050000D01*
X182189556Y-85050000D01*
X181871242Y-85090213D01*
X181871233Y-85090215D01*
X181560444Y-85170012D01*
X181262124Y-85288124D01*
X181262116Y-85288128D01*
X180980946Y-85442702D01*
X180980928Y-85442714D01*
X180729176Y-85625622D01*
X180729175Y-85625623D01*
X181588281Y-86484729D01*
X181470534Y-86570278D01*
X181320278Y-86720534D01*
X181234729Y-86838282D01*
X180378773Y-85982326D01*
X180282924Y-86098188D01*
X180111001Y-86369096D01*
X180110998Y-86369102D01*
X179974384Y-86659419D01*
X179974382Y-86659424D01*
X179875230Y-86964582D01*
X179815104Y-87279771D01*
X179815103Y-87279778D01*
X179794958Y-87599994D01*
X179794958Y-87600005D01*
X179815103Y-87920221D01*
X179815104Y-87920228D01*
X179875230Y-88235417D01*
X179974382Y-88540575D01*
X179974384Y-88540580D01*
X180110998Y-88830897D01*
X180111001Y-88830903D01*
X180282921Y-89101806D01*
X180378773Y-89217671D01*
X181234728Y-88361716D01*
X181320278Y-88479466D01*
X181470534Y-88629722D01*
X181588281Y-88715270D01*
X180729175Y-89574375D01*
X180729176Y-89574377D01*
X180980928Y-89757285D01*
X180980946Y-89757297D01*
X181262116Y-89911871D01*
X181262124Y-89911875D01*
X181560444Y-90029987D01*
X181871233Y-90109784D01*
X181871242Y-90109786D01*
X182189556Y-90149999D01*
X182189570Y-90150000D01*
X182510430Y-90150000D01*
X182510443Y-90149999D01*
X182828757Y-90109786D01*
X182828766Y-90109784D01*
X183139555Y-90029987D01*
X183437875Y-89911875D01*
X183437883Y-89911871D01*
X183719053Y-89757297D01*
X183719063Y-89757290D01*
X183970822Y-89574375D01*
X183970823Y-89574375D01*
X183111718Y-88715270D01*
X183229466Y-88629722D01*
X183379722Y-88479466D01*
X183465270Y-88361717D01*
X184321225Y-89217672D01*
X184417068Y-89101819D01*
X184589002Y-88830896D01*
X184725615Y-88540580D01*
X184725617Y-88540575D01*
X184758069Y-88440700D01*
X184797506Y-88383025D01*
X184861865Y-88355826D01*
X184930711Y-88367741D01*
X184982187Y-88414985D01*
X185000000Y-88479018D01*
X185000000Y-100376000D01*
X184980315Y-100443039D01*
X184927511Y-100488794D01*
X184876000Y-100500000D01*
X177878613Y-100500000D01*
X177811574Y-100480315D01*
X177765819Y-100427511D01*
X177755875Y-100358353D01*
X177784900Y-100294797D01*
X177814461Y-100269885D01*
X177819574Y-100266793D01*
X177819573Y-100266793D01*
X177819589Y-100266784D01*
X178007201Y-100107201D01*
X178166784Y-99919589D01*
X178294205Y-99708809D01*
X178386165Y-99480317D01*
X178440281Y-99240034D01*
X178450500Y-99095295D01*
X178450499Y-96904706D01*
X178440281Y-96759966D01*
X178386165Y-96519683D01*
X178294205Y-96291191D01*
X178166784Y-96080411D01*
X178092179Y-95992702D01*
X178007201Y-95892798D01*
X177846137Y-95755798D01*
X177819589Y-95733216D01*
X177608809Y-95605795D01*
X177593168Y-95599500D01*
X177380318Y-95513835D01*
X177140036Y-95459719D01*
X177140029Y-95459718D01*
X176995296Y-95449500D01*
X174804707Y-95449500D01*
X174804701Y-95449501D01*
X174659972Y-95459718D01*
X174659966Y-95459718D01*
X174659966Y-95459719D01*
X174659963Y-95459719D01*
X174659961Y-95459720D01*
X174419685Y-95513834D01*
X174419680Y-95513835D01*
X174191190Y-95605795D01*
X174191185Y-95605798D01*
X173980417Y-95733212D01*
X173980407Y-95733219D01*
X173792798Y-95892798D01*
X173633219Y-96080407D01*
X173633212Y-96080417D01*
X173505798Y-96291185D01*
X173505795Y-96291190D01*
X173413835Y-96519680D01*
X173413835Y-96519682D01*
X173359719Y-96759963D01*
X173359718Y-96759970D01*
X173349500Y-96904702D01*
X173349500Y-99095292D01*
X173349501Y-99095298D01*
X173359718Y-99240027D01*
X173359718Y-99240031D01*
X173359719Y-99240034D01*
X173359720Y-99240038D01*
X173413834Y-99480314D01*
X173413835Y-99480319D01*
X173505795Y-99708809D01*
X173633216Y-99919589D01*
X173633219Y-99919592D01*
X173792798Y-100107201D01*
X173902990Y-100200930D01*
X173980411Y-100266784D01*
X173980420Y-100266789D01*
X173980425Y-100266793D01*
X173985539Y-100269885D01*
X174032726Y-100321413D01*
X174044563Y-100390273D01*
X174017292Y-100454601D01*
X173959573Y-100493974D01*
X173921387Y-100500000D01*
X169928627Y-100500000D01*
X169861588Y-100480315D01*
X169815833Y-100427511D01*
X169805889Y-100358353D01*
X169834914Y-100294797D01*
X169868889Y-100267338D01*
X170069059Y-100157292D01*
X170069063Y-100157290D01*
X170320822Y-99974375D01*
X170320823Y-99974375D01*
X169461718Y-99115270D01*
X169579466Y-99029722D01*
X169729722Y-98879466D01*
X169815270Y-98761717D01*
X170671225Y-99617672D01*
X170767068Y-99501819D01*
X170939002Y-99230896D01*
X171075615Y-98940580D01*
X171075617Y-98940575D01*
X171174769Y-98635417D01*
X171234895Y-98320228D01*
X171234896Y-98320221D01*
X171255042Y-98000005D01*
X171255042Y-97999994D01*
X171234896Y-97679778D01*
X171234895Y-97679771D01*
X171174769Y-97364582D01*
X171075617Y-97059424D01*
X171075615Y-97059419D01*
X170939001Y-96769102D01*
X170938998Y-96769096D01*
X170767078Y-96498193D01*
X170671224Y-96382326D01*
X169815269Y-97238281D01*
X169729722Y-97120534D01*
X169579466Y-96970278D01*
X169461716Y-96884728D01*
X170320823Y-96025623D01*
X170320822Y-96025621D01*
X170069071Y-95842714D01*
X170069053Y-95842702D01*
X169787883Y-95688128D01*
X169787875Y-95688124D01*
X169489555Y-95570012D01*
X169178766Y-95490215D01*
X169178757Y-95490213D01*
X168860443Y-95450000D01*
X168539556Y-95450000D01*
X168221242Y-95490213D01*
X168221233Y-95490215D01*
X167910444Y-95570012D01*
X167612124Y-95688124D01*
X167612116Y-95688128D01*
X167330946Y-95842702D01*
X167330928Y-95842714D01*
X167079176Y-96025622D01*
X167079175Y-96025623D01*
X167938281Y-96884729D01*
X167820534Y-96970278D01*
X167670278Y-97120534D01*
X167584729Y-97238282D01*
X166728773Y-96382326D01*
X166632924Y-96498188D01*
X166461001Y-96769096D01*
X166460998Y-96769102D01*
X166324384Y-97059419D01*
X166324382Y-97059424D01*
X166225230Y-97364582D01*
X166165104Y-97679771D01*
X166165103Y-97679778D01*
X166144958Y-97999994D01*
X166144958Y-98000005D01*
X166165103Y-98320221D01*
X166165104Y-98320228D01*
X166225230Y-98635417D01*
X166324382Y-98940575D01*
X166324384Y-98940580D01*
X166460998Y-99230897D01*
X166461001Y-99230903D01*
X166632921Y-99501806D01*
X166728773Y-99617671D01*
X167584728Y-98761716D01*
X167670278Y-98879466D01*
X167820534Y-99029722D01*
X167938281Y-99115270D01*
X167079175Y-99974375D01*
X167079176Y-99974377D01*
X167330928Y-100157285D01*
X167330940Y-100157292D01*
X167531111Y-100267338D01*
X167580375Y-100316884D01*
X167595031Y-100385199D01*
X167570427Y-100450594D01*
X167514374Y-100492305D01*
X167471373Y-100500000D01*
X160328613Y-100500000D01*
X160261574Y-100480315D01*
X160215819Y-100427511D01*
X160205875Y-100358353D01*
X160234900Y-100294797D01*
X160264461Y-100269885D01*
X160269574Y-100266793D01*
X160269573Y-100266793D01*
X160269589Y-100266784D01*
X160457201Y-100107201D01*
X160616784Y-99919589D01*
X160744205Y-99708809D01*
X160836165Y-99480317D01*
X160890281Y-99240034D01*
X160900500Y-99095295D01*
X160900499Y-96904706D01*
X160890281Y-96759966D01*
X160836165Y-96519683D01*
X160744205Y-96291191D01*
X160616784Y-96080411D01*
X160542179Y-95992702D01*
X160457201Y-95892798D01*
X160296137Y-95755798D01*
X160269589Y-95733216D01*
X160058809Y-95605795D01*
X160043168Y-95599500D01*
X159830318Y-95513835D01*
X159590036Y-95459719D01*
X159590029Y-95459718D01*
X159445296Y-95449500D01*
X157254707Y-95449500D01*
X157254701Y-95449501D01*
X157109972Y-95459718D01*
X157109966Y-95459718D01*
X157109966Y-95459719D01*
X157109963Y-95459719D01*
X157109961Y-95459720D01*
X156869685Y-95513834D01*
X156869680Y-95513835D01*
X156641190Y-95605795D01*
X156641185Y-95605798D01*
X156430417Y-95733212D01*
X156430407Y-95733219D01*
X156242798Y-95892798D01*
X156083219Y-96080407D01*
X156083212Y-96080417D01*
X155955798Y-96291185D01*
X155955795Y-96291190D01*
X155863835Y-96519680D01*
X155863835Y-96519682D01*
X155809719Y-96759963D01*
X155809718Y-96759970D01*
X155799500Y-96904702D01*
X155799500Y-99095292D01*
X155799501Y-99095298D01*
X155809718Y-99240027D01*
X155809718Y-99240031D01*
X155809719Y-99240034D01*
X155809720Y-99240038D01*
X155863834Y-99480314D01*
X155863835Y-99480319D01*
X155955795Y-99708809D01*
X156083216Y-99919589D01*
X156083219Y-99919592D01*
X156242798Y-100107201D01*
X156352990Y-100200930D01*
X156430411Y-100266784D01*
X156430420Y-100266789D01*
X156430425Y-100266793D01*
X156435539Y-100269885D01*
X156482726Y-100321413D01*
X156494563Y-100390273D01*
X156467292Y-100454601D01*
X156409573Y-100493974D01*
X156371387Y-100500000D01*
X152378627Y-100500000D01*
X152311588Y-100480315D01*
X152265833Y-100427511D01*
X152255889Y-100358353D01*
X152284914Y-100294797D01*
X152318889Y-100267338D01*
X152519059Y-100157292D01*
X152519063Y-100157290D01*
X152770822Y-99974375D01*
X152770823Y-99974375D01*
X151911718Y-99115270D01*
X152029466Y-99029722D01*
X152179722Y-98879466D01*
X152265270Y-98761717D01*
X153121225Y-99617672D01*
X153217068Y-99501819D01*
X153389002Y-99230896D01*
X153525615Y-98940580D01*
X153525617Y-98940575D01*
X153624769Y-98635417D01*
X153684895Y-98320228D01*
X153684896Y-98320221D01*
X153705042Y-98000005D01*
X153705042Y-97999994D01*
X153684896Y-97679778D01*
X153684895Y-97679771D01*
X153624769Y-97364582D01*
X153525617Y-97059424D01*
X153525615Y-97059419D01*
X153389001Y-96769102D01*
X153388998Y-96769096D01*
X153217078Y-96498193D01*
X153121224Y-96382326D01*
X152265269Y-97238281D01*
X152179722Y-97120534D01*
X152029466Y-96970278D01*
X151911716Y-96884728D01*
X152770823Y-96025623D01*
X152770822Y-96025621D01*
X152519071Y-95842714D01*
X152519053Y-95842702D01*
X152237883Y-95688128D01*
X152237875Y-95688124D01*
X151939555Y-95570012D01*
X151628766Y-95490215D01*
X151628757Y-95490213D01*
X151310443Y-95450000D01*
X150989556Y-95450000D01*
X150671242Y-95490213D01*
X150671233Y-95490215D01*
X150360444Y-95570012D01*
X150062124Y-95688124D01*
X150062116Y-95688128D01*
X149780946Y-95842702D01*
X149780928Y-95842714D01*
X149529176Y-96025622D01*
X149529175Y-96025623D01*
X150388281Y-96884729D01*
X150270534Y-96970278D01*
X150120278Y-97120534D01*
X150034729Y-97238282D01*
X149178773Y-96382326D01*
X149082924Y-96498188D01*
X148911001Y-96769096D01*
X148910998Y-96769102D01*
X148774384Y-97059419D01*
X148774382Y-97059424D01*
X148675230Y-97364582D01*
X148615104Y-97679771D01*
X148615103Y-97679778D01*
X148594958Y-97999994D01*
X148594958Y-98000005D01*
X148615103Y-98320221D01*
X148615104Y-98320228D01*
X148675230Y-98635417D01*
X148774382Y-98940575D01*
X148774384Y-98940580D01*
X148910998Y-99230897D01*
X148911001Y-99230903D01*
X149082921Y-99501806D01*
X149178773Y-99617671D01*
X150034728Y-98761716D01*
X150120278Y-98879466D01*
X150270534Y-99029722D01*
X150388281Y-99115270D01*
X149529175Y-99974375D01*
X149529176Y-99974377D01*
X149780928Y-100157285D01*
X149780940Y-100157292D01*
X149981111Y-100267338D01*
X150030375Y-100316884D01*
X150045031Y-100385199D01*
X150020427Y-100450594D01*
X149964374Y-100492305D01*
X149921373Y-100500000D01*
X142778613Y-100500000D01*
X142711574Y-100480315D01*
X142665819Y-100427511D01*
X142655875Y-100358353D01*
X142684900Y-100294797D01*
X142714461Y-100269885D01*
X142719574Y-100266793D01*
X142719573Y-100266793D01*
X142719589Y-100266784D01*
X142907201Y-100107201D01*
X143066784Y-99919589D01*
X143194205Y-99708809D01*
X143286165Y-99480317D01*
X143340281Y-99240034D01*
X143350500Y-99095295D01*
X143350499Y-96904706D01*
X143340281Y-96759966D01*
X143286165Y-96519683D01*
X143194205Y-96291191D01*
X143066784Y-96080411D01*
X142992179Y-95992702D01*
X142907201Y-95892798D01*
X142746137Y-95755798D01*
X142719589Y-95733216D01*
X142508809Y-95605795D01*
X142493168Y-95599500D01*
X142280318Y-95513835D01*
X142040036Y-95459719D01*
X142040029Y-95459718D01*
X141895296Y-95449500D01*
X139704707Y-95449500D01*
X139704701Y-95449501D01*
X139559972Y-95459718D01*
X139559966Y-95459718D01*
X139559966Y-95459719D01*
X139559963Y-95459719D01*
X139559961Y-95459720D01*
X139319685Y-95513834D01*
X139319680Y-95513835D01*
X139091190Y-95605795D01*
X139091185Y-95605798D01*
X138880417Y-95733212D01*
X138880407Y-95733219D01*
X138692798Y-95892798D01*
X138533219Y-96080407D01*
X138533212Y-96080417D01*
X138405798Y-96291185D01*
X138405795Y-96291190D01*
X138313835Y-96519680D01*
X138313835Y-96519682D01*
X138259719Y-96759963D01*
X138259718Y-96759970D01*
X138249500Y-96904702D01*
X138249500Y-99095292D01*
X138249501Y-99095298D01*
X138259718Y-99240027D01*
X138259718Y-99240031D01*
X138259719Y-99240034D01*
X138259720Y-99240038D01*
X138313834Y-99480314D01*
X138313835Y-99480319D01*
X138405795Y-99708809D01*
X138533216Y-99919589D01*
X138533219Y-99919592D01*
X138692798Y-100107201D01*
X138802990Y-100200930D01*
X138880411Y-100266784D01*
X138880420Y-100266789D01*
X138880425Y-100266793D01*
X138885539Y-100269885D01*
X138932726Y-100321413D01*
X138944563Y-100390273D01*
X138917292Y-100454601D01*
X138859573Y-100493974D01*
X138821387Y-100500000D01*
X134828627Y-100500000D01*
X134761588Y-100480315D01*
X134715833Y-100427511D01*
X134705889Y-100358353D01*
X134734914Y-100294797D01*
X134768889Y-100267338D01*
X134969059Y-100157292D01*
X134969063Y-100157290D01*
X135220822Y-99974375D01*
X135220823Y-99974375D01*
X134361718Y-99115270D01*
X134479466Y-99029722D01*
X134629722Y-98879466D01*
X134715270Y-98761717D01*
X135571225Y-99617672D01*
X135667068Y-99501819D01*
X135839002Y-99230896D01*
X135975615Y-98940580D01*
X135975617Y-98940575D01*
X136074769Y-98635417D01*
X136134895Y-98320228D01*
X136134896Y-98320221D01*
X136155042Y-98000005D01*
X136155042Y-97999994D01*
X136134896Y-97679778D01*
X136134895Y-97679771D01*
X136074769Y-97364582D01*
X135975617Y-97059424D01*
X135975615Y-97059419D01*
X135839001Y-96769102D01*
X135838998Y-96769096D01*
X135667078Y-96498193D01*
X135571224Y-96382326D01*
X134715269Y-97238281D01*
X134629722Y-97120534D01*
X134479466Y-96970278D01*
X134361716Y-96884728D01*
X135220823Y-96025623D01*
X135220822Y-96025621D01*
X134969071Y-95842714D01*
X134969053Y-95842702D01*
X134687883Y-95688128D01*
X134687875Y-95688124D01*
X134389555Y-95570012D01*
X134078766Y-95490215D01*
X134078757Y-95490213D01*
X133760443Y-95450000D01*
X133439556Y-95450000D01*
X133121242Y-95490213D01*
X133121233Y-95490215D01*
X132810444Y-95570012D01*
X132512124Y-95688124D01*
X132512116Y-95688128D01*
X132230946Y-95842702D01*
X132230928Y-95842714D01*
X131979176Y-96025622D01*
X131979175Y-96025623D01*
X132838281Y-96884729D01*
X132720534Y-96970278D01*
X132570278Y-97120534D01*
X132484729Y-97238282D01*
X131628773Y-96382326D01*
X131532924Y-96498188D01*
X131361001Y-96769096D01*
X131360998Y-96769102D01*
X131224384Y-97059419D01*
X131224382Y-97059424D01*
X131125230Y-97364582D01*
X131065104Y-97679771D01*
X131065103Y-97679778D01*
X131044958Y-97999994D01*
X131044958Y-98000005D01*
X131065103Y-98320221D01*
X131065104Y-98320228D01*
X131125230Y-98635417D01*
X131224382Y-98940575D01*
X131224384Y-98940580D01*
X131360998Y-99230897D01*
X131361001Y-99230903D01*
X131532921Y-99501806D01*
X131628773Y-99617671D01*
X132484728Y-98761716D01*
X132570278Y-98879466D01*
X132720534Y-99029722D01*
X132838281Y-99115270D01*
X131979175Y-99974375D01*
X131979176Y-99974377D01*
X132230928Y-100157285D01*
X132230940Y-100157292D01*
X132431111Y-100267338D01*
X132480375Y-100316884D01*
X132495031Y-100385199D01*
X132470427Y-100450594D01*
X132414374Y-100492305D01*
X132371373Y-100500000D01*
X125708920Y-100500000D01*
X125641881Y-100480315D01*
X125596126Y-100427511D01*
X125586182Y-100358353D01*
X125615207Y-100294797D01*
X125628579Y-100281547D01*
X125657201Y-100257201D01*
X125816784Y-100069589D01*
X125944205Y-99858809D01*
X126036165Y-99630317D01*
X126090281Y-99390034D01*
X126100500Y-99245295D01*
X126100499Y-97054706D01*
X126090281Y-96909966D01*
X126036165Y-96669683D01*
X125944205Y-96441191D01*
X125816784Y-96230411D01*
X125689194Y-96080411D01*
X125657201Y-96042798D01*
X125480854Y-95892798D01*
X125469589Y-95883216D01*
X125258809Y-95755795D01*
X125202707Y-95733216D01*
X125030318Y-95663835D01*
X124790036Y-95609719D01*
X124790029Y-95609718D01*
X124645296Y-95599500D01*
X122454707Y-95599500D01*
X122454701Y-95599501D01*
X122309972Y-95609718D01*
X122309966Y-95609718D01*
X122309966Y-95609719D01*
X122309963Y-95609719D01*
X122309961Y-95609720D01*
X122069685Y-95663834D01*
X122069680Y-95663835D01*
X121841190Y-95755795D01*
X121841185Y-95755798D01*
X121630417Y-95883212D01*
X121630407Y-95883219D01*
X121442798Y-96042798D01*
X121283219Y-96230407D01*
X121283212Y-96230417D01*
X121155798Y-96441185D01*
X121155795Y-96441190D01*
X121063835Y-96669680D01*
X121063835Y-96669682D01*
X121009719Y-96909963D01*
X121009718Y-96909970D01*
X120999500Y-97054702D01*
X120999500Y-99245292D01*
X120999501Y-99245298D01*
X121009718Y-99390027D01*
X121009718Y-99390031D01*
X121009719Y-99390034D01*
X121009720Y-99390038D01*
X121063834Y-99630314D01*
X121063835Y-99630319D01*
X121155795Y-99858809D01*
X121283216Y-100069589D01*
X121283219Y-100069592D01*
X121442798Y-100257201D01*
X121471421Y-100281547D01*
X121509732Y-100339977D01*
X121510372Y-100409844D01*
X121473138Y-100468965D01*
X121409850Y-100498571D01*
X121391080Y-100500000D01*
X117835455Y-100500000D01*
X117768416Y-100480315D01*
X117722661Y-100427511D01*
X117712717Y-100358353D01*
X117741742Y-100294797D01*
X117762569Y-100275682D01*
X117970822Y-100124375D01*
X117970823Y-100124375D01*
X117111718Y-99265270D01*
X117229466Y-99179722D01*
X117379722Y-99029466D01*
X117465270Y-98911717D01*
X118321225Y-99767672D01*
X118417068Y-99651819D01*
X118589002Y-99380896D01*
X118725615Y-99090580D01*
X118725617Y-99090575D01*
X118824769Y-98785417D01*
X118884895Y-98470228D01*
X118884896Y-98470221D01*
X118905042Y-98150005D01*
X118905042Y-98149994D01*
X118884896Y-97829778D01*
X118884895Y-97829771D01*
X118824769Y-97514582D01*
X118725617Y-97209424D01*
X118725615Y-97209419D01*
X118589001Y-96919102D01*
X118588998Y-96919096D01*
X118417078Y-96648193D01*
X118321224Y-96532326D01*
X117465269Y-97388281D01*
X117379722Y-97270534D01*
X117229466Y-97120278D01*
X117111716Y-97034728D01*
X117970823Y-96175623D01*
X117970822Y-96175621D01*
X117719071Y-95992714D01*
X117719053Y-95992702D01*
X117437883Y-95838128D01*
X117437875Y-95838124D01*
X117139555Y-95720012D01*
X116828766Y-95640215D01*
X116828757Y-95640213D01*
X116510443Y-95600000D01*
X116189556Y-95600000D01*
X115871242Y-95640213D01*
X115871233Y-95640215D01*
X115560444Y-95720012D01*
X115262124Y-95838124D01*
X115262116Y-95838128D01*
X114980946Y-95992702D01*
X114980928Y-95992714D01*
X114729176Y-96175622D01*
X114729175Y-96175623D01*
X115588281Y-97034729D01*
X115470534Y-97120278D01*
X115320278Y-97270534D01*
X115234729Y-97388282D01*
X114378773Y-96532326D01*
X114282924Y-96648188D01*
X114111001Y-96919096D01*
X114110998Y-96919102D01*
X113974384Y-97209419D01*
X113974382Y-97209424D01*
X113875230Y-97514582D01*
X113815104Y-97829771D01*
X113815103Y-97829778D01*
X113794958Y-98149994D01*
X113794958Y-98150005D01*
X113815103Y-98470221D01*
X113815104Y-98470228D01*
X113875230Y-98785417D01*
X113974382Y-99090575D01*
X113974384Y-99090580D01*
X114110998Y-99380897D01*
X114111001Y-99380903D01*
X114282921Y-99651806D01*
X114378773Y-99767671D01*
X115234728Y-98911716D01*
X115320278Y-99029466D01*
X115470534Y-99179722D01*
X115588281Y-99265270D01*
X114729175Y-100124375D01*
X114729176Y-100124377D01*
X114937430Y-100275682D01*
X114980096Y-100331012D01*
X114986075Y-100400625D01*
X114953469Y-100462420D01*
X114892631Y-100496777D01*
X114864545Y-100500000D01*
X108158920Y-100500000D01*
X108091881Y-100480315D01*
X108046126Y-100427511D01*
X108036182Y-100358353D01*
X108065207Y-100294797D01*
X108078579Y-100281547D01*
X108107201Y-100257201D01*
X108266784Y-100069589D01*
X108394205Y-99858809D01*
X108486165Y-99630317D01*
X108540281Y-99390034D01*
X108550500Y-99245295D01*
X108550499Y-97054706D01*
X108540281Y-96909966D01*
X108486165Y-96669683D01*
X108394205Y-96441191D01*
X108266784Y-96230411D01*
X108139194Y-96080411D01*
X108107201Y-96042798D01*
X107930854Y-95892798D01*
X107919589Y-95883216D01*
X107708809Y-95755795D01*
X107652707Y-95733216D01*
X107480318Y-95663835D01*
X107240036Y-95609719D01*
X107240029Y-95609718D01*
X107095296Y-95599500D01*
X104904707Y-95599500D01*
X104904701Y-95599501D01*
X104759972Y-95609718D01*
X104759966Y-95609718D01*
X104759966Y-95609719D01*
X104759963Y-95609719D01*
X104759961Y-95609720D01*
X104519685Y-95663834D01*
X104519680Y-95663835D01*
X104291190Y-95755795D01*
X104291185Y-95755798D01*
X104080417Y-95883212D01*
X104080407Y-95883219D01*
X103892798Y-96042798D01*
X103733219Y-96230407D01*
X103733212Y-96230417D01*
X103605798Y-96441185D01*
X103605795Y-96441190D01*
X103513835Y-96669680D01*
X103513835Y-96669682D01*
X103459719Y-96909963D01*
X103459718Y-96909970D01*
X103449500Y-97054702D01*
X103449500Y-99245292D01*
X103449501Y-99245298D01*
X103459718Y-99390027D01*
X103459718Y-99390031D01*
X103459719Y-99390034D01*
X103459720Y-99390038D01*
X103513834Y-99630314D01*
X103513835Y-99630319D01*
X103605795Y-99858809D01*
X103733216Y-100069589D01*
X103733219Y-100069592D01*
X103892798Y-100257201D01*
X103921421Y-100281547D01*
X103959732Y-100339977D01*
X103960372Y-100409844D01*
X103923138Y-100468965D01*
X103859850Y-100498571D01*
X103841080Y-100500000D01*
X100285455Y-100500000D01*
X100218416Y-100480315D01*
X100172661Y-100427511D01*
X100162717Y-100358353D01*
X100191742Y-100294797D01*
X100212569Y-100275682D01*
X100420822Y-100124375D01*
X100420823Y-100124375D01*
X99561718Y-99265270D01*
X99679466Y-99179722D01*
X99829722Y-99029466D01*
X99915270Y-98911717D01*
X100771225Y-99767672D01*
X100867068Y-99651819D01*
X101039002Y-99380896D01*
X101175615Y-99090580D01*
X101175617Y-99090575D01*
X101274769Y-98785417D01*
X101334895Y-98470228D01*
X101334896Y-98470221D01*
X101355042Y-98150005D01*
X101355042Y-98149994D01*
X101334896Y-97829778D01*
X101334895Y-97829771D01*
X101274769Y-97514582D01*
X101175617Y-97209424D01*
X101175615Y-97209419D01*
X101039001Y-96919102D01*
X101038998Y-96919096D01*
X100867078Y-96648193D01*
X100771224Y-96532326D01*
X99915269Y-97388281D01*
X99829722Y-97270534D01*
X99679466Y-97120278D01*
X99561716Y-97034728D01*
X100420823Y-96175623D01*
X100420822Y-96175621D01*
X100169071Y-95992714D01*
X100169053Y-95992702D01*
X99887883Y-95838128D01*
X99887875Y-95838124D01*
X99589555Y-95720012D01*
X99278766Y-95640215D01*
X99278757Y-95640213D01*
X98960443Y-95600000D01*
X98639556Y-95600000D01*
X98321242Y-95640213D01*
X98321233Y-95640215D01*
X98010444Y-95720012D01*
X97712124Y-95838124D01*
X97712116Y-95838128D01*
X97430946Y-95992702D01*
X97430928Y-95992714D01*
X97179176Y-96175622D01*
X97179175Y-96175623D01*
X98038281Y-97034729D01*
X97920534Y-97120278D01*
X97770278Y-97270534D01*
X97684729Y-97388282D01*
X96828773Y-96532326D01*
X96732924Y-96648188D01*
X96561001Y-96919096D01*
X96560998Y-96919102D01*
X96424384Y-97209419D01*
X96424382Y-97209424D01*
X96325230Y-97514582D01*
X96265104Y-97829771D01*
X96265103Y-97829778D01*
X96244958Y-98149994D01*
X96244958Y-98150005D01*
X96265103Y-98470221D01*
X96265104Y-98470228D01*
X96325230Y-98785417D01*
X96424382Y-99090575D01*
X96424384Y-99090580D01*
X96560998Y-99380897D01*
X96561001Y-99380903D01*
X96732921Y-99651806D01*
X96828773Y-99767671D01*
X97684728Y-98911716D01*
X97770278Y-99029466D01*
X97920534Y-99179722D01*
X98038281Y-99265270D01*
X97179175Y-100124375D01*
X97179176Y-100124377D01*
X97387430Y-100275682D01*
X97430096Y-100331012D01*
X97436075Y-100400625D01*
X97403469Y-100462420D01*
X97342631Y-100496777D01*
X97314545Y-100500000D01*
X90608920Y-100500000D01*
X90541881Y-100480315D01*
X90496126Y-100427511D01*
X90486182Y-100358353D01*
X90515207Y-100294797D01*
X90528579Y-100281547D01*
X90557201Y-100257201D01*
X90716784Y-100069589D01*
X90844205Y-99858809D01*
X90936165Y-99630317D01*
X90990281Y-99390034D01*
X91000500Y-99245295D01*
X91000499Y-97054706D01*
X90990281Y-96909966D01*
X90936165Y-96669683D01*
X90844205Y-96441191D01*
X90716784Y-96230411D01*
X90589194Y-96080411D01*
X90557201Y-96042798D01*
X90380854Y-95892798D01*
X90369589Y-95883216D01*
X90158809Y-95755795D01*
X90102707Y-95733216D01*
X89930318Y-95663835D01*
X89690036Y-95609719D01*
X89690029Y-95609718D01*
X89545296Y-95599500D01*
X87354707Y-95599500D01*
X87354701Y-95599501D01*
X87209972Y-95609718D01*
X87209966Y-95609718D01*
X87209966Y-95609719D01*
X87209963Y-95609719D01*
X87209961Y-95609720D01*
X86969685Y-95663834D01*
X86969680Y-95663835D01*
X86741190Y-95755795D01*
X86741185Y-95755798D01*
X86530417Y-95883212D01*
X86530407Y-95883219D01*
X86342798Y-96042798D01*
X86183219Y-96230407D01*
X86183212Y-96230417D01*
X86055798Y-96441185D01*
X86055795Y-96441190D01*
X85963835Y-96669680D01*
X85963835Y-96669682D01*
X85909719Y-96909963D01*
X85909718Y-96909970D01*
X85899500Y-97054702D01*
X85899500Y-99245292D01*
X85899501Y-99245298D01*
X85909718Y-99390027D01*
X85909718Y-99390031D01*
X85909719Y-99390034D01*
X85909720Y-99390038D01*
X85963834Y-99630314D01*
X85963835Y-99630319D01*
X86055795Y-99858809D01*
X86183216Y-100069589D01*
X86183219Y-100069592D01*
X86342798Y-100257201D01*
X86371421Y-100281547D01*
X86409732Y-100339977D01*
X86410372Y-100409844D01*
X86373138Y-100468965D01*
X86309850Y-100498571D01*
X86291080Y-100500000D01*
X82735455Y-100500000D01*
X82668416Y-100480315D01*
X82622661Y-100427511D01*
X82612717Y-100358353D01*
X82641742Y-100294797D01*
X82662569Y-100275682D01*
X82870822Y-100124375D01*
X82870823Y-100124375D01*
X82011718Y-99265270D01*
X82129466Y-99179722D01*
X82279722Y-99029466D01*
X82365270Y-98911717D01*
X83221225Y-99767672D01*
X83317068Y-99651819D01*
X83489002Y-99380896D01*
X83625615Y-99090580D01*
X83625617Y-99090575D01*
X83724769Y-98785417D01*
X83784895Y-98470228D01*
X83784896Y-98470221D01*
X83805042Y-98150005D01*
X83805042Y-98149994D01*
X83784896Y-97829778D01*
X83784895Y-97829771D01*
X83724769Y-97514582D01*
X83625617Y-97209424D01*
X83625615Y-97209419D01*
X83489001Y-96919102D01*
X83488998Y-96919096D01*
X83317078Y-96648193D01*
X83221224Y-96532326D01*
X82365269Y-97388281D01*
X82279722Y-97270534D01*
X82129466Y-97120278D01*
X82011716Y-97034728D01*
X82870823Y-96175623D01*
X82870822Y-96175621D01*
X82619071Y-95992714D01*
X82619053Y-95992702D01*
X82337883Y-95838128D01*
X82337875Y-95838124D01*
X82039555Y-95720012D01*
X81728766Y-95640215D01*
X81728757Y-95640213D01*
X81410443Y-95600000D01*
X81089556Y-95600000D01*
X80771242Y-95640213D01*
X80771233Y-95640215D01*
X80460444Y-95720012D01*
X80162124Y-95838124D01*
X80162116Y-95838128D01*
X79880946Y-95992702D01*
X79880928Y-95992714D01*
X79629176Y-96175622D01*
X79629175Y-96175623D01*
X80488281Y-97034729D01*
X80370534Y-97120278D01*
X80220278Y-97270534D01*
X80134729Y-97388282D01*
X79278773Y-96532326D01*
X79182924Y-96648188D01*
X79011001Y-96919096D01*
X79010998Y-96919102D01*
X78874384Y-97209419D01*
X78874382Y-97209424D01*
X78775231Y-97514581D01*
X78745804Y-97668841D01*
X78713906Y-97731004D01*
X78653463Y-97766054D01*
X78583666Y-97762862D01*
X78526675Y-97722442D01*
X78500584Y-97657627D01*
X78500000Y-97645605D01*
X78500000Y-71895902D01*
X78519685Y-71828863D01*
X78572489Y-71783108D01*
X78641647Y-71773164D01*
X78705203Y-71802189D01*
X78730115Y-71831750D01*
X78783216Y-71919589D01*
X78783219Y-71919592D01*
X78942798Y-72107201D01*
X79052990Y-72200930D01*
X79130411Y-72266784D01*
X79341191Y-72394205D01*
X79569683Y-72486165D01*
X79809966Y-72540281D01*
X79954705Y-72550500D01*
X82145294Y-72550499D01*
X82290034Y-72540281D01*
X82530317Y-72486165D01*
X82758809Y-72394205D01*
X82969589Y-72266784D01*
X83157201Y-72107201D01*
X83316784Y-71919589D01*
X83444205Y-71708809D01*
X83536165Y-71480317D01*
X83590281Y-71240034D01*
X83600500Y-71095295D01*
X83600499Y-68904706D01*
X83590281Y-68759966D01*
X83536165Y-68519683D01*
X83444205Y-68291191D01*
X83316784Y-68080411D01*
X83250930Y-68002990D01*
X83157201Y-67892798D01*
X83027654Y-67782606D01*
X82969589Y-67733216D01*
X82969581Y-67733211D01*
X82969574Y-67733206D01*
X82964461Y-67730115D01*
X82917274Y-67678587D01*
X82905437Y-67609727D01*
X82932708Y-67545399D01*
X82990427Y-67506026D01*
X83028613Y-67500000D01*
X87021373Y-67500000D01*
X87088412Y-67519685D01*
G37*
%TD.AperFunction*%
%TD*%
M02*
