%TF.GenerationSoftware,KiCad,Pcbnew,8.0.6*%
%TF.CreationDate,2025-03-13T21:17:34-04:00*%
%TF.ProjectId,XT60ConnectorBoard,58543630-436f-46e6-9e65-63746f72426f,rev?*%
%TF.SameCoordinates,Original*%
%TF.FileFunction,Copper,L2,Bot*%
%TF.FilePolarity,Positive*%
%FSLAX46Y46*%
G04 Gerber Fmt 4.6, Leading zero omitted, Abs format (unit mm)*
G04 Created by KiCad (PCBNEW 8.0.6) date 2025-03-13 21:17:34*
%MOMM*%
%LPD*%
G01*
G04 APERTURE LIST*
G04 Aperture macros list*
%AMRoundRect*
0 Rectangle with rounded corners*
0 $1 Rounding radius*
0 $2 $3 $4 $5 $6 $7 $8 $9 X,Y pos of 4 corners*
0 Add a 4 corners polygon primitive as box body*
4,1,4,$2,$3,$4,$5,$6,$7,$8,$9,$2,$3,0*
0 Add four circle primitives for the rounded corners*
1,1,$1+$1,$2,$3*
1,1,$1+$1,$4,$5*
1,1,$1+$1,$6,$7*
1,1,$1+$1,$8,$9*
0 Add four rect primitives between the rounded corners*
20,1,$1+$1,$2,$3,$4,$5,0*
20,1,$1+$1,$4,$5,$6,$7,0*
20,1,$1+$1,$6,$7,$8,$9,0*
20,1,$1+$1,$8,$9,$2,$3,0*%
G04 Aperture macros list end*
%TA.AperFunction,ComponentPad*%
%ADD10R,0.900000X2.000000*%
%TD*%
%TA.AperFunction,ComponentPad*%
%ADD11RoundRect,1.025000X1.025000X1.025000X-1.025000X1.025000X-1.025000X-1.025000X1.025000X-1.025000X0*%
%TD*%
%TA.AperFunction,ComponentPad*%
%ADD12C,4.100000*%
%TD*%
%TA.AperFunction,ComponentPad*%
%ADD13R,2.000000X0.900000*%
%TD*%
%TA.AperFunction,ComponentPad*%
%ADD14RoundRect,1.025000X-1.025000X1.025000X-1.025000X-1.025000X1.025000X-1.025000X1.025000X1.025000X0*%
%TD*%
%TA.AperFunction,ComponentPad*%
%ADD15RoundRect,1.025000X-1.025000X-1.025000X1.025000X-1.025000X1.025000X1.025000X-1.025000X1.025000X0*%
%TD*%
G04 APERTURE END LIST*
D10*
%TO.P,J12,*%
%TO.N,*%
X109150000Y-104150000D03*
X95650000Y-104150000D03*
D11*
%TO.P,J12,1,+*%
%TO.N,GND*%
X106000000Y-98150000D03*
D12*
%TO.P,J12,2,-*%
%TO.N,VCC*%
X98800000Y-98150000D03*
%TD*%
D10*
%TO.P,J8,*%
%TO.N,*%
X179050000Y-104000000D03*
X165550000Y-104000000D03*
D11*
%TO.P,J8,1,+*%
%TO.N,GND*%
X175900000Y-98000000D03*
D12*
%TO.P,J8,2,-*%
%TO.N,VCC*%
X168700000Y-98000000D03*
%TD*%
D13*
%TO.P,J1,*%
%TO.N,*%
X188350000Y-77250000D03*
X188350000Y-90750000D03*
D14*
%TO.P,J1,1,+*%
%TO.N,GND*%
X182350000Y-80400000D03*
D12*
%TO.P,J1,2,-*%
%TO.N,VCC*%
X182350000Y-87600000D03*
%TD*%
D10*
%TO.P,J13,*%
%TO.N,*%
X91600000Y-104150000D03*
X78100000Y-104150000D03*
D11*
%TO.P,J13,1,+*%
%TO.N,GND*%
X88450000Y-98150000D03*
D12*
%TO.P,J13,2,-*%
%TO.N,VCC*%
X81250000Y-98150000D03*
%TD*%
D10*
%TO.P,J9,*%
%TO.N,*%
X161500000Y-104000000D03*
X148000000Y-104000000D03*
D11*
%TO.P,J9,1,+*%
%TO.N,GND*%
X158350000Y-98000000D03*
D12*
%TO.P,J9,2,-*%
%TO.N,VCC*%
X151150000Y-98000000D03*
%TD*%
D10*
%TO.P,J2,*%
%TO.N,*%
X77900000Y-64000000D03*
X91400000Y-64000000D03*
D15*
%TO.P,J2,1,+*%
%TO.N,GND*%
X81050000Y-70000000D03*
D12*
%TO.P,J2,2,-*%
%TO.N,VCC*%
X88250000Y-70000000D03*
%TD*%
D10*
%TO.P,J6,*%
%TO.N,*%
X147950000Y-64000000D03*
X161450000Y-64000000D03*
D15*
%TO.P,J6,1,+*%
%TO.N,GND*%
X151100000Y-70000000D03*
D12*
%TO.P,J6,2,-*%
%TO.N,VCC*%
X158300000Y-70000000D03*
%TD*%
D10*
%TO.P,J10,*%
%TO.N,*%
X143950000Y-104000000D03*
X130450000Y-104000000D03*
D11*
%TO.P,J10,1,+*%
%TO.N,GND*%
X140800000Y-98000000D03*
D12*
%TO.P,J10,2,-*%
%TO.N,VCC*%
X133600000Y-98000000D03*
%TD*%
D10*
%TO.P,J5,*%
%TO.N,*%
X130550000Y-64000000D03*
X144050000Y-64000000D03*
D15*
%TO.P,J5,1,+*%
%TO.N,GND*%
X133700000Y-70000000D03*
D12*
%TO.P,J5,2,-*%
%TO.N,VCC*%
X140900000Y-70000000D03*
%TD*%
D10*
%TO.P,J7,*%
%TO.N,*%
X165450000Y-64000000D03*
X178950000Y-64000000D03*
D15*
%TO.P,J7,1,+*%
%TO.N,unconnected-(J7-+-Pad1)*%
X168600000Y-70000000D03*
D12*
%TO.P,J7,2,-*%
%TO.N,VCC*%
X175800000Y-70000000D03*
%TD*%
D10*
%TO.P,J11,*%
%TO.N,*%
X126700000Y-104150000D03*
X113200000Y-104150000D03*
D11*
%TO.P,J11,1,+*%
%TO.N,GND*%
X123550000Y-98150000D03*
D12*
%TO.P,J11,2,-*%
%TO.N,VCC*%
X116350000Y-98150000D03*
%TD*%
D10*
%TO.P,J4,*%
%TO.N,*%
X113000000Y-64000000D03*
X126500000Y-64000000D03*
D15*
%TO.P,J4,1,+*%
%TO.N,GND*%
X116150000Y-70000000D03*
D12*
%TO.P,J4,2,-*%
%TO.N,VCC*%
X123350000Y-70000000D03*
%TD*%
D10*
%TO.P,J3,*%
%TO.N,*%
X95450000Y-64000000D03*
X108950000Y-64000000D03*
D15*
%TO.P,J3,1,+*%
%TO.N,GND*%
X98600000Y-70000000D03*
D12*
%TO.P,J3,2,-*%
%TO.N,VCC*%
X105800000Y-70000000D03*
%TD*%
%TA.AperFunction,Conductor*%
%TO.N,GND*%
G36*
X87087375Y-67519685D02*
G01*
X87133130Y-67572489D01*
X87143074Y-67641647D01*
X87114049Y-67705203D01*
X87080073Y-67732662D01*
X86880678Y-67842279D01*
X86880660Y-67842291D01*
X86621044Y-68030913D01*
X86621034Y-68030921D01*
X86387087Y-68250611D01*
X86182522Y-68497888D01*
X86182520Y-68497891D01*
X86010562Y-68768855D01*
X86010558Y-68768861D01*
X85873918Y-69059235D01*
X85873916Y-69059240D01*
X85774745Y-69364457D01*
X85714607Y-69679709D01*
X85714606Y-69679716D01*
X85694457Y-69999994D01*
X85694457Y-70000005D01*
X85714606Y-70320283D01*
X85714607Y-70320290D01*
X85774745Y-70635542D01*
X85873916Y-70940759D01*
X85873918Y-70940764D01*
X86010558Y-71231138D01*
X86010562Y-71231144D01*
X86182520Y-71502108D01*
X86182522Y-71502111D01*
X86387087Y-71749388D01*
X86387089Y-71749390D01*
X86568337Y-71919592D01*
X86621034Y-71969078D01*
X86621044Y-71969086D01*
X86880660Y-72157708D01*
X86880666Y-72157711D01*
X86880672Y-72157716D01*
X87161903Y-72312324D01*
X87460294Y-72430466D01*
X87460293Y-72430466D01*
X87677228Y-72486165D01*
X87771139Y-72510277D01*
X87837935Y-72518715D01*
X88089524Y-72550499D01*
X88089533Y-72550499D01*
X88089536Y-72550500D01*
X88089538Y-72550500D01*
X88410462Y-72550500D01*
X88410464Y-72550500D01*
X88410467Y-72550499D01*
X88410475Y-72550499D01*
X88600463Y-72526497D01*
X88728861Y-72510277D01*
X89039706Y-72430466D01*
X89338097Y-72312324D01*
X89619328Y-72157716D01*
X89878964Y-71969080D01*
X90112911Y-71749390D01*
X90317478Y-71502110D01*
X90489439Y-71231142D01*
X90626084Y-70940758D01*
X90725256Y-70635538D01*
X90785392Y-70320294D01*
X90785393Y-70320283D01*
X90805543Y-70000005D01*
X90805543Y-69999994D01*
X90785393Y-69679716D01*
X90785392Y-69679709D01*
X90785392Y-69679706D01*
X90725256Y-69364462D01*
X90626084Y-69059242D01*
X90553378Y-68904734D01*
X90489441Y-68768861D01*
X90489437Y-68768855D01*
X90483843Y-68760041D01*
X90331400Y-68519827D01*
X90317479Y-68497891D01*
X90317477Y-68497888D01*
X90112912Y-68250611D01*
X89931975Y-68080700D01*
X89878964Y-68030920D01*
X89878961Y-68030918D01*
X89878955Y-68030913D01*
X89619339Y-67842291D01*
X89619321Y-67842279D01*
X89419927Y-67732662D01*
X89370663Y-67683116D01*
X89356006Y-67614801D01*
X89380610Y-67549406D01*
X89436662Y-67507695D01*
X89479664Y-67500000D01*
X96622355Y-67500000D01*
X96689394Y-67519685D01*
X96735149Y-67572489D01*
X96745093Y-67641647D01*
X96716068Y-67705203D01*
X96686507Y-67730116D01*
X96680709Y-67733620D01*
X96680700Y-67733627D01*
X96493153Y-67893153D01*
X96333627Y-68080700D01*
X96333620Y-68080710D01*
X96206244Y-68291414D01*
X96114315Y-68519827D01*
X96114313Y-68519834D01*
X96060217Y-68760031D01*
X96060215Y-68760041D01*
X96050000Y-68904731D01*
X96050000Y-69750000D01*
X97272769Y-69750000D01*
X97250000Y-69893753D01*
X97250000Y-70106247D01*
X97272769Y-70250000D01*
X96050000Y-70250000D01*
X96050000Y-71095268D01*
X96060215Y-71239958D01*
X96060217Y-71239968D01*
X96114313Y-71480165D01*
X96114315Y-71480172D01*
X96206244Y-71708585D01*
X96333620Y-71919289D01*
X96333627Y-71919299D01*
X96493153Y-72106846D01*
X96680700Y-72266372D01*
X96680710Y-72266379D01*
X96891414Y-72393755D01*
X97119827Y-72485684D01*
X97119834Y-72485686D01*
X97360031Y-72539782D01*
X97360041Y-72539784D01*
X97504731Y-72549999D01*
X97504734Y-72550000D01*
X98350000Y-72550000D01*
X98350000Y-71327231D01*
X98493753Y-71350000D01*
X98706247Y-71350000D01*
X98850000Y-71327231D01*
X98850000Y-72550000D01*
X99695266Y-72550000D01*
X99695268Y-72549999D01*
X99839958Y-72539784D01*
X99839968Y-72539782D01*
X100080165Y-72485686D01*
X100080172Y-72485684D01*
X100308585Y-72393755D01*
X100519289Y-72266379D01*
X100519299Y-72266372D01*
X100706846Y-72106846D01*
X100866372Y-71919299D01*
X100866379Y-71919289D01*
X100993755Y-71708585D01*
X101085684Y-71480172D01*
X101085686Y-71480165D01*
X101139782Y-71239968D01*
X101139784Y-71239958D01*
X101149999Y-71095268D01*
X101150000Y-71095266D01*
X101150000Y-70250000D01*
X99927231Y-70250000D01*
X99950000Y-70106247D01*
X99950000Y-69893753D01*
X99927231Y-69750000D01*
X101150000Y-69750000D01*
X101150000Y-68904734D01*
X101149999Y-68904731D01*
X101139784Y-68760041D01*
X101139782Y-68760031D01*
X101085686Y-68519834D01*
X101085684Y-68519827D01*
X100993755Y-68291414D01*
X100866379Y-68080710D01*
X100866372Y-68080700D01*
X100706846Y-67893153D01*
X100519299Y-67733627D01*
X100519290Y-67733620D01*
X100513493Y-67730116D01*
X100466307Y-67678587D01*
X100454469Y-67609728D01*
X100481739Y-67545399D01*
X100539459Y-67506026D01*
X100577645Y-67500000D01*
X104570336Y-67500000D01*
X104637375Y-67519685D01*
X104683130Y-67572489D01*
X104693074Y-67641647D01*
X104664049Y-67705203D01*
X104630073Y-67732662D01*
X104430678Y-67842279D01*
X104430660Y-67842291D01*
X104171044Y-68030913D01*
X104171034Y-68030921D01*
X103937087Y-68250611D01*
X103732522Y-68497888D01*
X103732520Y-68497891D01*
X103560562Y-68768855D01*
X103560558Y-68768861D01*
X103423918Y-69059235D01*
X103423916Y-69059240D01*
X103324745Y-69364457D01*
X103264607Y-69679709D01*
X103264606Y-69679716D01*
X103244457Y-69999994D01*
X103244457Y-70000005D01*
X103264606Y-70320283D01*
X103264607Y-70320290D01*
X103324745Y-70635542D01*
X103423916Y-70940759D01*
X103423918Y-70940764D01*
X103560558Y-71231138D01*
X103560562Y-71231144D01*
X103732520Y-71502108D01*
X103732522Y-71502111D01*
X103937087Y-71749388D01*
X103937089Y-71749390D01*
X104118337Y-71919592D01*
X104171034Y-71969078D01*
X104171044Y-71969086D01*
X104430660Y-72157708D01*
X104430666Y-72157711D01*
X104430672Y-72157716D01*
X104711903Y-72312324D01*
X105010294Y-72430466D01*
X105010293Y-72430466D01*
X105227228Y-72486165D01*
X105321139Y-72510277D01*
X105387935Y-72518715D01*
X105639524Y-72550499D01*
X105639533Y-72550499D01*
X105639536Y-72550500D01*
X105639538Y-72550500D01*
X105960462Y-72550500D01*
X105960464Y-72550500D01*
X105960467Y-72550499D01*
X105960475Y-72550499D01*
X106150463Y-72526497D01*
X106278861Y-72510277D01*
X106589706Y-72430466D01*
X106888097Y-72312324D01*
X107169328Y-72157716D01*
X107428964Y-71969080D01*
X107662911Y-71749390D01*
X107867478Y-71502110D01*
X108039439Y-71231142D01*
X108176084Y-70940758D01*
X108275256Y-70635538D01*
X108335392Y-70320294D01*
X108335393Y-70320283D01*
X108355543Y-70000005D01*
X108355543Y-69999994D01*
X108335393Y-69679716D01*
X108335392Y-69679709D01*
X108335392Y-69679706D01*
X108275256Y-69364462D01*
X108176084Y-69059242D01*
X108103378Y-68904734D01*
X108039441Y-68768861D01*
X108039437Y-68768855D01*
X108033843Y-68760041D01*
X107881400Y-68519827D01*
X107867479Y-68497891D01*
X107867477Y-68497888D01*
X107662912Y-68250611D01*
X107481975Y-68080700D01*
X107428964Y-68030920D01*
X107428961Y-68030918D01*
X107428955Y-68030913D01*
X107169339Y-67842291D01*
X107169321Y-67842279D01*
X106969927Y-67732662D01*
X106920663Y-67683116D01*
X106906006Y-67614801D01*
X106930610Y-67549406D01*
X106986662Y-67507695D01*
X107029664Y-67500000D01*
X114172355Y-67500000D01*
X114239394Y-67519685D01*
X114285149Y-67572489D01*
X114295093Y-67641647D01*
X114266068Y-67705203D01*
X114236507Y-67730116D01*
X114230709Y-67733620D01*
X114230700Y-67733627D01*
X114043153Y-67893153D01*
X113883627Y-68080700D01*
X113883620Y-68080710D01*
X113756244Y-68291414D01*
X113664315Y-68519827D01*
X113664313Y-68519834D01*
X113610217Y-68760031D01*
X113610215Y-68760041D01*
X113600000Y-68904731D01*
X113600000Y-69750000D01*
X114822769Y-69750000D01*
X114800000Y-69893753D01*
X114800000Y-70106247D01*
X114822769Y-70250000D01*
X113600000Y-70250000D01*
X113600000Y-71095268D01*
X113610215Y-71239958D01*
X113610217Y-71239968D01*
X113664313Y-71480165D01*
X113664315Y-71480172D01*
X113756244Y-71708585D01*
X113883620Y-71919289D01*
X113883627Y-71919299D01*
X114043153Y-72106846D01*
X114230700Y-72266372D01*
X114230710Y-72266379D01*
X114441414Y-72393755D01*
X114669827Y-72485684D01*
X114669834Y-72485686D01*
X114910031Y-72539782D01*
X114910041Y-72539784D01*
X115054731Y-72549999D01*
X115054734Y-72550000D01*
X115900000Y-72550000D01*
X115900000Y-71327231D01*
X116043753Y-71350000D01*
X116256247Y-71350000D01*
X116400000Y-71327231D01*
X116400000Y-72550000D01*
X117245266Y-72550000D01*
X117245268Y-72549999D01*
X117389958Y-72539784D01*
X117389968Y-72539782D01*
X117630165Y-72485686D01*
X117630172Y-72485684D01*
X117858585Y-72393755D01*
X118069289Y-72266379D01*
X118069299Y-72266372D01*
X118256846Y-72106846D01*
X118416372Y-71919299D01*
X118416379Y-71919289D01*
X118543755Y-71708585D01*
X118635684Y-71480172D01*
X118635686Y-71480165D01*
X118689782Y-71239968D01*
X118689784Y-71239958D01*
X118699999Y-71095268D01*
X118700000Y-71095266D01*
X118700000Y-70250000D01*
X117477231Y-70250000D01*
X117500000Y-70106247D01*
X117500000Y-69893753D01*
X117477231Y-69750000D01*
X118700000Y-69750000D01*
X118700000Y-68904734D01*
X118699999Y-68904731D01*
X118689784Y-68760041D01*
X118689782Y-68760031D01*
X118635686Y-68519834D01*
X118635684Y-68519827D01*
X118543755Y-68291414D01*
X118416379Y-68080710D01*
X118416372Y-68080700D01*
X118256846Y-67893153D01*
X118069299Y-67733627D01*
X118069290Y-67733620D01*
X118063493Y-67730116D01*
X118016307Y-67678587D01*
X118004469Y-67609728D01*
X118031739Y-67545399D01*
X118089459Y-67506026D01*
X118127645Y-67500000D01*
X122120336Y-67500000D01*
X122187375Y-67519685D01*
X122233130Y-67572489D01*
X122243074Y-67641647D01*
X122214049Y-67705203D01*
X122180073Y-67732662D01*
X121980678Y-67842279D01*
X121980660Y-67842291D01*
X121721044Y-68030913D01*
X121721034Y-68030921D01*
X121487087Y-68250611D01*
X121282522Y-68497888D01*
X121282520Y-68497891D01*
X121110562Y-68768855D01*
X121110558Y-68768861D01*
X120973918Y-69059235D01*
X120973916Y-69059240D01*
X120874745Y-69364457D01*
X120814607Y-69679709D01*
X120814606Y-69679716D01*
X120794457Y-69999994D01*
X120794457Y-70000005D01*
X120814606Y-70320283D01*
X120814607Y-70320290D01*
X120874745Y-70635542D01*
X120973916Y-70940759D01*
X120973918Y-70940764D01*
X121110558Y-71231138D01*
X121110562Y-71231144D01*
X121282520Y-71502108D01*
X121282522Y-71502111D01*
X121487087Y-71749388D01*
X121487089Y-71749390D01*
X121668337Y-71919592D01*
X121721034Y-71969078D01*
X121721044Y-71969086D01*
X121980660Y-72157708D01*
X121980666Y-72157711D01*
X121980672Y-72157716D01*
X122261903Y-72312324D01*
X122560294Y-72430466D01*
X122560293Y-72430466D01*
X122777228Y-72486165D01*
X122871139Y-72510277D01*
X122937935Y-72518715D01*
X123189524Y-72550499D01*
X123189533Y-72550499D01*
X123189536Y-72550500D01*
X123189538Y-72550500D01*
X123510462Y-72550500D01*
X123510464Y-72550500D01*
X123510467Y-72550499D01*
X123510475Y-72550499D01*
X123700463Y-72526497D01*
X123828861Y-72510277D01*
X124139706Y-72430466D01*
X124438097Y-72312324D01*
X124719328Y-72157716D01*
X124978964Y-71969080D01*
X125212911Y-71749390D01*
X125417478Y-71502110D01*
X125589439Y-71231142D01*
X125726084Y-70940758D01*
X125825256Y-70635538D01*
X125885392Y-70320294D01*
X125885393Y-70320283D01*
X125905543Y-70000005D01*
X125905543Y-69999994D01*
X125885393Y-69679716D01*
X125885392Y-69679709D01*
X125885392Y-69679706D01*
X125825256Y-69364462D01*
X125726084Y-69059242D01*
X125653378Y-68904734D01*
X125589441Y-68768861D01*
X125589437Y-68768855D01*
X125583843Y-68760041D01*
X125431400Y-68519827D01*
X125417479Y-68497891D01*
X125417477Y-68497888D01*
X125212912Y-68250611D01*
X125031975Y-68080700D01*
X124978964Y-68030920D01*
X124978961Y-68030918D01*
X124978955Y-68030913D01*
X124719339Y-67842291D01*
X124719321Y-67842279D01*
X124519927Y-67732662D01*
X124470663Y-67683116D01*
X124456006Y-67614801D01*
X124480610Y-67549406D01*
X124536662Y-67507695D01*
X124579664Y-67500000D01*
X131722355Y-67500000D01*
X131789394Y-67519685D01*
X131835149Y-67572489D01*
X131845093Y-67641647D01*
X131816068Y-67705203D01*
X131786507Y-67730116D01*
X131780709Y-67733620D01*
X131780700Y-67733627D01*
X131593153Y-67893153D01*
X131433627Y-68080700D01*
X131433620Y-68080710D01*
X131306244Y-68291414D01*
X131214315Y-68519827D01*
X131214313Y-68519834D01*
X131160217Y-68760031D01*
X131160215Y-68760041D01*
X131150000Y-68904731D01*
X131150000Y-69750000D01*
X132372769Y-69750000D01*
X132350000Y-69893753D01*
X132350000Y-70106247D01*
X132372769Y-70250000D01*
X131150000Y-70250000D01*
X131150000Y-71095268D01*
X131160215Y-71239958D01*
X131160217Y-71239968D01*
X131214313Y-71480165D01*
X131214315Y-71480172D01*
X131306244Y-71708585D01*
X131433620Y-71919289D01*
X131433627Y-71919299D01*
X131593153Y-72106846D01*
X131780700Y-72266372D01*
X131780710Y-72266379D01*
X131991414Y-72393755D01*
X132219827Y-72485684D01*
X132219834Y-72485686D01*
X132460031Y-72539782D01*
X132460041Y-72539784D01*
X132604731Y-72549999D01*
X132604734Y-72550000D01*
X133450000Y-72550000D01*
X133450000Y-71327231D01*
X133593753Y-71350000D01*
X133806247Y-71350000D01*
X133950000Y-71327231D01*
X133950000Y-72550000D01*
X134795266Y-72550000D01*
X134795268Y-72549999D01*
X134939958Y-72539784D01*
X134939968Y-72539782D01*
X135180165Y-72485686D01*
X135180172Y-72485684D01*
X135408585Y-72393755D01*
X135619289Y-72266379D01*
X135619299Y-72266372D01*
X135806846Y-72106846D01*
X135966372Y-71919299D01*
X135966379Y-71919289D01*
X136093755Y-71708585D01*
X136185684Y-71480172D01*
X136185686Y-71480165D01*
X136239782Y-71239968D01*
X136239784Y-71239958D01*
X136249999Y-71095268D01*
X136250000Y-71095266D01*
X136250000Y-70250000D01*
X135027231Y-70250000D01*
X135050000Y-70106247D01*
X135050000Y-69893753D01*
X135027231Y-69750000D01*
X136250000Y-69750000D01*
X136250000Y-68904734D01*
X136249999Y-68904731D01*
X136239784Y-68760041D01*
X136239782Y-68760031D01*
X136185686Y-68519834D01*
X136185684Y-68519827D01*
X136093755Y-68291414D01*
X135966379Y-68080710D01*
X135966372Y-68080700D01*
X135806846Y-67893153D01*
X135619299Y-67733627D01*
X135619290Y-67733620D01*
X135613493Y-67730116D01*
X135566307Y-67678587D01*
X135554469Y-67609728D01*
X135581739Y-67545399D01*
X135639459Y-67506026D01*
X135677645Y-67500000D01*
X139670336Y-67500000D01*
X139737375Y-67519685D01*
X139783130Y-67572489D01*
X139793074Y-67641647D01*
X139764049Y-67705203D01*
X139730073Y-67732662D01*
X139530678Y-67842279D01*
X139530660Y-67842291D01*
X139271044Y-68030913D01*
X139271034Y-68030921D01*
X139037087Y-68250611D01*
X138832522Y-68497888D01*
X138832520Y-68497891D01*
X138660562Y-68768855D01*
X138660558Y-68768861D01*
X138523918Y-69059235D01*
X138523916Y-69059240D01*
X138424745Y-69364457D01*
X138364607Y-69679709D01*
X138364606Y-69679716D01*
X138344457Y-69999994D01*
X138344457Y-70000005D01*
X138364606Y-70320283D01*
X138364607Y-70320290D01*
X138424745Y-70635542D01*
X138523916Y-70940759D01*
X138523918Y-70940764D01*
X138660558Y-71231138D01*
X138660562Y-71231144D01*
X138832520Y-71502108D01*
X138832522Y-71502111D01*
X139037087Y-71749388D01*
X139037089Y-71749390D01*
X139218337Y-71919592D01*
X139271034Y-71969078D01*
X139271044Y-71969086D01*
X139530660Y-72157708D01*
X139530666Y-72157711D01*
X139530672Y-72157716D01*
X139811903Y-72312324D01*
X140110294Y-72430466D01*
X140110293Y-72430466D01*
X140327228Y-72486165D01*
X140421139Y-72510277D01*
X140487935Y-72518715D01*
X140739524Y-72550499D01*
X140739533Y-72550499D01*
X140739536Y-72550500D01*
X140739538Y-72550500D01*
X141060462Y-72550500D01*
X141060464Y-72550500D01*
X141060467Y-72550499D01*
X141060475Y-72550499D01*
X141250463Y-72526497D01*
X141378861Y-72510277D01*
X141689706Y-72430466D01*
X141988097Y-72312324D01*
X142269328Y-72157716D01*
X142528964Y-71969080D01*
X142762911Y-71749390D01*
X142967478Y-71502110D01*
X143139439Y-71231142D01*
X143276084Y-70940758D01*
X143375256Y-70635538D01*
X143435392Y-70320294D01*
X143435393Y-70320283D01*
X143455543Y-70000005D01*
X143455543Y-69999994D01*
X143435393Y-69679716D01*
X143435392Y-69679709D01*
X143435392Y-69679706D01*
X143375256Y-69364462D01*
X143276084Y-69059242D01*
X143203378Y-68904734D01*
X143139441Y-68768861D01*
X143139437Y-68768855D01*
X143133843Y-68760041D01*
X142981400Y-68519827D01*
X142967479Y-68497891D01*
X142967477Y-68497888D01*
X142762912Y-68250611D01*
X142581975Y-68080700D01*
X142528964Y-68030920D01*
X142528961Y-68030918D01*
X142528955Y-68030913D01*
X142269339Y-67842291D01*
X142269321Y-67842279D01*
X142069927Y-67732662D01*
X142020663Y-67683116D01*
X142006006Y-67614801D01*
X142030610Y-67549406D01*
X142086662Y-67507695D01*
X142129664Y-67500000D01*
X149122355Y-67500000D01*
X149189394Y-67519685D01*
X149235149Y-67572489D01*
X149245093Y-67641647D01*
X149216068Y-67705203D01*
X149186507Y-67730116D01*
X149180709Y-67733620D01*
X149180700Y-67733627D01*
X148993153Y-67893153D01*
X148833627Y-68080700D01*
X148833620Y-68080710D01*
X148706244Y-68291414D01*
X148614315Y-68519827D01*
X148614313Y-68519834D01*
X148560217Y-68760031D01*
X148560215Y-68760041D01*
X148550000Y-68904731D01*
X148550000Y-69750000D01*
X149772769Y-69750000D01*
X149750000Y-69893753D01*
X149750000Y-70106247D01*
X149772769Y-70250000D01*
X148550000Y-70250000D01*
X148550000Y-71095268D01*
X148560215Y-71239958D01*
X148560217Y-71239968D01*
X148614313Y-71480165D01*
X148614315Y-71480172D01*
X148706244Y-71708585D01*
X148833620Y-71919289D01*
X148833627Y-71919299D01*
X148993153Y-72106846D01*
X149180700Y-72266372D01*
X149180710Y-72266379D01*
X149391414Y-72393755D01*
X149619827Y-72485684D01*
X149619834Y-72485686D01*
X149860031Y-72539782D01*
X149860041Y-72539784D01*
X150004731Y-72549999D01*
X150004734Y-72550000D01*
X150850000Y-72550000D01*
X150850000Y-71327231D01*
X150993753Y-71350000D01*
X151206247Y-71350000D01*
X151350000Y-71327231D01*
X151350000Y-72550000D01*
X152195266Y-72550000D01*
X152195268Y-72549999D01*
X152339958Y-72539784D01*
X152339968Y-72539782D01*
X152580165Y-72485686D01*
X152580172Y-72485684D01*
X152808585Y-72393755D01*
X153019289Y-72266379D01*
X153019299Y-72266372D01*
X153206846Y-72106846D01*
X153366372Y-71919299D01*
X153366379Y-71919289D01*
X153493755Y-71708585D01*
X153585684Y-71480172D01*
X153585686Y-71480165D01*
X153639782Y-71239968D01*
X153639784Y-71239958D01*
X153649999Y-71095268D01*
X153650000Y-71095266D01*
X153650000Y-70250000D01*
X152427231Y-70250000D01*
X152450000Y-70106247D01*
X152450000Y-69893753D01*
X152427231Y-69750000D01*
X153650000Y-69750000D01*
X153650000Y-68904734D01*
X153649999Y-68904731D01*
X153639784Y-68760041D01*
X153639782Y-68760031D01*
X153585686Y-68519834D01*
X153585684Y-68519827D01*
X153493755Y-68291414D01*
X153366379Y-68080710D01*
X153366372Y-68080700D01*
X153206846Y-67893153D01*
X153019299Y-67733627D01*
X153019290Y-67733620D01*
X153013493Y-67730116D01*
X152966307Y-67678587D01*
X152954469Y-67609728D01*
X152981739Y-67545399D01*
X153039459Y-67506026D01*
X153077645Y-67500000D01*
X157070336Y-67500000D01*
X157137375Y-67519685D01*
X157183130Y-67572489D01*
X157193074Y-67641647D01*
X157164049Y-67705203D01*
X157130073Y-67732662D01*
X156930678Y-67842279D01*
X156930660Y-67842291D01*
X156671044Y-68030913D01*
X156671034Y-68030921D01*
X156437087Y-68250611D01*
X156232522Y-68497888D01*
X156232520Y-68497891D01*
X156060562Y-68768855D01*
X156060558Y-68768861D01*
X155923918Y-69059235D01*
X155923916Y-69059240D01*
X155824745Y-69364457D01*
X155764607Y-69679709D01*
X155764606Y-69679716D01*
X155744457Y-69999994D01*
X155744457Y-70000005D01*
X155764606Y-70320283D01*
X155764607Y-70320290D01*
X155824745Y-70635542D01*
X155923916Y-70940759D01*
X155923918Y-70940764D01*
X156060558Y-71231138D01*
X156060562Y-71231144D01*
X156232520Y-71502108D01*
X156232522Y-71502111D01*
X156437087Y-71749388D01*
X156437089Y-71749390D01*
X156618337Y-71919592D01*
X156671034Y-71969078D01*
X156671044Y-71969086D01*
X156930660Y-72157708D01*
X156930666Y-72157711D01*
X156930672Y-72157716D01*
X157211903Y-72312324D01*
X157510294Y-72430466D01*
X157510293Y-72430466D01*
X157727228Y-72486165D01*
X157821139Y-72510277D01*
X157887935Y-72518715D01*
X158139524Y-72550499D01*
X158139533Y-72550499D01*
X158139536Y-72550500D01*
X158139538Y-72550500D01*
X158460462Y-72550500D01*
X158460464Y-72550500D01*
X158460467Y-72550499D01*
X158460475Y-72550499D01*
X158650463Y-72526497D01*
X158778861Y-72510277D01*
X159089706Y-72430466D01*
X159388097Y-72312324D01*
X159669328Y-72157716D01*
X159928964Y-71969080D01*
X160162911Y-71749390D01*
X160367478Y-71502110D01*
X160539439Y-71231142D01*
X160676084Y-70940758D01*
X160775256Y-70635538D01*
X160835392Y-70320294D01*
X160835393Y-70320283D01*
X160855543Y-70000005D01*
X160855543Y-69999994D01*
X160835393Y-69679716D01*
X160835392Y-69679709D01*
X160835392Y-69679706D01*
X160775256Y-69364462D01*
X160676084Y-69059242D01*
X160603378Y-68904734D01*
X160539441Y-68768861D01*
X160539437Y-68768855D01*
X160533843Y-68760041D01*
X160381400Y-68519827D01*
X160367479Y-68497891D01*
X160367477Y-68497888D01*
X160162912Y-68250611D01*
X159981975Y-68080700D01*
X159928964Y-68030920D01*
X159928961Y-68030918D01*
X159928955Y-68030913D01*
X159669339Y-67842291D01*
X159669321Y-67842279D01*
X159469927Y-67732662D01*
X159420663Y-67683116D01*
X159406006Y-67614801D01*
X159430610Y-67549406D01*
X159486662Y-67507695D01*
X159529664Y-67500000D01*
X166621387Y-67500000D01*
X166688426Y-67519685D01*
X166734181Y-67572489D01*
X166744125Y-67641647D01*
X166715100Y-67705203D01*
X166685539Y-67730115D01*
X166680425Y-67733206D01*
X166680407Y-67733219D01*
X166492798Y-67892798D01*
X166333219Y-68080407D01*
X166333212Y-68080417D01*
X166205798Y-68291185D01*
X166205795Y-68291190D01*
X166113835Y-68519680D01*
X166113835Y-68519682D01*
X166059719Y-68759963D01*
X166059718Y-68759970D01*
X166049500Y-68904702D01*
X166049500Y-71095292D01*
X166049501Y-71095298D01*
X166059718Y-71240027D01*
X166059718Y-71240031D01*
X166059719Y-71240034D01*
X166059720Y-71240038D01*
X166113834Y-71480314D01*
X166113835Y-71480319D01*
X166122606Y-71502111D01*
X166205795Y-71708809D01*
X166333216Y-71919589D01*
X166333219Y-71919592D01*
X166492798Y-72107201D01*
X166602990Y-72200930D01*
X166680411Y-72266784D01*
X166891191Y-72394205D01*
X167119683Y-72486165D01*
X167359966Y-72540281D01*
X167504705Y-72550500D01*
X169695294Y-72550499D01*
X169840034Y-72540281D01*
X170080317Y-72486165D01*
X170308809Y-72394205D01*
X170519589Y-72266784D01*
X170707201Y-72107201D01*
X170866784Y-71919589D01*
X170994205Y-71708809D01*
X171086165Y-71480317D01*
X171140281Y-71240034D01*
X171150500Y-71095295D01*
X171150499Y-68904706D01*
X171140281Y-68759966D01*
X171086165Y-68519683D01*
X171077394Y-68497891D01*
X171062470Y-68460808D01*
X170994205Y-68291191D01*
X170866784Y-68080411D01*
X170800930Y-68002990D01*
X170707201Y-67892798D01*
X170520072Y-67733627D01*
X170519589Y-67733216D01*
X170519581Y-67733211D01*
X170519574Y-67733206D01*
X170514461Y-67730115D01*
X170467274Y-67678587D01*
X170455437Y-67609727D01*
X170482708Y-67545399D01*
X170540427Y-67506026D01*
X170578613Y-67500000D01*
X174570336Y-67500000D01*
X174637375Y-67519685D01*
X174683130Y-67572489D01*
X174693074Y-67641647D01*
X174664049Y-67705203D01*
X174630073Y-67732662D01*
X174430678Y-67842279D01*
X174430660Y-67842291D01*
X174171044Y-68030913D01*
X174171034Y-68030921D01*
X173937087Y-68250611D01*
X173732522Y-68497888D01*
X173732520Y-68497891D01*
X173560562Y-68768855D01*
X173560558Y-68768861D01*
X173423918Y-69059235D01*
X173423916Y-69059240D01*
X173324745Y-69364457D01*
X173264607Y-69679709D01*
X173264606Y-69679716D01*
X173244457Y-69999994D01*
X173244457Y-70000005D01*
X173264606Y-70320283D01*
X173264607Y-70320290D01*
X173324745Y-70635542D01*
X173423916Y-70940759D01*
X173423918Y-70940764D01*
X173560558Y-71231138D01*
X173560562Y-71231144D01*
X173732520Y-71502108D01*
X173732522Y-71502111D01*
X173937087Y-71749388D01*
X173937089Y-71749390D01*
X174118337Y-71919592D01*
X174171034Y-71969078D01*
X174171044Y-71969086D01*
X174430660Y-72157708D01*
X174430666Y-72157711D01*
X174430672Y-72157716D01*
X174711903Y-72312324D01*
X175010294Y-72430466D01*
X175010293Y-72430466D01*
X175227228Y-72486165D01*
X175321139Y-72510277D01*
X175387935Y-72518715D01*
X175639524Y-72550499D01*
X175639533Y-72550499D01*
X175639536Y-72550500D01*
X175639538Y-72550500D01*
X175960462Y-72550500D01*
X175960464Y-72550500D01*
X175960467Y-72550499D01*
X175960475Y-72550499D01*
X176150463Y-72526497D01*
X176278861Y-72510277D01*
X176589706Y-72430466D01*
X176888097Y-72312324D01*
X177169328Y-72157716D01*
X177428964Y-71969080D01*
X177662911Y-71749390D01*
X177867478Y-71502110D01*
X178039439Y-71231142D01*
X178176084Y-70940758D01*
X178275256Y-70635538D01*
X178335392Y-70320294D01*
X178335393Y-70320283D01*
X178355543Y-70000005D01*
X178355543Y-69999994D01*
X178335393Y-69679716D01*
X178335392Y-69679709D01*
X178335392Y-69679706D01*
X178275256Y-69364462D01*
X178176084Y-69059242D01*
X178103378Y-68904734D01*
X178039441Y-68768861D01*
X178039437Y-68768855D01*
X178033843Y-68760041D01*
X177881400Y-68519827D01*
X177867479Y-68497891D01*
X177867477Y-68497888D01*
X177662912Y-68250611D01*
X177481975Y-68080700D01*
X177428964Y-68030920D01*
X177428961Y-68030918D01*
X177428955Y-68030913D01*
X177169339Y-67842291D01*
X177169321Y-67842279D01*
X176969927Y-67732662D01*
X176920663Y-67683116D01*
X176906006Y-67614801D01*
X176930610Y-67549406D01*
X176986662Y-67507695D01*
X177029664Y-67500000D01*
X184876000Y-67500000D01*
X184943039Y-67519685D01*
X184988794Y-67572489D01*
X185000000Y-67624000D01*
X185000000Y-78687882D01*
X184980315Y-78754921D01*
X184927511Y-78800676D01*
X184858353Y-78810620D01*
X184794797Y-78781595D01*
X184760967Y-78734180D01*
X184743754Y-78691413D01*
X184616379Y-78480710D01*
X184616372Y-78480700D01*
X184456846Y-78293153D01*
X184269299Y-78133627D01*
X184269289Y-78133620D01*
X184058585Y-78006244D01*
X183830172Y-77914315D01*
X183830165Y-77914313D01*
X183589968Y-77860217D01*
X183589958Y-77860215D01*
X183445268Y-77850000D01*
X182600000Y-77850000D01*
X182600000Y-79072768D01*
X182456247Y-79050000D01*
X182243753Y-79050000D01*
X182100000Y-79072768D01*
X182100000Y-77850000D01*
X181254731Y-77850000D01*
X181110041Y-77860215D01*
X181110031Y-77860217D01*
X180869834Y-77914313D01*
X180869827Y-77914315D01*
X180641414Y-78006244D01*
X180430710Y-78133620D01*
X180430700Y-78133627D01*
X180243153Y-78293153D01*
X180083627Y-78480700D01*
X180083620Y-78480710D01*
X179956244Y-78691414D01*
X179864315Y-78919827D01*
X179864313Y-78919834D01*
X179810217Y-79160031D01*
X179810215Y-79160041D01*
X179800000Y-79304731D01*
X179800000Y-80150000D01*
X181022769Y-80150000D01*
X181000000Y-80293753D01*
X181000000Y-80506247D01*
X181022769Y-80650000D01*
X179800000Y-80650000D01*
X179800000Y-81495268D01*
X179810215Y-81639958D01*
X179810217Y-81639968D01*
X179864313Y-81880165D01*
X179864315Y-81880172D01*
X179956244Y-82108585D01*
X180083620Y-82319289D01*
X180083627Y-82319299D01*
X180243153Y-82506846D01*
X180430700Y-82666372D01*
X180430710Y-82666379D01*
X180641414Y-82793755D01*
X180869827Y-82885684D01*
X180869834Y-82885686D01*
X181110031Y-82939782D01*
X181110041Y-82939784D01*
X181254731Y-82949999D01*
X181254734Y-82950000D01*
X182100000Y-82950000D01*
X182100000Y-81727231D01*
X182243753Y-81750000D01*
X182456247Y-81750000D01*
X182600000Y-81727231D01*
X182600000Y-82950000D01*
X183445266Y-82950000D01*
X183445268Y-82949999D01*
X183589958Y-82939784D01*
X183589968Y-82939782D01*
X183830165Y-82885686D01*
X183830172Y-82885684D01*
X184058585Y-82793755D01*
X184269289Y-82666379D01*
X184269299Y-82666372D01*
X184456846Y-82506846D01*
X184616372Y-82319299D01*
X184616379Y-82319289D01*
X184743755Y-82108585D01*
X184760967Y-82065820D01*
X184804258Y-82010978D01*
X184870327Y-81988247D01*
X184938197Y-82004844D01*
X184986320Y-82055499D01*
X185000000Y-82112117D01*
X185000000Y-86719363D01*
X184980315Y-86786402D01*
X184927511Y-86832157D01*
X184858353Y-86842101D01*
X184794797Y-86813076D01*
X184758069Y-86757681D01*
X184726083Y-86659240D01*
X184726081Y-86659235D01*
X184589441Y-86368861D01*
X184589437Y-86368855D01*
X184417479Y-86097891D01*
X184417477Y-86097888D01*
X184212912Y-85850611D01*
X183978965Y-85630921D01*
X183978955Y-85630913D01*
X183719339Y-85442291D01*
X183719321Y-85442280D01*
X183438096Y-85287675D01*
X183438093Y-85287674D01*
X183139703Y-85169533D01*
X183139706Y-85169533D01*
X182828864Y-85089723D01*
X182828851Y-85089721D01*
X182510475Y-85049500D01*
X182510464Y-85049500D01*
X182189536Y-85049500D01*
X182189524Y-85049500D01*
X181871148Y-85089721D01*
X181871135Y-85089723D01*
X181560294Y-85169533D01*
X181261906Y-85287674D01*
X181261903Y-85287675D01*
X180980678Y-85442280D01*
X180980660Y-85442291D01*
X180721044Y-85630913D01*
X180721034Y-85630921D01*
X180487087Y-85850611D01*
X180282522Y-86097888D01*
X180282520Y-86097891D01*
X180110562Y-86368855D01*
X180110558Y-86368861D01*
X179973918Y-86659235D01*
X179973916Y-86659240D01*
X179874745Y-86964457D01*
X179814607Y-87279709D01*
X179814606Y-87279716D01*
X179794457Y-87599994D01*
X179794457Y-87600005D01*
X179814606Y-87920283D01*
X179814607Y-87920290D01*
X179874745Y-88235542D01*
X179973916Y-88540759D01*
X179973918Y-88540764D01*
X180110558Y-88831138D01*
X180110562Y-88831144D01*
X180282520Y-89102108D01*
X180282522Y-89102111D01*
X180487087Y-89349388D01*
X180721034Y-89569078D01*
X180721044Y-89569086D01*
X180980660Y-89757708D01*
X180980666Y-89757711D01*
X180980672Y-89757716D01*
X181261903Y-89912324D01*
X181560294Y-90030466D01*
X181560293Y-90030466D01*
X181871135Y-90110276D01*
X181871139Y-90110277D01*
X181937935Y-90118715D01*
X182189524Y-90150499D01*
X182189533Y-90150499D01*
X182189536Y-90150500D01*
X182189538Y-90150500D01*
X182510462Y-90150500D01*
X182510464Y-90150500D01*
X182510467Y-90150499D01*
X182510475Y-90150499D01*
X182700463Y-90126497D01*
X182828861Y-90110277D01*
X183139706Y-90030466D01*
X183438097Y-89912324D01*
X183719328Y-89757716D01*
X183978964Y-89569080D01*
X184212911Y-89349390D01*
X184417478Y-89102110D01*
X184589439Y-88831142D01*
X184726084Y-88540758D01*
X184758069Y-88442317D01*
X184797506Y-88384643D01*
X184861865Y-88357444D01*
X184930711Y-88369358D01*
X184982187Y-88416602D01*
X185000000Y-88480636D01*
X185000000Y-100376000D01*
X184980315Y-100443039D01*
X184927511Y-100488794D01*
X184876000Y-100500000D01*
X177877645Y-100500000D01*
X177810606Y-100480315D01*
X177764851Y-100427511D01*
X177754907Y-100358353D01*
X177783932Y-100294797D01*
X177813493Y-100269884D01*
X177819290Y-100266379D01*
X177819299Y-100266372D01*
X178006846Y-100106846D01*
X178166372Y-99919299D01*
X178166379Y-99919289D01*
X178293755Y-99708585D01*
X178385684Y-99480172D01*
X178385686Y-99480165D01*
X178439782Y-99239968D01*
X178439784Y-99239958D01*
X178449999Y-99095268D01*
X178450000Y-99095266D01*
X178450000Y-98250000D01*
X177227231Y-98250000D01*
X177250000Y-98106247D01*
X177250000Y-97893753D01*
X177227231Y-97750000D01*
X178450000Y-97750000D01*
X178450000Y-96904734D01*
X178449999Y-96904731D01*
X178439784Y-96760041D01*
X178439782Y-96760031D01*
X178385686Y-96519834D01*
X178385684Y-96519827D01*
X178293755Y-96291414D01*
X178166379Y-96080710D01*
X178166372Y-96080700D01*
X178006846Y-95893153D01*
X177819299Y-95733627D01*
X177819289Y-95733620D01*
X177608585Y-95606244D01*
X177380172Y-95514315D01*
X177380165Y-95514313D01*
X177139968Y-95460217D01*
X177139958Y-95460215D01*
X176995268Y-95450000D01*
X176150000Y-95450000D01*
X176150000Y-96672768D01*
X176006247Y-96650000D01*
X175793753Y-96650000D01*
X175650000Y-96672768D01*
X175650000Y-95450000D01*
X174804731Y-95450000D01*
X174660041Y-95460215D01*
X174660031Y-95460217D01*
X174419834Y-95514313D01*
X174419827Y-95514315D01*
X174191414Y-95606244D01*
X173980710Y-95733620D01*
X173980700Y-95733627D01*
X173793153Y-95893153D01*
X173633627Y-96080700D01*
X173633620Y-96080710D01*
X173506244Y-96291414D01*
X173414315Y-96519827D01*
X173414313Y-96519834D01*
X173360217Y-96760031D01*
X173360215Y-96760041D01*
X173350000Y-96904731D01*
X173350000Y-97750000D01*
X174572769Y-97750000D01*
X174550000Y-97893753D01*
X174550000Y-98106247D01*
X174572769Y-98250000D01*
X173350000Y-98250000D01*
X173350000Y-99095268D01*
X173360215Y-99239958D01*
X173360217Y-99239968D01*
X173414313Y-99480165D01*
X173414315Y-99480172D01*
X173506244Y-99708585D01*
X173633620Y-99919289D01*
X173633627Y-99919299D01*
X173793153Y-100106846D01*
X173980700Y-100266372D01*
X173980709Y-100266379D01*
X173986507Y-100269884D01*
X174033693Y-100321413D01*
X174045531Y-100390272D01*
X174018261Y-100454601D01*
X173960541Y-100493974D01*
X173922355Y-100500000D01*
X169929664Y-100500000D01*
X169862625Y-100480315D01*
X169816870Y-100427511D01*
X169806926Y-100358353D01*
X169835951Y-100294797D01*
X169869927Y-100267338D01*
X170069321Y-100157720D01*
X170069322Y-100157719D01*
X170069328Y-100157716D01*
X170328964Y-99969080D01*
X170562911Y-99749390D01*
X170767478Y-99502110D01*
X170939439Y-99231142D01*
X171076084Y-98940758D01*
X171175256Y-98635538D01*
X171235392Y-98320294D01*
X171235393Y-98320283D01*
X171255543Y-98000005D01*
X171255543Y-97999994D01*
X171235393Y-97679716D01*
X171235392Y-97679709D01*
X171235392Y-97679706D01*
X171175256Y-97364462D01*
X171076084Y-97059242D01*
X171073963Y-97054734D01*
X170939441Y-96768861D01*
X170939437Y-96768855D01*
X170933843Y-96760041D01*
X170767478Y-96497890D01*
X170767477Y-96497888D01*
X170562912Y-96250611D01*
X170381975Y-96080700D01*
X170328964Y-96030920D01*
X170328961Y-96030918D01*
X170328955Y-96030913D01*
X170069339Y-95842291D01*
X170069321Y-95842280D01*
X169788096Y-95687675D01*
X169788093Y-95687674D01*
X169489703Y-95569533D01*
X169489706Y-95569533D01*
X169178864Y-95489723D01*
X169178851Y-95489721D01*
X168860475Y-95449500D01*
X168860464Y-95449500D01*
X168539536Y-95449500D01*
X168539524Y-95449500D01*
X168221148Y-95489721D01*
X168221135Y-95489723D01*
X167910294Y-95569533D01*
X167611906Y-95687674D01*
X167611903Y-95687675D01*
X167330678Y-95842280D01*
X167330660Y-95842291D01*
X167071044Y-96030913D01*
X167071034Y-96030921D01*
X166837087Y-96250611D01*
X166632522Y-96497888D01*
X166632520Y-96497891D01*
X166460562Y-96768855D01*
X166460558Y-96768861D01*
X166323918Y-97059235D01*
X166323916Y-97059240D01*
X166224745Y-97364457D01*
X166164607Y-97679709D01*
X166164606Y-97679716D01*
X166144457Y-97999994D01*
X166144457Y-98000005D01*
X166164606Y-98320283D01*
X166164607Y-98320290D01*
X166164608Y-98320294D01*
X166224417Y-98633826D01*
X166224745Y-98635542D01*
X166323916Y-98940759D01*
X166323918Y-98940764D01*
X166460558Y-99231138D01*
X166460562Y-99231144D01*
X166632520Y-99502108D01*
X166632522Y-99502111D01*
X166756612Y-99652110D01*
X166837089Y-99749390D01*
X167018025Y-99919299D01*
X167071034Y-99969078D01*
X167071044Y-99969086D01*
X167330660Y-100157708D01*
X167330678Y-100157720D01*
X167530073Y-100267338D01*
X167579337Y-100316884D01*
X167593994Y-100385199D01*
X167569390Y-100450594D01*
X167513338Y-100492305D01*
X167470336Y-100500000D01*
X160327645Y-100500000D01*
X160260606Y-100480315D01*
X160214851Y-100427511D01*
X160204907Y-100358353D01*
X160233932Y-100294797D01*
X160263493Y-100269884D01*
X160269290Y-100266379D01*
X160269299Y-100266372D01*
X160456846Y-100106846D01*
X160616372Y-99919299D01*
X160616379Y-99919289D01*
X160743755Y-99708585D01*
X160835684Y-99480172D01*
X160835686Y-99480165D01*
X160889782Y-99239968D01*
X160889784Y-99239958D01*
X160899999Y-99095268D01*
X160900000Y-99095266D01*
X160900000Y-98250000D01*
X159677231Y-98250000D01*
X159700000Y-98106247D01*
X159700000Y-97893753D01*
X159677231Y-97750000D01*
X160900000Y-97750000D01*
X160900000Y-96904734D01*
X160899999Y-96904731D01*
X160889784Y-96760041D01*
X160889782Y-96760031D01*
X160835686Y-96519834D01*
X160835684Y-96519827D01*
X160743755Y-96291414D01*
X160616379Y-96080710D01*
X160616372Y-96080700D01*
X160456846Y-95893153D01*
X160269299Y-95733627D01*
X160269289Y-95733620D01*
X160058585Y-95606244D01*
X159830172Y-95514315D01*
X159830165Y-95514313D01*
X159589968Y-95460217D01*
X159589958Y-95460215D01*
X159445268Y-95450000D01*
X158600000Y-95450000D01*
X158600000Y-96672768D01*
X158456247Y-96650000D01*
X158243753Y-96650000D01*
X158100000Y-96672768D01*
X158100000Y-95450000D01*
X157254731Y-95450000D01*
X157110041Y-95460215D01*
X157110031Y-95460217D01*
X156869834Y-95514313D01*
X156869827Y-95514315D01*
X156641414Y-95606244D01*
X156430710Y-95733620D01*
X156430700Y-95733627D01*
X156243153Y-95893153D01*
X156083627Y-96080700D01*
X156083620Y-96080710D01*
X155956244Y-96291414D01*
X155864315Y-96519827D01*
X155864313Y-96519834D01*
X155810217Y-96760031D01*
X155810215Y-96760041D01*
X155800000Y-96904731D01*
X155800000Y-97750000D01*
X157022769Y-97750000D01*
X157000000Y-97893753D01*
X157000000Y-98106247D01*
X157022769Y-98250000D01*
X155800000Y-98250000D01*
X155800000Y-99095268D01*
X155810215Y-99239958D01*
X155810217Y-99239968D01*
X155864313Y-99480165D01*
X155864315Y-99480172D01*
X155956244Y-99708585D01*
X156083620Y-99919289D01*
X156083627Y-99919299D01*
X156243153Y-100106846D01*
X156430700Y-100266372D01*
X156430709Y-100266379D01*
X156436507Y-100269884D01*
X156483693Y-100321413D01*
X156495531Y-100390272D01*
X156468261Y-100454601D01*
X156410541Y-100493974D01*
X156372355Y-100500000D01*
X152379664Y-100500000D01*
X152312625Y-100480315D01*
X152266870Y-100427511D01*
X152256926Y-100358353D01*
X152285951Y-100294797D01*
X152319927Y-100267338D01*
X152519321Y-100157720D01*
X152519322Y-100157719D01*
X152519328Y-100157716D01*
X152778964Y-99969080D01*
X153012911Y-99749390D01*
X153217478Y-99502110D01*
X153389439Y-99231142D01*
X153526084Y-98940758D01*
X153625256Y-98635538D01*
X153685392Y-98320294D01*
X153685393Y-98320283D01*
X153705543Y-98000005D01*
X153705543Y-97999994D01*
X153685393Y-97679716D01*
X153685392Y-97679709D01*
X153685392Y-97679706D01*
X153625256Y-97364462D01*
X153526084Y-97059242D01*
X153523963Y-97054734D01*
X153389441Y-96768861D01*
X153389437Y-96768855D01*
X153383843Y-96760041D01*
X153217478Y-96497890D01*
X153217477Y-96497888D01*
X153012912Y-96250611D01*
X152831975Y-96080700D01*
X152778964Y-96030920D01*
X152778961Y-96030918D01*
X152778955Y-96030913D01*
X152519339Y-95842291D01*
X152519321Y-95842280D01*
X152238096Y-95687675D01*
X152238093Y-95687674D01*
X151939703Y-95569533D01*
X151939706Y-95569533D01*
X151628864Y-95489723D01*
X151628851Y-95489721D01*
X151310475Y-95449500D01*
X151310464Y-95449500D01*
X150989536Y-95449500D01*
X150989524Y-95449500D01*
X150671148Y-95489721D01*
X150671135Y-95489723D01*
X150360294Y-95569533D01*
X150061906Y-95687674D01*
X150061903Y-95687675D01*
X149780678Y-95842280D01*
X149780660Y-95842291D01*
X149521044Y-96030913D01*
X149521034Y-96030921D01*
X149287087Y-96250611D01*
X149082522Y-96497888D01*
X149082520Y-96497891D01*
X148910562Y-96768855D01*
X148910558Y-96768861D01*
X148773918Y-97059235D01*
X148773916Y-97059240D01*
X148674745Y-97364457D01*
X148614607Y-97679709D01*
X148614606Y-97679716D01*
X148594457Y-97999994D01*
X148594457Y-98000005D01*
X148614606Y-98320283D01*
X148614607Y-98320290D01*
X148614608Y-98320294D01*
X148674417Y-98633826D01*
X148674745Y-98635542D01*
X148773916Y-98940759D01*
X148773918Y-98940764D01*
X148910558Y-99231138D01*
X148910562Y-99231144D01*
X149082520Y-99502108D01*
X149082522Y-99502111D01*
X149206612Y-99652110D01*
X149287089Y-99749390D01*
X149468025Y-99919299D01*
X149521034Y-99969078D01*
X149521044Y-99969086D01*
X149780660Y-100157708D01*
X149780678Y-100157720D01*
X149980073Y-100267338D01*
X150029337Y-100316884D01*
X150043994Y-100385199D01*
X150019390Y-100450594D01*
X149963338Y-100492305D01*
X149920336Y-100500000D01*
X142777645Y-100500000D01*
X142710606Y-100480315D01*
X142664851Y-100427511D01*
X142654907Y-100358353D01*
X142683932Y-100294797D01*
X142713493Y-100269884D01*
X142719290Y-100266379D01*
X142719299Y-100266372D01*
X142906846Y-100106846D01*
X143066372Y-99919299D01*
X143066379Y-99919289D01*
X143193755Y-99708585D01*
X143285684Y-99480172D01*
X143285686Y-99480165D01*
X143339782Y-99239968D01*
X143339784Y-99239958D01*
X143349999Y-99095268D01*
X143350000Y-99095266D01*
X143350000Y-98250000D01*
X142127231Y-98250000D01*
X142150000Y-98106247D01*
X142150000Y-97893753D01*
X142127231Y-97750000D01*
X143350000Y-97750000D01*
X143350000Y-96904734D01*
X143349999Y-96904731D01*
X143339784Y-96760041D01*
X143339782Y-96760031D01*
X143285686Y-96519834D01*
X143285684Y-96519827D01*
X143193755Y-96291414D01*
X143066379Y-96080710D01*
X143066372Y-96080700D01*
X142906846Y-95893153D01*
X142719299Y-95733627D01*
X142719289Y-95733620D01*
X142508585Y-95606244D01*
X142280172Y-95514315D01*
X142280165Y-95514313D01*
X142039968Y-95460217D01*
X142039958Y-95460215D01*
X141895268Y-95450000D01*
X141050000Y-95450000D01*
X141050000Y-96672768D01*
X140906247Y-96650000D01*
X140693753Y-96650000D01*
X140550000Y-96672768D01*
X140550000Y-95450000D01*
X139704731Y-95450000D01*
X139560041Y-95460215D01*
X139560031Y-95460217D01*
X139319834Y-95514313D01*
X139319827Y-95514315D01*
X139091414Y-95606244D01*
X138880710Y-95733620D01*
X138880700Y-95733627D01*
X138693153Y-95893153D01*
X138533627Y-96080700D01*
X138533620Y-96080710D01*
X138406244Y-96291414D01*
X138314315Y-96519827D01*
X138314313Y-96519834D01*
X138260217Y-96760031D01*
X138260215Y-96760041D01*
X138250000Y-96904731D01*
X138250000Y-97750000D01*
X139472769Y-97750000D01*
X139450000Y-97893753D01*
X139450000Y-98106247D01*
X139472769Y-98250000D01*
X138250000Y-98250000D01*
X138250000Y-99095268D01*
X138260215Y-99239958D01*
X138260217Y-99239968D01*
X138314313Y-99480165D01*
X138314315Y-99480172D01*
X138406244Y-99708585D01*
X138533620Y-99919289D01*
X138533627Y-99919299D01*
X138693153Y-100106846D01*
X138880700Y-100266372D01*
X138880709Y-100266379D01*
X138886507Y-100269884D01*
X138933693Y-100321413D01*
X138945531Y-100390272D01*
X138918261Y-100454601D01*
X138860541Y-100493974D01*
X138822355Y-100500000D01*
X134829664Y-100500000D01*
X134762625Y-100480315D01*
X134716870Y-100427511D01*
X134706926Y-100358353D01*
X134735951Y-100294797D01*
X134769927Y-100267338D01*
X134969321Y-100157720D01*
X134969322Y-100157719D01*
X134969328Y-100157716D01*
X135228964Y-99969080D01*
X135462911Y-99749390D01*
X135667478Y-99502110D01*
X135839439Y-99231142D01*
X135976084Y-98940758D01*
X136075256Y-98635538D01*
X136135392Y-98320294D01*
X136135393Y-98320283D01*
X136155543Y-98000005D01*
X136155543Y-97999994D01*
X136135393Y-97679716D01*
X136135392Y-97679709D01*
X136135392Y-97679706D01*
X136075256Y-97364462D01*
X135976084Y-97059242D01*
X135973963Y-97054734D01*
X135839441Y-96768861D01*
X135839437Y-96768855D01*
X135833843Y-96760041D01*
X135667478Y-96497890D01*
X135667477Y-96497888D01*
X135462912Y-96250611D01*
X135281975Y-96080700D01*
X135228964Y-96030920D01*
X135228961Y-96030918D01*
X135228955Y-96030913D01*
X134969339Y-95842291D01*
X134969321Y-95842280D01*
X134688096Y-95687675D01*
X134688093Y-95687674D01*
X134389703Y-95569533D01*
X134389706Y-95569533D01*
X134078864Y-95489723D01*
X134078851Y-95489721D01*
X133760475Y-95449500D01*
X133760464Y-95449500D01*
X133439536Y-95449500D01*
X133439524Y-95449500D01*
X133121148Y-95489721D01*
X133121135Y-95489723D01*
X132810294Y-95569533D01*
X132511906Y-95687674D01*
X132511903Y-95687675D01*
X132230678Y-95842280D01*
X132230660Y-95842291D01*
X131971044Y-96030913D01*
X131971034Y-96030921D01*
X131737087Y-96250611D01*
X131532522Y-96497888D01*
X131532520Y-96497891D01*
X131360562Y-96768855D01*
X131360558Y-96768861D01*
X131223918Y-97059235D01*
X131223916Y-97059240D01*
X131124745Y-97364457D01*
X131064607Y-97679709D01*
X131064606Y-97679716D01*
X131044457Y-97999994D01*
X131044457Y-98000005D01*
X131064606Y-98320283D01*
X131064607Y-98320290D01*
X131064608Y-98320294D01*
X131124417Y-98633826D01*
X131124745Y-98635542D01*
X131223916Y-98940759D01*
X131223918Y-98940764D01*
X131360558Y-99231138D01*
X131360562Y-99231144D01*
X131532520Y-99502108D01*
X131532522Y-99502111D01*
X131656612Y-99652110D01*
X131737089Y-99749390D01*
X131918025Y-99919299D01*
X131971034Y-99969078D01*
X131971044Y-99969086D01*
X132230660Y-100157708D01*
X132230678Y-100157720D01*
X132430073Y-100267338D01*
X132479337Y-100316884D01*
X132493994Y-100385199D01*
X132469390Y-100450594D01*
X132413338Y-100492305D01*
X132370336Y-100500000D01*
X125708148Y-100500000D01*
X125641109Y-100480315D01*
X125595354Y-100427511D01*
X125585410Y-100358353D01*
X125614435Y-100294797D01*
X125627806Y-100281548D01*
X125656845Y-100256846D01*
X125816372Y-100069299D01*
X125816379Y-100069289D01*
X125943755Y-99858585D01*
X126035684Y-99630172D01*
X126035686Y-99630165D01*
X126089782Y-99389968D01*
X126089784Y-99389958D01*
X126099999Y-99245268D01*
X126100000Y-99245266D01*
X126100000Y-98400000D01*
X124877231Y-98400000D01*
X124900000Y-98256247D01*
X124900000Y-98043753D01*
X124877231Y-97900000D01*
X126100000Y-97900000D01*
X126100000Y-97054734D01*
X126099999Y-97054731D01*
X126089784Y-96910041D01*
X126089782Y-96910031D01*
X126035686Y-96669834D01*
X126035684Y-96669827D01*
X125943755Y-96441414D01*
X125816379Y-96230710D01*
X125816372Y-96230700D01*
X125656846Y-96043153D01*
X125469299Y-95883627D01*
X125469289Y-95883620D01*
X125258585Y-95756244D01*
X125030172Y-95664315D01*
X125030165Y-95664313D01*
X124789968Y-95610217D01*
X124789958Y-95610215D01*
X124645268Y-95600000D01*
X123800000Y-95600000D01*
X123800000Y-96822768D01*
X123656247Y-96800000D01*
X123443753Y-96800000D01*
X123300000Y-96822768D01*
X123300000Y-95600000D01*
X122454731Y-95600000D01*
X122310041Y-95610215D01*
X122310031Y-95610217D01*
X122069834Y-95664313D01*
X122069827Y-95664315D01*
X121841414Y-95756244D01*
X121630710Y-95883620D01*
X121630700Y-95883627D01*
X121443153Y-96043153D01*
X121283627Y-96230700D01*
X121283620Y-96230710D01*
X121156244Y-96441414D01*
X121064315Y-96669827D01*
X121064313Y-96669834D01*
X121010217Y-96910031D01*
X121010215Y-96910041D01*
X121000000Y-97054731D01*
X121000000Y-97900000D01*
X122222769Y-97900000D01*
X122200000Y-98043753D01*
X122200000Y-98256247D01*
X122222769Y-98400000D01*
X121000000Y-98400000D01*
X121000000Y-99245268D01*
X121010215Y-99389958D01*
X121010217Y-99389968D01*
X121064313Y-99630165D01*
X121064315Y-99630172D01*
X121156244Y-99858585D01*
X121283620Y-100069289D01*
X121283627Y-100069299D01*
X121443154Y-100256846D01*
X121472194Y-100281548D01*
X121510504Y-100339978D01*
X121511144Y-100409844D01*
X121473909Y-100468966D01*
X121410622Y-100498571D01*
X121391852Y-100500000D01*
X117836305Y-100500000D01*
X117769266Y-100480315D01*
X117723511Y-100427511D01*
X117713567Y-100358353D01*
X117742592Y-100294797D01*
X117763420Y-100275682D01*
X117925797Y-100157708D01*
X117978964Y-100119080D01*
X118212911Y-99899390D01*
X118417478Y-99652110D01*
X118589439Y-99381142D01*
X118726084Y-99090758D01*
X118825256Y-98785538D01*
X118885392Y-98470294D01*
X118885393Y-98470283D01*
X118905543Y-98150005D01*
X118905543Y-98149994D01*
X118885393Y-97829716D01*
X118885392Y-97829709D01*
X118885392Y-97829706D01*
X118825256Y-97514462D01*
X118726084Y-97209242D01*
X118655499Y-97059242D01*
X118589441Y-96918861D01*
X118589437Y-96918855D01*
X118583843Y-96910041D01*
X118494248Y-96768861D01*
X118417479Y-96647891D01*
X118417477Y-96647888D01*
X118212912Y-96400611D01*
X118031975Y-96230700D01*
X117978964Y-96180920D01*
X117978961Y-96180918D01*
X117978955Y-96180913D01*
X117719339Y-95992291D01*
X117719321Y-95992280D01*
X117438096Y-95837675D01*
X117438093Y-95837674D01*
X117232424Y-95756244D01*
X117139706Y-95719534D01*
X117139704Y-95719533D01*
X117139706Y-95719533D01*
X116828864Y-95639723D01*
X116828851Y-95639721D01*
X116510475Y-95599500D01*
X116510464Y-95599500D01*
X116189536Y-95599500D01*
X116189524Y-95599500D01*
X115871148Y-95639721D01*
X115871135Y-95639723D01*
X115560294Y-95719533D01*
X115261906Y-95837674D01*
X115261903Y-95837675D01*
X114980678Y-95992280D01*
X114980660Y-95992291D01*
X114721044Y-96180913D01*
X114721034Y-96180921D01*
X114487087Y-96400611D01*
X114282522Y-96647888D01*
X114282520Y-96647891D01*
X114110562Y-96918855D01*
X114110558Y-96918861D01*
X113973918Y-97209235D01*
X113973916Y-97209240D01*
X113874745Y-97514457D01*
X113814607Y-97829709D01*
X113814606Y-97829716D01*
X113794457Y-98149994D01*
X113794457Y-98150005D01*
X113814606Y-98470283D01*
X113814607Y-98470290D01*
X113874745Y-98785542D01*
X113973916Y-99090759D01*
X113973918Y-99090764D01*
X114110558Y-99381138D01*
X114110562Y-99381144D01*
X114282520Y-99652108D01*
X114282522Y-99652111D01*
X114453332Y-99858585D01*
X114487089Y-99899390D01*
X114668025Y-100069299D01*
X114721034Y-100119078D01*
X114721044Y-100119086D01*
X114936580Y-100275682D01*
X114979246Y-100331012D01*
X114985225Y-100400625D01*
X114952620Y-100462420D01*
X114891781Y-100496777D01*
X114863695Y-100500000D01*
X108158148Y-100500000D01*
X108091109Y-100480315D01*
X108045354Y-100427511D01*
X108035410Y-100358353D01*
X108064435Y-100294797D01*
X108077806Y-100281548D01*
X108106845Y-100256846D01*
X108266372Y-100069299D01*
X108266379Y-100069289D01*
X108393755Y-99858585D01*
X108485684Y-99630172D01*
X108485686Y-99630165D01*
X108539782Y-99389968D01*
X108539784Y-99389958D01*
X108549999Y-99245268D01*
X108550000Y-99245266D01*
X108550000Y-98400000D01*
X107327231Y-98400000D01*
X107350000Y-98256247D01*
X107350000Y-98043753D01*
X107327231Y-97900000D01*
X108550000Y-97900000D01*
X108550000Y-97054734D01*
X108549999Y-97054731D01*
X108539784Y-96910041D01*
X108539782Y-96910031D01*
X108485686Y-96669834D01*
X108485684Y-96669827D01*
X108393755Y-96441414D01*
X108266379Y-96230710D01*
X108266372Y-96230700D01*
X108106846Y-96043153D01*
X107919299Y-95883627D01*
X107919289Y-95883620D01*
X107708585Y-95756244D01*
X107480172Y-95664315D01*
X107480165Y-95664313D01*
X107239968Y-95610217D01*
X107239958Y-95610215D01*
X107095268Y-95600000D01*
X106250000Y-95600000D01*
X106250000Y-96822768D01*
X106106247Y-96800000D01*
X105893753Y-96800000D01*
X105750000Y-96822768D01*
X105750000Y-95600000D01*
X104904731Y-95600000D01*
X104760041Y-95610215D01*
X104760031Y-95610217D01*
X104519834Y-95664313D01*
X104519827Y-95664315D01*
X104291414Y-95756244D01*
X104080710Y-95883620D01*
X104080700Y-95883627D01*
X103893153Y-96043153D01*
X103733627Y-96230700D01*
X103733620Y-96230710D01*
X103606244Y-96441414D01*
X103514315Y-96669827D01*
X103514313Y-96669834D01*
X103460217Y-96910031D01*
X103460215Y-96910041D01*
X103450000Y-97054731D01*
X103450000Y-97900000D01*
X104672769Y-97900000D01*
X104650000Y-98043753D01*
X104650000Y-98256247D01*
X104672769Y-98400000D01*
X103450000Y-98400000D01*
X103450000Y-99245268D01*
X103460215Y-99389958D01*
X103460217Y-99389968D01*
X103514313Y-99630165D01*
X103514315Y-99630172D01*
X103606244Y-99858585D01*
X103733620Y-100069289D01*
X103733627Y-100069299D01*
X103893154Y-100256846D01*
X103922194Y-100281548D01*
X103960504Y-100339978D01*
X103961144Y-100409844D01*
X103923909Y-100468966D01*
X103860622Y-100498571D01*
X103841852Y-100500000D01*
X100286305Y-100500000D01*
X100219266Y-100480315D01*
X100173511Y-100427511D01*
X100163567Y-100358353D01*
X100192592Y-100294797D01*
X100213420Y-100275682D01*
X100375797Y-100157708D01*
X100428964Y-100119080D01*
X100662911Y-99899390D01*
X100867478Y-99652110D01*
X101039439Y-99381142D01*
X101176084Y-99090758D01*
X101275256Y-98785538D01*
X101335392Y-98470294D01*
X101335393Y-98470283D01*
X101355543Y-98150005D01*
X101355543Y-98149994D01*
X101335393Y-97829716D01*
X101335392Y-97829709D01*
X101335392Y-97829706D01*
X101275256Y-97514462D01*
X101176084Y-97209242D01*
X101105499Y-97059242D01*
X101039441Y-96918861D01*
X101039437Y-96918855D01*
X101033843Y-96910041D01*
X100944248Y-96768861D01*
X100867479Y-96647891D01*
X100867477Y-96647888D01*
X100662912Y-96400611D01*
X100481975Y-96230700D01*
X100428964Y-96180920D01*
X100428961Y-96180918D01*
X100428955Y-96180913D01*
X100169339Y-95992291D01*
X100169321Y-95992280D01*
X99888096Y-95837675D01*
X99888093Y-95837674D01*
X99682424Y-95756244D01*
X99589706Y-95719534D01*
X99589704Y-95719533D01*
X99589706Y-95719533D01*
X99278864Y-95639723D01*
X99278851Y-95639721D01*
X98960475Y-95599500D01*
X98960464Y-95599500D01*
X98639536Y-95599500D01*
X98639524Y-95599500D01*
X98321148Y-95639721D01*
X98321135Y-95639723D01*
X98010294Y-95719533D01*
X97711906Y-95837674D01*
X97711903Y-95837675D01*
X97430678Y-95992280D01*
X97430660Y-95992291D01*
X97171044Y-96180913D01*
X97171034Y-96180921D01*
X96937087Y-96400611D01*
X96732522Y-96647888D01*
X96732520Y-96647891D01*
X96560562Y-96918855D01*
X96560558Y-96918861D01*
X96423918Y-97209235D01*
X96423916Y-97209240D01*
X96324745Y-97514457D01*
X96264607Y-97829709D01*
X96264606Y-97829716D01*
X96244457Y-98149994D01*
X96244457Y-98150005D01*
X96264606Y-98470283D01*
X96264607Y-98470290D01*
X96324745Y-98785542D01*
X96423916Y-99090759D01*
X96423918Y-99090764D01*
X96560558Y-99381138D01*
X96560562Y-99381144D01*
X96732520Y-99652108D01*
X96732522Y-99652111D01*
X96903332Y-99858585D01*
X96937089Y-99899390D01*
X97118025Y-100069299D01*
X97171034Y-100119078D01*
X97171044Y-100119086D01*
X97386580Y-100275682D01*
X97429246Y-100331012D01*
X97435225Y-100400625D01*
X97402620Y-100462420D01*
X97341781Y-100496777D01*
X97313695Y-100500000D01*
X90608148Y-100500000D01*
X90541109Y-100480315D01*
X90495354Y-100427511D01*
X90485410Y-100358353D01*
X90514435Y-100294797D01*
X90527806Y-100281548D01*
X90556845Y-100256846D01*
X90716372Y-100069299D01*
X90716379Y-100069289D01*
X90843755Y-99858585D01*
X90935684Y-99630172D01*
X90935686Y-99630165D01*
X90989782Y-99389968D01*
X90989784Y-99389958D01*
X90999999Y-99245268D01*
X91000000Y-99245266D01*
X91000000Y-98400000D01*
X89777231Y-98400000D01*
X89800000Y-98256247D01*
X89800000Y-98043753D01*
X89777231Y-97900000D01*
X91000000Y-97900000D01*
X91000000Y-97054734D01*
X90999999Y-97054731D01*
X90989784Y-96910041D01*
X90989782Y-96910031D01*
X90935686Y-96669834D01*
X90935684Y-96669827D01*
X90843755Y-96441414D01*
X90716379Y-96230710D01*
X90716372Y-96230700D01*
X90556846Y-96043153D01*
X90369299Y-95883627D01*
X90369289Y-95883620D01*
X90158585Y-95756244D01*
X89930172Y-95664315D01*
X89930165Y-95664313D01*
X89689968Y-95610217D01*
X89689958Y-95610215D01*
X89545268Y-95600000D01*
X88700000Y-95600000D01*
X88700000Y-96822768D01*
X88556247Y-96800000D01*
X88343753Y-96800000D01*
X88200000Y-96822768D01*
X88200000Y-95600000D01*
X87354731Y-95600000D01*
X87210041Y-95610215D01*
X87210031Y-95610217D01*
X86969834Y-95664313D01*
X86969827Y-95664315D01*
X86741414Y-95756244D01*
X86530710Y-95883620D01*
X86530700Y-95883627D01*
X86343153Y-96043153D01*
X86183627Y-96230700D01*
X86183620Y-96230710D01*
X86056244Y-96441414D01*
X85964315Y-96669827D01*
X85964313Y-96669834D01*
X85910217Y-96910031D01*
X85910215Y-96910041D01*
X85900000Y-97054731D01*
X85900000Y-97900000D01*
X87122769Y-97900000D01*
X87100000Y-98043753D01*
X87100000Y-98256247D01*
X87122769Y-98400000D01*
X85900000Y-98400000D01*
X85900000Y-99245268D01*
X85910215Y-99389958D01*
X85910217Y-99389968D01*
X85964313Y-99630165D01*
X85964315Y-99630172D01*
X86056244Y-99858585D01*
X86183620Y-100069289D01*
X86183627Y-100069299D01*
X86343154Y-100256846D01*
X86372194Y-100281548D01*
X86410504Y-100339978D01*
X86411144Y-100409844D01*
X86373909Y-100468966D01*
X86310622Y-100498571D01*
X86291852Y-100500000D01*
X82736305Y-100500000D01*
X82669266Y-100480315D01*
X82623511Y-100427511D01*
X82613567Y-100358353D01*
X82642592Y-100294797D01*
X82663420Y-100275682D01*
X82825797Y-100157708D01*
X82878964Y-100119080D01*
X83112911Y-99899390D01*
X83317478Y-99652110D01*
X83489439Y-99381142D01*
X83626084Y-99090758D01*
X83725256Y-98785538D01*
X83785392Y-98470294D01*
X83785393Y-98470283D01*
X83805543Y-98150005D01*
X83805543Y-98149994D01*
X83785393Y-97829716D01*
X83785392Y-97829709D01*
X83785392Y-97829706D01*
X83725256Y-97514462D01*
X83626084Y-97209242D01*
X83555499Y-97059242D01*
X83489441Y-96918861D01*
X83489437Y-96918855D01*
X83483843Y-96910041D01*
X83394248Y-96768861D01*
X83317479Y-96647891D01*
X83317477Y-96647888D01*
X83112912Y-96400611D01*
X82931975Y-96230700D01*
X82878964Y-96180920D01*
X82878961Y-96180918D01*
X82878955Y-96180913D01*
X82619339Y-95992291D01*
X82619321Y-95992280D01*
X82338096Y-95837675D01*
X82338093Y-95837674D01*
X82132424Y-95756244D01*
X82039706Y-95719534D01*
X82039704Y-95719533D01*
X82039706Y-95719533D01*
X81728864Y-95639723D01*
X81728851Y-95639721D01*
X81410475Y-95599500D01*
X81410464Y-95599500D01*
X81089536Y-95599500D01*
X81089524Y-95599500D01*
X80771148Y-95639721D01*
X80771135Y-95639723D01*
X80460294Y-95719533D01*
X80161906Y-95837674D01*
X80161903Y-95837675D01*
X79880678Y-95992280D01*
X79880660Y-95992291D01*
X79621044Y-96180913D01*
X79621034Y-96180921D01*
X79387087Y-96400611D01*
X79182522Y-96647888D01*
X79182520Y-96647891D01*
X79010562Y-96918855D01*
X79010558Y-96918861D01*
X78873918Y-97209235D01*
X78873916Y-97209240D01*
X78823482Y-97364462D01*
X78774744Y-97514462D01*
X78745803Y-97666175D01*
X78713906Y-97728337D01*
X78653463Y-97763387D01*
X78583667Y-97760195D01*
X78526675Y-97719775D01*
X78500584Y-97654960D01*
X78500000Y-97642938D01*
X78500000Y-71894934D01*
X78519685Y-71827895D01*
X78572489Y-71782140D01*
X78641647Y-71772196D01*
X78705203Y-71801221D01*
X78730117Y-71830784D01*
X78783620Y-71919289D01*
X78783627Y-71919299D01*
X78943153Y-72106846D01*
X79130700Y-72266372D01*
X79130710Y-72266379D01*
X79341414Y-72393755D01*
X79569827Y-72485684D01*
X79569834Y-72485686D01*
X79810031Y-72539782D01*
X79810041Y-72539784D01*
X79954731Y-72549999D01*
X79954734Y-72550000D01*
X80800000Y-72550000D01*
X80800000Y-71327231D01*
X80943753Y-71350000D01*
X81156247Y-71350000D01*
X81300000Y-71327231D01*
X81300000Y-72550000D01*
X82145266Y-72550000D01*
X82145268Y-72549999D01*
X82289958Y-72539784D01*
X82289968Y-72539782D01*
X82530165Y-72485686D01*
X82530172Y-72485684D01*
X82758585Y-72393755D01*
X82969289Y-72266379D01*
X82969299Y-72266372D01*
X83156846Y-72106846D01*
X83316372Y-71919299D01*
X83316379Y-71919289D01*
X83443755Y-71708585D01*
X83535684Y-71480172D01*
X83535686Y-71480165D01*
X83589782Y-71239968D01*
X83589784Y-71239958D01*
X83599999Y-71095268D01*
X83600000Y-71095266D01*
X83600000Y-70250000D01*
X82377231Y-70250000D01*
X82400000Y-70106247D01*
X82400000Y-69893753D01*
X82377231Y-69750000D01*
X83600000Y-69750000D01*
X83600000Y-68904734D01*
X83599999Y-68904731D01*
X83589784Y-68760041D01*
X83589782Y-68760031D01*
X83535686Y-68519834D01*
X83535684Y-68519827D01*
X83443755Y-68291414D01*
X83316379Y-68080710D01*
X83316372Y-68080700D01*
X83156846Y-67893153D01*
X82969299Y-67733627D01*
X82969290Y-67733620D01*
X82963493Y-67730116D01*
X82916307Y-67678587D01*
X82904469Y-67609728D01*
X82931739Y-67545399D01*
X82989459Y-67506026D01*
X83027645Y-67500000D01*
X87020336Y-67500000D01*
X87087375Y-67519685D01*
G37*
%TD.AperFunction*%
%TD*%
M02*
