M48
; DRILL file {KiCad 8.0.6} date 2025-03-13T21:17:43-0400
; FORMAT={-:-/ absolute / metric / decimal}
; #@! TF.CreationDate,2025-03-13T21:17:43-04:00
; #@! TF.GenerationSoftware,Kicad,Pcbnew,8.0.6
; #@! TF.FileFunction,Plated,1,2,PTH
FMAT,2
METRIC
; #@! TA.AperFunction,Plated,PTH,ComponentDrill
T1C0.600
; #@! TA.AperFunction,Plated,PTH,ComponentDrill
T2C2.700
%
G90
G05
T2
X81.05Y-70.0
X81.25Y-98.15
X88.25Y-70.0
X88.45Y-98.15
X98.6Y-70.0
X98.8Y-98.15
X105.8Y-70.0
X106.0Y-98.15
X116.15Y-70.0
X116.35Y-98.15
X123.35Y-70.0
X123.55Y-98.15
X133.6Y-98.0
X133.7Y-70.0
X140.8Y-98.0
X140.9Y-70.0
X151.1Y-70.0
X151.15Y-98.0
X158.3Y-70.0
X158.35Y-98.0
X168.6Y-70.0
X168.7Y-98.0
X175.8Y-70.0
X175.9Y-98.0
X182.35Y-80.4
X182.35Y-87.6
T1
X77.9Y-63.45G85X77.9Y-64.55
G05
X78.1Y-104.7G85X78.1Y-103.6
G05
X91.4Y-63.45G85X91.4Y-64.55
G05
X91.6Y-104.7G85X91.6Y-103.6
G05
X95.45Y-63.45G85X95.45Y-64.55
G05
X95.65Y-104.7G85X95.65Y-103.6
G05
X108.95Y-63.45G85X108.95Y-64.55
G05
X109.15Y-104.7G85X109.15Y-103.6
G05
X113.0Y-63.45G85X113.0Y-64.55
G05
X113.2Y-104.7G85X113.2Y-103.6
G05
X126.5Y-63.45G85X126.5Y-64.55
G05
X126.7Y-104.7G85X126.7Y-103.6
G05
X130.45Y-104.55G85X130.45Y-103.45
G05
X130.55Y-63.45G85X130.55Y-64.55
G05
X143.95Y-104.55G85X143.95Y-103.45
G05
X144.05Y-63.45G85X144.05Y-64.55
G05
X147.95Y-63.45G85X147.95Y-64.55
G05
X148.0Y-104.55G85X148.0Y-103.45
G05
X161.45Y-63.45G85X161.45Y-64.55
G05
X161.5Y-104.55G85X161.5Y-103.45
G05
X165.45Y-63.45G85X165.45Y-64.55
G05
X165.55Y-104.55G85X165.55Y-103.45
G05
X178.95Y-63.45G85X178.95Y-64.55
G05
X179.05Y-104.55G85X179.05Y-103.45
G05
X188.9Y-77.25G85X187.8Y-77.25
G05
X188.9Y-90.75G85X187.8Y-90.75
G05
M30
