%TF.GenerationSoftware,KiCad,Pcbnew,8.0.6*%
%TF.CreationDate,2025-03-28T18:59:19-04:00*%
%TF.ProjectId,Electrical schematic,456c6563-7472-4696-9361-6c2073636865,rev?*%
%TF.SameCoordinates,Original*%
%TF.FileFunction,Paste,Top*%
%TF.FilePolarity,Positive*%
%FSLAX46Y46*%
G04 Gerber Fmt 4.6, Leading zero omitted, Abs format (unit mm)*
G04 Created by KiCad (PCBNEW 8.0.6) date 2025-03-28 18:59:19*
%MOMM*%
%LPD*%
G01*
G04 APERTURE LIST*
G04 Aperture macros list*
%AMRoundRect*
0 Rectangle with rounded corners*
0 $1 Rounding radius*
0 $2 $3 $4 $5 $6 $7 $8 $9 X,Y pos of 4 corners*
0 Add a 4 corners polygon primitive as box body*
4,1,4,$2,$3,$4,$5,$6,$7,$8,$9,$2,$3,0*
0 Add four circle primitives for the rounded corners*
1,1,$1+$1,$2,$3*
1,1,$1+$1,$4,$5*
1,1,$1+$1,$6,$7*
1,1,$1+$1,$8,$9*
0 Add four rect primitives between the rounded corners*
20,1,$1+$1,$2,$3,$4,$5,0*
20,1,$1+$1,$4,$5,$6,$7,0*
20,1,$1+$1,$6,$7,$8,$9,0*
20,1,$1+$1,$8,$9,$2,$3,0*%
G04 Aperture macros list end*
%ADD10C,0.000000*%
%ADD11R,2.997200X1.219200*%
%ADD12R,0.889000X2.489200*%
%ADD13R,2.489200X5.156200*%
%ADD14RoundRect,0.250000X0.350000X0.450000X-0.350000X0.450000X-0.350000X-0.450000X0.350000X-0.450000X0*%
%ADD15R,1.473200X0.558800*%
%ADD16R,2.667000X0.787400*%
%ADD17R,10.414000X10.414000*%
%ADD18R,1.752600X0.660400*%
%ADD19O,1.752600X0.660400*%
%ADD20R,0.457200X1.003300*%
%ADD21R,1.005599X1.199998*%
%ADD22R,1.295400X4.495800*%
%ADD23R,1.803400X3.911600*%
%ADD24RoundRect,0.250000X0.337500X0.475000X-0.337500X0.475000X-0.337500X-0.475000X0.337500X-0.475000X0*%
G04 APERTURE END LIST*
D10*
%TO.C,U2*%
G36*
X132106500Y-108646000D02*
G01*
X129893500Y-108646000D01*
X129893500Y-107195000D01*
X132106500Y-107195000D01*
X132106500Y-108646000D01*
G37*
G36*
X132106500Y-106995000D02*
G01*
X129893500Y-106995000D01*
X129893500Y-105544000D01*
X132106500Y-105544000D01*
X132106500Y-106995000D01*
G37*
%TD*%
D11*
%TO.C,C1*%
X150744100Y-88532400D03*
X156255900Y-88532400D03*
%TD*%
D12*
%TO.C,U5*%
X126517399Y-75770101D03*
X124517400Y-75770101D03*
X122517399Y-75770101D03*
X120517401Y-75770101D03*
D13*
X130767398Y-73576709D03*
X116267402Y-73576709D03*
%TD*%
D14*
%TO.C,R3*%
X124147450Y-99950001D03*
X122147450Y-99950001D03*
%TD*%
D15*
%TO.C,U3*%
X118500000Y-98500000D03*
X118500000Y-97549999D03*
X118500000Y-96599998D03*
X116264800Y-96599998D03*
X116264800Y-97549999D03*
X116264800Y-98500000D03*
%TD*%
D16*
%TO.C,U1*%
X144000000Y-100620000D03*
X144000000Y-99350000D03*
X144000000Y-98080000D03*
X144000000Y-96810000D03*
X144000000Y-95540000D03*
X144000000Y-94270000D03*
X144000000Y-93000000D03*
D17*
X135757700Y-96810000D03*
%TD*%
D14*
%TO.C,R4*%
X124147450Y-96000000D03*
X122147450Y-96000000D03*
%TD*%
D18*
%TO.C,U2*%
X134674999Y-109000000D03*
D19*
X134674999Y-107730000D03*
X134674999Y-106460000D03*
X134674999Y-105190000D03*
X127325001Y-105190000D03*
X127325001Y-106460000D03*
X127325001Y-107730000D03*
X127325001Y-109000000D03*
%TD*%
D20*
%TO.C,U4*%
X116549999Y-91352550D03*
X117500000Y-91352550D03*
X118450001Y-91352550D03*
X118450001Y-88647450D03*
X117500000Y-88647450D03*
X116549999Y-88647450D03*
%TD*%
D21*
%TO.C,R2*%
X143705598Y-89000000D03*
X142000000Y-89000000D03*
%TD*%
D22*
%TO.C,J1*%
X105250000Y-70549501D03*
X102750000Y-70549501D03*
X100250000Y-70549501D03*
X97750000Y-70549501D03*
D23*
X94550001Y-63759501D03*
X108449999Y-63759501D03*
%TD*%
D24*
%TO.C,C11*%
X119962500Y-103500000D03*
X122037500Y-103500000D03*
%TD*%
%TO.C,C10*%
X122037500Y-108500000D03*
X119962500Y-108500000D03*
%TD*%
D11*
%TO.C,C3*%
X150744100Y-105467600D03*
X156255900Y-105467600D03*
%TD*%
%TO.C,C2*%
X150744100Y-97000000D03*
X156255900Y-97000000D03*
%TD*%
D21*
%TO.C,R1*%
X142000000Y-86000000D03*
X143705598Y-86000000D03*
%TD*%
M02*
