%TF.GenerationSoftware,KiCad,Pcbnew,8.0.6*%
%TF.CreationDate,2025-05-08T15:48:47-04:00*%
%TF.ProjectId,PowerBoard2,506f7765-7242-46f6-9172-64322e6b6963,rev?*%
%TF.SameCoordinates,Original*%
%TF.FileFunction,Drillmap*%
%TF.FilePolarity,Positive*%
%FSLAX45Y45*%
G04 Gerber Fmt 4.5, Leading zero omitted, Abs format (unit mm)*
G04 Created by KiCad (PCBNEW 8.0.6) date 2025-05-08 15:48:47*
%MOMM*%
%LPD*%
G01*
G04 APERTURE LIST*
%ADD10C,0.200000*%
%ADD11C,0.100000*%
%ADD12C,0.129540*%
%ADD13C,0.270000*%
G04 APERTURE END LIST*
D10*
D11*
X12640000Y-7905000D02*
X12660000Y-7925000D01*
X12660000Y-7905000D02*
X12640000Y-7925000D01*
X12690000Y-7905000D02*
X12710000Y-7925000D01*
X12710000Y-7905000D02*
X12690000Y-7925000D01*
X12790000Y-7475000D02*
X12810000Y-7495000D01*
X12810000Y-7475000D02*
X12790000Y-7495000D01*
X12715000Y-8300000D02*
G75*
G02*
X12685000Y-8300000I-15000J0D01*
G01*
X12685000Y-8300000D02*
G75*
G02*
X12715000Y-8300000I15000J0D01*
G01*
X12715000Y-8500000D02*
G75*
G02*
X12685000Y-8500000I-15000J0D01*
G01*
X12685000Y-8500000D02*
G75*
G02*
X12715000Y-8500000I15000J0D01*
G01*
X12835000Y-8772500D02*
G75*
G02*
X12805000Y-8772500I-15000J0D01*
G01*
X12805000Y-8772500D02*
G75*
G02*
X12835000Y-8772500I15000J0D01*
G01*
X12965000Y-8300000D02*
G75*
G02*
X12935000Y-8300000I-15000J0D01*
G01*
X12935000Y-8300000D02*
G75*
G02*
X12965000Y-8300000I15000J0D01*
G01*
X13075000Y-7693750D02*
G75*
G02*
X13045000Y-7693750I-15000J0D01*
G01*
X13045000Y-7693750D02*
G75*
G02*
X13075000Y-7693750I15000J0D01*
G01*
X13095000Y-8770000D02*
G75*
G02*
X13065000Y-8770000I-15000J0D01*
G01*
X13065000Y-8770000D02*
G75*
G02*
X13095000Y-8770000I15000J0D01*
G01*
X13575000Y-6530000D02*
G75*
G02*
X13545000Y-6530000I-15000J0D01*
G01*
X13545000Y-6530000D02*
G75*
G02*
X13575000Y-6530000I15000J0D01*
G01*
X14091480Y-6655000D02*
G75*
G02*
X14061480Y-6655000I-15000J0D01*
G01*
X14061480Y-6655000D02*
G75*
G02*
X14091480Y-6655000I15000J0D01*
G01*
X14494440Y-6920000D02*
G75*
G02*
X14464440Y-6920000I-15000J0D01*
G01*
X14464440Y-6920000D02*
G75*
G02*
X14494440Y-6920000I15000J0D01*
G01*
X14494440Y-7620000D02*
G75*
G02*
X14464440Y-7620000I-15000J0D01*
G01*
X14464440Y-7620000D02*
G75*
G02*
X14494440Y-7620000I15000J0D01*
G01*
X14625000Y-6530000D02*
G75*
G02*
X14595000Y-6530000I-15000J0D01*
G01*
X14595000Y-6530000D02*
G75*
G02*
X14625000Y-6530000I15000J0D01*
G01*
X15151480Y-6655000D02*
G75*
G02*
X15121480Y-6655000I-15000J0D01*
G01*
X15121480Y-6655000D02*
G75*
G02*
X15151480Y-6655000I15000J0D01*
G01*
X15156280Y-7620000D02*
G75*
G02*
X15126280Y-7620000I-15000J0D01*
G01*
X15126280Y-7620000D02*
G75*
G02*
X15156280Y-7620000I15000J0D01*
G01*
X11577010Y-9545000D02*
X11577010Y-9605000D01*
X11547010Y-9575000D02*
X11607010Y-9575000D01*
X14696000Y-8405000D02*
X14696000Y-8465000D01*
X14666000Y-8435000D02*
X14726000Y-8435000D01*
X14696000Y-8515000D02*
X14696000Y-8575000D01*
X14666000Y-8545000D02*
X14726000Y-8545000D01*
X14696000Y-8635000D02*
X14696000Y-8695000D01*
X14666000Y-8665000D02*
X14726000Y-8665000D01*
X14696000Y-8765000D02*
X14696000Y-8825000D01*
X14666000Y-8795000D02*
X14726000Y-8795000D01*
X14696000Y-8885000D02*
X14696000Y-8945000D01*
X14666000Y-8915000D02*
X14726000Y-8915000D01*
X14696000Y-9015000D02*
X14696000Y-9075000D01*
X14666000Y-9045000D02*
X14726000Y-9045000D01*
X14696000Y-9135000D02*
X14696000Y-9195000D01*
X14666000Y-9165000D02*
X14726000Y-9165000D01*
X14696000Y-9265000D02*
X14696000Y-9325000D01*
X14666000Y-9295000D02*
X14726000Y-9295000D01*
X14836000Y-8405000D02*
X14836000Y-8465000D01*
X14806000Y-8435000D02*
X14866000Y-8435000D01*
X14836000Y-8515000D02*
X14836000Y-8575000D01*
X14806000Y-8545000D02*
X14866000Y-8545000D01*
X14836000Y-8635000D02*
X14836000Y-8695000D01*
X14806000Y-8665000D02*
X14866000Y-8665000D01*
X14836000Y-8765000D02*
X14836000Y-8825000D01*
X14806000Y-8795000D02*
X14866000Y-8795000D01*
X14836000Y-8885000D02*
X14836000Y-8945000D01*
X14806000Y-8915000D02*
X14866000Y-8915000D01*
X14836000Y-9015000D02*
X14836000Y-9075000D01*
X14806000Y-9045000D02*
X14866000Y-9045000D01*
X14836000Y-9135000D02*
X14836000Y-9195000D01*
X14806000Y-9165000D02*
X14866000Y-9165000D01*
X14836000Y-9265000D02*
X14836000Y-9325000D01*
X14806000Y-9295000D02*
X14866000Y-9295000D01*
X14976000Y-8405000D02*
X14976000Y-8465000D01*
X14946000Y-8435000D02*
X15006000Y-8435000D01*
X14976000Y-8515000D02*
X14976000Y-8575000D01*
X14946000Y-8545000D02*
X15006000Y-8545000D01*
X14976000Y-8635000D02*
X14976000Y-8695000D01*
X14946000Y-8665000D02*
X15006000Y-8665000D01*
X14976000Y-8765000D02*
X14976000Y-8825000D01*
X14946000Y-8795000D02*
X15006000Y-8795000D01*
X14976000Y-8885000D02*
X14976000Y-8945000D01*
X14946000Y-8915000D02*
X15006000Y-8915000D01*
X14976000Y-9015000D02*
X14976000Y-9075000D01*
X14946000Y-9045000D02*
X15006000Y-9045000D01*
X14976000Y-9135000D02*
X14976000Y-9195000D01*
X14946000Y-9165000D02*
X15006000Y-9165000D01*
X14976000Y-9265000D02*
X14976000Y-9325000D01*
X14946000Y-9295000D02*
X15006000Y-9295000D01*
X15086000Y-8000770D02*
X15086000Y-8060770D01*
X15056000Y-8030770D02*
X15116000Y-8030770D01*
X15106000Y-8405000D02*
X15106000Y-8465000D01*
X15076000Y-8435000D02*
X15136000Y-8435000D01*
X15106000Y-8515000D02*
X15106000Y-8575000D01*
X15076000Y-8545000D02*
X15136000Y-8545000D01*
X15106000Y-8635000D02*
X15106000Y-8695000D01*
X15076000Y-8665000D02*
X15136000Y-8665000D01*
X15106000Y-8765000D02*
X15106000Y-8825000D01*
X15076000Y-8795000D02*
X15136000Y-8795000D01*
X15106000Y-8885000D02*
X15106000Y-8945000D01*
X15076000Y-8915000D02*
X15136000Y-8915000D01*
X15106000Y-9015000D02*
X15106000Y-9075000D01*
X15076000Y-9045000D02*
X15136000Y-9045000D01*
X15106000Y-9135000D02*
X15106000Y-9195000D01*
X15076000Y-9165000D02*
X15136000Y-9165000D01*
X15106000Y-9265000D02*
X15106000Y-9325000D01*
X15076000Y-9295000D02*
X15136000Y-9295000D01*
X15236000Y-8405000D02*
X15236000Y-8465000D01*
X15206000Y-8435000D02*
X15266000Y-8435000D01*
X15236000Y-8515000D02*
X15236000Y-8575000D01*
X15206000Y-8545000D02*
X15266000Y-8545000D01*
X15236000Y-8635000D02*
X15236000Y-8695000D01*
X15206000Y-8665000D02*
X15266000Y-8665000D01*
X15236000Y-8765000D02*
X15236000Y-8825000D01*
X15206000Y-8795000D02*
X15266000Y-8795000D01*
X15236000Y-8885000D02*
X15236000Y-8945000D01*
X15206000Y-8915000D02*
X15266000Y-8915000D01*
X15236000Y-9015000D02*
X15236000Y-9075000D01*
X15206000Y-9045000D02*
X15266000Y-9045000D01*
X15236000Y-9135000D02*
X15236000Y-9195000D01*
X15206000Y-9165000D02*
X15266000Y-9165000D01*
X15236000Y-9265000D02*
X15236000Y-9325000D01*
X15206000Y-9295000D02*
X15266000Y-9295000D01*
X15340000Y-8000770D02*
X15340000Y-8060770D01*
X15310000Y-8030770D02*
X15370000Y-8030770D01*
X15366000Y-8405000D02*
X15366000Y-8465000D01*
X15336000Y-8435000D02*
X15396000Y-8435000D01*
X15366000Y-8515000D02*
X15366000Y-8575000D01*
X15336000Y-8545000D02*
X15396000Y-8545000D01*
X15366000Y-8635000D02*
X15366000Y-8695000D01*
X15336000Y-8665000D02*
X15396000Y-8665000D01*
X15366000Y-8765000D02*
X15366000Y-8825000D01*
X15336000Y-8795000D02*
X15396000Y-8795000D01*
X15366000Y-8885000D02*
X15366000Y-8945000D01*
X15336000Y-8915000D02*
X15396000Y-8915000D01*
X15366000Y-9015000D02*
X15366000Y-9075000D01*
X15336000Y-9045000D02*
X15396000Y-9045000D01*
X15366000Y-9135000D02*
X15366000Y-9195000D01*
X15336000Y-9165000D02*
X15396000Y-9165000D01*
X15366000Y-9265000D02*
X15366000Y-9325000D01*
X15336000Y-9295000D02*
X15396000Y-9295000D01*
X15496000Y-8405000D02*
X15496000Y-8465000D01*
X15466000Y-8435000D02*
X15526000Y-8435000D01*
X15496000Y-8515000D02*
X15496000Y-8575000D01*
X15466000Y-8545000D02*
X15526000Y-8545000D01*
X15496000Y-8635000D02*
X15496000Y-8695000D01*
X15466000Y-8665000D02*
X15526000Y-8665000D01*
X15496000Y-8765000D02*
X15496000Y-8825000D01*
X15466000Y-8795000D02*
X15526000Y-8795000D01*
X15496000Y-8885000D02*
X15496000Y-8945000D01*
X15466000Y-8915000D02*
X15526000Y-8915000D01*
X15496000Y-9015000D02*
X15496000Y-9075000D01*
X15466000Y-9045000D02*
X15526000Y-9045000D01*
X15496000Y-9135000D02*
X15496000Y-9195000D01*
X15466000Y-9165000D02*
X15526000Y-9165000D01*
X15496000Y-9265000D02*
X15496000Y-9325000D01*
X15466000Y-9295000D02*
X15526000Y-9295000D01*
X11276213Y-6826213D02*
X11276213Y-6783787D01*
X11233787Y-6783787D01*
X11233787Y-6826213D01*
X11276213Y-6826213D01*
X11200000Y-6835000D02*
X11310000Y-6835000D01*
X11310000Y-6775000D02*
G75*
G02*
X11310000Y-6835000I0J-30000D01*
G01*
X11310000Y-6775000D02*
X11200000Y-6775000D01*
X11200000Y-6775000D02*
G75*
G03*
X11200000Y-6835000I0J-30000D01*
G01*
X11276213Y-8176213D02*
X11276213Y-8133787D01*
X11233787Y-8133787D01*
X11233787Y-8176213D01*
X11276213Y-8176213D01*
X11200000Y-8185000D02*
X11310000Y-8185000D01*
X11310000Y-8125000D02*
G75*
G02*
X11310000Y-8185000I0J-30000D01*
G01*
X11310000Y-8125000D02*
X11200000Y-8125000D01*
X11200000Y-8125000D02*
G75*
G03*
X11200000Y-8185000I0J-30000D01*
G01*
X16656213Y-6826213D02*
X16656213Y-6783787D01*
X16613787Y-6783787D01*
X16613787Y-6826213D01*
X16656213Y-6826213D01*
X16690000Y-6775000D02*
X16580000Y-6775000D01*
X16580000Y-6835000D02*
G75*
G02*
X16580000Y-6775000I0J30000D01*
G01*
X16580000Y-6835000D02*
X16690000Y-6835000D01*
X16690000Y-6835000D02*
G75*
G03*
X16690000Y-6775000I0J30000D01*
G01*
X16656213Y-8176213D02*
X16656213Y-8133787D01*
X16613787Y-8133787D01*
X16613787Y-8176213D01*
X16656213Y-8176213D01*
X16690000Y-8125000D02*
X16580000Y-8125000D01*
X16580000Y-8185000D02*
G75*
G02*
X16580000Y-8125000I0J30000D01*
G01*
X16580000Y-8185000D02*
X16690000Y-8185000D01*
X16690000Y-8185000D02*
G75*
G03*
X16690000Y-8125000I0J30000D01*
G01*
X16656213Y-8676213D02*
X16656213Y-8633787D01*
X16613787Y-8633787D01*
X16613787Y-8676213D01*
X16656213Y-8676213D01*
X16690000Y-8625000D02*
X16580000Y-8625000D01*
X16580000Y-8685000D02*
G75*
G02*
X16580000Y-8625000I0J30000D01*
G01*
X16580000Y-8685000D02*
X16690000Y-8685000D01*
X16690000Y-8685000D02*
G75*
G03*
X16690000Y-8625000I0J30000D01*
G01*
X16656213Y-10026213D02*
X16656213Y-9983787D01*
X16613787Y-9983787D01*
X16613787Y-10026213D01*
X16656213Y-10026213D01*
X16690000Y-9975000D02*
X16580000Y-9975000D01*
X16580000Y-10035000D02*
G75*
G02*
X16580000Y-9975000I0J30000D01*
G01*
X16580000Y-10035000D02*
X16690000Y-10035000D01*
X16690000Y-10035000D02*
G75*
G03*
X16690000Y-9975000I0J30000D01*
G01*
X13630000Y-8890825D02*
X13667500Y-8853325D01*
X13630000Y-8815825D01*
X13592500Y-8853325D01*
X13630000Y-8890825D01*
X13630000Y-9760825D02*
X13667500Y-9723325D01*
X13630000Y-9685825D01*
X13592500Y-9723325D01*
X13630000Y-9760825D01*
X13980000Y-8890825D02*
X14017500Y-8853325D01*
X13980000Y-8815825D01*
X13942500Y-8853325D01*
X13980000Y-8890825D01*
X13980000Y-9760825D02*
X14017500Y-9723325D01*
X13980000Y-9685825D01*
X13942500Y-9723325D01*
X13980000Y-9760825D01*
X12166820Y-8636820D02*
X12253180Y-8723180D01*
X12253180Y-8636820D02*
X12166820Y-8723180D01*
X12253180Y-8680000D02*
G75*
G02*
X12166820Y-8680000I-43180J0D01*
G01*
X12166820Y-8680000D02*
G75*
G02*
X12253180Y-8680000I43180J0D01*
G01*
X12166820Y-8986820D02*
X12253180Y-9073180D01*
X12253180Y-8986820D02*
X12166820Y-9073180D01*
X12253180Y-9030000D02*
G75*
G02*
X12166820Y-9030000I-43180J0D01*
G01*
X12166820Y-9030000D02*
G75*
G02*
X12253180Y-9030000I43180J0D01*
G01*
X13766820Y-7586820D02*
X13853180Y-7673180D01*
X13853180Y-7586820D02*
X13766820Y-7673180D01*
X13853180Y-7630000D02*
G75*
G02*
X13766820Y-7630000I-43180J0D01*
G01*
X13766820Y-7630000D02*
G75*
G02*
X13853180Y-7630000I43180J0D01*
G01*
X13766820Y-8086820D02*
X13853180Y-8173180D01*
X13853180Y-8086820D02*
X13766820Y-8173180D01*
X13853180Y-8130000D02*
G75*
G02*
X13766820Y-8130000I-43180J0D01*
G01*
X13766820Y-8130000D02*
G75*
G02*
X13853180Y-8130000I43180J0D01*
G01*
X11440000Y-7430000D02*
X11540000Y-7530000D01*
X11540000Y-7430000D02*
X11440000Y-7530000D01*
X11490000Y-7430000D02*
X11490000Y-7530000D01*
X11440000Y-7480000D02*
X11540000Y-7480000D01*
X11540000Y-7530000D02*
X11540000Y-7430000D01*
X11440000Y-7430000D02*
G75*
G02*
X11540000Y-7430000I50000J0D01*
G01*
X11440000Y-7430000D02*
X11440000Y-7530000D01*
X11440000Y-7530000D02*
G75*
G03*
X11540000Y-7530000I50000J0D01*
G01*
X12030000Y-10367500D02*
X12130000Y-10467500D01*
X12130000Y-10367500D02*
X12030000Y-10467500D01*
X12080000Y-10367500D02*
X12080000Y-10467500D01*
X12030000Y-10417500D02*
X12130000Y-10417500D01*
X12280000Y-10367500D02*
X12380000Y-10467500D01*
X12380000Y-10367500D02*
X12280000Y-10467500D01*
X12330000Y-10367500D02*
X12330000Y-10467500D01*
X12280000Y-10417500D02*
X12380000Y-10417500D01*
X12530000Y-10367500D02*
X12630000Y-10467500D01*
X12630000Y-10367500D02*
X12530000Y-10467500D01*
X12580000Y-10367500D02*
X12580000Y-10467500D01*
X12530000Y-10417500D02*
X12630000Y-10417500D01*
X12780000Y-10367500D02*
X12880000Y-10467500D01*
X12880000Y-10367500D02*
X12780000Y-10467500D01*
X12830000Y-10367500D02*
X12830000Y-10467500D01*
X12780000Y-10417500D02*
X12880000Y-10417500D01*
X14180000Y-6080000D02*
X14280000Y-6180000D01*
X14280000Y-6080000D02*
X14180000Y-6180000D01*
X14230000Y-6080000D02*
X14230000Y-6180000D01*
X14180000Y-6130000D02*
X14280000Y-6130000D01*
X14430000Y-6080000D02*
X14530000Y-6180000D01*
X14530000Y-6080000D02*
X14430000Y-6180000D01*
X14480000Y-6080000D02*
X14480000Y-6180000D01*
X14430000Y-6130000D02*
X14530000Y-6130000D01*
X14680000Y-6080000D02*
X14780000Y-6180000D01*
X14780000Y-6080000D02*
X14680000Y-6180000D01*
X14730000Y-6080000D02*
X14730000Y-6180000D01*
X14680000Y-6130000D02*
X14780000Y-6130000D01*
X14930000Y-6080000D02*
X15030000Y-6180000D01*
X15030000Y-6080000D02*
X14930000Y-6180000D01*
X14980000Y-6080000D02*
X14980000Y-6180000D01*
X14930000Y-6130000D02*
X15030000Y-6130000D01*
X16350000Y-7430000D02*
X16450000Y-7530000D01*
X16450000Y-7430000D02*
X16350000Y-7530000D01*
X16400000Y-7430000D02*
X16400000Y-7530000D01*
X16350000Y-7480000D02*
X16450000Y-7480000D01*
X16350000Y-7430000D02*
X16350000Y-7530000D01*
X16450000Y-7530000D02*
G75*
G02*
X16350000Y-7530000I-50000J0D01*
G01*
X16450000Y-7530000D02*
X16450000Y-7430000D01*
X16450000Y-7430000D02*
G75*
G03*
X16350000Y-7430000I-50000J0D01*
G01*
X16350000Y-9280000D02*
X16450000Y-9380000D01*
X16450000Y-9280000D02*
X16350000Y-9380000D01*
X16400000Y-9280000D02*
X16400000Y-9380000D01*
X16350000Y-9330000D02*
X16450000Y-9330000D01*
X16350000Y-9280000D02*
X16350000Y-9380000D01*
X16450000Y-9380000D02*
G75*
G02*
X16350000Y-9380000I-50000J0D01*
G01*
X16450000Y-9380000D02*
X16450000Y-9280000D01*
X16450000Y-9280000D02*
G75*
G03*
X16350000Y-9280000I-50000J0D01*
G01*
D12*
X11092240Y-8960230D02*
X11221780Y-9089770D01*
X11221780Y-8960230D02*
X11092240Y-9089770D01*
X11202810Y-9070800D02*
X11202810Y-8979201D01*
X11111211Y-8979201D01*
X11111211Y-9070800D01*
X11202810Y-9070800D01*
X11092240Y-9460230D02*
X11221780Y-9589770D01*
X11221780Y-9460230D02*
X11092240Y-9589770D01*
X11202810Y-9570800D02*
X11202810Y-9479201D01*
X11111211Y-9479201D01*
X11111211Y-9570800D01*
X11202810Y-9570800D01*
D13*
X11720000Y-6985000D02*
X11990000Y-7255000D01*
X11990000Y-6985000D02*
X11720000Y-7255000D01*
X11855000Y-7255000D02*
X11990000Y-7120000D01*
X11855000Y-6985000D01*
X11720000Y-7120000D01*
X11855000Y-7255000D01*
X11720000Y-7705000D02*
X11990000Y-7975000D01*
X11990000Y-7705000D02*
X11720000Y-7975000D01*
X11855000Y-7975000D02*
X11990000Y-7840000D01*
X11855000Y-7705000D01*
X11720000Y-7840000D01*
X11855000Y-7975000D01*
X15900000Y-6985000D02*
X16170000Y-7255000D01*
X16170000Y-6985000D02*
X15900000Y-7255000D01*
X16035000Y-7255000D02*
X16170000Y-7120000D01*
X16035000Y-6985000D01*
X15900000Y-7120000D01*
X16035000Y-7255000D01*
X15900000Y-7705000D02*
X16170000Y-7975000D01*
X16170000Y-7705000D02*
X15900000Y-7975000D01*
X16035000Y-7975000D02*
X16170000Y-7840000D01*
X16035000Y-7705000D01*
X15900000Y-7840000D01*
X16035000Y-7975000D01*
X15900000Y-8835000D02*
X16170000Y-9105000D01*
X16170000Y-8835000D02*
X15900000Y-9105000D01*
X16035000Y-9105000D02*
X16170000Y-8970000D01*
X16035000Y-8835000D01*
X15900000Y-8970000D01*
X16035000Y-9105000D01*
X15900000Y-9555000D02*
X16170000Y-9825000D01*
X16170000Y-9555000D02*
X15900000Y-9825000D01*
X16035000Y-9825000D02*
X16170000Y-9690000D01*
X16035000Y-9555000D01*
X15900000Y-9690000D01*
X16035000Y-9825000D01*
D10*
X260777Y-311484D02*
X260777Y-111484D01*
X260777Y-111484D02*
X308396Y-111484D01*
X308396Y-111484D02*
X336967Y-121008D01*
X336967Y-121008D02*
X356015Y-140055D01*
X356015Y-140055D02*
X365539Y-159103D01*
X365539Y-159103D02*
X375062Y-197198D01*
X375062Y-197198D02*
X375062Y-225769D01*
X375062Y-225769D02*
X365539Y-263865D01*
X365539Y-263865D02*
X356015Y-282912D01*
X356015Y-282912D02*
X336967Y-301960D01*
X336967Y-301960D02*
X308396Y-311484D01*
X308396Y-311484D02*
X260777Y-311484D01*
X460777Y-311484D02*
X460777Y-178150D01*
X460777Y-216246D02*
X470301Y-197198D01*
X470301Y-197198D02*
X479824Y-187674D01*
X479824Y-187674D02*
X498872Y-178150D01*
X498872Y-178150D02*
X517920Y-178150D01*
X584586Y-311484D02*
X584586Y-178150D01*
X584586Y-111484D02*
X575063Y-121008D01*
X575063Y-121008D02*
X584586Y-130531D01*
X584586Y-130531D02*
X594110Y-121008D01*
X594110Y-121008D02*
X584586Y-111484D01*
X584586Y-111484D02*
X584586Y-130531D01*
X708396Y-311484D02*
X689348Y-301960D01*
X689348Y-301960D02*
X679824Y-282912D01*
X679824Y-282912D02*
X679824Y-111484D01*
X813158Y-311484D02*
X794110Y-301960D01*
X794110Y-301960D02*
X784586Y-282912D01*
X784586Y-282912D02*
X784586Y-111484D01*
X1041729Y-311484D02*
X1041729Y-111484D01*
X1041729Y-111484D02*
X1108396Y-254341D01*
X1108396Y-254341D02*
X1175063Y-111484D01*
X1175063Y-111484D02*
X1175063Y-311484D01*
X1356015Y-311484D02*
X1356015Y-206722D01*
X1356015Y-206722D02*
X1346491Y-187674D01*
X1346491Y-187674D02*
X1327444Y-178150D01*
X1327444Y-178150D02*
X1289348Y-178150D01*
X1289348Y-178150D02*
X1270301Y-187674D01*
X1356015Y-301960D02*
X1336967Y-311484D01*
X1336967Y-311484D02*
X1289348Y-311484D01*
X1289348Y-311484D02*
X1270301Y-301960D01*
X1270301Y-301960D02*
X1260777Y-282912D01*
X1260777Y-282912D02*
X1260777Y-263865D01*
X1260777Y-263865D02*
X1270301Y-244817D01*
X1270301Y-244817D02*
X1289348Y-235293D01*
X1289348Y-235293D02*
X1336967Y-235293D01*
X1336967Y-235293D02*
X1356015Y-225769D01*
X1451253Y-178150D02*
X1451253Y-378150D01*
X1451253Y-187674D02*
X1470301Y-178150D01*
X1470301Y-178150D02*
X1508396Y-178150D01*
X1508396Y-178150D02*
X1527443Y-187674D01*
X1527443Y-187674D02*
X1536967Y-197198D01*
X1536967Y-197198D02*
X1546491Y-216246D01*
X1546491Y-216246D02*
X1546491Y-273389D01*
X1546491Y-273389D02*
X1536967Y-292436D01*
X1536967Y-292436D02*
X1527443Y-301960D01*
X1527443Y-301960D02*
X1508396Y-311484D01*
X1508396Y-311484D02*
X1470301Y-311484D01*
X1470301Y-311484D02*
X1451253Y-301960D01*
X1632205Y-292436D02*
X1641729Y-301960D01*
X1641729Y-301960D02*
X1632205Y-311484D01*
X1632205Y-311484D02*
X1622682Y-301960D01*
X1622682Y-301960D02*
X1632205Y-292436D01*
X1632205Y-292436D02*
X1632205Y-311484D01*
X1632205Y-187674D02*
X1641729Y-197198D01*
X1641729Y-197198D02*
X1632205Y-206722D01*
X1632205Y-206722D02*
X1622682Y-197198D01*
X1622682Y-197198D02*
X1632205Y-187674D01*
X1632205Y-187674D02*
X1632205Y-206722D01*
D11*
X-20000Y-630000D02*
X0Y-650000D01*
X0Y-630000D02*
X-20000Y-650000D01*
D10*
X298872Y-531484D02*
X317920Y-531484D01*
X317920Y-531484D02*
X336967Y-541008D01*
X336967Y-541008D02*
X346491Y-550531D01*
X346491Y-550531D02*
X356015Y-569579D01*
X356015Y-569579D02*
X365539Y-607674D01*
X365539Y-607674D02*
X365539Y-655293D01*
X365539Y-655293D02*
X356015Y-693389D01*
X356015Y-693389D02*
X346491Y-712436D01*
X346491Y-712436D02*
X336967Y-721960D01*
X336967Y-721960D02*
X317920Y-731484D01*
X317920Y-731484D02*
X298872Y-731484D01*
X298872Y-731484D02*
X279824Y-721960D01*
X279824Y-721960D02*
X270301Y-712436D01*
X270301Y-712436D02*
X260777Y-693389D01*
X260777Y-693389D02*
X251253Y-655293D01*
X251253Y-655293D02*
X251253Y-607674D01*
X251253Y-607674D02*
X260777Y-569579D01*
X260777Y-569579D02*
X270301Y-550531D01*
X270301Y-550531D02*
X279824Y-541008D01*
X279824Y-541008D02*
X298872Y-531484D01*
X451253Y-712436D02*
X460777Y-721960D01*
X460777Y-721960D02*
X451253Y-731484D01*
X451253Y-731484D02*
X441729Y-721960D01*
X441729Y-721960D02*
X451253Y-712436D01*
X451253Y-712436D02*
X451253Y-731484D01*
X536967Y-550531D02*
X546491Y-541008D01*
X546491Y-541008D02*
X565539Y-531484D01*
X565539Y-531484D02*
X613158Y-531484D01*
X613158Y-531484D02*
X632205Y-541008D01*
X632205Y-541008D02*
X641729Y-550531D01*
X641729Y-550531D02*
X651253Y-569579D01*
X651253Y-569579D02*
X651253Y-588627D01*
X651253Y-588627D02*
X641729Y-617198D01*
X641729Y-617198D02*
X527444Y-731484D01*
X527444Y-731484D02*
X651253Y-731484D01*
X775062Y-531484D02*
X794110Y-531484D01*
X794110Y-531484D02*
X813158Y-541008D01*
X813158Y-541008D02*
X822682Y-550531D01*
X822682Y-550531D02*
X832205Y-569579D01*
X832205Y-569579D02*
X841729Y-607674D01*
X841729Y-607674D02*
X841729Y-655293D01*
X841729Y-655293D02*
X832205Y-693389D01*
X832205Y-693389D02*
X822682Y-712436D01*
X822682Y-712436D02*
X813158Y-721960D01*
X813158Y-721960D02*
X794110Y-731484D01*
X794110Y-731484D02*
X775062Y-731484D01*
X775062Y-731484D02*
X756015Y-721960D01*
X756015Y-721960D02*
X746491Y-712436D01*
X746491Y-712436D02*
X736967Y-693389D01*
X736967Y-693389D02*
X727443Y-655293D01*
X727443Y-655293D02*
X727443Y-607674D01*
X727443Y-607674D02*
X736967Y-569579D01*
X736967Y-569579D02*
X746491Y-550531D01*
X746491Y-550531D02*
X756015Y-541008D01*
X756015Y-541008D02*
X775062Y-531484D01*
X965539Y-531484D02*
X984586Y-531484D01*
X984586Y-531484D02*
X1003634Y-541008D01*
X1003634Y-541008D02*
X1013158Y-550531D01*
X1013158Y-550531D02*
X1022682Y-569579D01*
X1022682Y-569579D02*
X1032205Y-607674D01*
X1032205Y-607674D02*
X1032205Y-655293D01*
X1032205Y-655293D02*
X1022682Y-693389D01*
X1022682Y-693389D02*
X1013158Y-712436D01*
X1013158Y-712436D02*
X1003634Y-721960D01*
X1003634Y-721960D02*
X984586Y-731484D01*
X984586Y-731484D02*
X965539Y-731484D01*
X965539Y-731484D02*
X946491Y-721960D01*
X946491Y-721960D02*
X936967Y-712436D01*
X936967Y-712436D02*
X927443Y-693389D01*
X927443Y-693389D02*
X917920Y-655293D01*
X917920Y-655293D02*
X917920Y-607674D01*
X917920Y-607674D02*
X927443Y-569579D01*
X927443Y-569579D02*
X936967Y-550531D01*
X936967Y-550531D02*
X946491Y-541008D01*
X946491Y-541008D02*
X965539Y-531484D01*
X1117920Y-731484D02*
X1117920Y-598150D01*
X1117920Y-617198D02*
X1127444Y-607674D01*
X1127444Y-607674D02*
X1146491Y-598150D01*
X1146491Y-598150D02*
X1175063Y-598150D01*
X1175063Y-598150D02*
X1194110Y-607674D01*
X1194110Y-607674D02*
X1203634Y-626722D01*
X1203634Y-626722D02*
X1203634Y-731484D01*
X1203634Y-626722D02*
X1213158Y-607674D01*
X1213158Y-607674D02*
X1232205Y-598150D01*
X1232205Y-598150D02*
X1260777Y-598150D01*
X1260777Y-598150D02*
X1279825Y-607674D01*
X1279825Y-607674D02*
X1289348Y-626722D01*
X1289348Y-626722D02*
X1289348Y-731484D01*
X1384586Y-731484D02*
X1384586Y-598150D01*
X1384586Y-617198D02*
X1394110Y-607674D01*
X1394110Y-607674D02*
X1413158Y-598150D01*
X1413158Y-598150D02*
X1441729Y-598150D01*
X1441729Y-598150D02*
X1460777Y-607674D01*
X1460777Y-607674D02*
X1470301Y-626722D01*
X1470301Y-626722D02*
X1470301Y-731484D01*
X1470301Y-626722D02*
X1479824Y-607674D01*
X1479824Y-607674D02*
X1498872Y-598150D01*
X1498872Y-598150D02*
X1527443Y-598150D01*
X1527443Y-598150D02*
X1546491Y-607674D01*
X1546491Y-607674D02*
X1556015Y-626722D01*
X1556015Y-626722D02*
X1556015Y-731484D01*
X1946491Y-521960D02*
X1775063Y-779103D01*
X2203634Y-531484D02*
X2222682Y-531484D01*
X2222682Y-531484D02*
X2241729Y-541008D01*
X2241729Y-541008D02*
X2251253Y-550531D01*
X2251253Y-550531D02*
X2260777Y-569579D01*
X2260777Y-569579D02*
X2270301Y-607674D01*
X2270301Y-607674D02*
X2270301Y-655293D01*
X2270301Y-655293D02*
X2260777Y-693389D01*
X2260777Y-693389D02*
X2251253Y-712436D01*
X2251253Y-712436D02*
X2241729Y-721960D01*
X2241729Y-721960D02*
X2222682Y-731484D01*
X2222682Y-731484D02*
X2203634Y-731484D01*
X2203634Y-731484D02*
X2184587Y-721960D01*
X2184587Y-721960D02*
X2175063Y-712436D01*
X2175063Y-712436D02*
X2165539Y-693389D01*
X2165539Y-693389D02*
X2156015Y-655293D01*
X2156015Y-655293D02*
X2156015Y-607674D01*
X2156015Y-607674D02*
X2165539Y-569579D01*
X2165539Y-569579D02*
X2175063Y-550531D01*
X2175063Y-550531D02*
X2184587Y-541008D01*
X2184587Y-541008D02*
X2203634Y-531484D01*
X2356015Y-712436D02*
X2365539Y-721960D01*
X2365539Y-721960D02*
X2356015Y-731484D01*
X2356015Y-731484D02*
X2346491Y-721960D01*
X2346491Y-721960D02*
X2356015Y-712436D01*
X2356015Y-712436D02*
X2356015Y-731484D01*
X2489348Y-531484D02*
X2508396Y-531484D01*
X2508396Y-531484D02*
X2527444Y-541008D01*
X2527444Y-541008D02*
X2536968Y-550531D01*
X2536968Y-550531D02*
X2546491Y-569579D01*
X2546491Y-569579D02*
X2556015Y-607674D01*
X2556015Y-607674D02*
X2556015Y-655293D01*
X2556015Y-655293D02*
X2546491Y-693389D01*
X2546491Y-693389D02*
X2536968Y-712436D01*
X2536968Y-712436D02*
X2527444Y-721960D01*
X2527444Y-721960D02*
X2508396Y-731484D01*
X2508396Y-731484D02*
X2489348Y-731484D01*
X2489348Y-731484D02*
X2470301Y-721960D01*
X2470301Y-721960D02*
X2460777Y-712436D01*
X2460777Y-712436D02*
X2451253Y-693389D01*
X2451253Y-693389D02*
X2441729Y-655293D01*
X2441729Y-655293D02*
X2441729Y-607674D01*
X2441729Y-607674D02*
X2451253Y-569579D01*
X2451253Y-569579D02*
X2460777Y-550531D01*
X2460777Y-550531D02*
X2470301Y-541008D01*
X2470301Y-541008D02*
X2489348Y-531484D01*
X2679825Y-531484D02*
X2698872Y-531484D01*
X2698872Y-531484D02*
X2717920Y-541008D01*
X2717920Y-541008D02*
X2727444Y-550531D01*
X2727444Y-550531D02*
X2736968Y-569579D01*
X2736968Y-569579D02*
X2746491Y-607674D01*
X2746491Y-607674D02*
X2746491Y-655293D01*
X2746491Y-655293D02*
X2736968Y-693389D01*
X2736968Y-693389D02*
X2727444Y-712436D01*
X2727444Y-712436D02*
X2717920Y-721960D01*
X2717920Y-721960D02*
X2698872Y-731484D01*
X2698872Y-731484D02*
X2679825Y-731484D01*
X2679825Y-731484D02*
X2660777Y-721960D01*
X2660777Y-721960D02*
X2651253Y-712436D01*
X2651253Y-712436D02*
X2641729Y-693389D01*
X2641729Y-693389D02*
X2632206Y-655293D01*
X2632206Y-655293D02*
X2632206Y-607674D01*
X2632206Y-607674D02*
X2641729Y-569579D01*
X2641729Y-569579D02*
X2651253Y-550531D01*
X2651253Y-550531D02*
X2660777Y-541008D01*
X2660777Y-541008D02*
X2679825Y-531484D01*
X2813158Y-531484D02*
X2946491Y-531484D01*
X2946491Y-531484D02*
X2860777Y-731484D01*
X3032206Y-731484D02*
X3070301Y-731484D01*
X3070301Y-731484D02*
X3089348Y-721960D01*
X3089348Y-721960D02*
X3098872Y-712436D01*
X3098872Y-712436D02*
X3117920Y-683865D01*
X3117920Y-683865D02*
X3127444Y-645770D01*
X3127444Y-645770D02*
X3127444Y-569579D01*
X3127444Y-569579D02*
X3117920Y-550531D01*
X3117920Y-550531D02*
X3108396Y-541008D01*
X3108396Y-541008D02*
X3089348Y-531484D01*
X3089348Y-531484D02*
X3051253Y-531484D01*
X3051253Y-531484D02*
X3032206Y-541008D01*
X3032206Y-541008D02*
X3022682Y-550531D01*
X3022682Y-550531D02*
X3013158Y-569579D01*
X3013158Y-569579D02*
X3013158Y-617198D01*
X3013158Y-617198D02*
X3022682Y-636246D01*
X3022682Y-636246D02*
X3032206Y-645770D01*
X3032206Y-645770D02*
X3051253Y-655293D01*
X3051253Y-655293D02*
X3089348Y-655293D01*
X3089348Y-655293D02*
X3108396Y-645770D01*
X3108396Y-645770D02*
X3117920Y-636246D01*
X3117920Y-636246D02*
X3127444Y-617198D01*
X3203634Y-531484D02*
X3203634Y-569579D01*
X3279825Y-531484D02*
X3279825Y-569579D01*
X3575063Y-807674D02*
X3565539Y-798150D01*
X3565539Y-798150D02*
X3546491Y-769579D01*
X3546491Y-769579D02*
X3536968Y-750531D01*
X3536968Y-750531D02*
X3527444Y-721960D01*
X3527444Y-721960D02*
X3517920Y-674341D01*
X3517920Y-674341D02*
X3517920Y-636246D01*
X3517920Y-636246D02*
X3527444Y-588627D01*
X3527444Y-588627D02*
X3536968Y-560055D01*
X3536968Y-560055D02*
X3546491Y-541008D01*
X3546491Y-541008D02*
X3565539Y-512436D01*
X3565539Y-512436D02*
X3575063Y-502912D01*
X3632206Y-531484D02*
X3756015Y-531484D01*
X3756015Y-531484D02*
X3689348Y-607674D01*
X3689348Y-607674D02*
X3717920Y-607674D01*
X3717920Y-607674D02*
X3736968Y-617198D01*
X3736968Y-617198D02*
X3746491Y-626722D01*
X3746491Y-626722D02*
X3756015Y-645770D01*
X3756015Y-645770D02*
X3756015Y-693389D01*
X3756015Y-693389D02*
X3746491Y-712436D01*
X3746491Y-712436D02*
X3736968Y-721960D01*
X3736968Y-721960D02*
X3717920Y-731484D01*
X3717920Y-731484D02*
X3660777Y-731484D01*
X3660777Y-731484D02*
X3641729Y-721960D01*
X3641729Y-721960D02*
X3632206Y-712436D01*
X3994110Y-731484D02*
X3994110Y-531484D01*
X4079825Y-731484D02*
X4079825Y-626722D01*
X4079825Y-626722D02*
X4070301Y-607674D01*
X4070301Y-607674D02*
X4051253Y-598150D01*
X4051253Y-598150D02*
X4022682Y-598150D01*
X4022682Y-598150D02*
X4003634Y-607674D01*
X4003634Y-607674D02*
X3994110Y-617198D01*
X4203634Y-731484D02*
X4184587Y-721960D01*
X4184587Y-721960D02*
X4175063Y-712436D01*
X4175063Y-712436D02*
X4165539Y-693389D01*
X4165539Y-693389D02*
X4165539Y-636246D01*
X4165539Y-636246D02*
X4175063Y-617198D01*
X4175063Y-617198D02*
X4184587Y-607674D01*
X4184587Y-607674D02*
X4203634Y-598150D01*
X4203634Y-598150D02*
X4232206Y-598150D01*
X4232206Y-598150D02*
X4251253Y-607674D01*
X4251253Y-607674D02*
X4260777Y-617198D01*
X4260777Y-617198D02*
X4270301Y-636246D01*
X4270301Y-636246D02*
X4270301Y-693389D01*
X4270301Y-693389D02*
X4260777Y-712436D01*
X4260777Y-712436D02*
X4251253Y-721960D01*
X4251253Y-721960D02*
X4232206Y-731484D01*
X4232206Y-731484D02*
X4203634Y-731484D01*
X4384587Y-731484D02*
X4365539Y-721960D01*
X4365539Y-721960D02*
X4356015Y-702912D01*
X4356015Y-702912D02*
X4356015Y-531484D01*
X4536968Y-721960D02*
X4517920Y-731484D01*
X4517920Y-731484D02*
X4479825Y-731484D01*
X4479825Y-731484D02*
X4460777Y-721960D01*
X4460777Y-721960D02*
X4451253Y-702912D01*
X4451253Y-702912D02*
X4451253Y-626722D01*
X4451253Y-626722D02*
X4460777Y-607674D01*
X4460777Y-607674D02*
X4479825Y-598150D01*
X4479825Y-598150D02*
X4517920Y-598150D01*
X4517920Y-598150D02*
X4536968Y-607674D01*
X4536968Y-607674D02*
X4546492Y-626722D01*
X4546492Y-626722D02*
X4546492Y-645770D01*
X4546492Y-645770D02*
X4451253Y-664817D01*
X4622682Y-721960D02*
X4641730Y-731484D01*
X4641730Y-731484D02*
X4679825Y-731484D01*
X4679825Y-731484D02*
X4698873Y-721960D01*
X4698873Y-721960D02*
X4708396Y-702912D01*
X4708396Y-702912D02*
X4708396Y-693389D01*
X4708396Y-693389D02*
X4698873Y-674341D01*
X4698873Y-674341D02*
X4679825Y-664817D01*
X4679825Y-664817D02*
X4651253Y-664817D01*
X4651253Y-664817D02*
X4632206Y-655293D01*
X4632206Y-655293D02*
X4622682Y-636246D01*
X4622682Y-636246D02*
X4622682Y-626722D01*
X4622682Y-626722D02*
X4632206Y-607674D01*
X4632206Y-607674D02*
X4651253Y-598150D01*
X4651253Y-598150D02*
X4679825Y-598150D01*
X4679825Y-598150D02*
X4698873Y-607674D01*
X4775063Y-807674D02*
X4784587Y-798150D01*
X4784587Y-798150D02*
X4803634Y-769579D01*
X4803634Y-769579D02*
X4813158Y-750531D01*
X4813158Y-750531D02*
X4822682Y-721960D01*
X4822682Y-721960D02*
X4832206Y-674341D01*
X4832206Y-674341D02*
X4832206Y-636246D01*
X4832206Y-636246D02*
X4822682Y-588627D01*
X4822682Y-588627D02*
X4813158Y-560055D01*
X4813158Y-560055D02*
X4803634Y-541008D01*
X4803634Y-541008D02*
X4784587Y-512436D01*
X4784587Y-512436D02*
X4775063Y-502912D01*
D11*
X0Y-904000D02*
G75*
G02*
X-30000Y-904000I-15000J0D01*
G01*
X-30000Y-904000D02*
G75*
G02*
X0Y-904000I15000J0D01*
G01*
D10*
X298872Y-795484D02*
X317920Y-795484D01*
X317920Y-795484D02*
X336967Y-805008D01*
X336967Y-805008D02*
X346491Y-814531D01*
X346491Y-814531D02*
X356015Y-833579D01*
X356015Y-833579D02*
X365539Y-871674D01*
X365539Y-871674D02*
X365539Y-919293D01*
X365539Y-919293D02*
X356015Y-957388D01*
X356015Y-957388D02*
X346491Y-976436D01*
X346491Y-976436D02*
X336967Y-985960D01*
X336967Y-985960D02*
X317920Y-995484D01*
X317920Y-995484D02*
X298872Y-995484D01*
X298872Y-995484D02*
X279824Y-985960D01*
X279824Y-985960D02*
X270301Y-976436D01*
X270301Y-976436D02*
X260777Y-957388D01*
X260777Y-957388D02*
X251253Y-919293D01*
X251253Y-919293D02*
X251253Y-871674D01*
X251253Y-871674D02*
X260777Y-833579D01*
X260777Y-833579D02*
X270301Y-814531D01*
X270301Y-814531D02*
X279824Y-805008D01*
X279824Y-805008D02*
X298872Y-795484D01*
X451253Y-976436D02*
X460777Y-985960D01*
X460777Y-985960D02*
X451253Y-995484D01*
X451253Y-995484D02*
X441729Y-985960D01*
X441729Y-985960D02*
X451253Y-976436D01*
X451253Y-976436D02*
X451253Y-995484D01*
X527444Y-795484D02*
X651253Y-795484D01*
X651253Y-795484D02*
X584586Y-871674D01*
X584586Y-871674D02*
X613158Y-871674D01*
X613158Y-871674D02*
X632205Y-881198D01*
X632205Y-881198D02*
X641729Y-890722D01*
X641729Y-890722D02*
X651253Y-909769D01*
X651253Y-909769D02*
X651253Y-957388D01*
X651253Y-957388D02*
X641729Y-976436D01*
X641729Y-976436D02*
X632205Y-985960D01*
X632205Y-985960D02*
X613158Y-995484D01*
X613158Y-995484D02*
X556015Y-995484D01*
X556015Y-995484D02*
X536967Y-985960D01*
X536967Y-985960D02*
X527444Y-976436D01*
X775062Y-795484D02*
X794110Y-795484D01*
X794110Y-795484D02*
X813158Y-805008D01*
X813158Y-805008D02*
X822682Y-814531D01*
X822682Y-814531D02*
X832205Y-833579D01*
X832205Y-833579D02*
X841729Y-871674D01*
X841729Y-871674D02*
X841729Y-919293D01*
X841729Y-919293D02*
X832205Y-957388D01*
X832205Y-957388D02*
X822682Y-976436D01*
X822682Y-976436D02*
X813158Y-985960D01*
X813158Y-985960D02*
X794110Y-995484D01*
X794110Y-995484D02*
X775062Y-995484D01*
X775062Y-995484D02*
X756015Y-985960D01*
X756015Y-985960D02*
X746491Y-976436D01*
X746491Y-976436D02*
X736967Y-957388D01*
X736967Y-957388D02*
X727443Y-919293D01*
X727443Y-919293D02*
X727443Y-871674D01*
X727443Y-871674D02*
X736967Y-833579D01*
X736967Y-833579D02*
X746491Y-814531D01*
X746491Y-814531D02*
X756015Y-805008D01*
X756015Y-805008D02*
X775062Y-795484D01*
X965539Y-795484D02*
X984586Y-795484D01*
X984586Y-795484D02*
X1003634Y-805008D01*
X1003634Y-805008D02*
X1013158Y-814531D01*
X1013158Y-814531D02*
X1022682Y-833579D01*
X1022682Y-833579D02*
X1032205Y-871674D01*
X1032205Y-871674D02*
X1032205Y-919293D01*
X1032205Y-919293D02*
X1022682Y-957388D01*
X1022682Y-957388D02*
X1013158Y-976436D01*
X1013158Y-976436D02*
X1003634Y-985960D01*
X1003634Y-985960D02*
X984586Y-995484D01*
X984586Y-995484D02*
X965539Y-995484D01*
X965539Y-995484D02*
X946491Y-985960D01*
X946491Y-985960D02*
X936967Y-976436D01*
X936967Y-976436D02*
X927443Y-957388D01*
X927443Y-957388D02*
X917920Y-919293D01*
X917920Y-919293D02*
X917920Y-871674D01*
X917920Y-871674D02*
X927443Y-833579D01*
X927443Y-833579D02*
X936967Y-814531D01*
X936967Y-814531D02*
X946491Y-805008D01*
X946491Y-805008D02*
X965539Y-795484D01*
X1117920Y-995484D02*
X1117920Y-862150D01*
X1117920Y-881198D02*
X1127444Y-871674D01*
X1127444Y-871674D02*
X1146491Y-862150D01*
X1146491Y-862150D02*
X1175063Y-862150D01*
X1175063Y-862150D02*
X1194110Y-871674D01*
X1194110Y-871674D02*
X1203634Y-890722D01*
X1203634Y-890722D02*
X1203634Y-995484D01*
X1203634Y-890722D02*
X1213158Y-871674D01*
X1213158Y-871674D02*
X1232205Y-862150D01*
X1232205Y-862150D02*
X1260777Y-862150D01*
X1260777Y-862150D02*
X1279825Y-871674D01*
X1279825Y-871674D02*
X1289348Y-890722D01*
X1289348Y-890722D02*
X1289348Y-995484D01*
X1384586Y-995484D02*
X1384586Y-862150D01*
X1384586Y-881198D02*
X1394110Y-871674D01*
X1394110Y-871674D02*
X1413158Y-862150D01*
X1413158Y-862150D02*
X1441729Y-862150D01*
X1441729Y-862150D02*
X1460777Y-871674D01*
X1460777Y-871674D02*
X1470301Y-890722D01*
X1470301Y-890722D02*
X1470301Y-995484D01*
X1470301Y-890722D02*
X1479824Y-871674D01*
X1479824Y-871674D02*
X1498872Y-862150D01*
X1498872Y-862150D02*
X1527443Y-862150D01*
X1527443Y-862150D02*
X1546491Y-871674D01*
X1546491Y-871674D02*
X1556015Y-890722D01*
X1556015Y-890722D02*
X1556015Y-995484D01*
X1946491Y-785960D02*
X1775063Y-1043103D01*
X2203634Y-795484D02*
X2222682Y-795484D01*
X2222682Y-795484D02*
X2241729Y-805008D01*
X2241729Y-805008D02*
X2251253Y-814531D01*
X2251253Y-814531D02*
X2260777Y-833579D01*
X2260777Y-833579D02*
X2270301Y-871674D01*
X2270301Y-871674D02*
X2270301Y-919293D01*
X2270301Y-919293D02*
X2260777Y-957388D01*
X2260777Y-957388D02*
X2251253Y-976436D01*
X2251253Y-976436D02*
X2241729Y-985960D01*
X2241729Y-985960D02*
X2222682Y-995484D01*
X2222682Y-995484D02*
X2203634Y-995484D01*
X2203634Y-995484D02*
X2184587Y-985960D01*
X2184587Y-985960D02*
X2175063Y-976436D01*
X2175063Y-976436D02*
X2165539Y-957388D01*
X2165539Y-957388D02*
X2156015Y-919293D01*
X2156015Y-919293D02*
X2156015Y-871674D01*
X2156015Y-871674D02*
X2165539Y-833579D01*
X2165539Y-833579D02*
X2175063Y-814531D01*
X2175063Y-814531D02*
X2184587Y-805008D01*
X2184587Y-805008D02*
X2203634Y-795484D01*
X2356015Y-976436D02*
X2365539Y-985960D01*
X2365539Y-985960D02*
X2356015Y-995484D01*
X2356015Y-995484D02*
X2346491Y-985960D01*
X2346491Y-985960D02*
X2356015Y-976436D01*
X2356015Y-976436D02*
X2356015Y-995484D01*
X2489348Y-795484D02*
X2508396Y-795484D01*
X2508396Y-795484D02*
X2527444Y-805008D01*
X2527444Y-805008D02*
X2536968Y-814531D01*
X2536968Y-814531D02*
X2546491Y-833579D01*
X2546491Y-833579D02*
X2556015Y-871674D01*
X2556015Y-871674D02*
X2556015Y-919293D01*
X2556015Y-919293D02*
X2546491Y-957388D01*
X2546491Y-957388D02*
X2536968Y-976436D01*
X2536968Y-976436D02*
X2527444Y-985960D01*
X2527444Y-985960D02*
X2508396Y-995484D01*
X2508396Y-995484D02*
X2489348Y-995484D01*
X2489348Y-995484D02*
X2470301Y-985960D01*
X2470301Y-985960D02*
X2460777Y-976436D01*
X2460777Y-976436D02*
X2451253Y-957388D01*
X2451253Y-957388D02*
X2441729Y-919293D01*
X2441729Y-919293D02*
X2441729Y-871674D01*
X2441729Y-871674D02*
X2451253Y-833579D01*
X2451253Y-833579D02*
X2460777Y-814531D01*
X2460777Y-814531D02*
X2470301Y-805008D01*
X2470301Y-805008D02*
X2489348Y-795484D01*
X2746491Y-995484D02*
X2632206Y-995484D01*
X2689348Y-995484D02*
X2689348Y-795484D01*
X2689348Y-795484D02*
X2670301Y-824055D01*
X2670301Y-824055D02*
X2651253Y-843103D01*
X2651253Y-843103D02*
X2632206Y-852627D01*
X2936967Y-995484D02*
X2822682Y-995484D01*
X2879825Y-995484D02*
X2879825Y-795484D01*
X2879825Y-795484D02*
X2860777Y-824055D01*
X2860777Y-824055D02*
X2841729Y-843103D01*
X2841729Y-843103D02*
X2822682Y-852627D01*
X3051253Y-881198D02*
X3032206Y-871674D01*
X3032206Y-871674D02*
X3022682Y-862150D01*
X3022682Y-862150D02*
X3013158Y-843103D01*
X3013158Y-843103D02*
X3013158Y-833579D01*
X3013158Y-833579D02*
X3022682Y-814531D01*
X3022682Y-814531D02*
X3032206Y-805008D01*
X3032206Y-805008D02*
X3051253Y-795484D01*
X3051253Y-795484D02*
X3089348Y-795484D01*
X3089348Y-795484D02*
X3108396Y-805008D01*
X3108396Y-805008D02*
X3117920Y-814531D01*
X3117920Y-814531D02*
X3127444Y-833579D01*
X3127444Y-833579D02*
X3127444Y-843103D01*
X3127444Y-843103D02*
X3117920Y-862150D01*
X3117920Y-862150D02*
X3108396Y-871674D01*
X3108396Y-871674D02*
X3089348Y-881198D01*
X3089348Y-881198D02*
X3051253Y-881198D01*
X3051253Y-881198D02*
X3032206Y-890722D01*
X3032206Y-890722D02*
X3022682Y-900246D01*
X3022682Y-900246D02*
X3013158Y-919293D01*
X3013158Y-919293D02*
X3013158Y-957388D01*
X3013158Y-957388D02*
X3022682Y-976436D01*
X3022682Y-976436D02*
X3032206Y-985960D01*
X3032206Y-985960D02*
X3051253Y-995484D01*
X3051253Y-995484D02*
X3089348Y-995484D01*
X3089348Y-995484D02*
X3108396Y-985960D01*
X3108396Y-985960D02*
X3117920Y-976436D01*
X3117920Y-976436D02*
X3127444Y-957388D01*
X3127444Y-957388D02*
X3127444Y-919293D01*
X3127444Y-919293D02*
X3117920Y-900246D01*
X3117920Y-900246D02*
X3108396Y-890722D01*
X3108396Y-890722D02*
X3089348Y-881198D01*
X3203634Y-795484D02*
X3203634Y-833579D01*
X3279825Y-795484D02*
X3279825Y-833579D01*
X3575063Y-1071674D02*
X3565539Y-1062150D01*
X3565539Y-1062150D02*
X3546491Y-1033579D01*
X3546491Y-1033579D02*
X3536968Y-1014531D01*
X3536968Y-1014531D02*
X3527444Y-985960D01*
X3527444Y-985960D02*
X3517920Y-938341D01*
X3517920Y-938341D02*
X3517920Y-900246D01*
X3517920Y-900246D02*
X3527444Y-852627D01*
X3527444Y-852627D02*
X3536968Y-824055D01*
X3536968Y-824055D02*
X3546491Y-805008D01*
X3546491Y-805008D02*
X3565539Y-776436D01*
X3565539Y-776436D02*
X3575063Y-766912D01*
X3756015Y-995484D02*
X3641729Y-995484D01*
X3698872Y-995484D02*
X3698872Y-795484D01*
X3698872Y-795484D02*
X3679825Y-824055D01*
X3679825Y-824055D02*
X3660777Y-843103D01*
X3660777Y-843103D02*
X3641729Y-852627D01*
X3822682Y-795484D02*
X3946491Y-795484D01*
X3946491Y-795484D02*
X3879825Y-871674D01*
X3879825Y-871674D02*
X3908396Y-871674D01*
X3908396Y-871674D02*
X3927444Y-881198D01*
X3927444Y-881198D02*
X3936968Y-890722D01*
X3936968Y-890722D02*
X3946491Y-909769D01*
X3946491Y-909769D02*
X3946491Y-957388D01*
X3946491Y-957388D02*
X3936968Y-976436D01*
X3936968Y-976436D02*
X3927444Y-985960D01*
X3927444Y-985960D02*
X3908396Y-995484D01*
X3908396Y-995484D02*
X3851253Y-995484D01*
X3851253Y-995484D02*
X3832206Y-985960D01*
X3832206Y-985960D02*
X3822682Y-976436D01*
X4184587Y-995484D02*
X4184587Y-795484D01*
X4270301Y-995484D02*
X4270301Y-890722D01*
X4270301Y-890722D02*
X4260777Y-871674D01*
X4260777Y-871674D02*
X4241730Y-862150D01*
X4241730Y-862150D02*
X4213158Y-862150D01*
X4213158Y-862150D02*
X4194110Y-871674D01*
X4194110Y-871674D02*
X4184587Y-881198D01*
X4394111Y-995484D02*
X4375063Y-985960D01*
X4375063Y-985960D02*
X4365539Y-976436D01*
X4365539Y-976436D02*
X4356015Y-957388D01*
X4356015Y-957388D02*
X4356015Y-900246D01*
X4356015Y-900246D02*
X4365539Y-881198D01*
X4365539Y-881198D02*
X4375063Y-871674D01*
X4375063Y-871674D02*
X4394111Y-862150D01*
X4394111Y-862150D02*
X4422682Y-862150D01*
X4422682Y-862150D02*
X4441730Y-871674D01*
X4441730Y-871674D02*
X4451253Y-881198D01*
X4451253Y-881198D02*
X4460777Y-900246D01*
X4460777Y-900246D02*
X4460777Y-957388D01*
X4460777Y-957388D02*
X4451253Y-976436D01*
X4451253Y-976436D02*
X4441730Y-985960D01*
X4441730Y-985960D02*
X4422682Y-995484D01*
X4422682Y-995484D02*
X4394111Y-995484D01*
X4575063Y-995484D02*
X4556015Y-985960D01*
X4556015Y-985960D02*
X4546492Y-966912D01*
X4546492Y-966912D02*
X4546492Y-795484D01*
X4727444Y-985960D02*
X4708396Y-995484D01*
X4708396Y-995484D02*
X4670301Y-995484D01*
X4670301Y-995484D02*
X4651253Y-985960D01*
X4651253Y-985960D02*
X4641730Y-966912D01*
X4641730Y-966912D02*
X4641730Y-890722D01*
X4641730Y-890722D02*
X4651253Y-871674D01*
X4651253Y-871674D02*
X4670301Y-862150D01*
X4670301Y-862150D02*
X4708396Y-862150D01*
X4708396Y-862150D02*
X4727444Y-871674D01*
X4727444Y-871674D02*
X4736968Y-890722D01*
X4736968Y-890722D02*
X4736968Y-909769D01*
X4736968Y-909769D02*
X4641730Y-928817D01*
X4813158Y-985960D02*
X4832206Y-995484D01*
X4832206Y-995484D02*
X4870301Y-995484D01*
X4870301Y-995484D02*
X4889349Y-985960D01*
X4889349Y-985960D02*
X4898873Y-966912D01*
X4898873Y-966912D02*
X4898873Y-957388D01*
X4898873Y-957388D02*
X4889349Y-938341D01*
X4889349Y-938341D02*
X4870301Y-928817D01*
X4870301Y-928817D02*
X4841730Y-928817D01*
X4841730Y-928817D02*
X4822682Y-919293D01*
X4822682Y-919293D02*
X4813158Y-900246D01*
X4813158Y-900246D02*
X4813158Y-890722D01*
X4813158Y-890722D02*
X4822682Y-871674D01*
X4822682Y-871674D02*
X4841730Y-862150D01*
X4841730Y-862150D02*
X4870301Y-862150D01*
X4870301Y-862150D02*
X4889349Y-871674D01*
X4965539Y-1071674D02*
X4975063Y-1062150D01*
X4975063Y-1062150D02*
X4994111Y-1033579D01*
X4994111Y-1033579D02*
X5003634Y-1014531D01*
X5003634Y-1014531D02*
X5013158Y-985960D01*
X5013158Y-985960D02*
X5022682Y-938341D01*
X5022682Y-938341D02*
X5022682Y-900246D01*
X5022682Y-900246D02*
X5013158Y-852627D01*
X5013158Y-852627D02*
X5003634Y-824055D01*
X5003634Y-824055D02*
X4994111Y-805008D01*
X4994111Y-805008D02*
X4975063Y-776436D01*
X4975063Y-776436D02*
X4965539Y-766912D01*
D11*
X-30000Y-1138000D02*
X-30000Y-1198000D01*
X-60000Y-1168000D02*
X0Y-1168000D01*
D10*
X298872Y-1059484D02*
X317920Y-1059484D01*
X317920Y-1059484D02*
X336967Y-1069008D01*
X336967Y-1069008D02*
X346491Y-1078531D01*
X346491Y-1078531D02*
X356015Y-1097579D01*
X356015Y-1097579D02*
X365539Y-1135674D01*
X365539Y-1135674D02*
X365539Y-1183293D01*
X365539Y-1183293D02*
X356015Y-1221389D01*
X356015Y-1221389D02*
X346491Y-1240436D01*
X346491Y-1240436D02*
X336967Y-1249960D01*
X336967Y-1249960D02*
X317920Y-1259484D01*
X317920Y-1259484D02*
X298872Y-1259484D01*
X298872Y-1259484D02*
X279824Y-1249960D01*
X279824Y-1249960D02*
X270301Y-1240436D01*
X270301Y-1240436D02*
X260777Y-1221389D01*
X260777Y-1221389D02*
X251253Y-1183293D01*
X251253Y-1183293D02*
X251253Y-1135674D01*
X251253Y-1135674D02*
X260777Y-1097579D01*
X260777Y-1097579D02*
X270301Y-1078531D01*
X270301Y-1078531D02*
X279824Y-1069008D01*
X279824Y-1069008D02*
X298872Y-1059484D01*
X451253Y-1240436D02*
X460777Y-1249960D01*
X460777Y-1249960D02*
X451253Y-1259484D01*
X451253Y-1259484D02*
X441729Y-1249960D01*
X441729Y-1249960D02*
X451253Y-1240436D01*
X451253Y-1240436D02*
X451253Y-1259484D01*
X632205Y-1059484D02*
X594110Y-1059484D01*
X594110Y-1059484D02*
X575063Y-1069008D01*
X575063Y-1069008D02*
X565539Y-1078531D01*
X565539Y-1078531D02*
X546491Y-1107103D01*
X546491Y-1107103D02*
X536967Y-1145198D01*
X536967Y-1145198D02*
X536967Y-1221389D01*
X536967Y-1221389D02*
X546491Y-1240436D01*
X546491Y-1240436D02*
X556015Y-1249960D01*
X556015Y-1249960D02*
X575063Y-1259484D01*
X575063Y-1259484D02*
X613158Y-1259484D01*
X613158Y-1259484D02*
X632205Y-1249960D01*
X632205Y-1249960D02*
X641729Y-1240436D01*
X641729Y-1240436D02*
X651253Y-1221389D01*
X651253Y-1221389D02*
X651253Y-1173770D01*
X651253Y-1173770D02*
X641729Y-1154722D01*
X641729Y-1154722D02*
X632205Y-1145198D01*
X632205Y-1145198D02*
X613158Y-1135674D01*
X613158Y-1135674D02*
X575063Y-1135674D01*
X575063Y-1135674D02*
X556015Y-1145198D01*
X556015Y-1145198D02*
X546491Y-1154722D01*
X546491Y-1154722D02*
X536967Y-1173770D01*
X775062Y-1059484D02*
X794110Y-1059484D01*
X794110Y-1059484D02*
X813158Y-1069008D01*
X813158Y-1069008D02*
X822682Y-1078531D01*
X822682Y-1078531D02*
X832205Y-1097579D01*
X832205Y-1097579D02*
X841729Y-1135674D01*
X841729Y-1135674D02*
X841729Y-1183293D01*
X841729Y-1183293D02*
X832205Y-1221389D01*
X832205Y-1221389D02*
X822682Y-1240436D01*
X822682Y-1240436D02*
X813158Y-1249960D01*
X813158Y-1249960D02*
X794110Y-1259484D01*
X794110Y-1259484D02*
X775062Y-1259484D01*
X775062Y-1259484D02*
X756015Y-1249960D01*
X756015Y-1249960D02*
X746491Y-1240436D01*
X746491Y-1240436D02*
X736967Y-1221389D01*
X736967Y-1221389D02*
X727443Y-1183293D01*
X727443Y-1183293D02*
X727443Y-1135674D01*
X727443Y-1135674D02*
X736967Y-1097579D01*
X736967Y-1097579D02*
X746491Y-1078531D01*
X746491Y-1078531D02*
X756015Y-1069008D01*
X756015Y-1069008D02*
X775062Y-1059484D01*
X965539Y-1059484D02*
X984586Y-1059484D01*
X984586Y-1059484D02*
X1003634Y-1069008D01*
X1003634Y-1069008D02*
X1013158Y-1078531D01*
X1013158Y-1078531D02*
X1022682Y-1097579D01*
X1022682Y-1097579D02*
X1032205Y-1135674D01*
X1032205Y-1135674D02*
X1032205Y-1183293D01*
X1032205Y-1183293D02*
X1022682Y-1221389D01*
X1022682Y-1221389D02*
X1013158Y-1240436D01*
X1013158Y-1240436D02*
X1003634Y-1249960D01*
X1003634Y-1249960D02*
X984586Y-1259484D01*
X984586Y-1259484D02*
X965539Y-1259484D01*
X965539Y-1259484D02*
X946491Y-1249960D01*
X946491Y-1249960D02*
X936967Y-1240436D01*
X936967Y-1240436D02*
X927443Y-1221389D01*
X927443Y-1221389D02*
X917920Y-1183293D01*
X917920Y-1183293D02*
X917920Y-1135674D01*
X917920Y-1135674D02*
X927443Y-1097579D01*
X927443Y-1097579D02*
X936967Y-1078531D01*
X936967Y-1078531D02*
X946491Y-1069008D01*
X946491Y-1069008D02*
X965539Y-1059484D01*
X1117920Y-1259484D02*
X1117920Y-1126150D01*
X1117920Y-1145198D02*
X1127444Y-1135674D01*
X1127444Y-1135674D02*
X1146491Y-1126150D01*
X1146491Y-1126150D02*
X1175063Y-1126150D01*
X1175063Y-1126150D02*
X1194110Y-1135674D01*
X1194110Y-1135674D02*
X1203634Y-1154722D01*
X1203634Y-1154722D02*
X1203634Y-1259484D01*
X1203634Y-1154722D02*
X1213158Y-1135674D01*
X1213158Y-1135674D02*
X1232205Y-1126150D01*
X1232205Y-1126150D02*
X1260777Y-1126150D01*
X1260777Y-1126150D02*
X1279825Y-1135674D01*
X1279825Y-1135674D02*
X1289348Y-1154722D01*
X1289348Y-1154722D02*
X1289348Y-1259484D01*
X1384586Y-1259484D02*
X1384586Y-1126150D01*
X1384586Y-1145198D02*
X1394110Y-1135674D01*
X1394110Y-1135674D02*
X1413158Y-1126150D01*
X1413158Y-1126150D02*
X1441729Y-1126150D01*
X1441729Y-1126150D02*
X1460777Y-1135674D01*
X1460777Y-1135674D02*
X1470301Y-1154722D01*
X1470301Y-1154722D02*
X1470301Y-1259484D01*
X1470301Y-1154722D02*
X1479824Y-1135674D01*
X1479824Y-1135674D02*
X1498872Y-1126150D01*
X1498872Y-1126150D02*
X1527443Y-1126150D01*
X1527443Y-1126150D02*
X1546491Y-1135674D01*
X1546491Y-1135674D02*
X1556015Y-1154722D01*
X1556015Y-1154722D02*
X1556015Y-1259484D01*
X1946491Y-1049960D02*
X1775063Y-1307103D01*
X2203634Y-1059484D02*
X2222682Y-1059484D01*
X2222682Y-1059484D02*
X2241729Y-1069008D01*
X2241729Y-1069008D02*
X2251253Y-1078531D01*
X2251253Y-1078531D02*
X2260777Y-1097579D01*
X2260777Y-1097579D02*
X2270301Y-1135674D01*
X2270301Y-1135674D02*
X2270301Y-1183293D01*
X2270301Y-1183293D02*
X2260777Y-1221389D01*
X2260777Y-1221389D02*
X2251253Y-1240436D01*
X2251253Y-1240436D02*
X2241729Y-1249960D01*
X2241729Y-1249960D02*
X2222682Y-1259484D01*
X2222682Y-1259484D02*
X2203634Y-1259484D01*
X2203634Y-1259484D02*
X2184587Y-1249960D01*
X2184587Y-1249960D02*
X2175063Y-1240436D01*
X2175063Y-1240436D02*
X2165539Y-1221389D01*
X2165539Y-1221389D02*
X2156015Y-1183293D01*
X2156015Y-1183293D02*
X2156015Y-1135674D01*
X2156015Y-1135674D02*
X2165539Y-1097579D01*
X2165539Y-1097579D02*
X2175063Y-1078531D01*
X2175063Y-1078531D02*
X2184587Y-1069008D01*
X2184587Y-1069008D02*
X2203634Y-1059484D01*
X2356015Y-1240436D02*
X2365539Y-1249960D01*
X2365539Y-1249960D02*
X2356015Y-1259484D01*
X2356015Y-1259484D02*
X2346491Y-1249960D01*
X2346491Y-1249960D02*
X2356015Y-1240436D01*
X2356015Y-1240436D02*
X2356015Y-1259484D01*
X2489348Y-1059484D02*
X2508396Y-1059484D01*
X2508396Y-1059484D02*
X2527444Y-1069008D01*
X2527444Y-1069008D02*
X2536968Y-1078531D01*
X2536968Y-1078531D02*
X2546491Y-1097579D01*
X2546491Y-1097579D02*
X2556015Y-1135674D01*
X2556015Y-1135674D02*
X2556015Y-1183293D01*
X2556015Y-1183293D02*
X2546491Y-1221389D01*
X2546491Y-1221389D02*
X2536968Y-1240436D01*
X2536968Y-1240436D02*
X2527444Y-1249960D01*
X2527444Y-1249960D02*
X2508396Y-1259484D01*
X2508396Y-1259484D02*
X2489348Y-1259484D01*
X2489348Y-1259484D02*
X2470301Y-1249960D01*
X2470301Y-1249960D02*
X2460777Y-1240436D01*
X2460777Y-1240436D02*
X2451253Y-1221389D01*
X2451253Y-1221389D02*
X2441729Y-1183293D01*
X2441729Y-1183293D02*
X2441729Y-1135674D01*
X2441729Y-1135674D02*
X2451253Y-1097579D01*
X2451253Y-1097579D02*
X2460777Y-1078531D01*
X2460777Y-1078531D02*
X2470301Y-1069008D01*
X2470301Y-1069008D02*
X2489348Y-1059484D01*
X2632206Y-1078531D02*
X2641729Y-1069008D01*
X2641729Y-1069008D02*
X2660777Y-1059484D01*
X2660777Y-1059484D02*
X2708396Y-1059484D01*
X2708396Y-1059484D02*
X2727444Y-1069008D01*
X2727444Y-1069008D02*
X2736968Y-1078531D01*
X2736968Y-1078531D02*
X2746491Y-1097579D01*
X2746491Y-1097579D02*
X2746491Y-1116627D01*
X2746491Y-1116627D02*
X2736968Y-1145198D01*
X2736968Y-1145198D02*
X2622682Y-1259484D01*
X2622682Y-1259484D02*
X2746491Y-1259484D01*
X2813158Y-1059484D02*
X2936967Y-1059484D01*
X2936967Y-1059484D02*
X2870301Y-1135674D01*
X2870301Y-1135674D02*
X2898872Y-1135674D01*
X2898872Y-1135674D02*
X2917920Y-1145198D01*
X2917920Y-1145198D02*
X2927444Y-1154722D01*
X2927444Y-1154722D02*
X2936967Y-1173770D01*
X2936967Y-1173770D02*
X2936967Y-1221389D01*
X2936967Y-1221389D02*
X2927444Y-1240436D01*
X2927444Y-1240436D02*
X2917920Y-1249960D01*
X2917920Y-1249960D02*
X2898872Y-1259484D01*
X2898872Y-1259484D02*
X2841729Y-1259484D01*
X2841729Y-1259484D02*
X2822682Y-1249960D01*
X2822682Y-1249960D02*
X2813158Y-1240436D01*
X3108396Y-1059484D02*
X3070301Y-1059484D01*
X3070301Y-1059484D02*
X3051253Y-1069008D01*
X3051253Y-1069008D02*
X3041729Y-1078531D01*
X3041729Y-1078531D02*
X3022682Y-1107103D01*
X3022682Y-1107103D02*
X3013158Y-1145198D01*
X3013158Y-1145198D02*
X3013158Y-1221389D01*
X3013158Y-1221389D02*
X3022682Y-1240436D01*
X3022682Y-1240436D02*
X3032206Y-1249960D01*
X3032206Y-1249960D02*
X3051253Y-1259484D01*
X3051253Y-1259484D02*
X3089348Y-1259484D01*
X3089348Y-1259484D02*
X3108396Y-1249960D01*
X3108396Y-1249960D02*
X3117920Y-1240436D01*
X3117920Y-1240436D02*
X3127444Y-1221389D01*
X3127444Y-1221389D02*
X3127444Y-1173770D01*
X3127444Y-1173770D02*
X3117920Y-1154722D01*
X3117920Y-1154722D02*
X3108396Y-1145198D01*
X3108396Y-1145198D02*
X3089348Y-1135674D01*
X3089348Y-1135674D02*
X3051253Y-1135674D01*
X3051253Y-1135674D02*
X3032206Y-1145198D01*
X3032206Y-1145198D02*
X3022682Y-1154722D01*
X3022682Y-1154722D02*
X3013158Y-1173770D01*
X3203634Y-1059484D02*
X3203634Y-1097579D01*
X3279825Y-1059484D02*
X3279825Y-1097579D01*
X3575063Y-1335674D02*
X3565539Y-1326150D01*
X3565539Y-1326150D02*
X3546491Y-1297579D01*
X3546491Y-1297579D02*
X3536968Y-1278531D01*
X3536968Y-1278531D02*
X3527444Y-1249960D01*
X3527444Y-1249960D02*
X3517920Y-1202341D01*
X3517920Y-1202341D02*
X3517920Y-1164246D01*
X3517920Y-1164246D02*
X3527444Y-1116627D01*
X3527444Y-1116627D02*
X3536968Y-1088055D01*
X3536968Y-1088055D02*
X3546491Y-1069008D01*
X3546491Y-1069008D02*
X3565539Y-1040436D01*
X3565539Y-1040436D02*
X3575063Y-1030912D01*
X3746491Y-1059484D02*
X3651253Y-1059484D01*
X3651253Y-1059484D02*
X3641729Y-1154722D01*
X3641729Y-1154722D02*
X3651253Y-1145198D01*
X3651253Y-1145198D02*
X3670301Y-1135674D01*
X3670301Y-1135674D02*
X3717920Y-1135674D01*
X3717920Y-1135674D02*
X3736968Y-1145198D01*
X3736968Y-1145198D02*
X3746491Y-1154722D01*
X3746491Y-1154722D02*
X3756015Y-1173770D01*
X3756015Y-1173770D02*
X3756015Y-1221389D01*
X3756015Y-1221389D02*
X3746491Y-1240436D01*
X3746491Y-1240436D02*
X3736968Y-1249960D01*
X3736968Y-1249960D02*
X3717920Y-1259484D01*
X3717920Y-1259484D02*
X3670301Y-1259484D01*
X3670301Y-1259484D02*
X3651253Y-1249960D01*
X3651253Y-1249960D02*
X3641729Y-1240436D01*
X3851253Y-1259484D02*
X3889348Y-1259484D01*
X3889348Y-1259484D02*
X3908396Y-1249960D01*
X3908396Y-1249960D02*
X3917920Y-1240436D01*
X3917920Y-1240436D02*
X3936968Y-1211865D01*
X3936968Y-1211865D02*
X3946491Y-1173770D01*
X3946491Y-1173770D02*
X3946491Y-1097579D01*
X3946491Y-1097579D02*
X3936968Y-1078531D01*
X3936968Y-1078531D02*
X3927444Y-1069008D01*
X3927444Y-1069008D02*
X3908396Y-1059484D01*
X3908396Y-1059484D02*
X3870301Y-1059484D01*
X3870301Y-1059484D02*
X3851253Y-1069008D01*
X3851253Y-1069008D02*
X3841729Y-1078531D01*
X3841729Y-1078531D02*
X3832206Y-1097579D01*
X3832206Y-1097579D02*
X3832206Y-1145198D01*
X3832206Y-1145198D02*
X3841729Y-1164246D01*
X3841729Y-1164246D02*
X3851253Y-1173770D01*
X3851253Y-1173770D02*
X3870301Y-1183293D01*
X3870301Y-1183293D02*
X3908396Y-1183293D01*
X3908396Y-1183293D02*
X3927444Y-1173770D01*
X3927444Y-1173770D02*
X3936968Y-1164246D01*
X3936968Y-1164246D02*
X3946491Y-1145198D01*
X4184587Y-1259484D02*
X4184587Y-1059484D01*
X4270301Y-1259484D02*
X4270301Y-1154722D01*
X4270301Y-1154722D02*
X4260777Y-1135674D01*
X4260777Y-1135674D02*
X4241730Y-1126150D01*
X4241730Y-1126150D02*
X4213158Y-1126150D01*
X4213158Y-1126150D02*
X4194110Y-1135674D01*
X4194110Y-1135674D02*
X4184587Y-1145198D01*
X4394111Y-1259484D02*
X4375063Y-1249960D01*
X4375063Y-1249960D02*
X4365539Y-1240436D01*
X4365539Y-1240436D02*
X4356015Y-1221389D01*
X4356015Y-1221389D02*
X4356015Y-1164246D01*
X4356015Y-1164246D02*
X4365539Y-1145198D01*
X4365539Y-1145198D02*
X4375063Y-1135674D01*
X4375063Y-1135674D02*
X4394111Y-1126150D01*
X4394111Y-1126150D02*
X4422682Y-1126150D01*
X4422682Y-1126150D02*
X4441730Y-1135674D01*
X4441730Y-1135674D02*
X4451253Y-1145198D01*
X4451253Y-1145198D02*
X4460777Y-1164246D01*
X4460777Y-1164246D02*
X4460777Y-1221389D01*
X4460777Y-1221389D02*
X4451253Y-1240436D01*
X4451253Y-1240436D02*
X4441730Y-1249960D01*
X4441730Y-1249960D02*
X4422682Y-1259484D01*
X4422682Y-1259484D02*
X4394111Y-1259484D01*
X4575063Y-1259484D02*
X4556015Y-1249960D01*
X4556015Y-1249960D02*
X4546492Y-1230912D01*
X4546492Y-1230912D02*
X4546492Y-1059484D01*
X4727444Y-1249960D02*
X4708396Y-1259484D01*
X4708396Y-1259484D02*
X4670301Y-1259484D01*
X4670301Y-1259484D02*
X4651253Y-1249960D01*
X4651253Y-1249960D02*
X4641730Y-1230912D01*
X4641730Y-1230912D02*
X4641730Y-1154722D01*
X4641730Y-1154722D02*
X4651253Y-1135674D01*
X4651253Y-1135674D02*
X4670301Y-1126150D01*
X4670301Y-1126150D02*
X4708396Y-1126150D01*
X4708396Y-1126150D02*
X4727444Y-1135674D01*
X4727444Y-1135674D02*
X4736968Y-1154722D01*
X4736968Y-1154722D02*
X4736968Y-1173770D01*
X4736968Y-1173770D02*
X4641730Y-1192817D01*
X4813158Y-1249960D02*
X4832206Y-1259484D01*
X4832206Y-1259484D02*
X4870301Y-1259484D01*
X4870301Y-1259484D02*
X4889349Y-1249960D01*
X4889349Y-1249960D02*
X4898873Y-1230912D01*
X4898873Y-1230912D02*
X4898873Y-1221389D01*
X4898873Y-1221389D02*
X4889349Y-1202341D01*
X4889349Y-1202341D02*
X4870301Y-1192817D01*
X4870301Y-1192817D02*
X4841730Y-1192817D01*
X4841730Y-1192817D02*
X4822682Y-1183293D01*
X4822682Y-1183293D02*
X4813158Y-1164246D01*
X4813158Y-1164246D02*
X4813158Y-1154722D01*
X4813158Y-1154722D02*
X4822682Y-1135674D01*
X4822682Y-1135674D02*
X4841730Y-1126150D01*
X4841730Y-1126150D02*
X4870301Y-1126150D01*
X4870301Y-1126150D02*
X4889349Y-1135674D01*
X4965539Y-1335674D02*
X4975063Y-1326150D01*
X4975063Y-1326150D02*
X4994111Y-1297579D01*
X4994111Y-1297579D02*
X5003634Y-1278531D01*
X5003634Y-1278531D02*
X5013158Y-1249960D01*
X5013158Y-1249960D02*
X5022682Y-1202341D01*
X5022682Y-1202341D02*
X5022682Y-1164246D01*
X5022682Y-1164246D02*
X5013158Y-1116627D01*
X5013158Y-1116627D02*
X5003634Y-1088055D01*
X5003634Y-1088055D02*
X4994111Y-1069008D01*
X4994111Y-1069008D02*
X4975063Y-1040436D01*
X4975063Y-1040436D02*
X4965539Y-1030912D01*
D11*
X-8787Y-1453213D02*
X-8787Y-1410787D01*
X-51213Y-1410787D01*
X-51213Y-1453213D01*
X-8787Y-1453213D01*
D10*
X298872Y-1323484D02*
X317920Y-1323484D01*
X317920Y-1323484D02*
X336967Y-1333008D01*
X336967Y-1333008D02*
X346491Y-1342531D01*
X346491Y-1342531D02*
X356015Y-1361579D01*
X356015Y-1361579D02*
X365539Y-1399674D01*
X365539Y-1399674D02*
X365539Y-1447293D01*
X365539Y-1447293D02*
X356015Y-1485388D01*
X356015Y-1485388D02*
X346491Y-1504436D01*
X346491Y-1504436D02*
X336967Y-1513960D01*
X336967Y-1513960D02*
X317920Y-1523484D01*
X317920Y-1523484D02*
X298872Y-1523484D01*
X298872Y-1523484D02*
X279824Y-1513960D01*
X279824Y-1513960D02*
X270301Y-1504436D01*
X270301Y-1504436D02*
X260777Y-1485388D01*
X260777Y-1485388D02*
X251253Y-1447293D01*
X251253Y-1447293D02*
X251253Y-1399674D01*
X251253Y-1399674D02*
X260777Y-1361579D01*
X260777Y-1361579D02*
X270301Y-1342531D01*
X270301Y-1342531D02*
X279824Y-1333008D01*
X279824Y-1333008D02*
X298872Y-1323484D01*
X451253Y-1504436D02*
X460777Y-1513960D01*
X460777Y-1513960D02*
X451253Y-1523484D01*
X451253Y-1523484D02*
X441729Y-1513960D01*
X441729Y-1513960D02*
X451253Y-1504436D01*
X451253Y-1504436D02*
X451253Y-1523484D01*
X632205Y-1323484D02*
X594110Y-1323484D01*
X594110Y-1323484D02*
X575063Y-1333008D01*
X575063Y-1333008D02*
X565539Y-1342531D01*
X565539Y-1342531D02*
X546491Y-1371103D01*
X546491Y-1371103D02*
X536967Y-1409198D01*
X536967Y-1409198D02*
X536967Y-1485388D01*
X536967Y-1485388D02*
X546491Y-1504436D01*
X546491Y-1504436D02*
X556015Y-1513960D01*
X556015Y-1513960D02*
X575063Y-1523484D01*
X575063Y-1523484D02*
X613158Y-1523484D01*
X613158Y-1523484D02*
X632205Y-1513960D01*
X632205Y-1513960D02*
X641729Y-1504436D01*
X641729Y-1504436D02*
X651253Y-1485388D01*
X651253Y-1485388D02*
X651253Y-1437769D01*
X651253Y-1437769D02*
X641729Y-1418722D01*
X641729Y-1418722D02*
X632205Y-1409198D01*
X632205Y-1409198D02*
X613158Y-1399674D01*
X613158Y-1399674D02*
X575063Y-1399674D01*
X575063Y-1399674D02*
X556015Y-1409198D01*
X556015Y-1409198D02*
X546491Y-1418722D01*
X546491Y-1418722D02*
X536967Y-1437769D01*
X775062Y-1323484D02*
X794110Y-1323484D01*
X794110Y-1323484D02*
X813158Y-1333008D01*
X813158Y-1333008D02*
X822682Y-1342531D01*
X822682Y-1342531D02*
X832205Y-1361579D01*
X832205Y-1361579D02*
X841729Y-1399674D01*
X841729Y-1399674D02*
X841729Y-1447293D01*
X841729Y-1447293D02*
X832205Y-1485388D01*
X832205Y-1485388D02*
X822682Y-1504436D01*
X822682Y-1504436D02*
X813158Y-1513960D01*
X813158Y-1513960D02*
X794110Y-1523484D01*
X794110Y-1523484D02*
X775062Y-1523484D01*
X775062Y-1523484D02*
X756015Y-1513960D01*
X756015Y-1513960D02*
X746491Y-1504436D01*
X746491Y-1504436D02*
X736967Y-1485388D01*
X736967Y-1485388D02*
X727443Y-1447293D01*
X727443Y-1447293D02*
X727443Y-1399674D01*
X727443Y-1399674D02*
X736967Y-1361579D01*
X736967Y-1361579D02*
X746491Y-1342531D01*
X746491Y-1342531D02*
X756015Y-1333008D01*
X756015Y-1333008D02*
X775062Y-1323484D01*
X965539Y-1323484D02*
X984586Y-1323484D01*
X984586Y-1323484D02*
X1003634Y-1333008D01*
X1003634Y-1333008D02*
X1013158Y-1342531D01*
X1013158Y-1342531D02*
X1022682Y-1361579D01*
X1022682Y-1361579D02*
X1032205Y-1399674D01*
X1032205Y-1399674D02*
X1032205Y-1447293D01*
X1032205Y-1447293D02*
X1022682Y-1485388D01*
X1022682Y-1485388D02*
X1013158Y-1504436D01*
X1013158Y-1504436D02*
X1003634Y-1513960D01*
X1003634Y-1513960D02*
X984586Y-1523484D01*
X984586Y-1523484D02*
X965539Y-1523484D01*
X965539Y-1523484D02*
X946491Y-1513960D01*
X946491Y-1513960D02*
X936967Y-1504436D01*
X936967Y-1504436D02*
X927443Y-1485388D01*
X927443Y-1485388D02*
X917920Y-1447293D01*
X917920Y-1447293D02*
X917920Y-1399674D01*
X917920Y-1399674D02*
X927443Y-1361579D01*
X927443Y-1361579D02*
X936967Y-1342531D01*
X936967Y-1342531D02*
X946491Y-1333008D01*
X946491Y-1333008D02*
X965539Y-1323484D01*
X1117920Y-1523484D02*
X1117920Y-1390150D01*
X1117920Y-1409198D02*
X1127444Y-1399674D01*
X1127444Y-1399674D02*
X1146491Y-1390150D01*
X1146491Y-1390150D02*
X1175063Y-1390150D01*
X1175063Y-1390150D02*
X1194110Y-1399674D01*
X1194110Y-1399674D02*
X1203634Y-1418722D01*
X1203634Y-1418722D02*
X1203634Y-1523484D01*
X1203634Y-1418722D02*
X1213158Y-1399674D01*
X1213158Y-1399674D02*
X1232205Y-1390150D01*
X1232205Y-1390150D02*
X1260777Y-1390150D01*
X1260777Y-1390150D02*
X1279825Y-1399674D01*
X1279825Y-1399674D02*
X1289348Y-1418722D01*
X1289348Y-1418722D02*
X1289348Y-1523484D01*
X1384586Y-1523484D02*
X1384586Y-1390150D01*
X1384586Y-1409198D02*
X1394110Y-1399674D01*
X1394110Y-1399674D02*
X1413158Y-1390150D01*
X1413158Y-1390150D02*
X1441729Y-1390150D01*
X1441729Y-1390150D02*
X1460777Y-1399674D01*
X1460777Y-1399674D02*
X1470301Y-1418722D01*
X1470301Y-1418722D02*
X1470301Y-1523484D01*
X1470301Y-1418722D02*
X1479824Y-1399674D01*
X1479824Y-1399674D02*
X1498872Y-1390150D01*
X1498872Y-1390150D02*
X1527443Y-1390150D01*
X1527443Y-1390150D02*
X1546491Y-1399674D01*
X1546491Y-1399674D02*
X1556015Y-1418722D01*
X1556015Y-1418722D02*
X1556015Y-1523484D01*
X1946491Y-1313960D02*
X1775063Y-1571103D01*
X2203634Y-1323484D02*
X2222682Y-1323484D01*
X2222682Y-1323484D02*
X2241729Y-1333008D01*
X2241729Y-1333008D02*
X2251253Y-1342531D01*
X2251253Y-1342531D02*
X2260777Y-1361579D01*
X2260777Y-1361579D02*
X2270301Y-1399674D01*
X2270301Y-1399674D02*
X2270301Y-1447293D01*
X2270301Y-1447293D02*
X2260777Y-1485388D01*
X2260777Y-1485388D02*
X2251253Y-1504436D01*
X2251253Y-1504436D02*
X2241729Y-1513960D01*
X2241729Y-1513960D02*
X2222682Y-1523484D01*
X2222682Y-1523484D02*
X2203634Y-1523484D01*
X2203634Y-1523484D02*
X2184587Y-1513960D01*
X2184587Y-1513960D02*
X2175063Y-1504436D01*
X2175063Y-1504436D02*
X2165539Y-1485388D01*
X2165539Y-1485388D02*
X2156015Y-1447293D01*
X2156015Y-1447293D02*
X2156015Y-1399674D01*
X2156015Y-1399674D02*
X2165539Y-1361579D01*
X2165539Y-1361579D02*
X2175063Y-1342531D01*
X2175063Y-1342531D02*
X2184587Y-1333008D01*
X2184587Y-1333008D02*
X2203634Y-1323484D01*
X2356015Y-1504436D02*
X2365539Y-1513960D01*
X2365539Y-1513960D02*
X2356015Y-1523484D01*
X2356015Y-1523484D02*
X2346491Y-1513960D01*
X2346491Y-1513960D02*
X2356015Y-1504436D01*
X2356015Y-1504436D02*
X2356015Y-1523484D01*
X2489348Y-1323484D02*
X2508396Y-1323484D01*
X2508396Y-1323484D02*
X2527444Y-1333008D01*
X2527444Y-1333008D02*
X2536968Y-1342531D01*
X2536968Y-1342531D02*
X2546491Y-1361579D01*
X2546491Y-1361579D02*
X2556015Y-1399674D01*
X2556015Y-1399674D02*
X2556015Y-1447293D01*
X2556015Y-1447293D02*
X2546491Y-1485388D01*
X2546491Y-1485388D02*
X2536968Y-1504436D01*
X2536968Y-1504436D02*
X2527444Y-1513960D01*
X2527444Y-1513960D02*
X2508396Y-1523484D01*
X2508396Y-1523484D02*
X2489348Y-1523484D01*
X2489348Y-1523484D02*
X2470301Y-1513960D01*
X2470301Y-1513960D02*
X2460777Y-1504436D01*
X2460777Y-1504436D02*
X2451253Y-1485388D01*
X2451253Y-1485388D02*
X2441729Y-1447293D01*
X2441729Y-1447293D02*
X2441729Y-1399674D01*
X2441729Y-1399674D02*
X2451253Y-1361579D01*
X2451253Y-1361579D02*
X2460777Y-1342531D01*
X2460777Y-1342531D02*
X2470301Y-1333008D01*
X2470301Y-1333008D02*
X2489348Y-1323484D01*
X2632206Y-1342531D02*
X2641729Y-1333008D01*
X2641729Y-1333008D02*
X2660777Y-1323484D01*
X2660777Y-1323484D02*
X2708396Y-1323484D01*
X2708396Y-1323484D02*
X2727444Y-1333008D01*
X2727444Y-1333008D02*
X2736968Y-1342531D01*
X2736968Y-1342531D02*
X2746491Y-1361579D01*
X2746491Y-1361579D02*
X2746491Y-1380627D01*
X2746491Y-1380627D02*
X2736968Y-1409198D01*
X2736968Y-1409198D02*
X2622682Y-1523484D01*
X2622682Y-1523484D02*
X2746491Y-1523484D01*
X2813158Y-1323484D02*
X2936967Y-1323484D01*
X2936967Y-1323484D02*
X2870301Y-1399674D01*
X2870301Y-1399674D02*
X2898872Y-1399674D01*
X2898872Y-1399674D02*
X2917920Y-1409198D01*
X2917920Y-1409198D02*
X2927444Y-1418722D01*
X2927444Y-1418722D02*
X2936967Y-1437769D01*
X2936967Y-1437769D02*
X2936967Y-1485388D01*
X2936967Y-1485388D02*
X2927444Y-1504436D01*
X2927444Y-1504436D02*
X2917920Y-1513960D01*
X2917920Y-1513960D02*
X2898872Y-1523484D01*
X2898872Y-1523484D02*
X2841729Y-1523484D01*
X2841729Y-1523484D02*
X2822682Y-1513960D01*
X2822682Y-1513960D02*
X2813158Y-1504436D01*
X3108396Y-1323484D02*
X3070301Y-1323484D01*
X3070301Y-1323484D02*
X3051253Y-1333008D01*
X3051253Y-1333008D02*
X3041729Y-1342531D01*
X3041729Y-1342531D02*
X3022682Y-1371103D01*
X3022682Y-1371103D02*
X3013158Y-1409198D01*
X3013158Y-1409198D02*
X3013158Y-1485388D01*
X3013158Y-1485388D02*
X3022682Y-1504436D01*
X3022682Y-1504436D02*
X3032206Y-1513960D01*
X3032206Y-1513960D02*
X3051253Y-1523484D01*
X3051253Y-1523484D02*
X3089348Y-1523484D01*
X3089348Y-1523484D02*
X3108396Y-1513960D01*
X3108396Y-1513960D02*
X3117920Y-1504436D01*
X3117920Y-1504436D02*
X3127444Y-1485388D01*
X3127444Y-1485388D02*
X3127444Y-1437769D01*
X3127444Y-1437769D02*
X3117920Y-1418722D01*
X3117920Y-1418722D02*
X3108396Y-1409198D01*
X3108396Y-1409198D02*
X3089348Y-1399674D01*
X3089348Y-1399674D02*
X3051253Y-1399674D01*
X3051253Y-1399674D02*
X3032206Y-1409198D01*
X3032206Y-1409198D02*
X3022682Y-1418722D01*
X3022682Y-1418722D02*
X3013158Y-1437769D01*
X3203634Y-1323484D02*
X3203634Y-1361579D01*
X3279825Y-1323484D02*
X3279825Y-1361579D01*
X3575063Y-1599674D02*
X3565539Y-1590150D01*
X3565539Y-1590150D02*
X3546491Y-1561579D01*
X3546491Y-1561579D02*
X3536968Y-1542531D01*
X3536968Y-1542531D02*
X3527444Y-1513960D01*
X3527444Y-1513960D02*
X3517920Y-1466341D01*
X3517920Y-1466341D02*
X3517920Y-1428246D01*
X3517920Y-1428246D02*
X3527444Y-1380627D01*
X3527444Y-1380627D02*
X3536968Y-1352055D01*
X3536968Y-1352055D02*
X3546491Y-1333008D01*
X3546491Y-1333008D02*
X3565539Y-1304436D01*
X3565539Y-1304436D02*
X3575063Y-1294912D01*
X3689348Y-1323484D02*
X3708396Y-1323484D01*
X3708396Y-1323484D02*
X3727444Y-1333008D01*
X3727444Y-1333008D02*
X3736968Y-1342531D01*
X3736968Y-1342531D02*
X3746491Y-1361579D01*
X3746491Y-1361579D02*
X3756015Y-1399674D01*
X3756015Y-1399674D02*
X3756015Y-1447293D01*
X3756015Y-1447293D02*
X3746491Y-1485388D01*
X3746491Y-1485388D02*
X3736968Y-1504436D01*
X3736968Y-1504436D02*
X3727444Y-1513960D01*
X3727444Y-1513960D02*
X3708396Y-1523484D01*
X3708396Y-1523484D02*
X3689348Y-1523484D01*
X3689348Y-1523484D02*
X3670301Y-1513960D01*
X3670301Y-1513960D02*
X3660777Y-1504436D01*
X3660777Y-1504436D02*
X3651253Y-1485388D01*
X3651253Y-1485388D02*
X3641729Y-1447293D01*
X3641729Y-1447293D02*
X3641729Y-1399674D01*
X3641729Y-1399674D02*
X3651253Y-1361579D01*
X3651253Y-1361579D02*
X3660777Y-1342531D01*
X3660777Y-1342531D02*
X3670301Y-1333008D01*
X3670301Y-1333008D02*
X3689348Y-1323484D01*
X3994110Y-1523484D02*
X3994110Y-1323484D01*
X4079825Y-1523484D02*
X4079825Y-1418722D01*
X4079825Y-1418722D02*
X4070301Y-1399674D01*
X4070301Y-1399674D02*
X4051253Y-1390150D01*
X4051253Y-1390150D02*
X4022682Y-1390150D01*
X4022682Y-1390150D02*
X4003634Y-1399674D01*
X4003634Y-1399674D02*
X3994110Y-1409198D01*
X4203634Y-1523484D02*
X4184587Y-1513960D01*
X4184587Y-1513960D02*
X4175063Y-1504436D01*
X4175063Y-1504436D02*
X4165539Y-1485388D01*
X4165539Y-1485388D02*
X4165539Y-1428246D01*
X4165539Y-1428246D02*
X4175063Y-1409198D01*
X4175063Y-1409198D02*
X4184587Y-1399674D01*
X4184587Y-1399674D02*
X4203634Y-1390150D01*
X4203634Y-1390150D02*
X4232206Y-1390150D01*
X4232206Y-1390150D02*
X4251253Y-1399674D01*
X4251253Y-1399674D02*
X4260777Y-1409198D01*
X4260777Y-1409198D02*
X4270301Y-1428246D01*
X4270301Y-1428246D02*
X4270301Y-1485388D01*
X4270301Y-1485388D02*
X4260777Y-1504436D01*
X4260777Y-1504436D02*
X4251253Y-1513960D01*
X4251253Y-1513960D02*
X4232206Y-1523484D01*
X4232206Y-1523484D02*
X4203634Y-1523484D01*
X4384587Y-1523484D02*
X4365539Y-1513960D01*
X4365539Y-1513960D02*
X4356015Y-1494912D01*
X4356015Y-1494912D02*
X4356015Y-1323484D01*
X4536968Y-1513960D02*
X4517920Y-1523484D01*
X4517920Y-1523484D02*
X4479825Y-1523484D01*
X4479825Y-1523484D02*
X4460777Y-1513960D01*
X4460777Y-1513960D02*
X4451253Y-1494912D01*
X4451253Y-1494912D02*
X4451253Y-1418722D01*
X4451253Y-1418722D02*
X4460777Y-1399674D01*
X4460777Y-1399674D02*
X4479825Y-1390150D01*
X4479825Y-1390150D02*
X4517920Y-1390150D01*
X4517920Y-1390150D02*
X4536968Y-1399674D01*
X4536968Y-1399674D02*
X4546492Y-1418722D01*
X4546492Y-1418722D02*
X4546492Y-1437769D01*
X4546492Y-1437769D02*
X4451253Y-1456817D01*
X4622682Y-1513960D02*
X4641730Y-1523484D01*
X4641730Y-1523484D02*
X4679825Y-1523484D01*
X4679825Y-1523484D02*
X4698873Y-1513960D01*
X4698873Y-1513960D02*
X4708396Y-1494912D01*
X4708396Y-1494912D02*
X4708396Y-1485388D01*
X4708396Y-1485388D02*
X4698873Y-1466341D01*
X4698873Y-1466341D02*
X4679825Y-1456817D01*
X4679825Y-1456817D02*
X4651253Y-1456817D01*
X4651253Y-1456817D02*
X4632206Y-1447293D01*
X4632206Y-1447293D02*
X4622682Y-1428246D01*
X4622682Y-1428246D02*
X4622682Y-1418722D01*
X4622682Y-1418722D02*
X4632206Y-1399674D01*
X4632206Y-1399674D02*
X4651253Y-1390150D01*
X4651253Y-1390150D02*
X4679825Y-1390150D01*
X4679825Y-1390150D02*
X4698873Y-1399674D01*
X4946492Y-1447293D02*
X5098873Y-1447293D01*
X5022682Y-1523484D02*
X5022682Y-1371103D01*
X5432206Y-1323484D02*
X5394111Y-1323484D01*
X5394111Y-1323484D02*
X5375063Y-1333008D01*
X5375063Y-1333008D02*
X5365539Y-1342531D01*
X5365539Y-1342531D02*
X5346492Y-1371103D01*
X5346492Y-1371103D02*
X5336968Y-1409198D01*
X5336968Y-1409198D02*
X5336968Y-1485388D01*
X5336968Y-1485388D02*
X5346492Y-1504436D01*
X5346492Y-1504436D02*
X5356015Y-1513960D01*
X5356015Y-1513960D02*
X5375063Y-1523484D01*
X5375063Y-1523484D02*
X5413158Y-1523484D01*
X5413158Y-1523484D02*
X5432206Y-1513960D01*
X5432206Y-1513960D02*
X5441730Y-1504436D01*
X5441730Y-1504436D02*
X5451254Y-1485388D01*
X5451254Y-1485388D02*
X5451254Y-1437769D01*
X5451254Y-1437769D02*
X5441730Y-1418722D01*
X5441730Y-1418722D02*
X5432206Y-1409198D01*
X5432206Y-1409198D02*
X5413158Y-1399674D01*
X5413158Y-1399674D02*
X5375063Y-1399674D01*
X5375063Y-1399674D02*
X5356015Y-1409198D01*
X5356015Y-1409198D02*
X5346492Y-1418722D01*
X5346492Y-1418722D02*
X5336968Y-1437769D01*
X5679825Y-1513960D02*
X5698873Y-1523484D01*
X5698873Y-1523484D02*
X5736968Y-1523484D01*
X5736968Y-1523484D02*
X5756015Y-1513960D01*
X5756015Y-1513960D02*
X5765539Y-1494912D01*
X5765539Y-1494912D02*
X5765539Y-1485388D01*
X5765539Y-1485388D02*
X5756015Y-1466341D01*
X5756015Y-1466341D02*
X5736968Y-1456817D01*
X5736968Y-1456817D02*
X5708396Y-1456817D01*
X5708396Y-1456817D02*
X5689349Y-1447293D01*
X5689349Y-1447293D02*
X5679825Y-1428246D01*
X5679825Y-1428246D02*
X5679825Y-1418722D01*
X5679825Y-1418722D02*
X5689349Y-1399674D01*
X5689349Y-1399674D02*
X5708396Y-1390150D01*
X5708396Y-1390150D02*
X5736968Y-1390150D01*
X5736968Y-1390150D02*
X5756015Y-1399674D01*
X5879825Y-1523484D02*
X5860777Y-1513960D01*
X5860777Y-1513960D02*
X5851254Y-1494912D01*
X5851254Y-1494912D02*
X5851254Y-1323484D01*
X5984587Y-1523484D02*
X5965539Y-1513960D01*
X5965539Y-1513960D02*
X5956015Y-1504436D01*
X5956015Y-1504436D02*
X5946492Y-1485388D01*
X5946492Y-1485388D02*
X5946492Y-1428246D01*
X5946492Y-1428246D02*
X5956015Y-1409198D01*
X5956015Y-1409198D02*
X5965539Y-1399674D01*
X5965539Y-1399674D02*
X5984587Y-1390150D01*
X5984587Y-1390150D02*
X6013158Y-1390150D01*
X6013158Y-1390150D02*
X6032206Y-1399674D01*
X6032206Y-1399674D02*
X6041730Y-1409198D01*
X6041730Y-1409198D02*
X6051254Y-1428246D01*
X6051254Y-1428246D02*
X6051254Y-1485388D01*
X6051254Y-1485388D02*
X6041730Y-1504436D01*
X6041730Y-1504436D02*
X6032206Y-1513960D01*
X6032206Y-1513960D02*
X6013158Y-1523484D01*
X6013158Y-1523484D02*
X5984587Y-1523484D01*
X6108396Y-1390150D02*
X6184587Y-1390150D01*
X6136968Y-1323484D02*
X6136968Y-1494912D01*
X6136968Y-1494912D02*
X6146492Y-1513960D01*
X6146492Y-1513960D02*
X6165539Y-1523484D01*
X6165539Y-1523484D02*
X6184587Y-1523484D01*
X6241730Y-1513960D02*
X6260777Y-1523484D01*
X6260777Y-1523484D02*
X6298873Y-1523484D01*
X6298873Y-1523484D02*
X6317920Y-1513960D01*
X6317920Y-1513960D02*
X6327444Y-1494912D01*
X6327444Y-1494912D02*
X6327444Y-1485388D01*
X6327444Y-1485388D02*
X6317920Y-1466341D01*
X6317920Y-1466341D02*
X6298873Y-1456817D01*
X6298873Y-1456817D02*
X6270301Y-1456817D01*
X6270301Y-1456817D02*
X6251254Y-1447293D01*
X6251254Y-1447293D02*
X6241730Y-1428246D01*
X6241730Y-1428246D02*
X6241730Y-1418722D01*
X6241730Y-1418722D02*
X6251254Y-1399674D01*
X6251254Y-1399674D02*
X6270301Y-1390150D01*
X6270301Y-1390150D02*
X6298873Y-1390150D01*
X6298873Y-1390150D02*
X6317920Y-1399674D01*
X6394111Y-1599674D02*
X6403635Y-1590150D01*
X6403635Y-1590150D02*
X6422682Y-1561579D01*
X6422682Y-1561579D02*
X6432206Y-1542531D01*
X6432206Y-1542531D02*
X6441730Y-1513960D01*
X6441730Y-1513960D02*
X6451254Y-1466341D01*
X6451254Y-1466341D02*
X6451254Y-1428246D01*
X6451254Y-1428246D02*
X6441730Y-1380627D01*
X6441730Y-1380627D02*
X6432206Y-1352055D01*
X6432206Y-1352055D02*
X6422682Y-1333008D01*
X6422682Y-1333008D02*
X6403635Y-1304436D01*
X6403635Y-1304436D02*
X6394111Y-1294912D01*
D11*
X-37500Y-1733500D02*
X0Y-1696000D01*
X-37500Y-1658500D01*
X-75000Y-1696000D01*
X-37500Y-1733500D01*
D10*
X298872Y-1587484D02*
X317920Y-1587484D01*
X317920Y-1587484D02*
X336967Y-1597008D01*
X336967Y-1597008D02*
X346491Y-1606531D01*
X346491Y-1606531D02*
X356015Y-1625579D01*
X356015Y-1625579D02*
X365539Y-1663674D01*
X365539Y-1663674D02*
X365539Y-1711293D01*
X365539Y-1711293D02*
X356015Y-1749388D01*
X356015Y-1749388D02*
X346491Y-1768436D01*
X346491Y-1768436D02*
X336967Y-1777960D01*
X336967Y-1777960D02*
X317920Y-1787484D01*
X317920Y-1787484D02*
X298872Y-1787484D01*
X298872Y-1787484D02*
X279824Y-1777960D01*
X279824Y-1777960D02*
X270301Y-1768436D01*
X270301Y-1768436D02*
X260777Y-1749388D01*
X260777Y-1749388D02*
X251253Y-1711293D01*
X251253Y-1711293D02*
X251253Y-1663674D01*
X251253Y-1663674D02*
X260777Y-1625579D01*
X260777Y-1625579D02*
X270301Y-1606531D01*
X270301Y-1606531D02*
X279824Y-1597008D01*
X279824Y-1597008D02*
X298872Y-1587484D01*
X451253Y-1768436D02*
X460777Y-1777960D01*
X460777Y-1777960D02*
X451253Y-1787484D01*
X451253Y-1787484D02*
X441729Y-1777960D01*
X441729Y-1777960D02*
X451253Y-1768436D01*
X451253Y-1768436D02*
X451253Y-1787484D01*
X527444Y-1587484D02*
X660777Y-1587484D01*
X660777Y-1587484D02*
X575063Y-1787484D01*
X832205Y-1587484D02*
X736967Y-1587484D01*
X736967Y-1587484D02*
X727443Y-1682722D01*
X727443Y-1682722D02*
X736967Y-1673198D01*
X736967Y-1673198D02*
X756015Y-1663674D01*
X756015Y-1663674D02*
X803634Y-1663674D01*
X803634Y-1663674D02*
X822682Y-1673198D01*
X822682Y-1673198D02*
X832205Y-1682722D01*
X832205Y-1682722D02*
X841729Y-1701769D01*
X841729Y-1701769D02*
X841729Y-1749388D01*
X841729Y-1749388D02*
X832205Y-1768436D01*
X832205Y-1768436D02*
X822682Y-1777960D01*
X822682Y-1777960D02*
X803634Y-1787484D01*
X803634Y-1787484D02*
X756015Y-1787484D01*
X756015Y-1787484D02*
X736967Y-1777960D01*
X736967Y-1777960D02*
X727443Y-1768436D01*
X965539Y-1587484D02*
X984586Y-1587484D01*
X984586Y-1587484D02*
X1003634Y-1597008D01*
X1003634Y-1597008D02*
X1013158Y-1606531D01*
X1013158Y-1606531D02*
X1022682Y-1625579D01*
X1022682Y-1625579D02*
X1032205Y-1663674D01*
X1032205Y-1663674D02*
X1032205Y-1711293D01*
X1032205Y-1711293D02*
X1022682Y-1749388D01*
X1022682Y-1749388D02*
X1013158Y-1768436D01*
X1013158Y-1768436D02*
X1003634Y-1777960D01*
X1003634Y-1777960D02*
X984586Y-1787484D01*
X984586Y-1787484D02*
X965539Y-1787484D01*
X965539Y-1787484D02*
X946491Y-1777960D01*
X946491Y-1777960D02*
X936967Y-1768436D01*
X936967Y-1768436D02*
X927443Y-1749388D01*
X927443Y-1749388D02*
X917920Y-1711293D01*
X917920Y-1711293D02*
X917920Y-1663674D01*
X917920Y-1663674D02*
X927443Y-1625579D01*
X927443Y-1625579D02*
X936967Y-1606531D01*
X936967Y-1606531D02*
X946491Y-1597008D01*
X946491Y-1597008D02*
X965539Y-1587484D01*
X1117920Y-1787484D02*
X1117920Y-1654150D01*
X1117920Y-1673198D02*
X1127444Y-1663674D01*
X1127444Y-1663674D02*
X1146491Y-1654150D01*
X1146491Y-1654150D02*
X1175063Y-1654150D01*
X1175063Y-1654150D02*
X1194110Y-1663674D01*
X1194110Y-1663674D02*
X1203634Y-1682722D01*
X1203634Y-1682722D02*
X1203634Y-1787484D01*
X1203634Y-1682722D02*
X1213158Y-1663674D01*
X1213158Y-1663674D02*
X1232205Y-1654150D01*
X1232205Y-1654150D02*
X1260777Y-1654150D01*
X1260777Y-1654150D02*
X1279825Y-1663674D01*
X1279825Y-1663674D02*
X1289348Y-1682722D01*
X1289348Y-1682722D02*
X1289348Y-1787484D01*
X1384586Y-1787484D02*
X1384586Y-1654150D01*
X1384586Y-1673198D02*
X1394110Y-1663674D01*
X1394110Y-1663674D02*
X1413158Y-1654150D01*
X1413158Y-1654150D02*
X1441729Y-1654150D01*
X1441729Y-1654150D02*
X1460777Y-1663674D01*
X1460777Y-1663674D02*
X1470301Y-1682722D01*
X1470301Y-1682722D02*
X1470301Y-1787484D01*
X1470301Y-1682722D02*
X1479824Y-1663674D01*
X1479824Y-1663674D02*
X1498872Y-1654150D01*
X1498872Y-1654150D02*
X1527443Y-1654150D01*
X1527443Y-1654150D02*
X1546491Y-1663674D01*
X1546491Y-1663674D02*
X1556015Y-1682722D01*
X1556015Y-1682722D02*
X1556015Y-1787484D01*
X1946491Y-1577960D02*
X1775063Y-1835103D01*
X2203634Y-1587484D02*
X2222682Y-1587484D01*
X2222682Y-1587484D02*
X2241729Y-1597008D01*
X2241729Y-1597008D02*
X2251253Y-1606531D01*
X2251253Y-1606531D02*
X2260777Y-1625579D01*
X2260777Y-1625579D02*
X2270301Y-1663674D01*
X2270301Y-1663674D02*
X2270301Y-1711293D01*
X2270301Y-1711293D02*
X2260777Y-1749388D01*
X2260777Y-1749388D02*
X2251253Y-1768436D01*
X2251253Y-1768436D02*
X2241729Y-1777960D01*
X2241729Y-1777960D02*
X2222682Y-1787484D01*
X2222682Y-1787484D02*
X2203634Y-1787484D01*
X2203634Y-1787484D02*
X2184587Y-1777960D01*
X2184587Y-1777960D02*
X2175063Y-1768436D01*
X2175063Y-1768436D02*
X2165539Y-1749388D01*
X2165539Y-1749388D02*
X2156015Y-1711293D01*
X2156015Y-1711293D02*
X2156015Y-1663674D01*
X2156015Y-1663674D02*
X2165539Y-1625579D01*
X2165539Y-1625579D02*
X2175063Y-1606531D01*
X2175063Y-1606531D02*
X2184587Y-1597008D01*
X2184587Y-1597008D02*
X2203634Y-1587484D01*
X2356015Y-1768436D02*
X2365539Y-1777960D01*
X2365539Y-1777960D02*
X2356015Y-1787484D01*
X2356015Y-1787484D02*
X2346491Y-1777960D01*
X2346491Y-1777960D02*
X2356015Y-1768436D01*
X2356015Y-1768436D02*
X2356015Y-1787484D01*
X2489348Y-1587484D02*
X2508396Y-1587484D01*
X2508396Y-1587484D02*
X2527444Y-1597008D01*
X2527444Y-1597008D02*
X2536968Y-1606531D01*
X2536968Y-1606531D02*
X2546491Y-1625579D01*
X2546491Y-1625579D02*
X2556015Y-1663674D01*
X2556015Y-1663674D02*
X2556015Y-1711293D01*
X2556015Y-1711293D02*
X2546491Y-1749388D01*
X2546491Y-1749388D02*
X2536968Y-1768436D01*
X2536968Y-1768436D02*
X2527444Y-1777960D01*
X2527444Y-1777960D02*
X2508396Y-1787484D01*
X2508396Y-1787484D02*
X2489348Y-1787484D01*
X2489348Y-1787484D02*
X2470301Y-1777960D01*
X2470301Y-1777960D02*
X2460777Y-1768436D01*
X2460777Y-1768436D02*
X2451253Y-1749388D01*
X2451253Y-1749388D02*
X2441729Y-1711293D01*
X2441729Y-1711293D02*
X2441729Y-1663674D01*
X2441729Y-1663674D02*
X2451253Y-1625579D01*
X2451253Y-1625579D02*
X2460777Y-1606531D01*
X2460777Y-1606531D02*
X2470301Y-1597008D01*
X2470301Y-1597008D02*
X2489348Y-1587484D01*
X2632206Y-1606531D02*
X2641729Y-1597008D01*
X2641729Y-1597008D02*
X2660777Y-1587484D01*
X2660777Y-1587484D02*
X2708396Y-1587484D01*
X2708396Y-1587484D02*
X2727444Y-1597008D01*
X2727444Y-1597008D02*
X2736968Y-1606531D01*
X2736968Y-1606531D02*
X2746491Y-1625579D01*
X2746491Y-1625579D02*
X2746491Y-1644627D01*
X2746491Y-1644627D02*
X2736968Y-1673198D01*
X2736968Y-1673198D02*
X2622682Y-1787484D01*
X2622682Y-1787484D02*
X2746491Y-1787484D01*
X2841729Y-1787484D02*
X2879825Y-1787484D01*
X2879825Y-1787484D02*
X2898872Y-1777960D01*
X2898872Y-1777960D02*
X2908396Y-1768436D01*
X2908396Y-1768436D02*
X2927444Y-1739865D01*
X2927444Y-1739865D02*
X2936967Y-1701769D01*
X2936967Y-1701769D02*
X2936967Y-1625579D01*
X2936967Y-1625579D02*
X2927444Y-1606531D01*
X2927444Y-1606531D02*
X2917920Y-1597008D01*
X2917920Y-1597008D02*
X2898872Y-1587484D01*
X2898872Y-1587484D02*
X2860777Y-1587484D01*
X2860777Y-1587484D02*
X2841729Y-1597008D01*
X2841729Y-1597008D02*
X2832206Y-1606531D01*
X2832206Y-1606531D02*
X2822682Y-1625579D01*
X2822682Y-1625579D02*
X2822682Y-1673198D01*
X2822682Y-1673198D02*
X2832206Y-1692246D01*
X2832206Y-1692246D02*
X2841729Y-1701769D01*
X2841729Y-1701769D02*
X2860777Y-1711293D01*
X2860777Y-1711293D02*
X2898872Y-1711293D01*
X2898872Y-1711293D02*
X2917920Y-1701769D01*
X2917920Y-1701769D02*
X2927444Y-1692246D01*
X2927444Y-1692246D02*
X2936967Y-1673198D01*
X3117920Y-1587484D02*
X3022682Y-1587484D01*
X3022682Y-1587484D02*
X3013158Y-1682722D01*
X3013158Y-1682722D02*
X3022682Y-1673198D01*
X3022682Y-1673198D02*
X3041729Y-1663674D01*
X3041729Y-1663674D02*
X3089348Y-1663674D01*
X3089348Y-1663674D02*
X3108396Y-1673198D01*
X3108396Y-1673198D02*
X3117920Y-1682722D01*
X3117920Y-1682722D02*
X3127444Y-1701769D01*
X3127444Y-1701769D02*
X3127444Y-1749388D01*
X3127444Y-1749388D02*
X3117920Y-1768436D01*
X3117920Y-1768436D02*
X3108396Y-1777960D01*
X3108396Y-1777960D02*
X3089348Y-1787484D01*
X3089348Y-1787484D02*
X3041729Y-1787484D01*
X3041729Y-1787484D02*
X3022682Y-1777960D01*
X3022682Y-1777960D02*
X3013158Y-1768436D01*
X3203634Y-1587484D02*
X3203634Y-1625579D01*
X3279825Y-1587484D02*
X3279825Y-1625579D01*
X3575063Y-1863674D02*
X3565539Y-1854150D01*
X3565539Y-1854150D02*
X3546491Y-1825579D01*
X3546491Y-1825579D02*
X3536968Y-1806531D01*
X3536968Y-1806531D02*
X3527444Y-1777960D01*
X3527444Y-1777960D02*
X3517920Y-1730341D01*
X3517920Y-1730341D02*
X3517920Y-1692246D01*
X3517920Y-1692246D02*
X3527444Y-1644627D01*
X3527444Y-1644627D02*
X3536968Y-1616055D01*
X3536968Y-1616055D02*
X3546491Y-1597008D01*
X3546491Y-1597008D02*
X3565539Y-1568436D01*
X3565539Y-1568436D02*
X3575063Y-1558912D01*
X3736968Y-1654150D02*
X3736968Y-1787484D01*
X3689348Y-1577960D02*
X3641729Y-1720817D01*
X3641729Y-1720817D02*
X3765539Y-1720817D01*
X3994110Y-1787484D02*
X3994110Y-1587484D01*
X4079825Y-1787484D02*
X4079825Y-1682722D01*
X4079825Y-1682722D02*
X4070301Y-1663674D01*
X4070301Y-1663674D02*
X4051253Y-1654150D01*
X4051253Y-1654150D02*
X4022682Y-1654150D01*
X4022682Y-1654150D02*
X4003634Y-1663674D01*
X4003634Y-1663674D02*
X3994110Y-1673198D01*
X4203634Y-1787484D02*
X4184587Y-1777960D01*
X4184587Y-1777960D02*
X4175063Y-1768436D01*
X4175063Y-1768436D02*
X4165539Y-1749388D01*
X4165539Y-1749388D02*
X4165539Y-1692246D01*
X4165539Y-1692246D02*
X4175063Y-1673198D01*
X4175063Y-1673198D02*
X4184587Y-1663674D01*
X4184587Y-1663674D02*
X4203634Y-1654150D01*
X4203634Y-1654150D02*
X4232206Y-1654150D01*
X4232206Y-1654150D02*
X4251253Y-1663674D01*
X4251253Y-1663674D02*
X4260777Y-1673198D01*
X4260777Y-1673198D02*
X4270301Y-1692246D01*
X4270301Y-1692246D02*
X4270301Y-1749388D01*
X4270301Y-1749388D02*
X4260777Y-1768436D01*
X4260777Y-1768436D02*
X4251253Y-1777960D01*
X4251253Y-1777960D02*
X4232206Y-1787484D01*
X4232206Y-1787484D02*
X4203634Y-1787484D01*
X4384587Y-1787484D02*
X4365539Y-1777960D01*
X4365539Y-1777960D02*
X4356015Y-1758912D01*
X4356015Y-1758912D02*
X4356015Y-1587484D01*
X4536968Y-1777960D02*
X4517920Y-1787484D01*
X4517920Y-1787484D02*
X4479825Y-1787484D01*
X4479825Y-1787484D02*
X4460777Y-1777960D01*
X4460777Y-1777960D02*
X4451253Y-1758912D01*
X4451253Y-1758912D02*
X4451253Y-1682722D01*
X4451253Y-1682722D02*
X4460777Y-1663674D01*
X4460777Y-1663674D02*
X4479825Y-1654150D01*
X4479825Y-1654150D02*
X4517920Y-1654150D01*
X4517920Y-1654150D02*
X4536968Y-1663674D01*
X4536968Y-1663674D02*
X4546492Y-1682722D01*
X4546492Y-1682722D02*
X4546492Y-1701769D01*
X4546492Y-1701769D02*
X4451253Y-1720817D01*
X4622682Y-1777960D02*
X4641730Y-1787484D01*
X4641730Y-1787484D02*
X4679825Y-1787484D01*
X4679825Y-1787484D02*
X4698873Y-1777960D01*
X4698873Y-1777960D02*
X4708396Y-1758912D01*
X4708396Y-1758912D02*
X4708396Y-1749388D01*
X4708396Y-1749388D02*
X4698873Y-1730341D01*
X4698873Y-1730341D02*
X4679825Y-1720817D01*
X4679825Y-1720817D02*
X4651253Y-1720817D01*
X4651253Y-1720817D02*
X4632206Y-1711293D01*
X4632206Y-1711293D02*
X4622682Y-1692246D01*
X4622682Y-1692246D02*
X4622682Y-1682722D01*
X4622682Y-1682722D02*
X4632206Y-1663674D01*
X4632206Y-1663674D02*
X4651253Y-1654150D01*
X4651253Y-1654150D02*
X4679825Y-1654150D01*
X4679825Y-1654150D02*
X4698873Y-1663674D01*
X4775063Y-1863674D02*
X4784587Y-1854150D01*
X4784587Y-1854150D02*
X4803634Y-1825579D01*
X4803634Y-1825579D02*
X4813158Y-1806531D01*
X4813158Y-1806531D02*
X4822682Y-1777960D01*
X4822682Y-1777960D02*
X4832206Y-1730341D01*
X4832206Y-1730341D02*
X4832206Y-1692246D01*
X4832206Y-1692246D02*
X4822682Y-1644627D01*
X4822682Y-1644627D02*
X4813158Y-1616055D01*
X4813158Y-1616055D02*
X4803634Y-1597008D01*
X4803634Y-1597008D02*
X4784587Y-1568436D01*
X4784587Y-1568436D02*
X4775063Y-1558912D01*
D11*
X-86360Y-1916820D02*
X0Y-2003180D01*
X0Y-1916820D02*
X-86360Y-2003180D01*
X0Y-1960000D02*
G75*
G02*
X-86360Y-1960000I-43180J0D01*
G01*
X-86360Y-1960000D02*
G75*
G02*
X0Y-1960000I43180J0D01*
G01*
D10*
X298872Y-1851484D02*
X317920Y-1851484D01*
X317920Y-1851484D02*
X336967Y-1861008D01*
X336967Y-1861008D02*
X346491Y-1870531D01*
X346491Y-1870531D02*
X356015Y-1889579D01*
X356015Y-1889579D02*
X365539Y-1927674D01*
X365539Y-1927674D02*
X365539Y-1975293D01*
X365539Y-1975293D02*
X356015Y-2013388D01*
X356015Y-2013388D02*
X346491Y-2032436D01*
X346491Y-2032436D02*
X336967Y-2041960D01*
X336967Y-2041960D02*
X317920Y-2051484D01*
X317920Y-2051484D02*
X298872Y-2051484D01*
X298872Y-2051484D02*
X279824Y-2041960D01*
X279824Y-2041960D02*
X270301Y-2032436D01*
X270301Y-2032436D02*
X260777Y-2013388D01*
X260777Y-2013388D02*
X251253Y-1975293D01*
X251253Y-1975293D02*
X251253Y-1927674D01*
X251253Y-1927674D02*
X260777Y-1889579D01*
X260777Y-1889579D02*
X270301Y-1870531D01*
X270301Y-1870531D02*
X279824Y-1861008D01*
X279824Y-1861008D02*
X298872Y-1851484D01*
X451253Y-2032436D02*
X460777Y-2041960D01*
X460777Y-2041960D02*
X451253Y-2051484D01*
X451253Y-2051484D02*
X441729Y-2041960D01*
X441729Y-2041960D02*
X451253Y-2032436D01*
X451253Y-2032436D02*
X451253Y-2051484D01*
X575063Y-1937198D02*
X556015Y-1927674D01*
X556015Y-1927674D02*
X546491Y-1918150D01*
X546491Y-1918150D02*
X536967Y-1899103D01*
X536967Y-1899103D02*
X536967Y-1889579D01*
X536967Y-1889579D02*
X546491Y-1870531D01*
X546491Y-1870531D02*
X556015Y-1861008D01*
X556015Y-1861008D02*
X575063Y-1851484D01*
X575063Y-1851484D02*
X613158Y-1851484D01*
X613158Y-1851484D02*
X632205Y-1861008D01*
X632205Y-1861008D02*
X641729Y-1870531D01*
X641729Y-1870531D02*
X651253Y-1889579D01*
X651253Y-1889579D02*
X651253Y-1899103D01*
X651253Y-1899103D02*
X641729Y-1918150D01*
X641729Y-1918150D02*
X632205Y-1927674D01*
X632205Y-1927674D02*
X613158Y-1937198D01*
X613158Y-1937198D02*
X575063Y-1937198D01*
X575063Y-1937198D02*
X556015Y-1946722D01*
X556015Y-1946722D02*
X546491Y-1956246D01*
X546491Y-1956246D02*
X536967Y-1975293D01*
X536967Y-1975293D02*
X536967Y-2013388D01*
X536967Y-2013388D02*
X546491Y-2032436D01*
X546491Y-2032436D02*
X556015Y-2041960D01*
X556015Y-2041960D02*
X575063Y-2051484D01*
X575063Y-2051484D02*
X613158Y-2051484D01*
X613158Y-2051484D02*
X632205Y-2041960D01*
X632205Y-2041960D02*
X641729Y-2032436D01*
X641729Y-2032436D02*
X651253Y-2013388D01*
X651253Y-2013388D02*
X651253Y-1975293D01*
X651253Y-1975293D02*
X641729Y-1956246D01*
X641729Y-1956246D02*
X632205Y-1946722D01*
X632205Y-1946722D02*
X613158Y-1937198D01*
X822682Y-1851484D02*
X784586Y-1851484D01*
X784586Y-1851484D02*
X765539Y-1861008D01*
X765539Y-1861008D02*
X756015Y-1870531D01*
X756015Y-1870531D02*
X736967Y-1899103D01*
X736967Y-1899103D02*
X727443Y-1937198D01*
X727443Y-1937198D02*
X727443Y-2013388D01*
X727443Y-2013388D02*
X736967Y-2032436D01*
X736967Y-2032436D02*
X746491Y-2041960D01*
X746491Y-2041960D02*
X765539Y-2051484D01*
X765539Y-2051484D02*
X803634Y-2051484D01*
X803634Y-2051484D02*
X822682Y-2041960D01*
X822682Y-2041960D02*
X832205Y-2032436D01*
X832205Y-2032436D02*
X841729Y-2013388D01*
X841729Y-2013388D02*
X841729Y-1965769D01*
X841729Y-1965769D02*
X832205Y-1946722D01*
X832205Y-1946722D02*
X822682Y-1937198D01*
X822682Y-1937198D02*
X803634Y-1927674D01*
X803634Y-1927674D02*
X765539Y-1927674D01*
X765539Y-1927674D02*
X746491Y-1937198D01*
X746491Y-1937198D02*
X736967Y-1946722D01*
X736967Y-1946722D02*
X727443Y-1965769D01*
X1013158Y-1918150D02*
X1013158Y-2051484D01*
X965539Y-1841960D02*
X917920Y-1984817D01*
X917920Y-1984817D02*
X1041729Y-1984817D01*
X1117920Y-2051484D02*
X1117920Y-1918150D01*
X1117920Y-1937198D02*
X1127444Y-1927674D01*
X1127444Y-1927674D02*
X1146491Y-1918150D01*
X1146491Y-1918150D02*
X1175063Y-1918150D01*
X1175063Y-1918150D02*
X1194110Y-1927674D01*
X1194110Y-1927674D02*
X1203634Y-1946722D01*
X1203634Y-1946722D02*
X1203634Y-2051484D01*
X1203634Y-1946722D02*
X1213158Y-1927674D01*
X1213158Y-1927674D02*
X1232205Y-1918150D01*
X1232205Y-1918150D02*
X1260777Y-1918150D01*
X1260777Y-1918150D02*
X1279825Y-1927674D01*
X1279825Y-1927674D02*
X1289348Y-1946722D01*
X1289348Y-1946722D02*
X1289348Y-2051484D01*
X1384586Y-2051484D02*
X1384586Y-1918150D01*
X1384586Y-1937198D02*
X1394110Y-1927674D01*
X1394110Y-1927674D02*
X1413158Y-1918150D01*
X1413158Y-1918150D02*
X1441729Y-1918150D01*
X1441729Y-1918150D02*
X1460777Y-1927674D01*
X1460777Y-1927674D02*
X1470301Y-1946722D01*
X1470301Y-1946722D02*
X1470301Y-2051484D01*
X1470301Y-1946722D02*
X1479824Y-1927674D01*
X1479824Y-1927674D02*
X1498872Y-1918150D01*
X1498872Y-1918150D02*
X1527443Y-1918150D01*
X1527443Y-1918150D02*
X1546491Y-1927674D01*
X1546491Y-1927674D02*
X1556015Y-1946722D01*
X1556015Y-1946722D02*
X1556015Y-2051484D01*
X1946491Y-1841960D02*
X1775063Y-2099103D01*
X2203634Y-1851484D02*
X2222682Y-1851484D01*
X2222682Y-1851484D02*
X2241729Y-1861008D01*
X2241729Y-1861008D02*
X2251253Y-1870531D01*
X2251253Y-1870531D02*
X2260777Y-1889579D01*
X2260777Y-1889579D02*
X2270301Y-1927674D01*
X2270301Y-1927674D02*
X2270301Y-1975293D01*
X2270301Y-1975293D02*
X2260777Y-2013388D01*
X2260777Y-2013388D02*
X2251253Y-2032436D01*
X2251253Y-2032436D02*
X2241729Y-2041960D01*
X2241729Y-2041960D02*
X2222682Y-2051484D01*
X2222682Y-2051484D02*
X2203634Y-2051484D01*
X2203634Y-2051484D02*
X2184587Y-2041960D01*
X2184587Y-2041960D02*
X2175063Y-2032436D01*
X2175063Y-2032436D02*
X2165539Y-2013388D01*
X2165539Y-2013388D02*
X2156015Y-1975293D01*
X2156015Y-1975293D02*
X2156015Y-1927674D01*
X2156015Y-1927674D02*
X2165539Y-1889579D01*
X2165539Y-1889579D02*
X2175063Y-1870531D01*
X2175063Y-1870531D02*
X2184587Y-1861008D01*
X2184587Y-1861008D02*
X2203634Y-1851484D01*
X2356015Y-2032436D02*
X2365539Y-2041960D01*
X2365539Y-2041960D02*
X2356015Y-2051484D01*
X2356015Y-2051484D02*
X2346491Y-2041960D01*
X2346491Y-2041960D02*
X2356015Y-2032436D01*
X2356015Y-2032436D02*
X2356015Y-2051484D01*
X2489348Y-1851484D02*
X2508396Y-1851484D01*
X2508396Y-1851484D02*
X2527444Y-1861008D01*
X2527444Y-1861008D02*
X2536968Y-1870531D01*
X2536968Y-1870531D02*
X2546491Y-1889579D01*
X2546491Y-1889579D02*
X2556015Y-1927674D01*
X2556015Y-1927674D02*
X2556015Y-1975293D01*
X2556015Y-1975293D02*
X2546491Y-2013388D01*
X2546491Y-2013388D02*
X2536968Y-2032436D01*
X2536968Y-2032436D02*
X2527444Y-2041960D01*
X2527444Y-2041960D02*
X2508396Y-2051484D01*
X2508396Y-2051484D02*
X2489348Y-2051484D01*
X2489348Y-2051484D02*
X2470301Y-2041960D01*
X2470301Y-2041960D02*
X2460777Y-2032436D01*
X2460777Y-2032436D02*
X2451253Y-2013388D01*
X2451253Y-2013388D02*
X2441729Y-1975293D01*
X2441729Y-1975293D02*
X2441729Y-1927674D01*
X2441729Y-1927674D02*
X2451253Y-1889579D01*
X2451253Y-1889579D02*
X2460777Y-1870531D01*
X2460777Y-1870531D02*
X2470301Y-1861008D01*
X2470301Y-1861008D02*
X2489348Y-1851484D01*
X2622682Y-1851484D02*
X2746491Y-1851484D01*
X2746491Y-1851484D02*
X2679825Y-1927674D01*
X2679825Y-1927674D02*
X2708396Y-1927674D01*
X2708396Y-1927674D02*
X2727444Y-1937198D01*
X2727444Y-1937198D02*
X2736968Y-1946722D01*
X2736968Y-1946722D02*
X2746491Y-1965769D01*
X2746491Y-1965769D02*
X2746491Y-2013388D01*
X2746491Y-2013388D02*
X2736968Y-2032436D01*
X2736968Y-2032436D02*
X2727444Y-2041960D01*
X2727444Y-2041960D02*
X2708396Y-2051484D01*
X2708396Y-2051484D02*
X2651253Y-2051484D01*
X2651253Y-2051484D02*
X2632206Y-2041960D01*
X2632206Y-2041960D02*
X2622682Y-2032436D01*
X2917920Y-1918150D02*
X2917920Y-2051484D01*
X2870301Y-1841960D02*
X2822682Y-1984817D01*
X2822682Y-1984817D02*
X2946491Y-1984817D01*
X3060777Y-1851484D02*
X3079825Y-1851484D01*
X3079825Y-1851484D02*
X3098872Y-1861008D01*
X3098872Y-1861008D02*
X3108396Y-1870531D01*
X3108396Y-1870531D02*
X3117920Y-1889579D01*
X3117920Y-1889579D02*
X3127444Y-1927674D01*
X3127444Y-1927674D02*
X3127444Y-1975293D01*
X3127444Y-1975293D02*
X3117920Y-2013388D01*
X3117920Y-2013388D02*
X3108396Y-2032436D01*
X3108396Y-2032436D02*
X3098872Y-2041960D01*
X3098872Y-2041960D02*
X3079825Y-2051484D01*
X3079825Y-2051484D02*
X3060777Y-2051484D01*
X3060777Y-2051484D02*
X3041729Y-2041960D01*
X3041729Y-2041960D02*
X3032206Y-2032436D01*
X3032206Y-2032436D02*
X3022682Y-2013388D01*
X3022682Y-2013388D02*
X3013158Y-1975293D01*
X3013158Y-1975293D02*
X3013158Y-1927674D01*
X3013158Y-1927674D02*
X3022682Y-1889579D01*
X3022682Y-1889579D02*
X3032206Y-1870531D01*
X3032206Y-1870531D02*
X3041729Y-1861008D01*
X3041729Y-1861008D02*
X3060777Y-1851484D01*
X3203634Y-1851484D02*
X3203634Y-1889579D01*
X3279825Y-1851484D02*
X3279825Y-1889579D01*
X3575063Y-2127674D02*
X3565539Y-2118150D01*
X3565539Y-2118150D02*
X3546491Y-2089579D01*
X3546491Y-2089579D02*
X3536968Y-2070531D01*
X3536968Y-2070531D02*
X3527444Y-2041960D01*
X3527444Y-2041960D02*
X3517920Y-1994341D01*
X3517920Y-1994341D02*
X3517920Y-1956246D01*
X3517920Y-1956246D02*
X3527444Y-1908627D01*
X3527444Y-1908627D02*
X3536968Y-1880055D01*
X3536968Y-1880055D02*
X3546491Y-1861008D01*
X3546491Y-1861008D02*
X3565539Y-1832436D01*
X3565539Y-1832436D02*
X3575063Y-1822912D01*
X3736968Y-1918150D02*
X3736968Y-2051484D01*
X3689348Y-1841960D02*
X3641729Y-1984817D01*
X3641729Y-1984817D02*
X3765539Y-1984817D01*
X3994110Y-2051484D02*
X3994110Y-1851484D01*
X4079825Y-2051484D02*
X4079825Y-1946722D01*
X4079825Y-1946722D02*
X4070301Y-1927674D01*
X4070301Y-1927674D02*
X4051253Y-1918150D01*
X4051253Y-1918150D02*
X4022682Y-1918150D01*
X4022682Y-1918150D02*
X4003634Y-1927674D01*
X4003634Y-1927674D02*
X3994110Y-1937198D01*
X4203634Y-2051484D02*
X4184587Y-2041960D01*
X4184587Y-2041960D02*
X4175063Y-2032436D01*
X4175063Y-2032436D02*
X4165539Y-2013388D01*
X4165539Y-2013388D02*
X4165539Y-1956246D01*
X4165539Y-1956246D02*
X4175063Y-1937198D01*
X4175063Y-1937198D02*
X4184587Y-1927674D01*
X4184587Y-1927674D02*
X4203634Y-1918150D01*
X4203634Y-1918150D02*
X4232206Y-1918150D01*
X4232206Y-1918150D02*
X4251253Y-1927674D01*
X4251253Y-1927674D02*
X4260777Y-1937198D01*
X4260777Y-1937198D02*
X4270301Y-1956246D01*
X4270301Y-1956246D02*
X4270301Y-2013388D01*
X4270301Y-2013388D02*
X4260777Y-2032436D01*
X4260777Y-2032436D02*
X4251253Y-2041960D01*
X4251253Y-2041960D02*
X4232206Y-2051484D01*
X4232206Y-2051484D02*
X4203634Y-2051484D01*
X4384587Y-2051484D02*
X4365539Y-2041960D01*
X4365539Y-2041960D02*
X4356015Y-2022912D01*
X4356015Y-2022912D02*
X4356015Y-1851484D01*
X4536968Y-2041960D02*
X4517920Y-2051484D01*
X4517920Y-2051484D02*
X4479825Y-2051484D01*
X4479825Y-2051484D02*
X4460777Y-2041960D01*
X4460777Y-2041960D02*
X4451253Y-2022912D01*
X4451253Y-2022912D02*
X4451253Y-1946722D01*
X4451253Y-1946722D02*
X4460777Y-1927674D01*
X4460777Y-1927674D02*
X4479825Y-1918150D01*
X4479825Y-1918150D02*
X4517920Y-1918150D01*
X4517920Y-1918150D02*
X4536968Y-1927674D01*
X4536968Y-1927674D02*
X4546492Y-1946722D01*
X4546492Y-1946722D02*
X4546492Y-1965769D01*
X4546492Y-1965769D02*
X4451253Y-1984817D01*
X4622682Y-2041960D02*
X4641730Y-2051484D01*
X4641730Y-2051484D02*
X4679825Y-2051484D01*
X4679825Y-2051484D02*
X4698873Y-2041960D01*
X4698873Y-2041960D02*
X4708396Y-2022912D01*
X4708396Y-2022912D02*
X4708396Y-2013388D01*
X4708396Y-2013388D02*
X4698873Y-1994341D01*
X4698873Y-1994341D02*
X4679825Y-1984817D01*
X4679825Y-1984817D02*
X4651253Y-1984817D01*
X4651253Y-1984817D02*
X4632206Y-1975293D01*
X4632206Y-1975293D02*
X4622682Y-1956246D01*
X4622682Y-1956246D02*
X4622682Y-1946722D01*
X4622682Y-1946722D02*
X4632206Y-1927674D01*
X4632206Y-1927674D02*
X4651253Y-1918150D01*
X4651253Y-1918150D02*
X4679825Y-1918150D01*
X4679825Y-1918150D02*
X4698873Y-1927674D01*
X4775063Y-2127674D02*
X4784587Y-2118150D01*
X4784587Y-2118150D02*
X4803634Y-2089579D01*
X4803634Y-2089579D02*
X4813158Y-2070531D01*
X4813158Y-2070531D02*
X4822682Y-2041960D01*
X4822682Y-2041960D02*
X4832206Y-1994341D01*
X4832206Y-1994341D02*
X4832206Y-1956246D01*
X4832206Y-1956246D02*
X4822682Y-1908627D01*
X4822682Y-1908627D02*
X4813158Y-1880055D01*
X4813158Y-1880055D02*
X4803634Y-1861008D01*
X4803634Y-1861008D02*
X4784587Y-1832436D01*
X4784587Y-1832436D02*
X4775063Y-1822912D01*
D11*
X-100000Y-2174000D02*
X0Y-2274000D01*
X0Y-2174000D02*
X-100000Y-2274000D01*
X-50000Y-2174000D02*
X-50000Y-2274000D01*
X-100000Y-2224000D02*
X0Y-2224000D01*
D10*
X365539Y-2315484D02*
X251253Y-2315484D01*
X308396Y-2315484D02*
X308396Y-2115484D01*
X308396Y-2115484D02*
X289348Y-2144055D01*
X289348Y-2144055D02*
X270301Y-2163103D01*
X270301Y-2163103D02*
X251253Y-2172627D01*
X451253Y-2296436D02*
X460777Y-2305960D01*
X460777Y-2305960D02*
X451253Y-2315484D01*
X451253Y-2315484D02*
X441729Y-2305960D01*
X441729Y-2305960D02*
X451253Y-2296436D01*
X451253Y-2296436D02*
X451253Y-2315484D01*
X584586Y-2115484D02*
X603634Y-2115484D01*
X603634Y-2115484D02*
X622682Y-2125008D01*
X622682Y-2125008D02*
X632205Y-2134531D01*
X632205Y-2134531D02*
X641729Y-2153579D01*
X641729Y-2153579D02*
X651253Y-2191674D01*
X651253Y-2191674D02*
X651253Y-2239293D01*
X651253Y-2239293D02*
X641729Y-2277389D01*
X641729Y-2277389D02*
X632205Y-2296436D01*
X632205Y-2296436D02*
X622682Y-2305960D01*
X622682Y-2305960D02*
X603634Y-2315484D01*
X603634Y-2315484D02*
X584586Y-2315484D01*
X584586Y-2315484D02*
X565539Y-2305960D01*
X565539Y-2305960D02*
X556015Y-2296436D01*
X556015Y-2296436D02*
X546491Y-2277389D01*
X546491Y-2277389D02*
X536967Y-2239293D01*
X536967Y-2239293D02*
X536967Y-2191674D01*
X536967Y-2191674D02*
X546491Y-2153579D01*
X546491Y-2153579D02*
X556015Y-2134531D01*
X556015Y-2134531D02*
X565539Y-2125008D01*
X565539Y-2125008D02*
X584586Y-2115484D01*
X775062Y-2115484D02*
X794110Y-2115484D01*
X794110Y-2115484D02*
X813158Y-2125008D01*
X813158Y-2125008D02*
X822682Y-2134531D01*
X822682Y-2134531D02*
X832205Y-2153579D01*
X832205Y-2153579D02*
X841729Y-2191674D01*
X841729Y-2191674D02*
X841729Y-2239293D01*
X841729Y-2239293D02*
X832205Y-2277389D01*
X832205Y-2277389D02*
X822682Y-2296436D01*
X822682Y-2296436D02*
X813158Y-2305960D01*
X813158Y-2305960D02*
X794110Y-2315484D01*
X794110Y-2315484D02*
X775062Y-2315484D01*
X775062Y-2315484D02*
X756015Y-2305960D01*
X756015Y-2305960D02*
X746491Y-2296436D01*
X746491Y-2296436D02*
X736967Y-2277389D01*
X736967Y-2277389D02*
X727443Y-2239293D01*
X727443Y-2239293D02*
X727443Y-2191674D01*
X727443Y-2191674D02*
X736967Y-2153579D01*
X736967Y-2153579D02*
X746491Y-2134531D01*
X746491Y-2134531D02*
X756015Y-2125008D01*
X756015Y-2125008D02*
X775062Y-2115484D01*
X965539Y-2115484D02*
X984586Y-2115484D01*
X984586Y-2115484D02*
X1003634Y-2125008D01*
X1003634Y-2125008D02*
X1013158Y-2134531D01*
X1013158Y-2134531D02*
X1022682Y-2153579D01*
X1022682Y-2153579D02*
X1032205Y-2191674D01*
X1032205Y-2191674D02*
X1032205Y-2239293D01*
X1032205Y-2239293D02*
X1022682Y-2277389D01*
X1022682Y-2277389D02*
X1013158Y-2296436D01*
X1013158Y-2296436D02*
X1003634Y-2305960D01*
X1003634Y-2305960D02*
X984586Y-2315484D01*
X984586Y-2315484D02*
X965539Y-2315484D01*
X965539Y-2315484D02*
X946491Y-2305960D01*
X946491Y-2305960D02*
X936967Y-2296436D01*
X936967Y-2296436D02*
X927443Y-2277389D01*
X927443Y-2277389D02*
X917920Y-2239293D01*
X917920Y-2239293D02*
X917920Y-2191674D01*
X917920Y-2191674D02*
X927443Y-2153579D01*
X927443Y-2153579D02*
X936967Y-2134531D01*
X936967Y-2134531D02*
X946491Y-2125008D01*
X946491Y-2125008D02*
X965539Y-2115484D01*
X1117920Y-2315484D02*
X1117920Y-2182150D01*
X1117920Y-2201198D02*
X1127444Y-2191674D01*
X1127444Y-2191674D02*
X1146491Y-2182150D01*
X1146491Y-2182150D02*
X1175063Y-2182150D01*
X1175063Y-2182150D02*
X1194110Y-2191674D01*
X1194110Y-2191674D02*
X1203634Y-2210722D01*
X1203634Y-2210722D02*
X1203634Y-2315484D01*
X1203634Y-2210722D02*
X1213158Y-2191674D01*
X1213158Y-2191674D02*
X1232205Y-2182150D01*
X1232205Y-2182150D02*
X1260777Y-2182150D01*
X1260777Y-2182150D02*
X1279825Y-2191674D01*
X1279825Y-2191674D02*
X1289348Y-2210722D01*
X1289348Y-2210722D02*
X1289348Y-2315484D01*
X1384586Y-2315484D02*
X1384586Y-2182150D01*
X1384586Y-2201198D02*
X1394110Y-2191674D01*
X1394110Y-2191674D02*
X1413158Y-2182150D01*
X1413158Y-2182150D02*
X1441729Y-2182150D01*
X1441729Y-2182150D02*
X1460777Y-2191674D01*
X1460777Y-2191674D02*
X1470301Y-2210722D01*
X1470301Y-2210722D02*
X1470301Y-2315484D01*
X1470301Y-2210722D02*
X1479824Y-2191674D01*
X1479824Y-2191674D02*
X1498872Y-2182150D01*
X1498872Y-2182150D02*
X1527443Y-2182150D01*
X1527443Y-2182150D02*
X1546491Y-2191674D01*
X1546491Y-2191674D02*
X1556015Y-2210722D01*
X1556015Y-2210722D02*
X1556015Y-2315484D01*
X1946491Y-2105960D02*
X1775063Y-2363103D01*
X2203634Y-2115484D02*
X2222682Y-2115484D01*
X2222682Y-2115484D02*
X2241729Y-2125008D01*
X2241729Y-2125008D02*
X2251253Y-2134531D01*
X2251253Y-2134531D02*
X2260777Y-2153579D01*
X2260777Y-2153579D02*
X2270301Y-2191674D01*
X2270301Y-2191674D02*
X2270301Y-2239293D01*
X2270301Y-2239293D02*
X2260777Y-2277389D01*
X2260777Y-2277389D02*
X2251253Y-2296436D01*
X2251253Y-2296436D02*
X2241729Y-2305960D01*
X2241729Y-2305960D02*
X2222682Y-2315484D01*
X2222682Y-2315484D02*
X2203634Y-2315484D01*
X2203634Y-2315484D02*
X2184587Y-2305960D01*
X2184587Y-2305960D02*
X2175063Y-2296436D01*
X2175063Y-2296436D02*
X2165539Y-2277389D01*
X2165539Y-2277389D02*
X2156015Y-2239293D01*
X2156015Y-2239293D02*
X2156015Y-2191674D01*
X2156015Y-2191674D02*
X2165539Y-2153579D01*
X2165539Y-2153579D02*
X2175063Y-2134531D01*
X2175063Y-2134531D02*
X2184587Y-2125008D01*
X2184587Y-2125008D02*
X2203634Y-2115484D01*
X2356015Y-2296436D02*
X2365539Y-2305960D01*
X2365539Y-2305960D02*
X2356015Y-2315484D01*
X2356015Y-2315484D02*
X2346491Y-2305960D01*
X2346491Y-2305960D02*
X2356015Y-2296436D01*
X2356015Y-2296436D02*
X2356015Y-2315484D01*
X2489348Y-2115484D02*
X2508396Y-2115484D01*
X2508396Y-2115484D02*
X2527444Y-2125008D01*
X2527444Y-2125008D02*
X2536968Y-2134531D01*
X2536968Y-2134531D02*
X2546491Y-2153579D01*
X2546491Y-2153579D02*
X2556015Y-2191674D01*
X2556015Y-2191674D02*
X2556015Y-2239293D01*
X2556015Y-2239293D02*
X2546491Y-2277389D01*
X2546491Y-2277389D02*
X2536968Y-2296436D01*
X2536968Y-2296436D02*
X2527444Y-2305960D01*
X2527444Y-2305960D02*
X2508396Y-2315484D01*
X2508396Y-2315484D02*
X2489348Y-2315484D01*
X2489348Y-2315484D02*
X2470301Y-2305960D01*
X2470301Y-2305960D02*
X2460777Y-2296436D01*
X2460777Y-2296436D02*
X2451253Y-2277389D01*
X2451253Y-2277389D02*
X2441729Y-2239293D01*
X2441729Y-2239293D02*
X2441729Y-2191674D01*
X2441729Y-2191674D02*
X2451253Y-2153579D01*
X2451253Y-2153579D02*
X2460777Y-2134531D01*
X2460777Y-2134531D02*
X2470301Y-2125008D01*
X2470301Y-2125008D02*
X2489348Y-2115484D01*
X2622682Y-2115484D02*
X2746491Y-2115484D01*
X2746491Y-2115484D02*
X2679825Y-2191674D01*
X2679825Y-2191674D02*
X2708396Y-2191674D01*
X2708396Y-2191674D02*
X2727444Y-2201198D01*
X2727444Y-2201198D02*
X2736968Y-2210722D01*
X2736968Y-2210722D02*
X2746491Y-2229770D01*
X2746491Y-2229770D02*
X2746491Y-2277389D01*
X2746491Y-2277389D02*
X2736968Y-2296436D01*
X2736968Y-2296436D02*
X2727444Y-2305960D01*
X2727444Y-2305960D02*
X2708396Y-2315484D01*
X2708396Y-2315484D02*
X2651253Y-2315484D01*
X2651253Y-2315484D02*
X2632206Y-2305960D01*
X2632206Y-2305960D02*
X2622682Y-2296436D01*
X2841729Y-2315484D02*
X2879825Y-2315484D01*
X2879825Y-2315484D02*
X2898872Y-2305960D01*
X2898872Y-2305960D02*
X2908396Y-2296436D01*
X2908396Y-2296436D02*
X2927444Y-2267865D01*
X2927444Y-2267865D02*
X2936967Y-2229770D01*
X2936967Y-2229770D02*
X2936967Y-2153579D01*
X2936967Y-2153579D02*
X2927444Y-2134531D01*
X2927444Y-2134531D02*
X2917920Y-2125008D01*
X2917920Y-2125008D02*
X2898872Y-2115484D01*
X2898872Y-2115484D02*
X2860777Y-2115484D01*
X2860777Y-2115484D02*
X2841729Y-2125008D01*
X2841729Y-2125008D02*
X2832206Y-2134531D01*
X2832206Y-2134531D02*
X2822682Y-2153579D01*
X2822682Y-2153579D02*
X2822682Y-2201198D01*
X2822682Y-2201198D02*
X2832206Y-2220246D01*
X2832206Y-2220246D02*
X2841729Y-2229770D01*
X2841729Y-2229770D02*
X2860777Y-2239293D01*
X2860777Y-2239293D02*
X2898872Y-2239293D01*
X2898872Y-2239293D02*
X2917920Y-2229770D01*
X2917920Y-2229770D02*
X2927444Y-2220246D01*
X2927444Y-2220246D02*
X2936967Y-2201198D01*
X3108396Y-2182150D02*
X3108396Y-2315484D01*
X3060777Y-2105960D02*
X3013158Y-2248817D01*
X3013158Y-2248817D02*
X3136967Y-2248817D01*
X3203634Y-2115484D02*
X3203634Y-2153579D01*
X3279825Y-2115484D02*
X3279825Y-2153579D01*
X3575063Y-2391674D02*
X3565539Y-2382150D01*
X3565539Y-2382150D02*
X3546491Y-2353579D01*
X3546491Y-2353579D02*
X3536968Y-2334531D01*
X3536968Y-2334531D02*
X3527444Y-2305960D01*
X3527444Y-2305960D02*
X3517920Y-2258341D01*
X3517920Y-2258341D02*
X3517920Y-2220246D01*
X3517920Y-2220246D02*
X3527444Y-2172627D01*
X3527444Y-2172627D02*
X3536968Y-2144055D01*
X3536968Y-2144055D02*
X3546491Y-2125008D01*
X3546491Y-2125008D02*
X3565539Y-2096436D01*
X3565539Y-2096436D02*
X3575063Y-2086912D01*
X3679825Y-2201198D02*
X3660777Y-2191674D01*
X3660777Y-2191674D02*
X3651253Y-2182150D01*
X3651253Y-2182150D02*
X3641729Y-2163103D01*
X3641729Y-2163103D02*
X3641729Y-2153579D01*
X3641729Y-2153579D02*
X3651253Y-2134531D01*
X3651253Y-2134531D02*
X3660777Y-2125008D01*
X3660777Y-2125008D02*
X3679825Y-2115484D01*
X3679825Y-2115484D02*
X3717920Y-2115484D01*
X3717920Y-2115484D02*
X3736968Y-2125008D01*
X3736968Y-2125008D02*
X3746491Y-2134531D01*
X3746491Y-2134531D02*
X3756015Y-2153579D01*
X3756015Y-2153579D02*
X3756015Y-2163103D01*
X3756015Y-2163103D02*
X3746491Y-2182150D01*
X3746491Y-2182150D02*
X3736968Y-2191674D01*
X3736968Y-2191674D02*
X3717920Y-2201198D01*
X3717920Y-2201198D02*
X3679825Y-2201198D01*
X3679825Y-2201198D02*
X3660777Y-2210722D01*
X3660777Y-2210722D02*
X3651253Y-2220246D01*
X3651253Y-2220246D02*
X3641729Y-2239293D01*
X3641729Y-2239293D02*
X3641729Y-2277389D01*
X3641729Y-2277389D02*
X3651253Y-2296436D01*
X3651253Y-2296436D02*
X3660777Y-2305960D01*
X3660777Y-2305960D02*
X3679825Y-2315484D01*
X3679825Y-2315484D02*
X3717920Y-2315484D01*
X3717920Y-2315484D02*
X3736968Y-2305960D01*
X3736968Y-2305960D02*
X3746491Y-2296436D01*
X3746491Y-2296436D02*
X3756015Y-2277389D01*
X3756015Y-2277389D02*
X3756015Y-2239293D01*
X3756015Y-2239293D02*
X3746491Y-2220246D01*
X3746491Y-2220246D02*
X3736968Y-2210722D01*
X3736968Y-2210722D02*
X3717920Y-2201198D01*
X3994110Y-2315484D02*
X3994110Y-2115484D01*
X4079825Y-2315484D02*
X4079825Y-2210722D01*
X4079825Y-2210722D02*
X4070301Y-2191674D01*
X4070301Y-2191674D02*
X4051253Y-2182150D01*
X4051253Y-2182150D02*
X4022682Y-2182150D01*
X4022682Y-2182150D02*
X4003634Y-2191674D01*
X4003634Y-2191674D02*
X3994110Y-2201198D01*
X4203634Y-2315484D02*
X4184587Y-2305960D01*
X4184587Y-2305960D02*
X4175063Y-2296436D01*
X4175063Y-2296436D02*
X4165539Y-2277389D01*
X4165539Y-2277389D02*
X4165539Y-2220246D01*
X4165539Y-2220246D02*
X4175063Y-2201198D01*
X4175063Y-2201198D02*
X4184587Y-2191674D01*
X4184587Y-2191674D02*
X4203634Y-2182150D01*
X4203634Y-2182150D02*
X4232206Y-2182150D01*
X4232206Y-2182150D02*
X4251253Y-2191674D01*
X4251253Y-2191674D02*
X4260777Y-2201198D01*
X4260777Y-2201198D02*
X4270301Y-2220246D01*
X4270301Y-2220246D02*
X4270301Y-2277389D01*
X4270301Y-2277389D02*
X4260777Y-2296436D01*
X4260777Y-2296436D02*
X4251253Y-2305960D01*
X4251253Y-2305960D02*
X4232206Y-2315484D01*
X4232206Y-2315484D02*
X4203634Y-2315484D01*
X4384587Y-2315484D02*
X4365539Y-2305960D01*
X4365539Y-2305960D02*
X4356015Y-2286912D01*
X4356015Y-2286912D02*
X4356015Y-2115484D01*
X4536968Y-2305960D02*
X4517920Y-2315484D01*
X4517920Y-2315484D02*
X4479825Y-2315484D01*
X4479825Y-2315484D02*
X4460777Y-2305960D01*
X4460777Y-2305960D02*
X4451253Y-2286912D01*
X4451253Y-2286912D02*
X4451253Y-2210722D01*
X4451253Y-2210722D02*
X4460777Y-2191674D01*
X4460777Y-2191674D02*
X4479825Y-2182150D01*
X4479825Y-2182150D02*
X4517920Y-2182150D01*
X4517920Y-2182150D02*
X4536968Y-2191674D01*
X4536968Y-2191674D02*
X4546492Y-2210722D01*
X4546492Y-2210722D02*
X4546492Y-2229770D01*
X4546492Y-2229770D02*
X4451253Y-2248817D01*
X4622682Y-2305960D02*
X4641730Y-2315484D01*
X4641730Y-2315484D02*
X4679825Y-2315484D01*
X4679825Y-2315484D02*
X4698873Y-2305960D01*
X4698873Y-2305960D02*
X4708396Y-2286912D01*
X4708396Y-2286912D02*
X4708396Y-2277389D01*
X4708396Y-2277389D02*
X4698873Y-2258341D01*
X4698873Y-2258341D02*
X4679825Y-2248817D01*
X4679825Y-2248817D02*
X4651253Y-2248817D01*
X4651253Y-2248817D02*
X4632206Y-2239293D01*
X4632206Y-2239293D02*
X4622682Y-2220246D01*
X4622682Y-2220246D02*
X4622682Y-2210722D01*
X4622682Y-2210722D02*
X4632206Y-2191674D01*
X4632206Y-2191674D02*
X4651253Y-2182150D01*
X4651253Y-2182150D02*
X4679825Y-2182150D01*
X4679825Y-2182150D02*
X4698873Y-2191674D01*
X4946492Y-2239293D02*
X5098873Y-2239293D01*
X5022682Y-2315484D02*
X5022682Y-2163103D01*
X5327444Y-2115484D02*
X5451254Y-2115484D01*
X5451254Y-2115484D02*
X5384587Y-2191674D01*
X5384587Y-2191674D02*
X5413158Y-2191674D01*
X5413158Y-2191674D02*
X5432206Y-2201198D01*
X5432206Y-2201198D02*
X5441730Y-2210722D01*
X5441730Y-2210722D02*
X5451254Y-2229770D01*
X5451254Y-2229770D02*
X5451254Y-2277389D01*
X5451254Y-2277389D02*
X5441730Y-2296436D01*
X5441730Y-2296436D02*
X5432206Y-2305960D01*
X5432206Y-2305960D02*
X5413158Y-2315484D01*
X5413158Y-2315484D02*
X5356015Y-2315484D01*
X5356015Y-2315484D02*
X5336968Y-2305960D01*
X5336968Y-2305960D02*
X5327444Y-2296436D01*
X5679825Y-2305960D02*
X5698873Y-2315484D01*
X5698873Y-2315484D02*
X5736968Y-2315484D01*
X5736968Y-2315484D02*
X5756015Y-2305960D01*
X5756015Y-2305960D02*
X5765539Y-2286912D01*
X5765539Y-2286912D02*
X5765539Y-2277389D01*
X5765539Y-2277389D02*
X5756015Y-2258341D01*
X5756015Y-2258341D02*
X5736968Y-2248817D01*
X5736968Y-2248817D02*
X5708396Y-2248817D01*
X5708396Y-2248817D02*
X5689349Y-2239293D01*
X5689349Y-2239293D02*
X5679825Y-2220246D01*
X5679825Y-2220246D02*
X5679825Y-2210722D01*
X5679825Y-2210722D02*
X5689349Y-2191674D01*
X5689349Y-2191674D02*
X5708396Y-2182150D01*
X5708396Y-2182150D02*
X5736968Y-2182150D01*
X5736968Y-2182150D02*
X5756015Y-2191674D01*
X5879825Y-2315484D02*
X5860777Y-2305960D01*
X5860777Y-2305960D02*
X5851254Y-2286912D01*
X5851254Y-2286912D02*
X5851254Y-2115484D01*
X5984587Y-2315484D02*
X5965539Y-2305960D01*
X5965539Y-2305960D02*
X5956015Y-2296436D01*
X5956015Y-2296436D02*
X5946492Y-2277389D01*
X5946492Y-2277389D02*
X5946492Y-2220246D01*
X5946492Y-2220246D02*
X5956015Y-2201198D01*
X5956015Y-2201198D02*
X5965539Y-2191674D01*
X5965539Y-2191674D02*
X5984587Y-2182150D01*
X5984587Y-2182150D02*
X6013158Y-2182150D01*
X6013158Y-2182150D02*
X6032206Y-2191674D01*
X6032206Y-2191674D02*
X6041730Y-2201198D01*
X6041730Y-2201198D02*
X6051254Y-2220246D01*
X6051254Y-2220246D02*
X6051254Y-2277389D01*
X6051254Y-2277389D02*
X6041730Y-2296436D01*
X6041730Y-2296436D02*
X6032206Y-2305960D01*
X6032206Y-2305960D02*
X6013158Y-2315484D01*
X6013158Y-2315484D02*
X5984587Y-2315484D01*
X6108396Y-2182150D02*
X6184587Y-2182150D01*
X6136968Y-2115484D02*
X6136968Y-2286912D01*
X6136968Y-2286912D02*
X6146492Y-2305960D01*
X6146492Y-2305960D02*
X6165539Y-2315484D01*
X6165539Y-2315484D02*
X6184587Y-2315484D01*
X6241730Y-2305960D02*
X6260777Y-2315484D01*
X6260777Y-2315484D02*
X6298873Y-2315484D01*
X6298873Y-2315484D02*
X6317920Y-2305960D01*
X6317920Y-2305960D02*
X6327444Y-2286912D01*
X6327444Y-2286912D02*
X6327444Y-2277389D01*
X6327444Y-2277389D02*
X6317920Y-2258341D01*
X6317920Y-2258341D02*
X6298873Y-2248817D01*
X6298873Y-2248817D02*
X6270301Y-2248817D01*
X6270301Y-2248817D02*
X6251254Y-2239293D01*
X6251254Y-2239293D02*
X6241730Y-2220246D01*
X6241730Y-2220246D02*
X6241730Y-2210722D01*
X6241730Y-2210722D02*
X6251254Y-2191674D01*
X6251254Y-2191674D02*
X6270301Y-2182150D01*
X6270301Y-2182150D02*
X6298873Y-2182150D01*
X6298873Y-2182150D02*
X6317920Y-2191674D01*
X6394111Y-2391674D02*
X6403635Y-2382150D01*
X6403635Y-2382150D02*
X6422682Y-2353579D01*
X6422682Y-2353579D02*
X6432206Y-2334531D01*
X6432206Y-2334531D02*
X6441730Y-2305960D01*
X6441730Y-2305960D02*
X6451254Y-2258341D01*
X6451254Y-2258341D02*
X6451254Y-2220246D01*
X6451254Y-2220246D02*
X6441730Y-2172627D01*
X6441730Y-2172627D02*
X6432206Y-2144055D01*
X6432206Y-2144055D02*
X6422682Y-2125008D01*
X6422682Y-2125008D02*
X6403635Y-2096436D01*
X6403635Y-2096436D02*
X6394111Y-2086912D01*
D12*
X-129540Y-2423230D02*
X0Y-2552770D01*
X0Y-2423230D02*
X-129540Y-2552770D01*
X-18970Y-2533800D02*
X-18970Y-2442200D01*
X-110570Y-2442200D01*
X-110570Y-2533800D01*
X-18970Y-2533800D01*
D10*
X365539Y-2579484D02*
X251253Y-2579484D01*
X308396Y-2579484D02*
X308396Y-2379484D01*
X308396Y-2379484D02*
X289348Y-2408055D01*
X289348Y-2408055D02*
X270301Y-2427103D01*
X270301Y-2427103D02*
X251253Y-2436627D01*
X451253Y-2560436D02*
X460777Y-2569960D01*
X460777Y-2569960D02*
X451253Y-2579484D01*
X451253Y-2579484D02*
X441729Y-2569960D01*
X441729Y-2569960D02*
X451253Y-2560436D01*
X451253Y-2560436D02*
X451253Y-2579484D01*
X536967Y-2398531D02*
X546491Y-2389008D01*
X546491Y-2389008D02*
X565539Y-2379484D01*
X565539Y-2379484D02*
X613158Y-2379484D01*
X613158Y-2379484D02*
X632205Y-2389008D01*
X632205Y-2389008D02*
X641729Y-2398531D01*
X641729Y-2398531D02*
X651253Y-2417579D01*
X651253Y-2417579D02*
X651253Y-2436627D01*
X651253Y-2436627D02*
X641729Y-2465198D01*
X641729Y-2465198D02*
X527444Y-2579484D01*
X527444Y-2579484D02*
X651253Y-2579484D01*
X746491Y-2579484D02*
X784586Y-2579484D01*
X784586Y-2579484D02*
X803634Y-2569960D01*
X803634Y-2569960D02*
X813158Y-2560436D01*
X813158Y-2560436D02*
X832205Y-2531865D01*
X832205Y-2531865D02*
X841729Y-2493770D01*
X841729Y-2493770D02*
X841729Y-2417579D01*
X841729Y-2417579D02*
X832205Y-2398531D01*
X832205Y-2398531D02*
X822682Y-2389008D01*
X822682Y-2389008D02*
X803634Y-2379484D01*
X803634Y-2379484D02*
X765539Y-2379484D01*
X765539Y-2379484D02*
X746491Y-2389008D01*
X746491Y-2389008D02*
X736967Y-2398531D01*
X736967Y-2398531D02*
X727443Y-2417579D01*
X727443Y-2417579D02*
X727443Y-2465198D01*
X727443Y-2465198D02*
X736967Y-2484246D01*
X736967Y-2484246D02*
X746491Y-2493770D01*
X746491Y-2493770D02*
X765539Y-2503293D01*
X765539Y-2503293D02*
X803634Y-2503293D01*
X803634Y-2503293D02*
X822682Y-2493770D01*
X822682Y-2493770D02*
X832205Y-2484246D01*
X832205Y-2484246D02*
X841729Y-2465198D01*
X1022682Y-2379484D02*
X927443Y-2379484D01*
X927443Y-2379484D02*
X917920Y-2474722D01*
X917920Y-2474722D02*
X927443Y-2465198D01*
X927443Y-2465198D02*
X946491Y-2455674D01*
X946491Y-2455674D02*
X994110Y-2455674D01*
X994110Y-2455674D02*
X1013158Y-2465198D01*
X1013158Y-2465198D02*
X1022682Y-2474722D01*
X1022682Y-2474722D02*
X1032205Y-2493770D01*
X1032205Y-2493770D02*
X1032205Y-2541389D01*
X1032205Y-2541389D02*
X1022682Y-2560436D01*
X1022682Y-2560436D02*
X1013158Y-2569960D01*
X1013158Y-2569960D02*
X994110Y-2579484D01*
X994110Y-2579484D02*
X946491Y-2579484D01*
X946491Y-2579484D02*
X927443Y-2569960D01*
X927443Y-2569960D02*
X917920Y-2560436D01*
X1117920Y-2579484D02*
X1117920Y-2446150D01*
X1117920Y-2465198D02*
X1127444Y-2455674D01*
X1127444Y-2455674D02*
X1146491Y-2446150D01*
X1146491Y-2446150D02*
X1175063Y-2446150D01*
X1175063Y-2446150D02*
X1194110Y-2455674D01*
X1194110Y-2455674D02*
X1203634Y-2474722D01*
X1203634Y-2474722D02*
X1203634Y-2579484D01*
X1203634Y-2474722D02*
X1213158Y-2455674D01*
X1213158Y-2455674D02*
X1232205Y-2446150D01*
X1232205Y-2446150D02*
X1260777Y-2446150D01*
X1260777Y-2446150D02*
X1279825Y-2455674D01*
X1279825Y-2455674D02*
X1289348Y-2474722D01*
X1289348Y-2474722D02*
X1289348Y-2579484D01*
X1384586Y-2579484D02*
X1384586Y-2446150D01*
X1384586Y-2465198D02*
X1394110Y-2455674D01*
X1394110Y-2455674D02*
X1413158Y-2446150D01*
X1413158Y-2446150D02*
X1441729Y-2446150D01*
X1441729Y-2446150D02*
X1460777Y-2455674D01*
X1460777Y-2455674D02*
X1470301Y-2474722D01*
X1470301Y-2474722D02*
X1470301Y-2579484D01*
X1470301Y-2474722D02*
X1479824Y-2455674D01*
X1479824Y-2455674D02*
X1498872Y-2446150D01*
X1498872Y-2446150D02*
X1527443Y-2446150D01*
X1527443Y-2446150D02*
X1546491Y-2455674D01*
X1546491Y-2455674D02*
X1556015Y-2474722D01*
X1556015Y-2474722D02*
X1556015Y-2579484D01*
X1946491Y-2369960D02*
X1775063Y-2627103D01*
X2203634Y-2379484D02*
X2222682Y-2379484D01*
X2222682Y-2379484D02*
X2241729Y-2389008D01*
X2241729Y-2389008D02*
X2251253Y-2398531D01*
X2251253Y-2398531D02*
X2260777Y-2417579D01*
X2260777Y-2417579D02*
X2270301Y-2455674D01*
X2270301Y-2455674D02*
X2270301Y-2503293D01*
X2270301Y-2503293D02*
X2260777Y-2541389D01*
X2260777Y-2541389D02*
X2251253Y-2560436D01*
X2251253Y-2560436D02*
X2241729Y-2569960D01*
X2241729Y-2569960D02*
X2222682Y-2579484D01*
X2222682Y-2579484D02*
X2203634Y-2579484D01*
X2203634Y-2579484D02*
X2184587Y-2569960D01*
X2184587Y-2569960D02*
X2175063Y-2560436D01*
X2175063Y-2560436D02*
X2165539Y-2541389D01*
X2165539Y-2541389D02*
X2156015Y-2503293D01*
X2156015Y-2503293D02*
X2156015Y-2455674D01*
X2156015Y-2455674D02*
X2165539Y-2417579D01*
X2165539Y-2417579D02*
X2175063Y-2398531D01*
X2175063Y-2398531D02*
X2184587Y-2389008D01*
X2184587Y-2389008D02*
X2203634Y-2379484D01*
X2356015Y-2560436D02*
X2365539Y-2569960D01*
X2365539Y-2569960D02*
X2356015Y-2579484D01*
X2356015Y-2579484D02*
X2346491Y-2569960D01*
X2346491Y-2569960D02*
X2356015Y-2560436D01*
X2356015Y-2560436D02*
X2356015Y-2579484D01*
X2489348Y-2379484D02*
X2508396Y-2379484D01*
X2508396Y-2379484D02*
X2527444Y-2389008D01*
X2527444Y-2389008D02*
X2536968Y-2398531D01*
X2536968Y-2398531D02*
X2546491Y-2417579D01*
X2546491Y-2417579D02*
X2556015Y-2455674D01*
X2556015Y-2455674D02*
X2556015Y-2503293D01*
X2556015Y-2503293D02*
X2546491Y-2541389D01*
X2546491Y-2541389D02*
X2536968Y-2560436D01*
X2536968Y-2560436D02*
X2527444Y-2569960D01*
X2527444Y-2569960D02*
X2508396Y-2579484D01*
X2508396Y-2579484D02*
X2489348Y-2579484D01*
X2489348Y-2579484D02*
X2470301Y-2569960D01*
X2470301Y-2569960D02*
X2460777Y-2560436D01*
X2460777Y-2560436D02*
X2451253Y-2541389D01*
X2451253Y-2541389D02*
X2441729Y-2503293D01*
X2441729Y-2503293D02*
X2441729Y-2455674D01*
X2441729Y-2455674D02*
X2451253Y-2417579D01*
X2451253Y-2417579D02*
X2460777Y-2398531D01*
X2460777Y-2398531D02*
X2470301Y-2389008D01*
X2470301Y-2389008D02*
X2489348Y-2379484D01*
X2736968Y-2379484D02*
X2641729Y-2379484D01*
X2641729Y-2379484D02*
X2632206Y-2474722D01*
X2632206Y-2474722D02*
X2641729Y-2465198D01*
X2641729Y-2465198D02*
X2660777Y-2455674D01*
X2660777Y-2455674D02*
X2708396Y-2455674D01*
X2708396Y-2455674D02*
X2727444Y-2465198D01*
X2727444Y-2465198D02*
X2736968Y-2474722D01*
X2736968Y-2474722D02*
X2746491Y-2493770D01*
X2746491Y-2493770D02*
X2746491Y-2541389D01*
X2746491Y-2541389D02*
X2736968Y-2560436D01*
X2736968Y-2560436D02*
X2727444Y-2569960D01*
X2727444Y-2569960D02*
X2708396Y-2579484D01*
X2708396Y-2579484D02*
X2660777Y-2579484D01*
X2660777Y-2579484D02*
X2641729Y-2569960D01*
X2641729Y-2569960D02*
X2632206Y-2560436D01*
X2936967Y-2579484D02*
X2822682Y-2579484D01*
X2879825Y-2579484D02*
X2879825Y-2379484D01*
X2879825Y-2379484D02*
X2860777Y-2408055D01*
X2860777Y-2408055D02*
X2841729Y-2427103D01*
X2841729Y-2427103D02*
X2822682Y-2436627D01*
X3060777Y-2379484D02*
X3079825Y-2379484D01*
X3079825Y-2379484D02*
X3098872Y-2389008D01*
X3098872Y-2389008D02*
X3108396Y-2398531D01*
X3108396Y-2398531D02*
X3117920Y-2417579D01*
X3117920Y-2417579D02*
X3127444Y-2455674D01*
X3127444Y-2455674D02*
X3127444Y-2503293D01*
X3127444Y-2503293D02*
X3117920Y-2541389D01*
X3117920Y-2541389D02*
X3108396Y-2560436D01*
X3108396Y-2560436D02*
X3098872Y-2569960D01*
X3098872Y-2569960D02*
X3079825Y-2579484D01*
X3079825Y-2579484D02*
X3060777Y-2579484D01*
X3060777Y-2579484D02*
X3041729Y-2569960D01*
X3041729Y-2569960D02*
X3032206Y-2560436D01*
X3032206Y-2560436D02*
X3022682Y-2541389D01*
X3022682Y-2541389D02*
X3013158Y-2503293D01*
X3013158Y-2503293D02*
X3013158Y-2455674D01*
X3013158Y-2455674D02*
X3022682Y-2417579D01*
X3022682Y-2417579D02*
X3032206Y-2398531D01*
X3032206Y-2398531D02*
X3041729Y-2389008D01*
X3041729Y-2389008D02*
X3060777Y-2379484D01*
X3203634Y-2379484D02*
X3203634Y-2417579D01*
X3279825Y-2379484D02*
X3279825Y-2417579D01*
X3575063Y-2655674D02*
X3565539Y-2646150D01*
X3565539Y-2646150D02*
X3546491Y-2617579D01*
X3546491Y-2617579D02*
X3536968Y-2598531D01*
X3536968Y-2598531D02*
X3527444Y-2569960D01*
X3527444Y-2569960D02*
X3517920Y-2522341D01*
X3517920Y-2522341D02*
X3517920Y-2484246D01*
X3517920Y-2484246D02*
X3527444Y-2436627D01*
X3527444Y-2436627D02*
X3536968Y-2408055D01*
X3536968Y-2408055D02*
X3546491Y-2389008D01*
X3546491Y-2389008D02*
X3565539Y-2360436D01*
X3565539Y-2360436D02*
X3575063Y-2350912D01*
X3641729Y-2398531D02*
X3651253Y-2389008D01*
X3651253Y-2389008D02*
X3670301Y-2379484D01*
X3670301Y-2379484D02*
X3717920Y-2379484D01*
X3717920Y-2379484D02*
X3736968Y-2389008D01*
X3736968Y-2389008D02*
X3746491Y-2398531D01*
X3746491Y-2398531D02*
X3756015Y-2417579D01*
X3756015Y-2417579D02*
X3756015Y-2436627D01*
X3756015Y-2436627D02*
X3746491Y-2465198D01*
X3746491Y-2465198D02*
X3632206Y-2579484D01*
X3632206Y-2579484D02*
X3756015Y-2579484D01*
X3994110Y-2579484D02*
X3994110Y-2379484D01*
X4079825Y-2579484D02*
X4079825Y-2474722D01*
X4079825Y-2474722D02*
X4070301Y-2455674D01*
X4070301Y-2455674D02*
X4051253Y-2446150D01*
X4051253Y-2446150D02*
X4022682Y-2446150D01*
X4022682Y-2446150D02*
X4003634Y-2455674D01*
X4003634Y-2455674D02*
X3994110Y-2465198D01*
X4203634Y-2579484D02*
X4184587Y-2569960D01*
X4184587Y-2569960D02*
X4175063Y-2560436D01*
X4175063Y-2560436D02*
X4165539Y-2541389D01*
X4165539Y-2541389D02*
X4165539Y-2484246D01*
X4165539Y-2484246D02*
X4175063Y-2465198D01*
X4175063Y-2465198D02*
X4184587Y-2455674D01*
X4184587Y-2455674D02*
X4203634Y-2446150D01*
X4203634Y-2446150D02*
X4232206Y-2446150D01*
X4232206Y-2446150D02*
X4251253Y-2455674D01*
X4251253Y-2455674D02*
X4260777Y-2465198D01*
X4260777Y-2465198D02*
X4270301Y-2484246D01*
X4270301Y-2484246D02*
X4270301Y-2541389D01*
X4270301Y-2541389D02*
X4260777Y-2560436D01*
X4260777Y-2560436D02*
X4251253Y-2569960D01*
X4251253Y-2569960D02*
X4232206Y-2579484D01*
X4232206Y-2579484D02*
X4203634Y-2579484D01*
X4384587Y-2579484D02*
X4365539Y-2569960D01*
X4365539Y-2569960D02*
X4356015Y-2550912D01*
X4356015Y-2550912D02*
X4356015Y-2379484D01*
X4536968Y-2569960D02*
X4517920Y-2579484D01*
X4517920Y-2579484D02*
X4479825Y-2579484D01*
X4479825Y-2579484D02*
X4460777Y-2569960D01*
X4460777Y-2569960D02*
X4451253Y-2550912D01*
X4451253Y-2550912D02*
X4451253Y-2474722D01*
X4451253Y-2474722D02*
X4460777Y-2455674D01*
X4460777Y-2455674D02*
X4479825Y-2446150D01*
X4479825Y-2446150D02*
X4517920Y-2446150D01*
X4517920Y-2446150D02*
X4536968Y-2455674D01*
X4536968Y-2455674D02*
X4546492Y-2474722D01*
X4546492Y-2474722D02*
X4546492Y-2493770D01*
X4546492Y-2493770D02*
X4451253Y-2512817D01*
X4622682Y-2569960D02*
X4641730Y-2579484D01*
X4641730Y-2579484D02*
X4679825Y-2579484D01*
X4679825Y-2579484D02*
X4698873Y-2569960D01*
X4698873Y-2569960D02*
X4708396Y-2550912D01*
X4708396Y-2550912D02*
X4708396Y-2541389D01*
X4708396Y-2541389D02*
X4698873Y-2522341D01*
X4698873Y-2522341D02*
X4679825Y-2512817D01*
X4679825Y-2512817D02*
X4651253Y-2512817D01*
X4651253Y-2512817D02*
X4632206Y-2503293D01*
X4632206Y-2503293D02*
X4622682Y-2484246D01*
X4622682Y-2484246D02*
X4622682Y-2474722D01*
X4622682Y-2474722D02*
X4632206Y-2455674D01*
X4632206Y-2455674D02*
X4651253Y-2446150D01*
X4651253Y-2446150D02*
X4679825Y-2446150D01*
X4679825Y-2446150D02*
X4698873Y-2455674D01*
X4775063Y-2655674D02*
X4784587Y-2646150D01*
X4784587Y-2646150D02*
X4803634Y-2617579D01*
X4803634Y-2617579D02*
X4813158Y-2598531D01*
X4813158Y-2598531D02*
X4822682Y-2569960D01*
X4822682Y-2569960D02*
X4832206Y-2522341D01*
X4832206Y-2522341D02*
X4832206Y-2484246D01*
X4832206Y-2484246D02*
X4822682Y-2436627D01*
X4822682Y-2436627D02*
X4813158Y-2408055D01*
X4813158Y-2408055D02*
X4803634Y-2389008D01*
X4803634Y-2389008D02*
X4784587Y-2360436D01*
X4784587Y-2360436D02*
X4775063Y-2350912D01*
X-200000Y-2652000D02*
X0Y-2852000D01*
X0Y-2652000D02*
X-200000Y-2852000D01*
X-100000Y-2852000D02*
X0Y-2752000D01*
X-100000Y-2652000D01*
X-200000Y-2752000D01*
X-100000Y-2852000D01*
X251253Y-2662531D02*
X260777Y-2653008D01*
X260777Y-2653008D02*
X279824Y-2643484D01*
X279824Y-2643484D02*
X327444Y-2643484D01*
X327444Y-2643484D02*
X346491Y-2653008D01*
X346491Y-2653008D02*
X356015Y-2662531D01*
X356015Y-2662531D02*
X365539Y-2681579D01*
X365539Y-2681579D02*
X365539Y-2700627D01*
X365539Y-2700627D02*
X356015Y-2729198D01*
X356015Y-2729198D02*
X241729Y-2843484D01*
X241729Y-2843484D02*
X365539Y-2843484D01*
X451253Y-2824436D02*
X460777Y-2833960D01*
X460777Y-2833960D02*
X451253Y-2843484D01*
X451253Y-2843484D02*
X441729Y-2833960D01*
X441729Y-2833960D02*
X451253Y-2824436D01*
X451253Y-2824436D02*
X451253Y-2843484D01*
X527444Y-2643484D02*
X660777Y-2643484D01*
X660777Y-2643484D02*
X575063Y-2843484D01*
X775062Y-2643484D02*
X794110Y-2643484D01*
X794110Y-2643484D02*
X813158Y-2653008D01*
X813158Y-2653008D02*
X822682Y-2662531D01*
X822682Y-2662531D02*
X832205Y-2681579D01*
X832205Y-2681579D02*
X841729Y-2719674D01*
X841729Y-2719674D02*
X841729Y-2767293D01*
X841729Y-2767293D02*
X832205Y-2805388D01*
X832205Y-2805388D02*
X822682Y-2824436D01*
X822682Y-2824436D02*
X813158Y-2833960D01*
X813158Y-2833960D02*
X794110Y-2843484D01*
X794110Y-2843484D02*
X775062Y-2843484D01*
X775062Y-2843484D02*
X756015Y-2833960D01*
X756015Y-2833960D02*
X746491Y-2824436D01*
X746491Y-2824436D02*
X736967Y-2805388D01*
X736967Y-2805388D02*
X727443Y-2767293D01*
X727443Y-2767293D02*
X727443Y-2719674D01*
X727443Y-2719674D02*
X736967Y-2681579D01*
X736967Y-2681579D02*
X746491Y-2662531D01*
X746491Y-2662531D02*
X756015Y-2653008D01*
X756015Y-2653008D02*
X775062Y-2643484D01*
X965539Y-2643484D02*
X984586Y-2643484D01*
X984586Y-2643484D02*
X1003634Y-2653008D01*
X1003634Y-2653008D02*
X1013158Y-2662531D01*
X1013158Y-2662531D02*
X1022682Y-2681579D01*
X1022682Y-2681579D02*
X1032205Y-2719674D01*
X1032205Y-2719674D02*
X1032205Y-2767293D01*
X1032205Y-2767293D02*
X1022682Y-2805388D01*
X1022682Y-2805388D02*
X1013158Y-2824436D01*
X1013158Y-2824436D02*
X1003634Y-2833960D01*
X1003634Y-2833960D02*
X984586Y-2843484D01*
X984586Y-2843484D02*
X965539Y-2843484D01*
X965539Y-2843484D02*
X946491Y-2833960D01*
X946491Y-2833960D02*
X936967Y-2824436D01*
X936967Y-2824436D02*
X927443Y-2805388D01*
X927443Y-2805388D02*
X917920Y-2767293D01*
X917920Y-2767293D02*
X917920Y-2719674D01*
X917920Y-2719674D02*
X927443Y-2681579D01*
X927443Y-2681579D02*
X936967Y-2662531D01*
X936967Y-2662531D02*
X946491Y-2653008D01*
X946491Y-2653008D02*
X965539Y-2643484D01*
X1117920Y-2843484D02*
X1117920Y-2710150D01*
X1117920Y-2729198D02*
X1127444Y-2719674D01*
X1127444Y-2719674D02*
X1146491Y-2710150D01*
X1146491Y-2710150D02*
X1175063Y-2710150D01*
X1175063Y-2710150D02*
X1194110Y-2719674D01*
X1194110Y-2719674D02*
X1203634Y-2738722D01*
X1203634Y-2738722D02*
X1203634Y-2843484D01*
X1203634Y-2738722D02*
X1213158Y-2719674D01*
X1213158Y-2719674D02*
X1232205Y-2710150D01*
X1232205Y-2710150D02*
X1260777Y-2710150D01*
X1260777Y-2710150D02*
X1279825Y-2719674D01*
X1279825Y-2719674D02*
X1289348Y-2738722D01*
X1289348Y-2738722D02*
X1289348Y-2843484D01*
X1384586Y-2843484D02*
X1384586Y-2710150D01*
X1384586Y-2729198D02*
X1394110Y-2719674D01*
X1394110Y-2719674D02*
X1413158Y-2710150D01*
X1413158Y-2710150D02*
X1441729Y-2710150D01*
X1441729Y-2710150D02*
X1460777Y-2719674D01*
X1460777Y-2719674D02*
X1470301Y-2738722D01*
X1470301Y-2738722D02*
X1470301Y-2843484D01*
X1470301Y-2738722D02*
X1479824Y-2719674D01*
X1479824Y-2719674D02*
X1498872Y-2710150D01*
X1498872Y-2710150D02*
X1527443Y-2710150D01*
X1527443Y-2710150D02*
X1546491Y-2719674D01*
X1546491Y-2719674D02*
X1556015Y-2738722D01*
X1556015Y-2738722D02*
X1556015Y-2843484D01*
X1946491Y-2633960D02*
X1775063Y-2891103D01*
X2203634Y-2643484D02*
X2222682Y-2643484D01*
X2222682Y-2643484D02*
X2241729Y-2653008D01*
X2241729Y-2653008D02*
X2251253Y-2662531D01*
X2251253Y-2662531D02*
X2260777Y-2681579D01*
X2260777Y-2681579D02*
X2270301Y-2719674D01*
X2270301Y-2719674D02*
X2270301Y-2767293D01*
X2270301Y-2767293D02*
X2260777Y-2805388D01*
X2260777Y-2805388D02*
X2251253Y-2824436D01*
X2251253Y-2824436D02*
X2241729Y-2833960D01*
X2241729Y-2833960D02*
X2222682Y-2843484D01*
X2222682Y-2843484D02*
X2203634Y-2843484D01*
X2203634Y-2843484D02*
X2184587Y-2833960D01*
X2184587Y-2833960D02*
X2175063Y-2824436D01*
X2175063Y-2824436D02*
X2165539Y-2805388D01*
X2165539Y-2805388D02*
X2156015Y-2767293D01*
X2156015Y-2767293D02*
X2156015Y-2719674D01*
X2156015Y-2719674D02*
X2165539Y-2681579D01*
X2165539Y-2681579D02*
X2175063Y-2662531D01*
X2175063Y-2662531D02*
X2184587Y-2653008D01*
X2184587Y-2653008D02*
X2203634Y-2643484D01*
X2356015Y-2824436D02*
X2365539Y-2833960D01*
X2365539Y-2833960D02*
X2356015Y-2843484D01*
X2356015Y-2843484D02*
X2346491Y-2833960D01*
X2346491Y-2833960D02*
X2356015Y-2824436D01*
X2356015Y-2824436D02*
X2356015Y-2843484D01*
X2556015Y-2843484D02*
X2441729Y-2843484D01*
X2498872Y-2843484D02*
X2498872Y-2643484D01*
X2498872Y-2643484D02*
X2479825Y-2672055D01*
X2479825Y-2672055D02*
X2460777Y-2691103D01*
X2460777Y-2691103D02*
X2441729Y-2700627D01*
X2679825Y-2643484D02*
X2698872Y-2643484D01*
X2698872Y-2643484D02*
X2717920Y-2653008D01*
X2717920Y-2653008D02*
X2727444Y-2662531D01*
X2727444Y-2662531D02*
X2736968Y-2681579D01*
X2736968Y-2681579D02*
X2746491Y-2719674D01*
X2746491Y-2719674D02*
X2746491Y-2767293D01*
X2746491Y-2767293D02*
X2736968Y-2805388D01*
X2736968Y-2805388D02*
X2727444Y-2824436D01*
X2727444Y-2824436D02*
X2717920Y-2833960D01*
X2717920Y-2833960D02*
X2698872Y-2843484D01*
X2698872Y-2843484D02*
X2679825Y-2843484D01*
X2679825Y-2843484D02*
X2660777Y-2833960D01*
X2660777Y-2833960D02*
X2651253Y-2824436D01*
X2651253Y-2824436D02*
X2641729Y-2805388D01*
X2641729Y-2805388D02*
X2632206Y-2767293D01*
X2632206Y-2767293D02*
X2632206Y-2719674D01*
X2632206Y-2719674D02*
X2641729Y-2681579D01*
X2641729Y-2681579D02*
X2651253Y-2662531D01*
X2651253Y-2662531D02*
X2660777Y-2653008D01*
X2660777Y-2653008D02*
X2679825Y-2643484D01*
X2917920Y-2643484D02*
X2879825Y-2643484D01*
X2879825Y-2643484D02*
X2860777Y-2653008D01*
X2860777Y-2653008D02*
X2851253Y-2662531D01*
X2851253Y-2662531D02*
X2832206Y-2691103D01*
X2832206Y-2691103D02*
X2822682Y-2729198D01*
X2822682Y-2729198D02*
X2822682Y-2805388D01*
X2822682Y-2805388D02*
X2832206Y-2824436D01*
X2832206Y-2824436D02*
X2841729Y-2833960D01*
X2841729Y-2833960D02*
X2860777Y-2843484D01*
X2860777Y-2843484D02*
X2898872Y-2843484D01*
X2898872Y-2843484D02*
X2917920Y-2833960D01*
X2917920Y-2833960D02*
X2927444Y-2824436D01*
X2927444Y-2824436D02*
X2936967Y-2805388D01*
X2936967Y-2805388D02*
X2936967Y-2757770D01*
X2936967Y-2757770D02*
X2927444Y-2738722D01*
X2927444Y-2738722D02*
X2917920Y-2729198D01*
X2917920Y-2729198D02*
X2898872Y-2719674D01*
X2898872Y-2719674D02*
X2860777Y-2719674D01*
X2860777Y-2719674D02*
X2841729Y-2729198D01*
X2841729Y-2729198D02*
X2832206Y-2738722D01*
X2832206Y-2738722D02*
X2822682Y-2757770D01*
X3003634Y-2643484D02*
X3127444Y-2643484D01*
X3127444Y-2643484D02*
X3060777Y-2719674D01*
X3060777Y-2719674D02*
X3089348Y-2719674D01*
X3089348Y-2719674D02*
X3108396Y-2729198D01*
X3108396Y-2729198D02*
X3117920Y-2738722D01*
X3117920Y-2738722D02*
X3127444Y-2757770D01*
X3127444Y-2757770D02*
X3127444Y-2805388D01*
X3127444Y-2805388D02*
X3117920Y-2824436D01*
X3117920Y-2824436D02*
X3108396Y-2833960D01*
X3108396Y-2833960D02*
X3089348Y-2843484D01*
X3089348Y-2843484D02*
X3032206Y-2843484D01*
X3032206Y-2843484D02*
X3013158Y-2833960D01*
X3013158Y-2833960D02*
X3003634Y-2824436D01*
X3203634Y-2643484D02*
X3203634Y-2681579D01*
X3279825Y-2643484D02*
X3279825Y-2681579D01*
X3575063Y-2919674D02*
X3565539Y-2910150D01*
X3565539Y-2910150D02*
X3546491Y-2881579D01*
X3546491Y-2881579D02*
X3536968Y-2862531D01*
X3536968Y-2862531D02*
X3527444Y-2833960D01*
X3527444Y-2833960D02*
X3517920Y-2786341D01*
X3517920Y-2786341D02*
X3517920Y-2748246D01*
X3517920Y-2748246D02*
X3527444Y-2700627D01*
X3527444Y-2700627D02*
X3536968Y-2672055D01*
X3536968Y-2672055D02*
X3546491Y-2653008D01*
X3546491Y-2653008D02*
X3565539Y-2624436D01*
X3565539Y-2624436D02*
X3575063Y-2614912D01*
X3736968Y-2643484D02*
X3698872Y-2643484D01*
X3698872Y-2643484D02*
X3679825Y-2653008D01*
X3679825Y-2653008D02*
X3670301Y-2662531D01*
X3670301Y-2662531D02*
X3651253Y-2691103D01*
X3651253Y-2691103D02*
X3641729Y-2729198D01*
X3641729Y-2729198D02*
X3641729Y-2805388D01*
X3641729Y-2805388D02*
X3651253Y-2824436D01*
X3651253Y-2824436D02*
X3660777Y-2833960D01*
X3660777Y-2833960D02*
X3679825Y-2843484D01*
X3679825Y-2843484D02*
X3717920Y-2843484D01*
X3717920Y-2843484D02*
X3736968Y-2833960D01*
X3736968Y-2833960D02*
X3746491Y-2824436D01*
X3746491Y-2824436D02*
X3756015Y-2805388D01*
X3756015Y-2805388D02*
X3756015Y-2757770D01*
X3756015Y-2757770D02*
X3746491Y-2738722D01*
X3746491Y-2738722D02*
X3736968Y-2729198D01*
X3736968Y-2729198D02*
X3717920Y-2719674D01*
X3717920Y-2719674D02*
X3679825Y-2719674D01*
X3679825Y-2719674D02*
X3660777Y-2729198D01*
X3660777Y-2729198D02*
X3651253Y-2738722D01*
X3651253Y-2738722D02*
X3641729Y-2757770D01*
X3994110Y-2843484D02*
X3994110Y-2643484D01*
X4079825Y-2843484D02*
X4079825Y-2738722D01*
X4079825Y-2738722D02*
X4070301Y-2719674D01*
X4070301Y-2719674D02*
X4051253Y-2710150D01*
X4051253Y-2710150D02*
X4022682Y-2710150D01*
X4022682Y-2710150D02*
X4003634Y-2719674D01*
X4003634Y-2719674D02*
X3994110Y-2729198D01*
X4203634Y-2843484D02*
X4184587Y-2833960D01*
X4184587Y-2833960D02*
X4175063Y-2824436D01*
X4175063Y-2824436D02*
X4165539Y-2805388D01*
X4165539Y-2805388D02*
X4165539Y-2748246D01*
X4165539Y-2748246D02*
X4175063Y-2729198D01*
X4175063Y-2729198D02*
X4184587Y-2719674D01*
X4184587Y-2719674D02*
X4203634Y-2710150D01*
X4203634Y-2710150D02*
X4232206Y-2710150D01*
X4232206Y-2710150D02*
X4251253Y-2719674D01*
X4251253Y-2719674D02*
X4260777Y-2729198D01*
X4260777Y-2729198D02*
X4270301Y-2748246D01*
X4270301Y-2748246D02*
X4270301Y-2805388D01*
X4270301Y-2805388D02*
X4260777Y-2824436D01*
X4260777Y-2824436D02*
X4251253Y-2833960D01*
X4251253Y-2833960D02*
X4232206Y-2843484D01*
X4232206Y-2843484D02*
X4203634Y-2843484D01*
X4384587Y-2843484D02*
X4365539Y-2833960D01*
X4365539Y-2833960D02*
X4356015Y-2814912D01*
X4356015Y-2814912D02*
X4356015Y-2643484D01*
X4536968Y-2833960D02*
X4517920Y-2843484D01*
X4517920Y-2843484D02*
X4479825Y-2843484D01*
X4479825Y-2843484D02*
X4460777Y-2833960D01*
X4460777Y-2833960D02*
X4451253Y-2814912D01*
X4451253Y-2814912D02*
X4451253Y-2738722D01*
X4451253Y-2738722D02*
X4460777Y-2719674D01*
X4460777Y-2719674D02*
X4479825Y-2710150D01*
X4479825Y-2710150D02*
X4517920Y-2710150D01*
X4517920Y-2710150D02*
X4536968Y-2719674D01*
X4536968Y-2719674D02*
X4546492Y-2738722D01*
X4546492Y-2738722D02*
X4546492Y-2757770D01*
X4546492Y-2757770D02*
X4451253Y-2776817D01*
X4622682Y-2833960D02*
X4641730Y-2843484D01*
X4641730Y-2843484D02*
X4679825Y-2843484D01*
X4679825Y-2843484D02*
X4698873Y-2833960D01*
X4698873Y-2833960D02*
X4708396Y-2814912D01*
X4708396Y-2814912D02*
X4708396Y-2805388D01*
X4708396Y-2805388D02*
X4698873Y-2786341D01*
X4698873Y-2786341D02*
X4679825Y-2776817D01*
X4679825Y-2776817D02*
X4651253Y-2776817D01*
X4651253Y-2776817D02*
X4632206Y-2767293D01*
X4632206Y-2767293D02*
X4622682Y-2748246D01*
X4622682Y-2748246D02*
X4622682Y-2738722D01*
X4622682Y-2738722D02*
X4632206Y-2719674D01*
X4632206Y-2719674D02*
X4651253Y-2710150D01*
X4651253Y-2710150D02*
X4679825Y-2710150D01*
X4679825Y-2710150D02*
X4698873Y-2719674D01*
X4775063Y-2919674D02*
X4784587Y-2910150D01*
X4784587Y-2910150D02*
X4803634Y-2881579D01*
X4803634Y-2881579D02*
X4813158Y-2862531D01*
X4813158Y-2862531D02*
X4822682Y-2833960D01*
X4822682Y-2833960D02*
X4832206Y-2786341D01*
X4832206Y-2786341D02*
X4832206Y-2748246D01*
X4832206Y-2748246D02*
X4822682Y-2700627D01*
X4822682Y-2700627D02*
X4813158Y-2672055D01*
X4813158Y-2672055D02*
X4803634Y-2653008D01*
X4803634Y-2653008D02*
X4784587Y-2624436D01*
X4784587Y-2624436D02*
X4775063Y-2614912D01*
M02*
