M48
; DRILL file {KiCad 8.0.6} date 2025-05-08T15:48:44-0400
; FORMAT={-:-/ absolute / metric / decimal}
; #@! TF.CreationDate,2025-05-08T15:48:44-04:00
; #@! TF.GenerationSoftware,Kicad,Pcbnew,8.0.6
; #@! TF.FileFunction,Plated,1,2,PTH
FMAT,2
METRIC
; #@! TA.AperFunction,Plated,PTH,ViaDrill
T1C0.200
; #@! TA.AperFunction,Plated,PTH,ViaDrill
T2C0.300
; #@! TA.AperFunction,Plated,PTH,ViaDrill
T3C0.600
; #@! TA.AperFunction,Plated,PTH,ComponentDrill
T4C0.600
; #@! TA.AperFunction,Plated,PTH,ComponentDrill
T5C0.750
; #@! TA.AperFunction,Plated,PTH,ComponentDrill
T6C0.864
; #@! TA.AperFunction,Plated,PTH,ComponentDrill
T7C1.000
; #@! TA.AperFunction,Plated,PTH,ComponentDrill
T8C1.295
; #@! TA.AperFunction,Plated,PTH,ComponentDrill
T9C2.700
%
G90
G05
T1
X126.5Y-79.15
X127.0Y-79.15
X128.0Y-74.85
T2
X127.0Y-83.0
X127.0Y-85.0
X128.2Y-87.725
X129.5Y-83.0
X130.6Y-76.938
X130.8Y-87.7
X135.6Y-65.3
X140.765Y-66.55
X144.794Y-69.2
X144.794Y-76.2
X146.1Y-65.3
X151.365Y-66.55
X151.413Y-76.2
T3
X115.77Y-95.75
X146.96Y-84.35
X146.96Y-85.45
X146.96Y-86.65
X146.96Y-87.95
X146.96Y-89.15
X146.96Y-90.45
X146.96Y-91.65
X146.96Y-92.95
X148.36Y-84.35
X148.36Y-85.45
X148.36Y-86.65
X148.36Y-87.95
X148.36Y-89.15
X148.36Y-90.45
X148.36Y-91.65
X148.36Y-92.95
X149.76Y-84.35
X149.76Y-85.45
X149.76Y-86.65
X149.76Y-87.95
X149.76Y-89.15
X149.76Y-90.45
X149.76Y-91.65
X149.76Y-92.95
X150.86Y-80.308
X151.06Y-84.35
X151.06Y-85.45
X151.06Y-86.65
X151.06Y-87.95
X151.06Y-89.15
X151.06Y-90.45
X151.06Y-91.65
X151.06Y-92.95
X152.36Y-84.35
X152.36Y-85.45
X152.36Y-86.65
X152.36Y-87.95
X152.36Y-89.15
X152.36Y-90.45
X152.36Y-91.65
X152.36Y-92.95
X153.4Y-80.308
X153.66Y-84.35
X153.66Y-85.45
X153.66Y-86.65
X153.66Y-87.95
X153.66Y-89.15
X153.66Y-90.45
X153.66Y-91.65
X153.66Y-92.95
X154.96Y-84.35
X154.96Y-85.45
X154.96Y-86.65
X154.96Y-87.95
X154.96Y-89.15
X154.96Y-90.45
X154.96Y-91.65
X154.96Y-92.95
T5
X136.3Y-88.533
X136.3Y-97.233
X139.8Y-88.533
X139.8Y-97.233
T6
X122.1Y-86.8
X122.1Y-90.3
X138.1Y-76.3
X138.1Y-81.3
T7
X120.8Y-104.175
X123.3Y-104.175
X125.8Y-104.175
X128.3Y-104.175
X142.3Y-61.3
X144.8Y-61.3
X147.3Y-61.3
X149.8Y-61.3
T8
X111.57Y-90.25
X111.57Y-95.25
T9
X118.55Y-71.2
X118.55Y-78.4
X160.35Y-71.2
X160.35Y-78.4
X160.35Y-89.7
X160.35Y-96.9
T4
X112.0Y-68.05G85X113.1Y-68.05
G05
X112.0Y-81.55G85X113.1Y-81.55
G05
X166.9Y-68.05G85X165.8Y-68.05
G05
X166.9Y-81.55G85X165.8Y-81.55
G05
X166.9Y-86.55G85X165.8Y-86.55
G05
X166.9Y-100.05G85X165.8Y-100.05
G05
T7
X114.9Y-75.3G85X114.9Y-74.3
G05
X164.0Y-74.3G85X164.0Y-75.3
G05
X164.0Y-92.8G85X164.0Y-93.8
G05
M30
