%TF.GenerationSoftware,KiCad,Pcbnew,8.0.6*%
%TF.CreationDate,2025-05-08T15:48:42-04:00*%
%TF.ProjectId,PowerBoard2,506f7765-7242-46f6-9172-64322e6b6963,rev?*%
%TF.SameCoordinates,Original*%
%TF.FileFunction,Copper,L1,Top*%
%TF.FilePolarity,Positive*%
%FSLAX46Y46*%
G04 Gerber Fmt 4.6, Leading zero omitted, Abs format (unit mm)*
G04 Created by KiCad (PCBNEW 8.0.6) date 2025-05-08 15:48:42*
%MOMM*%
%LPD*%
G01*
G04 APERTURE LIST*
G04 Aperture macros list*
%AMRoundRect*
0 Rectangle with rounded corners*
0 $1 Rounding radius*
0 $2 $3 $4 $5 $6 $7 $8 $9 X,Y pos of 4 corners*
0 Add a 4 corners polygon primitive as box body*
4,1,4,$2,$3,$4,$5,$6,$7,$8,$9,$2,$3,0*
0 Add four circle primitives for the rounded corners*
1,1,$1+$1,$2,$3*
1,1,$1+$1,$4,$5*
1,1,$1+$1,$6,$7*
1,1,$1+$1,$8,$9*
0 Add four rect primitives between the rounded corners*
20,1,$1+$1,$2,$3,$4,$5,0*
20,1,$1+$1,$4,$5,$6,$7,0*
20,1,$1+$1,$6,$7,$8,$9,0*
20,1,$1+$1,$8,$9,$2,$3,0*%
G04 Aperture macros list end*
%TA.AperFunction,NonConductor*%
%ADD10C,0.200000*%
%TD*%
%TA.AperFunction,ComponentPad*%
%ADD11R,1.508000X1.508000*%
%TD*%
%TA.AperFunction,ComponentPad*%
%ADD12C,1.508000*%
%TD*%
%TA.AperFunction,SMDPad,CuDef*%
%ADD13R,1.473200X0.558800*%
%TD*%
%TA.AperFunction,SMDPad,CuDef*%
%ADD14RoundRect,0.250000X0.350000X0.450000X-0.350000X0.450000X-0.350000X-0.450000X0.350000X-0.450000X0*%
%TD*%
%TA.AperFunction,SMDPad,CuDef*%
%ADD15RoundRect,0.250000X0.450000X-0.350000X0.450000X0.350000X-0.450000X0.350000X-0.450000X-0.350000X0*%
%TD*%
%TA.AperFunction,ComponentPad*%
%ADD16R,2.000000X0.900000*%
%TD*%
%TA.AperFunction,ComponentPad*%
%ADD17RoundRect,1.025000X-1.025000X1.025000X-1.025000X-1.025000X1.025000X-1.025000X1.025000X1.025000X0*%
%TD*%
%TA.AperFunction,ComponentPad*%
%ADD18C,4.100000*%
%TD*%
%TA.AperFunction,ComponentPad*%
%ADD19R,1.300000X2.300000*%
%TD*%
%TA.AperFunction,ComponentPad*%
%ADD20C,1.371600*%
%TD*%
%TA.AperFunction,ComponentPad*%
%ADD21R,1.100000X1.100000*%
%TD*%
%TA.AperFunction,ComponentPad*%
%ADD22C,1.100000*%
%TD*%
%TA.AperFunction,SMDPad,CuDef*%
%ADD23RoundRect,0.035000X0.105000X-0.700000X0.105000X0.700000X-0.105000X0.700000X-0.105000X-0.700000X0*%
%TD*%
%TA.AperFunction,SMDPad,CuDef*%
%ADD24RoundRect,0.250000X0.475000X-0.337500X0.475000X0.337500X-0.475000X0.337500X-0.475000X-0.337500X0*%
%TD*%
%TA.AperFunction,SMDPad,CuDef*%
%ADD25RoundRect,0.250000X-0.350000X-0.450000X0.350000X-0.450000X0.350000X0.450000X-0.350000X0.450000X0*%
%TD*%
%TA.AperFunction,SMDPad,CuDef*%
%ADD26RoundRect,0.250000X-0.475000X0.337500X-0.475000X-0.337500X0.475000X-0.337500X0.475000X0.337500X0*%
%TD*%
%TA.AperFunction,SMDPad,CuDef*%
%ADD27R,1.005599X1.199998*%
%TD*%
%TA.AperFunction,SMDPad,CuDef*%
%ADD28R,2.489200X0.889000*%
%TD*%
%TA.AperFunction,ComponentPad*%
%ADD29C,1.803400*%
%TD*%
%TA.AperFunction,SMDPad,CuDef*%
%ADD30R,5.156200X2.489200*%
%TD*%
%TA.AperFunction,ComponentPad*%
%ADD31RoundRect,1.025000X1.025000X-1.025000X1.025000X1.025000X-1.025000X1.025000X-1.025000X-1.025000X0*%
%TD*%
%TA.AperFunction,SMDPad,CuDef*%
%ADD32R,0.787400X2.667000*%
%TD*%
%TA.AperFunction,SMDPad,CuDef*%
%ADD33R,10.414000X10.414000*%
%TD*%
%TA.AperFunction,SMDPad,CuDef*%
%ADD34R,1.752600X2.794000*%
%TD*%
%TA.AperFunction,ViaPad*%
%ADD35C,0.700000*%
%TD*%
%TA.AperFunction,ViaPad*%
%ADD36C,0.600000*%
%TD*%
%TA.AperFunction,ViaPad*%
%ADD37C,0.300000*%
%TD*%
%TA.AperFunction,ViaPad*%
%ADD38C,0.800000*%
%TD*%
%TA.AperFunction,Conductor*%
%ADD39C,0.200000*%
%TD*%
%TA.AperFunction,Conductor*%
%ADD40C,0.800000*%
%TD*%
G04 APERTURE END LIST*
D10*
X101600000Y-57500000D02*
X177400000Y-57500000D01*
X177400000Y-108100000D01*
X101600000Y-108100000D01*
X101600000Y-57500000D01*
D11*
%TO.P,Current reading,1,1*%
%TO.N,+3.3V*%
X120800000Y-104175000D03*
D12*
%TO.P,Current reading,2,2*%
%TO.N,/SDA*%
X123300000Y-104175000D03*
%TO.P,Current reading,3,3*%
%TO.N,/SCL*%
X125800000Y-104175000D03*
%TO.P,Current reading,4,4*%
%TO.N,GND*%
X128300000Y-104175000D03*
%TD*%
D13*
%TO.P,U4,1,OUT*%
%TO.N,Net-(U4-IN-)*%
X151364800Y-65600000D03*
%TO.P,U4,2,GND*%
%TO.N,GND*%
X151364800Y-66550001D03*
%TO.P,U4,3,IN+*%
%TO.N,Net-(U4-IN+)*%
X151364800Y-67500002D03*
%TO.P,U4,4,IN-*%
%TO.N,Net-(U4-IN-)*%
X153600000Y-67500002D03*
%TO.P,U4,5,\u002ASHDN*%
%TO.N,unconnected-(U4-\u002ASHDN-Pad5)*%
X153600000Y-66550001D03*
%TO.P,U4,6,VDD*%
%TO.N,+5V*%
X153600000Y-65600000D03*
%TD*%
D14*
%TO.P,R7,1*%
%TO.N,Net-(U4-IN+)*%
X148100000Y-65300000D03*
%TO.P,R7,2*%
%TO.N,GND*%
X146100000Y-65300000D03*
%TD*%
D15*
%TO.P,R3,1*%
%TO.N,+3.3V*%
X129500000Y-85000000D03*
%TO.P,R3,2*%
%TO.N,/SCL*%
X129500000Y-83000000D03*
%TD*%
D16*
%TO.P,12Vin,*%
%TO.N,*%
X166350000Y-68050000D03*
X166350000Y-81550000D03*
D17*
%TO.P,12Vin,1,+*%
%TO.N,GND*%
X160350000Y-71200000D03*
D18*
%TO.P,12Vin,2,-*%
%TO.N,/Buck Converter/Vin (12V)*%
X160350000Y-78400000D03*
D19*
%TO.P,12Vin,3*%
%TO.N,N/C*%
X164000000Y-74800000D03*
%TD*%
D20*
%TO.P,C2,1*%
%TO.N,GND*%
X122100000Y-86799999D03*
%TO.P,C2,2*%
%TO.N,+5V*%
X122100000Y-90300000D03*
%TD*%
D21*
%TO.P,C5,1*%
%TO.N,+5V*%
X139800000Y-88533250D03*
D22*
%TO.P,C5,2*%
%TO.N,GND*%
X136300000Y-88533250D03*
%TD*%
D23*
%TO.P,U2,1,A1*%
%TO.N,GND*%
X126500000Y-79150000D03*
%TO.P,U2,2,A0*%
X127000000Y-79150000D03*
%TO.P,U2,3,ALERT*%
%TO.N,unconnected-(U2-ALERT-Pad3)*%
X127500000Y-79150000D03*
%TO.P,U2,4,SDA*%
%TO.N,/SDA*%
X128000000Y-79150000D03*
%TO.P,U2,5,SCL*%
%TO.N,/SCL*%
X128500000Y-79150000D03*
%TO.P,U2,6,VS*%
%TO.N,+3.3V*%
X128500000Y-74850000D03*
%TO.P,U2,7,GND*%
%TO.N,GND*%
X128000000Y-74850000D03*
%TO.P,U2,8,VBUS*%
%TO.N,/Buck Converter/Vin (12V)*%
X127500000Y-74850000D03*
%TO.P,U2,9,IN-*%
X127000000Y-74850000D03*
%TO.P,U2,10,IN+*%
%TO.N,+12V*%
X126500000Y-74850000D03*
%TD*%
D24*
%TO.P,C7,1*%
%TO.N,+5V*%
X130800000Y-89787500D03*
%TO.P,C7,2*%
%TO.N,GND*%
X130800000Y-87712500D03*
%TD*%
%TO.P,C6,1*%
%TO.N,+5V*%
X128200000Y-89787500D03*
%TO.P,C6,2*%
%TO.N,GND*%
X128200000Y-87712500D03*
%TD*%
D25*
%TO.P,R6,1*%
%TO.N,+5V*%
X146100000Y-67500000D03*
%TO.P,R6,2*%
%TO.N,Net-(U4-IN+)*%
X148100000Y-67500000D03*
%TD*%
D20*
%TO.P,C1,1*%
%TO.N,/Buck Converter/Vin (12V)*%
X138100000Y-76300000D03*
%TO.P,C1,2*%
%TO.N,GND*%
X138100000Y-81300000D03*
%TD*%
D26*
%TO.P,C8,1*%
%TO.N,+3.3V*%
X130600000Y-74862500D03*
%TO.P,C8,2*%
%TO.N,GND*%
X130600000Y-76937500D03*
%TD*%
D27*
%TO.P,R2,1*%
%TO.N,+5V*%
X144794402Y-76200000D03*
%TO.P,R2,2*%
%TO.N,Net-(U1-FB)*%
X146500000Y-76200000D03*
%TD*%
D25*
%TO.P,R8,1*%
%TO.N,/Buck Converter/Vin (12V)*%
X135600000Y-67500000D03*
%TO.P,R8,2*%
%TO.N,Net-(U5-IN+)*%
X137600000Y-67500000D03*
%TD*%
D16*
%TO.P,5Vout,*%
%TO.N,*%
X166350000Y-86550000D03*
X166350000Y-100050000D03*
D17*
%TO.P,5Vout,1,+*%
%TO.N,GND*%
X160350000Y-89700000D03*
D18*
%TO.P,5Vout,2,-*%
%TO.N,+5V*%
X160350000Y-96900000D03*
D19*
%TO.P,5Vout,3*%
%TO.N,N/C*%
X164000000Y-93300000D03*
%TD*%
D13*
%TO.P,U5,1,OUT*%
%TO.N,Net-(U5-IN-)*%
X140764800Y-65600000D03*
%TO.P,U5,2,GND*%
%TO.N,GND*%
X140764800Y-66550001D03*
%TO.P,U5,3,IN+*%
%TO.N,Net-(U5-IN+)*%
X140764800Y-67500002D03*
%TO.P,U5,4,IN-*%
%TO.N,Net-(U5-IN-)*%
X143000000Y-67500002D03*
%TO.P,U5,5,\u002ASHDN*%
%TO.N,unconnected-(U5-\u002ASHDN-Pad5)*%
X143000000Y-66550001D03*
%TO.P,U5,6,VDD*%
%TO.N,+5V*%
X143000000Y-65600000D03*
%TD*%
D28*
%TO.P,5Vout,1,1*%
%TO.N,+5V*%
X115770101Y-89750003D03*
%TO.P,5Vout,2,2*%
%TO.N,unconnected-(U3-Pad2)*%
X115770101Y-91750002D03*
%TO.P,5Vout,3,3*%
%TO.N,unconnected-(U3-Pad3)*%
X115770101Y-93750003D03*
%TO.P,5Vout,4,4*%
%TO.N,GND*%
X115770101Y-95750001D03*
D29*
%TO.P,5Vout,5*%
%TO.N,N/C*%
X111570102Y-90250002D03*
%TO.P,5Vout,6*%
X111570102Y-95250002D03*
D30*
%TO.P,5Vout,7*%
X113576709Y-85500004D03*
%TO.P,5Vout,8*%
X113576709Y-100000000D03*
%TD*%
D15*
%TO.P,R4,1*%
%TO.N,+3.3V*%
X127000000Y-85000000D03*
%TO.P,R4,2*%
%TO.N,/SDA*%
X127000000Y-83000000D03*
%TD*%
D11*
%TO.P,12V\u002C 5V reading,1,1*%
%TO.N,unconnected-(J4-Pad1)*%
X149800000Y-61300000D03*
D12*
%TO.P,12V\u002C 5V reading,2,2*%
%TO.N,Net-(U4-IN-)*%
X147300000Y-61300000D03*
%TO.P,12V\u002C 5V reading,3,3*%
%TO.N,Net-(U5-IN-)*%
X144800000Y-61300000D03*
%TO.P,12V\u002C 5V reading,4,4*%
%TO.N,GND*%
X142300000Y-61300000D03*
%TD*%
D21*
%TO.P,C4,1*%
%TO.N,+5V*%
X139800000Y-97233250D03*
D22*
%TO.P,C4,2*%
%TO.N,GND*%
X136300000Y-97233250D03*
%TD*%
D16*
%TO.P,12Vout,*%
%TO.N,*%
X112550000Y-81550000D03*
X112550000Y-68050000D03*
D31*
%TO.P,12Vout,1,+*%
%TO.N,GND*%
X118550000Y-78400000D03*
D18*
%TO.P,12Vout,2,-*%
%TO.N,+12V*%
X118550000Y-71200000D03*
D19*
%TO.P,12Vout,3*%
%TO.N,N/C*%
X114900000Y-74800000D03*
%TD*%
D14*
%TO.P,R9,1*%
%TO.N,Net-(U5-IN+)*%
X137600000Y-65300000D03*
%TO.P,R9,2*%
%TO.N,GND*%
X135600000Y-65300000D03*
%TD*%
D32*
%TO.P,U1,1,VIN*%
%TO.N,/Buck Converter/Vin (12V)*%
X154670000Y-80307700D03*
%TO.P,U1,2,SYNC*%
%TO.N,GND*%
X153400000Y-80307700D03*
%TO.P,U1,3,EN*%
%TO.N,unconnected-(U1-EN-Pad3)*%
X152130000Y-80307700D03*
%TO.P,U1,4,AGND*%
%TO.N,GND*%
X150860000Y-80307700D03*
%TO.P,U1,5,FB*%
%TO.N,Net-(U1-FB)*%
X149590000Y-80307700D03*
%TO.P,U1,6,SS/TRK*%
%TO.N,unconnected-(U1-SS{slash}TRK-Pad6)*%
X148320000Y-80307700D03*
%TO.P,U1,7,VOUT*%
%TO.N,+5V*%
X147050000Y-80307700D03*
D33*
%TO.P,U1,8,8*%
%TO.N,GND*%
X150860000Y-88550000D03*
%TD*%
D27*
%TO.P,R1,1*%
%TO.N,Net-(U1-FB)*%
X149707201Y-76200000D03*
%TO.P,R1,2*%
%TO.N,GND*%
X151412799Y-76200000D03*
%TD*%
D34*
%TO.P,R5,1*%
%TO.N,+12V*%
X124706100Y-71200000D03*
%TO.P,R5,2*%
%TO.N,/Buck Converter/Vin (12V)*%
X128693900Y-71200000D03*
%TD*%
D35*
%TO.N,GND*%
X154960000Y-86650000D03*
X154960000Y-92950000D03*
D36*
X151364800Y-66550001D03*
D35*
X149760000Y-87950000D03*
X146960000Y-85450000D03*
X152360000Y-90450000D03*
X149760000Y-90450000D03*
X153660000Y-87950000D03*
D37*
X127000000Y-79150000D03*
D35*
X152360000Y-86650000D03*
X154960000Y-87950000D03*
X151060000Y-89150000D03*
X146960000Y-86650000D03*
X152360000Y-91650000D03*
X151060000Y-85450000D03*
X154960000Y-90450000D03*
X149760000Y-91650000D03*
X152360000Y-87950000D03*
X151060000Y-86650000D03*
X153660000Y-89150000D03*
X149760000Y-85450000D03*
X151060000Y-90450000D03*
X152360000Y-89150000D03*
D36*
X151412799Y-76200000D03*
D35*
X151060000Y-87950000D03*
X148360000Y-92950000D03*
X148360000Y-85450000D03*
X153660000Y-86650000D03*
D38*
X150860000Y-80307700D03*
D35*
X146960000Y-91650000D03*
D38*
X115770101Y-95750001D03*
D36*
X128200000Y-87725000D03*
D35*
X146960000Y-89150000D03*
D36*
X130600000Y-76937500D03*
D35*
X146960000Y-84350000D03*
X152360000Y-92950000D03*
X148360000Y-86650000D03*
X154960000Y-85450000D03*
D36*
X130800000Y-87700000D03*
D35*
X152360000Y-85450000D03*
X153660000Y-92950000D03*
X148360000Y-84350000D03*
X151060000Y-84350000D03*
X149760000Y-84350000D03*
X153660000Y-85450000D03*
X153660000Y-84350000D03*
X148360000Y-87950000D03*
X146960000Y-90450000D03*
D36*
X146100000Y-65300000D03*
D35*
X149760000Y-86650000D03*
D36*
X140764800Y-66550001D03*
D35*
X152360000Y-84350000D03*
X151060000Y-91650000D03*
X154960000Y-91650000D03*
X153660000Y-90450000D03*
X146960000Y-87950000D03*
X148360000Y-89150000D03*
D38*
X153400000Y-80307700D03*
D35*
X149760000Y-89150000D03*
D37*
X128000000Y-74850000D03*
D35*
X148360000Y-91650000D03*
D36*
X135600000Y-65300000D03*
D35*
X149760000Y-92950000D03*
X154960000Y-84350000D03*
X154960000Y-89150000D03*
X148360000Y-90450000D03*
D37*
X126500000Y-79150000D03*
D35*
X153660000Y-91650000D03*
X146960000Y-92950000D03*
X151060000Y-92950000D03*
D36*
%TO.N,+5V*%
X144794402Y-76200000D03*
X144794402Y-69200000D03*
%TO.N,+3.3V*%
X127000000Y-85000000D03*
%TO.N,/SCL*%
X129500000Y-83000000D03*
%TO.N,/SDA*%
X127000000Y-83000000D03*
%TD*%
D39*
%TO.N,/Buck Converter/Vin (12V)*%
X128693900Y-72106100D02*
X128693900Y-71200000D01*
X128693900Y-71200000D02*
X128693900Y-69006100D01*
X127000000Y-73800000D02*
X128693900Y-72106100D01*
X127500000Y-74850000D02*
X127000000Y-74850000D01*
X128693900Y-69006100D02*
X130200000Y-67500000D01*
X127000000Y-74850000D02*
X127000000Y-73800000D01*
X129100000Y-71170000D02*
X129200000Y-71170000D01*
X130200000Y-67500000D02*
X135600000Y-67500000D01*
D40*
%TO.N,Net-(U1-FB)*%
X149600000Y-76307201D02*
X149600000Y-79450000D01*
X149707201Y-76200000D02*
X149600000Y-76307201D01*
D39*
X149757201Y-80292799D02*
X149650000Y-80400000D01*
D40*
X149707201Y-76200000D02*
X146500000Y-76200000D01*
D39*
%TO.N,+5V*%
X154700000Y-65600000D02*
X153600000Y-65600000D01*
X154900000Y-65800000D02*
X154700000Y-65600000D01*
X144794402Y-69200000D02*
X144794402Y-68805598D01*
X144794402Y-68805598D02*
X146100000Y-67500000D01*
X144900000Y-68700000D02*
X154700000Y-68700000D01*
X154700000Y-68700000D02*
X154900000Y-68500000D01*
X144794402Y-66294402D02*
X144100000Y-65600000D01*
X144794402Y-68805598D02*
X144794402Y-66294402D01*
X154900000Y-68500000D02*
X154900000Y-65800000D01*
X144794402Y-68805598D02*
X144900000Y-68700000D01*
X144100000Y-65600000D02*
X143000000Y-65600000D01*
%TO.N,+3.3V*%
X132000000Y-76200000D02*
X130650000Y-74850000D01*
X131000000Y-85000000D02*
X132000000Y-84000000D01*
X127000000Y-85000000D02*
X129500000Y-85000000D01*
X132000000Y-84000000D02*
X132000000Y-76200000D01*
X130650000Y-74850000D02*
X128500000Y-74850000D01*
X129500000Y-85000000D02*
X131000000Y-85000000D01*
%TO.N,/SCL*%
X129500000Y-82000000D02*
X128500000Y-81000000D01*
X129500000Y-83000000D02*
X129500000Y-82000000D01*
X128500000Y-81000000D02*
X128500000Y-79150000D01*
%TO.N,/SDA*%
X127000000Y-83000000D02*
X127000000Y-82000000D01*
X127000000Y-82000000D02*
X128000000Y-81000000D01*
X128000000Y-81000000D02*
X128000000Y-79150000D01*
%TO.N,+12V*%
X126500000Y-73800000D02*
X124806100Y-72106100D01*
X126500000Y-74850000D02*
X126500000Y-73800000D01*
X124806100Y-72106100D02*
X124806100Y-71200000D01*
%TO.N,Net-(U5-IN-)*%
X140764800Y-65335200D02*
X140764800Y-65600000D01*
X140764800Y-65600000D02*
X141600000Y-65600000D01*
X141900000Y-65900000D02*
X141900000Y-67250000D01*
X142150002Y-67500002D02*
X143000000Y-67500002D01*
X141600000Y-65600000D02*
X141900000Y-65900000D01*
X144800000Y-61300000D02*
X140764800Y-65335200D01*
X141900000Y-67250000D02*
X142150002Y-67500002D01*
%TO.N,Net-(U4-IN-)*%
X152482400Y-65875001D02*
X152482400Y-67225001D01*
X151364800Y-65600000D02*
X151364800Y-65364800D01*
X152182400Y-65575001D02*
X152482400Y-65875001D01*
X151347200Y-65575001D02*
X152182400Y-65575001D01*
X151364800Y-65364800D02*
X147300000Y-61300000D01*
X152757401Y-67500002D02*
X153600000Y-67500002D01*
X152482400Y-67225001D02*
X152757401Y-67500002D01*
%TO.N,Net-(U4-IN+)*%
X148100000Y-67500000D02*
X148200000Y-67500000D01*
X148200000Y-67500000D02*
X148200002Y-67500002D01*
X148100000Y-67500000D02*
X148100000Y-65300000D01*
X148200002Y-67500002D02*
X151364800Y-67500002D01*
%TO.N,Net-(U5-IN+)*%
X140764798Y-67500000D02*
X140764800Y-67500002D01*
X137600000Y-67500000D02*
X140764798Y-67500000D01*
X137600000Y-65300000D02*
X137600000Y-67500000D01*
%TD*%
%TA.AperFunction,Conductor*%
%TO.N,+12V*%
G36*
X123927218Y-68914409D02*
G01*
X125534018Y-69765068D01*
X125584057Y-69813832D01*
X125600000Y-69874658D01*
X125600000Y-72527479D01*
X125580315Y-72594518D01*
X125536792Y-72635554D01*
X124028311Y-73484075D01*
X123967519Y-73500000D01*
X117648483Y-73500000D01*
X117581444Y-73480315D01*
X117564376Y-73467116D01*
X116339893Y-72336824D01*
X116303984Y-72276888D01*
X116300000Y-72245708D01*
X116300000Y-70154291D01*
X116319685Y-70087252D01*
X116339890Y-70063178D01*
X117564376Y-68932884D01*
X117626989Y-68901877D01*
X117648483Y-68900000D01*
X123869201Y-68900000D01*
X123927218Y-68914409D01*
G37*
%TD.AperFunction*%
%TD*%
%TA.AperFunction,Conductor*%
%TO.N,/Buck Converter/Vin (12V)*%
G36*
X153315677Y-69819685D02*
G01*
X153336319Y-69836319D01*
X159500000Y-76000000D01*
X161148638Y-76000000D01*
X161215677Y-76019685D01*
X161236319Y-76036319D01*
X162563681Y-77363681D01*
X162597166Y-77425004D01*
X162600000Y-77451362D01*
X162600000Y-79351907D01*
X162580315Y-79418946D01*
X162567572Y-79435516D01*
X160613218Y-81576000D01*
X160536879Y-81659609D01*
X160477140Y-81695844D01*
X160445307Y-81700000D01*
X154324000Y-81700000D01*
X154256961Y-81680315D01*
X154211206Y-81627511D01*
X154200000Y-81576000D01*
X154200000Y-76500000D01*
X154199998Y-76499997D01*
X152500001Y-74500000D01*
X152500000Y-74500000D01*
X143500000Y-74500000D01*
X143499999Y-74500000D01*
X140536319Y-77463681D01*
X140474996Y-77497166D01*
X140448638Y-77500000D01*
X135851362Y-77500000D01*
X135784323Y-77480315D01*
X135763681Y-77463681D01*
X130900000Y-72600000D01*
X127924000Y-72600000D01*
X127856961Y-72580315D01*
X127811206Y-72527511D01*
X127800000Y-72476000D01*
X127800000Y-69924000D01*
X127819685Y-69856961D01*
X127872489Y-69811206D01*
X127924000Y-69800000D01*
X153248638Y-69800000D01*
X153315677Y-69819685D01*
G37*
%TD.AperFunction*%
%TD*%
%TA.AperFunction,Conductor*%
%TO.N,+5V*%
G36*
X145243039Y-75619685D02*
G01*
X145288794Y-75672489D01*
X145300000Y-75724000D01*
X145300000Y-76800000D01*
X147461619Y-78863364D01*
X147496521Y-78923891D01*
X147500000Y-78953059D01*
X147500000Y-81632923D01*
X147480315Y-81699962D01*
X147443859Y-81736707D01*
X144900000Y-83399998D01*
X144900000Y-83400000D01*
X144900000Y-94400000D01*
X141800000Y-98000000D01*
X139124000Y-98000000D01*
X139056961Y-97980315D01*
X139011206Y-97927511D01*
X139000000Y-97876000D01*
X139000000Y-96000000D01*
X139000000Y-90000000D01*
X139000000Y-84852851D01*
X139019685Y-84785812D01*
X139038126Y-84763399D01*
X141500000Y-82400000D01*
X141500000Y-78451362D01*
X141519685Y-78384323D01*
X141536319Y-78363681D01*
X144263681Y-75636319D01*
X144325004Y-75602834D01*
X144351362Y-75600000D01*
X145176000Y-75600000D01*
X145243039Y-75619685D01*
G37*
%TD.AperFunction*%
%TD*%
%TA.AperFunction,Conductor*%
%TO.N,+5V*%
G36*
X160878607Y-94419685D02*
G01*
X160881693Y-94421734D01*
X162546125Y-95563057D01*
X162590283Y-95617204D01*
X162600000Y-95665323D01*
X162600000Y-98040059D01*
X162580315Y-98107098D01*
X162553028Y-98137233D01*
X160993842Y-99373174D01*
X160929078Y-99399392D01*
X160916814Y-99400000D01*
X142960268Y-99400000D01*
X142893229Y-99380315D01*
X142862765Y-99352610D01*
X141800000Y-98000000D01*
X144900000Y-94400000D01*
X160811568Y-94400000D01*
X160878607Y-94419685D01*
G37*
%TD.AperFunction*%
%TD*%
%TA.AperFunction,Conductor*%
%TO.N,+5V*%
G36*
X131807664Y-89100958D02*
G01*
X138999998Y-90000000D01*
X138999998Y-89999999D01*
X139000000Y-90000000D01*
X139000000Y-95999999D01*
X135250000Y-95275000D01*
X124000000Y-93100000D01*
X123999997Y-93100000D01*
X120251362Y-93100000D01*
X120184323Y-93080315D01*
X120163681Y-93063681D01*
X117500000Y-90400000D01*
X114424000Y-90400000D01*
X114356961Y-90380315D01*
X114311206Y-90327511D01*
X114300000Y-90276000D01*
X114300000Y-89224000D01*
X114319685Y-89156961D01*
X114372489Y-89111206D01*
X114424000Y-89100000D01*
X131792284Y-89100000D01*
X131807664Y-89100958D01*
G37*
%TD.AperFunction*%
%TD*%
M02*
