%TF.GenerationSoftware,KiCad,Pcbnew,8.0.6*%
%TF.CreationDate,2025-05-08T15:48:42-04:00*%
%TF.ProjectId,PowerBoard2,506f7765-7242-46f6-9172-64322e6b6963,rev?*%
%TF.SameCoordinates,Original*%
%TF.FileFunction,Soldermask,Top*%
%TF.FilePolarity,Negative*%
%FSLAX46Y46*%
G04 Gerber Fmt 4.6, Leading zero omitted, Abs format (unit mm)*
G04 Created by KiCad (PCBNEW 8.0.6) date 2025-05-08 15:48:42*
%MOMM*%
%LPD*%
G01*
G04 APERTURE LIST*
G04 Aperture macros list*
%AMRoundRect*
0 Rectangle with rounded corners*
0 $1 Rounding radius*
0 $2 $3 $4 $5 $6 $7 $8 $9 X,Y pos of 4 corners*
0 Add a 4 corners polygon primitive as box body*
4,1,4,$2,$3,$4,$5,$6,$7,$8,$9,$2,$3,0*
0 Add four circle primitives for the rounded corners*
1,1,$1+$1,$2,$3*
1,1,$1+$1,$4,$5*
1,1,$1+$1,$6,$7*
1,1,$1+$1,$8,$9*
0 Add four rect primitives between the rounded corners*
20,1,$1+$1,$2,$3,$4,$5,0*
20,1,$1+$1,$4,$5,$6,$7,0*
20,1,$1+$1,$6,$7,$8,$9,0*
20,1,$1+$1,$8,$9,$2,$3,0*%
G04 Aperture macros list end*
%ADD10RoundRect,0.102000X0.754000X0.754000X-0.754000X0.754000X-0.754000X-0.754000X0.754000X-0.754000X0*%
%ADD11C,1.712000*%
%ADD12R,1.473200X0.558800*%
%ADD13RoundRect,0.250000X0.350000X0.450000X-0.350000X0.450000X-0.350000X-0.450000X0.350000X-0.450000X0*%
%ADD14RoundRect,0.250000X0.450000X-0.350000X0.450000X0.350000X-0.450000X0.350000X-0.450000X-0.350000X0*%
%ADD15R,2.000000X0.900000*%
%ADD16RoundRect,1.025000X-1.025000X1.025000X-1.025000X-1.025000X1.025000X-1.025000X1.025000X1.025000X0*%
%ADD17C,4.100000*%
%ADD18R,1.300000X2.300000*%
%ADD19C,1.371600*%
%ADD20RoundRect,0.102000X0.550000X0.550000X-0.550000X0.550000X-0.550000X-0.550000X0.550000X-0.550000X0*%
%ADD21C,1.304000*%
%ADD22RoundRect,0.060500X0.181500X-0.776500X0.181500X0.776500X-0.181500X0.776500X-0.181500X-0.776500X0*%
%ADD23RoundRect,0.250000X0.475000X-0.337500X0.475000X0.337500X-0.475000X0.337500X-0.475000X-0.337500X0*%
%ADD24C,2.500000*%
%ADD25RoundRect,0.250000X-0.350000X-0.450000X0.350000X-0.450000X0.350000X0.450000X-0.350000X0.450000X0*%
%ADD26RoundRect,0.250000X-0.475000X0.337500X-0.475000X-0.337500X0.475000X-0.337500X0.475000X0.337500X0*%
%ADD27R,1.005599X1.199998*%
%ADD28R,2.489200X0.889000*%
%ADD29C,1.803400*%
%ADD30R,5.156200X2.489200*%
%ADD31RoundRect,0.102000X-0.754000X-0.754000X0.754000X-0.754000X0.754000X0.754000X-0.754000X0.754000X0*%
%ADD32RoundRect,1.025000X1.025000X-1.025000X1.025000X1.025000X-1.025000X1.025000X-1.025000X-1.025000X0*%
%ADD33R,0.787400X2.667000*%
%ADD34R,10.414000X10.414000*%
%ADD35R,1.752600X2.794000*%
G04 APERTURE END LIST*
D10*
%TO.C,Current reading*%
X120800000Y-104175000D03*
D11*
X123300000Y-104175000D03*
X125800000Y-104175000D03*
X128300000Y-104175000D03*
%TD*%
D12*
%TO.C,U4*%
X151364800Y-65600000D03*
X151364800Y-66550001D03*
X151364800Y-67500002D03*
X153600000Y-67500002D03*
X153600000Y-66550001D03*
X153600000Y-65600000D03*
%TD*%
D13*
%TO.C,R7*%
X148100000Y-65300000D03*
X146100000Y-65300000D03*
%TD*%
D14*
%TO.C,R3*%
X129500000Y-85000000D03*
X129500000Y-83000000D03*
%TD*%
D15*
%TO.C,12Vin*%
X166350000Y-68050000D03*
X166350000Y-81550000D03*
D16*
X160350000Y-71200000D03*
D17*
X160350000Y-78400000D03*
D18*
X164000000Y-74800000D03*
%TD*%
D19*
%TO.C,C2*%
X122100000Y-86799999D03*
X122100000Y-90300000D03*
%TD*%
D20*
%TO.C,C5*%
X139800000Y-88533250D03*
D21*
X136300000Y-88533250D03*
%TD*%
D22*
%TO.C,U2*%
X126500000Y-79150000D03*
X127000000Y-79150000D03*
X127500000Y-79150000D03*
X128000000Y-79150000D03*
X128500000Y-79150000D03*
X128500000Y-74850000D03*
X128000000Y-74850000D03*
X127500000Y-74850000D03*
X127000000Y-74850000D03*
X126500000Y-74850000D03*
%TD*%
D23*
%TO.C,C7*%
X130800000Y-89787500D03*
X130800000Y-87712500D03*
%TD*%
%TO.C,C6*%
X128200000Y-89787500D03*
X128200000Y-87712500D03*
%TD*%
D24*
%TO.C,REF\u002A\u002A*%
X104500000Y-105200000D03*
%TD*%
D25*
%TO.C,R6*%
X146100000Y-67500000D03*
X148100000Y-67500000D03*
%TD*%
D24*
%TO.C,REF\u002A\u002A*%
X104500000Y-60400000D03*
%TD*%
D19*
%TO.C,C1*%
X138100000Y-76300000D03*
X138100000Y-81300000D03*
%TD*%
D26*
%TO.C,C8*%
X130600000Y-74862500D03*
X130600000Y-76937500D03*
%TD*%
D27*
%TO.C,R2*%
X144794402Y-76200000D03*
X146500000Y-76200000D03*
%TD*%
D25*
%TO.C,R8*%
X135600000Y-67500000D03*
X137600000Y-67500000D03*
%TD*%
D24*
%TO.C,REF\u002A\u002A*%
X174500000Y-105200000D03*
%TD*%
D15*
%TO.C,5Vout*%
X166350000Y-86550000D03*
X166350000Y-100050000D03*
D16*
X160350000Y-89700000D03*
D17*
X160350000Y-96900000D03*
D18*
X164000000Y-93300000D03*
%TD*%
D12*
%TO.C,U5*%
X140764800Y-65600000D03*
X140764800Y-66550001D03*
X140764800Y-67500002D03*
X143000000Y-67500002D03*
X143000000Y-66550001D03*
X143000000Y-65600000D03*
%TD*%
D28*
%TO.C,5Vout*%
X115770101Y-89750003D03*
X115770101Y-91750002D03*
X115770101Y-93750003D03*
X115770101Y-95750001D03*
D29*
X111570102Y-90250002D03*
X111570102Y-95250002D03*
D30*
X113576709Y-85500004D03*
X113576709Y-100000000D03*
%TD*%
D24*
%TO.C,REF\u002A\u002A*%
X174500000Y-60400000D03*
%TD*%
D14*
%TO.C,R4*%
X127000000Y-85000000D03*
X127000000Y-83000000D03*
%TD*%
D31*
%TO.C,12V\u002C 5V reading*%
X149800000Y-61300000D03*
D11*
X147300000Y-61300000D03*
X144800000Y-61300000D03*
X142300000Y-61300000D03*
%TD*%
D20*
%TO.C,C4*%
X139800000Y-97233250D03*
D21*
X136300000Y-97233250D03*
%TD*%
D15*
%TO.C,12Vout*%
X112550000Y-81550000D03*
X112550000Y-68050000D03*
D32*
X118550000Y-78400000D03*
D17*
X118550000Y-71200000D03*
D18*
X114900000Y-74800000D03*
%TD*%
D13*
%TO.C,R9*%
X137600000Y-65300000D03*
X135600000Y-65300000D03*
%TD*%
D33*
%TO.C,U1*%
X154670000Y-80307700D03*
X153400000Y-80307700D03*
X152130000Y-80307700D03*
X150860000Y-80307700D03*
X149590000Y-80307700D03*
X148320000Y-80307700D03*
X147050000Y-80307700D03*
D34*
X150860000Y-88550000D03*
%TD*%
D27*
%TO.C,R1*%
X149707201Y-76200000D03*
X151412799Y-76200000D03*
%TD*%
D35*
%TO.C,R5*%
X124706100Y-71200000D03*
X128693900Y-71200000D03*
%TD*%
M02*
