%TF.GenerationSoftware,KiCad,Pcbnew,8.0.6*%
%TF.CreationDate,2025-05-08T15:48:42-04:00*%
%TF.ProjectId,PowerBoard2,506f7765-7242-46f6-9172-64322e6b6963,rev?*%
%TF.SameCoordinates,Original*%
%TF.FileFunction,Legend,Top*%
%TF.FilePolarity,Positive*%
%FSLAX46Y46*%
G04 Gerber Fmt 4.6, Leading zero omitted, Abs format (unit mm)*
G04 Created by KiCad (PCBNEW 8.0.6) date 2025-05-08 15:48:42*
%MOMM*%
%LPD*%
G01*
G04 APERTURE LIST*
%ADD10C,0.150000*%
%ADD11C,0.127000*%
%ADD12C,0.200000*%
%ADD13C,0.152400*%
%ADD14C,0.120000*%
%ADD15C,0.508000*%
G04 APERTURE END LIST*
D10*
X131935601Y-107339332D02*
X131890607Y-107384327D01*
X131890607Y-107384327D02*
X131755623Y-107429321D01*
X131755623Y-107429321D02*
X131665635Y-107429321D01*
X131665635Y-107429321D02*
X131530652Y-107384327D01*
X131530652Y-107384327D02*
X131440663Y-107294338D01*
X131440663Y-107294338D02*
X131395668Y-107204349D01*
X131395668Y-107204349D02*
X131350674Y-107024371D01*
X131350674Y-107024371D02*
X131350674Y-106889388D01*
X131350674Y-106889388D02*
X131395668Y-106709411D01*
X131395668Y-106709411D02*
X131440663Y-106619422D01*
X131440663Y-106619422D02*
X131530652Y-106529433D01*
X131530652Y-106529433D02*
X131665635Y-106484439D01*
X131665635Y-106484439D02*
X131755623Y-106484439D01*
X131755623Y-106484439D02*
X131890607Y-106529433D01*
X131890607Y-106529433D02*
X131935601Y-106574428D01*
X132745500Y-106799400D02*
X132745500Y-107429321D01*
X132340550Y-106799400D02*
X132340550Y-107294338D01*
X132340550Y-107294338D02*
X132385545Y-107384327D01*
X132385545Y-107384327D02*
X132475534Y-107429321D01*
X132475534Y-107429321D02*
X132610517Y-107429321D01*
X132610517Y-107429321D02*
X132700505Y-107384327D01*
X132700505Y-107384327D02*
X132745500Y-107339332D01*
X133195443Y-107429321D02*
X133195443Y-106799400D01*
X133195443Y-106979377D02*
X133240438Y-106889388D01*
X133240438Y-106889388D02*
X133285432Y-106844394D01*
X133285432Y-106844394D02*
X133375421Y-106799400D01*
X133375421Y-106799400D02*
X133465410Y-106799400D01*
X133780370Y-107429321D02*
X133780370Y-106799400D01*
X133780370Y-106979377D02*
X133825365Y-106889388D01*
X133825365Y-106889388D02*
X133870359Y-106844394D01*
X133870359Y-106844394D02*
X133960348Y-106799400D01*
X133960348Y-106799400D02*
X134050337Y-106799400D01*
X134725252Y-107384327D02*
X134635264Y-107429321D01*
X134635264Y-107429321D02*
X134455286Y-107429321D01*
X134455286Y-107429321D02*
X134365297Y-107384327D01*
X134365297Y-107384327D02*
X134320303Y-107294338D01*
X134320303Y-107294338D02*
X134320303Y-106934383D01*
X134320303Y-106934383D02*
X134365297Y-106844394D01*
X134365297Y-106844394D02*
X134455286Y-106799400D01*
X134455286Y-106799400D02*
X134635264Y-106799400D01*
X134635264Y-106799400D02*
X134725252Y-106844394D01*
X134725252Y-106844394D02*
X134770247Y-106934383D01*
X134770247Y-106934383D02*
X134770247Y-107024371D01*
X134770247Y-107024371D02*
X134320303Y-107114360D01*
X135175196Y-106799400D02*
X135175196Y-107429321D01*
X135175196Y-106889388D02*
X135220191Y-106844394D01*
X135220191Y-106844394D02*
X135310180Y-106799400D01*
X135310180Y-106799400D02*
X135445163Y-106799400D01*
X135445163Y-106799400D02*
X135535151Y-106844394D01*
X135535151Y-106844394D02*
X135580146Y-106934383D01*
X135580146Y-106934383D02*
X135580146Y-107429321D01*
X135895106Y-106799400D02*
X136255061Y-106799400D01*
X136030089Y-106484439D02*
X136030089Y-107294338D01*
X136030089Y-107294338D02*
X136075084Y-107384327D01*
X136075084Y-107384327D02*
X136165073Y-107429321D01*
X136165073Y-107429321D02*
X136255061Y-107429321D01*
X137289932Y-107429321D02*
X137289932Y-106799400D01*
X137289932Y-106979377D02*
X137334927Y-106889388D01*
X137334927Y-106889388D02*
X137379921Y-106844394D01*
X137379921Y-106844394D02*
X137469910Y-106799400D01*
X137469910Y-106799400D02*
X137559899Y-106799400D01*
X138234814Y-107384327D02*
X138144826Y-107429321D01*
X138144826Y-107429321D02*
X137964848Y-107429321D01*
X137964848Y-107429321D02*
X137874859Y-107384327D01*
X137874859Y-107384327D02*
X137829865Y-107294338D01*
X137829865Y-107294338D02*
X137829865Y-106934383D01*
X137829865Y-106934383D02*
X137874859Y-106844394D01*
X137874859Y-106844394D02*
X137964848Y-106799400D01*
X137964848Y-106799400D02*
X138144826Y-106799400D01*
X138144826Y-106799400D02*
X138234814Y-106844394D01*
X138234814Y-106844394D02*
X138279809Y-106934383D01*
X138279809Y-106934383D02*
X138279809Y-107024371D01*
X138279809Y-107024371D02*
X137829865Y-107114360D01*
X139089708Y-107429321D02*
X139089708Y-106934383D01*
X139089708Y-106934383D02*
X139044713Y-106844394D01*
X139044713Y-106844394D02*
X138954725Y-106799400D01*
X138954725Y-106799400D02*
X138774747Y-106799400D01*
X138774747Y-106799400D02*
X138684758Y-106844394D01*
X139089708Y-107384327D02*
X138999719Y-107429321D01*
X138999719Y-107429321D02*
X138774747Y-107429321D01*
X138774747Y-107429321D02*
X138684758Y-107384327D01*
X138684758Y-107384327D02*
X138639764Y-107294338D01*
X138639764Y-107294338D02*
X138639764Y-107204349D01*
X138639764Y-107204349D02*
X138684758Y-107114360D01*
X138684758Y-107114360D02*
X138774747Y-107069366D01*
X138774747Y-107069366D02*
X138999719Y-107069366D01*
X138999719Y-107069366D02*
X139089708Y-107024371D01*
X139944601Y-107429321D02*
X139944601Y-106484439D01*
X139944601Y-107384327D02*
X139854612Y-107429321D01*
X139854612Y-107429321D02*
X139674635Y-107429321D01*
X139674635Y-107429321D02*
X139584646Y-107384327D01*
X139584646Y-107384327D02*
X139539651Y-107339332D01*
X139539651Y-107339332D02*
X139494657Y-107249343D01*
X139494657Y-107249343D02*
X139494657Y-106979377D01*
X139494657Y-106979377D02*
X139539651Y-106889388D01*
X139539651Y-106889388D02*
X139584646Y-106844394D01*
X139584646Y-106844394D02*
X139674635Y-106799400D01*
X139674635Y-106799400D02*
X139854612Y-106799400D01*
X139854612Y-106799400D02*
X139944601Y-106844394D01*
X140394544Y-107429321D02*
X140394544Y-106799400D01*
X140394544Y-106484439D02*
X140349550Y-106529433D01*
X140349550Y-106529433D02*
X140394544Y-106574428D01*
X140394544Y-106574428D02*
X140439539Y-106529433D01*
X140439539Y-106529433D02*
X140394544Y-106484439D01*
X140394544Y-106484439D02*
X140394544Y-106574428D01*
X140844488Y-106799400D02*
X140844488Y-107429321D01*
X140844488Y-106889388D02*
X140889483Y-106844394D01*
X140889483Y-106844394D02*
X140979472Y-106799400D01*
X140979472Y-106799400D02*
X141114455Y-106799400D01*
X141114455Y-106799400D02*
X141204443Y-106844394D01*
X141204443Y-106844394D02*
X141249438Y-106934383D01*
X141249438Y-106934383D02*
X141249438Y-107429321D01*
X142104331Y-106799400D02*
X142104331Y-107564304D01*
X142104331Y-107564304D02*
X142059336Y-107654293D01*
X142059336Y-107654293D02*
X142014342Y-107699287D01*
X142014342Y-107699287D02*
X141924353Y-107744282D01*
X141924353Y-107744282D02*
X141789370Y-107744282D01*
X141789370Y-107744282D02*
X141699381Y-107699287D01*
X142104331Y-107384327D02*
X142014342Y-107429321D01*
X142014342Y-107429321D02*
X141834365Y-107429321D01*
X141834365Y-107429321D02*
X141744376Y-107384327D01*
X141744376Y-107384327D02*
X141699381Y-107339332D01*
X141699381Y-107339332D02*
X141654387Y-107249343D01*
X141654387Y-107249343D02*
X141654387Y-106979377D01*
X141654387Y-106979377D02*
X141699381Y-106889388D01*
X141699381Y-106889388D02*
X141744376Y-106844394D01*
X141744376Y-106844394D02*
X141834365Y-106799400D01*
X141834365Y-106799400D02*
X142014342Y-106799400D01*
X142014342Y-106799400D02*
X142104331Y-106844394D01*
X151720495Y-66004820D02*
X151720495Y-66814343D01*
X151720495Y-66814343D02*
X151768114Y-66909581D01*
X151768114Y-66909581D02*
X151815733Y-66957201D01*
X151815733Y-66957201D02*
X151910971Y-67004820D01*
X151910971Y-67004820D02*
X152101447Y-67004820D01*
X152101447Y-67004820D02*
X152196685Y-66957201D01*
X152196685Y-66957201D02*
X152244304Y-66909581D01*
X152244304Y-66909581D02*
X152291923Y-66814343D01*
X152291923Y-66814343D02*
X152291923Y-66004820D01*
X153196685Y-66338153D02*
X153196685Y-67004820D01*
X152958590Y-65957201D02*
X152720495Y-66671486D01*
X152720495Y-66671486D02*
X153339542Y-66671486D01*
X151110800Y-63353020D02*
X151110800Y-63591115D01*
X150872705Y-63495877D02*
X151110800Y-63591115D01*
X151110800Y-63591115D02*
X151348895Y-63495877D01*
X150967943Y-63781591D02*
X151110800Y-63591115D01*
X151110800Y-63591115D02*
X151253657Y-63781591D01*
X151110800Y-63353020D02*
X151110800Y-63591115D01*
X150872705Y-63495877D02*
X151110800Y-63591115D01*
X151110800Y-63591115D02*
X151348895Y-63495877D01*
X150967943Y-63781591D02*
X151110800Y-63591115D01*
X151110800Y-63591115D02*
X151253657Y-63781591D01*
X146933333Y-65754819D02*
X146600000Y-65278628D01*
X146361905Y-65754819D02*
X146361905Y-64754819D01*
X146361905Y-64754819D02*
X146742857Y-64754819D01*
X146742857Y-64754819D02*
X146838095Y-64802438D01*
X146838095Y-64802438D02*
X146885714Y-64850057D01*
X146885714Y-64850057D02*
X146933333Y-64945295D01*
X146933333Y-64945295D02*
X146933333Y-65088152D01*
X146933333Y-65088152D02*
X146885714Y-65183390D01*
X146885714Y-65183390D02*
X146838095Y-65231009D01*
X146838095Y-65231009D02*
X146742857Y-65278628D01*
X146742857Y-65278628D02*
X146361905Y-65278628D01*
X147266667Y-64754819D02*
X147933333Y-64754819D01*
X147933333Y-64754819D02*
X147504762Y-65754819D01*
X129333333Y-84454819D02*
X129000000Y-83978628D01*
X128761905Y-84454819D02*
X128761905Y-83454819D01*
X128761905Y-83454819D02*
X129142857Y-83454819D01*
X129142857Y-83454819D02*
X129238095Y-83502438D01*
X129238095Y-83502438D02*
X129285714Y-83550057D01*
X129285714Y-83550057D02*
X129333333Y-83645295D01*
X129333333Y-83645295D02*
X129333333Y-83788152D01*
X129333333Y-83788152D02*
X129285714Y-83883390D01*
X129285714Y-83883390D02*
X129238095Y-83931009D01*
X129238095Y-83931009D02*
X129142857Y-83978628D01*
X129142857Y-83978628D02*
X128761905Y-83978628D01*
X129666667Y-83454819D02*
X130285714Y-83454819D01*
X130285714Y-83454819D02*
X129952381Y-83835771D01*
X129952381Y-83835771D02*
X130095238Y-83835771D01*
X130095238Y-83835771D02*
X130190476Y-83883390D01*
X130190476Y-83883390D02*
X130238095Y-83931009D01*
X130238095Y-83931009D02*
X130285714Y-84026247D01*
X130285714Y-84026247D02*
X130285714Y-84264342D01*
X130285714Y-84264342D02*
X130238095Y-84359580D01*
X130238095Y-84359580D02*
X130190476Y-84407200D01*
X130190476Y-84407200D02*
X130095238Y-84454819D01*
X130095238Y-84454819D02*
X129809524Y-84454819D01*
X129809524Y-84454819D02*
X129714286Y-84407200D01*
X129714286Y-84407200D02*
X129666667Y-84359580D01*
X158440476Y-66204819D02*
X157869048Y-66204819D01*
X158154762Y-66204819D02*
X158154762Y-65204819D01*
X158154762Y-65204819D02*
X158059524Y-65347676D01*
X158059524Y-65347676D02*
X157964286Y-65442914D01*
X157964286Y-65442914D02*
X157869048Y-65490533D01*
X158821429Y-65300057D02*
X158869048Y-65252438D01*
X158869048Y-65252438D02*
X158964286Y-65204819D01*
X158964286Y-65204819D02*
X159202381Y-65204819D01*
X159202381Y-65204819D02*
X159297619Y-65252438D01*
X159297619Y-65252438D02*
X159345238Y-65300057D01*
X159345238Y-65300057D02*
X159392857Y-65395295D01*
X159392857Y-65395295D02*
X159392857Y-65490533D01*
X159392857Y-65490533D02*
X159345238Y-65633390D01*
X159345238Y-65633390D02*
X158773810Y-66204819D01*
X158773810Y-66204819D02*
X159392857Y-66204819D01*
X159678572Y-65204819D02*
X160011905Y-66204819D01*
X160011905Y-66204819D02*
X160345238Y-65204819D01*
X160678572Y-66204819D02*
X160678572Y-65538152D01*
X160678572Y-65204819D02*
X160630953Y-65252438D01*
X160630953Y-65252438D02*
X160678572Y-65300057D01*
X160678572Y-65300057D02*
X160726191Y-65252438D01*
X160726191Y-65252438D02*
X160678572Y-65204819D01*
X160678572Y-65204819D02*
X160678572Y-65300057D01*
X161154762Y-65538152D02*
X161154762Y-66204819D01*
X161154762Y-65633390D02*
X161202381Y-65585771D01*
X161202381Y-65585771D02*
X161297619Y-65538152D01*
X161297619Y-65538152D02*
X161440476Y-65538152D01*
X161440476Y-65538152D02*
X161535714Y-65585771D01*
X161535714Y-65585771D02*
X161583333Y-65681009D01*
X161583333Y-65681009D02*
X161583333Y-66204819D01*
X158564700Y-81271428D02*
X158564700Y-80128571D01*
X159136128Y-80699999D02*
X157993271Y-80699999D01*
X158564700Y-68971428D02*
X158564700Y-67828571D01*
X121933333Y-88909579D02*
X121885714Y-88957199D01*
X121885714Y-88957199D02*
X121742857Y-89004818D01*
X121742857Y-89004818D02*
X121647619Y-89004818D01*
X121647619Y-89004818D02*
X121504762Y-88957199D01*
X121504762Y-88957199D02*
X121409524Y-88861960D01*
X121409524Y-88861960D02*
X121361905Y-88766722D01*
X121361905Y-88766722D02*
X121314286Y-88576246D01*
X121314286Y-88576246D02*
X121314286Y-88433389D01*
X121314286Y-88433389D02*
X121361905Y-88242913D01*
X121361905Y-88242913D02*
X121409524Y-88147675D01*
X121409524Y-88147675D02*
X121504762Y-88052437D01*
X121504762Y-88052437D02*
X121647619Y-88004818D01*
X121647619Y-88004818D02*
X121742857Y-88004818D01*
X121742857Y-88004818D02*
X121885714Y-88052437D01*
X121885714Y-88052437D02*
X121933333Y-88100056D01*
X122314286Y-88100056D02*
X122361905Y-88052437D01*
X122361905Y-88052437D02*
X122457143Y-88004818D01*
X122457143Y-88004818D02*
X122695238Y-88004818D01*
X122695238Y-88004818D02*
X122790476Y-88052437D01*
X122790476Y-88052437D02*
X122838095Y-88100056D01*
X122838095Y-88100056D02*
X122885714Y-88195294D01*
X122885714Y-88195294D02*
X122885714Y-88290532D01*
X122885714Y-88290532D02*
X122838095Y-88433389D01*
X122838095Y-88433389D02*
X122266667Y-89004818D01*
X122266667Y-89004818D02*
X122885714Y-89004818D01*
X137883333Y-88892830D02*
X137835714Y-88940450D01*
X137835714Y-88940450D02*
X137692857Y-88988069D01*
X137692857Y-88988069D02*
X137597619Y-88988069D01*
X137597619Y-88988069D02*
X137454762Y-88940450D01*
X137454762Y-88940450D02*
X137359524Y-88845211D01*
X137359524Y-88845211D02*
X137311905Y-88749973D01*
X137311905Y-88749973D02*
X137264286Y-88559497D01*
X137264286Y-88559497D02*
X137264286Y-88416640D01*
X137264286Y-88416640D02*
X137311905Y-88226164D01*
X137311905Y-88226164D02*
X137359524Y-88130926D01*
X137359524Y-88130926D02*
X137454762Y-88035688D01*
X137454762Y-88035688D02*
X137597619Y-87988069D01*
X137597619Y-87988069D02*
X137692857Y-87988069D01*
X137692857Y-87988069D02*
X137835714Y-88035688D01*
X137835714Y-88035688D02*
X137883333Y-88083307D01*
X138788095Y-87988069D02*
X138311905Y-87988069D01*
X138311905Y-87988069D02*
X138264286Y-88464259D01*
X138264286Y-88464259D02*
X138311905Y-88416640D01*
X138311905Y-88416640D02*
X138407143Y-88369021D01*
X138407143Y-88369021D02*
X138645238Y-88369021D01*
X138645238Y-88369021D02*
X138740476Y-88416640D01*
X138740476Y-88416640D02*
X138788095Y-88464259D01*
X138788095Y-88464259D02*
X138835714Y-88559497D01*
X138835714Y-88559497D02*
X138835714Y-88797592D01*
X138835714Y-88797592D02*
X138788095Y-88892830D01*
X138788095Y-88892830D02*
X138740476Y-88940450D01*
X138740476Y-88940450D02*
X138645238Y-88988069D01*
X138645238Y-88988069D02*
X138407143Y-88988069D01*
X138407143Y-88988069D02*
X138311905Y-88940450D01*
X138311905Y-88940450D02*
X138264286Y-88892830D01*
X126890476Y-76562295D02*
X126890476Y-77209914D01*
X126890476Y-77209914D02*
X126928571Y-77286104D01*
X126928571Y-77286104D02*
X126966666Y-77324200D01*
X126966666Y-77324200D02*
X127042857Y-77362295D01*
X127042857Y-77362295D02*
X127195238Y-77362295D01*
X127195238Y-77362295D02*
X127271428Y-77324200D01*
X127271428Y-77324200D02*
X127309523Y-77286104D01*
X127309523Y-77286104D02*
X127347619Y-77209914D01*
X127347619Y-77209914D02*
X127347619Y-76562295D01*
X127690475Y-76638485D02*
X127728571Y-76600390D01*
X127728571Y-76600390D02*
X127804761Y-76562295D01*
X127804761Y-76562295D02*
X127995237Y-76562295D01*
X127995237Y-76562295D02*
X128071428Y-76600390D01*
X128071428Y-76600390D02*
X128109523Y-76638485D01*
X128109523Y-76638485D02*
X128147618Y-76714676D01*
X128147618Y-76714676D02*
X128147618Y-76790866D01*
X128147618Y-76790866D02*
X128109523Y-76905152D01*
X128109523Y-76905152D02*
X127652380Y-77362295D01*
X127652380Y-77362295D02*
X128147618Y-77362295D01*
X130633333Y-89109580D02*
X130585714Y-89157200D01*
X130585714Y-89157200D02*
X130442857Y-89204819D01*
X130442857Y-89204819D02*
X130347619Y-89204819D01*
X130347619Y-89204819D02*
X130204762Y-89157200D01*
X130204762Y-89157200D02*
X130109524Y-89061961D01*
X130109524Y-89061961D02*
X130061905Y-88966723D01*
X130061905Y-88966723D02*
X130014286Y-88776247D01*
X130014286Y-88776247D02*
X130014286Y-88633390D01*
X130014286Y-88633390D02*
X130061905Y-88442914D01*
X130061905Y-88442914D02*
X130109524Y-88347676D01*
X130109524Y-88347676D02*
X130204762Y-88252438D01*
X130204762Y-88252438D02*
X130347619Y-88204819D01*
X130347619Y-88204819D02*
X130442857Y-88204819D01*
X130442857Y-88204819D02*
X130585714Y-88252438D01*
X130585714Y-88252438D02*
X130633333Y-88300057D01*
X130966667Y-88204819D02*
X131633333Y-88204819D01*
X131633333Y-88204819D02*
X131204762Y-89204819D01*
X128033333Y-89109580D02*
X127985714Y-89157200D01*
X127985714Y-89157200D02*
X127842857Y-89204819D01*
X127842857Y-89204819D02*
X127747619Y-89204819D01*
X127747619Y-89204819D02*
X127604762Y-89157200D01*
X127604762Y-89157200D02*
X127509524Y-89061961D01*
X127509524Y-89061961D02*
X127461905Y-88966723D01*
X127461905Y-88966723D02*
X127414286Y-88776247D01*
X127414286Y-88776247D02*
X127414286Y-88633390D01*
X127414286Y-88633390D02*
X127461905Y-88442914D01*
X127461905Y-88442914D02*
X127509524Y-88347676D01*
X127509524Y-88347676D02*
X127604762Y-88252438D01*
X127604762Y-88252438D02*
X127747619Y-88204819D01*
X127747619Y-88204819D02*
X127842857Y-88204819D01*
X127842857Y-88204819D02*
X127985714Y-88252438D01*
X127985714Y-88252438D02*
X128033333Y-88300057D01*
X128890476Y-88204819D02*
X128700000Y-88204819D01*
X128700000Y-88204819D02*
X128604762Y-88252438D01*
X128604762Y-88252438D02*
X128557143Y-88300057D01*
X128557143Y-88300057D02*
X128461905Y-88442914D01*
X128461905Y-88442914D02*
X128414286Y-88633390D01*
X128414286Y-88633390D02*
X128414286Y-89014342D01*
X128414286Y-89014342D02*
X128461905Y-89109580D01*
X128461905Y-89109580D02*
X128509524Y-89157200D01*
X128509524Y-89157200D02*
X128604762Y-89204819D01*
X128604762Y-89204819D02*
X128795238Y-89204819D01*
X128795238Y-89204819D02*
X128890476Y-89157200D01*
X128890476Y-89157200D02*
X128938095Y-89109580D01*
X128938095Y-89109580D02*
X128985714Y-89014342D01*
X128985714Y-89014342D02*
X128985714Y-88776247D01*
X128985714Y-88776247D02*
X128938095Y-88681009D01*
X128938095Y-88681009D02*
X128890476Y-88633390D01*
X128890476Y-88633390D02*
X128795238Y-88585771D01*
X128795238Y-88585771D02*
X128604762Y-88585771D01*
X128604762Y-88585771D02*
X128509524Y-88633390D01*
X128509524Y-88633390D02*
X128461905Y-88681009D01*
X128461905Y-88681009D02*
X128414286Y-88776247D01*
X108066666Y-105654819D02*
X107733333Y-105178628D01*
X107495238Y-105654819D02*
X107495238Y-104654819D01*
X107495238Y-104654819D02*
X107876190Y-104654819D01*
X107876190Y-104654819D02*
X107971428Y-104702438D01*
X107971428Y-104702438D02*
X108019047Y-104750057D01*
X108019047Y-104750057D02*
X108066666Y-104845295D01*
X108066666Y-104845295D02*
X108066666Y-104988152D01*
X108066666Y-104988152D02*
X108019047Y-105083390D01*
X108019047Y-105083390D02*
X107971428Y-105131009D01*
X107971428Y-105131009D02*
X107876190Y-105178628D01*
X107876190Y-105178628D02*
X107495238Y-105178628D01*
X108495238Y-105131009D02*
X108828571Y-105131009D01*
X108971428Y-105654819D02*
X108495238Y-105654819D01*
X108495238Y-105654819D02*
X108495238Y-104654819D01*
X108495238Y-104654819D02*
X108971428Y-104654819D01*
X109733333Y-105131009D02*
X109400000Y-105131009D01*
X109400000Y-105654819D02*
X109400000Y-104654819D01*
X109400000Y-104654819D02*
X109876190Y-104654819D01*
X110400000Y-104654819D02*
X110400000Y-104892914D01*
X110161905Y-104797676D02*
X110400000Y-104892914D01*
X110400000Y-104892914D02*
X110638095Y-104797676D01*
X110257143Y-105083390D02*
X110400000Y-104892914D01*
X110400000Y-104892914D02*
X110542857Y-105083390D01*
X111161905Y-104654819D02*
X111161905Y-104892914D01*
X110923810Y-104797676D02*
X111161905Y-104892914D01*
X111161905Y-104892914D02*
X111400000Y-104797676D01*
X111019048Y-105083390D02*
X111161905Y-104892914D01*
X111161905Y-104892914D02*
X111304762Y-105083390D01*
X146933333Y-67954819D02*
X146600000Y-67478628D01*
X146361905Y-67954819D02*
X146361905Y-66954819D01*
X146361905Y-66954819D02*
X146742857Y-66954819D01*
X146742857Y-66954819D02*
X146838095Y-67002438D01*
X146838095Y-67002438D02*
X146885714Y-67050057D01*
X146885714Y-67050057D02*
X146933333Y-67145295D01*
X146933333Y-67145295D02*
X146933333Y-67288152D01*
X146933333Y-67288152D02*
X146885714Y-67383390D01*
X146885714Y-67383390D02*
X146838095Y-67431009D01*
X146838095Y-67431009D02*
X146742857Y-67478628D01*
X146742857Y-67478628D02*
X146361905Y-67478628D01*
X147790476Y-66954819D02*
X147600000Y-66954819D01*
X147600000Y-66954819D02*
X147504762Y-67002438D01*
X147504762Y-67002438D02*
X147457143Y-67050057D01*
X147457143Y-67050057D02*
X147361905Y-67192914D01*
X147361905Y-67192914D02*
X147314286Y-67383390D01*
X147314286Y-67383390D02*
X147314286Y-67764342D01*
X147314286Y-67764342D02*
X147361905Y-67859580D01*
X147361905Y-67859580D02*
X147409524Y-67907200D01*
X147409524Y-67907200D02*
X147504762Y-67954819D01*
X147504762Y-67954819D02*
X147695238Y-67954819D01*
X147695238Y-67954819D02*
X147790476Y-67907200D01*
X147790476Y-67907200D02*
X147838095Y-67859580D01*
X147838095Y-67859580D02*
X147885714Y-67764342D01*
X147885714Y-67764342D02*
X147885714Y-67526247D01*
X147885714Y-67526247D02*
X147838095Y-67431009D01*
X147838095Y-67431009D02*
X147790476Y-67383390D01*
X147790476Y-67383390D02*
X147695238Y-67335771D01*
X147695238Y-67335771D02*
X147504762Y-67335771D01*
X147504762Y-67335771D02*
X147409524Y-67383390D01*
X147409524Y-67383390D02*
X147361905Y-67431009D01*
X147361905Y-67431009D02*
X147314286Y-67526247D01*
X103166666Y-64554819D02*
X102833333Y-64078628D01*
X102595238Y-64554819D02*
X102595238Y-63554819D01*
X102595238Y-63554819D02*
X102976190Y-63554819D01*
X102976190Y-63554819D02*
X103071428Y-63602438D01*
X103071428Y-63602438D02*
X103119047Y-63650057D01*
X103119047Y-63650057D02*
X103166666Y-63745295D01*
X103166666Y-63745295D02*
X103166666Y-63888152D01*
X103166666Y-63888152D02*
X103119047Y-63983390D01*
X103119047Y-63983390D02*
X103071428Y-64031009D01*
X103071428Y-64031009D02*
X102976190Y-64078628D01*
X102976190Y-64078628D02*
X102595238Y-64078628D01*
X103595238Y-64031009D02*
X103928571Y-64031009D01*
X104071428Y-64554819D02*
X103595238Y-64554819D01*
X103595238Y-64554819D02*
X103595238Y-63554819D01*
X103595238Y-63554819D02*
X104071428Y-63554819D01*
X104833333Y-64031009D02*
X104500000Y-64031009D01*
X104500000Y-64554819D02*
X104500000Y-63554819D01*
X104500000Y-63554819D02*
X104976190Y-63554819D01*
X105500000Y-63554819D02*
X105500000Y-63792914D01*
X105261905Y-63697676D02*
X105500000Y-63792914D01*
X105500000Y-63792914D02*
X105738095Y-63697676D01*
X105357143Y-63983390D02*
X105500000Y-63792914D01*
X105500000Y-63792914D02*
X105642857Y-63983390D01*
X106261905Y-63554819D02*
X106261905Y-63792914D01*
X106023810Y-63697676D02*
X106261905Y-63792914D01*
X106261905Y-63792914D02*
X106500000Y-63697676D01*
X106119048Y-63983390D02*
X106261905Y-63792914D01*
X106261905Y-63792914D02*
X106404762Y-63983390D01*
X137933333Y-79159580D02*
X137885714Y-79207200D01*
X137885714Y-79207200D02*
X137742857Y-79254819D01*
X137742857Y-79254819D02*
X137647619Y-79254819D01*
X137647619Y-79254819D02*
X137504762Y-79207200D01*
X137504762Y-79207200D02*
X137409524Y-79111961D01*
X137409524Y-79111961D02*
X137361905Y-79016723D01*
X137361905Y-79016723D02*
X137314286Y-78826247D01*
X137314286Y-78826247D02*
X137314286Y-78683390D01*
X137314286Y-78683390D02*
X137361905Y-78492914D01*
X137361905Y-78492914D02*
X137409524Y-78397676D01*
X137409524Y-78397676D02*
X137504762Y-78302438D01*
X137504762Y-78302438D02*
X137647619Y-78254819D01*
X137647619Y-78254819D02*
X137742857Y-78254819D01*
X137742857Y-78254819D02*
X137885714Y-78302438D01*
X137885714Y-78302438D02*
X137933333Y-78350057D01*
X138885714Y-79254819D02*
X138314286Y-79254819D01*
X138600000Y-79254819D02*
X138600000Y-78254819D01*
X138600000Y-78254819D02*
X138504762Y-78397676D01*
X138504762Y-78397676D02*
X138409524Y-78492914D01*
X138409524Y-78492914D02*
X138314286Y-78540533D01*
X130433333Y-76259580D02*
X130385714Y-76307200D01*
X130385714Y-76307200D02*
X130242857Y-76354819D01*
X130242857Y-76354819D02*
X130147619Y-76354819D01*
X130147619Y-76354819D02*
X130004762Y-76307200D01*
X130004762Y-76307200D02*
X129909524Y-76211961D01*
X129909524Y-76211961D02*
X129861905Y-76116723D01*
X129861905Y-76116723D02*
X129814286Y-75926247D01*
X129814286Y-75926247D02*
X129814286Y-75783390D01*
X129814286Y-75783390D02*
X129861905Y-75592914D01*
X129861905Y-75592914D02*
X129909524Y-75497676D01*
X129909524Y-75497676D02*
X130004762Y-75402438D01*
X130004762Y-75402438D02*
X130147619Y-75354819D01*
X130147619Y-75354819D02*
X130242857Y-75354819D01*
X130242857Y-75354819D02*
X130385714Y-75402438D01*
X130385714Y-75402438D02*
X130433333Y-75450057D01*
X131004762Y-75783390D02*
X130909524Y-75735771D01*
X130909524Y-75735771D02*
X130861905Y-75688152D01*
X130861905Y-75688152D02*
X130814286Y-75592914D01*
X130814286Y-75592914D02*
X130814286Y-75545295D01*
X130814286Y-75545295D02*
X130861905Y-75450057D01*
X130861905Y-75450057D02*
X130909524Y-75402438D01*
X130909524Y-75402438D02*
X131004762Y-75354819D01*
X131004762Y-75354819D02*
X131195238Y-75354819D01*
X131195238Y-75354819D02*
X131290476Y-75402438D01*
X131290476Y-75402438D02*
X131338095Y-75450057D01*
X131338095Y-75450057D02*
X131385714Y-75545295D01*
X131385714Y-75545295D02*
X131385714Y-75592914D01*
X131385714Y-75592914D02*
X131338095Y-75688152D01*
X131338095Y-75688152D02*
X131290476Y-75735771D01*
X131290476Y-75735771D02*
X131195238Y-75783390D01*
X131195238Y-75783390D02*
X131004762Y-75783390D01*
X131004762Y-75783390D02*
X130909524Y-75831009D01*
X130909524Y-75831009D02*
X130861905Y-75878628D01*
X130861905Y-75878628D02*
X130814286Y-75973866D01*
X130814286Y-75973866D02*
X130814286Y-76164342D01*
X130814286Y-76164342D02*
X130861905Y-76259580D01*
X130861905Y-76259580D02*
X130909524Y-76307200D01*
X130909524Y-76307200D02*
X131004762Y-76354819D01*
X131004762Y-76354819D02*
X131195238Y-76354819D01*
X131195238Y-76354819D02*
X131290476Y-76307200D01*
X131290476Y-76307200D02*
X131338095Y-76259580D01*
X131338095Y-76259580D02*
X131385714Y-76164342D01*
X131385714Y-76164342D02*
X131385714Y-75973866D01*
X131385714Y-75973866D02*
X131338095Y-75878628D01*
X131338095Y-75878628D02*
X131290476Y-75831009D01*
X131290476Y-75831009D02*
X131195238Y-75783390D01*
X145480534Y-76654819D02*
X145147201Y-76178628D01*
X144909106Y-76654819D02*
X144909106Y-75654819D01*
X144909106Y-75654819D02*
X145290058Y-75654819D01*
X145290058Y-75654819D02*
X145385296Y-75702438D01*
X145385296Y-75702438D02*
X145432915Y-75750057D01*
X145432915Y-75750057D02*
X145480534Y-75845295D01*
X145480534Y-75845295D02*
X145480534Y-75988152D01*
X145480534Y-75988152D02*
X145432915Y-76083390D01*
X145432915Y-76083390D02*
X145385296Y-76131009D01*
X145385296Y-76131009D02*
X145290058Y-76178628D01*
X145290058Y-76178628D02*
X144909106Y-76178628D01*
X145861487Y-75750057D02*
X145909106Y-75702438D01*
X145909106Y-75702438D02*
X146004344Y-75654819D01*
X146004344Y-75654819D02*
X146242439Y-75654819D01*
X146242439Y-75654819D02*
X146337677Y-75702438D01*
X146337677Y-75702438D02*
X146385296Y-75750057D01*
X146385296Y-75750057D02*
X146432915Y-75845295D01*
X146432915Y-75845295D02*
X146432915Y-75940533D01*
X146432915Y-75940533D02*
X146385296Y-76083390D01*
X146385296Y-76083390D02*
X145813868Y-76654819D01*
X145813868Y-76654819D02*
X146432915Y-76654819D01*
X136433333Y-67954819D02*
X136100000Y-67478628D01*
X135861905Y-67954819D02*
X135861905Y-66954819D01*
X135861905Y-66954819D02*
X136242857Y-66954819D01*
X136242857Y-66954819D02*
X136338095Y-67002438D01*
X136338095Y-67002438D02*
X136385714Y-67050057D01*
X136385714Y-67050057D02*
X136433333Y-67145295D01*
X136433333Y-67145295D02*
X136433333Y-67288152D01*
X136433333Y-67288152D02*
X136385714Y-67383390D01*
X136385714Y-67383390D02*
X136338095Y-67431009D01*
X136338095Y-67431009D02*
X136242857Y-67478628D01*
X136242857Y-67478628D02*
X135861905Y-67478628D01*
X137004762Y-67383390D02*
X136909524Y-67335771D01*
X136909524Y-67335771D02*
X136861905Y-67288152D01*
X136861905Y-67288152D02*
X136814286Y-67192914D01*
X136814286Y-67192914D02*
X136814286Y-67145295D01*
X136814286Y-67145295D02*
X136861905Y-67050057D01*
X136861905Y-67050057D02*
X136909524Y-67002438D01*
X136909524Y-67002438D02*
X137004762Y-66954819D01*
X137004762Y-66954819D02*
X137195238Y-66954819D01*
X137195238Y-66954819D02*
X137290476Y-67002438D01*
X137290476Y-67002438D02*
X137338095Y-67050057D01*
X137338095Y-67050057D02*
X137385714Y-67145295D01*
X137385714Y-67145295D02*
X137385714Y-67192914D01*
X137385714Y-67192914D02*
X137338095Y-67288152D01*
X137338095Y-67288152D02*
X137290476Y-67335771D01*
X137290476Y-67335771D02*
X137195238Y-67383390D01*
X137195238Y-67383390D02*
X137004762Y-67383390D01*
X137004762Y-67383390D02*
X136909524Y-67431009D01*
X136909524Y-67431009D02*
X136861905Y-67478628D01*
X136861905Y-67478628D02*
X136814286Y-67573866D01*
X136814286Y-67573866D02*
X136814286Y-67764342D01*
X136814286Y-67764342D02*
X136861905Y-67859580D01*
X136861905Y-67859580D02*
X136909524Y-67907200D01*
X136909524Y-67907200D02*
X137004762Y-67954819D01*
X137004762Y-67954819D02*
X137195238Y-67954819D01*
X137195238Y-67954819D02*
X137290476Y-67907200D01*
X137290476Y-67907200D02*
X137338095Y-67859580D01*
X137338095Y-67859580D02*
X137385714Y-67764342D01*
X137385714Y-67764342D02*
X137385714Y-67573866D01*
X137385714Y-67573866D02*
X137338095Y-67478628D01*
X137338095Y-67478628D02*
X137290476Y-67431009D01*
X137290476Y-67431009D02*
X137195238Y-67383390D01*
X168166666Y-105654819D02*
X167833333Y-105178628D01*
X167595238Y-105654819D02*
X167595238Y-104654819D01*
X167595238Y-104654819D02*
X167976190Y-104654819D01*
X167976190Y-104654819D02*
X168071428Y-104702438D01*
X168071428Y-104702438D02*
X168119047Y-104750057D01*
X168119047Y-104750057D02*
X168166666Y-104845295D01*
X168166666Y-104845295D02*
X168166666Y-104988152D01*
X168166666Y-104988152D02*
X168119047Y-105083390D01*
X168119047Y-105083390D02*
X168071428Y-105131009D01*
X168071428Y-105131009D02*
X167976190Y-105178628D01*
X167976190Y-105178628D02*
X167595238Y-105178628D01*
X168595238Y-105131009D02*
X168928571Y-105131009D01*
X169071428Y-105654819D02*
X168595238Y-105654819D01*
X168595238Y-105654819D02*
X168595238Y-104654819D01*
X168595238Y-104654819D02*
X169071428Y-104654819D01*
X169833333Y-105131009D02*
X169500000Y-105131009D01*
X169500000Y-105654819D02*
X169500000Y-104654819D01*
X169500000Y-104654819D02*
X169976190Y-104654819D01*
X170500000Y-104654819D02*
X170500000Y-104892914D01*
X170261905Y-104797676D02*
X170500000Y-104892914D01*
X170500000Y-104892914D02*
X170738095Y-104797676D01*
X170357143Y-105083390D02*
X170500000Y-104892914D01*
X170500000Y-104892914D02*
X170642857Y-105083390D01*
X171261905Y-104654819D02*
X171261905Y-104892914D01*
X171023810Y-104797676D02*
X171261905Y-104892914D01*
X171261905Y-104892914D02*
X171500000Y-104797676D01*
X171119048Y-105083390D02*
X171261905Y-104892914D01*
X171261905Y-104892914D02*
X171404762Y-105083390D01*
X158369047Y-101954819D02*
X157892857Y-101954819D01*
X157892857Y-101954819D02*
X157845238Y-102431009D01*
X157845238Y-102431009D02*
X157892857Y-102383390D01*
X157892857Y-102383390D02*
X157988095Y-102335771D01*
X157988095Y-102335771D02*
X158226190Y-102335771D01*
X158226190Y-102335771D02*
X158321428Y-102383390D01*
X158321428Y-102383390D02*
X158369047Y-102431009D01*
X158369047Y-102431009D02*
X158416666Y-102526247D01*
X158416666Y-102526247D02*
X158416666Y-102764342D01*
X158416666Y-102764342D02*
X158369047Y-102859580D01*
X158369047Y-102859580D02*
X158321428Y-102907200D01*
X158321428Y-102907200D02*
X158226190Y-102954819D01*
X158226190Y-102954819D02*
X157988095Y-102954819D01*
X157988095Y-102954819D02*
X157892857Y-102907200D01*
X157892857Y-102907200D02*
X157845238Y-102859580D01*
X158702381Y-101954819D02*
X159035714Y-102954819D01*
X159035714Y-102954819D02*
X159369047Y-101954819D01*
X159845238Y-102954819D02*
X159750000Y-102907200D01*
X159750000Y-102907200D02*
X159702381Y-102859580D01*
X159702381Y-102859580D02*
X159654762Y-102764342D01*
X159654762Y-102764342D02*
X159654762Y-102478628D01*
X159654762Y-102478628D02*
X159702381Y-102383390D01*
X159702381Y-102383390D02*
X159750000Y-102335771D01*
X159750000Y-102335771D02*
X159845238Y-102288152D01*
X159845238Y-102288152D02*
X159988095Y-102288152D01*
X159988095Y-102288152D02*
X160083333Y-102335771D01*
X160083333Y-102335771D02*
X160130952Y-102383390D01*
X160130952Y-102383390D02*
X160178571Y-102478628D01*
X160178571Y-102478628D02*
X160178571Y-102764342D01*
X160178571Y-102764342D02*
X160130952Y-102859580D01*
X160130952Y-102859580D02*
X160083333Y-102907200D01*
X160083333Y-102907200D02*
X159988095Y-102954819D01*
X159988095Y-102954819D02*
X159845238Y-102954819D01*
X161035714Y-102288152D02*
X161035714Y-102954819D01*
X160607143Y-102288152D02*
X160607143Y-102811961D01*
X160607143Y-102811961D02*
X160654762Y-102907200D01*
X160654762Y-102907200D02*
X160750000Y-102954819D01*
X160750000Y-102954819D02*
X160892857Y-102954819D01*
X160892857Y-102954819D02*
X160988095Y-102907200D01*
X160988095Y-102907200D02*
X161035714Y-102859580D01*
X161369048Y-102288152D02*
X161750000Y-102288152D01*
X161511905Y-101954819D02*
X161511905Y-102811961D01*
X161511905Y-102811961D02*
X161559524Y-102907200D01*
X161559524Y-102907200D02*
X161654762Y-102954819D01*
X161654762Y-102954819D02*
X161750000Y-102954819D01*
X158564700Y-99771428D02*
X158564700Y-98628571D01*
X159136128Y-99199999D02*
X157993271Y-99199999D01*
X158564700Y-87471428D02*
X158564700Y-86328571D01*
X141120495Y-66004820D02*
X141120495Y-66814343D01*
X141120495Y-66814343D02*
X141168114Y-66909581D01*
X141168114Y-66909581D02*
X141215733Y-66957201D01*
X141215733Y-66957201D02*
X141310971Y-67004820D01*
X141310971Y-67004820D02*
X141501447Y-67004820D01*
X141501447Y-67004820D02*
X141596685Y-66957201D01*
X141596685Y-66957201D02*
X141644304Y-66909581D01*
X141644304Y-66909581D02*
X141691923Y-66814343D01*
X141691923Y-66814343D02*
X141691923Y-66004820D01*
X142644304Y-66004820D02*
X142168114Y-66004820D01*
X142168114Y-66004820D02*
X142120495Y-66481010D01*
X142120495Y-66481010D02*
X142168114Y-66433391D01*
X142168114Y-66433391D02*
X142263352Y-66385772D01*
X142263352Y-66385772D02*
X142501447Y-66385772D01*
X142501447Y-66385772D02*
X142596685Y-66433391D01*
X142596685Y-66433391D02*
X142644304Y-66481010D01*
X142644304Y-66481010D02*
X142691923Y-66576248D01*
X142691923Y-66576248D02*
X142691923Y-66814343D01*
X142691923Y-66814343D02*
X142644304Y-66909581D01*
X142644304Y-66909581D02*
X142596685Y-66957201D01*
X142596685Y-66957201D02*
X142501447Y-67004820D01*
X142501447Y-67004820D02*
X142263352Y-67004820D01*
X142263352Y-67004820D02*
X142168114Y-66957201D01*
X142168114Y-66957201D02*
X142120495Y-66909581D01*
X140510800Y-63353020D02*
X140510800Y-63591115D01*
X140272705Y-63495877D02*
X140510800Y-63591115D01*
X140510800Y-63591115D02*
X140748895Y-63495877D01*
X140367943Y-63781591D02*
X140510800Y-63591115D01*
X140510800Y-63591115D02*
X140653657Y-63781591D01*
X140510800Y-63353020D02*
X140510800Y-63591115D01*
X140272705Y-63495877D02*
X140510800Y-63591115D01*
X140510800Y-63591115D02*
X140748895Y-63495877D01*
X140367943Y-63781591D02*
X140510800Y-63591115D01*
X140510800Y-63591115D02*
X140653657Y-63781591D01*
X113869047Y-101954819D02*
X113392857Y-101954819D01*
X113392857Y-101954819D02*
X113345238Y-102431009D01*
X113345238Y-102431009D02*
X113392857Y-102383390D01*
X113392857Y-102383390D02*
X113488095Y-102335771D01*
X113488095Y-102335771D02*
X113726190Y-102335771D01*
X113726190Y-102335771D02*
X113821428Y-102383390D01*
X113821428Y-102383390D02*
X113869047Y-102431009D01*
X113869047Y-102431009D02*
X113916666Y-102526247D01*
X113916666Y-102526247D02*
X113916666Y-102764342D01*
X113916666Y-102764342D02*
X113869047Y-102859580D01*
X113869047Y-102859580D02*
X113821428Y-102907200D01*
X113821428Y-102907200D02*
X113726190Y-102954819D01*
X113726190Y-102954819D02*
X113488095Y-102954819D01*
X113488095Y-102954819D02*
X113392857Y-102907200D01*
X113392857Y-102907200D02*
X113345238Y-102859580D01*
X114202381Y-101954819D02*
X114535714Y-102954819D01*
X114535714Y-102954819D02*
X114869047Y-101954819D01*
X115345238Y-102954819D02*
X115250000Y-102907200D01*
X115250000Y-102907200D02*
X115202381Y-102859580D01*
X115202381Y-102859580D02*
X115154762Y-102764342D01*
X115154762Y-102764342D02*
X115154762Y-102478628D01*
X115154762Y-102478628D02*
X115202381Y-102383390D01*
X115202381Y-102383390D02*
X115250000Y-102335771D01*
X115250000Y-102335771D02*
X115345238Y-102288152D01*
X115345238Y-102288152D02*
X115488095Y-102288152D01*
X115488095Y-102288152D02*
X115583333Y-102335771D01*
X115583333Y-102335771D02*
X115630952Y-102383390D01*
X115630952Y-102383390D02*
X115678571Y-102478628D01*
X115678571Y-102478628D02*
X115678571Y-102764342D01*
X115678571Y-102764342D02*
X115630952Y-102859580D01*
X115630952Y-102859580D02*
X115583333Y-102907200D01*
X115583333Y-102907200D02*
X115488095Y-102954819D01*
X115488095Y-102954819D02*
X115345238Y-102954819D01*
X116535714Y-102288152D02*
X116535714Y-102954819D01*
X116107143Y-102288152D02*
X116107143Y-102811961D01*
X116107143Y-102811961D02*
X116154762Y-102907200D01*
X116154762Y-102907200D02*
X116250000Y-102954819D01*
X116250000Y-102954819D02*
X116392857Y-102954819D01*
X116392857Y-102954819D02*
X116488095Y-102907200D01*
X116488095Y-102907200D02*
X116535714Y-102859580D01*
X116869048Y-102288152D02*
X117250000Y-102288152D01*
X117011905Y-101954819D02*
X117011905Y-102811961D01*
X117011905Y-102811961D02*
X117059524Y-102907200D01*
X117059524Y-102907200D02*
X117154762Y-102954819D01*
X117154762Y-102954819D02*
X117250000Y-102954819D01*
X173166666Y-64454819D02*
X172833333Y-63978628D01*
X172595238Y-64454819D02*
X172595238Y-63454819D01*
X172595238Y-63454819D02*
X172976190Y-63454819D01*
X172976190Y-63454819D02*
X173071428Y-63502438D01*
X173071428Y-63502438D02*
X173119047Y-63550057D01*
X173119047Y-63550057D02*
X173166666Y-63645295D01*
X173166666Y-63645295D02*
X173166666Y-63788152D01*
X173166666Y-63788152D02*
X173119047Y-63883390D01*
X173119047Y-63883390D02*
X173071428Y-63931009D01*
X173071428Y-63931009D02*
X172976190Y-63978628D01*
X172976190Y-63978628D02*
X172595238Y-63978628D01*
X173595238Y-63931009D02*
X173928571Y-63931009D01*
X174071428Y-64454819D02*
X173595238Y-64454819D01*
X173595238Y-64454819D02*
X173595238Y-63454819D01*
X173595238Y-63454819D02*
X174071428Y-63454819D01*
X174833333Y-63931009D02*
X174500000Y-63931009D01*
X174500000Y-64454819D02*
X174500000Y-63454819D01*
X174500000Y-63454819D02*
X174976190Y-63454819D01*
X175500000Y-63454819D02*
X175500000Y-63692914D01*
X175261905Y-63597676D02*
X175500000Y-63692914D01*
X175500000Y-63692914D02*
X175738095Y-63597676D01*
X175357143Y-63883390D02*
X175500000Y-63692914D01*
X175500000Y-63692914D02*
X175642857Y-63883390D01*
X176261905Y-63454819D02*
X176261905Y-63692914D01*
X176023810Y-63597676D02*
X176261905Y-63692914D01*
X176261905Y-63692914D02*
X176500000Y-63597676D01*
X176119048Y-63883390D02*
X176261905Y-63692914D01*
X176261905Y-63692914D02*
X176404762Y-63883390D01*
X126833333Y-84454819D02*
X126500000Y-83978628D01*
X126261905Y-84454819D02*
X126261905Y-83454819D01*
X126261905Y-83454819D02*
X126642857Y-83454819D01*
X126642857Y-83454819D02*
X126738095Y-83502438D01*
X126738095Y-83502438D02*
X126785714Y-83550057D01*
X126785714Y-83550057D02*
X126833333Y-83645295D01*
X126833333Y-83645295D02*
X126833333Y-83788152D01*
X126833333Y-83788152D02*
X126785714Y-83883390D01*
X126785714Y-83883390D02*
X126738095Y-83931009D01*
X126738095Y-83931009D02*
X126642857Y-83978628D01*
X126642857Y-83978628D02*
X126261905Y-83978628D01*
X127690476Y-83788152D02*
X127690476Y-84454819D01*
X127452381Y-83407200D02*
X127214286Y-84121485D01*
X127214286Y-84121485D02*
X127833333Y-84121485D01*
X128483126Y-63429321D02*
X127943193Y-63429321D01*
X128213159Y-63429321D02*
X128213159Y-62484439D01*
X128213159Y-62484439D02*
X128123171Y-62619422D01*
X128123171Y-62619422D02*
X128033182Y-62709411D01*
X128033182Y-62709411D02*
X127943193Y-62754405D01*
X128843081Y-62574428D02*
X128888075Y-62529433D01*
X128888075Y-62529433D02*
X128978064Y-62484439D01*
X128978064Y-62484439D02*
X129203036Y-62484439D01*
X129203036Y-62484439D02*
X129293025Y-62529433D01*
X129293025Y-62529433D02*
X129338019Y-62574428D01*
X129338019Y-62574428D02*
X129383014Y-62664416D01*
X129383014Y-62664416D02*
X129383014Y-62754405D01*
X129383014Y-62754405D02*
X129338019Y-62889388D01*
X129338019Y-62889388D02*
X128798087Y-63429321D01*
X128798087Y-63429321D02*
X129383014Y-63429321D01*
X129652980Y-62484439D02*
X129967941Y-63429321D01*
X129967941Y-63429321D02*
X130282902Y-62484439D01*
X130642857Y-63384327D02*
X130642857Y-63429321D01*
X130642857Y-63429321D02*
X130597862Y-63519310D01*
X130597862Y-63519310D02*
X130552868Y-63564304D01*
X132217660Y-62484439D02*
X131767716Y-62484439D01*
X131767716Y-62484439D02*
X131722722Y-62934383D01*
X131722722Y-62934383D02*
X131767716Y-62889388D01*
X131767716Y-62889388D02*
X131857705Y-62844394D01*
X131857705Y-62844394D02*
X132082677Y-62844394D01*
X132082677Y-62844394D02*
X132172666Y-62889388D01*
X132172666Y-62889388D02*
X132217660Y-62934383D01*
X132217660Y-62934383D02*
X132262655Y-63024371D01*
X132262655Y-63024371D02*
X132262655Y-63249343D01*
X132262655Y-63249343D02*
X132217660Y-63339332D01*
X132217660Y-63339332D02*
X132172666Y-63384327D01*
X132172666Y-63384327D02*
X132082677Y-63429321D01*
X132082677Y-63429321D02*
X131857705Y-63429321D01*
X131857705Y-63429321D02*
X131767716Y-63384327D01*
X131767716Y-63384327D02*
X131722722Y-63339332D01*
X132532621Y-62484439D02*
X132847582Y-63429321D01*
X132847582Y-63429321D02*
X133162543Y-62484439D01*
X134197413Y-63429321D02*
X134197413Y-62799400D01*
X134197413Y-62979377D02*
X134242408Y-62889388D01*
X134242408Y-62889388D02*
X134287402Y-62844394D01*
X134287402Y-62844394D02*
X134377391Y-62799400D01*
X134377391Y-62799400D02*
X134467380Y-62799400D01*
X135142295Y-63384327D02*
X135052307Y-63429321D01*
X135052307Y-63429321D02*
X134872329Y-63429321D01*
X134872329Y-63429321D02*
X134782340Y-63384327D01*
X134782340Y-63384327D02*
X134737346Y-63294338D01*
X134737346Y-63294338D02*
X134737346Y-62934383D01*
X134737346Y-62934383D02*
X134782340Y-62844394D01*
X134782340Y-62844394D02*
X134872329Y-62799400D01*
X134872329Y-62799400D02*
X135052307Y-62799400D01*
X135052307Y-62799400D02*
X135142295Y-62844394D01*
X135142295Y-62844394D02*
X135187290Y-62934383D01*
X135187290Y-62934383D02*
X135187290Y-63024371D01*
X135187290Y-63024371D02*
X134737346Y-63114360D01*
X135997189Y-63429321D02*
X135997189Y-62934383D01*
X135997189Y-62934383D02*
X135952194Y-62844394D01*
X135952194Y-62844394D02*
X135862206Y-62799400D01*
X135862206Y-62799400D02*
X135682228Y-62799400D01*
X135682228Y-62799400D02*
X135592239Y-62844394D01*
X135997189Y-63384327D02*
X135907200Y-63429321D01*
X135907200Y-63429321D02*
X135682228Y-63429321D01*
X135682228Y-63429321D02*
X135592239Y-63384327D01*
X135592239Y-63384327D02*
X135547245Y-63294338D01*
X135547245Y-63294338D02*
X135547245Y-63204349D01*
X135547245Y-63204349D02*
X135592239Y-63114360D01*
X135592239Y-63114360D02*
X135682228Y-63069366D01*
X135682228Y-63069366D02*
X135907200Y-63069366D01*
X135907200Y-63069366D02*
X135997189Y-63024371D01*
X136852082Y-63429321D02*
X136852082Y-62484439D01*
X136852082Y-63384327D02*
X136762093Y-63429321D01*
X136762093Y-63429321D02*
X136582116Y-63429321D01*
X136582116Y-63429321D02*
X136492127Y-63384327D01*
X136492127Y-63384327D02*
X136447132Y-63339332D01*
X136447132Y-63339332D02*
X136402138Y-63249343D01*
X136402138Y-63249343D02*
X136402138Y-62979377D01*
X136402138Y-62979377D02*
X136447132Y-62889388D01*
X136447132Y-62889388D02*
X136492127Y-62844394D01*
X136492127Y-62844394D02*
X136582116Y-62799400D01*
X136582116Y-62799400D02*
X136762093Y-62799400D01*
X136762093Y-62799400D02*
X136852082Y-62844394D01*
X137302025Y-63429321D02*
X137302025Y-62799400D01*
X137302025Y-62484439D02*
X137257031Y-62529433D01*
X137257031Y-62529433D02*
X137302025Y-62574428D01*
X137302025Y-62574428D02*
X137347020Y-62529433D01*
X137347020Y-62529433D02*
X137302025Y-62484439D01*
X137302025Y-62484439D02*
X137302025Y-62574428D01*
X137751969Y-62799400D02*
X137751969Y-63429321D01*
X137751969Y-62889388D02*
X137796964Y-62844394D01*
X137796964Y-62844394D02*
X137886953Y-62799400D01*
X137886953Y-62799400D02*
X138021936Y-62799400D01*
X138021936Y-62799400D02*
X138111924Y-62844394D01*
X138111924Y-62844394D02*
X138156919Y-62934383D01*
X138156919Y-62934383D02*
X138156919Y-63429321D01*
X139011812Y-62799400D02*
X139011812Y-63564304D01*
X139011812Y-63564304D02*
X138966817Y-63654293D01*
X138966817Y-63654293D02*
X138921823Y-63699287D01*
X138921823Y-63699287D02*
X138831834Y-63744282D01*
X138831834Y-63744282D02*
X138696851Y-63744282D01*
X138696851Y-63744282D02*
X138606862Y-63699287D01*
X139011812Y-63384327D02*
X138921823Y-63429321D01*
X138921823Y-63429321D02*
X138741846Y-63429321D01*
X138741846Y-63429321D02*
X138651857Y-63384327D01*
X138651857Y-63384327D02*
X138606862Y-63339332D01*
X138606862Y-63339332D02*
X138561868Y-63249343D01*
X138561868Y-63249343D02*
X138561868Y-62979377D01*
X138561868Y-62979377D02*
X138606862Y-62889388D01*
X138606862Y-62889388D02*
X138651857Y-62844394D01*
X138651857Y-62844394D02*
X138741846Y-62799400D01*
X138741846Y-62799400D02*
X138921823Y-62799400D01*
X138921823Y-62799400D02*
X139011812Y-62844394D01*
X137933333Y-97692830D02*
X137885714Y-97740450D01*
X137885714Y-97740450D02*
X137742857Y-97788069D01*
X137742857Y-97788069D02*
X137647619Y-97788069D01*
X137647619Y-97788069D02*
X137504762Y-97740450D01*
X137504762Y-97740450D02*
X137409524Y-97645211D01*
X137409524Y-97645211D02*
X137361905Y-97549973D01*
X137361905Y-97549973D02*
X137314286Y-97359497D01*
X137314286Y-97359497D02*
X137314286Y-97216640D01*
X137314286Y-97216640D02*
X137361905Y-97026164D01*
X137361905Y-97026164D02*
X137409524Y-96930926D01*
X137409524Y-96930926D02*
X137504762Y-96835688D01*
X137504762Y-96835688D02*
X137647619Y-96788069D01*
X137647619Y-96788069D02*
X137742857Y-96788069D01*
X137742857Y-96788069D02*
X137885714Y-96835688D01*
X137885714Y-96835688D02*
X137933333Y-96883307D01*
X138790476Y-97121402D02*
X138790476Y-97788069D01*
X138552381Y-96740450D02*
X138314286Y-97454735D01*
X138314286Y-97454735D02*
X138933333Y-97454735D01*
X116690475Y-66204819D02*
X116119047Y-66204819D01*
X116404761Y-66204819D02*
X116404761Y-65204819D01*
X116404761Y-65204819D02*
X116309523Y-65347676D01*
X116309523Y-65347676D02*
X116214285Y-65442914D01*
X116214285Y-65442914D02*
X116119047Y-65490533D01*
X117071428Y-65300057D02*
X117119047Y-65252438D01*
X117119047Y-65252438D02*
X117214285Y-65204819D01*
X117214285Y-65204819D02*
X117452380Y-65204819D01*
X117452380Y-65204819D02*
X117547618Y-65252438D01*
X117547618Y-65252438D02*
X117595237Y-65300057D01*
X117595237Y-65300057D02*
X117642856Y-65395295D01*
X117642856Y-65395295D02*
X117642856Y-65490533D01*
X117642856Y-65490533D02*
X117595237Y-65633390D01*
X117595237Y-65633390D02*
X117023809Y-66204819D01*
X117023809Y-66204819D02*
X117642856Y-66204819D01*
X117928571Y-65204819D02*
X118261904Y-66204819D01*
X118261904Y-66204819D02*
X118595237Y-65204819D01*
X119071428Y-66204819D02*
X118976190Y-66157200D01*
X118976190Y-66157200D02*
X118928571Y-66109580D01*
X118928571Y-66109580D02*
X118880952Y-66014342D01*
X118880952Y-66014342D02*
X118880952Y-65728628D01*
X118880952Y-65728628D02*
X118928571Y-65633390D01*
X118928571Y-65633390D02*
X118976190Y-65585771D01*
X118976190Y-65585771D02*
X119071428Y-65538152D01*
X119071428Y-65538152D02*
X119214285Y-65538152D01*
X119214285Y-65538152D02*
X119309523Y-65585771D01*
X119309523Y-65585771D02*
X119357142Y-65633390D01*
X119357142Y-65633390D02*
X119404761Y-65728628D01*
X119404761Y-65728628D02*
X119404761Y-66014342D01*
X119404761Y-66014342D02*
X119357142Y-66109580D01*
X119357142Y-66109580D02*
X119309523Y-66157200D01*
X119309523Y-66157200D02*
X119214285Y-66204819D01*
X119214285Y-66204819D02*
X119071428Y-66204819D01*
X120261904Y-65538152D02*
X120261904Y-66204819D01*
X119833333Y-65538152D02*
X119833333Y-66061961D01*
X119833333Y-66061961D02*
X119880952Y-66157200D01*
X119880952Y-66157200D02*
X119976190Y-66204819D01*
X119976190Y-66204819D02*
X120119047Y-66204819D01*
X120119047Y-66204819D02*
X120214285Y-66157200D01*
X120214285Y-66157200D02*
X120261904Y-66109580D01*
X120595238Y-65538152D02*
X120976190Y-65538152D01*
X120738095Y-65204819D02*
X120738095Y-66061961D01*
X120738095Y-66061961D02*
X120785714Y-66157200D01*
X120785714Y-66157200D02*
X120880952Y-66204819D01*
X120880952Y-66204819D02*
X120976190Y-66204819D01*
X120564700Y-81771428D02*
X120564700Y-80628571D01*
X120564700Y-69471428D02*
X120564700Y-68328571D01*
X121136128Y-68899999D02*
X119993271Y-68899999D01*
X136433333Y-65754819D02*
X136100000Y-65278628D01*
X135861905Y-65754819D02*
X135861905Y-64754819D01*
X135861905Y-64754819D02*
X136242857Y-64754819D01*
X136242857Y-64754819D02*
X136338095Y-64802438D01*
X136338095Y-64802438D02*
X136385714Y-64850057D01*
X136385714Y-64850057D02*
X136433333Y-64945295D01*
X136433333Y-64945295D02*
X136433333Y-65088152D01*
X136433333Y-65088152D02*
X136385714Y-65183390D01*
X136385714Y-65183390D02*
X136338095Y-65231009D01*
X136338095Y-65231009D02*
X136242857Y-65278628D01*
X136242857Y-65278628D02*
X135861905Y-65278628D01*
X136909524Y-65754819D02*
X137100000Y-65754819D01*
X137100000Y-65754819D02*
X137195238Y-65707200D01*
X137195238Y-65707200D02*
X137242857Y-65659580D01*
X137242857Y-65659580D02*
X137338095Y-65516723D01*
X137338095Y-65516723D02*
X137385714Y-65326247D01*
X137385714Y-65326247D02*
X137385714Y-64945295D01*
X137385714Y-64945295D02*
X137338095Y-64850057D01*
X137338095Y-64850057D02*
X137290476Y-64802438D01*
X137290476Y-64802438D02*
X137195238Y-64754819D01*
X137195238Y-64754819D02*
X137004762Y-64754819D01*
X137004762Y-64754819D02*
X136909524Y-64802438D01*
X136909524Y-64802438D02*
X136861905Y-64850057D01*
X136861905Y-64850057D02*
X136814286Y-64945295D01*
X136814286Y-64945295D02*
X136814286Y-65183390D01*
X136814286Y-65183390D02*
X136861905Y-65278628D01*
X136861905Y-65278628D02*
X136909524Y-65326247D01*
X136909524Y-65326247D02*
X137004762Y-65373866D01*
X137004762Y-65373866D02*
X137195238Y-65373866D01*
X137195238Y-65373866D02*
X137290476Y-65326247D01*
X137290476Y-65326247D02*
X137338095Y-65278628D01*
X137338095Y-65278628D02*
X137385714Y-65183390D01*
X151621904Y-88942780D02*
X151621904Y-88133257D01*
X151621904Y-88133257D02*
X151574285Y-88038019D01*
X151574285Y-88038019D02*
X151526666Y-87990400D01*
X151526666Y-87990400D02*
X151431428Y-87942780D01*
X151431428Y-87942780D02*
X151240952Y-87942780D01*
X151240952Y-87942780D02*
X151145714Y-87990400D01*
X151145714Y-87990400D02*
X151098095Y-88038019D01*
X151098095Y-88038019D02*
X151050476Y-88133257D01*
X151050476Y-88133257D02*
X151050476Y-88942780D01*
X150050476Y-87942780D02*
X150621904Y-87942780D01*
X150336190Y-87942780D02*
X150336190Y-88942780D01*
X150336190Y-88942780D02*
X150431428Y-88799923D01*
X150431428Y-88799923D02*
X150526666Y-88704685D01*
X150526666Y-88704685D02*
X150621904Y-88657066D01*
X155939999Y-80852880D02*
X155939999Y-80614785D01*
X156178094Y-80710023D02*
X155939999Y-80614785D01*
X155939999Y-80614785D02*
X155701904Y-80710023D01*
X156082856Y-80424309D02*
X155939999Y-80614785D01*
X155939999Y-80614785D02*
X155797142Y-80424309D01*
X155940000Y-79762519D02*
X155940000Y-80000614D01*
X155701905Y-79905376D02*
X155940000Y-80000614D01*
X155940000Y-80000614D02*
X156178095Y-79905376D01*
X155797143Y-80191090D02*
X155940000Y-80000614D01*
X155940000Y-80000614D02*
X156082857Y-80191090D01*
X150393333Y-76654819D02*
X150060000Y-76178628D01*
X149821905Y-76654819D02*
X149821905Y-75654819D01*
X149821905Y-75654819D02*
X150202857Y-75654819D01*
X150202857Y-75654819D02*
X150298095Y-75702438D01*
X150298095Y-75702438D02*
X150345714Y-75750057D01*
X150345714Y-75750057D02*
X150393333Y-75845295D01*
X150393333Y-75845295D02*
X150393333Y-75988152D01*
X150393333Y-75988152D02*
X150345714Y-76083390D01*
X150345714Y-76083390D02*
X150298095Y-76131009D01*
X150298095Y-76131009D02*
X150202857Y-76178628D01*
X150202857Y-76178628D02*
X149821905Y-76178628D01*
X151345714Y-76654819D02*
X150774286Y-76654819D01*
X151060000Y-76654819D02*
X151060000Y-75654819D01*
X151060000Y-75654819D02*
X150964762Y-75797676D01*
X150964762Y-75797676D02*
X150869524Y-75892914D01*
X150869524Y-75892914D02*
X150774286Y-75940533D01*
X126533333Y-71654819D02*
X126200000Y-71178628D01*
X125961905Y-71654819D02*
X125961905Y-70654819D01*
X125961905Y-70654819D02*
X126342857Y-70654819D01*
X126342857Y-70654819D02*
X126438095Y-70702438D01*
X126438095Y-70702438D02*
X126485714Y-70750057D01*
X126485714Y-70750057D02*
X126533333Y-70845295D01*
X126533333Y-70845295D02*
X126533333Y-70988152D01*
X126533333Y-70988152D02*
X126485714Y-71083390D01*
X126485714Y-71083390D02*
X126438095Y-71131009D01*
X126438095Y-71131009D02*
X126342857Y-71178628D01*
X126342857Y-71178628D02*
X125961905Y-71178628D01*
X127438095Y-70654819D02*
X126961905Y-70654819D01*
X126961905Y-70654819D02*
X126914286Y-71131009D01*
X126914286Y-71131009D02*
X126961905Y-71083390D01*
X126961905Y-71083390D02*
X127057143Y-71035771D01*
X127057143Y-71035771D02*
X127295238Y-71035771D01*
X127295238Y-71035771D02*
X127390476Y-71083390D01*
X127390476Y-71083390D02*
X127438095Y-71131009D01*
X127438095Y-71131009D02*
X127485714Y-71226247D01*
X127485714Y-71226247D02*
X127485714Y-71464342D01*
X127485714Y-71464342D02*
X127438095Y-71559580D01*
X127438095Y-71559580D02*
X127390476Y-71607200D01*
X127390476Y-71607200D02*
X127295238Y-71654819D01*
X127295238Y-71654819D02*
X127057143Y-71654819D01*
X127057143Y-71654819D02*
X126961905Y-71607200D01*
X126961905Y-71607200D02*
X126914286Y-71559580D01*
D11*
%TO.C,Current reading*%
X118350000Y-101825000D02*
X130750000Y-101825000D01*
X118350000Y-107575000D02*
X118350000Y-101825000D01*
X130750000Y-101825000D02*
X130750000Y-107575000D01*
X130750000Y-107575000D02*
X118350000Y-107575000D01*
D12*
X117650000Y-104175000D02*
G75*
G02*
X117450000Y-104175000I-100000J0D01*
G01*
X117450000Y-104175000D02*
G75*
G02*
X117650000Y-104175000I100000J0D01*
G01*
D13*
%TO.C,U4*%
X152256084Y-68074001D02*
X152708716Y-68074001D01*
X152708716Y-65026001D02*
X152256084Y-65026001D01*
D14*
%TO.C,R7*%
X147327064Y-64565000D02*
X146872936Y-64565000D01*
X147327064Y-66035000D02*
X146872936Y-66035000D01*
%TO.C,R3*%
X128765000Y-84227064D02*
X128765000Y-83772936D01*
X130235000Y-84227064D02*
X130235000Y-83772936D01*
%TO.C,12Vin*%
X159290000Y-68490000D02*
X159290000Y-68890000D01*
X159290000Y-73510000D02*
X159290000Y-76300000D01*
X159290000Y-80450000D02*
X159290000Y-81120000D01*
X176810000Y-66940000D02*
X162500000Y-66940000D01*
X176810000Y-66940000D02*
X176810000Y-82660000D01*
X176810000Y-82660000D02*
X162500000Y-82660000D01*
X159291605Y-68481285D02*
G75*
G02*
X162500000Y-66940000I3208396J-2568716D01*
G01*
X162500000Y-82660000D02*
G75*
G02*
X159292431Y-81119747I0J4110000D01*
G01*
D13*
%TO.C,C2*%
X122100000Y-82771499D02*
X122100000Y-84041499D01*
X122735000Y-83406499D02*
X121465000Y-83406499D01*
X126481500Y-88549999D02*
G75*
G02*
X117718500Y-88549999I-4381500J0D01*
G01*
X117718500Y-88549999D02*
G75*
G02*
X126481500Y-88549999I4381500J0D01*
G01*
D11*
%TO.C,C5*%
X142050000Y-88533250D02*
G75*
G02*
X134050000Y-88533250I-4000000J0D01*
G01*
X134050000Y-88533250D02*
G75*
G02*
X142050000Y-88533250I4000000J0D01*
G01*
D12*
X141650000Y-88533250D02*
G75*
G02*
X141450000Y-88533250I-100000J0D01*
G01*
X141450000Y-88533250D02*
G75*
G02*
X141650000Y-88533250I100000J0D01*
G01*
D11*
%TO.C,U2*%
X126000000Y-78500000D02*
X126000000Y-75500000D01*
X129000000Y-78500000D02*
X129000000Y-75500000D01*
D12*
X126350000Y-80500000D02*
G75*
G02*
X126150000Y-80500000I-100000J0D01*
G01*
X126150000Y-80500000D02*
G75*
G02*
X126350000Y-80500000I100000J0D01*
G01*
D14*
%TO.C,C7*%
X130065000Y-89011252D02*
X130065000Y-88488748D01*
X131535000Y-89011252D02*
X131535000Y-88488748D01*
%TO.C,C6*%
X127465000Y-89011252D02*
X127465000Y-88488748D01*
X128935000Y-89011252D02*
X128935000Y-88488748D01*
%TO.C,R6*%
X146872936Y-66765000D02*
X147327064Y-66765000D01*
X146872936Y-68235000D02*
X147327064Y-68235000D01*
D13*
%TO.C,C1*%
X138100000Y-72272200D02*
X138100000Y-73542200D01*
X138735000Y-72907200D02*
X137465000Y-72907200D01*
X143230800Y-78800000D02*
G75*
G02*
X132969200Y-78800000I-5130800J0D01*
G01*
X132969200Y-78800000D02*
G75*
G02*
X143230800Y-78800000I5130800J0D01*
G01*
D14*
%TO.C,C8*%
X129865000Y-75638748D02*
X129865000Y-76161252D01*
X131335000Y-75638748D02*
X131335000Y-76161252D01*
%TO.C,R8*%
X136372936Y-66765000D02*
X136827064Y-66765000D01*
X136372936Y-68235000D02*
X136827064Y-68235000D01*
%TO.C,5Vout*%
X159290000Y-86990000D02*
X159290000Y-87390000D01*
X159290000Y-92010000D02*
X159290000Y-94800000D01*
X159290000Y-98950000D02*
X159290000Y-99620000D01*
X176810000Y-85440000D02*
X162500000Y-85440000D01*
X176810000Y-85440000D02*
X176810000Y-101160000D01*
X176810000Y-101160000D02*
X162500000Y-101160000D01*
X159291605Y-86981285D02*
G75*
G02*
X162500000Y-85440000I3208396J-2568716D01*
G01*
X162500000Y-101160000D02*
G75*
G02*
X159292431Y-99619747I0J4110000D01*
G01*
D13*
%TO.C,U5*%
X141656084Y-68074001D02*
X142108716Y-68074001D01*
X142108716Y-65026001D02*
X141656084Y-65026001D01*
%TO.C,5Vout*%
X101893100Y-85373004D02*
X101893100Y-100127001D01*
X101893100Y-100127001D02*
X110665869Y-100127001D01*
X110665869Y-85373004D02*
X101893100Y-85373004D01*
X115947101Y-88972763D02*
X115947101Y-87077344D01*
X115947101Y-90972762D02*
X115947101Y-90527243D01*
X115947101Y-92972763D02*
X115947101Y-92527242D01*
X115947101Y-94972761D02*
X115947101Y-94527243D01*
X115947101Y-98422660D02*
X115947101Y-96527241D01*
D15*
X115419812Y-83744864D02*
G75*
G02*
X116120390Y-83744864I350289J149861D01*
G01*
D14*
%TO.C,R4*%
X126265000Y-84227064D02*
X126265000Y-83772936D01*
X127735000Y-84227064D02*
X127735000Y-83772936D01*
D11*
%TO.C,12V\u002C 5V reading*%
X139850000Y-57900000D02*
X152250000Y-57900000D01*
X139850000Y-63650000D02*
X139850000Y-57900000D01*
X152250000Y-57900000D02*
X152250000Y-63650000D01*
X152250000Y-63650000D02*
X139850000Y-63650000D01*
D12*
X153150000Y-61300000D02*
G75*
G02*
X152950000Y-61300000I-100000J0D01*
G01*
X152950000Y-61300000D02*
G75*
G02*
X153150000Y-61300000I100000J0D01*
G01*
D11*
%TO.C,C4*%
X142050000Y-97233250D02*
G75*
G02*
X134050000Y-97233250I-4000000J0D01*
G01*
X134050000Y-97233250D02*
G75*
G02*
X142050000Y-97233250I4000000J0D01*
G01*
D12*
X141650000Y-97233250D02*
G75*
G02*
X141450000Y-97233250I-100000J0D01*
G01*
X141450000Y-97233250D02*
G75*
G02*
X141650000Y-97233250I100000J0D01*
G01*
D14*
%TO.C,12Vout*%
X102090000Y-66940000D02*
X116400000Y-66940000D01*
X102090000Y-82660000D02*
X102090000Y-66940000D01*
X102090000Y-82660000D02*
X116400000Y-82660000D01*
X119610000Y-69150000D02*
X119610000Y-68480000D01*
X119610000Y-76090000D02*
X119610000Y-73300000D01*
X119610000Y-81110000D02*
X119610000Y-80710000D01*
X116400000Y-66940000D02*
G75*
G02*
X119607569Y-68480253I0J-4110000D01*
G01*
X119608395Y-81118715D02*
G75*
G02*
X116400000Y-82660000I-3208396J2568716D01*
G01*
%TO.C,R9*%
X136827064Y-64565000D02*
X136372936Y-64565000D01*
X136827064Y-66035000D02*
X136372936Y-66035000D01*
D13*
%TO.C,U1*%
X146681700Y-82733400D02*
X146681700Y-81996800D01*
X147418300Y-82733400D02*
X147418300Y-81996800D01*
X147951700Y-82733400D02*
X147951700Y-81996800D01*
X148688300Y-82733400D02*
X148688300Y-81996800D01*
X149221700Y-82733400D02*
X149221700Y-81996800D01*
X149958300Y-82733400D02*
X149958300Y-81996800D01*
X150491700Y-82733400D02*
X150491700Y-81996800D01*
X151228300Y-82733400D02*
X151228300Y-81996800D01*
X151761700Y-82733400D02*
X151761700Y-81996800D01*
X152498300Y-82733400D02*
X152498300Y-81996800D01*
X153031700Y-82733400D02*
X153031700Y-81996800D01*
X153768300Y-82733400D02*
X153768300Y-81996800D01*
X154301700Y-82733400D02*
X154301700Y-81996800D01*
X155038300Y-82733400D02*
X155038300Y-81996800D01*
%TO.C,R5*%
X125889950Y-72724000D02*
X127510050Y-72724000D01*
X127510050Y-69676000D02*
X125889950Y-69676000D01*
%TD*%
M02*
