  0
SECTION
  2
HEADER
  9
$ACADVER
  1
AC1003
  9
$EXTMIN
 10
1
 20
8.86593215660078
  9
$EXTMAX
 10
4.0560605910008
 20
1
  9
$INSUNITS
 70
1
  9
$INSBASE
 10
2.5280302955004
 20
4.93296607830039
999
Created with OMAX LAYOUT for Windows. (www.omax.com) 3/19/2025
  0
ENDSEC
  0
SECTION
  2
TABLES
  0
TABLE
  2
LAYER
 70
    10
  0
LAYER
  2
0
 70
     0
 62
     7
  6
CONTINUOUS
  0
LAYER
  2
1
 70
     0
 62
     7
  6
CONTINUOUS
  0
LAYER
  2
2
 70
     0
 62
     7
  6
CONTINUOUS
  0
LAYER
  2
3
 70
     0
 62
     7
  6
CONTINUOUS
  0
LAYER
  2
4
 70
     0
 62
     7
  6
CONTINUOUS
  0
LAYER
  2
5
 70
     0
 62
     7
  6
CONTINUOUS
  0
LAYER
  2
6
 70
     0
 62
     7
  6
CONTINUOUS
  0
LAYER
  2
7
 70
     0
 62
     7
  6
CONTINUOUS
  0
LAYER
  2
8
 70
     0
 62
     7
  6
CONTINUOUS
  0
LAYER
  2
9
 70
     0
 62
     7
  6
CONTINUOUS
  0
LAYER
  2
10
 70
     0
 62
     7
  6
CONTINUOUS
  0
LAYER
  2
11
 70
     0
 62
     7
  6
CONTINUOUS
  0
LAYER
  2
12
 70
     0
 62
     7
  6
CONTINUOUS
  0
LAYER
  2
13
 70
     0
 62
     7
  6
CONTINUOUS
  0
LAYER
  2
14
 70
     0
 62
     7
  6
CONTINUOUS
  0
LAYER
  2
15
 70
     0
 62
     7
  6
CONTINUOUS
  0
LAYER
  2
16
 70
     0
 62
     7
  6
CONTINUOUS
  0
LAYER
  2
17
 70
     0
 62
     7
  6
CONTINUOUS
  0
LAYER
  2
18
 70
     0
 62
     7
  6
CONTINUOUS
  0
LAYER
  2
19
 70
     0
 62
     7
  6
CONTINUOUS
  0
LAYER
  2
20
 70
     0
 62
     7
  6
CONTINUOUS
  0
LAYER
  2
21
 70
     0
 62
     7
  6
CONTINUOUS
  0
LAYER
  2
22
 70
     0
 62
     7
  6
CONTINUOUS
  0
LAYER
  2
23
 70
     0
 62
     7
  6
CONTINUOUS
  0
LAYER
  2
24
 70
     0
 62
     7
  6
CONTINUOUS
  0
LAYER
  2
25
 70
     0
 62
     7
  6
CONTINUOUS
  0
LAYER
  2
26
 70
     0
 62
     7
  6
CONTINUOUS
  0
LAYER
  2
27
 70
     0
 62
     7
  6
CONTINUOUS
  0
LAYER
  2
28
 70
     0
 62
     7
  6
CONTINUOUS
  0
LAYER
  2
29
 70
     0
 62
     7
  6
CONTINUOUS
  0
LAYER
  2
30
 70
     0
 62
     7
  6
CONTINUOUS
  0
LAYER
  2
31
 70
     0
 62
     7
  6
CONTINUOUS
  0
ENDTAB
  0
ENDSEC
  0
SECTION
  2
ENTITIES
  0
ARC
  8
3
  6
CONTINUOUS
 62
3
 10
3.76418345313984
 20
5.33222081175342
 30
0.0
 40
0.088582677154838
 50
146.249999997723
 51
180.000000001958
  0
ARC
  8
3
  6
CONTINUOUS
 62
3
 10
3.7641834531504
 20
5.33222081175039
 30
0.0
 40
0.0885826771653999
 50
179.999999999999
 51
359.999999999999
  0
ARC
  8
3
  6
CONTINUOUS
 62
3
 10
3.76418345315294
 20
5.33222081175858
 30
0.0
 40
0.0885826771628636
 50
359.999999994705
 51
146.250000005203
  0
ARC
  8
3
  6
CONTINUOUS
 62
3
 10
1.29329714443754
 20
7.4788652657911
 30
0.0
 40
0.0885826771524871
 50
33.7499999732989
 51
180.00000002633
  0
ARC
  8
3
  6
CONTINUOUS
 62
3
 10
1.2932971444504
 20
7.47886526575039
 30
0.0
 40
0.0885826771653493
 50
179.999999999999
 51
359.999999999999
  0
ARC
  8
3
  6
CONTINUOUS
 62
3
 10
1.29329714448972
 20
7.47886526576063
 30
0.0
 40
0.0885826771260335
 50
359.99999999338
 51
33.750000008438
  0
ARC
  8
3
  6
CONTINUOUS
 62
3
 10
2.37344451098949
 20
8.55901263224336
 30
0.0
 40
0.0885826771263167
 50
311.249999982719
 51
4.54695595872174E-9
  0
ARC
  8
3
  6
CONTINUOUS
 62
3
 10
2.3734445109504
 20
8.55901263225039
 30
0.0
 40
0.0885826771653999
 50
359.999999999999
 51
180
  0
ARC
  8
3
  6
CONTINUOUS
 62
3
 10
2.37344451094316
 20
8.55901263224509
 30
0.0
 40
0.0885826771581604
 50
179.999999996572
 51
311.250000004508
  0
ARC
  8
3
  6
CONTINUOUS
 62
3
 10
3.76418345315591
 20
7.61568537863901
 30
0.0
 40
0.0885826771598959
 50
241.874999993588
 51
7.36038875496797E-9
  0
ARC
  8
3
  6
CONTINUOUS
 62
3
 10
3.7641834531504
 20
7.61568537865039
 30
0.0
 40
0.0885826771653999
 50
359.999999999999
 51
180
  0
ARC
  8
3
  6
CONTINUOUS
 62
3
 10
3.76418345314255
 20
7.61568537864349
 30
0.0
 40
0.0885826771575512
 50
179.999999995536
 51
241.875000002571
  0
ARC
  8
3
  6
CONTINUOUS
 62
3
 10
3.00040392559653
 20
6.85190585107986
 30
0.0
 40
0.562499999953882
 50
254.999999993678
 51
7.18403335899018E-9
  0
ARC
  8
3
  6
CONTINUOUS
 62
3
 10
3.0004039255504
 20
6.8519058511504
 30
0.0
 40
0.5625
 50
359.999999999999
 51
180
  0
ARC
  8
3
  6
CONTINUOUS
 62
3
 10
3.00040392551571
 20
6.85190585111334
 30
0.0
 40
0.562499999965307
 50
179.999999996226
 51
255.000000002512
  0
ARC
  8
3
  6
CONTINUOUS
 62
3
 10
2.23662439806443
 20
5.33222081172227
 30
0.0
 40
0.0885826771513705
 50
213.74999997914
 51
1.81913733339115E-8
  0
ARC
  8
3
  6
CONTINUOUS
 62
3
 10
2.23662439805043
 20
5.3322208117504
 30
0.0
 40
0.088582677165375
 50
359.999999999999
 51
180
  0
ARC
  8
3
  6
CONTINUOUS
 62
3
 10
2.23662439799926
 20
5.33222081175291
 30
0.0
 40
0.0885826771142108
 50
180.00000000163
 51
213.750000019039
  0
ARC
  8
3
  6
CONTINUOUS
 62
3
 10
2.09882912243669
 20
5.19442553616034
 30
0.0
 40
0.0984251968366846
 50
180.000000005788
 51
225.000000007074
  0
LINE
  8
3
  6
CONTINUOUS
 62
3
 10
2.0004039255504
 20
5.19442553615039
 30
0.0
 11
2.0004039255504
 21
6.39692323735039
 31
0.0
  0
ARC
  8
3
  6
CONTINUOUS
 62
3
 10
1.9019787287504
 20
6.39692323735039
 30
0.0
 40
0.0984251968503884
 50
8.07860889091733E-13
 51
45.0000000000008
  0
LINE
  8
3
  6
CONTINUOUS
 62
3
 10
1.9715758528504
 20
6.46652036145039
 30
0.0
 11
1.0288280726504
 21
7.40926814165039
 31
0.0
  0
ARC
  8
3
  6
CONTINUOUS
 62
3
 10
1.0984251968504
 20
7.47886526575039
 30
0.0
 40
0.0984251968504015
 50
135
 51
225
  0
LINE
  8
3
  6
CONTINUOUS
 62
3
 10
1.0288280726504
 20
7.54846238985039
 30
0.0
 11
2.3174697667504
 21
8.83710408395039
 31
0.0
  0
ARC
  8
3
  6
CONTINUOUS
 62
3
 10
2.3870668908504
 20
8.76750695975044
 30
0.0
 40
0.0984251968503362
 50
57.3827818309004
 51
135.000000000001
  0
LINE
  8
3
  6
CONTINUOUS
 62
3
 10
2.4401204272504
 20
8.85040956325039
 30
0.0
 11
3.9550322650504
 21
7.88094145365039
 31
0.0
  0
ARC
  8
3
  6
CONTINUOUS
 62
3
 10
3.90197872875039
 20
7.79803885015035
 30
0.0
 40
0.0984251968504156
 50
2.27481719166643E-11
 51
57.3827818309226
  0
LINE
  8
3
  6
CONTINUOUS
 62
3
 10
4.0004039255504
 20
7.79803885015039
 30
0.0
 11
4.0004039255504
 21
5.19442553615039
 31
0.0
  0
ARC
  8
3
  6
CONTINUOUS
 62
3
 10
3.90197872875041
 20
5.1944255361504
 30
0.0
 40
0.0984251968503949
 50
269.999999999997
 51
359.999999999997
  0
LINE
  8
3
  6
CONTINUOUS
 62
3
 10
3.9019787287504
 20
5.09600033925039
 30
0.0
 11
2.0988291224504
 21
5.09600033925039
 31
0.0
  0
ARC
  8
3
  6
CONTINUOUS
 62
3
 10
2.09882912246934
 20
5.1944255361584
 30
0.0
 40
0.0984251968584013
 50
224.999999992834
 51
269.999999988975
  0
ARC
  8
3
  6
CONTINUOUS
 62
3
 10
1.34895380973754
 20
3.3828649264911
 30
0.0
 40
0.0885826771524877
 50
33.7499999732987
 51
180.000000026331
  0
ARC
  8
3
  6
CONTINUOUS
 62
3
 10
1.3489538097504
 20
3.38286492645039
 30
0.0
 40
0.0885826771653502
 50
179.999999999999
 51
359.999999999999
  0
ARC
  8
3
  6
CONTINUOUS
 62
3
 10
1.34895380978972
 20
3.38286492646063
 30
0.0
 40
0.0885826771260338
 50
359.99999999338
 51
33.7500000084385
  0
ARC
  8
3
  6
CONTINUOUS
 62
3
 10
2.42910117638949
 20
4.46301229304336
 30
0.0
 40
0.0885826771263141
 50
311.249999982718
 51
4.54748711135354E-9
  0
ARC
  8
3
  6
CONTINUOUS
 62
3
 10
2.4291011763504
 20
4.46301229305039
 30
0.0
 40
0.0885826771653999
 50
359.999999999999
 51
180
  0
ARC
  8
3
  6
CONTINUOUS
 62
3
 10
2.42910117634316
 20
4.46301229304509
 30
0.0
 40
0.0885826771581602
 50
179.999999996572
 51
311.250000004507
  0
ARC
  8
3
  6
CONTINUOUS
 62
3
 10
3.81984011859428
 20
3.51968503941397
 30
0.0
 40
0.0885826771215274
 50
258.749999966303
 51
2.35602196084249E-8
  0
ARC
  8
3
  6
CONTINUOUS
 62
3
 10
3.8198401185504
 20
3.51968503945039
 30
0.0
 40
0.0885826771653999
 50
359.999999999999
 51
180
  0
ARC
  8
3
  6
CONTINUOUS
 62
3
 10
3.81984011852723
 20
3.5196850394484
 30
0.0
 40
0.088582677142222
 50
179.999999998713
 51
258.750000013183
  0
ARC
  8
3
  6
CONTINUOUS
 62
3
 10
3.81984011854231
 20
1.23622047245369
 30
0.0
 40
0.0885826771573111
 50
134.999999997632
 51
180.000000002134
  0
ARC
  8
3
  6
CONTINUOUS
 62
3
 10
3.8198401185504
 20
1.23622047245039
 30
0.0
 40
0.0885826771653999
 50
179.999999999999
 51
359.999999999999
  0
ARC
  8
3
  6
CONTINUOUS
 62
3
 10
3.81984011855391
 20
1.2362204724588
 30
0.0
 40
0.0885826771618971
 50
359.999999994563
 51
135.000000005269
  0
ARC
  8
3
  6
CONTINUOUS
 62
3
 10
3.05606059099653
 20
2.75590551177986
 30
0.0
 40
0.562499999953881
 50
254.999999993678
 51
7.18403335899018E-9
  0
ARC
  8
3
  6
CONTINUOUS
 62
3
 10
3.0560605909504
 20
2.7559055118504
 30
0.0
 40
0.5625
 50
359.999999999999
 51
180
  0
ARC
  8
3
  6
CONTINUOUS
 62
3
 10
3.05606059091571
 20
2.75590551181334
 30
0.0
 40
0.562499999965306
 50
179.999999996226
 51
255.000000002512
  0
ARC
  8
3
  6
CONTINUOUS
 62
3
 10
2.29228106344168
 20
1.23622047245142
 30
0.0
 40
0.0885826771566309
 50
149.999999997451
 51
180.000000000666
  0
ARC
  8
3
  6
CONTINUOUS
 62
3
 10
2.29228106345043
 20
1.23622047245039
 30
0.0
 40
0.088582677165375
 50
179.999999999999
 51
359.999999999999
  0
ARC
  8
3
  6
CONTINUOUS
 62
3
 10
2.29228106345305
 20
1.23622047245888
 30
0.0
 40
0.0885826771627507
 50
359.999999994513
 51
150.000000005301
  0
LINE
  8
3
  6
CONTINUOUS
 62
3
 10
2.0560605909504
 20
1.39904962215039
 30
0.0
 11
2.0560605909504
 21
2.30092289805039
 31
0.0
  0
ARC
  8
3
  6
CONTINUOUS
 62
3
 10
1.9576353941504
 20
2.30092289805039
 30
0.0
 40
0.0984251968503893
 50
2.05463832422543E-12
 51
45.0000000000021
  0
LINE
  8
3
  6
CONTINUOUS
 62
3
 10
2.0272325182504
 20
2.37052002215039
 30
0.0
 11
1.0844847380504
 21
3.31326780235039
 31
0.0
  0
ARC
  8
3
  6
CONTINUOUS
 62
3
 10
1.1540818622504
 20
3.38286492645039
 30
0.0
 40
0.0984251968504015
 50
135
 51
225
  0
LINE
  8
3
  6
CONTINUOUS
 62
3
 10
1.0844847380504
 20
3.45246205065039
 30
0.0
 11
2.3731264321504
 21
4.74110374465039
 31
0.0
  0
ARC
  8
3
  6
CONTINUOUS
 62
3
 10
2.4427235562504
 20
4.67150662055044
 30
0.0
 40
0.0984251968503366
 50
57.3827818309006
 51
135.000000000001
  0
LINE
  8
3
  6
CONTINUOUS
 62
3
 10
2.4957770925504
 20
4.75440922395039
 30
0.0
 11
4.0106889304504
 21
3.78494111435039
 31
0.0
  0
ARC
  8
3
  6
CONTINUOUS
 62
3
 10
3.95763539415039
 20
3.70203851095035
 30
0.0
 40
0.0984251968504165
 50
2.36641716649258E-11
 51
57.3827818309235
  0
LINE
  8
3
  6
CONTINUOUS
 62
3
 10
4.0560605909504
 20
3.70203851095039
 30
0.0
 11
4.0560605909504
 21
1.09842519685039
 31
0.0
  0
ARC
  8
3
  6
CONTINUOUS
 62
3
 10
3.95763539415041
 20
1.0984251968504
 30
0.0
 40
0.0984251968503976
 50
269.999999999997
 51
359.999999999998
  0
LINE
  8
3
  6
CONTINUOUS
 62
3
 10
3.9576353941504
 20
1.00000000005039
 30
0.0
 11
2.1544857878504
 21
1.00000000005039
 31
0.0
  0
ARC
  8
3
  6
CONTINUOUS
 62
3
 10
2.1544857878504
 20
1.0984251968504
 30
0.0
 40
0.0984251968503969
 50
180.000000000002
 51
270.000000000001
  0
LINE
  8
3
  6
CONTINUOUS
 62
3
 10
2.0560605909504
 20
1.09842519685039
 30
0.0
 11
2.0560605909504
 21
1.39904962215039
 31
0.0
  0
ENDSEC
  0
EOF
