  0
SECTION
  2
HEADER
  9
$ACADVER
  1
AC1015
  9
$ACADMAINTVER
 70
     6
  9
$DWGCODEPAGE
  3
ANSI_1252
  9
$INSBASE
 10
0.0
 20
0.0
 30
0.0
  9
$EXTMIN
 10
-19.8838058393
 20
10.471186909
 30
0.0
  9
$EXTMAX
 10
-13.1424101354
 20
16.5458396226
 30
0.0
  9
$LIMMIN
 10
0.0
 20
0.0
  9
$LIMMAX
 10
12.0
 20
9.0
  9
$ORTHOMODE
 70
     0
  9
$REGENMODE
 70
     1
  9
$FILLMODE
 70
     1
  9
$QTEXTMODE
 70
     0
  9
$MIRRTEXT
 70
     1
  9
$LTSCALE
 40
1.0
  9
$ATTMODE
 70
     1
  9
$TEXTSIZE
 40
0.1377952756
  9
$TRACEWID
 40
0.05
  9
$TEXTSTYLE
  7
Standard
  9
$CLAYER
  8
0
  9
$CELTYPE
  6
ByLayer
  9
$CECOLOR
 62
   256
  9
$CELTSCALE
 40
1.0
  9
$DISPSILH
 70
     0
  9
$DIMSCALE
 40
1.0
  9
$DIMASZ
 40
0.13
  9
$DIMEXO
 40
0.0
  9
$DIMDLI
 40
0.38
  9
$DIMRND
 40
0.0
  9
$DIMDLE
 40
0.0
  9
$DIMEXE
 40
0.0393700787
  9
$DIMTP
 40
0.0
  9
$DIMTM
 40
0.0
  9
$DIMTXT
 40
0.1377952756
  9
$DIMCEN
 40
0.09
  9
$DIMTSZ
 40
0.0
  9
$DIMTOL
 70
     0
  9
$DIMLIM
 70
     0
  9
$DIMTIH
 70
     1
  9
$DIMTOH
 70
     1
  9
$DIMSE1
 70
     0
  9
$DIMSE2
 70
     0
  9
$DIMTAD
 70
     1
  9
$DIMZIN
 70
     1
  9
$DIMBLK
  1

  9
$DIMASO
 70
     1
  9
$DIMSHO
 70
     1
  9
$DIMPOST
  1

  9
$DIMAPOST
  1

  9
$DIMALT
 70
     0
  9
$DIMALTD
 70
     2
  9
$DIMALTF
 40
25.4
  9
$DIMLFAC
 40
1.0
  9
$DIMTOFL
 70
     0
  9
$DIMTVP
 40
0.0
  9
$DIMTIX
 70
     0
  9
$DIMSOXD
 70
     0
  9
$DIMSAH
 70
     0
  9
$DIMBLK1
  1

  9
$DIMBLK2
  1

  9
$DIMSTYLE
  2
Standard
  9
$DIMCLRD
 70
     0
  9
$DIMCLRE
 70
     0
  9
$DIMCLRT
 70
     0
  9
$DIMTFAC
 40
1.0
  9
$DIMGAP
 40
0.06
  9
$DIMJUST
 70
     0
  9
$DIMSD1
 70
     0
  9
$DIMSD2
 70
     0
  9
$DIMTOLJ
 70
     1
  9
$DIMTZIN
 70
     1
  9
$DIMALTZ
 70
     0
  9
$DIMALTTZ
 70
     0
  9
$DIMUPT
 70
     0
  9
$DIMDEC
 70
     2
  9
$DIMTDEC
 70
     2
  9
$DIMALTU
 70
     2
  9
$DIMALTTD
 70
     2
  9
$DIMTXSTY
  7
Standard
  9
$DIMAUNIT
 70
     0
  9
$DIMADEC
 70
     2
  9
$DIMALTRND
 40
0.0
  9
$DIMAZIN
 70
     0
  9
$DIMDSEP
 70
    46
  9
$DIMATFIT
 70
     3
  9
$DIMFRAC
 70
     0
  9
$DIMLDRBLK
  1

  9
$DIMLUNIT
 70
     2
  9
$DIMLWD
 70
    -2
  9
$DIMLWE
 70
    -2
  9
$DIMTMOVE
 70
     0
  9
$LUNITS
 70
     2
  9
$LUPREC
 70
     2
  9
$SKETCHINC
 40
0.1
  9
$FILLETRAD
 40
0.0
  9
$AUNITS
 70
     0
  9
$AUPREC
 70
     2
  9
$MENU
  1
.
  9
$ELEVATION
 40
0.0
  9
$PELEVATION
 40
0.0
  9
$THICKNESS
 40
0.0
  9
$LIMCHECK
 70
     0
  9
$CHAMFERA
 40
0.0
  9
$CHAMFERB
 40
0.0
  9
$CHAMFERC
 40
0.0
  9
$CHAMFERD
 40
0.0
  9
$SKPOLY
 70
     0
  9
$TDCREATE
 40
2460815.845615
  9
$TDUCREATE
 40
2460816.012281667
  9
$TDUPDATE
 40
2460815.845653611
  9
$TDUUPDATE
 40
2460816.012320278
  9
$TDINDWG
 40
0.0000000116
  9
$TDUSRTIMER
 40
0.0000000116
  9
$USRTIMER
 70
     1
  9
$ANGBASE
 50
0.0
  9
$ANGDIR
 70
     0
  9
$PDMODE
 70
     0
  9
$PDSIZE
 40
-1.0
  9
$PLINEWID
 40
0.0
  9
$SPLFRAME
 70
     0
  9
$SPLINETYPE
 70
     6
  9
$SPLINESEGS
 70
     8
  9
$HANDSEED
  5
AA
  9
$SURFTAB1
 70
     6
  9
$SURFTAB2
 70
     6
  9
$SURFTYPE
 70
     6
  9
$SURFU
 70
     6
  9
$SURFV
 70
     6
  9
$UCSBASE
  2

  9
$UCSNAME
  2

  9
$UCSORG
 10
0.0
 20
0.0
 30
0.0
  9
$UCSXDIR
 10
1.0
 20
0.0
 30
0.0
  9
$UCSYDIR
 10
0.0
 20
1.0
 30
0.0
  9
$UCSORTHOREF
  2

  9
$UCSORTHOVIEW
 70
     0
  9
$UCSORGTOP
 10
0.0
 20
0.0
 30
0.0
  9
$UCSORGBOTTOM
 10
0.0
 20
0.0
 30
0.0
  9
$UCSORGLEFT
 10
0.0
 20
0.0
 30
0.0
  9
$UCSORGRIGHT
 10
0.0
 20
0.0
 30
0.0
  9
$UCSORGFRONT
 10
0.0
 20
0.0
 30
0.0
  9
$UCSORGBACK
 10
0.0
 20
0.0
 30
0.0
  9
$PUCSBASE
  2

  9
$PUCSNAME
  2

  9
$PUCSORG
 10
0.0
 20
0.0
 30
0.0
  9
$PUCSXDIR
 10
1.0
 20
0.0
 30
0.0
  9
$PUCSYDIR
 10
0.0
 20
1.0
 30
0.0
  9
$PUCSORTHOREF
  2

  9
$PUCSORTHOVIEW
 70
     0
  9
$PUCSORGTOP
 10
0.0
 20
0.0
 30
0.0
  9
$PUCSORGBOTTOM
 10
0.0
 20
0.0
 30
0.0
  9
$PUCSORGLEFT
 10
0.0
 20
0.0
 30
0.0
  9
$PUCSORGRIGHT
 10
0.0
 20
0.0
 30
0.0
  9
$PUCSORGFRONT
 10
0.0
 20
0.0
 30
0.0
  9
$PUCSORGBACK
 10
0.0
 20
0.0
 30
0.0
  9
$USERI1
 70
     0
  9
$USERI2
 70
     0
  9
$USERI3
 70
     0
  9
$USERI4
 70
     0
  9
$USERI5
 70
     0
  9
$USERR1
 40
0.0
  9
$USERR2
 40
0.0
  9
$USERR3
 40
0.0
  9
$USERR4
 40
0.0
  9
$USERR5
 40
0.0
  9
$WORLDVIEW
 70
     1
  9
$SHADEDGE
 70
     3
  9
$SHADEDIF
 70
    70
  9
$TILEMODE
 70
     1
  9
$MAXACTVP
 70
    64
  9
$PINSBASE
 10
0.0
 20
0.0
 30
0.0
  9
$PLIMCHECK
 70
     0
  9
$PEXTMIN
 10
1.0000000000E+20
 20
1.0000000000E+20
 30
1.0000000000E+20
  9
$PEXTMAX
 10
-1.0000000000E+20
 20
-1.0000000000E+20
 30
-1.0000000000E+20
  9
$PLIMMIN
 10
0.0
 20
0.0
  9
$PLIMMAX
 10
12.0
 20
9.0
  9
$UNITMODE
 70
     0
  9
$VISRETAIN
 70
     1
  9
$PLINEGEN
 70
     0
  9
$PSLTSCALE
 70
     1
  9
$TREEDEPTH
 70
  3020
  9
$CMLSTYLE
  2
Standard
  9
$CMLJUST
 70
     0
  9
$CMLSCALE
 40
1.0
  9
$PROXYGRAPHICS
 70
     1
  9
$MEASUREMENT
 70
     0
  9
$CELWEIGHT
370
    -1
  9
$ENDCAPS
280
     0
  9
$JOINSTYLE
280
     0
  9
$LWDISPLAY
290
     1
  9
$INSUNITS
 70
     1
  9
$HYPERLINKBASE
  1

  9
$STYLESHEET
  1

  9
$XEDIT
290
     1
  9
$CEPSNTYPE
380
     0
  9
$PSTYLEMODE
290
     1
  9
$FINGERPRINTGUID
  2
{e09d5e57-4c5f-4e84-a658-92f2b5983f1c}
  9
$VERSIONGUID
  2
{FAEB1C32-E019-11D5-929B-00C0DF256EC4}
  9
$EXTNAMES
290
     1
  9
$PSVPSCALE
 40
0.0
  9
$OLESTARTUP
290
     0
  0
ENDSEC
  0
SECTION
  2
CLASSES
  0
CLASS
  1
ACDBDICTIONARYWDFLT
  2
AcDbDictionaryWithDefault
  3
ObjectDBX Classes
 90
        0
280
     0
281
     0
  0
CLASS
  1
VISUALSTYLE
  2
AcDbVisualStyle
  3
ObjectDBX Classes
 90
     4095
280
     0
281
     0
  0
CLASS
  1
MATERIAL
  2
AcDbMaterial
  3
ObjectDBX Classes
 90
     1153
280
     0
281
     0
  0
CLASS
  1
SCALE
  2
AcDbScale
  3
ObjectDBX Classes
 90
     1153
280
     0
281
     0
  0
CLASS
  1
TABLESTYLE
  2
AcDbTableStyle
  3
ObjectDBX Classes
 90
     4095
280
     0
281
     0
  0
CLASS
  1
MLEADERSTYLE
  2
AcDbMLeaderStyle
  3
ACDB_MLEADERSTYLE_CLASS
 90
     4095
280
     0
281
     0
  0
CLASS
  1
SUN
  2
AcDbSun
  3
SCENEOE
 90
     1153
280
     0
281
     0
  0
CLASS
  1
ACDBPLACEHOLDER
  2
AcDbPlaceHolder
  3
ObjectDBX Classes
 90
        0
280
     0
281
     0
  0
CLASS
  1
LAYOUT
  2
AcDbLayout
  3
ObjectDBX Classes
 90
        0
280
     0
281
     0
  0
ENDSEC
  0
SECTION
  2
TABLES
  0
TABLE
  2
VPORT
  5
8
330
0
100
AcDbSymbolTable
 70
     1
  0
VPORT
  5
29
330
8
100
AcDbSymbolTableRecord
100
AcDbViewportTableRecord
  2
*Active
 70
     0
 10
0.0
 20
0.0
 11
1.0
 21
1.0
 12
-16.5131079874
 22
13.5085132658
 13
0.0
 23
0.0
 14
0.5
 24
0.5
 15
0.5
 25
0.5
 16
0.0
 26
0.0
 36
1.0
 17
0.0
 27
0.0
 37
0.0
 40
6.1961457678
 41
1.1097582071
 42
50.0
 43
0.0
 44
0.0
 50
0.0
 51
0.0
 71
     0
 72
   100
 73
     1
 74
     3
 75
     0
 76
     0
 77
     0
 78
     0
281
     0
 65
     1
110
0.0
120
0.0
130
0.0
111
1.0
121
0.0
131
0.0
112
0.0
122
1.0
132
0.0
 79
     0
146
0.0
  0
ENDTAB
  0
TABLE
  2
LTYPE
  5
5
330
0
100
AcDbSymbolTable
 70
     6
  0
LTYPE
  5
14
330
5
100
AcDbSymbolTableRecord
100
AcDbLinetypeTableRecord
  2
ByBlock
 70
     0
  3

 72
    65
 73
     0
 40
0.0
  0
LTYPE
  5
15
330
5
100
AcDbSymbolTableRecord
100
AcDbLinetypeTableRecord
  2
ByLayer
 70
     0
  3

 72
    65
 73
     0
 40
0.0
  0
LTYPE
  5
16
330
5
100
AcDbSymbolTableRecord
100
AcDbLinetypeTableRecord
  2
Continuous
 70
     0
  3
Solid line
 72
    65
 73
     0
 40
0.0
  0
LTYPE
  5
5E
330
5
100
AcDbSymbolTableRecord
100
AcDbLinetypeTableRecord
  2
HIDDEN
 70
     0
  3
Hidden __ __ __ __ __ __ __ __ __ __ __ __ __ __
 72
    65
 73
     2
 40
0.075
 49
0.05
 74
     0
 49
-0.025
 74
     0
  0
LTYPE
  5
5F
330
5
100
AcDbSymbolTableRecord
100
AcDbLinetypeTableRecord
  2
PHANTOM
 70
     0
  3
Phantom ______  __  __  ______  __  __  ______
 72
    65
 73
     6
 40
0.5
 49
0.25
 74
     0
 49
-0.05
 74
     0
 49
0.05
 74
     0
 49
-0.05
 74
     0
 49
0.05
 74
     0
 49
-0.05
 74
     0
  0
LTYPE
  5
60
330
5
100
AcDbSymbolTableRecord
100
AcDbLinetypeTableRecord
  2
CENTER
 70
     0
  3
Center ____ _ ____ _ ____ _ ____ _ ____ _ ____
 72
    65
 73
     4
 40
0.4
 49
0.25
 74
     0
 49
-0.05
 74
     0
 49
0.05
 74
     0
 49
-0.05
 74
     0
  0
LTYPE
  5
61
330
5
100
AcDbSymbolTableRecord
100
AcDbLinetypeTableRecord
  2
CENTERX2
 70
     0
  3
Center (2x) ________  __  ________  __  _____
 72
    65
 73
     4
 40
0.8
 49
0.5
 74
     0
 49
-0.1
 74
     0
 49
0.1
 74
     0
 49
-0.1
 74
     0
  0
LTYPE
  5
62
330
5
100
AcDbSymbolTableRecord
100
AcDbLinetypeTableRecord
  2
DOT2
 70
     0
  3
Dot (.5x) ........................................
 72
    65
 73
     2
 40
0.025
 49
0.0
 74
     0
 49
-0.025
 74
     0
  0
ENDTAB
  0
TABLE
  2
LAYER
  5
2
330
0
100
AcDbSymbolTable
 70
     1
  0
LAYER
  5
10
330
2
100
AcDbSymbolTableRecord
100
AcDbLayerTableRecord
  2
0
 70
     0
 62
     7
  6
Continuous
370
    -3
390
F
  0
ENDTAB
  0
TABLE
  2
STYLE
  5
3
330
0
100
AcDbSymbolTable
 70
     2
  0
STYLE
  5
11
330
3
100
AcDbSymbolTableRecord
100
AcDbTextStyleTableRecord
  2
Standard
 70
     0
 40
0.0
 41
1.0
 50
0.0
 71
     0
 42
0.1377952756
  3
txt
  4

  0
STYLE
  5
A6
330
3
100
AcDbSymbolTableRecord
100
AcDbTextStyleTableRecord
  2
SLDTEXTSTYLE0
 70
     0
 40
0.0
 41
0.7
 50
0.0
 71
     0
 42
0.1377952756
  3
TXT
  4

  0
ENDTAB
  0
TABLE
  2
VIEW
  5
6
330
0
100
AcDbSymbolTable
 70
     0
  0
ENDTAB
  0
TABLE
  2
UCS
  5
7
330
0
100
AcDbSymbolTable
 70
     0
  0
ENDTAB
  0
TABLE
  2
APPID
  5
9
330
0
100
AcDbSymbolTable
 70
     1
  0
APPID
  5
12
330
9
100
AcDbSymbolTableRecord
100
AcDbRegAppTableRecord
  2
ACAD
 70
     0
  0
ENDTAB
  0
TABLE
  2
DIMSTYLE
  5
A
330
0
100
AcDbSymbolTable
 70
     1
100
AcDbDimStyleTable
  0
DIMSTYLE
105
27
330
A
100
AcDbSymbolTableRecord
100
AcDbDimStyleTableRecord
  2
Standard
 70
     0
178
     0
340
11
  0
ENDTAB
  0
TABLE
  2
BLOCK_RECORD
  5
1
330
0
100
AcDbSymbolTable
 70
     1
  0
BLOCK_RECORD
  5
1F
330
1
100
AcDbSymbolTableRecord
100
AcDbBlockTableRecord
  2
*Model_Space
340
22
  0
BLOCK_RECORD
  5
1B
330
1
100
AcDbSymbolTableRecord
100
AcDbBlockTableRecord
  2
*Paper_Space
340
1E
  0
BLOCK_RECORD
  5
23
330
1
100
AcDbSymbolTableRecord
100
AcDbBlockTableRecord
  2
*Paper_Space0
340
26
  0
ENDTAB
  0
ENDSEC
  0
SECTION
  2
BLOCKS
  0
BLOCK
  5
20
330
1F
100
AcDbEntity
  8
0
100
AcDbBlockBegin
  2
*Model_Space
 70
     0
 10
0.0
 20
0.0
 30
0.0
  3
*Model_Space
  1

  0
ENDBLK
  5
21
330
1F
100
AcDbEntity
  8
0
100
AcDbBlockEnd
  0
BLOCK
  5
1C
330
1B
100
AcDbEntity
 67
     1
  8
0
100
AcDbBlockBegin
  2
*Paper_Space
 70
     0
 10
0.0
 20
0.0
 30
0.0
  3
*Paper_Space
  1

  0
ENDBLK
  5
1D
330
1B
100
AcDbEntity
 67
     1
  8
0
100
AcDbBlockEnd
  0
BLOCK
  5
24
330
23
100
AcDbEntity
  8
0
100
AcDbBlockBegin
  2
*Paper_Space0
 70
     0
 10
0.0
 20
0.0
 30
0.0
  3
*Paper_Space0
  1

  0
ENDBLK
  5
25
330
23
100
AcDbEntity
  8
0
100
AcDbBlockEnd
  0
ENDSEC
  0
SECTION
  2
ENTITIES
  0
LINE
  5
63
330
1F
100
AcDbEntity
  8
0
  6
Continuous
 62
     7
370
    25
100
AcDbLine
 10
-14.3163082146
 20
12.0718236188
 30
0.0
 11
-14.3673006646
 21
12.0208475662
 31
0.0
  0
SPLINE
  5
64
330
1F
100
AcDbEntity
  8
0
  6
Continuous
 62
     7
370
    25
100
AcDbSpline
210
0.0
220
0.0
230
1.0
 70
     8
 71
     3
 72
    15
 73
    11
 74
     0
 42
0.00000001
 43
0.00000001
 40
0.0
 40
0.0
 40
0.0
 40
0.0
 40
0.0889748945567489
 40
0.1958193264700767
 40
0.3237623624947915
 40
0.4698267974182571
 40
0.6192520258302178
 40
0.7569043005849215
 40
0.8843245376880141
 40
1.0
 40
1.0
 40
1.0
 40
1.0
 10
-14.36730066462457
 20
12.02084756622378
 30
0.0
 10
-14.37171038498661
 20
12.02474153438056
 30
0.0
 10
-14.38141546500405
 20
12.03331152736065
 30
0.0
 10
-14.39843862970099
 20
12.04629883728698
 30
0.0
 10
-14.41855532353387
 20
12.06143206408125
 30
0.0
 10
-14.44144154063179
 20
12.0775430601444
 30
0.0
 10
-14.46533396373364
 20
12.0933704004063
 30
0.0
 10
-14.48947358156941
 20
12.10635301860624
 30
0.0
 10
-14.51231820545463
 20
12.11707764885438
 30
0.0
 10
-14.52775959801548
 20
12.12160105618982
 30
0.0
 10
-14.53510728136616
 20
12.12375348930983
 30
0.0
  0
SPLINE
  5
65
330
1F
100
AcDbEntity
  8
0
  6
Continuous
 62
     7
370
    25
100
AcDbSpline
210
0.0
220
0.0
230
1.0
 70
     8
 71
     3
 72
    15
 73
    11
 74
     0
 42
0.00000001
 43
0.00000001
 40
0.0
 40
0.0
 40
0.0
 40
0.0
 40
0.0787929995061381
 40
0.1659659531415062
 40
0.2680715949707833
 40
0.3861390186257821
 40
0.5195009725080598
 40
0.6663937746332581
 40
0.8260405130941585
 40
1.0
 40
1.0
 40
1.0
 40
1.0
 10
-14.53510728136616
 20
12.12375348930983
 30
0.0
 10
-14.54280127041767
 20
12.12478778239759
 30
0.0
 10
-14.5590075353701
 20
12.12696636982559
 30
0.0
 10
-14.58505554877128
 20
12.12132456674873
 30
0.0
 10
-14.61305268196603
 20
12.11019493694246
 30
0.0
 10
-14.64289580772965
 20
12.09243739661525
 30
0.0
 10
-14.67454175529401
 20
12.06962998472616
 30
0.0
 10
-14.70763000051407
 20
12.04205310570074
 30
0.0
 10
-14.74318839536661
 20
12.01124782064406
 30
0.0
 10
-14.76641076343994
 20
11.98827939447409
 30
0.0
 10
-14.77852010351697
 20
11.97630247279894
 30
0.0
  0
LINE
  5
66
330
1F
100
AcDbEntity
  8
0
  6
Continuous
 62
     7
370
    25
100
AcDbLine
 10
-14.7785201035
 20
11.9763024728
 30
0.0
 11
-15.2231864087
 21
11.5317791569
 31
0.0
  0
SPLINE
  5
67
330
1F
100
AcDbEntity
  8
0
  6
Continuous
 62
     7
370
    25
100
AcDbSpline
210
0.0
220
0.0
230
1.0
 70
     8
 71
     3
 72
    15
 73
    11
 74
     0
 42
0.00000001
 43
0.00000001
 40
0.0
 40
0.0
 40
0.0
 40
0.0
 40
0.1370962233469389
 40
0.2661723295534211
 40
0.3912418687309984
 40
0.5136660936121537
 40
0.6349789060133118
 40
0.7554456513266125
 40
0.8765830353850296
 40
1.0
 40
1.0
 40
1.0
 40
1.0
 10
-15.22318640871283
 20
11.53177915694584
 30
0.0
 10
-15.23741505101237
 20
11.51842403579208
 30
0.0
 10
-15.26503996127461
 20
11.49249506691037
 30
0.0
 10
-15.31130286363501
 20
11.46118223904499
 30
0.0
 10
-15.35952700742724
 20
11.43754656671472
 30
0.0
 10
-15.40971856425509
 20
11.42170993523795
 30
0.0
 10
-15.46092058872891
 20
11.41316960254793
 30
0.0
 10
-15.5124921154879
 20
11.41013469519366
 30
0.0
 10
-15.56450394491104
 20
11.41255902621199
 30
0.0
 10
-15.59866457607358
 20
11.41922585370066
 30
0.0
 10
-15.61590410352538
 20
11.42259033941406
 30
0.0
  0
SPLINE
  5
68
330
1F
100
AcDbEntity
  8
0
  6
Continuous
 62
     7
370
    25
100
AcDbSpline
210
0.0
220
0.0
230
1.0
 70
     8
 71
     3
 72
    15
 73
    11
 74
     0
 42
0.00000001
 43
0.00000001
 40
0.0
 40
0.0
 40
0.0
 40
0.0
 40
0.1306276502905027
 40
0.2606305009453151
 40
0.3888511544010319
 40
0.5170994138539519
 40
0.6432323990955563
 40
0.7658358249651613
 40
0.8842482762064805
 40
1.0
 40
1.0
 40
1.0
 40
1.0
 10
-15.61590410352538
 20
11.42259033941406
 30
0.0
 10
-15.63258228002929
 20
11.42685259262109
 30
0.0
 10
-15.66585886035053
 20
11.43535671243059
 30
0.0
 10
-15.71392414644395
 20
11.45325774494447
 30
0.0
 10
-15.76038402450295
 20
11.47414641210878
 30
0.0
 10
-15.80439060311606
 20
11.49880549152156
 30
0.0
 10
-15.84610397356751
 20
11.52577685079117
 30
0.0
 10
-15.88519327556307
 20
11.55426810695241
 30
0.0
 10
-15.92164158663374
 20
11.5839937370944
 30
0.0
 10
-15.94386978095719
 20
11.60538569370429
 30
0.0
 10
-15.95485759243336
 20
11.61596013726527
 30
0.0
  0
SPLINE
  5
69
330
1F
100
AcDbEntity
  8
0
  6
Continuous
 62
     7
370
    25
100
AcDbSpline
210
0.0
220
0.0
230
1.0
 70
     8
 71
     3
 72
    15
 73
    11
 74
     0
 42
0.00000001
 43
0.00000001
 40
0.0
 40
0.0
 40
0.0
 40
0.0
 40
0.1484258668262334
 40
0.2896635262442873
 40
0.4235839183048677
 40
0.5513990371794637
 40
0.6725734387658753
 40
0.7873059615304281
 40
0.8958652019238845
 40
1.0
 40
1.0
 40
1.0
 40
1.0
 10
-15.95485759243336
 20
11.61596013726527
 30
0.0
 10
-15.97105830159519
 20
11.63275595415008
 30
0.0
 10
-16.00267512583087
 20
11.66553417299454
 30
0.0
 10
-16.04522878829826
 20
11.71683358399063
 30
0.0
 10
-16.08189656969883
 20
11.76856562170282
 30
0.0
 10
-16.11246055277806
 20
11.82048440736666
 30
0.0
 10
-16.13782761379436
 20
11.87178894071157
 30
0.0
 10
-16.15760651627839
 20
11.92224530725045
 30
0.0
 10
-16.17233471847728
 20
11.97168333898211
 30
0.0
 10
-16.17786987977294
 20
12.00468036635068
 30
0.0
 10
-16.18057988945629
 20
12.02083567943263
 30
0.0
  0
SPLINE
  5
6A
330
1F
100
AcDbEntity
  8
0
  6
Continuous
 62
     7
370
    25
100
AcDbSpline
210
0.0
220
0.0
230
1.0
 70
     8
 71
     3
 72
    15
 73
    11
 74
     0
 42
0.00000001
 43
0.00000001
 40
0.0
 40
0.0
 40
0.0
 40
0.0
 40
0.1375580297977077
 40
0.2684003548100294
 40
0.3957394889912213
 40
0.5206768326700281
 40
0.6429488947746415
 40
0.7623619301895309
 40
0.8806676399926463
 40
1.0
 40
1.0
 40
1.0
 40
1.0
 10
-16.18057988945629
 20
12.02083567943263
 30
0.0
 10
-16.1822860938564
 20
12.03629577422024
 30
0.0
 10
-16.18561520424742
 20
12.06646118828219
 30
0.0
 10
-16.18389515587318
 20
12.11123254032486
 30
0.0
 10
-16.17885958661963
 20
12.15427030280595
 30
0.0
 10
-16.16810419632001
 20
12.19532738684769
 30
0.0
 10
-16.15276385136799
 20
12.23385301715236
 30
0.0
 10
-16.13406091240096
 20
12.2700463597825
 30
0.0
 10
-16.1107129115814
 20
12.30309938215594
 30
0.0
 10
-16.09254171278657
 20
12.3228680752651
 30
0.0
 10
-16.08341686154502
 20
12.33279512443217
 30
0.0
  0
LINE
  5
6B
330
1F
100
AcDbEntity
  8
0
  6
Continuous
 62
     7
370
    25
100
AcDbLine
 10
-16.0834168615
 20
12.3327951244
 30
0.0
 11
-15.4784885706
 21
12.9375288913
 31
0.0
  0
SPLINE
  5
6C
330
1F
100
AcDbEntity
  8
0
  6
Continuous
 62
     7
370
    25
100
AcDbSpline
210
0.0
220
0.0
230
1.0
 70
     8
 71
     3
 72
    13
 73
     9
 74
     0
 42
0.00000001
 43
0.00000001
 40
0.0
 40
0.0
 40
0.0
 40
0.0
 40
0.2515765116878849
 40
0.4701139543045622
 40
0.5785894146067725
 40
0.7012682467962743
 40
0.8416786808660858
 40
1.0
 40
1.0
 40
1.0
 40
1.0
 10
-15.47848857058572
 20
12.93752889132312
 30
0.0
 10
-15.47099203997303
 20
12.94565655502167
 30
0.0
 10
-15.45698348398243
 20
12.96084449166547
 30
0.0
 10
-15.44638474592018
 20
12.98428916377611
 30
0.0
 10
-15.44226114976871
 20
13.00363753100385
 30
0.0
 10
-15.44308564248614
 20
13.01997436058293
 30
0.0
 10
-15.4456836481124
 20
13.0382374811246
 30
0.0
 10
-15.44945895134068
 20
13.05076102744338
 30
0.0
 10
-15.45145977977898
 20
13.05739823407495
 30
0.0
  0
SPLINE
  5
6D
330
1F
100
AcDbEntity
  8
0
  6
Continuous
 62
     7
370
    25
100
AcDbSpline
210
0.0
220
0.0
230
1.0
 70
     8
 71
     3
 72
    11
 73
     7
 74
     0
 42
0.00000001
 43
0.00000001
 40
0.0
 40
0.0
 40
0.0
 40
0.0
 40
0.2302869943660055
 40
0.508327630345267
 40
0.7821482058354617
 40
1.0
 40
1.0
 40
1.0
 40
1.0
 10
-15.45145977977898
 20
13.05739823407495
 30
0.0
 10
-15.45559925680835
 20
13.06807253315227
 30
0.0
 10
-15.46473659673933
 20
13.09163461563337
 30
0.0
 10
-15.48576459538696
 20
13.12444716954278
 30
0.0
 10
-15.50737808021082
 20
13.15590371761531
 30
0.0
 10
-15.52266147576253
 20
13.17492569591482
 30
0.0
 10
-15.52943329241801
 20
13.18335401598499
 30
0.0
  0
LINE
  5
6E
330
1F
100
AcDbEntity
  8
0
  6
Continuous
 62
     7
370
    25
100
AcDbLine
 10
-15.5294332924
 20
13.183354016
 30
0.0
 11
-15.4784408424
 21
13.2343300686
 31
0.0
  0
LINE
  5
6F
330
1F
100
AcDbEntity
  8
0
  6
Continuous
 62
     7
370
    25
100
AcDbLine
 10
-15.4784408424
 20
13.2343300686
 30
0.0
 11
-15.0075192136
 21
12.7632569589
 31
0.0
  0
LINE
  5
70
330
1F
100
AcDbEntity
  8
0
  6
Continuous
 62
     7
370
    25
100
AcDbLine
 10
-15.0075192136
 20
12.7632569589
 30
0.0
 11
-15.0585116636
 21
12.7122809063
 31
0.0
  0
SPLINE
  5
71
330
1F
100
AcDbEntity
  8
0
  6
Continuous
 62
     7
370
    25
100
AcDbSpline
210
0.0
220
0.0
230
1.0
 70
     8
 71
     3
 72
    15
 73
    11
 74
     0
 42
0.00000001
 43
0.00000001
 40
0.0
 40
0.0
 40
0.0
 40
0.0
 40
0.1117396017895034
 40
0.2352042552067337
 40
0.3761524452036581
 40
0.5290881809117121
 40
0.6769361073123862
 40
0.8048399235450463
 40
0.9123442446206431
 40
1.0
 40
1.0
 40
1.0
 40
1.0
 10
-15.0585116636098
 20
12.71228090631673
 30
0.0
 10
-15.06272769797397
 20
12.7160619719868
 30
0.0
 10
-15.07160216330828
 20
12.7240208578301
 30
0.0
 10
-15.08647606676938
 20
12.73595220341039
 30
0.0
 10
-15.10324114644235
 20
12.74884254420513
 30
0.0
 10
-15.12133855943346
 20
12.76202584633823
 30
0.0
 10
-15.13934267064765
 20
12.77417874170781
 30
0.0
 10
-15.15522997881319
 20
12.78536423717023
 30
0.0
 10
-15.16929181559348
 20
12.79376381970472
 30
0.0
 10
-15.17786067030254
 20
12.79869939884339
 30
0.0
 10
-15.18170935414147
 20
12.80091620427559
 30
0.0
  0
SPLINE
  5
72
330
1F
100
AcDbEntity
  8
0
  6
Continuous
 62
     7
370
    25
100
AcDbSpline
210
0.0
220
0.0
230
1.0
 70
     8
 71
     3
 72
    13
 73
     9
 74
     0
 42
0.00000001
 43
0.00000001
 40
0.0
 40
0.0
 40
0.0
 40
0.0
 40
0.1448221733833854
 40
0.2752152119145916
 40
0.3974972924913564
 40
0.5161336148079211
 40
0.7524395849284826
 40
0.9999999999999999
 40
0.9999999999999999
 40
0.9999999999999999
 40
0.9999999999999999
 10
-15.18170935414147
 20
12.80091620427559
 30
0.0
 10
-15.18750378903669
 20
12.80353005728124
 30
0.0
 10
-15.19851533920442
 20
12.80849733606223
 30
0.0
 10
-15.21555254782821
 20
12.81277539838779
 30
0.0
 10
-15.23202105498782
 20
12.81284107513973
 30
0.0
 10
-15.25243423012063
 20
12.80762979745255
 30
0.0
 10
-15.27605433095654
 20
12.79495665834283
 30
0.0
 10
-15.29194162992903
 20
12.78084314027491
 30
0.0
 10
-15.30007004398787
 20
12.77362224521391
 30
0.0
  0
LINE
  5
73
330
1F
100
AcDbEntity
  8
0
  6
Continuous
 62
     7
370
    25
100
AcDbLine
 10
-15.300070044
 20
12.7736222452
 30
0.0
 11
-15.865236365
 21
12.2086376622
 31
0.0
  0
SPLINE
  5
74
330
1F
100
AcDbEntity
  8
0
  6
Continuous
 62
     7
370
    25
100
AcDbSpline
210
0.0
220
0.0
230
1.0
 70
     8
 71
     3
 72
    13
 73
     9
 74
     0
 42
0.00000001
 43
0.00000001
 40
0.0
 40
0.0
 40
0.0
 40
0.0
 40
0.23411625857422
 40
0.4822197489729846
 40
0.6099478863172727
 40
0.7378143025126447
 40
0.8668473670910202
 40
1.0
 40
1.0
 40
1.0
 40
1.0
 10
-15.8652363649945
 20
12.20863766219788
 30
0.0
 10
-15.8788035435084
 20
12.19403855015752
 30
0.0
 10
-15.90674846906415
 20
12.16396810487443
 30
0.0
 10
-15.93705752097494
 20
12.12159950529345
 30
0.0
 10
-15.95805536233106
 20
12.08418058830768
 30
0.0
 10
-15.970859861257
 20
12.05399414781053
 30
0.0
 10
-15.98043435319352
 20
12.02212692379164
 30
0.0
 10
-15.98416246962912
 20
12.00011707741401
 30
0.0
 10
-15.98605581668789
 20
11.98893924039548
 30
0.0
  0
SPLINE
  5
75
330
1F
100
AcDbEntity
  8
0
  6
Continuous
 62
     7
370
    25
100
AcDbSpline
210
0.0
220
0.0
230
1.0
 70
     8
 71
     3
 72
    15
 73
    11
 74
     0
 42
0.00000001
 43
0.00000001
 40
0.0
 40
0.0
 40
0.0
 40
0.0
 40
0.0986175554293173
 40
0.1998323593591296
 40
0.3052514083934351
 40
0.4166969852261661
 40
0.5384806824694813
 40
0.6753502593995749
 40
0.8281301993024739
 40
1.0
 40
1.0
 40
1.0
 40
1.0
 10
-15.98605581668789
 20
11.98893924039548
 30
0.0
 10
-15.98694553927569
 20
11.97700997326316
 30
0.0
 10
-15.98874841669564
 20
11.95283726297746
 30
0.0
 10
-15.98621784031798
 20
11.9157728454786
 30
0.0
 10
-15.97849854058049
 20
11.87795047784328
 30
0.0
 10
-15.96722905567937
 20
11.83839922862932
 30
0.0
 10
-15.94854774415723
 20
11.79741225610969
 30
0.0
 10
-15.92165095243126
 20
11.75529291929851
 30
0.0
 10
-15.88697135291395
 20
11.71128421303469
 30
0.0
 10
-15.85972044979511
 20
11.68287634791993
 30
0.0
 10
-15.84529380254384
 20
11.66783720417539
 30
0.0
  0
SPLINE
  5
76
330
1F
100
AcDbEntity
  8
0
  6
Continuous
 62
     7
370
    25
100
AcDbSpline
210
0.0
220
0.0
230
1.0
 70
     8
 71
     3
 72
    15
 73
    11
 74
     0
 42
0.00000001
 43
0.00000001
 40
0.0
 40
0.0
 40
0.0
 40
0.0
 40
0.1582016465331242
 40
0.3047952311514586
 40
0.4393633187924186
 40
0.5646236186368254
 40
0.6825423120059191
 40
0.7927580160533042
 40
0.8982820331798936
 40
1.0
 40
1.0
 40
1.0
 40
1.0
 10
-15.84529380254384
 20
11.66783720417539
 30
0.0
 10
-15.83094959153028
 20
11.654132920459
 30
0.0
 10
-15.80331367744612
 20
11.6277299062386
 30
0.0
 10
-15.75993606140486
 20
11.59364699867819
 30
0.0
 10
-15.71693320078164
 20
11.56614490524199
 30
0.0
 10
-15.67410961003007
 20
11.54567649400623
 30
0.0
 10
-15.63218845616797
 20
11.53110792725708
 30
0.0
 10
-15.59143576012131
 20
11.52146359362333
 30
0.0
 10
-15.55174125849062
 20
11.51679227798156
 30
0.0
 10
-15.52576117438598
 20
11.51812305412057
 30
0.0
 10
-15.51300969766966
 20
11.51877622217356
 30
0.0
  0
SPLINE
  5
77
330
1F
100
AcDbEntity
  8
0
  6
Continuous
 62
     7
370
    25
100
AcDbSpline
210
0.0
220
0.0
230
1.0
 70
     8
 71
     3
 72
    15
 73
    11
 74
     0
 42
0.00000001
 43
0.00000001
 40
0.0
 40
0.0
 40
0.0
 40
0.0
 40
0.1360331860268345
 40
0.2680774224101021
 40
0.3941569375645504
 40
0.518605082221335
 40
0.6404102318992029
 40
0.7614892811081462
 40
0.8802986443882211
 40
1.0
 40
1.0
 40
1.0
 40
1.0
 10
-15.51300969766966
 20
11.51877622217356
 30
0.0
 10
-15.50144898350648
 20
11.52009709919966
 30
0.0
 10
-15.4786665541258
 20
11.52270012070362
 30
0.0
 10
-15.44565441102087
 20
11.52986187017334
 30
0.0
 10
-15.41461745923019
 20
11.54038535318621
 30
0.0
 10
-15.38555107733465
 20
11.5534676667832
 30
0.0
 10
-15.35803536027144
 20
11.56870241750684
 30
0.0
 10
-15.33240459625852
 20
11.58604867164484
 30
0.0
 10
-15.30801636677489
 20
11.60485441236715
 30
0.0
 10
-15.29335114574217
 20
11.61904765688167
 30
0.0
 10
-15.28599111242326
 20
11.62617081938276
 30
0.0
  0
LINE
  5
78
330
1F
100
AcDbEntity
  8
0
  6
Continuous
 62
     7
370
    25
100
AcDbLine
 10
-15.2859911124
 20
11.6261708194
 30
0.0
 11
-14.8665175057
 21
12.0455095378
 31
0.0
  0
SPLINE
  5
79
330
1F
100
AcDbEntity
  8
0
  6
Continuous
 62
     7
370
    25
100
AcDbSpline
210
0.0
220
0.0
230
1.0
 70
     8
 71
     3
 72
    15
 73
    11
 74
     0
 42
0.00000001
 43
0.00000001
 40
0.0
 40
0.0
 40
0.0
 40
0.0
 40
0.1821912015816228
 40
0.3466191944861303
 40
0.4960679047001519
 40
0.6281798333406861
 40
0.7438646614203787
 40
0.8422047206789722
 40
0.9262272502374949
 40
1.0
 40
1.0
 40
1.0
 40
1.0
 10
-14.86651750574702
 20
12.04550953781893
 30
0.0
 10
-14.85396902697885
 20
12.0584585021032
 30
0.0
 10
-14.83009551626652
 20
12.08309393746277
 30
0.0
 10
-14.7975416873189
 20
12.11988310740531
 30
0.0
 10
-14.77060534393289
 20
12.15489366511477
 30
0.0
 10
-14.74879375478823
 20
12.18764142948148
 30
0.0
 10
-14.73249007860423
 20
12.21786323732467
 30
0.0
 10
-14.72168911499218
 20
12.24534729481505
 30
0.0
 10
-14.71655817964738
 20
12.27055034960967
 30
0.0
 10
-14.71842035091143
 20
12.28613907028892
 30
0.0
 10
-14.7192909567703
 20
12.29342713869462
 30
0.0
  0
SPLINE
  5
7A
330
1F
100
AcDbEntity
  8
0
  6
Continuous
 62
     7
370
    25
100
AcDbSpline
210
0.0
220
0.0
230
1.0
 70
     8
 71
     3
 72
    15
 73
    11
 74
     0
 42
0.00000001
 43
0.00000001
 40
0.0
 40
0.0
 40
0.0
 40
0.0
 40
0.1114702765663549
 40
0.2348391306550305
 40
0.3720115296507211
 40
0.5220420062503729
 40
0.6708188830257454
 40
0.7982609058943103
 40
0.9091270491900812
 40
1.0
 40
1.0
 40
1.0
 40
1.0
 10
-14.7192909567703
 20
12.29342713869462
 30
0.0
 10
-14.72132042140108
 20
12.30138246621927
 30
0.0
 10
-14.72559598009051
 20
12.31814229007109
 30
0.0
 10
-14.73647713958131
 20
12.34333020873722
 30
0.0
 10
-14.74992316987858
 20
12.37038513832099
 30
0.0
 10
-14.76704899335013
 20
12.3975414919132
 30
0.0
 10
-14.78450247917703
 20
12.42357185946443
 30
0.0
 10
-14.80060297493107
 20
12.44706015544796
 30
0.0
 10
-14.81533893397578
 20
12.46628391062545
 30
0.0
 10
-14.82483978743163
 20
12.47768105949782
 30
0.0
 10
-14.82911942689653
 20
12.48281488124637
 30
0.0
  0
LINE
  5
7B
330
1F
100
AcDbEntity
  8
0
  6
Continuous
 62
     7
370
    25
100
AcDbLine
 10
-14.8291194269
 20
12.4828148812
 30
0.0
 11
-14.7781269769
 21
12.5337909338
 31
0.0
  0
LINE
  5
7C
330
1F
100
AcDbEntity
  8
0
  6
Continuous
 62
     7
370
    25
100
AcDbLine
 10
-14.7781269769
 20
12.5337909338
 30
0.0
 11
-14.3163082146
 21
12.0718236188
 31
0.0
  0
ARC
  5
7D
330
1F
100
AcDbEntity
  8
0
  6
Continuous
 62
     7
370
    25
100
AcDbCircle
 10
-13.2408353323
 20
12.5207472233
 30
0.0
 40
0.0984251968503952
100
AcDbArc
 50
315.0
 51
53.258920504
  0
LINE
  5
7E
330
1F
100
AcDbEntity
  8
0
  6
Continuous
 62
     7
370
    25
100
AcDbLine
 10
-18.4421105779
 20
16.5262871577
 30
0.0
 11
-13.1819573949
 21
12.5996199553
 31
0.0
  0
ARC
  5
7F
330
1F
100
AcDbEntity
  8
0
  6
Continuous
 62
     7
370
    25
100
AcDbCircle
 10
-18.5009885154
 20
16.4474144257
 30
0.0
 40
0.0984251968503964
100
AcDbArc
 50
53.258920504
 51
135.0
  0
LINE
  5
80
330
1F
100
AcDbEntity
  8
0
  6
Continuous
 62
     7
370
    25
100
AcDbLine
 10
-19.8549777666
 20
15.2326194227
 30
0.0
 11
-18.5705856395
 21
16.5170115498
 31
0.0
  0
ARC
  5
81
330
1F
100
AcDbEntity
  8
0
  6
Continuous
 62
     7
370
    25
100
AcDbCircle
 10
-19.7853806425
 20
15.1630222986
 30
0.0
 40
0.098425196850394
100
AcDbArc
 50
135.0
 51
225.0
  0
LINE
  5
82
330
1F
100
AcDbEntity
  8
0
  6
Continuous
 62
     7
370
    25
100
AcDbLine
 10
-15.2615675739
 20
10.5000149817
 30
0.0
 11
-19.8549777666
 21
15.0934251744
 31
0.0
  0
ARC
  5
83
330
1F
100
AcDbEntity
  8
0
  6
Continuous
 62
     7
370
    25
100
AcDbCircle
 10
-15.1919704497
 20
10.5696121058
 30
0.0
 40
0.0984251968503965
100
AcDbArc
 50
225.0
 51
315.0
  0
LINE
  5
84
330
1F
100
AcDbEntity
  8
0
  6
Continuous
 62
     7
370
    25
100
AcDbLine
 10
-13.1712382082
 20
12.4511500991
 30
0.0
 11
-15.1223733256
 21
10.5000149817
 31
0.0
  0
LINE
  5
85
330
1F
100
AcDbEntity
  8
0
  6
Continuous
 62
     7
370
    25
100
AcDbLine
 10
-15.5492978914
 20
13.3050089026
 30
0.0
 11
-15.6002903414
 21
13.25403285
 31
0.0
  0
SPLINE
  5
86
330
1F
100
AcDbEntity
  8
0
  6
Continuous
 62
     7
370
    25
100
AcDbSpline
210
0.0
220
0.0
230
1.0
 70
     8
 71
     3
 72
    15
 73
    11
 74
     0
 42
0.00000001
 43
0.00000001
 40
0.0
 40
0.0
 40
0.0
 40
0.0
 40
0.0906829255701806
 40
0.2040019404921325
 40
0.339369038840331
 40
0.4986693809858234
 40
0.6581556262662808
 40
0.793828837002926
 40
0.9074924937503074
 40
1.0
 40
1.0
 40
1.0
 40
1.0
 10
-15.60029034143584
 20
13.25403285001132
 30
0.0
 10
-15.6047977805754
 20
13.25793182101789
 30
0.0
 10
-15.61493779673984
 20
13.26670301632572
 30
0.0
 10
-15.63292032351236
 20
13.27992578989027
 30
0.0
 10
-15.65529712874802
 20
13.29468717607568
 30
0.0
 10
-15.68031586829454
 20
13.310942346041
 30
0.0
 10
-15.7058863930972
 20
13.32641131466693
 30
0.0
 10
-15.72974306078792
 20
13.33872747840845
 30
0.0
 10
-15.7499139149257
 20
13.34875069209636
 30
0.0
 10
-15.76288449756262
 20
13.35272693696317
 30
0.0
 10
-15.76870430396475
 20
13.3545110492101
 30
0.0
  0
SPLINE
  5
87
330
1F
100
AcDbEntity
  8
0
  6
Continuous
 62
     7
370
    25
100
AcDbSpline
210
0.0
220
0.0
230
1.0
 70
     8
 71
     3
 72
    15
 73
    11
 74
     0
 42
0.00000001
 43
0.00000001
 40
0.0
 40
0.0
 40
0.0
 40
0.0
 40
0.0813360998705377
 40
0.1695862098013909
 40
0.269646570517009
 40
0.3844723518103701
 40
0.5149351006589022
 40
0.66095504204044
 40
0.8223642717058515
 40
0.9999999999999999
 40
0.9999999999999999
 40
0.9999999999999999
 40
0.9999999999999999
 10
-15.76870430396475
 20
13.3545110492101
 30
0.0
 10
-15.77679396912812
 20
13.35564602359155
 30
0.0
 10
-15.79366096491228
 20
13.35801245133861
 30
0.0
 10
-15.82054130099217
 20
13.35295045011332
 30
0.0
 10
-15.84869297594569
 20
13.34156204038353
 30
0.0
 10
-15.87840710268202
 20
13.32382430861486
 30
0.0
 10
-15.90978655597266
 20
13.30047343181069
 30
0.0
 10
-15.94329132014796
 20
13.27234847228439
 30
0.0
 10
-15.9796313394132
 20
13.24028446130543
 30
0.0
 10
-16.00373675711137
 20
13.21649168275367
 30
0.0
 10
-16.0163663017429
 20
13.20402593906109
 30
0.0
  0
LINE
  5
88
330
1F
100
AcDbEntity
  8
0
  6
Continuous
 62
     7
370
    25
100
AcDbLine
 10
-16.0163663017
 20
13.2040259391
 30
0.0
 11
-16.7651661481
 21
12.4554668809
 31
0.0
  0
LINE
  5
89
330
1F
100
AcDbEntity
  8
0
  6
Continuous
 62
     7
370
    25
100
AcDbLine
 10
-16.7651661481
 20
12.4554668809
 30
0.0
 11
-16.8346513627
 21
12.5249744467
 31
0.0
  0
LINE
  5
8A
330
1F
100
AcDbEntity
  8
0
  6
Continuous
 62
     7
370
    25
100
AcDbLine
 10
-16.8346513627
 20
12.5249744467
 30
0.0
 11
-16.6826678271
 21
14.0465871652
 31
0.0
  0
LINE
  5
8B
330
1F
100
AcDbEntity
  8
0
  6
Continuous
 62
     7
370
    25
100
AcDbLine
 10
-16.6826678271
 20
14.0465871652
 30
0.0
 11
-17.2101968636
 21
13.5192277639
 31
0.0
  0
SPLINE
  5
8C
330
1F
100
AcDbEntity
  8
0
  6
Continuous
 62
     7
370
    25
100
AcDbSpline
210
0.0
220
0.0
230
1.0
 70
     8
 71
     3
 72
    15
 73
    11
 74
     0
 42
0.00000001
 43
0.00000001
 40
0.0
 40
0.0
 40
0.0
 40
0.0
 40
0.1932602322636982
 40
0.3629261673966421
 40
0.510826551728099
 40
0.6348474688970303
 40
0.7424054669696974
 40
0.8373228306219535
 40
0.9224854339467905
 40
1.0
 40
1.0
 40
1.0
 40
1.0
 10
-17.21019686360941
 20
13.51922776388132
 30
0.0
 10
-17.22398909682508
 20
13.50519318882627
 30
0.0
 10
-17.24988972978083
 20
13.4788374586478
 30
0.0
 10
-17.28435806904673
 20
13.43987204010956
 30
0.0
 10
-17.31242845279773
 20
13.40470752016484
 30
0.0
 10
-17.33396417058847
 20
13.37259950704182
 30
0.0
 10
-17.3497631109872
 20
13.34320755411894
 30
0.0
 10
-17.3593869605833
 20
13.31553211588577
 30
0.0
 10
-17.36555481489967
 20
13.28977285829183
 30
0.0
 10
-17.36457010520328
 20
13.27315837251823
 30
0.0
 10
-17.36410089772263
 20
13.26524168291845
 30
0.0
  0
SPLINE
  5
8D
330
1F
100
AcDbEntity
  8
0
  6
Continuous
 62
     7
370
    25
100
AcDbSpline
210
0.0
220
0.0
230
1.0
 70
     8
 71
     3
 72
    15
 73
    11
 74
     0
 42
0.00000001
 43
0.00000001
 40
0.0
 40
0.0
 40
0.0
 40
0.0
 40
0.0878447424983805
 40
0.2013747867229954
 40
0.3443629394733305
 40
0.5142058717250213
 40
0.6833777506523275
 40
0.8206977152125419
 40
0.9262442636270257
 40
0.9999999999999999
 40
0.9999999999999999
 40
0.9999999999999999
 40
0.9999999999999999
 10
-17.36410089772263
 20
13.26524168291845
 30
0.0
 10
-17.36310315232754
 20
13.25871259418179
 30
0.0
 10
-17.360815926474
 20
13.24374534839736
 30
0.0
 10
-17.35110499964942
 20
13.21962522252591
 30
0.0
 10
-17.33678713644515
 20
13.19106697825146
 30
0.0
 10
-17.31851741901457
 20
13.15984340377731
 30
0.0
 10
-17.29934695703051
 20
13.12970144600571
 30
0.0
 10
-17.28232208063002
 20
13.1039359283657
 30
0.0
 10
-17.26909703160668
 20
13.08417055022663
 30
0.0
 10
-17.26031407972089
 20
13.07397762298227
 30
0.0
 10
-17.25670122512379
 20
13.06978477705399
 30
0.0
  0
LINE
  5
8E
330
1F
100
AcDbEntity
  8
0
  6
Continuous
 62
     7
370
    25
100
AcDbLine
 10
-17.2567012251
 20
13.0697847771
 30
0.0
 11
-17.3079972016
 21
13.0185052956
 31
0.0
  0
LINE
  5
8F
330
1F
100
AcDbEntity
  8
0
  6
Continuous
 62
     7
370
    25
100
AcDbLine
 10
-17.3079972016
 20
13.0185052956
 30
0.0
 11
-17.7716365372
 21
13.4822937695
 31
0.0
  0
LINE
  5
90
330
1F
100
AcDbEntity
  8
0
  6
Continuous
 62
     7
370
    25
100
AcDbLine
 10
-17.7716365372
 20
13.4822937695
 30
0.0
 11
-17.7203405607
 21
13.533573251
 31
0.0
  0
SPLINE
  5
91
330
1F
100
AcDbEntity
  8
0
  6
Continuous
 62
     7
370
    25
100
AcDbSpline
210
0.0
220
0.0
230
1.0
 70
     8
 71
     3
 72
    15
 73
    11
 74
     0
 42
0.00000001
 43
0.00000001
 40
0.0
 40
0.0
 40
0.0
 40
0.0
 40
0.0892734022134697
 40
0.2063524183336012
 40
0.3493770596535292
 40
0.5210679107648224
 40
0.6904455313775589
 40
0.8250433786355633
 40
0.9281089354806599
 40
1.0
 40
1.0
 40
1.0
 40
1.0
 10
-17.720340560703
 20
13.53357325100572
 30
0.0
 10
-17.71572990417343
 20
13.52977479614266
 30
0.0
 10
-17.70507252917268
 20
13.52099479753739
 30
0.0
 10
-17.68588683725434
 20
13.50761688936379
 30
0.0
 10
-17.6617973872105
 20
13.49167631546587
 30
0.0
 10
-17.63402047472956
 20
13.4750225855176
 30
0.0
 10
-17.60656800632726
 20
13.45890720435997
 30
0.0
 10
-17.58248745224067
 20
13.44623723476002
 30
0.0
 10
-17.56348181327458
 20
13.43776516173243
 30
0.0
 10
-17.5520653867538
 20
13.43509992129218
 30
0.0
 10
-17.54737428647314
 20
13.43400475283867
 30
0.0
  0
SPLINE
  5
92
330
1F
100
AcDbEntity
  8
0
  6
Continuous
 62
     7
370
    25
100
AcDbSpline
210
0.0
220
0.0
230
1.0
 70
     8
 71
     3
 72
    19
 73
    15
 74
     0
 42
0.00000001
 43
0.00000001
 40
0.0
 40
0.0
 40
0.0
 40
0.0
 40
0.0795094555055246
 40
0.1605935085330976
 40
0.2474825112258436
 40
0.3410875387348822
 40
0.3941906915256931
 40
0.4561130395933551
 40
0.5259791919911541
 40
0.6034516135335417
 40
0.6898636996457109
 40
0.7853472065377676
 40
0.8884748209892839
 40
0.9999999999999999
 40
0.9999999999999999
 40
0.9999999999999999
 40
0.9999999999999999
 10
-17.54737428647314
 20
13.43400475283867
 30
0.0
 10
-17.539284290112
 20
13.43316162386776
 30
0.0
 10
-17.52294408388881
 20
13.43145866868183
 30
0.0
 10
-17.49771284010262
 20
13.43517209558387
 30
0.0
 10
-17.47244409272065
 20
13.44399409954751
 30
0.0
 10
-17.45116953627949
 20
13.45490766497065
 30
0.0
 10
-17.43338782345771
 20
13.46659927044255
 30
0.0
 10
-17.41787409935313
 20
13.47733869482476
 30
0.0
 10
-17.40141012764416
 20
13.49093648662022
 30
0.0
 10
-17.38295470579604
 20
13.50602681516401
 30
0.0
 10
-17.36338160309393
 20
13.52382962210716
 30
0.0
 10
-17.34182551988449
 20
13.54332915026103
 30
0.0
 10
-17.31908421439454
 20
13.56531772869708
 30
0.0
 10
-17.30353939618434
 20
13.58073016796014
 30
0.0
 10
-17.29546291786036
 20
13.58873786737126
 30
0.0
  0
LINE
  5
93
330
1F
100
AcDbEntity
  8
0
  6
Continuous
 62
     7
370
    25
100
AcDbLine
 10
-17.2954629179
 20
13.5887378674
 30
0.0
 11
-16.7916089475
 21
14.0924298157
 31
0.0
  0
SPLINE
  5
94
330
1F
100
AcDbEntity
  8
0
  6
Continuous
 62
     7
370
    25
100
AcDbSpline
210
0.0
220
0.0
230
1.0
 70
     8
 71
     3
 72
    13
 73
     9
 74
     0
 42
0.00000001
 43
0.00000001
 40
0.0
 40
0.0
 40
0.0
 40
0.0
 40
0.2554451407083435
 40
0.5205575862738984
 40
0.6517146097616182
 40
0.7745962186415004
 40
0.8894244052007763
 40
1.0
 40
1.0
 40
1.0
 40
1.0
 10
-16.79160894746777
 20
14.09242981570993
 30
0.0
 10
-16.78105058800255
 20
14.10407347990745
 30
0.0
 10
-16.75953428863984
 20
14.12780146202227
 30
0.0
 10
-16.74104534032961
 20
14.16363251156911
 30
0.0
 10
-16.72906599607819
 20
14.19313558400485
 30
0.0
 10
-16.72330361650643
 20
14.21505402679878
 30
0.0
 10
-16.72023314174485
 20
14.23628822240689
 30
0.0
 10
-16.72086547297982
 20
14.25011865142793
 30
0.0
 10
-16.72117567364281
 20
14.25690339969663
 30
0.0
  0
SPLINE
  5
95
330
1F
100
AcDbEntity
  8
0
  6
Continuous
 62
     7
370
    25
100
AcDbSpline
210
0.0
220
0.0
230
1.0
 70
     8
 71
     3
 72
    15
 73
    11
 74
     0
 42
0.00000001
 43
0.00000001
 40
0.0
 40
0.0
 40
0.0
 40
0.0
 40
0.1139341727103954
 40
0.2366207892111395
 40
0.3726470969063631
 40
0.5192817558895422
 40
0.6629415483441368
 40
0.7909359619842238
 40
0.9028306260488128
 40
1.0
 40
1.0
 40
1.0
 40
1.0
 10
-16.72117567364281
 20
14.25690339969663
 30
0.0
 10
-16.72242455062241
 20
14.26593626558947
 30
0.0
 10
-16.72501824353746
 20
14.28469590376963
 30
0.0
 10
-16.73248379269876
 20
14.31363942678997
 30
0.0
 10
-16.74396501509482
 20
14.34399648943415
 30
0.0
 10
-16.75772120245584
 20
14.37522551002919
 30
0.0
 10
-16.77327229438439
 20
14.40486222447024
 30
0.0
 10
-16.78804743278485
 20
14.43177138781374
 30
0.0
 10
-16.80329602467106
 20
14.45407141903398
 30
0.0
 10
-16.81392198015719
 20
14.46699060898736
 30
0.0
 10
-16.81886074175397
 20
14.47299522657555
 30
0.0
  0
LINE
  5
96
330
1F
100
AcDbEntity
  8
0
  6
Continuous
 62
     7
370
    25
100
AcDbLine
 10
-16.8188607418
 20
14.4729952266
 30
0.0
 11
-16.7678682917
 21
14.5239712792
 31
0.0
  0
LINE
  5
97
330
1F
100
AcDbEntity
  8
0
  6
Continuous
 62
     7
370
    25
100
AcDbLine
 10
-16.7678682917
 20
14.5239712792
 30
0.0
 11
-16.4453233875
 21
14.2013226222
 31
0.0
  0
LINE
  5
98
330
1F
100
AcDbEntity
  8
0
  6
Continuous
 62
     7
370
    25
100
AcDbLine
 10
-16.4453233875
 20
14.2013226222
 30
0.0
 11
-16.589702949
 21
12.7856223962
 31
0.0
  0
LINE
  5
99
330
1F
100
AcDbEntity
  8
0
  6
Continuous
 62
     7
370
    25
100
AcDbLine
 10
-16.589702949
 20
12.7856223962
 30
0.0
 11
-16.1028464619
 21
13.272322327
 31
0.0
  0
SPLINE
  5
9A
330
1F
100
AcDbEntity
  8
0
  6
Continuous
 62
     7
370
    25
100
AcDbSpline
210
0.0
220
0.0
230
1.0
 70
     8
 71
     3
 72
    15
 73
    11
 74
     0
 42
0.00000001
 43
0.00000001
 40
0.0
 40
0.0
 40
0.0
 40
0.0
 40
0.197259179056317
 40
0.3706071770679078
 40
0.5206541018789954
 40
0.6480105629898761
 40
0.7565402885920977
 40
0.8495388490074178
 40
0.9293349244330529
 40
1.0
 40
1.0
 40
1.0
 40
1.0
 10
-16.1028464619466
 20
13.27232232701287
 30
0.0
 10
-16.08896720967152
 20
13.28646928067207
 30
0.0
 10
-16.06289110750945
 20
13.31304833562316
 30
0.0
 10
-16.02803248595094
 20
13.35208859537596
 30
0.0
 10
-16.00023785757846
 20
13.38789235271135
 30
0.0
 10
-15.97883168362722
 20
13.42026101689184
 30
0.0
 10
-15.9635029294694
 20
13.44966375784577
 30
0.0
 10
-15.95396412077316
 20
13.47625611457306
 30
0.0
 10
-15.9485930735887
 20
13.500479099188
 30
0.0
 10
-15.95048314867175
 20
13.51557648089538
 30
0.0
 10
-15.95137083494618
 20
13.52266706615395
 30
0.0
  0
SPLINE
  5
9B
330
1F
100
AcDbEntity
  8
0
  6
Continuous
 62
     7
370
    25
100
AcDbSpline
210
0.0
220
0.0
230
1.0
 70
     8
 71
     3
 72
    15
 73
    11
 74
     0
 42
0.00000001
 43
0.00000001
 40
0.0
 40
0.0
 40
0.0
 40
0.0
 40
0.0935149104954329
 40
0.2069061363323963
 40
0.3421951942662746
 40
0.4985970072646653
 40
0.6558908988838306
 40
0.7909001446092985
 40
0.906152061736463
 40
0.9999999999999999
 40
0.9999999999999999
 40
0.9999999999999999
 40
0.9999999999999999
 10
-15.95137083494618
 20
13.52266706615395
 30
0.0
 10
-15.95325630153294
 20
13.52929073547481
 30
0.0
 10
-15.95742798500656
 20
13.54394591527728
 30
0.0
 10
-15.96764672198816
 20
13.56701790972743
 30
0.0
 10
-15.98093422172286
 20
13.5936912393334
 30
0.0
 10
-15.99746378309659
 20
13.62230452913749
 30
0.0
 10
-16.01428511288089
 20
13.65071290116564
 30
0.0
 10
-16.0308315962683
 20
13.67572187044804
 30
0.0
 10
-16.04543482834963
 20
13.6964237812091
 30
0.0
 10
-16.0552682489637
 20
13.70825974880369
 30
0.0
 10
-16.05968167263147
 20
13.71357195312841
 30
0.0
  0
LINE
  5
9C
330
1F
100
AcDbEntity
  8
0
  6
Continuous
 62
     7
370
    25
100
AcDbLine
 10
-16.0596816726
 20
13.7135719531
 30
0.0
 11
-16.0086892226
 21
13.7645480057
 31
0.0
  0
LINE
  5
9D
330
1F
100
AcDbEntity
  8
0
  6
Continuous
 62
     7
370
    25
100
AcDbLine
 10
-16.0086892226
 20
13.7645480057
 30
0.0
 11
-15.5492978914
 21
13.3050089026
 31
0.0
  0
CIRCLE
  5
9E
330
1F
100
AcDbEntity
  8
0
  6
Continuous
 62
     7
370
    25
100
AcDbCircle
 10
-15.1919704497
 20
10.7644840534
 30
0.0
 40
0.0885826771653555
  0
CIRCLE
  5
9F
330
1F
100
AcDbEntity
  8
0
  6
Continuous
 62
     7
370
    25
100
AcDbCircle
 10
-14.1118230832
 20
11.8446314199
 30
0.0
 40
0.0885826771653555
  0
CIRCLE
  5
A0
330
1F
100
AcDbEntity
  8
0
  6
Continuous
 62
     7
370
    25
100
AcDbCircle
 10
-13.7777568874
 20
12.1786976158
 30
0.0
 40
0.088582677165352
  0
CIRCLE
  5
A1
330
1F
100
AcDbEntity
  8
0
  6
Continuous
 62
     7
370
    25
100
AcDbCircle
 10
-13.4508714079
 20
12.5055830953
 30
0.0
 40
0.0885826771653537
  0
CIRCLE
  5
A2
330
1F
100
AcDbEntity
  8
0
  6
Continuous
 62
     7
370
    25
100
AcDbCircle
 10
-15.3960077514
 20
13.7969484798
 30
0.0
 40
0.088582677165352
  0
CIRCLE
  5
A3
330
1F
100
AcDbEntity
  8
0
  6
Continuous
 62
     7
370
    25
100
AcDbCircle
 10
-18.5103613284
 20
15.1630222986
 30
0.0
 40
0.5625000000000036
  0
CIRCLE
  5
A4
330
1F
100
AcDbEntity
  8
0
  6
Continuous
 62
     7
370
    25
100
AcDbCircle
 10
-18.5103613284
 20
16.2431696651
 30
0.0
 40
0.0885826771653555
  0
CIRCLE
  5
A5
330
1F
100
AcDbEntity
  8
0
  6
Continuous
 62
     7
370
    25
100
AcDbCircle
 10
-19.5905086949
 20
15.1630222986
 30
0.0
 40
0.0885826771653555
  0
MTEXT
  5
A7
330
1F
100
AcDbEntity
  8
0
  6
Continuous
 62
     7
100
AcDbMText
 10
-19.8838058393
 20
10.4310464999
 30
0.0
 40
0.1903
 41
0.0
 71
     1
 72
     1
  1
SOLIDWORKS Educational Product.
  7
SLDTEXTSTYLE0
 73
     1
 44
1.0
  0
MTEXT
  5
A8
330
1F
100
AcDbEntity
  8
0
  6
Continuous
 62
     7
100
AcDbMText
 10
-19.8838058393
 20
10.1455964999
 30
0.0
 40
0.1903
 41
0.0
 71
     1
 72
     1
  1
For Instructional Use Only.
  7
SLDTEXTSTYLE0
 73
     1
 44
1.0
  0
ENDSEC
  0
SECTION
  2
OBJECTS
  0
DICTIONARY
  5
C
330
0
100
AcDbDictionary
281
     1
  3
ACAD_GROUP
350
D
  3
ACAD_LAYOUT
350
1A
  3
ACAD_MLINESTYLE
350
17
  3
ACAD_PLOTSETTINGS
350
19
  3
ACAD_PLOTSTYLENAME
350
E
  3
ACAD_SCALELIST
350
47
  3
DWGPROPS
350
A9
  0
DICTIONARY
  5
D
102
{ACAD_REACTORS
330
C
102
}
330
C
100
AcDbDictionary
281
     1
  0
DICTIONARY
  5
1A
102
{ACAD_REACTORS
330
C
102
}
330
C
100
AcDbDictionary
281
     1
  3
Layout1
350
1E
  3
Layout2
350
26
  3
Model
350
22
  0
DICTIONARY
  5
17
102
{ACAD_REACTORS
330
C
102
}
330
C
100
AcDbDictionary
281
     1
  3
Standard
350
18
  0
DICTIONARY
  5
19
102
{ACAD_REACTORS
330
C
102
}
330
C
100
AcDbDictionary
281
     1
  0
ACDBDICTIONARYWDFLT
  5
E
102
{ACAD_REACTORS
330
C
102
}
330
C
100
AcDbDictionary
281
     1
  3
Normal
350
F
100
AcDbDictionaryWithDefault
340
F
  0
DICTIONARY
  5
47
102
{ACAD_REACTORS
330
C
102
}
330
C
100
AcDbDictionary
281
     1
  3
A0
350
48
  3
A1
350
49
  3
A2
350
4A
  3
A3
350
4B
  3
A4
350
4C
  3
A5
350
4D
  3
A6
350
4E
  3
A7
350
4F
  3
A8
350
50
  3
A9
350
51
  3
B1
350
52
  3
B2
350
53
  3
B3
350
54
  3
B4
350
55
  3
B5
350
56
  3
B6
350
57
  3
B7
350
58
  0
XRECORD
  5
A9
102
{ACAD_REACTORS
330
C
102
}
330
C
100
AcDbXrecord
280
     1
  1
DWGPROPS COOKIE
  2

  3

  4

  6

  7

  8
Matthew Geisel
  9

300
=
301
=
302
=
303
=
304
=
305
=
306
=
307
=
308
=
309
=
 40
0.0
 41
2460816.012281667
 42
2460816.012320278
  1

 90
        0
  0
LAYOUT
  5
1E
102
{ACAD_REACTORS
330
1A
102
}
330
1A
100
AcDbPlotSettings
  1

  2
none_device
  4

  6

 40
0.0
 41
0.0
 42
0.0
 43
0.0
 44
0.0
 45
0.0
 46
0.0
 47
0.0
 48
0.0
 49
0.0
140
0.0
141
0.0
142
1.0
143
1.0
 70
   688
 72
     0
 73
     0
 74
     5
  7

 75
    16
147
1.0
148
0.0
149
0.0
100
AcDbLayout
  1
Layout1
 70
     1
 71
     1
 10
0.0
 20
0.0
 11
12.0
 21
9.0
 12
0.0
 22
0.0
 32
0.0
 14
1.0000000000E+20
 24
1.0000000000E+20
 34
1.0000000000E+20
 15
-1.0000000000E+20
 25
-1.0000000000E+20
 35
-1.0000000000E+20
146
0.0
 13
0.0
 23
0.0
 33
0.0
 16
1.0
 26
0.0
 36
0.0
 17
0.0
 27
1.0
 37
0.0
 76
     0
330
1B
  0
LAYOUT
  5
26
102
{ACAD_REACTORS
330
1A
102
}
330
1A
100
AcDbPlotSettings
  1

  2
none_device
  4

  6

 40
0.0
 41
0.0
 42
0.0
 43
0.0
 44
0.0
 45
0.0
 46
0.0
 47
0.0
 48
0.0
 49
0.0
140
0.0
141
0.0
142
1.0
143
1.0
 70
   688
 72
     0
 73
     0
 74
     5
  7

 75
    16
147
1.0
148
0.0
149
0.0
100
AcDbLayout
  1
Layout2
 70
     1
 71
     2
 10
0.0
 20
0.0
 11
0.0
 21
0.0
 12
0.0
 22
0.0
 32
0.0
 14
0.0
 24
0.0
 34
0.0
 15
0.0
 25
0.0
 35
0.0
146
0.0
 13
0.0
 23
0.0
 33
0.0
 16
1.0
 26
0.0
 36
0.0
 17
0.0
 27
1.0
 37
0.0
 76
     0
330
23
  0
LAYOUT
  5
22
102
{ACAD_REACTORS
330
1A
102
}
330
1A
100
AcDbPlotSettings
  1

  2
none_device
  4
ANSI_A_(11.00_x_8.50_Inches)
  6

 40
6.35
 41
19.05
 42
6.35000508
 43
19.05000254
 44
279.4
 45
215.9
 46
714.3755113043
 47
-386.4067011056
 48
0.0
 49
0.0
140
0.0
141
0.0
142
1.3852643759
143
1.0
 70
  1696
 72
     0
 73
     0
 74
     0
  7

 75
     0
147
0.5913241897
148
-39.4088153714
149
0.0
100
AcDbLayout
  1
Model
 70
     1
 71
     0
 10
0.0
 20
0.0
 11
12.0
 21
9.0
 12
0.0
 22
0.0
 32
0.0
 14
-19.8838058393
 24
10.471186909
 34
0.0
 15
-13.1424101354
 25
16.5458396226
 35
0.0
146
0.0
 13
0.0
 23
0.0
 33
0.0
 16
1.0
 26
0.0
 36
0.0
 17
0.0
 27
1.0
 37
0.0
 76
     0
330
1F
331
29
  0
MLINESTYLE
  5
18
102
{ACAD_REACTORS
330
17
102
}
330
17
100
AcDbMlineStyle
  2
Standard
 70
     0
  3

 62
   256
 51
90.0
 52
90.0
 71
     2
 49
0.5
 62
   256
  6
BYLAYER
 49
-0.5
 62
   256
  6
BYLAYER
  0
ACDBPLACEHOLDER
  5
F
102
{ACAD_REACTORS
330
E
102
}
330
E
  0
SCALE
  5
48
102
{ACAD_REACTORS
330
47
102
}
330
47
100
AcDbScale
 70
     0
300
1:1
140
1.0
141
1.0
290
     1
  0
SCALE
  5
49
102
{ACAD_REACTORS
330
47
102
}
330
47
100
AcDbScale
 70
     0
300
1/128" = 1'-0"
140
0.0078125
141
12.0
290
     0
  0
SCALE
  5
4A
102
{ACAD_REACTORS
330
47
102
}
330
47
100
AcDbScale
 70
     0
300
1/64" = 1'-0"
140
0.015625
141
12.0
290
     0
  0
SCALE
  5
4B
102
{ACAD_REACTORS
330
47
102
}
330
47
100
AcDbScale
 70
     0
300
1/32" = 1'-0"
140
0.03125
141
12.0
290
     0
  0
SCALE
  5
4C
102
{ACAD_REACTORS
330
47
102
}
330
47
100
AcDbScale
 70
     0
300
1/16" = 1'-0"
140
0.0625
141
12.0
290
     0
  0
SCALE
  5
4D
102
{ACAD_REACTORS
330
47
102
}
330
47
100
AcDbScale
 70
     0
300
3/32" = 1'-0"
140
0.09375
141
12.0
290
     0
  0
SCALE
  5
4E
102
{ACAD_REACTORS
330
47
102
}
330
47
100
AcDbScale
 70
     0
300
1/8" = 1'-0"
140
0.125
141
12.0
290
     0
  0
SCALE
  5
4F
102
{ACAD_REACTORS
330
47
102
}
330
47
100
AcDbScale
 70
     0
300
3/16" = 1'-0"
140
0.1875
141
12.0
290
     0
  0
SCALE
  5
50
102
{ACAD_REACTORS
330
47
102
}
330
47
100
AcDbScale
 70
     0
300
1/4" = 1'-0"
140
0.25
141
12.0
290
     0
  0
SCALE
  5
51
102
{ACAD_REACTORS
330
47
102
}
330
47
100
AcDbScale
 70
     0
300
3/8" = 1'-0"
140
0.375
141
12.0
290
     0
  0
SCALE
  5
52
102
{ACAD_REACTORS
330
47
102
}
330
47
100
AcDbScale
 70
     0
300
1/2" = 1'-0"
140
0.5
141
12.0
290
     0
  0
SCALE
  5
53
102
{ACAD_REACTORS
330
47
102
}
330
47
100
AcDbScale
 70
     0
300
3/4" = 1'-0"
140
0.75
141
12.0
290
     0
  0
SCALE
  5
54
102
{ACAD_REACTORS
330
47
102
}
330
47
100
AcDbScale
 70
     0
300
1" = 1'-0"
140
1.0
141
12.0
290
     0
  0
SCALE
  5
55
102
{ACAD_REACTORS
330
47
102
}
330
47
100
AcDbScale
 70
     0
300
1-1/2" = 1'-0"
140
1.5
141
12.0
290
     0
  0
SCALE
  5
56
102
{ACAD_REACTORS
330
47
102
}
330
47
100
AcDbScale
 70
     0
300
3" = 1'-0"
140
3.0
141
12.0
290
     0
  0
SCALE
  5
57
102
{ACAD_REACTORS
330
47
102
}
330
47
100
AcDbScale
 70
     0
300
6" = 1'-0"
140
6.0
141
12.0
290
     0
  0
SCALE
  5
58
102
{ACAD_REACTORS
330
47
102
}
330
47
100
AcDbScale
 70
     0
300
1'-0" = 1'-0"
140
12.0
141
12.0
290
     0
  0
ENDSEC
  0
EOF
