  0
SECTION
  2
HEADER
  9
$ACADVER
  1
AC1003
  9
$EXTMIN
 10
0.317453747542461
 20
8.70518065771057
  9
$EXTMAX
 10
12.1016706941861
 20
0.0990389467560489
  9
$INSUNITS
 70
1
  9
$INSBASE
 10
6.20956222086426
 20
4.40210980223331
999
Created with OMAX LAYOUT for Windows. (www.omax.com) 3/19/2025
  0
ENDSEC
  0
SECTION
  2
TABLES
  0
TABLE
  2
LAYER
 70
    10
  0
LAYER
  2
0
 70
     0
 62
     7
  6
CONTINUOUS
  0
LAYER
  2
1
 70
     0
 62
     7
  6
CONTINUOUS
  0
LAYER
  2
2
 70
     0
 62
     7
  6
CONTINUOUS
  0
LAYER
  2
3
 70
     0
 62
     7
  6
CONTINUOUS
  0
LAYER
  2
4
 70
     0
 62
     7
  6
CONTINUOUS
  0
LAYER
  2
5
 70
     0
 62
     7
  6
CONTINUOUS
  0
LAYER
  2
6
 70
     0
 62
     7
  6
CONTINUOUS
  0
LAYER
  2
7
 70
     0
 62
     7
  6
CONTINUOUS
  0
LAYER
  2
8
 70
     0
 62
     7
  6
CONTINUOUS
  0
LAYER
  2
9
 70
     0
 62
     7
  6
CONTINUOUS
  0
LAYER
  2
10
 70
     0
 62
     7
  6
CONTINUOUS
  0
LAYER
  2
11
 70
     0
 62
     7
  6
CONTINUOUS
  0
LAYER
  2
12
 70
     0
 62
     7
  6
CONTINUOUS
  0
LAYER
  2
13
 70
     0
 62
     7
  6
CONTINUOUS
  0
LAYER
  2
14
 70
     0
 62
     7
  6
CONTINUOUS
  0
LAYER
  2
15
 70
     0
 62
     7
  6
CONTINUOUS
  0
LAYER
  2
16
 70
     0
 62
     7
  6
CONTINUOUS
  0
LAYER
  2
17
 70
     0
 62
     7
  6
CONTINUOUS
  0
LAYER
  2
18
 70
     0
 62
     7
  6
CONTINUOUS
  0
LAYER
  2
19
 70
     0
 62
     7
  6
CONTINUOUS
  0
LAYER
  2
20
 70
     0
 62
     7
  6
CONTINUOUS
  0
LAYER
  2
21
 70
     0
 62
     7
  6
CONTINUOUS
  0
LAYER
  2
22
 70
     0
 62
     7
  6
CONTINUOUS
  0
LAYER
  2
23
 70
     0
 62
     7
  6
CONTINUOUS
  0
LAYER
  2
24
 70
     0
 62
     7
  6
CONTINUOUS
  0
LAYER
  2
25
 70
     0
 62
     7
  6
CONTINUOUS
  0
LAYER
  2
26
 70
     0
 62
     7
  6
CONTINUOUS
  0
LAYER
  2
27
 70
     0
 62
     7
  6
CONTINUOUS
  0
LAYER
  2
28
 70
     0
 62
     7
  6
CONTINUOUS
  0
LAYER
  2
29
 70
     0
 62
     7
  6
CONTINUOUS
  0
LAYER
  2
30
 70
     0
 62
     7
  6
CONTINUOUS
  0
LAYER
  2
31
 70
     0
 62
     7
  6
CONTINUOUS
  0
ENDTAB
  0
ENDSEC
  0
SECTION
  2
ENTITIES
  0
ARC
  8
0
  6
CONTINUOUS
 62
0
 10
9.72060732826961
 20
2.11288249685854
 30
0.0
 40
0.098425196850394
 50
359.999999999991
 51
36.7410794959783
  0
ARC
  8
0
  6
CONTINUOUS
 62
0
 10
10.0032454973356
 20
6.23617173838418
 30
0.0
 40
0.0984251968503902
 50
2.27409659724641E-12
 51
45.0000000000018
  0
ARC
  8
0
  6
CONTINUOUS
 62
0
 10
9.62839008548073
 20
4.18247823628917
 30
0.0
 40
0.0984251968503919
 50
306.741079495983
 51
359.999999999995
  0
ARC
  8
0
  6
CONTINUOUS
 62
0
 10
1.89418390361171
 20
3.60663451698318
 30
0.0
 40
0.155842518843206
 50
195.396328991911
 51
211.44408166755
  0
ARC
  8
0
  6
CONTINUOUS
 62
0
 10
2.67282701834429
 20
1.67975396243509
 30
0.0
 40
0.100303096150346
 50
27.4265471754623
 51
42.0865443496487
  0
ARC
  8
0
  6
CONTINUOUS
 62
0
 10
2.43859380955515
 20
3.57587060491773
 30
0.0
 40
0.120244901059656
 50
288.28682158957
 51
305.84244119698
  0
ARC
  8
0
  6
CONTINUOUS
 62
0
 10
4.05020973234471
 20
1.69482555426818
 30
0.0
 40
0.0736022814609466
 50
140.526104554308
 51
151.615506289589
  0
ARC
  8
0
  6
CONTINUOUS
 62
0
 10
5.88555021649955
 20
0.713776929290865
 30
0.0
 40
0.184768193571521
 50
237.383779501769
 51
241.858266852045
  0
ARC
  8
3
  6
CONTINUOUS
 62
3
 10
10.337891166627
 20
5.17146931280188
 30
0.0
 40
0.0885826771653599
 50
179.999999999999
 51
359.999999999999
  0
ARC
  8
3
  6
CONTINUOUS
 62
3
 10
10.337891166627
 20
5.17146931280188
 30
0.0
 40
0.0885826771653599
 50
359.999999999999
 51
180
  0
ARC
  8
3
  6
CONTINUOUS
 62
3
 10
11.8654502217451
 20
5.17146931280189
 30
0.0
 40
0.0885826771653502
 50
179.999999999999
 51
359.999999999999
  0
ARC
  8
3
  6
CONTINUOUS
 62
3
 10
11.8654502217451
 20
5.17146931280189
 30
0.0
 40
0.0885826771653502
 50
359.999999999999
 51
180
  0
ARC
  8
3
  6
CONTINUOUS
 62
3
 10
11.8654502217451
 20
7.45493387973102
 30
0.0
 40
0.0885826771653502
 50
179.999999999999
 51
359.999999999999
  0
ARC
  8
3
  6
CONTINUOUS
 62
3
 10
11.8654502217451
 20
7.45493387973102
 30
0.0
 40
0.0885826771653502
 50
359.999999999999
 51
180
  0
ARC
  8
3
  6
CONTINUOUS
 62
3
 10
10.4747112795365
 20
8.39826113335859
 30
0.0
 40
0.0885826771653502
 50
179.999999999999
 51
359.999999999999
  0
ARC
  8
3
  6
CONTINUOUS
 62
3
 10
10.4747112795365
 20
8.39826113335859
 30
0.0
 40
0.0885826771653502
 50
359.999999999999
 51
180
  0
ARC
  8
3
  6
CONTINUOUS
 62
3
 10
9.39456391299949
 20
7.31811376682157
 30
0.0
 40
0.0885826771653502
 50
179.999999999999
 51
359.999999999999
  0
ARC
  8
3
  6
CONTINUOUS
 62
3
 10
9.39456391299949
 20
7.31811376682157
 30
0.0
 40
0.0885826771653502
 50
359.999999999999
 51
180
  0
ARC
  8
3
  6
CONTINUOUS
 62
3
 10
11.1016706941861
 20
6.69115435217195
 30
0.0
 40
0.5625
 50
179.999999999999
 51
359.999999999999
  0
ARC
  8
3
  6
CONTINUOUS
 62
3
 10
11.1016706941861
 20
6.69115435217196
 30
0.0
 40
0.5625
 50
359.999999999999
 51
180
  0
LINE
  8
3
  6
CONTINUOUS
 62
3
 10
10.101670694186
 20
6.23617173838419
 30
0.0
 11
10.101670694186
 21
5.03367403721133
 31
0.0
  0
ARC
  8
3
  6
CONTINUOUS
 62
3
 10
10.2000958910364
 20
5.03367403721133
 30
0.0
 40
0.0984251968503971
 50
179.999999999998
 51
270.000000000001
  0
LINE
  8
3
  6
CONTINUOUS
 62
3
 10
12.0032454973357
 20
4.93524884036095
 30
0.0
 11
10.2000958910364
 21
4.93524884036093
 31
0.0
  0
ARC
  8
3
  6
CONTINUOUS
 62
3
 10
12.0032454973357
 20
5.03367403721134
 30
0.0
 40
0.0984251968503997
 50
269.999999999999
 51
359.999999999999
  0
LINE
  8
3
  6
CONTINUOUS
 62
3
 10
12.1016706941861
 20
7.6372873512328
 30
0.0
 11
12.1016706941861
 21
5.03367403721134
 31
0.0
  0
ARC
  8
3
  6
CONTINUOUS
 62
3
 10
12.0032454973357
 20
7.63728735123281
 30
0.0
 40
0.0984251968503804
 50
359.999999999994
 51
57.3827818309339
  0
LINE
  8
3
  6
CONTINUOUS
 62
3
 10
10.5413871958053
 20
8.68965806429965
 30
0.0
 11
12.056299033674
 21
7.72018995467226
 31
0.0
  0
ARC
  8
3
  6
CONTINUOUS
 62
3
 10
10.488333659467
 20
8.60675546086019
 30
0.0
 40
0.0984251968503842
 50
57.3827818309409
 51
135
  0
LINE
  8
3
  6
CONTINUOUS
 62
3
 10
9.13009484129586
 20
7.38771089095411
 30
0.0
 11
10.4187365353345
 21
8.67635258499271
 31
0.0
  0
ARC
  8
3
  6
CONTINUOUS
 62
3
 10
9.19969196542839
 20
7.31811376682157
 30
0.0
 40
0.0984251968504015
 50
135
 51
225
  0
LINE
  8
3
  6
CONTINUOUS
 62
3
 10
10.0728426214682
 20
6.30576886251672
 30
0.0
 11
9.13009484129586
 21
7.24851664268904
 31
0.0
  0
ARC
  8
3
  6
CONTINUOUS
 62
3
 10
10.3226491294936
 20
1.23853598930554
 30
0.0
 40
0.0885826771653351
 50
179.999999999999
 51
359.999999999999
  0
ARC
  8
3
  6
CONTINUOUS
 62
3
 10
10.3226491294936
 20
1.23853598930554
 30
0.0
 40
0.0885826771653351
 50
359.999999999999
 51
180
  0
ARC
  8
3
  6
CONTINUOUS
 62
3
 10
11.8502081846118
 20
1.23853598930553
 30
0.0
 40
0.0885826771653999
 50
179.999999999999
 51
359.999999999999
  0
ARC
  8
3
  6
CONTINUOUS
 62
3
 10
11.8502081846118
 20
1.23853598930553
 30
0.0
 40
0.0885826771653999
 50
359.999999999999
 51
180
  0
ARC
  8
3
  6
CONTINUOUS
 62
3
 10
11.8502081846118
 20
3.52200055623466
 30
0.0
 40
0.0885826771653502
 50
179.999999999999
 51
359.999999999999
  0
ARC
  8
3
  6
CONTINUOUS
 62
3
 10
11.8502081846118
 20
3.52200055623466
 30
0.0
 40
0.0885826771653502
 50
359.999999999999
 51
180
  0
ARC
  8
3
  6
CONTINUOUS
 62
3
 10
10.4594692424032
 20
4.46532780986225
 30
0.0
 40
0.0885826771653502
 50
179.999999999999
 51
359.999999999999
  0
ARC
  8
3
  6
CONTINUOUS
 62
3
 10
10.4594692424032
 20
4.46532780986225
 30
0.0
 40
0.0885826771653502
 50
359.999999999999
 51
180
  0
ARC
  8
3
  6
CONTINUOUS
 62
3
 10
9.37932187586616
 20
3.38518044332524
 30
0.0
 40
0.0885826771653546
 50
179.999999999999
 51
359.999999999999
  0
ARC
  8
3
  6
CONTINUOUS
 62
3
 10
9.37932187586616
 20
3.38518044332524
 30
0.0
 40
0.0885826771653546
 50
359.999999999999
 51
180
  0
ARC
  8
3
  6
CONTINUOUS
 62
3
 10
11.0864286570528
 20
2.7582210286756
 30
0.0
 40
0.5625
 50
179.999999999999
 51
359.999999999999
  0
ARC
  8
3
  6
CONTINUOUS
 62
3
 10
11.0864286570528
 20
2.75822102867561
 30
0.0
 40
0.5625
 50
359.999999999999
 51
180
  0
LINE
  8
3
  6
CONTINUOUS
 62
3
 10
10.0864286570527
 20
2.30323841488785
 30
0.0
 11
10.0864286570527
 21
1.10074071371499
 31
0.0
  0
ARC
  8
3
  6
CONTINUOUS
 62
3
 10
10.1848538539031
 20
1.10074071371499
 30
0.0
 40
0.0984251968503958
 50
180
 51
270.000000000002
  0
LINE
  8
3
  6
CONTINUOUS
 62
3
 10
11.9880034602023
 20
1.00231551686458
 30
0.0
 11
10.1848538539031
 21
1.00231551686459
 31
0.0
  0
ARC
  8
3
  6
CONTINUOUS
 62
3
 10
11.9880034602023
 20
1.10074071371498
 30
0.0
 40
0.0984251968503976
 50
269.999999999998
 51
5.27972077122944E-13
  0
LINE
  8
3
  6
CONTINUOUS
 62
3
 10
12.0864286570528
 20
3.70435402773643
 30
0.0
 11
12.0864286570527
 21
1.10074071371498
 31
0.0
  0
ARC
  8
3
  6
CONTINUOUS
 62
3
 10
11.9880034602023
 20
3.70435402773635
 30
0.0
 40
0.0984251968504408
 50
4.57300152100824E-11
 51
57.3827818309846
  0
LINE
  8
3
  6
CONTINUOUS
 62
3
 10
10.526145158672
 20
4.75672474080331
 30
0.0
 11
12.0410569965406
 21
3.7872566311759
 31
0.0
  0
ARC
  8
3
  6
CONTINUOUS
 62
3
 10
10.4730916223337
 20
4.67382213736385
 30
0.0
 40
0.0984251968503842
 50
57.3827818309398
 51
134.999999999998
  0
ARC
  8
3
  6
CONTINUOUS
 62
3
 10
9.18444992829507
 20
3.38518044332524
 30
0.0
 40
0.0984251968503942
 50
134.999999999999
 51
225.000000000001
  0
LINE
  8
3
  6
CONTINUOUS
 62
3
 10
10.0576005843348
 20
2.37283553902039
 30
0.0
 11
9.11485280416253
 21
3.31558331919272
 31
0.0
  0
ARC
  8
3
  6
CONTINUOUS
 62
3
 10
9.98800346020232
 20
2.30323841488785
 30
0.0
 40
0.0984251968503897
 50
2.16277718339519E-12
 51
45.0000000000019
  0
ARC
  8
3
  6
CONTINUOUS
 62
3
 10
8.86939322896233
 20
3.02281679077173
 30
0.0
 40
0.0885826771653555
 50
179.999999999999
 51
359.999999999999
  0
ARC
  8
3
  6
CONTINUOUS
 62
3
 10
8.86939322896233
 20
3.02281679077173
 30
0.0
 40
0.0885826771653555
 50
359.999999999999
 51
180
  0
ARC
  8
3
  6
CONTINUOUS
 62
3
 10
9.18497897363413
 20
2.60005894708688
 30
0.0
 40
0.0885826771653502
 50
179.999999999999
 51
359.999999999999
  0
ARC
  8
3
  6
CONTINUOUS
 62
3
 10
9.18497897363413
 20
2.60005894708688
 30
0.0
 40
0.0885826771653502
 50
359.999999999999
 51
180
  0
ARC
  8
3
  6
CONTINUOUS
 62
3
 10
8.01067336340424
 20
2.38178847566227
 30
0.0
 40
0.0885826771653542
 50
179.999999999999
 51
359.999999999999
  0
ARC
  8
3
  6
CONTINUOUS
 62
3
 10
8.01067336340424
 20
2.38178847566227
 30
0.0
 40
0.0885826771653542
 50
359.999999999999
 51
180
  0
ARC
  8
3
  6
CONTINUOUS
 62
3
 10
9.58281205267907
 20
0.381788475662268
 30
0.0
 40
0.0885826771653502
 50
179.999999999999
 51
359.999999999999
  0
ARC
  8
3
  6
CONTINUOUS
 62
3
 10
9.58281205267907
 20
0.381788475662269
 30
0.0
 40
0.0885826771653502
 50
359.999999999999
 51
180
  0
ARC
  8
3
  6
CONTINUOUS
 62
3
 10
9.58281205267907
 20
1.90934753078038
 30
0.0
 40
0.0885826771653502
 50
179.999999999999
 51
359.999999999999
  0
ARC
  8
3
  6
CONTINUOUS
 62
3
 10
9.58281205267907
 20
1.90934753078038
 30
0.0
 40
0.0885826771653502
 50
359.999999999999
 51
180
  0
ARC
  8
3
  6
CONTINUOUS
 62
3
 10
7.53556795819087
 20
0.381788475662268
 30
0.0
 40
0.0885826771653546
 50
179.999999999999
 51
359.999999999999
  0
ARC
  8
3
  6
CONTINUOUS
 62
3
 10
7.53556795819087
 20
0.381788475662269
 30
0.0
 40
0.0885826771653546
 50
359.999999999999
 51
180
  0
ARC
  8
3
  6
CONTINUOUS
 62
3
 10
7.53556795819087
 20
1.90934753078038
 30
0.0
 40
0.0885826771653546
 50
179.999999999999
 51
359.999999999999
  0
ARC
  8
3
  6
CONTINUOUS
 62
3
 10
7.53556795819087
 20
1.90934753078038
 30
0.0
 40
0.0885826771653546
 50
359.999999999999
 51
180
  0
ARC
  8
3
  6
CONTINUOUS
 62
3
 10
8.29934748574992
 20
1.14556800322132
 30
0.0
 40
0.5625
 50
179.999999999999
 51
359.999999999999
  0
ARC
  8
3
  6
CONTINUOUS
 62
3
 10
8.29934748574992
 20
1.14556800322133
 30
0.0
 40
0.5625
 50
359.999999999999
 51
180
  0
ARC
  8
3
  6
CONTINUOUS
 62
3
 10
8.89738594139112
 20
3.21566772802907
 30
0.0
 40
0.0984251968503896
 50
36.7410794959855
 51
126.741079495987
  0
LINE
  8
3
  6
CONTINUOUS
 62
3
 10
7.33889474516156
 20
2.17508975307785
 30
0.0
 11
8.83850800395236
 21
3.29454046005982
 31
0.0
  0
ARC
  8
3
  6
CONTINUOUS
 62
3
 10
7.39777268260032
 20
2.09621702104709
 30
0.0
 40
0.0984251968504001
 50
126.741079495985
 51
179.999999999998
  0
LINE
  8
3
  6
CONTINUOUS
 62
3
 10
7.29934748574994
 20
2.09621702104709
 30
0.0
 11
7.29934748574994
 21
0.243993200071719
 31
0.0
  0
ARC
  8
3
  6
CONTINUOUS
 62
3
 10
7.39777268260033
 20
0.243993200071716
 30
0.0
 40
0.0984251968503911
 50
179.999999999998
 51
269.999999999999
  0
LINE
  8
3
  6
CONTINUOUS
 62
3
 10
7.39777268260033
 20
0.145568003221325
 30
0.0
 11
9.72060732826962
 21
0.145568003221323
 31
0.0
  0
ARC
  8
3
  6
CONTINUOUS
 62
3
 10
9.72060732826961
 20
0.243993200071715
 30
0.0
 40
0.0984251968503929
 50
270.000000000002
 51
2.22638827702446E-12
  0
LINE
  8
3
  6
CONTINUOUS
 62
3
 10
9.81903252512
 20
2.11288249685853
 30
0.0
 11
9.81903252512
 21
0.243993200071719
 31
0.0
  0
LINE
  8
3
  6
CONTINUOUS
 62
3
 10
8.97625867342187
 20
3.27454566546783
 30
0.0
 11
9.79948006030036
 21
2.17176043429729
 31
0.0
  0
LINE
  8
3
  6
CONTINUOUS
 62
3
 10
9.11485280416253
 20
3.45477756745778
 30
0.0
 11
10.4034944982012
 21
4.74341926149637
 31
0.0
  0
ARC
  8
3
  6
CONTINUOUS
 62
3
 10
8.15676953911872
 20
3.25587846656452
 30
0.0
 40
0.0885826771653555
 50
179.999999999999
 51
359.999999999999
  0
ARC
  8
3
  6
CONTINUOUS
 62
3
 10
8.15676953911872
 20
3.25587846656452
 30
0.0
 40
0.0885826771653555
 50
359.999999999999
 51
180
  0
ARC
  8
3
  6
CONTINUOUS
 62
3
 10
7.84118379444693
 20
3.67863631024937
 30
0.0
 40
0.0885826771653546
 50
179.999999999999
 51
359.999999999999
  0
ARC
  8
3
  6
CONTINUOUS
 62
3
 10
7.84118379444693
 20
3.67863631024937
 30
0.0
 40
0.0885826771653546
 50
359.999999999999
 51
180
  0
ARC
  8
3
  6
CONTINUOUS
 62
3
 10
9.01548940467681
 20
3.89690678167398
 30
0.0
 40
0.0885826771653599
 50
179.999999999999
 51
359.999999999999
  0
ARC
  8
3
  6
CONTINUOUS
 62
3
 10
9.01548940467681
 20
3.89690678167398
 30
0.0
 40
0.0885826771653599
 50
359.999999999999
 51
180
  0
ARC
  8
3
  6
CONTINUOUS
 62
3
 10
7.44335071540199
 20
5.89690678167398
 30
0.0
 40
0.0885826771653546
 50
179.999999999999
 51
359.999999999999
  0
ARC
  8
3
  6
CONTINUOUS
 62
3
 10
7.44335071540199
 20
5.89690678167398
 30
0.0
 40
0.0885826771653546
 50
359.999999999999
 51
180
  0
ARC
  8
3
  6
CONTINUOUS
 62
3
 10
7.44335071540199
 20
4.36934772655587
 30
0.0
 40
0.0885826771653546
 50
179.999999999999
 51
359.999999999999
  0
ARC
  8
3
  6
CONTINUOUS
 62
3
 10
7.44335071540199
 20
4.36934772655587
 30
0.0
 40
0.0885826771653546
 50
359.999999999999
 51
180
  0
ARC
  8
3
  6
CONTINUOUS
 62
3
 10
9.49059480989018
 20
5.89690678167398
 30
0.0
 40
0.0885826771653493
 50
179.999999999999
 51
359.999999999999
  0
ARC
  8
3
  6
CONTINUOUS
 62
3
 10
9.49059480989018
 20
5.89690678167398
 30
0.0
 40
0.0885826771653493
 50
359.999999999999
 51
180
  0
ARC
  8
3
  6
CONTINUOUS
 62
3
 10
9.49059480989018
 20
4.36934772655587
 30
0.0
 40
0.0885826771653493
 50
179.999999999999
 51
359.999999999999
  0
ARC
  8
3
  6
CONTINUOUS
 62
3
 10
9.49059480989018
 20
4.36934772655587
 30
0.0
 40
0.0885826771653493
 50
359.999999999999
 51
180
  0
ARC
  8
3
  6
CONTINUOUS
 62
3
 10
8.72681528233112
 20
5.13312725411492
 30
0.0
 40
0.562500000000001
 50
179.999999999999
 51
359.999999999999
  0
ARC
  8
3
  6
CONTINUOUS
 62
3
 10
8.72681528233112
 20
5.13312725411493
 30
0.0
 40
0.562500000000001
 50
359.999999999999
 51
180
  0
ARC
  8
3
  6
CONTINUOUS
 62
3
 10
8.12877682668993
 20
3.06302752930718
 30
0.0
 40
0.0984251968503919
 50
216.741079495986
 51
306.741079495986
  0
LINE
  8
3
  6
CONTINUOUS
 62
3
 10
9.6872680229195
 20
4.10360550425841
 30
0.0
 11
8.18765476412869
 21
2.98415479727643
 31
0.0
  0
LINE
  8
3
  6
CONTINUOUS
 62
3
 10
9.72681528233113
 20
4.18247823628916
 30
0.0
 11
9.72681528233113
 21
6.03470205726453
 31
0.0
  0
ARC
  8
3
  6
CONTINUOUS
 62
3
 10
9.62839008548072
 20
6.03470205726453
 30
0.0
 40
0.0984251968504011
 50
6.36110936292703E-13
 51
90
  0
LINE
  8
3
  6
CONTINUOUS
 62
3
 10
9.62839008548072
 20
6.13312725411493
 30
0.0
 11
7.30555543981145
 21
6.13312725411493
 31
0.0
  0
ARC
  8
3
  6
CONTINUOUS
 62
3
 10
7.30555543981144
 20
6.03470205726453
 30
0.0
 40
0.0984251968503976
 50
89.9999999999985
 51
180.000000000001
  0
LINE
  8
3
  6
CONTINUOUS
 62
3
 10
7.20713024296105
 20
4.16581276047773
 30
0.0
 11
7.20713024296105
 21
6.03470205726453
 31
0.0
  0
ARC
  8
3
  6
CONTINUOUS
 62
3
 10
7.30555543981144
 20
4.16581276047773
 30
0.0
 40
0.0984251968503947
 50
179.999999999999
 51
216.741079495988
  0
ARC
  8
3
  6
CONTINUOUS
 62
3
 10
6.82634504704101
 20
2.33525941919721
 30
0.0
 40
0.0885826771653497
 50
179.999999999999
 51
359.999999999999
  0
ARC
  8
3
  6
CONTINUOUS
 62
3
 10
6.82634504704101
 20
2.33525941919721
 30
0.0
 40
0.0885826771653497
 50
359.999999999999
 51
180
  0
ARC
  8
3
  6
CONTINUOUS
 62
3
 10
6.82634504704101
 20
2.79754529762177
 30
0.0
 40
0.0885826771653546
 50
179.999999999999
 51
359.999999999999
  0
ARC
  8
3
  6
CONTINUOUS
 62
3
 10
6.82634504704101
 20
2.79754529762177
 30
0.0
 40
0.0885826771653546
 50
359.999999999999
 51
180
  0
ARC
  8
3
  6
CONTINUOUS
 62
3
 10
6.82634504704101
 20
0.335259419197
 30
0.0
 40
0.0885826771653546
 50
179.999999999999
 51
359.999999999999
  0
ARC
  8
3
  6
CONTINUOUS
 62
3
 10
6.82634504704101
 20
0.335259419197002
 30
0.0
 40
0.0885826771653546
 50
359.999999999999
 51
180
  0
ARC
  8
3
  6
CONTINUOUS
 62
3
 10
6.96414032263156
 20
2.95678588872712
 30
0.0
 40
0.0984251968503931
 50
2.00374944932202E-12
 51
98.2589205040184
  0
LINE
  8
3
  6
CONTINUOUS
 62
3
 10
7.06256551948196
 20
2.95678588872713
 30
0.0
 11
7.06256551948196
 21
0.197464143606451
 31
0.0
  0
ARC
  8
3
  6
CONTINUOUS
 62
3
 10
6.96414032263156
 20
0.19746414360645
 30
0.0
 40
0.0984251968503943
 50
270.000000000002
 51
3.75305452412695E-13
  0
ARC
  8
3
  6
CONTINUOUS
 62
3
 10
6.82634504704101
 20
1.86281847431523
 30
0.0
 40
0.0885826771653546
 50
179.999999999999
 51
359.999999999999
  0
ARC
  8
3
  6
CONTINUOUS
 62
3
 10
6.82634504704101
 20
1.86281847431523
 30
0.0
 40
0.0885826771653546
 50
359.999999999999
 51
180
  0
ARC
  8
3
  6
CONTINUOUS
 62
3
 10
6.77414666092831
 20
4.90990177298311
 30
0.0
 40
0.0885826771653497
 50
179.999999999999
 51
359.999999999999
  0
ARC
  8
3
  6
CONTINUOUS
 62
3
 10
6.77414666092831
 20
4.90990177298311
 30
0.0
 40
0.0885826771653497
 50
359.999999999999
 51
180
  0
ARC
  8
3
  6
CONTINUOUS
 62
3
 10
6.91194193651885
 20
3.23129228298113
 30
0.0
 40
0.0984251968503985
 50
278.258920504012
 51
359.999999999999
  0
LINE
  8
3
  6
CONTINUOUS
 62
3
 10
7.01036713336925
 20
5.04769704857365
 30
0.0
 11
7.01036713336925
 21
3.23129228298113
 31
0.0
  0
ARC
  8
3
  6
CONTINUOUS
 62
3
 10
6.91194193651886
 20
5.04769704857366
 30
0.0
 40
0.0984251968503873
 50
359.999999999998
 51
90.0000000000014
  0
ARC
  8
3
  6
CONTINUOUS
 62
3
 10
6.77414666092829
 20
3.38234271786488
 30
0.0
 40
0.0885826771653551
 50
179.999999999999
 51
359.999999999999
  0
ARC
  8
3
  6
CONTINUOUS
 62
3
 10
6.77414666092829
 20
3.38234271786488
 30
0.0
 40
0.0885826771653551
 50
359.999999999999
 51
180
  0
LINE
  8
3
  6
CONTINUOUS
 62
3
 10
8.04990409465917
 20
3.00414959186842
 30
0.0
 11
7.22668270778069
 21
4.10693482303896
 31
0.0
  0
ARC
  8
3
  6
CONTINUOUS
 62
3
 10
4.53779272785781
 20
2.33525941919712
 30
0.0
 40
0.0885826771653604
 50
179.999999999999
 51
359.999999999999
  0
ARC
  8
3
  6
CONTINUOUS
 62
3
 10
4.53779272785781
 20
2.33525941919712
 30
0.0
 40
0.0885826771653604
 50
359.999999999999
 51
180
  0
ARC
  8
3
  6
CONTINUOUS
 62
3
 10
6.01036713336924
 20
4.14612224542404
 30
0.0
 40
0.562499999999995
 50
179.999999999999
 51
359.999999999999
  0
ARC
  8
3
  6
CONTINUOUS
 62
3
 10
6.01036713336924
 20
4.14612224542405
 30
0.0
 40
0.562499999999995
 50
359.999999999999
 51
180
  0
LINE
  8
3
  6
CONTINUOUS
 62
3
 10
3.35150768027714
 20
3.76684694194486
 30
0.0
 11
3.35150768027714
 21
4.8256395908938
 31
0.0
  0
LINE
  8
3
  6
CONTINUOUS
 62
3
 10
3.35150768027714
 20
4.8256395908938
 30
0.0
 11
3.44979041907297
 21
4.8256395908938
 31
0.0
  0
LINE
  8
3
  6
CONTINUOUS
 62
3
 10
3.44979041907297
 20
4.8256395908938
 30
0.0
 11
4.41845479227027
 21
3.64238408495451
 31
0.0
  0
LINE
  8
3
  6
CONTINUOUS
 62
3
 10
4.41845479227027
 20
3.64238408495451
 30
0.0
 11
4.41845479227027
 21
4.38830286236563
 31
0.0
  0
LINE
  8
3
  6
CONTINUOUS
 62
3
 10
4.13347776798892
 20
4.73894477326603
 30
0.0
 11
4.13347776798892
 21
4.81147657613282
 31
0.0
  0
LINE
  8
3
  6
CONTINUOUS
 62
3
 10
4.13347776798892
 20
4.81147657613282
 30
0.0
 11
4.78926826964842
 21
4.81147657613282
 31
0.0
  0
LINE
  8
3
  6
CONTINUOUS
 62
3
 10
4.78926826964842
 20
4.81147657613282
 30
0.0
 11
4.78926826964842
 21
4.73894477326603
 31
0.0
  0
LINE
  8
3
  6
CONTINUOUS
 62
3
 10
4.52789626996868
 20
4.39946160126822
 30
0.0
 11
4.52789626996867
 21
3.68701904056484
 31
0.0
  0
LINE
  8
3
  6
CONTINUOUS
 62
3
 10
4.81630675237388
 20
3.43723496205317
 30
0.0
 11
4.81630675237389
 21
3.36513234145187
 31
0.0
  0
LINE
  8
3
  6
CONTINUOUS
 62
3
 10
4.81630675237389
 20
3.36513234145187
 30
0.0
 11
4.36008600416443
 21
3.36513234145187
 31
0.0
  0
LINE
  8
3
  6
CONTINUOUS
 62
3
 10
4.36008600416443
 20
3.36513234145187
 30
0.0
 11
3.46094915797554
 21
4.46813076374566
 31
0.0
  0
LINE
  8
3
  6
CONTINUOUS
 62
3
 10
3.46094915797554
 20
4.46813076374566
 30
0.0
 11
3.46094915797554
 21
3.77972240990938
 31
0.0
  0
LINE
  8
3
  6
CONTINUOUS
 62
3
 10
3.74249272413302
 20
3.43723496205318
 30
0.0
 11
3.74249272413303
 21
3.36513234145187
 31
0.0
  0
LINE
  8
3
  6
CONTINUOUS
 62
3
 10
3.74249272413303
 20
3.36513234145187
 30
0.0
 11
3.09271077419031
 21
3.36513234145188
 31
0.0
  0
LINE
  8
3
  6
CONTINUOUS
 62
3
 10
3.09271077419031
 20
3.36513234145188
 30
0.0
 11
3.09271077419031
 21
3.43723496205319
 31
0.0
  0
LINE
  8
3
  6
CONTINUOUS
 62
3
 10
1.60808781890277
 20
3.75955084343165
 30
0.0
 11
1.60808781890277
 21
4.38830286236565
 31
0.0
  0
LINE
  8
3
  6
CONTINUOUS
 62
3
 10
2.78275967953238
 20
4.43036272438307
 30
0.0
 11
2.78275967953237
 21
3.57500246927353
 31
0.0
  0
LINE
  8
3
  6
CONTINUOUS
 62
3
 10
2.99262980735403
 20
3.43723496205318
 30
0.0
 11
2.99262980735403
 21
3.36513234145188
 31
0.0
  0
LINE
  8
3
  6
CONTINUOUS
 62
3
 10
2.99262980735403
 20
3.36513234145188
 30
0.0
 11
2.32653893132292
 21
3.36513234145188
 31
0.0
  0
LINE
  8
3
  6
CONTINUOUS
 62
3
 10
2.32653893132292
 20
3.36513234145188
 30
0.0
 11
2.32653893132291
 21
3.43723496205319
 31
0.0
  0
LINE
  8
3
  6
CONTINUOUS
 62
3
 10
2.54070088179941
 20
3.56470209490192
 30
0.0
 11
2.54070088179942
 21
4.36383947323306
 31
0.0
  0
LINE
  8
3
  6
CONTINUOUS
 62
3
 10
1.71924602566312
 20
4.36598538456048
 30
0.0
 11
1.71924602566311
 21
3.77285549366165
 31
0.0
  0
LINE
  8
3
  6
CONTINUOUS
 62
3
 10
2.00207713861704
 20
3.43723496205319
 30
0.0
 11
2.00207713861704
 21
3.36513234145188
 31
0.0
  0
LINE
  8
3
  6
CONTINUOUS
 62
3
 10
2.00207713861704
 20
3.36513234145188
 30
0.0
 11
1.34886173055045
 21
3.36513234145189
 31
0.0
  0
LINE
  8
3
  6
CONTINUOUS
 62
3
 10
1.34886173055045
 20
3.36513234145189
 30
0.0
 11
1.34886173055045
 21
3.4372349620532
 31
0.0
  0
ARC
  8
3
  6
CONTINUOUS
 62
3
 10
2.84222653916662
 20
2.90990177298301
 30
0.0
 40
0.0885826771653551
 50
179.999999999999
 51
359.999999999999
  0
ARC
  8
3
  6
CONTINUOUS
 62
3
 10
2.84222653916662
 20
2.90990177298301
 30
0.0
 40
0.0885826771653551
 50
359.999999999999
 51
180
  0
ARC
  8
3
  6
CONTINUOUS
 62
3
 10
2.27152197969072
 20
4.37434109074263
 30
0.0
 40
0.663581055160006
 50
171.921504503251
 51
178.79440557434
  0
ARC
  8
3
  6
CONTINUOUS
 62
3
 10
1.96127259241348
 20
4.41044399929367
 30
0.0
 40
0.351424714079654
 50
157.643503856605
 51
170.639499576832
  0
ARC
  8
3
  6
CONTINUOUS
 62
3
 10
1.98757497331237
 20
4.39985296986597
 30
0.0
 40
0.37977863828072
 50
145.656942183033
 51
157.673926976763
  0
ARC
  8
3
  6
CONTINUOUS
 62
3
 10
2.05070575752948
 20
4.35507993811897
 30
0.0
 40
0.457164713034414
 50
137.643504904943
 51
145.486384138527
  0
ARC
  8
3
  6
CONTINUOUS
 62
3
 10
2.02986927958319
 20
4.37962993597288
 30
0.0
 40
0.425246649815593
 50
129.761152898389
 51
138.195521260774
  0
ARC
  8
3
  6
CONTINUOUS
 62
3
 10
2.18665703463899
 20
4.16847294049758
 30
0.0
 40
0.687999868019585
 50
123.341723944221
 51
128.550656027834
  0
ARC
  8
3
  6
CONTINUOUS
 62
3
 10
2.16568011628681
 20
3.17969785023694
 30
0.0
 40
1.66665341646871
 50
86.3131754108297
 51
89.3389471852402
  0
ARC
  8
3
  6
CONTINUOUS
 62
3
 10
2.21401073227333
 20
4.03447546412228
 30
0.0
 40
0.810564996666063
 50
79.6130500267632
 51
85.8365447720692
  0
ARC
  8
3
  6
CONTINUOUS
 62
3
 10
2.22175108155536
 20
4.07697816944322
 30
0.0
 40
0.767363252024033
 50
73.0356114732378
 51
79.6086945479867
  0
ARC
  8
3
  6
CONTINUOUS
 62
3
 10
2.230872898556
 20
4.10762362322431
 30
0.0
 40
0.735389786683542
 50
67.629228356846
 51
73.0180380429201
  0
ARC
  8
3
  6
CONTINUOUS
 62
3
 10
2.31510299616317
 20
4.3039656901334
 30
0.0
 40
0.521776044782608
 50
60.3767108280387
 51
67.9758441318967
  0
ARC
  8
3
  6
CONTINUOUS
 62
3
 10
2.15786573075252
 20
4.06139940014059
 30
0.0
 40
0.810533055620864
 50
54.3018883996312
 51
59.1895474997809
  0
ARC
  8
3
  6
CONTINUOUS
 62
3
 10
2.16130430929108
 20
3.60028319588658
 30
0.0
 40
1.13192486045848
 50
90.8690351910367
 51
94.4218552718635
  0
ARC
  8
3
  6
CONTINUOUS
 62
3
 10
2.11736886325274
 20
4.22143177429328
 30
0.0
 40
0.509254160973087
 50
94.8823039379786
 51
102.783808084966
  0
ARC
  8
3
  6
CONTINUOUS
 62
3
 10
2.09798501614298
 20
4.30673930511123
 30
0.0
 40
0.42177210303883
 50
102.781079652941
 51
112.319245761399
  0
ARC
  8
3
  6
CONTINUOUS
 62
3
 10
2.10077293289062
 20
4.30535956402767
 30
0.0
 40
0.424112230212271
 50
112.597826013552
 51
120.050889765785
  0
ARC
  8
3
  6
CONTINUOUS
 62
3
 10
2.0400488616098
 20
4.40246050965754
 30
0.0
 40
0.309679729609097
 50
119.32358472276
 51
129.538386707484
  0
ARC
  8
3
  6
CONTINUOUS
 62
3
 10
2.14438601992437
 20
4.29841854595281
 30
0.0
 40
0.456559217887207
 50
131.325412665795
 51
138.243960385577
  0
ARC
  8
3
  6
CONTINUOUS
 62
3
 10
2.10092052154387
 20
4.28261247490661
 30
0.0
 40
0.490359465447338
 50
41.0454546172207
 51
48.9704739672607
  0
ARC
  8
3
  6
CONTINUOUS
 62
3
 10
2.23166013761769
 20
4.41792940281062
 30
0.0
 40
0.302615215841508
 50
50.8271343413495
 51
63.6946189988227
  0
ARC
  8
3
  6
CONTINUOUS
 62
3
 10
2.20266146593951
 20
4.36791681641218
 30
0.0
 40
0.360320023037612
 50
63.0862927486144
 51
73.878680410525
  0
ARC
  8
3
  6
CONTINUOUS
 62
3
 10
2.18728672939628
 20
4.29752556970166
 30
0.0
 40
0.432238774700926
 50
74.51261877515
 51
85.1240868499166
  0
ARC
  8
3
  6
CONTINUOUS
 62
3
 10
2.12683796034864
 20
3.55074683335622
 30
0.0
 40
1.18145757971653
 50
85.281831193713
 51
89.1606765346046
  0
ARC
  8
3
  6
CONTINUOUS
 62
3
 10
2.2016276559791
 20
4.18309683745736
 30
0.0
 40
0.687083291597082
 50
46.0709137194417
 51
51.3419033678847
  0
ARC
  8
3
  6
CONTINUOUS
 62
3
 10
2.42878840596163
 20
4.42717184780463
 30
0.0
 40
0.353750379346063
 50
34.8872523782456
 51
45.1417207347412
  0
ARC
  8
3
  6
CONTINUOUS
 62
3
 10
2.4125560663875
 20
4.41612205034335
 30
0.0
 40
0.373385580886204
 50
25.1479445503991
 51
34.8524630526428
  0
ARC
  8
3
  6
CONTINUOUS
 62
3
 10
2.4649377378884
 20
4.43761104457557
 30
0.0
 40
0.316849477181547
 50
12.1640655970771
 51
25.6545442877652
  0
ARC
  8
3
  6
CONTINUOUS
 62
3
 10
2.25909156662659
 20
4.41059912729966
 30
0.0
 40
0.524040747763737
 50
2.16217375643725
 51
10.307656664231
  0
ARC
  8
3
  6
CONTINUOUS
 62
3
 10
2.30107764153796
 20
3.89722197012425
 30
0.0
 40
0.978957496500055
 50
113.737481957682
 51
120.208570616498
  0
ARC
  8
3
  6
CONTINUOUS
 62
3
 10
2.15224059623496
 20
4.18940410461872
 30
0.0
 40
0.651846609330023
 50
102.373962028744
 51
112.098896999204
  0
ARC
  8
3
  6
CONTINUOUS
 62
3
 10
2.18244506006433
 20
4.09929126162281
 30
0.0
 40
0.746408212735157
 50
96.4821286803361
 51
103.155524227999
  0
ARC
  8
3
  6
CONTINUOUS
 62
3
 10
2.21610903346936
 20
3.62626532226442
 30
0.0
 40
1.22037381406203
 50
91.4653999303952
 51
95.5449128579803
  0
ARC
  8
3
  6
CONTINUOUS
 62
3
 10
4.74017123370212
 20
4.52444270827263
 30
0.0
 40
0.216914636964909
 50
131.455512343615
 51
146.474595570752
  0
ARC
  8
3
  6
CONTINUOUS
 62
3
 10
4.70946573163573
 20
4.56153663891776
 30
0.0
 40
0.171400027284057
 50
151.14961073
 51
170.275561367235
  0
ARC
  8
3
  6
CONTINUOUS
 62
3
 10
5.03699510803981
 20
4.49281209349812
 30
0.0
 40
0.505983902847915
 50
168.8703380884
 51
175.33605488981
  0
ARC
  8
3
  6
CONTINUOUS
 62
3
 10
6.22325559591264
 20
4.40641103690758
 30
0.0
 40
1.69537338964537
 50
175.685742782656
 51
180.234403424167
  0
ARC
  8
3
  6
CONTINUOUS
 62
3
 10
2.42217755524967
 20
4.37536099848364
 30
0.0
 40
1.99631918762689
 50
0.371443293319167
 51
2.82539992952492
  0
ARC
  8
3
  6
CONTINUOUS
 62
3
 10
3.78222869009317
 20
4.44324542301592
 30
0.0
 40
0.634575542966719
 50
2.75741552785422
 51
10.4797526115866
  0
ARC
  8
3
  6
CONTINUOUS
 62
3
 10
4.05514363595266
 20
4.49233509057049
 30
0.0
 40
0.357286784408941
 50
10.7006844088606
 51
17.888776273444
  0
ARC
  8
3
  6
CONTINUOUS
 62
3
 10
4.23113439554688
 20
4.55174611309205
 30
0.0
 40
0.171572908135148
 50
17.0621855271275
 51
32.0494864557911
  0
ARC
  8
3
  6
CONTINUOUS
 62
3
 10
4.18223876193921
 20
4.50642062808614
 30
0.0
 40
0.237396331037185
 50
35.0618069764203
 51
45.833776284423
  0
ARC
  8
3
  6
CONTINUOUS
 62
3
 10
3.17711704598302
 20
3.62073897286496
 30
0.0
 40
0.171813359663459
 50
307.975715270758
 51
321.924475687908
  0
ARC
  8
3
  6
CONTINUOUS
 62
3
 10
3.20134304037814
 20
3.58918697567949
 30
0.0
 40
0.133651697891044
 50
326.173155396243
 51
344.21710808949
  0
ARC
  8
3
  6
CONTINUOUS
 62
3
 10
3.0207821313203
 20
3.64854924434144
 30
0.0
 40
0.323650666338517
 50
342.799177121234
 51
350.228707254566
  0
ARC
  8
3
  6
CONTINUOUS
 62
3
 10
2.79681136892139
 20
3.68674882133248
 30
0.0
 40
0.550855508683319
 50
350.267205913956
 51
354.630668453587
  0
ARC
  8
3
  6
CONTINUOUS
 62
3
 10
1.62424685384095
 20
3.78297990786617
 30
0.0
 40
1.7273359996009
 50
355.092352456051
 51
359.464424054824
  0
ARC
  8
3
  6
CONTINUOUS
 62
3
 10
5.29335765047027
 20
3.78591633482411
 30
0.0
 40
1.83241896084729
 50
180.193671010628
 51
182.832156843449
  0
ARC
  8
3
  6
CONTINUOUS
 62
3
 10
4.07344483201335
 20
3.72544218811636
 30
0.0
 40
0.611008087029758
 50
182.821323364591
 51
190.736078113255
  0
ARC
  8
3
  6
CONTINUOUS
 62
3
 10
3.88019874671576
 20
3.6916384092145
 30
0.0
 40
0.414856842583302
 50
191.122133157939
 51
197.229630552898
  0
ARC
  8
3
  6
CONTINUOUS
 62
3
 10
3.63819949978182
 20
3.61206296693137
 30
0.0
 40
0.160205063943695
 50
195.68465399539
 51
211.525354445488
  0
ARC
  8
3
  6
CONTINUOUS
 62
3
 10
3.66291492362886
 20
3.64322967938766
 30
0.0
 40
0.198039742315139
 50
215.477069753928
 51
228.195212935636
  0
ARC
  8
3
  6
CONTINUOUS
 62
3
 10
3.34278987328688
 20
3.78715646483602
 30
0.0
 40
1.62360683138916
 50
180.50467629902
 51
183.438158091828
  0
ARC
  8
3
  6
CONTINUOUS
 62
3
 10
2.32269174092685
 20
3.72728971914515
 30
0.0
 40
0.601756103570008
 50
183.573916069905
 51
191.490663270789
  0
ARC
  8
3
  6
CONTINUOUS
 62
3
 10
2.18608560571438
 20
3.70247601456764
 30
0.0
 40
0.462953907232512
 50
191.850190735576
 51
197.240608739731
  0
ARC
  8
3
  6
CONTINUOUS
 62
3
 10
1.91048057877834
 20
3.63297615657646
 30
0.0
 40
0.184018932329573
 50
215.79989278047
 51
229.302031199471
  0
ARC
  8
3
  6
CONTINUOUS
 62
3
 10
1.43091690413187
 20
3.6170374963451
 30
0.0
 40
0.172868441565875
 50
309.243722650992
 51
322.813332844967
  0
ARC
  8
3
  6
CONTINUOUS
 62
3
 10
1.45383751576687
 20
3.58713070027473
 30
0.0
 40
0.136896017832466
 50
326.992500899229
 51
344.257960129472
  0
ARC
  8
3
  6
CONTINUOUS
 62
3
 10
1.25304768728155
 20
3.65306594422298
 30
0.0
 40
0.348159496081162
 50
342.779578946797
 51
349.548561062236
  0
ARC
  8
3
  6
CONTINUOUS
 62
3
 10
0.105795558768968
 20
3.77359732042158
 30
0.0
 40
1.50235774078863
 50
354.537700112434
 51
359.463805521076
  0
ARC
  8
3
  6
CONTINUOUS
 62
3
 10
2.20301475490783
 20
4.28102029932207
 30
0.0
 40
0.512545648995176
 50
141.159617014324
 51
149.185697952568
  0
ARC
  8
3
  6
CONTINUOUS
 62
3
 10
2.04594054594793
 20
4.38737980292882
 30
0.0
 40
0.323345110620974
 50
151.115685611351
 51
163.849289754105
  0
ARC
  8
3
  6
CONTINUOUS
 62
3
 10
2.07611354795257
 20
4.37348385207197
 30
0.0
 40
0.356227073233739
 50
163.053544928619
 51
172.133446244372
  0
ARC
  8
3
  6
CONTINUOUS
 62
3
 10
2.32858116266417
 20
4.35100742013916
 30
0.0
 40
0.609519107146975
 50
173.289276937257
 51
178.591374506075
  0
ARC
  8
3
  6
CONTINUOUS
 62
3
 10
1.6266355196679
 20
4.338966152157
 30
0.0
 40
0.914403722843453
 50
1.55873395267196
 51
6.03681801717059
  0
ARC
  8
3
  6
CONTINUOUS
 62
3
 10
2.12622915976336
 20
4.38756085680007
 30
0.0
 40
0.412491508296574
 50
6.62340230111925
 51
16.5585176777674
  0
ARC
  8
3
  6
CONTINUOUS
 62
3
 10
2.24172084972846
 20
4.42322632870012
 30
0.0
 40
0.291627614928203
 50
16.3100352971413
 51
27.3472931723998
  0
ARC
  8
3
  6
CONTINUOUS
 62
3
 10
2.08685436772427
 20
4.32842168256161
 30
0.0
 40
0.47291824143418
 50
28.9311808476363
 51
35.7323991496544
  0
ARC
  8
3
  6
CONTINUOUS
 62
3
 10
4.89101489854113
 20
3.92843573280904
 30
0.0
 40
0.504017266209191
 50
233.952005278869
 51
241.581608944212
  0
ARC
  8
3
  6
CONTINUOUS
 62
3
 10
4.85106655280472
 20
3.89589058971175
 30
0.0
 40
0.456805060396279
 50
244.047345665279
 51
252.478162175684
  0
ARC
  8
3
  6
CONTINUOUS
 62
3
 10
4.87809113025897
 20
3.92536182813124
 30
0.0
 40
0.493334553118291
 50
250.51605268436
 51
256.64977736573
  0
ARC
  8
3
  6
CONTINUOUS
 62
3
 10
4.87497429725825
 20
3.98500619879216
 30
0.0
 40
0.550903907372775
 50
258.398334414716
 51
263.886245283256
  0
ARC
  8
3
  6
CONTINUOUS
 62
3
 10
4.90052279335652
 20
3.69855398997501
 30
0.0
 40
0.372805017388463
 50
181.773070062793
 51
189.688194038891
  0
ARC
  8
3
  6
CONTINUOUS
 62
3
 10
4.78087402307863
 20
3.68742892002937
 30
0.0
 40
0.253156619886262
 50
191.764950392815
 51
203.443071799147
  0
ARC
  8
3
  6
CONTINUOUS
 62
3
 10
4.7202544849007
 20
3.65465048349849
 30
0.0
 40
0.1845963825639
 50
201.595705675319
 51
214.158578549048
  0
ARC
  8
3
  6
CONTINUOUS
 62
3
 10
4.75899110268706
 20
3.69528648895416
 30
0.0
 40
0.239761346279184
 50
216.998641258858
 51
226.653445316642
  0
ARC
  8
3
  6
CONTINUOUS
 62
3
 10
2.45928951841345
 20
3.5369566596524
 30
0.0
 40
0.0768170710460592
 50
310.332303455658
 51
337.817527994417
  0
ARC
  8
3
  6
CONTINUOUS
 62
3
 10
2.42399536846259
 20
3.55216929131098
 30
0.0
 40
0.115245159080792
 50
337.440963131521
 51
351.871257080206
  0
ARC
  8
3
  6
CONTINUOUS
 62
3
 10
2.22938981000472
 20
3.57844203705915
 30
0.0
 40
0.311614090439934
 50
352.149068344946
 51
357.472315760322
  0
ARC
  8
3
  6
CONTINUOUS
 62
3
 10
4.18231688517133
 20
4.42818575849471
 30
0.0
 40
0.298492211537637
 50
56.3677842600137
 51
64.4085362056611
  0
ARC
  8
3
  6
CONTINUOUS
 62
3
 10
4.20626451111204
 20
4.45009381593263
 30
0.0
 40
0.268663481648378
 50
66.9982604403867
 51
75.961450623896
  0
ARC
  8
3
  6
CONTINUOUS
 62
3
 10
3.89875811280333
 20
3.3393333770505
 30
0.0
 40
1.42113528304147
 50
74.7972009171014
 51
76.4902554866215
  0
ARC
  8
3
  6
CONTINUOUS
 62
3
 10
4.02688336865763
 20
3.89107101067553
 30
0.0
 40
0.854743538922597
 50
76.2015054306803
 51
79.5186423817009
  0
ARC
  8
3
  6
CONTINUOUS
 62
3
 10
3.98414253125476
 20
3.5857433420325
 30
0.0
 40
1.16283037127674
 50
80.1848804234153
 51
82.6212302396627
  0
ARC
  8
3
  6
CONTINUOUS
 62
3
 10
2.97581018283107
 20
3.5781349787626
 30
0.0
 40
0.193075916259855
 50
180.929621111544
 51
191.831628081217
  0
ARC
  8
3
  6
CONTINUOUS
 62
3
 10
2.87141342499417
 20
3.5582600260563
 30
0.0
 40
0.0868439633043492
 50
193.122296533196
 51
217.457981443905
  0
ARC
  8
3
  6
CONTINUOUS
 62
3
 10
2.87864083038237
 20
3.5674803444958
 30
0.0
 40
0.0982322591751326
 50
219.165574602503
 51
236.020589033422
  0
ARC
  8
3
  6
CONTINUOUS
 62
3
 10
2.98416476509589
 20
3.72421268234793
 30
0.0
 40
0.28717759967755
 50
236.039602012166
 51
241.79168657414
  0
ARC
  8
3
  6
CONTINUOUS
 62
3
 10
2.02507468876428
 20
3.92729010700772
 30
0.0
 40
0.493193958735152
 50
241.598755853029
 51
248.765430317342
  0
ARC
  8
3
  6
CONTINUOUS
 62
3
 10
1.97358058316836
 20
3.83405273674006
 30
0.0
 40
0.387897545563541
 50
250.868492024681
 51
259.995899233045
  0
ARC
  8
3
  6
CONTINUOUS
 62
3
 10
2.22450109271878
 20
5.19407773550219
 30
0.0
 40
1.77086663336839
 50
259.645255696578
 51
262.784179181836
  0
ARC
  8
3
  6
CONTINUOUS
 62
3
 10
3.80874754314377
 20
4.06308083971431
 30
0.0
 40
0.631843528125394
 50
243.913231442938
 51
249.508807522585
  0
ARC
  8
3
  6
CONTINUOUS
 62
3
 10
3.78388029765876
 20
4.05353491670999
 30
0.0
 40
0.614520585955183
 50
251.369975441933
 51
257.132379558346
  0
ARC
  8
3
  6
CONTINUOUS
 62
3
 10
3.83947978996431
 20
4.20771152531961
 30
0.0
 40
0.777461202357849
 50
255.668467748777
 51
259.246282554178
  0
ARC
  8
3
  6
CONTINUOUS
 62
3
 10
3.82929454550568
 20
4.23965733671539
 30
0.0
 40
0.807103552707238
 50
260.380193355583
 51
263.825707143644
  0
ARC
  8
3
  6
CONTINUOUS
 62
3
 10
1.21182412516449
 20
4.90294013558472
 30
0.0
 40
1.4720974699411
 50
275.341399704804
 51
277.501565245672
  0
ARC
  8
3
  6
CONTINUOUS
 62
3
 10
1.31119241507828
 20
4.12030923323129
 30
0.0
 40
0.683201801955849
 50
277.808738273258
 51
282.46570848761
  0
ARC
  8
3
  6
CONTINUOUS
 62
3
 10
1.39408539247853
 20
3.76130528973329
 30
0.0
 40
0.314787153262325
 50
281.839502492446
 51
289.782761725824
  0
ARC
  8
3
  6
CONTINUOUS
 62
3
 10
1.34839038490763
 20
3.85185120184033
 30
0.0
 40
0.415638652356344
 50
291.486405793746
 51
297.494118675557
  0
ARC
  8
3
  6
CONTINUOUS
 62
3
 10
4.90064372122392
 20
3.84316765488186
 30
0.0
 40
0.902674435793047
 50
97.0874350059969
 51
100.652340792915
  0
ARC
  8
3
  6
CONTINUOUS
 62
3
 10
4.9648089832863
 20
3.63992430881556
 30
0.0
 40
1.11456775273599
 50
101.963095870132
 51
104.851441168554
  0
ARC
  8
3
  6
CONTINUOUS
 62
3
 10
4.77565235996322
 20
4.29837482930544
 30
0.0
 40
0.429860364743245
 50
102.976782040281
 51
108.861661904781
  0
ARC
  8
3
  6
CONTINUOUS
 62
3
 10
4.77852933710047
 20
4.33798338299948
 30
0.0
 40
0.393615260021328
 50
111.123090330033
 51
117.534245763461
  0
ARC
  8
3
  6
CONTINUOUS
 62
3
 10
2.98271376005537
 20
4.43906859074571
 30
0.0
 40
1.00785413761011
 50
276.26573206044
 51
279.400830814467
  0
ARC
  8
3
  6
CONTINUOUS
 62
3
 10
3.00936911603678
 20
4.20455382916343
 30
0.0
 40
0.772228471879037
 50
280.29223849773
 51
284.387620874359
  0
ARC
  8
3
  6
CONTINUOUS
 62
3
 10
3.09729291622295
 20
3.89464802291896
 30
0.0
 40
0.45026881488219
 50
283.349841599672
 51
288.867643250095
  0
ARC
  8
3
  6
CONTINUOUS
 62
3
 10
3.06195156773717
 20
3.95653791140627
 30
0.0
 40
0.52043536531289
 50
290.346627107678
 51
295.113934915749
  0
ARC
  8
3
  6
CONTINUOUS
 62
3
 10
3.01671528646665
 20
3.84617728122153
 30
0.0
 40
0.411065028984058
 50
245.832744135599
 51
251.63825610736
  0
ARC
  8
3
  6
CONTINUOUS
 62
3
 10
2.97993727178704
 20
3.76568148368095
 30
0.0
 40
0.323223017900521
 50
253.331773595277
 51
260.728518409934
  0
ARC
  8
3
  6
CONTINUOUS
 62
3
 10
3.17486165559462
 20
4.91350140722658
 30
0.0
 40
1.4874713177584
 50
260.441726030727
 51
262.962696816712
  0
ARC
  8
3
  6
CONTINUOUS
 62
3
 10
2.23694850383953
 20
4.52618705817571
 30
0.0
 40
1.09263127922748
 50
274.703254261235
 51
279.165145566897
  0
ARC
  8
3
  6
CONTINUOUS
 62
3
 10
2.21188908268657
 20
4.52153449720149
 30
0.0
 40
1.09232691543787
 50
280.502243395848
 51
284.009198326153
  0
ARC
  8
3
  6
CONTINUOUS
 62
3
 10
0.415878944392858
 20
2.28837530345302
 30
0.0
 40
0.098425196850397
 50
179.999999999999
 51
278.258920504015
  0
ARC
  8
3
  6
CONTINUOUS
 62
3
 10
0.55367421998341
 20
2.90990177298293
 30
0.0
 40
0.0885826771653559
 50
179.999999999999
 51
359.999999999999
  0
LINE
  8
3
  6
CONTINUOUS
 62
3
 10
4.54089946922879
 20
0.419521601286329
 30
0.0
 11
4.63918220802461
 21
0.419521601286329
 31
0.0
  0
LINE
  8
3
  6
CONTINUOUS
 62
3
 10
4.63918220802461
 20
0.419521601286329
 30
0.0
 11
5.6078465812219
 21
1.60277710722561
 31
0.0
  0
LINE
  8
3
  6
CONTINUOUS
 62
3
 10
5.6078465812219
 20
1.60277710722561
 30
0.0
 11
5.6078465812219
 21
0.856858329814488
 31
0.0
  0
LINE
  8
3
  6
CONTINUOUS
 62
3
 10
5.32286955694055
 20
0.506216418914091
 30
0.0
 11
5.32286955694055
 21
0.433684616047301
 31
0.0
  0
LINE
  8
3
  6
CONTINUOUS
 62
3
 10
5.32286955694055
 20
0.433684616047301
 30
0.0
 11
5.97866005860005
 21
0.433684616047302
 31
0.0
  0
LINE
  8
3
  6
CONTINUOUS
 62
3
 10
5.97866005860005
 20
0.433684616047302
 30
0.0
 11
5.97866005860005
 21
0.50621641891409
 31
0.0
  0
LINE
  8
3
  6
CONTINUOUS
 62
3
 10
5.71728805892031
 20
0.845699590911905
 30
0.0
 11
5.71728805892031
 21
1.55814215161528
 31
0.0
  0
LINE
  8
3
  6
CONTINUOUS
 62
3
 10
6.00569854132554
 20
1.80792623012695
 30
0.0
 11
6.00569854132554
 21
1.88002885072825
 31
0.0
  0
LINE
  8
3
  6
CONTINUOUS
 62
3
 10
6.00569854132554
 20
1.88002885072825
 30
0.0
 11
5.54947779311609
 21
1.88002885072825
 31
0.0
  0
ARC
  8
3
  6
CONTINUOUS
 62
3
 10
5.90636340506679
 20
0.712991740342833
 30
0.0
 40
0.196148913285347
 50
225.02208788174
 51
232.131529205933
  0
ARC
  8
3
  6
CONTINUOUS
 62
3
 10
5.85103536814778
 20
0.653222002546089
 30
0.0
 40
0.114803422201663
 50
211.065116531915
 51
223.468863496532
  0
ARC
  8
3
  6
CONTINUOUS
 62
3
 10
5.8908125952118
 20
0.677254300963348
 30
0.0
 40
0.161276831977725
 50
201.631717407399
 51
211.085583331495
  0
ARC
  8
3
  6
CONTINUOUS
 62
3
 10
5.93065945055982
 20
0.694113681158516
 30
0.0
 40
0.204534766749798
 50
193.878240225497
 51
201.906311396011
  0
ARC
  8
3
  6
CONTINUOUS
 62
3
 10
6.04747751886425
 20
0.72155863110757
 30
0.0
 40
0.324528499995739
 50
190.766395804952
 51
193.634775031508
  0
ARC
  8
3
  6
CONTINUOUS
 62
3
 10
6.08126746754215
 20
0.731343144597541
 30
0.0
 40
0.359566578773021
 50
188.273156729539
 51
191.292010834841
  0
ARC
  8
3
  6
CONTINUOUS
 62
3
 10
6.22245071178587
 20
0.74558218839952
 30
0.0
 40
0.501368119287053
 50
185.118928229843
 51
187.561609203334
  0
ARC
  8
3
  6
CONTINUOUS
 62
3
 10
6.78054612556699
 20
0.808884219665812
 30
0.0
 40
1.06296829854297
 50
184.555770973945
 51
185.833267080715
  0
ARC
  8
3
  6
CONTINUOUS
 62
3
 10
6.71750576965409
 20
0.79441056128404
 30
0.0
 40
0.999021915003495
 50
182.499205963247
 51
184.015334066424
  0
ARC
  8
3
  6
CONTINUOUS
 62
3
 10
7.72541823079412
 20
0.853970797869103
 30
0.0
 40
2.00863303978818
 50
182.109569353499
 51
182.94278103217
  0
ARC
  8
3
  6
CONTINUOUS
 62
3
 10
7.07286909183126
 20
0.823460869498902
 30
0.0
 40
1.35541851103158
 50
180.502380664644
 51
181.836009940159
  0
ARC
  8
3
  6
CONTINUOUS
 62
3
 10
10.9489605027206
 20
0.861541952701574
 30
0.0
 40
5.23169642667118
 50
180.173537849623
 51
180.547179189899
  0
ARC
  8
3
  6
CONTINUOUS
 62
3
 10
3.49477435919258
 20
0.865760805430533
 30
0.0
 40
2.11309097522658
 50
358.158348510707
 51
359.758611534035
  0
ARC
  8
3
  6
CONTINUOUS
 62
3
 10
4.60186715774394
 20
0.834433368622479
 30
0.0
 40
1.00557230548157
 50
354.962392656882
 51
357.914841248305
  0
ARC
  8
3
  6
CONTINUOUS
 62
3
 10
4.9473428746244
 20
0.801877677599099
 30
0.0
 40
0.658575673434259
 50
351.214023182893
 51
355.144106296138
  0
ARC
  8
3
  6
CONTINUOUS
 62
3
 10
5.1829300834894
 20
0.765969888565001
 30
0.0
 40
0.42026847939658
 50
345.980529202351
 51
351.145502905381
  0
ARC
  8
3
  6
CONTINUOUS
 62
3
 10
5.34362996424682
 20
0.72477257185259
 30
0.0
 40
0.254377278758257
 50
338.810808652902
 51
346.214011333047
  0
ARC
  8
3
  6
CONTINUOUS
 62
3
 10
5.36916407657232
 20
0.71739433000839
 30
0.0
 40
0.227914747057236
 50
330.927700886569
 51
338.219239444865
  0
ARC
  8
3
  6
CONTINUOUS
 62
3
 10
5.45316586949498
 20
0.667456229271762
 30
0.0
 40
0.130261669582373
 50
320.712708662557
 51
332.170729450143
  0
ARC
  8
3
  6
CONTINUOUS
 62
3
 10
5.42786246109163
 20
0.697411299946367
 30
0.0
 40
0.168965777069017
 50
310.24910484652
 51
318.282388923566
  0
ARC
  8
3
  6
CONTINUOUS
 62
3
 10
6.08505437871956
 20
1.3337537990551
 30
0.0
 40
0.49317693810885
 50
124.472368357225
 51
127.648925253938
  0
ARC
  8
3
  6
CONTINUOUS
 62
3
 10
5.95348387626985
 20
1.52042294988275
 30
0.0
 40
0.264831892453466
 50
117.491409420743
 51
123.863773062822
  0
ARC
  8
3
  6
CONTINUOUS
 62
3
 10
6.01120733112275
 20
1.40608167096478
 30
0.0
 40
0.392910986506012
 50
112.500045774409
 51
117.261103459378
  0
ARC
  8
3
  6
CONTINUOUS
 62
3
 10
6.08085323530126
 20
1.24746864206036
 30
0.0
 40
0.566114389432375
 50
109.307038389003
 51
112.868695737323
  0
ARC
  8
3
  6
CONTINUOUS
 62
3
 10
6.15008114327583
 20
1.03766804688053
 30
0.0
 40
0.787015058896818
 50
106.503468392128
 51
109.013254120946
  0
ARC
  8
3
  6
CONTINUOUS
 62
3
 10
6.07489728174476
 20
1.31124759559054
 30
0.0
 40
0.503380020812066
 50
103.647601285628
 51
107.143929478431
  0
ARC
  8
3
  6
CONTINUOUS
 62
3
 10
6.0224631851708
 20
1.51871145903184
 30
0.0
 40
0.289408962660579
 50
97.9330726559242
 51
103.250518263567
  0
ARC
  8
3
  6
CONTINUOUS
 62
3
 10
6.05661728297669
 20
1.24407519652235
 30
0.0
 40
0.566145465593648
 50
95.160352474035
 51
97.5201883667453
  0
ARC
  8
3
  6
CONTINUOUS
 62
3
 10
6.08488386805363
 20
1.54800586804549
 30
0.0
 40
0.367735534232118
 50
171.096841276288
 51
178.420495759173
  0
ARC
  8
3
  6
CONTINUOUS
 62
3
 10
5.97110045788297
 20
1.55707536266349
 30
0.0
 40
0.254066755352035
 50
158.133982356492
 51
169.14482810966
  0
ARC
  8
3
  6
CONTINUOUS
 62
3
 10
5.96866297353214
 20
1.56291624085279
 30
0.0
 40
0.249670027699743
 50
153.631688066379
 51
159.168555079676
  0
ARC
  8
3
  6
CONTINUOUS
 62
3
 10
5.91202609571106
 20
1.58958644525398
 30
0.0
 40
0.187084732992743
 50
146.32086474468
 51
153.245273832539
  0
ARC
  8
3
  6
CONTINUOUS
 62
3
 10
5.87351667466195
 20
1.61652274856617
 30
0.0
 40
0.140105581768597
 50
138.110275683676
 51
146.753484193128
  0
ARC
  8
3
  6
CONTINUOUS
 62
3
 10
5.92880484849815
 20
1.56024921724607
 30
0.0
 40
0.218894209684265
 50
131.483000319603
 51
136.807159942616
  0
ARC
  8
3
  6
CONTINUOUS
 62
3
 10
5.41833557159012
 20
0.724428502707118
 30
0.0
 40
0.196006862147678
 50
301.491568179626
 51
307.269891962512
  0
ARC
  8
3
  6
CONTINUOUS
 62
3
 10
5.44461752233176
 20
0.69128192668938
 30
0.0
 40
0.154097551341556
 50
290.089900213781
 51
299.595649833571
  0
ARC
  8
3
  6
CONTINUOUS
 62
3
 10
5.34596539853842
 20
0.944764776857865
 30
0.0
 40
0.426080161450675
 50
286.513909594533
 51
290.839895275298
  0
ARC
  8
3
  6
CONTINUOUS
 62
3
 10
5.26462035134911
 20
1.21932288120504
 30
0.0
 40
0.712435138345035
 50
283.436638341903
 51
286.509388978104
  0
ARC
  8
3
  6
CONTINUOUS
 62
3
 10
5.11402205520835
 20
1.84224287505783
 30
0.0
 40
1.35329986705372
 50
281.898547386304
 51
283.509643984692
  0
ARC
  8
3
  6
CONTINUOUS
 62
3
 10
4.81658544698846
 20
3.24411771037018
 30
0.0
 40
2.78638033904989
 50
281.304626026436
 51
281.939764765487
  0
ARC
  8
3
  6
CONTINUOUS
 62
3
 10
5.29601147032808
 20
0.825722036771734
 30
0.0
 40
0.320948896873026
 50
277.768683775029
 51
282.007849697915
  0
ARC
  8
3
  6
CONTINUOUS
 62
3
 10
5.30109269184507
 20
0.837395409311261
 30
0.0
 40
0.331894179428911
 50
273.762387635902
 51
276.626661166511
  0
ARC
  8
3
  6
CONTINUOUS
 62
3
 10
6.02540847722831
 20
1.02043795291643
 30
0.0
 40
0.516342135290119
 50
262.817573291756
 51
264.80545987085
  0
ARC
  8
3
  6
CONTINUOUS
 62
3
 10
6.01768246859427
 20
0.920605970213977
 30
0.0
 40
0.416355420493943
 50
258.921112791791
 51
262.154500196827
  0
ARC
  8
3
  6
CONTINUOUS
 62
3
 10
6.09604938441063
 20
1.3515221253783
 30
0.0
 40
0.854320198980071
 50
257.391705707345
 51
259.316551338223
  0
ARC
  8
3
  6
CONTINUOUS
 62
3
 10
6.17466705926057
 20
1.67892147316992
 30
0.0
 40
1.19099699450142
 50
255.481296301562
 51
257.138732797743
  0
ARC
  8
3
  6
CONTINUOUS
 62
3
 10
6.14832476498248
 20
1.60753725534296
 30
0.0
 40
1.11531438045493
 50
254.125755815714
 51
255.871822533682
  0
ARC
  8
3
  6
CONTINUOUS
 62
3
 10
5.97204883557548
 20
0.986217581877542
 30
0.0
 40
0.469473081927621
 50
250.78059787801
 51
254.07724557675
  0
ARC
  8
3
  6
CONTINUOUS
 62
3
 10
5.8646835596067
 20
0.683342431114419
 30
0.0
 40
0.14814497669607
 50
243.423804826339
 51
251.428879747578
  0
LINE
  8
3
  6
CONTINUOUS
 62
3
 10
5.54947779311609
 20
1.88002885072825
 30
0.0
 11
4.6503409469272
 21
0.77703042843447
 31
0.0
  0
LINE
  8
3
  6
CONTINUOUS
 62
3
 10
4.6503409469272
 20
0.77703042843447
 30
0.0
 11
4.6503409469272
 21
1.46543878227074
 31
0.0
  0
ARC
  8
3
  6
CONTINUOUS
 62
3
 10
7.0276576296999
 20
1.45225847549935
 30
0.0
 40
2.37735321958602
 50
178.249631671071
 51
179.682344292308
  0
ARC
  8
3
  6
CONTINUOUS
 62
3
 10
5.53934586632158
 20
1.4962423025641
 30
0.0
 40
0.88839367403111
 50
174.783080834017
 51
178.152695474686
  0
ARC
  8
3
  6
CONTINUOUS
 62
3
 10
4.84737344304911
 20
1.52523570693462
 30
0.0
 40
0.258052391260821
 50
109.387543055602
 51
114.945597870157
  0
ARC
  8
3
  6
CONTINUOUS
 62
3
 10
4.95312227779446
 20
1.24164062190877
 30
0.0
 40
0.560698217341432
 50
106.909522226627
 51
109.960688117749
  0
ARC
  8
3
  6
CONTINUOUS
 62
3
 10
5.04678870683767
 20
0.917168159713631
 30
0.0
 40
0.898398748970641
 50
104.404475046018
 51
106.605780577776
  0
LINE
  8
3
  6
CONTINUOUS
 62
3
 10
4.93188451308467
 20
1.80792623012694
 30
0.0
 11
4.93188451308467
 21
1.88002885072825
 31
0.0
  0
ARC
  8
3
  6
CONTINUOUS
 62
3
 10
5.27250049110314
 20
1.52000505931976
 30
0.0
 40
0.620493294491366
 50
170.550995932341
 51
174.727283880132
  0
ARC
  8
3
  6
CONTINUOUS
 62
3
 10
5.0772647522638
 20
1.55336048505155
 30
0.0
 40
0.422431383561595
 50
165.458444550579
 51
170.665816031168
  0
ARC
  8
3
  6
CONTINUOUS
 62
3
 10
4.93080697562857
 20
1.59155486048596
 30
0.0
 40
0.271075397362463
 50
158.582322643222
 51
165.499465840549
  0
ARC
  8
3
  6
CONTINUOUS
 62
3
 10
4.87670626650261
 20
1.61197070180823
 30
0.0
 40
0.213256894296933
 50
150.84491530796
 51
158.380037147924
  0
ARC
  8
3
  6
CONTINUOUS
 62
3
 10
4.77988502911726
 20
1.66831296346613
 30
0.0
 40
0.101274332669264
 50
138.357909378763
 51
151.994712734158
  0
ARC
  8
3
  6
CONTINUOUS
 62
3
 10
4.7986467621552
 20
1.64289467030662
 30
0.0
 40
0.132346189487801
 50
126.300059235263
 51
135.529322894885
  0
ARC
  8
3
  6
CONTINUOUS
 62
3
 10
4.88239439663599
 20
1.46543064798994
 30
0.0
 40
0.327113723873007
 50
116.089900171509
 51
119.705124016303
  0
ARC
  8
3
  6
CONTINUOUS
 62
3
 10
5.09971036761532
 20
0.746601875844269
 30
0.0
 40
1.07680431859784
 50
103.026938709318
 51
104.873972606995
  0
ARC
  8
3
  6
CONTINUOUS
 62
3
 10
5.02504687603801
 20
1.05330922717695
 30
0.0
 40
0.761169046687235
 50
100.512338140979
 51
102.755140930226
  0
ARC
  8
3
  6
CONTINUOUS
 62
3
 10
4.96998151207086
 20
1.36498489844194
 30
0.0
 40
0.444686450708225
 50
97.5853955779085
 51
100.862833580388
  0
ARC
  8
3
  6
CONTINUOUS
 62
3
 10
4.98216884579732
 20
1.22523675164653
 30
0.0
 40
0.584855134315961
 50
94.9324352745194
 51
96.9614261209909
  0
LINE
  8
3
  6
CONTINUOUS
 62
3
 10
4.54089946922878
 20
1.47831425023526
 30
0.0
 11
4.54089946922879
 21
0.419521601286329
 31
0.0
  0
LINE
  8
3
  6
CONTINUOUS
 62
3
 10
4.93188451308467
 20
1.88002885072825
 30
0.0
 11
4.28210256314196
 21
1.88002885072825
 31
0.0
  0
LINE
  8
3
  6
CONTINUOUS
 62
3
 10
4.28210256314196
 20
1.88002885072825
 30
0.0
 11
4.28210256314196
 21
1.80792623012694
 31
0.0
  0
ARC
  8
3
  6
CONTINUOUS
 62
3
 10
4.38171206897216
 20
1.63302176275091
 30
0.0
 40
0.155823412470915
 50
45.5165432101426
 51
54.4859426437846
  0
ARC
  8
3
  6
CONTINUOUS
 62
3
 10
4.41653592902289
 20
1.67435912560272
 30
0.0
 40
0.102013228198838
 50
28.308598568681
 51
43.2005223595914
  0
ARC
  8
3
  6
CONTINUOUS
 62
3
 10
4.35819950926209
 20
1.64155511158061
 30
0.0
 40
0.168933699417396
 50
18.5394032275616
 51
28.7203045189875
  0
ARC
  8
3
  6
CONTINUOUS
 62
3
 10
4.26642327040489
 20
1.61082830780641
 30
0.0
 40
0.265717047063582
 50
11.1050449331481
 51
18.5282701480192
  0
ARC
  8
3
  6
CONTINUOUS
 62
3
 10
4.05783001720839
 20
1.56921617640561
 30
0.0
 40
0.478419849281358
 50
6.50083138391082
 51
11.1832154830573
  0
ARC
  8
3
  6
CONTINUOUS
 62
3
 10
3.51412045979355
 20
1.50602696723755
 30
0.0
 40
1.02578834706521
 50
4.12531220826859
 51
6.56905864776497
  0
ARC
  8
3
  6
CONTINUOUS
 62
3
 10
3.31781650107895
 20
1.48513724321068
 30
0.0
 40
1.22310488558423
 50
2.17412877061325
 51
4.43961687788361
  0
ARC
  8
3
  6
CONTINUOUS
 62
3
 10
2.72370830505478
 20
1.47562182573833
 30
0.0
 40
1.81719313277985
 50
0.0850595512133517
 51
1.76314304348454
  0
ARC
  8
3
  6
CONTINUOUS
 62
3
 10
4.24830426443677
 20
1.30082619131478
 30
0.0
 40
0.508225121731161
 50
84.1718698020822
 51
86.1868667462712
  0
ARC
  8
3
  6
CONTINUOUS
 62
3
 10
4.26300503225155
 20
1.47548986221941
 30
0.0
 40
0.332986049181401
 50
79.7925638243771
 51
83.6361869321574
  0
ARC
  8
3
  6
CONTINUOUS
 62
3
 10
4.16854528277398
 20
0.953945399904574
 30
0.0
 40
0.863015451561855
 50
77.9852211363467
 51
79.7565306103167
  0
ARC
  8
3
  6
CONTINUOUS
 62
3
 10
4.02807180418499
 20
0.247245493141109
 30
0.0
 40
1.58350565199197
 50
77.2005565589697
 51
78.3365786970488
  0
ARC
  8
3
  6
CONTINUOUS
 62
3
 10
4.24697711112694
 20
1.2071457045672
 30
0.0
 40
0.598961984252424
 50
74.2706262047756
 51
77.2777856671054
  0
ARC
  8
3
  6
CONTINUOUS
 62
3
 10
4.22082330603237
 20
1.13228413087118
 30
0.0
 40
0.678127917202569
 50
71.5986487042454
 51
73.8580489182796
  0
ARC
  8
3
  6
CONTINUOUS
 62
3
 10
4.36592712325589
 20
1.55551368975422
 30
0.0
 40
0.230769650163515
 50
67.0476453053638
 51
72.611763372083
  0
ARC
  8
3
  6
CONTINUOUS
 62
3
 10
4.3530971615194
 20
1.54197836595311
 30
0.0
 40
0.248322673325045
 50
61.3312586269889
 51
65.5389195982851
  0
ARC
  8
3
  6
CONTINUOUS
 62
3
 10
3.51199846114938
 20
1.18836262575973
 30
0.0
 40
0.615220899098222
 50
78.2809042764961
 51
80.0916170508078
  0
LINE
  8
3
  6
CONTINUOUS
 62
3
 10
4.18202159630567
 20
1.80792623012694
 30
0.0
 11
4.18202159630567
 21
1.88002885072825
 31
0.0
  0
LINE
  8
3
  6
CONTINUOUS
 62
3
 10
4.18202159630567
 20
1.88002885072825
 30
0.0
 11
3.51593072027456
 21
1.88002885072825
 31
0.0
  0
LINE
  8
3
  6
CONTINUOUS
 62
3
 10
3.51593072027456
 20
1.88002885072825
 30
0.0
 11
3.51593072027456
 21
1.80792623012694
 31
0.0
  0
LINE
  8
3
  6
CONTINUOUS
 62
3
 10
3.73009267075105
 20
1.68045909727821
 30
0.0
 11
3.73009267075106
 21
0.881321718947069
 31
0.0
  0
ARC
  8
3
  6
CONTINUOUS
 62
3
 10
3.27075253808053
 20
0.968092009323942
 30
0.0
 40
0.508825030538031
 50
315.892089268795
 51
319.930124906773
  0
ARC
  8
3
  6
CONTINUOUS
 62
3
 10
3.44569313150057
 20
0.803385016569876
 30
0.0
 40
0.268597125237233
 50
307.289958510225
 51
315.145523245848
  0
ARC
  8
3
  6
CONTINUOUS
 62
3
 10
3.38857617330141
 20
0.880829250766867
 30
0.0
 40
0.364817449188824
 50
301.035229029203
 51
307.057188958359
  0
ARC
  8
3
  6
CONTINUOUS
 62
3
 10
3.38492884988261
 20
0.87936219215385
 30
0.0
 40
0.365461424534025
 50
295.28784346547
 51
301.643178861334
  0
ARC
  8
3
  6
CONTINUOUS
 62
3
 10
3.41197566869077
 20
0.827558263958447
 30
0.0
 40
0.307077037528458
 50
286.584820425354
 51
294.853063491205
  0
ARC
  8
3
  6
CONTINUOUS
 62
3
 10
3.38348768967782
 20
0.927024056247906
 30
0.0
 40
0.410537790405359
 50
279.483463944464
 51
286.43233844792
  0
ARC
  8
3
  6
CONTINUOUS
 62
3
 10
2.76879759073243
 20
0.906720083620617
 30
0.0
 40
0.961630546413801
 50
354.926003793067
 51
358.486541063097
  0
ARC
  8
3
  6
CONTINUOUS
 62
3
 10
3.26914957747231
 20
0.866594745026336
 30
0.0
 40
0.459710467291914
 50
346.493342086489
 51
354.391298736998
  0
ARC
  8
3
  6
CONTINUOUS
 62
3
 10
3.37269941272951
 20
0.841056935403895
 30
0.0
 40
0.353060536305758
 50
341.305311643382
 51
346.597242054352
  0
ARC
  8
3
  6
CONTINUOUS
 62
3
 10
3.42496667908293
 20
0.824354621225988
 30
0.0
 40
0.298198835427054
 50
334.85242500723
 51
341.125634912776
  0
ARC
  8
3
  6
CONTINUOUS
 62
3
 10
3.43723358042765
 20
0.818241961912367
 30
0.0
 40
0.284497232112344
 50
328.28058178828
 51
334.916302407576
  0
ARC
  8
3
  6
CONTINUOUS
 62
3
 10
3.22410016068579
 20
0.957332632555196
 30
0.0
 40
0.538960221877744
 50
324.00177103506
 51
327.614931775002
  0
ARC
  8
3
  6
CONTINUOUS
 62
3
 10
3.59683672681505
 20
1.59247569903215
 30
0.0
 40
0.203027954970499
 50
64.7911836994585
 51
70.1684022723739
  0
ARC
  8
3
  6
CONTINUOUS
 62
3
 10
3.64760077829923
 20
1.70202963729955
 30
0.0
 40
0.0822896573572389
 50
52.3180212082501
 51
64.2803963006681
  0
ARC
  8
3
  6
CONTINUOUS
 62
3
 10
3.65740051342153
 20
1.71527707621829
 30
0.0
 40
0.0658159470437549
 50
37.982808956692
 51
52.0186187039814
  0
ARC
  8
3
  6
CONTINUOUS
 62
3
 10
3.64914596161081
 20
1.70977466685634
 30
0.0
 40
0.0757121262542208
 50
25.5903868241721
 51
37.4192466348984
  0
ARC
  8
3
  6
CONTINUOUS
 62
3
 10
3.61473838677658
 20
1.69342116474172
 30
0.0
 40
0.1138081997064
 50
9.8373076627936
 51
25.5329563416158
  0
ARC
  8
3
  6
CONTINUOUS
 62
3
 10
3.45989398314171
 20
1.66998022384583
 30
0.0
 40
0.270401741996211
 50
2.22162882135208
 51
9.12487587538398
  0
ARC
  8
3
  6
CONTINUOUS
 62
3
 10
4.16383074512269
 20
1.66794120734128
 30
0.0
 40
0.191692103301135
 50
169.465457246327
 51
179.337181268093
  0
ARC
  8
3
  6
CONTINUOUS
 62
3
 10
4.07227308979527
 20
1.68186379696719
 30
0.0
 40
0.099179178894606
 50
151.088656596876
 51
167.700478658729
  0
ARC
  8
3
  6
CONTINUOUS
 62
3
 10
4.10360180168101
 20
1.63484063533005
 30
0.0
 40
0.153734548273091
 50
123.036807738087
 51
129.902390465482
  0
ARC
  8
3
  6
CONTINUOUS
 62
3
 10
4.15712614811056
 20
1.54430535716774
 30
0.0
 40
0.258851330418618
 50
117.44695587391
 51
122.043113212114
  0
ARC
  8
3
  6
CONTINUOUS
 62
3
 10
4.19575269399641
 20
1.43005383070451
 30
0.0
 40
0.378493308449508
 50
109.473734647133
 51
114.66275654509
  0
ARC
  8
3
  6
CONTINUOUS
 62
3
 10
4.17005883507555
 20
1.47197322542495
 30
0.0
 40
0.330565234244845
 50
100.520763633325
 51
107.69640351609
  0
ARC
  8
3
  6
CONTINUOUS
 62
3
 10
4.25252580914577
 20
1.10490071447794
 30
0.0
 40
0.706664403435516
 50
98.3561742417739
 51
101.660164818751
  0
ARC
  8
3
  6
CONTINUOUS
 62
3
 10
4.28249723713085
 20
0.834573903998805
 30
0.0
 40
0.978524435104751
 50
95.8937518811224
 51
97.7919215085449
  0
ARC
  8
3
  6
CONTINUOUS
 62
3
 10
3.48334471812161
 20
1.1586001071857
 30
0.0
 40
0.650143262266257
 50
85.6301708293697
 51
87.1270593737035
  0
ARC
  8
3
  6
CONTINUOUS
 62
3
 10
3.49202827979666
 20
1.32072054568822
 30
0.0
 40
0.487846464010715
 50
82.991814399452
 51
85.1960870496978
  0
ARC
  8
3
  6
CONTINUOUS
 62
3
 10
3.4429649665747
 20
0.895695854654879
 30
0.0
 40
0.915687407513277
 50
81.8488791480162
 51
83.189485333394
  0
ARC
  8
3
  6
CONTINUOUS
 62
3
 10
3.46915036305535
 20
1.07568100861362
 30
0.0
 40
0.733807969872139
 50
80.0648838248035
 51
81.8800808544172
  0
ARC
  8
3
  6
CONTINUOUS
 62
3
 10
3.02877871390023
 20
-1.33708452565889
 30
0.0
 40
3.18641767135844
 50
79.3463086792625
 51
79.7504120539222
  0
ARC
  8
3
  6
CONTINUOUS
 62
3
 10
3.55504005672065
 20
1.41940412886841
 30
0.0
 40
0.380283173453429
 50
75.0976691084662
 51
77.5599141910256
  0
ARC
  8
3
  6
CONTINUOUS
 62
3
 10
3.17803593389703
 20
-0.0194758046935362
 30
0.0
 40
1.86773096255502
 50
74.8642269419869
 51
75.2729659546813
  0
LINE
  8
3
  6
CONTINUOUS
 62
3
 10
3.97215146848402
 20
0.814798467797057
 30
0.0
 11
3.97215146848401
 21
1.67015872290659
 31
0.0
  0
ARC
  8
3
  6
CONTINUOUS
 62
3
 10
3.38900512434471
 20
1.09822759619549
 30
0.0
 40
0.713115944444939
 50
232.5103146351
 51
236.739899635272
  0
ARC
  8
3
  6
CONTINUOUS
 62
3
 10
3.35337859676968
 20
2.2223826575835
 30
0.0
 40
1.82358182802872
 50
270.657369578583
 51
272.856313805466
  0
ARC
  8
3
  6
CONTINUOUS
 62
3
 10
3.39494684218373
 20
1.28285506334315
 30
0.0
 40
0.88316596659726
 50
273.200700861639
 51
277.52200016826
  0
ARC
  8
3
  6
CONTINUOUS
 62
3
 10
3.40792422085494
 20
1.18844830410598
 30
0.0
 40
0.787872936911254
 50
277.48559926413
 51
282.078743292646
  0
ARC
  8
3
  6
CONTINUOUS
 62
3
 10
3.41118516282157
 20
1.1669110352186
 30
0.0
 40
0.76613124989133
 50
282.177787214168
 51
286.68589514132
  0
ARC
  8
3
  6
CONTINUOUS
 62
3
 10
3.42593906276196
 20
1.12286074014259
 30
0.0
 40
0.719701085052983
 50
286.568174774348
 51
291.117804682037
  0
ARC
  8
3
  6
CONTINUOUS
 62
3
 10
3.45474387598214
 20
1.04620113741795
 30
0.0
 40
0.637812264185941
 50
291.185611629633
 51
296.04662873828
  0
ARC
  8
3
  6
CONTINUOUS
 62
3
 10
3.51944473036894
 20
0.917672993567222
 30
0.0
 40
0.493930401068327
 50
295.850913409538
 51
301.791083053623
  0
ARC
  8
3
  6
CONTINUOUS
 62
3
 10
3.34192942752794
 20
1.18272883763244
 30
0.0
 40
0.8128182497342
 50
302.584192976758
 51
306.045751404393
  0
ARC
  8
3
  6
CONTINUOUS
 62
3
 10
3.35084699425935
 20
1.69883147923325
 30
0.0
 40
1.18587461386679
 50
266.288993887977
 51
269.163211868428
  0
ARC
  8
3
  6
CONTINUOUS
 62
3
 10
3.31526333224359
 20
1.08254396978653
 30
0.0
 40
0.568593079705095
 50
260.29077618142
 51
265.847074007254
  0
ARC
  8
3
  6
CONTINUOUS
 62
3
 10
3.29587853458419
 20
0.975250568168567
 30
0.0
 40
0.459568403578823
 50
254.105074374997
 51
260.416296553252
  0
ARC
  8
3
  6
CONTINUOUS
 62
3
 10
3.28192208013548
 20
0.921407258530619
 30
0.0
 40
0.403963621389029
 50
247.232908211466
 51
253.916646230177
  0
ARC
  8
3
  6
CONTINUOUS
 62
3
 10
3.28636236929053
 20
0.932085085963426
 30
0.0
 40
0.415527824703621
 50
241.121148939156
 51
247.237476476451
  0
ARC
  8
3
  6
CONTINUOUS
 62
3
 10
3.26998515693526
 20
0.903810905758082
 30
0.0
 40
0.382860821700278
 50
235.018401926438
 51
241.223043559152
  0
ARC
  8
3
  6
CONTINUOUS
 62
3
 10
3.35570485099431
 20
1.08122235720463
 30
0.0
 40
0.567209796423199
 50
274.071736893405
 51
279.684681920658
  0
ARC
  8
3
  6
CONTINUOUS
 62
3
 10
3.31892884931473
 20
1.72650243092929
 30
0.0
 40
1.21350686621945
 50
270.689623466324
 51
273.640151579539
  0
ARC
  8
3
  6
CONTINUOUS
 62
3
 10
3.44303688502188
 20
1.00890357362808
 30
0.0
 40
0.613121679969772
 50
307.965458867734
 51
312.320752421196
  0
ARC
  8
3
  6
CONTINUOUS
 62
3
 10
3.58329499943644
 20
0.844101978130826
 30
0.0
 40
0.396902736900916
 50
313.3684498938
 51
319.769681680881
  0
ARC
  8
3
  6
CONTINUOUS
 62
3
 10
3.58712037877865
 20
0.84648304261353
 30
0.0
 40
0.395543297719045
 50
319.149108728349
 51
325.40021468722
  0
ARC
  8
3
  6
CONTINUOUS
 62
3
 10
3.64539835258247
 20
0.803674729533365
 30
0.0
 40
0.323271272186158
 50
325.781079794798
 51
333.287093047592
  0
ARC
  8
3
  6
CONTINUOUS
 62
3
 10
3.59860708074261
 20
0.826925712949506
 30
0.0
 40
0.375520406923188
 50
333.328052261382
 51
339.650534190442
  0
ARC
  8
3
  6
CONTINUOUS
 62
3
 10
3.6291213897639
 20
0.817571118808424
 30
0.0
 40
0.343662422659097
 50
339.344383520957
 51
346.091904630879
  0
ARC
  8
3
  6
CONTINUOUS
 62
3
 10
3.66819965518419
 20
0.806529146862004
 30
0.0
 40
0.303078628030521
 50
346.34319321506
 51
353.924443777795
  0
ARC
  8
3
  6
CONTINUOUS
 62
3
 10
3.34598532609275
 20
0.834512092869406
 30
0.0
 40
0.626476344586327
 50
354.498928552225
 51
358.19637933619
  0
ARC
  8
3
  6
CONTINUOUS
 62
3
 10
3.49938159649662
 20
1.3305098188601
 30
0.0
 40
0.968519237841174
 50
238.81696054557
 51
241.870164384571
  0
ARC
  8
3
  6
CONTINUOUS
 62
3
 10
3.31732774310982
 20
1.00544643207461
 30
0.0
 40
0.596063337037193
 50
242.571602461407
 51
247.509844947098
  0
ARC
  8
3
  6
CONTINUOUS
 62
3
 10
3.34453724654479
 20
1.06221594255234
 30
0.0
 40
0.658932452728762
 50
247.212534665436
 51
251.618099780713
  0
ARC
  8
3
  6
CONTINUOUS
 62
3
 10
3.3446453679329
 20
1.07091171109861
 30
0.0
 40
0.667223853270333
 50
251.845202835384
 51
256.196931731232
  0
ARC
  8
3
  6
CONTINUOUS
 62
3
 10
3.38594060278005
 20
1.23361978048952
 30
0.0
 40
0.835086589158144
 50
256.109258212266
 51
259.528573433714
  0
ARC
  8
3
  6
CONTINUOUS
 62
3
 10
3.39418399733258
 20
1.27573755986296
 30
0.0
 40
0.878001237954802
 50
259.499441352286
 51
262.660554721479
  0
ARC
  8
3
  6
CONTINUOUS
 62
3
 10
3.37141057298131
 20
1.08571860419099
 30
0.0
 40
0.68663197398549
 50
262.520137593693
 51
266.42436332405
  0
ARC
  8
3
  6
CONTINUOUS
 62
3
 10
3.38845520435269
 20
1.52581359149619
 30
0.0
 40
1.12698160096907
 50
266.955153486748
 51
269.280126603038
  0
ARC
  8
3
  6
CONTINUOUS
 62
3
 10
3.22923391957134
 20
0.854912210121517
 30
0.0
 40
0.316625440809445
 50
209.517066583897
 51
215.6486720422
  0
ARC
  8
3
  6
CONTINUOUS
 62
3
 10
3.22584023997625
 20
0.852033117616175
 30
0.0
 40
0.312254867214301
 50
203.427126613534
 51
209.363522831193
  0
ARC
  8
3
  6
CONTINUOUS
 62
3
 10
3.2666076623611
 20
0.869762882147888
 30
0.0
 40
0.356710737800067
 50
198.307478883525
 51
203.436216997261
  0
ARC
  8
3
  6
CONTINUOUS
 62
3
 10
3.27410884146871
 20
0.872867101485416
 30
0.0
 40
0.364807803447872
 50
193.491514664895
 51
198.399775418157
  0
ARC
  8
3
  6
CONTINUOUS
 62
3
 10
4.06096687268598
 20
1.68304377438082
 30
0.0
 40
0.0894243459496443
 50
128.759371394199
 51
139.079630039632
  0
ARC
  8
3
  6
CONTINUOUS
 62
3
 10
5.1798945209693
 20
1.44528287037231
 30
0.0
 40
2.27141745599561
 50
177.953985159946
 51
179.318341714417
  0
LINE
  8
3
  6
CONTINUOUS
 62
3
 10
2.90863781461476
 20
0.879175807619646
 30
0.0
 11
2.90863781461476
 21
1.47230569851848
 31
0.0
  0
LINE
  8
3
  6
CONTINUOUS
 62
3
 10
3.19146892756868
 20
1.80792623012694
 30
0.0
 11
3.19146892756868
 21
1.88002885072825
 31
0.0
  0
LINE
  8
3
  6
CONTINUOUS
 62
3
 10
3.19146892756868
 20
1.88002885072825
 30
0.0
 11
2.5382535195021
 21
1.88002885072825
 31
0.0
  0
LINE
  8
3
  6
CONTINUOUS
 62
3
 10
2.5382535195021
 20
1.88002885072825
 30
0.0
 11
2.5382535195021
 21
1.80792623012694
 31
0.0
  0
ARC
  8
3
  6
CONTINUOUS
 62
3
 10
3.51188417782435
 20
0.86959577012649
 30
0.0
 40
0.714518111722612
 50
181.021443989957
 51
185.710851922526
  0
ARC
  8
3
  6
CONTINUOUS
 62
3
 10
3.168491418025
 20
0.839349345644715
 30
0.0
 40
0.369676268528642
 50
194.880895838377
 51
203.154446218715
  0
ARC
  8
3
  6
CONTINUOUS
 62
3
 10
3.16064468558872
 20
0.836750494936928
 30
0.0
 40
0.361440380881501
 50
203.265609014426
 51
211.548720282125
  0
ARC
  8
3
  6
CONTINUOUS
 62
3
 10
3.21039235317839
 20
0.820256786221988
 30
0.0
 40
0.280238059859579
 50
227.087680176228
 51
235.206439281749
  0
ARC
  8
3
  6
CONTINUOUS
 62
3
 10
3.34090333842946
 20
0.947814594292735
 30
0.0
 40
0.462605579550279
 50
221.267135698892
 51
226.005325204143
  0
ARC
  8
3
  6
CONTINUOUS
 62
3
 10
3.55460724906589
 20
1.51298666086317
 30
0.0
 40
0.644462748476237
 50
170.524520926609
 51
174.469705669233
  0
ARC
  8
3
  6
CONTINUOUS
 62
3
 10
3.39367150619283
 20
1.54098345134007
 30
0.0
 40
0.481115096184738
 50
165.98547829576
 51
170.657453894763
  0
ARC
  8
3
  6
CONTINUOUS
 62
3
 10
3.23497653444787
 20
1.58081868367754
 30
0.0
 40
0.31749702888344
 50
159.823604601472
 51
166.024236465709
  0
ARC
  8
3
  6
CONTINUOUS
 62
3
 10
3.12042752798988
 20
1.62349404771594
 30
0.0
 40
0.195258819245982
 50
151.408632927764
 51
159.983201533173
  0
ARC
  8
3
  6
CONTINUOUS
 62
3
 10
3.03792937780714
 20
1.66947081290195
 30
0.0
 40
0.100822160391524
 50
137.701116588745
 51
151.912663686975
  0
ARC
  8
3
  6
CONTINUOUS
 62
3
 10
3.06739623964949
 20
1.63444314379455
 30
0.0
 40
0.146317019798649
 50
126.735744206136
 51
135.319836524054
  0
ARC
  8
3
  6
CONTINUOUS
 62
3
 10
2.6476090119505
 20
1.64805873248283
 30
0.0
 40
0.140418205302755
 50
44.7895495257437
 51
54.239688252173
  0
ARC
  8
3
  6
CONTINUOUS
 62
3
 10
2.60006636525034
 20
1.63880628301668
 30
0.0
 40
0.183768369135713
 50
18.9512611484782
 51
28.3083988126939
  0
ARC
  8
3
  6
CONTINUOUS
 62
3
 10
2.51281543762191
 20
1.6102484328028
 30
0.0
 40
0.275567642546466
 50
11.4626903964101
 51
18.6749240019308
  0
ARC
  8
3
  6
CONTINUOUS
 62
3
 10
2.30395452980308
 20
1.5653368172624
 30
0.0
 40
0.489194394885341
 50
7.16893914063374
 51
11.7561388845674
  0
ARC
  8
3
  6
CONTINUOUS
 62
3
 10
1.85875339658534
 20
1.51165168811683
 30
0.0
 40
0.937617647715885
 50
4.39285397633527
 51
7.0285430060357
  0
ARC
  8
3
  6
CONTINUOUS
 62
3
 10
1.66873725743097
 20
1.48773661419747
 30
0.0
 40
1.12894555949529
 50
2.48512553143488
 51
4.86415275336495
  0
ARC
  8
3
  6
CONTINUOUS
 62
3
 10
1.3132227177705
 20
1.48620926487181
 30
0.0
 40
1.48425698159748
 50
359.977077678402
 51
1.94878104053231
  0
ARC
  8
3
  6
CONTINUOUS
 62
3
 10
3.5281973440603
 20
1.07527975690023
 30
0.0
 40
0.688015076449187
 50
216.051365805701
 51
218.957306439559
  0
ARC
  8
3
  6
CONTINUOUS
 62
3
 10
3.31821714284032
 20
0.882234688846135
 30
0.0
 40
0.409886093871777
 50
188.98379833172
 51
193.32593013436
  0
ARC
  8
3
  6
CONTINUOUS
 62
3
 10
3.26126781350328
 20
0.87552714363467
 30
0.0
 40
0.352595249623187
 50
184.398393295566
 51
189.351786323801
  0
ARC
  8
3
  6
CONTINUOUS
 62
3
 10
3.45396578225756
 20
0.882880682035611
 30
0.0
 40
0.545340523799949
 50
180.38957555603
 51
183.615705825825
  0
ARC
  8
3
  6
CONTINUOUS
 62
3
 10
3.15077837141304
 20
1.47170070557107
 30
0.0
 40
0.328035102336466
 50
117.100915948792
 51
121.397309710392
  0
ARC
  8
3
  6
CONTINUOUS
 62
3
 10
3.11102172462568
 20
1.53706191752418
 30
0.0
 40
0.251801339193035
 50
109.626277267244
 51
115.822436798405
  0
ARC
  8
3
  6
CONTINUOUS
 62
3
 10
3.16398939846083
 20
1.4038681812475
 30
0.0
 40
0.395081553874669
 50
105.983332389269
 51
110.373182894955
  0
ARC
  8
3
  6
CONTINUOUS
 62
3
 10
3.18657988172658
 20
1.30719707928886
 30
0.0
 40
0.494260321089849
 50
101.577049678855
 51
105.414726429914
  0
ARC
  8
3
  6
CONTINUOUS
 62
3
 10
3.43385787778638
 20
0.142763798854914
 30
0.0
 40
1.6846509179275
 50
100.751811058362
 51
101.868149421473
  0
ARC
  8
3
  6
CONTINUOUS
 62
3
 10
3.28240235207299
 20
0.964724847669338
 30
0.0
 40
0.848877156916963
 50
99.1605144912454
 51
101.058317515894
  0
ARC
  8
3
  6
CONTINUOUS
 62
3
 10
3.22761900507401
 20
1.29037506020341
 30
0.0
 40
0.518663503513053
 50
96.2104630260891
 51
98.9126598272579
  0
ARC
  8
3
  6
CONTINUOUS
 62
3
 10
3.28629407546848
 20
0.723986199761753
 30
0.0
 40
1.08807986136194
 50
94.9997217690842
 51
96.0554289246322
  0
ARC
  8
3
  6
CONTINUOUS
 62
3
 10
2.50750049966585
 20
1.26674458645529
 30
0.0
 40
0.542054720186251
 50
84.8827907811751
 51
86.7476256477268
  0
ARC
  8
3
  6
CONTINUOUS
 62
3
 10
2.50529842922139
 20
1.30664363580849
 30
0.0
 40
0.502544035966013
 50
81.8112797639619
 51
84.2267782281752
  0
ARC
  8
3
  6
CONTINUOUS
 62
3
 10
2.39149643620293
 20
0.439965034780228
 30
0.0
 40
1.37663789899903
 50
81.2049678128495
 51
82.2608122194074
  0
ARC
  8
3
  6
CONTINUOUS
 62
3
 10
2.45619507817011
 20
0.872370252324521
 30
0.0
 40
0.939427147997655
 50
79.3056158605443
 51
81.0720416753767
  0
ARC
  8
3
  6
CONTINUOUS
 62
3
 10
2.5446224514983
 20
1.32503361439408
 30
0.0
 40
0.478225325859205
 50
76.1013511348273
 51
79.6515911885378
  0
ARC
  8
3
  6
CONTINUOUS
 62
3
 10
2.56578487644199
 20
1.42345205495931
 30
0.0
 40
0.377617756791128
 50
71.4887542330291
 51
75.6308713236677
  0
ARC
  8
3
  6
CONTINUOUS
 62
3
 10
2.6131210007052
 20
1.55608389495531
 30
0.0
 40
0.236835588793404
 50
66.0451058015048
 51
72.1600788566493
  0
ARC
  8
3
  6
CONTINUOUS
 62
3
 10
2.57602103638874
 20
1.48913559868721
 30
0.0
 40
0.313152736766159
 50
60.6172394854354
 51
64.8146258215182
  0
LINE
  8
3
  6
CONTINUOUS
 62
3
 10
2.79747960785441
 20
1.48561034874849
 30
0.0
 11
2.79747960785441
 21
0.856858329814483
 31
0.0
  0
ARC
  8
3
  6
CONTINUOUS
 62
3
 10
3.17220054812832
 20
0.841191534387753
 30
0.0
 40
0.373735005826429
 50
186.560795287758
 51
195.006966870206
  0
ARC
  8
3
  6
CONTINUOUS
 62
3
 10
3.21006438569645
 20
0.868171983035535
 30
0.0
 40
0.41999710924664
 50
211.67489939956
 51
218.736770986997
  0
ARC
  8
3
  6
CONTINUOUS
 62
3
 10
3.26263039412235
 20
0.908693072971682
 30
0.0
 40
0.486357621936024
 50
218.585975634318
 51
224.640750953709
  0
ARC
  8
3
  6
CONTINUOUS
 62
3
 10
3.21183673594826
 20
0.856587143948105
 30
0.0
 40
0.413606173583425
 50
224.449725653439
 51
231.610474433162
  0
ARC
  8
3
  6
CONTINUOUS
 62
3
 10
3.75965611834173
 20
1.49469570406083
 30
0.0
 40
0.850321364368774
 50
174.574823361683
 51
177.864396217215
  0
ARC
  8
3
  6
CONTINUOUS
 62
3
 10
0.605872606096119
 20
0.335259419196993
 30
0.0
 40
0.0885826771653544
 50
179.999999999999
 51
359.999999999999
  0
ARC
  8
3
  6
CONTINUOUS
 62
3
 10
1.36965213365519
 20
1.09903894675604
 30
0.0
 40
0.562499999999746
 50
179.999999999999
 51
359.999999999999
  0
ARC
  8
3
  6
CONTINUOUS
 62
3
 10
1.06293412599381
 20
3.68791409164629
 30
0.0
 40
0.541440470492462
 50
349.571960373536
 51
353.92173325493
  0
ARC
  8
3
  6
CONTINUOUS
 62
3
 10
0.605872606096132
 20
1.86281847431523
 30
0.0
 40
0.0885826771653575
 50
179.999999999999
 51
359.999999999999
  0
ARC
  8
3
  6
CONTINUOUS
 62
3
 10
0.605872606096132
 20
1.86281847431523
 30
0.0
 40
0.0885826771653575
 50
359.999999999999
 51
180
  0
LINE
  8
3
  6
CONTINUOUS
 62
3
 10
0.369652133655187
 20
0.197464143606442
 30
0.0
 11
0.369652133655179
 21
2.01386890919897
 31
0.0
  0
LINE
  8
3
  6
CONTINUOUS
 62
3
 10
0.453938875661147
 20
2.11127334169386
 30
0.0
 11
6.95000186778713
 21
3.05419032122201
 31
0.0
  0
ARC
  8
3
  6
CONTINUOUS
 62
3
 10
0.605872606096119
 20
0.335259419196995
 30
0.0
 40
0.0885826771653544
 50
359.999999999999
 51
180
  0
ARC
  8
3
  6
CONTINUOUS
 62
3
 10
0.55367421998341
 20
2.44761589455837
 30
0.0
 40
0.0885826771653528
 50
179.999999999999
 51
359.999999999999
  0
ARC
  8
3
  6
CONTINUOUS
 62
3
 10
0.55367421998341
 20
2.44761589455837
 30
0.0
 40
0.0885826771653528
 50
359.999999999999
 51
180
  0
ARC
  8
3
  6
CONTINUOUS
 62
3
 10
0.55367421998341
 20
3.38234271786491
 30
0.0
 40
0.0885826771653591
 50
359.999999999999
 51
180
  0
LINE
  8
3
  6
CONTINUOUS
 62
3
 10
6.92608039136327
 20
3.13388785048624
 30
0.0
 11
0.430017399237288
 21
2.19097087095813
 31
0.0
  0
LINE
  8
3
  6
CONTINUOUS
 62
3
 10
0.415878944392875
 20
5.14612224542409
 30
0.0
 11
6.91194193651886
 21
5.14612224542405
 31
0.0
  0
ARC
  8
3
  6
CONTINUOUS
 62
3
 10
0.415878944392872
 20
5.04769704857369
 30
0.0
 40
0.0984251968503943
 50
89.9999999999987
 51
179.999999999997
  0
LINE
  8
3
  6
CONTINUOUS
 62
3
 10
0.317453747542465
 20
2.28837530345302
 30
0.0
 11
0.317453747542478
 21
5.0476970485737
 31
0.0
  0
ARC
  8
3
  6
CONTINUOUS
 62
3
 10
0.553674219983428
 20
4.90990177298314
 30
0.0
 40
0.0885826771653515
 50
179.999999999999
 51
359.999999999999
  0
ARC
  8
3
  6
CONTINUOUS
 62
3
 10
0.553674219983428
 20
4.90990177298314
 30
0.0
 40
0.0885826771653515
 50
359.999999999999
 51
180
  0
ARC
  8
3
  6
CONTINUOUS
 62
3
 10
0.55367421998341
 20
2.90990177298293
 30
0.0
 40
0.0885826771653559
 50
359.999999999999
 51
180
  0
ARC
  8
3
  6
CONTINUOUS
 62
3
 10
0.468077330505575
 20
2.01386890919897
 30
0.0
 40
0.098425196850397
 50
98.2589205040134
 51
180
  0
ARC
  8
3
  6
CONTINUOUS
 62
3
 10
1.36965213365519
 20
1.09903894675605
 30
0.0
 40
0.562499999999746
 50
359.999999999999
 51
180
  0
ARC
  8
3
  6
CONTINUOUS
 62
3
 10
0.55367421998341
 20
3.38234271786491
 30
0.0
 40
0.0885826771653591
 50
179.999999999999
 51
359.999999999999
  0
ARC
  8
3
  6
CONTINUOUS
 62
3
 10
0.468077330505579
 20
0.197464143606442
 30
0.0
 40
0.0984251968503937
 50
180
 51
270
  0
LINE
  8
3
  6
CONTINUOUS
 62
3
 10
6.96414032263157
 20
0.0990389467560577
 30
0.0
 11
0.468077330505578
 21
0.0990389467560489
 31
0.0
  0
ENDSEC
  0
EOF
