  0
SECTION
  2
HEADER
  9
$ACADVER
  1
AC1015
  9
$ACADMAINTVER
 70
     6
  9
$DWGCODEPAGE
  3
ANSI_1252
  9
$INSBASE
 10
0.0
 20
0.0
 30
0.0
  9
$EXTMIN
 10
0.0
 20
0.0
 30
0.0
  9
$EXTMAX
 10
12.0
 20
12.0
 30
0.0
  9
$LIMMIN
 10
0.0
 20
0.0
  9
$LIMMAX
 10
12.0
 20
12.0
  9
$ORTHOMODE
 70
     0
  9
$REGENMODE
 70
     1
  9
$FILLMODE
 70
     1
  9
$QTEXTMODE
 70
     0
  9
$MIRRTEXT
 70
     1
  9
$LTSCALE
 40
1.0
  9
$ATTMODE
 70
     1
  9
$TEXTSIZE
 40
0.1377952756
  9
$TRACEWID
 40
0.05
  9
$TEXTSTYLE
  7
Standard
  9
$CLAYER
  8
0
  9
$CELTYPE
  6
ByLayer
  9
$CECOLOR
 62
   256
  9
$CELTSCALE
 40
1.0
  9
$DISPSILH
 70
     0
  9
$DIMSCALE
 40
1.0
  9
$DIMASZ
 40
0.13
  9
$DIMEXO
 40
0.0393700787
  9
$DIMDLI
 40
0.38
  9
$DIMRND
 40
0.0
  9
$DIMDLE
 40
0.0
  9
$DIMEXE
 40
0.0393700787
  9
$DIMTP
 40
0.0
  9
$DIMTM
 40
0.0
  9
$DIMTXT
 40
0.1377952756
  9
$DIMCEN
 40
0.09
  9
$DIMTSZ
 40
0.0
  9
$DIMTOL
 70
     0
  9
$DIMLIM
 70
     0
  9
$DIMTIH
 70
     1
  9
$DIMTOH
 70
     1
  9
$DIMSE1
 70
     0
  9
$DIMSE2
 70
     0
  9
$DIMTAD
 70
     1
  9
$DIMZIN
 70
     1
  9
$DIMBLK
  1

  9
$DIMASO
 70
     1
  9
$DIMSHO
 70
     1
  9
$DIMPOST
  1

  9
$DIMAPOST
  1

  9
$DIMALT
 70
     0
  9
$DIMALTD
 70
     2
  9
$DIMALTF
 40
25.4
  9
$DIMLFAC
 40
1.0
  9
$DIMTOFL
 70
     0
  9
$DIMTVP
 40
0.0
  9
$DIMTIX
 70
     0
  9
$DIMSOXD
 70
     0
  9
$DIMSAH
 70
     0
  9
$DIMBLK1
  1

  9
$DIMBLK2
  1

  9
$DIMSTYLE
  2
Standard
  9
$DIMCLRD
 70
     0
  9
$DIMCLRE
 70
     0
  9
$DIMCLRT
 70
     0
  9
$DIMTFAC
 40
1.0
  9
$DIMGAP
 40
0.06
  9
$DIMJUST
 70
     0
  9
$DIMSD1
 70
     0
  9
$DIMSD2
 70
     0
  9
$DIMTOLJ
 70
     1
  9
$DIMTZIN
 70
     1
  9
$DIMALTZ
 70
     0
  9
$DIMALTTZ
 70
     0
  9
$DIMUPT
 70
     0
  9
$DIMDEC
 70
     2
  9
$DIMTDEC
 70
     2
  9
$DIMALTU
 70
     2
  9
$DIMALTTD
 70
     2
  9
$DIMTXSTY
  7
Standard
  9
$DIMAUNIT
 70
     0
  9
$DIMADEC
 70
     2
  9
$DIMALTRND
 40
0.0
  9
$DIMAZIN
 70
     0
  9
$DIMDSEP
 70
    46
  9
$DIMATFIT
 70
     3
  9
$DIMFRAC
 70
     0
  9
$DIMLDRBLK
  1

  9
$DIMLUNIT
 70
     2
  9
$DIMLWD
 70
    -2
  9
$DIMLWE
 70
    -2
  9
$DIMTMOVE
 70
     0
  9
$LUNITS
 70
     2
  9
$LUPREC
 70
     2
  9
$SKETCHINC
 40
0.1
  9
$FILLETRAD
 40
0.0
  9
$AUNITS
 70
     0
  9
$AUPREC
 70
     2
  9
$MENU
  1
.
  9
$ELEVATION
 40
0.0
  9
$PELEVATION
 40
0.0
  9
$THICKNESS
 40
0.0
  9
$LIMCHECK
 70
     0
  9
$CHAMFERA
 40
0.0
  9
$CHAMFERB
 40
0.0
  9
$CHAMFERC
 40
0.0
  9
$CHAMFERD
 40
0.0
  9
$SKPOLY
 70
     0
  9
$TDCREATE
 40
2460754.782779595
  9
$TDUCREATE
 40
2460754.949446262
  9
$TDUPDATE
 40
2460754.782780567
  9
$TDUUPDATE
 40
2460754.949447234
  9
$TDINDWG
 40
0.0000000116
  9
$TDUSRTIMER
 40
0.0000000116
  9
$USRTIMER
 70
     1
  9
$ANGBASE
 50
0.0
  9
$ANGDIR
 70
     0
  9
$PDMODE
 70
     0
  9
$PDSIZE
 40
-1.0
  9
$PLINEWID
 40
0.0
  9
$SPLFRAME
 70
     0
  9
$SPLINETYPE
 70
     6
  9
$SPLINESEGS
 70
     8
  9
$HANDSEED
  5
138
  9
$SURFTAB1
 70
     6
  9
$SURFTAB2
 70
     6
  9
$SURFTYPE
 70
     6
  9
$SURFU
 70
     6
  9
$SURFV
 70
     6
  9
$UCSBASE
  2

  9
$UCSNAME
  2

  9
$UCSORG
 10
0.0
 20
0.0
 30
0.0
  9
$UCSXDIR
 10
1.0
 20
0.0
 30
0.0
  9
$UCSYDIR
 10
0.0
 20
1.0
 30
0.0
  9
$UCSORTHOREF
  2

  9
$UCSORTHOVIEW
 70
     0
  9
$UCSORGTOP
 10
0.0
 20
0.0
 30
0.0
  9
$UCSORGBOTTOM
 10
0.0
 20
0.0
 30
0.0
  9
$UCSORGLEFT
 10
0.0
 20
0.0
 30
0.0
  9
$UCSORGRIGHT
 10
0.0
 20
0.0
 30
0.0
  9
$UCSORGFRONT
 10
0.0
 20
0.0
 30
0.0
  9
$UCSORGBACK
 10
0.0
 20
0.0
 30
0.0
  9
$PUCSBASE
  2

  9
$PUCSNAME
  2

  9
$PUCSORG
 10
0.0
 20
0.0
 30
0.0
  9
$PUCSXDIR
 10
1.0
 20
0.0
 30
0.0
  9
$PUCSYDIR
 10
0.0
 20
1.0
 30
0.0
  9
$PUCSORTHOREF
  2

  9
$PUCSORTHOVIEW
 70
     0
  9
$PUCSORGTOP
 10
0.0
 20
0.0
 30
0.0
  9
$PUCSORGBOTTOM
 10
0.0
 20
0.0
 30
0.0
  9
$PUCSORGLEFT
 10
0.0
 20
0.0
 30
0.0
  9
$PUCSORGRIGHT
 10
0.0
 20
0.0
 30
0.0
  9
$PUCSORGFRONT
 10
0.0
 20
0.0
 30
0.0
  9
$PUCSORGBACK
 10
0.0
 20
0.0
 30
0.0
  9
$USERI1
 70
     0
  9
$USERI2
 70
     0
  9
$USERI3
 70
     0
  9
$USERI4
 70
     0
  9
$USERI5
 70
     0
  9
$USERR1
 40
0.0
  9
$USERR2
 40
0.0
  9
$USERR3
 40
0.0
  9
$USERR4
 40
0.0
  9
$USERR5
 40
0.0
  9
$WORLDVIEW
 70
     1
  9
$SHADEDGE
 70
     3
  9
$SHADEDIF
 70
    70
  9
$TILEMODE
 70
     1
  9
$MAXACTVP
 70
    64
  9
$PINSBASE
 10
0.0
 20
0.0
 30
0.0
  9
$PLIMCHECK
 70
     0
  9
$PEXTMIN
 10
1.0000000000E+20
 20
1.0000000000E+20
 30
1.0000000000E+20
  9
$PEXTMAX
 10
-1.0000000000E+20
 20
-1.0000000000E+20
 30
-1.0000000000E+20
  9
$PLIMMIN
 10
0.0
 20
0.0
  9
$PLIMMAX
 10
12.0
 20
9.0
  9
$UNITMODE
 70
     0
  9
$VISRETAIN
 70
     1
  9
$PLINEGEN
 70
     0
  9
$PSLTSCALE
 70
     1
  9
$TREEDEPTH
 70
  3020
  9
$CMLSTYLE
  2
Standard
  9
$CMLJUST
 70
     0
  9
$CMLSCALE
 40
1.0
  9
$PROXYGRAPHICS
 70
     1
  9
$MEASUREMENT
 70
     0
  9
$CELWEIGHT
370
    -1
  9
$ENDCAPS
280
     0
  9
$JOINSTYLE
280
     0
  9
$LWDISPLAY
290
     1
  9
$INSUNITS
 70
     1
  9
$HYPERLINKBASE
  1

  9
$STYLESHEET
  1

  9
$XEDIT
290
     1
  9
$CEPSNTYPE
380
     0
  9
$PSTYLEMODE
290
     1
  9
$FINGERPRINTGUID
  2
{fdcac766-3947-4737-b47e-5042a2331bf6}
  9
$VERSIONGUID
  2
{FAEB1C32-E019-11D5-929B-00C0DF256EC4}
  9
$EXTNAMES
290
     1
  9
$PSVPSCALE
 40
0.0
  9
$OLESTARTUP
290
     0
  0
ENDSEC
  0
SECTION
  2
CLASSES
  0
CLASS
  1
ACDBDICTIONARYWDFLT
  2
AcDbDictionaryWithDefault
  3
ObjectDBX Classes
 90
        0
280
     0
281
     0
  0
CLASS
  1
VISUALSTYLE
  2
AcDbVisualStyle
  3
ObjectDBX Classes
 90
     4095
280
     0
281
     0
  0
CLASS
  1
MATERIAL
  2
AcDbMaterial
  3
ObjectDBX Classes
 90
     1153
280
     0
281
     0
  0
CLASS
  1
SCALE
  2
AcDbScale
  3
ObjectDBX Classes
 90
     1153
280
     0
281
     0
  0
CLASS
  1
TABLESTYLE
  2
AcDbTableStyle
  3
ObjectDBX Classes
 90
     4095
280
     0
281
     0
  0
CLASS
  1
MLEADERSTYLE
  2
AcDbMLeaderStyle
  3
ACDB_MLEADERSTYLE_CLASS
 90
     4095
280
     0
281
     0
  0
CLASS
  1
SUN
  2
AcDbSun
  3
SCENEOE
 90
     1153
280
     0
281
     0
  0
CLASS
  1
ACDBPLACEHOLDER
  2
AcDbPlaceHolder
  3
ObjectDBX Classes
 90
        0
280
     0
281
     0
  0
CLASS
  1
LAYOUT
  2
AcDbLayout
  3
ObjectDBX Classes
 90
        0
280
     0
281
     0
  0
ENDSEC
  0
SECTION
  2
TABLES
  0
TABLE
  2
VPORT
  5
8
330
0
100
AcDbSymbolTable
 70
     1
  0
VPORT
  5
29
330
8
100
AcDbSymbolTableRecord
100
AcDbViewportTableRecord
  2
*Active
 70
     0
 10
0.0
 20
0.0
 11
1.0
 21
1.0
 12
6.0
 22
6.0
 13
0.0
 23
0.0
 14
0.5
 24
0.5
 15
0.5
 25
0.5
 16
0.0
 26
0.0
 36
1.0
 17
0.0
 27
0.0
 37
0.0
 40
12.0
 41
1.0
 42
50.0
 43
0.0
 44
0.0
 50
0.0
 51
0.0
 71
     0
 72
  2000
 73
     1
 74
     3
 75
     0
 76
     0
 77
     0
 78
     0
281
     0
 65
     1
110
0.0
120
0.0
130
0.0
111
1.0
121
0.0
131
0.0
112
0.0
122
1.0
132
0.0
 79
     0
146
0.0
  0
ENDTAB
  0
TABLE
  2
LTYPE
  5
5
330
0
100
AcDbSymbolTable
 70
     6
  0
LTYPE
  5
14
330
5
100
AcDbSymbolTableRecord
100
AcDbLinetypeTableRecord
  2
ByBlock
 70
     0
  3

 72
    65
 73
     0
 40
0.0
  0
LTYPE
  5
15
330
5
100
AcDbSymbolTableRecord
100
AcDbLinetypeTableRecord
  2
ByLayer
 70
     0
  3

 72
    65
 73
     0
 40
0.0
  0
LTYPE
  5
16
330
5
100
AcDbSymbolTableRecord
100
AcDbLinetypeTableRecord
  2
Continuous
 70
     0
  3
Solid line
 72
    65
 73
     0
 40
0.0
  0
LTYPE
  5
5E
330
5
100
AcDbSymbolTableRecord
100
AcDbLinetypeTableRecord
  2
HIDDEN
 70
     0
  3
Hidden __ __ __ __ __ __ __ __ __ __ __ __ __ __
 72
    65
 73
     2
 40
0.075
 49
0.05
 74
     0
 49
-0.025
 74
     0
  0
LTYPE
  5
5F
330
5
100
AcDbSymbolTableRecord
100
AcDbLinetypeTableRecord
  2
PHANTOM
 70
     0
  3
Phantom ______  __  __  ______  __  __  ______
 72
    65
 73
     6
 40
0.5
 49
0.25
 74
     0
 49
-0.05
 74
     0
 49
0.05
 74
     0
 49
-0.05
 74
     0
 49
0.05
 74
     0
 49
-0.05
 74
     0
  0
LTYPE
  5
60
330
5
100
AcDbSymbolTableRecord
100
AcDbLinetypeTableRecord
  2
CENTER
 70
     0
  3
Center ____ _ ____ _ ____ _ ____ _ ____ _ ____
 72
    65
 73
     4
 40
0.4
 49
0.25
 74
     0
 49
-0.05
 74
     0
 49
0.05
 74
     0
 49
-0.05
 74
     0
  0
LTYPE
  5
61
330
5
100
AcDbSymbolTableRecord
100
AcDbLinetypeTableRecord
  2
CENTERX2
 70
     0
  3
Center (2x) ________  __  ________  __  _____
 72
    65
 73
     4
 40
0.8
 49
0.5
 74
     0
 49
-0.1
 74
     0
 49
0.1
 74
     0
 49
-0.1
 74
     0
  0
LTYPE
  5
62
330
5
100
AcDbSymbolTableRecord
100
AcDbLinetypeTableRecord
  2
DOT2
 70
     0
  3
Dot (.5x) ........................................
 72
    65
 73
     2
 40
0.025
 49
0.0
 74
     0
 49
-0.025
 74
     0
  0
ENDTAB
  0
TABLE
  2
LAYER
  5
2
330
0
100
AcDbSymbolTable
 70
     1
  0
LAYER
  5
10
330
2
100
AcDbSymbolTableRecord
100
AcDbLayerTableRecord
  2
0
 70
     0
 62
     7
  6
Continuous
370
    -3
390
F
  0
ENDTAB
  0
TABLE
  2
STYLE
  5
3
330
0
100
AcDbSymbolTable
 70
     2
  0
STYLE
  5
11
330
3
100
AcDbSymbolTableRecord
100
AcDbTextStyleTableRecord
  2
Standard
 70
     0
 40
0.0
 41
1.0
 50
0.0
 71
     0
 42
0.1377952756
  3
txt
  4

  0
STYLE
  5
134
330
3
100
AcDbSymbolTableRecord
100
AcDbTextStyleTableRecord
  2
SLDTEXTSTYLE0
 70
     0
 40
0.0
 41
0.7
 50
0.0
 71
     0
 42
0.1377952756
  3
TXT
  4

  0
ENDTAB
  0
TABLE
  2
VIEW
  5
6
330
0
100
AcDbSymbolTable
 70
     0
  0
ENDTAB
  0
TABLE
  2
UCS
  5
7
330
0
100
AcDbSymbolTable
 70
     0
  0
ENDTAB
  0
TABLE
  2
APPID
  5
9
330
0
100
AcDbSymbolTable
 70
     1
  0
APPID
  5
12
330
9
100
AcDbSymbolTableRecord
100
AcDbRegAppTableRecord
  2
ACAD
 70
     0
  0
ENDTAB
  0
TABLE
  2
DIMSTYLE
  5
A
330
0
100
AcDbSymbolTable
 70
     1
100
AcDbDimStyleTable
  0
DIMSTYLE
105
27
330
A
100
AcDbSymbolTableRecord
100
AcDbDimStyleTableRecord
  2
Standard
 70
     0
178
     0
340
11
  0
ENDTAB
  0
TABLE
  2
BLOCK_RECORD
  5
1
330
0
100
AcDbSymbolTable
 70
     1
  0
BLOCK_RECORD
  5
1F
330
1
100
AcDbSymbolTableRecord
100
AcDbBlockTableRecord
  2
*Model_Space
340
22
  0
BLOCK_RECORD
  5
1B
330
1
100
AcDbSymbolTableRecord
100
AcDbBlockTableRecord
  2
*Paper_Space
340
1E
  0
BLOCK_RECORD
  5
23
330
1
100
AcDbSymbolTableRecord
100
AcDbBlockTableRecord
  2
*Paper_Space0
340
26
  0
ENDTAB
  0
ENDSEC
  0
SECTION
  2
BLOCKS
  0
BLOCK
  5
20
330
1F
100
AcDbEntity
  8
0
100
AcDbBlockBegin
  2
*Model_Space
 70
     0
 10
0.0
 20
0.0
 30
0.0
  3
*Model_Space
  1

  0
ENDBLK
  5
21
330
1F
100
AcDbEntity
  8
0
100
AcDbBlockEnd
  0
BLOCK
  5
1C
330
1B
100
AcDbEntity
 67
     1
  8
0
100
AcDbBlockBegin
  2
*Paper_Space
 70
     0
 10
0.0
 20
0.0
 30
0.0
  3
*Paper_Space
  1

  0
ENDBLK
  5
1D
330
1B
100
AcDbEntity
 67
     1
  8
0
100
AcDbBlockEnd
  0
BLOCK
  5
24
330
23
100
AcDbEntity
  8
0
100
AcDbBlockBegin
  2
*Paper_Space0
 70
     0
 10
0.0
 20
0.0
 30
0.0
  3
*Paper_Space0
  1

  0
ENDBLK
  5
25
330
23
100
AcDbEntity
  8
0
100
AcDbBlockEnd
  0
ENDSEC
  0
SECTION
  2
ENTITIES
  0
CIRCLE
  5
63
330
1F
100
AcDbEntity
  8
0
  6
Continuous
 62
     7
370
    25
100
AcDbCircle
 10
6.5715420271
 20
2.3125361501
 30
0.0
 40
0.0885826771653527
  0
CIRCLE
  5
64
330
1F
100
AcDbEntity
  8
0
  6
Continuous
 62
     7
370
    25
100
AcDbCircle
 10
6.5715420271
 20
2.7748220285
 30
0.0
 40
0.0885826771653558
  0
CIRCLE
  5
65
330
1F
100
AcDbEntity
  8
0
  6
Continuous
 62
     7
370
    25
100
AcDbCircle
 10
6.5715420271
 20
0.3125361501
 30
0.0
 40
0.0885826771653548
  0
CIRCLE
  5
66
330
1F
100
AcDbEntity
  8
0
  6
Continuous
 62
     7
370
    25
100
AcDbCircle
 10
0.3510695862
 20
1.8400952052
 30
0.0
 40
0.0885826771653574
  0
LINE
  5
67
330
1F
100
AcDbEntity
  8
0
  6
Continuous
 62
     7
370
    25
100
AcDbLine
 10
0.1148491137
 20
0.1747408745
 30
0.0
 11
0.1148491137
 21
1.9911456401
 31
0.0
  0
ARC
  5
68
330
1F
100
AcDbEntity
  8
0
  6
Continuous
 62
     7
370
    25
100
AcDbCircle
 10
0.2132743106
 20
1.9911456401
 30
0.0
 40
0.0984251968504003
100
AcDbArc
 50
98.258920504
 51
180.0
  0
LINE
  5
69
330
1F
100
AcDbEntity
  8
0
  6
Continuous
 62
     7
370
    25
100
AcDbLine
 10
0.1991358557
 20
2.0885500726
 30
0.0
 11
6.6951988478
 21
3.0314670521
 31
0.0
  0
ARC
  5
6A
330
1F
100
AcDbEntity
  8
0
  6
Continuous
 62
     7
370
    25
100
AcDbCircle
 10
6.7093373027
 20
2.9340626197
 30
0.0
 40
0.0984251968503934
100
AcDbArc
 50
360.0
 51
98.258920504
  0
LINE
  5
6B
330
1F
100
AcDbEntity
  8
0
  6
Continuous
 62
     7
370
    25
100
AcDbLine
 10
6.8077624995
 20
2.9340626197
 30
0.0
 11
6.8077624995
 21
0.1747408745
 31
0.0
  0
ARC
  5
6C
330
1F
100
AcDbEntity
  8
0
  6
Continuous
 62
     7
370
    25
100
AcDbCircle
 10
6.7093373027
 20
0.1747408745
 30
0.0
 40
0.0984251968503944
100
AcDbArc
 50
270.0
 51
0.0
  0
LINE
  5
6D
330
1F
100
AcDbEntity
  8
0
  6
Continuous
 62
     7
370
    25
100
AcDbLine
 10
6.7093373027
 20
0.0763156777
 30
0.0
 11
0.2132743106
 21
0.0763156777
 31
0.0
  0
SPLINE
  5
6E
330
1F
100
AcDbEntity
  8
0
  6
Continuous
 62
     7
370
    25
100
AcDbSpline
210
0.0
220
0.0
230
1.0
 70
     8
 71
     3
 72
    15
 73
    11
 74
     0
 42
0.00000001
 43
0.00000001
 40
0.0
 40
0.0
 40
0.0
 40
0.0
 40
0.090682925570197
 40
0.2040019404921458
 40
0.3393690388403332
 40
0.4986693809858332
 40
0.6581556262662852
 40
0.793828837002928
 40
0.9074924937503075
 40
0.9999999999999999
 40
0.9999999999999999
 40
0.9999999999999999
 40
0.9999999999999999
 10
4.027299543198396
 20
1.785202961051354
 30
0.0
 10
4.033243703553079
 20
1.784771753230683
 30
0.0
 10
4.04661579360564
 20
1.783801700361086
 30
0.0
 10
4.068680731571575
 20
1.780432498315526
 30
0.0
 10
4.094940532286292
 20
1.775043360991972
 30
0.0
 10
4.124124596715383
 20
1.768841888384884
 30
0.0
 10
4.153142751803607
 20
1.761694343050386
 30
0.0
 10
4.178719493615882
 20
1.753529861383905
 30
0.0
 10
4.200068769574415
 20
1.746350962768692
 30
0.0
 10
4.212050963331119
 20
1.73998907861707
 30
0.0
 10
4.217427286807791
 20
1.737134547317149
 30
0.0
  0
SPLINE
  5
6F
330
1F
100
AcDbEntity
  8
0
  6
Continuous
 62
     7
370
    25
100
AcDbSpline
210
0.0
220
0.0
230
1.0
 70
     8
 71
     3
 72
    15
 73
    11
 74
     0
 42
0.00000001
 43
0.00000001
 40
0.0
 40
0.0
 40
0.0
 40
0.0
 40
0.0813360998705399
 40
0.1695862098013958
 40
0.2696465705170115
 40
0.3844723518103673
 40
0.514935100658903
 40
0.6609550420404451
 40
0.8223642717058532
 40
1.0
 40
1.0
 40
1.0
 40
1.0
 10
4.217427286807791
 20
1.737134547317149
 30
0.0
 10
4.223949301089672
 20
1.732215789444598
 30
0.0
 10
4.237547736275214
 20
1.721960152576536
 30
0.0
 10
4.252971996479054
 20
1.699371028615287
 30
0.0
 10
4.26482091878262
 20
1.671410060836853
 30
0.0
 10
4.273284113072484
 20
1.637855168519757
 30
0.0
 10
4.278954950552844
 20
1.599154068553288
 30
0.0
 10
4.282752039007165
 20
1.55557466183328
 30
0.0
 10
4.285767855279856
 20
1.507205222592512
 30
0.0
 10
4.285983478088489
 20
1.473336048105665
 30
0.0
 10
4.286096449285221
 20
1.455590981159673
 30
0.0
  0
LINE
  5
70
330
1F
100
AcDbEntity
  8
0
  6
Continuous
 62
     7
370
    25
100
AcDbLine
 10
4.2860964493
 20
1.4555909812
 30
0.0
 11
4.2860964493
 21
0.3967983322
 31
0.0
  0
LINE
  5
71
330
1F
100
AcDbEntity
  8
0
  6
Continuous
 62
     7
370
    25
100
AcDbLine
 10
4.2860964493
 20
0.3967983322
 30
0.0
 11
4.3843791881
 21
0.3967983322
 31
0.0
  0
LINE
  5
72
330
1F
100
AcDbEntity
  8
0
  6
Continuous
 62
     7
370
    25
100
AcDbLine
 10
4.3843791881
 20
0.3967983322
 30
0.0
 11
5.3530435613
 21
1.5800538382
 31
0.0
  0
LINE
  5
73
330
1F
100
AcDbEntity
  8
0
  6
Continuous
 62
     7
370
    25
100
AcDbLine
 10
5.3530435613
 20
1.5800538382
 30
0.0
 11
5.3530435613
 21
0.8341350607
 31
0.0
  0
SPLINE
  5
74
330
1F
100
AcDbEntity
  8
0
  6
Continuous
 62
     7
370
    25
100
AcDbSpline
210
0.0
220
0.0
230
1.0
 70
     8
 71
     3
 72
    15
 73
    11
 74
     0
 42
0.00000001
 43
0.00000001
 40
0.0
 40
0.0
 40
0.0
 40
0.0
 40
0.1932602322636908
 40
0.3629261673966465
 40
0.5108265517280924
 40
0.6348474688970253
 40
0.7424054669696872
 40
0.8373228306219531
 40
0.9224854339467904
 40
1.0
 40
1.0
 40
1.0
 40
1.0
 10
5.353043561278354
 20
0.8341350607389001
 30
0.0
 10
5.352869035568105
 20
0.814458563722718
 30
0.0
 10
5.35254129122883
 20
0.777507787216712
 30
0.0
 10
5.349353025952506
 20
0.7255827911345104
 30
0.0
 10
5.344329523839704
 20
0.6808697691678234
 30
0.0
 10
5.336847682447052
 20
0.6429391259245829
 30
0.0
 10
5.327230832634051
 20
0.6109858848680377
 30
0.0
 10
5.314462190803377
 20
0.5846133584769991
 30
0.0
 10
5.300605346476668
 20
0.562039709149423
 30
0.0
 10
5.288159058933391
 20
0.5509897898240409
 30
0.0
 10
5.282228487473498
 20
0.5457245783336784
 30
0.0
  0
SPLINE
  5
75
330
1F
100
AcDbEntity
  8
0
  6
Continuous
 62
     7
370
    25
100
AcDbSpline
210
0.0
220
0.0
230
1.0
 70
     8
 71
     3
 72
    15
 73
    11
 74
     0
 42
0.00000001
 43
0.00000001
 40
0.0
 40
0.0
 40
0.0
 40
0.0
 40
0.0878447424983781
 40
0.2013747867230098
 40
0.3443629394733308
 40
0.5142058717250115
 40
0.6833777506523222
 40
0.8206977152125282
 40
0.9262442636270094
 40
0.9999999999999999
 40
0.9999999999999999
 40
0.9999999999999999
 40
0.9999999999999999
 10
5.282228487473501
 20
0.5457245783336773
 30
0.0
 10
5.276905583124171
 20
0.5418141838660324
 30
0.0
 10
5.264703387550393
 20
0.5328500178894495
 30
0.0
 10
5.240779582630162
 20
0.5226650225539007
 30
0.0
 10
5.21045997741567
 20
0.5126004280557153
 30
0.0
 10
5.175461462570849
 20
0.5034462958416216
 30
0.0
 10
5.140591069059552
 20
0.4956938841295241
 30
0.0
 10
5.110332697766777
 20
0.4895181831637048
 30
0.0
 10
5.087004199614294
 20
0.4848972234582471
 30
0.0
 10
5.073586066649199
 20
0.4839023780592546
 30
0.0
 10
5.068066536997
 20
0.4834931498385033
 30
0.0
  0
LINE
  5
76
330
1F
100
AcDbEntity
  8
0
  6
Continuous
 62
     7
370
    25
100
AcDbLine
 10
5.068066537
 20
0.4834931498
 30
0.0
 11
5.068066537
 21
0.410961347
 31
0.0
  0
LINE
  5
77
330
1F
100
AcDbEntity
  8
0
  6
Continuous
 62
     7
370
    25
100
AcDbLine
 10
5.068066537
 20
0.410961347
 30
0.0
 11
5.7238570387
 21
0.410961347
 31
0.0
  0
LINE
  5
78
330
1F
100
AcDbEntity
  8
0
  6
Continuous
 62
     7
370
    25
100
AcDbLine
 10
5.7238570387
 20
0.410961347
 30
0.0
 11
5.7238570387
 21
0.4834931498
 31
0.0
  0
SPLINE
  5
79
330
1F
100
AcDbEntity
  8
0
  6
Continuous
 62
     7
370
    25
100
AcDbSpline
210
0.0
220
0.0
230
1.0
 70
     8
 71
     3
 72
    15
 73
    11
 74
     0
 42
0.00000001
 43
0.00000001
 40
0.0
 40
0.0
 40
0.0
 40
0.0
 40
0.0892734022134685
 40
0.2063524183335878
 40
0.3493770596535308
 40
0.5210679107648235
 40
0.6904455313775592
 40
0.8250433786355579
 40
0.9281089354806711
 40
1.0
 40
1.0
 40
1.0
 40
1.0
 10
5.723857038656495
 20
0.4834931498385022
 30
0.0
 10
5.717910991398421
 20
0.4840684193275767
 30
0.0
 10
5.704166906365176
 20
0.4853981350919686
 30
0.0
 10
5.681141624614462
 20
0.4895085610780809
 30
0.0
 10
5.65283705019955
 20
0.4952752383535441
 30
0.0
 10
5.621421106855911
 20
0.5031455682064969
 30
0.0
 10
5.590615274515898
 20
0.5111670534226934
 30
0.0
 10
5.564630027825465
 20
0.5192397338461027
 30
0.0
 10
5.545201549354182
 20
0.5266912141141241
 30
0.0
 10
5.535245302371701
 20
0.5328808382652875
 30
0.0
 10
5.531154201454194
 20
0.5354242039620635
 30
0.0
  0
SPLINE
  5
7A
330
1F
100
AcDbEntity
  8
0
  6
Continuous
 62
     7
370
    25
100
AcDbSpline
210
0.0
220
0.0
230
1.0
 70
     8
 71
     3
 72
    19
 73
    15
 74
     0
 42
0.00000001
 43
0.00000001
 40
0.0
 40
0.0
 40
0.0
 40
0.0
 40
0.0795094555055276
 40
0.1605935085330945
 40
0.2474825112258516
 40
0.3410875387348837
 40
0.3941906915256864
 40
0.4561130395933552
 40
0.5259791919911476
 40
0.6034516135335329
 40
0.6898636996457062
 40
0.785347206537766
 40
0.8884748209892857
 40
1.0
 40
1.0
 40
1.0
 40
1.0
 10
5.531154201454194
 20
0.5354242039620635
 30
0.0
 10
5.524838352069378
 20
0.5405495287452378
 30
0.0
 10
5.512081574832946
 20
0.550901679744995
 30
0.0
 10
5.496869472059881
 20
0.5713710991695068
 30
0.0
 10
5.485243744830977
 20
0.5954787704504066
 30
0.0
 10
5.477921077991483
 20
0.6182403875364342
 30
0.0
 10
5.47361807321915
 20
0.6390818629956222
 30
0.0
 10
5.470245118769111
 20
0.6576461849582448
 30
0.0
 10
5.468221841831047
 20
0.6789033874218475
 30
0.0
 10
5.465846176015837
 20
0.7026241973381673
 30
0.0
 10
5.464598637867981
 20
0.7290531574579349
 30
0.0
 10
5.463149102247623
 20
0.7580840921318477
 30
0.0
 10
5.462621930034143
 20
0.7897129815603882
 30
0.0
 10
5.462531844098406
 20
0.8116030830162899
 30
0.0
 10
5.462485038976764
 20
0.8229763218363171
 30
0.0
  0
LINE
  5
7B
330
1F
100
AcDbEntity
  8
0
  6
Continuous
 62
     7
370
    25
100
AcDbLine
 10
5.462485039
 20
0.8229763218
 30
0.0
 11
5.462485039
 21
1.5354188825
 31
0.0
  0
SPLINE
  5
7C
330
1F
100
AcDbEntity
  8
0
  6
Continuous
 62
     7
370
    25
100
AcDbSpline
210
0.0
220
0.0
230
1.0
 70
     8
 71
     3
 72
    13
 73
     9
 74
     0
 42
0.00000001
 43
0.00000001
 40
0.0
 40
0.0
 40
0.0
 40
0.0
 40
0.2554451407083421
 40
0.5205575862738989
 40
0.651714609761619
 40
0.7745962186414815
 40
0.8894244052007562
 40
1.0
 40
1.0
 40
1.0
 40
1.0
 10
5.462485038976764
 20
1.535418882539692
 30
0.0
 10
5.463254989869361
 20
1.551117960415937
 30
0.0
 10
5.464824030396381
 20
1.583110246757045
 30
0.0
 10
5.477092924286941
 20
1.621518313148733
 30
0.0
 10
5.489488788075588
 20
1.65084881830592
 30
0.0
 10
5.500915997344129
 20
1.670420278169015
 30
0.0
 10
5.513762451016444
 20
1.687604209803834
 30
0.0
 10
5.523990667476487
 20
1.696935029582574
 30
0.0
 10
5.529008290126772
 20
1.701512419281984
 30
0.0
  0
SPLINE
  5
7D
330
1F
100
AcDbEntity
  8
0
  6
Continuous
 62
     7
370
    25
100
AcDbSpline
210
0.0
220
0.0
230
1.0
 70
     8
 71
     3
 72
    15
 73
    11
 74
     0
 42
0.00000001
 43
0.00000001
 40
0.0
 40
0.0
 40
0.0
 40
0.0
 40
0.1139341727103861
 40
0.2366207892111436
 40
0.3726470969063468
 40
0.5192817558895418
 40
0.6629415483441398
 40
0.7909359619842162
 40
0.9028306260487984
 40
1.0
 40
1.0
 40
1.0
 40
1.0
 10
5.529008290126776
 20
1.701512419281984
 30
0.0
 10
5.536279465248754
 20
1.707015361430854
 30
0.0
 10
5.551380388482984
 20
1.718443982741503
 30
0.0
 10
5.57712793222221
 20
1.733627063473149
 30
0.0
 10
5.606714213255069
 20
1.746969540557169
 30
0.0
 10
5.638525545258408
 20
1.759319584047315
 30
0.0
 10
5.67047975081617
 20
1.76927448486068
 30
0.0
 10
5.699956382613309
 20
1.777849796195881
 30
0.0
 10
5.726508070103878
 20
1.782831647090727
 30
0.0
 10
5.743157262653981
 20
1.784450531420914
 30
0.0
 10
5.750895521381981
 20
1.785202961051358
 30
0.0
  0
LINE
  5
7E
330
1F
100
AcDbEntity
  8
0
  6
Continuous
 62
     7
370
    25
100
AcDbLine
 10
5.7508955214
 20
1.7852029611
 30
0.0
 11
5.7508955214
 21
1.8573055817
 31
0.0
  0
LINE
  5
7F
330
1F
100
AcDbEntity
  8
0
  6
Continuous
 62
     7
370
    25
100
AcDbLine
 10
5.7508955214
 20
1.8573055817
 30
0.0
 11
5.2946747732
 21
1.8573055817
 31
0.0
  0
LINE
  5
80
330
1F
100
AcDbEntity
  8
0
  6
Continuous
 62
     7
370
    25
100
AcDbLine
 10
5.2946747732
 20
1.8573055817
 30
0.0
 11
4.395537927
 21
0.7543071594
 31
0.0
  0
LINE
  5
81
330
1F
100
AcDbEntity
  8
0
  6
Continuous
 62
     7
370
    25
100
AcDbLine
 10
4.395537927
 20
0.7543071594
 30
0.0
 11
4.395537927
 21
1.4427155132
 31
0.0
  0
SPLINE
  5
82
330
1F
100
AcDbEntity
  8
0
  6
Continuous
 62
     7
370
    25
100
AcDbSpline
210
0.0
220
0.0
230
1.0
 70
     8
 71
     3
 72
    15
 73
    11
 74
     0
 42
0.00000001
 43
0.00000001
 40
0.0
 40
0.0
 40
0.0
 40
0.0
 40
0.1972591790563175
 40
0.3706071770679019
 40
0.5206541018789989
 40
0.6480105629898608
 40
0.7565402885920937
 40
0.8495388490074072
 40
0.9293349244330408
 40
1.0
 40
1.0
 40
1.0
 40
1.0
 10
4.395537926983636
 20
1.442715513195154
 30
0.0
 10
4.395730407272985
 20
1.462533002765958
 30
0.0
 10
4.396092035953678
 20
1.499765763753526
 30
0.0
 10
4.399057303596192
 20
1.552019687685929
 30
0.0
 10
4.40472784462358
 20
1.596989626202145
 30
0.0
 10
4.412485610378344
 20
1.635012931878465
 30
0.0
 10
4.422442508118568
 20
1.66664127465872
 30
0.0
 10
4.434505295852101
 20
1.692187927272141
 30
0.0
 10
4.447838993578777
 20
1.713111923937369
 30
0.0
 10
4.459852441102802
 20
1.722448968267659
 30
0.0
 10
4.46549463625752
 20
1.726834172945537
 30
0.0
  0
SPLINE
  5
83
330
1F
100
AcDbEntity
  8
0
  6
Continuous
 62
     7
370
    25
100
AcDbSpline
210
0.0
220
0.0
230
1.0
 70
     8
 71
     3
 72
    15
 73
    11
 74
     0
 42
0.00000001
 43
0.00000001
 40
0.0
 40
0.0
 40
0.0
 40
0.0
 40
0.0935149104954036
 40
0.2069061363323799
 40
0.342195194266265
 40
0.4985970072646544
 40
0.6558908988838268
 40
0.7909001446093054
 40
0.9061520617364645
 40
1.0
 40
1.0
 40
1.0
 40
1.0
 10
4.46549463625752
 20
1.726834172945537
 30
0.0
 10
4.471512042657636
 20
1.730183620622045
 30
0.0
 10
4.484825837242854
 20
1.737594431089839
 30
0.0
 10
4.508367400413708
 20
1.746679271037751
 30
0.0
 10
4.536625495544365
 20
1.756139938089055
 30
0.0
 10
4.568547685348483
 20
1.764679291151838
 30
0.0
 10
4.600531231346872
 20
1.772867424172861
 30
0.0
 10
4.629916335604637
 20
1.778846580034663
 30
0.0
 10
4.654881534670199
 20
1.783154982522279
 30
0.0
 10
4.670204333525914
 20
1.78456853305225
 30
0.0
 10
4.677081493141112
 20
1.785202961051355
 30
0.0
  0
LINE
  5
84
330
1F
100
AcDbEntity
  8
0
  6
Continuous
 62
     7
370
    25
100
AcDbLine
 10
4.6770814931
 20
1.7852029611
 30
0.0
 11
4.6770814931
 21
1.8573055817
 31
0.0
  0
LINE
  5
85
330
1F
100
AcDbEntity
  8
0
  6
Continuous
 62
     7
370
    25
100
AcDbLine
 10
4.6770814931
 20
1.8573055817
 30
0.0
 11
4.0272995432
 21
1.8573055817
 31
0.0
  0
LINE
  5
86
330
1F
100
AcDbEntity
  8
0
  6
Continuous
 62
     7
370
    25
100
AcDbLine
 10
4.0272995432
 20
1.8573055817
 30
0.0
 11
4.0272995432
 21
1.7852029611
 31
0.0
  0
SPLINE
  5
87
330
1F
100
AcDbEntity
  8
0
  6
Continuous
 62
     7
370
    25
100
AcDbSpline
210
0.0
220
0.0
230
1.0
 70
     8
 71
     3
 72
    15
 73
    11
 74
     0
 42
0.00000001
 43
0.00000001
 40
0.0
 40
0.0
 40
0.0
 40
0.0
 40
0.0889748945567553
 40
0.1958193264700835
 40
0.3237623624947987
 40
0.4698267974182566
 40
0.6192520258302302
 40
0.7569043005849468
 40
0.8843245376880206
 40
1.0
 40
1.0
 40
1.0
 40
1.0
 10
2.283450499558535
 20
1.785202961051349
 30
0.0
 10
2.289322035297541
 20
1.78483732497141
 30
0.0
 10
2.30224433410426
 20
1.784032619202853
 30
0.0
 10
2.323464485030219
 20
1.781175426506878
 30
0.0
 10
2.34838937595533
 20
1.777647574987564
 30
0.0
 10
2.375963799069761
 20
1.772852335983372
 30
0.0
 10
2.404048995656931
 20
1.767144944801385
 30
0.0
 10
2.430297111501533
 20
1.759251533676285
 30
0.0
 10
2.454032780281121
 20
1.750677586976964
 30
0.0
 10
2.468148784018691
 20
1.742955135512498
 30
0.0
 10
2.474865789964381
 20
1.739280458644565
 30
0.0
  0
SPLINE
  5
88
330
1F
100
AcDbEntity
  8
0
  6
Continuous
 62
     7
370
    25
100
AcDbSpline
210
0.0
220
0.0
230
1.0
 70
     8
 71
     3
 72
    15
 73
    11
 74
     0
 42
0.00000001
 43
0.00000001
 40
0.0
 40
0.0
 40
0.0
 40
0.0
 40
0.0787929995061367
 40
0.1659659531415068
 40
0.2680715949707825
 40
0.3861390186257923
 40
0.5195009725080639
 40
0.6663937746332514
 40
0.8260405130941622
 40
1.0
 40
1.0
 40
1.0
 40
1.0
 10
2.474865789964381
 20
1.739280458644565
 30
0.0
 10
2.48103686010698
 20
1.734570350045889
 30
0.0
 10
2.494035318657075
 20
1.724649193751824
 30
0.0
 10
2.508461084756438
 20
1.702238789548587
 30
0.0
 10
2.520383761570535
 20
1.674570072477941
 30
0.0
 10
2.528924148259565
 20
1.640909944893246
 30
0.0
 10
2.535167744861407
 20
1.602404600643409
 30
0.0
 10
2.539057971059116
 20
1.559507253771422
 30
0.0
 10
2.542411381046046
 20
1.512580505819195
 30
0.0
 10
2.542585692783365
 20
1.479918653528228
 30
0.0
 10
2.542676587910853
 20
1.462887079672896
 30
0.0
  0
LINE
  5
89
330
1F
100
AcDbEntity
  8
0
  6
Continuous
 62
     7
370
    25
100
AcDbLine
 10
2.5426765879
 20
1.4628870797
 30
0.0
 11
2.5426765879
 21
0.8341350607
 31
0.0
  0
SPLINE
  5
8A
330
1F
100
AcDbEntity
  8
0
  6
Continuous
 62
     7
370
    25
100
AcDbSpline
210
0.0
220
0.0
230
1.0
 70
     8
 71
     3
 72
    15
 73
    11
 74
     0
 42
0.00000001
 43
0.00000001
 40
0.0
 40
0.0
 40
0.0
 40
0.0
 40
0.1370962233469364
 40
0.2661723295534168
 40
0.3912418687309923
 40
0.5136660936121519
 40
0.6349789060133098
 40
0.7554456513266108
 40
0.8765830353850299
 40
1.0
 40
1.0
 40
1.0
 40
1.0
 10
2.542676587910853
 20
0.8341350607388947
 30
0.0
 10
2.543291124110436
 20
0.8146302954755279
 30
0.0
 10
2.544484246195386
 20
0.7767617920200734
 30
0.0
 10
2.555046724066004
 20
0.7219057678753389
 30
0.0
 10
2.572425227653648
 20
0.6710904093303863
 30
0.0
 10
2.596710320032836
 20
0.624397523775221
 30
0.0
 10
2.626869897965058
 20
0.5821484474347373
 30
0.0
 10
2.661184261003229
 20
0.5435303490327137
 30
0.0
 10
2.699670800157846
 20
0.5084605032285591
 30
0.0
 10
2.728537046366557
 20
0.4890148060179905
 30
0.0
 10
2.743104705891861
 20
0.4792013271836563
 30
0.0
  0
SPLINE
  5
8B
330
1F
100
AcDbEntity
  8
0
  6
Continuous
 62
     7
370
    25
100
AcDbSpline
210
0.0
220
0.0
230
1.0
 70
     8
 71
     3
 72
    15
 73
    11
 74
     0
 42
0.00000001
 43
0.00000001
 40
0.0
 40
0.0
 40
0.0
 40
0.0
 40
0.1306276502905041
 40
0.2606305009453171
 40
0.388851154401035
 40
0.5170994138539512
 40
0.6432323990955602
 40
0.7658358249651646
 40
0.8842482762064794
 40
1.0
 40
1.0
 40
1.0
 40
1.0
 10
2.743104705891861
 20
0.4792013271836563
 30
0.0
 10
2.757910413749568
 20
0.4704195626269984
 30
0.0
 10
2.787451012904663
 20
0.4528980372034348
 30
0.0
 10
2.834092813575983
 20
0.4315611882692224
 30
0.0
 10
2.881712518317614
 20
0.4134719537503388
 30
0.0
 10
2.930264270132615
 20
0.3997833981504045
 30
0.0
 10
2.978830031357167
 20
0.3893514121482915
 30
0.0
 10
3.026615496596711
 20
0.3818497776606081
 30
0.0
 10
3.073406774132676
 20
0.3770885998866414
 30
0.0
 10
3.104250783167578
 20
0.3764923305389868
 30
0.0
 10
3.119497552721296
 20
0.3761975834675061
 30
0.0
  0
SPLINE
  5
8C
330
1F
100
AcDbEntity
  8
0
  6
Continuous
 62
     7
370
    25
100
AcDbSpline
210
0.0
220
0.0
230
1.0
 70
     8
 71
     3
 72
    15
 73
    11
 74
     0
 42
0.00000001
 43
0.00000001
 40
0.0
 40
0.0
 40
0.0
 40
0.0
 40
0.1484258668262339
 40
0.289663526244285
 40
0.4235839183048653
 40
0.5513990371794636
 40
0.672573438765878
 40
0.7873059615304222
 40
0.8958652019238833
 40
0.9999999999999999
 40
0.9999999999999999
 40
0.9999999999999999
 40
0.9999999999999999
 10
3.119497552721296
 20
0.3761975834675061
 30
0.0
 10
3.14282968741181
 20
0.3766146361713672
 30
0.0
 10
3.188363990520679
 20
0.377428543877704
 30
0.0
 10
3.254729128812881
 20
0.3836020499635325
 30
0.0
 10
3.31723895249428
 20
0.3942440357751886
 30
0.0
 10
3.375565505079574
 20
0.4093347822773338
 30
0.0
 10
3.429783457996025
 20
0.4276666263714771
 30
0.0
 10
3.479450780657722
 20
0.4493508825818624
 30
0.0
 10
3.52482710602149
 20
0.4738871418320587
 30
0.0
 10
3.552076600224965
 20
0.4933012318541696
 30
0.0
 10
3.565417926559133
 20
0.502806351785276
 30
0.0
  0
SPLINE
  5
8D
330
1F
100
AcDbEntity
  8
0
  6
Continuous
 62
     7
370
    25
100
AcDbSpline
210
0.0
220
0.0
230
1.0
 70
     8
 71
     3
 72
    15
 73
    11
 74
     0
 42
0.00000001
 43
0.00000001
 40
0.0
 40
0.0
 40
0.0
 40
0.0
 40
0.1375580297977056
 40
0.2684003548100179
 40
0.3957394889912179
 40
0.5206768326700179
 40
0.6429488947746311
 40
0.7623619301895226
 40
0.8806676399926365
 40
1.0
 40
1.0
 40
1.0
 40
1.0
 10
3.565417926559133
 20
0.502806351785276
 30
0.0
 10
3.577557896904818
 20
0.5125298688600286
 30
0.0
 10
3.601245153497234
 20
0.5315021922983825
 30
0.0
 10
3.631692308350341
 20
0.5643716810605872
 30
0.0
 10
3.658569382897508
 20
0.5983603382990308
 30
0.0
 10
3.680001807284013
 20
0.6349938442112928
 30
0.0
 10
3.696402404606953
 20
0.6730802037258247
 30
0.0
 10
3.708776229676177
 20
0.7118957473894595
 30
0.0
 10
3.715645129435448
 20
0.7517761892925565
 30
0.0
 10
3.716779042585035
 20
0.7786035621392294
 30
0.0
 10
3.717348448540458
 20
0.7920751987214691
 30
0.0
  0
LINE
  5
8E
330
1F
100
AcDbEntity
  8
0
  6
Continuous
 62
     7
370
    25
100
AcDbLine
 10
3.7173484485
 20
0.7920751987
 30
0.0
 11
3.7173484485
 21
1.6474354538
 31
0.0
  0
SPLINE
  5
8F
330
1F
100
AcDbEntity
  8
0
  6
Continuous
 62
     7
370
    25
100
AcDbSpline
210
0.0
220
0.0
230
1.0
 70
     8
 71
     3
 72
    13
 73
     9
 74
     0
 42
0.00000001
 43
0.00000001
 40
0.0
 40
0.0
 40
0.0
 40
0.0
 40
0.2515765116878981
 40
0.4701139543045677
 40
0.5785894146067607
 40
0.7012682467962756
 40
0.8416786808660971
 40
0.9999999999999999
 40
0.9999999999999999
 40
0.9999999999999999
 40
0.9999999999999999
 10
3.717348448540453
 20
1.647435453831002
 30
0.0
 10
3.717796503628747
 20
1.658483355670795
 30
0.0
 10
3.718633771575147
 20
1.679128259226484
 30
0.0
 10
3.727721089571162
 20
1.703199124406769
 30
0.0
 10
3.738489297272038
 20
1.719794577474103
 30
0.0
 10
3.750625948375196
 20
1.730761504524909
 30
0.0
 10
3.765378773223256
 20
1.741836041271696
 30
0.0
 10
3.776904794867196
 20
1.748020129880969
 30
0.0
 10
3.783013335159494
 20
1.75129756207812
 30
0.0
  0
SPLINE
  5
90
330
1F
100
AcDbEntity
  8
0
  6
Continuous
 62
     7
370
    25
100
AcDbSpline
210
0.0
220
0.0
230
1.0
 70
     8
 71
     3
 72
    11
 73
     7
 74
     0
 42
0.00000001
 43
0.00000001
 40
0.0
 40
0.0
 40
0.0
 40
0.0
 40
0.2302869943660114
 40
0.5083276303452724
 40
0.7821482058354671
 40
0.9999999999999999
 40
0.9999999999999999
 40
0.9999999999999999
 40
0.9999999999999999
 10
3.783013335159503
 20
1.75129756207812
 30
0.0
 10
3.793488999631215
 20
1.755916694544838
 30
0.0
 10
3.816612622881663
 20
1.766112809473172
 30
0.0
 10
3.854684982213592
 20
1.774439626156774
 30
0.0
 10
3.89221228111066
 20
1.781393688304971
 30
0.0
 10
3.916470268388307
 20
1.784033364659041
 30
0.0
 10
3.927218576362107
 20
1.785202961051354
 30
0.0
  0
LINE
  5
91
330
1F
100
AcDbEntity
  8
0
  6
Continuous
 62
     7
370
    25
100
AcDbLine
 10
3.9272185764
 20
1.7852029611
 30
0.0
 11
3.9272185764
 21
1.8573055817
 31
0.0
  0
LINE
  5
92
330
1F
100
AcDbEntity
  8
0
  6
Continuous
 62
     7
370
    25
100
AcDbLine
 10
3.9272185764
 20
1.8573055817
 30
0.0
 11
3.2611277003
 21
1.8573055817
 31
0.0
  0
LINE
  5
93
330
1F
100
AcDbEntity
  8
0
  6
Continuous
 62
     7
370
    25
100
AcDbLine
 10
3.2611277003
 20
1.8573055817
 30
0.0
 11
3.2611277003
 21
1.7852029611
 31
0.0
  0
SPLINE
  5
94
330
1F
100
AcDbEntity
  8
0
  6
Continuous
 62
     7
370
    25
100
AcDbSpline
210
0.0
220
0.0
230
1.0
 70
     8
 71
     3
 72
    15
 73
    11
 74
     0
 42
0.00000001
 43
0.00000001
 40
0.0
 40
0.0
 40
0.0
 40
0.0
 40
0.1117396017895034
 40
0.2352042552067338
 40
0.3761524452036606
 40
0.5290881809116975
 40
0.676936107312383
 40
0.8048399235450411
 40
0.9123442446206473
 40
1.0
 40
1.0
 40
1.0
 40
1.0
 10
3.261127700331
 20
1.785202961051352
 30
0.0
 10
3.266782454462131
 20
1.784894482401055
 30
0.0
 10
3.278685326966509
 20
1.784245155841546
 30
0.0
 10
3.297639165495122
 20
1.782161405242747
 30
0.0
 10
3.318608273543532
 20
1.77941817905818
 30
0.0
 10
3.340726520264327
 20
1.775939821097644
 30
0.0
 10
3.362050078509223
 20
1.771798957630579
 30
0.0
 10
3.381192906655065
 20
1.76847119560986
 30
0.0
 10
3.397074884513789
 20
1.764464823225365
 30
0.0
 10
3.406623548004541
 20
1.761894173891152
 30
0.0
 10
3.410912310984907
 20
1.760739571918766
 30
0.0
  0
SPLINE
  5
95
330
1F
100
AcDbEntity
  8
0
  6
Continuous
 62
     7
370
    25
100
AcDbSpline
210
0.0
220
0.0
230
1.0
 70
     8
 71
     3
 72
    13
 73
     9
 74
     0
 42
0.00000001
 43
0.00000001
 40
0.0
 40
0.0
 40
0.0
 40
0.0
 40
0.1448221733833947
 40
0.2752152119146041
 40
0.3974972924913523
 40
0.5161336148079083
 40
0.7524395849284884
 40
1.0
 40
1.0
 40
1.0
 40
1.0
 10
3.410912310984902
 20
1.760739571918768
 30
0.0
 10
3.416857506640579
 20
1.758489604828836
 30
0.0
 10
3.428155557512381
 20
1.754213842664869
 30
0.0
 10
3.443226279120712
 20
1.745189340176863
 30
0.0
 10
3.454915847387759
 20
1.733588907631818
 30
0.0
 10
3.465662298292297
 20
1.71546795492255
 30
0.0
 10
3.473398842199497
 20
1.689803514411116
 30
0.0
 10
3.474649683330721
 20
1.668589531820394
 30
0.0
 10
3.475289650807493
 20
1.657735828202617
 30
0.0
  0
LINE
  5
96
330
1F
100
AcDbEntity
  8
0
  6
Continuous
 62
     7
370
    25
100
AcDbLine
 10
3.4752896508
 20
1.6577358282
 30
0.0
 11
3.4752896508
 21
0.8585984499
 31
0.0
  0
SPLINE
  5
97
330
1F
100
AcDbEntity
  8
0
  6
Continuous
 62
     7
370
    25
100
AcDbSpline
210
0.0
220
0.0
230
1.0
 70
     8
 71
     3
 72
    13
 73
     9
 74
     0
 42
0.00000001
 43
0.00000001
 40
0.0
 40
0.0
 40
0.0
 40
0.0
 40
0.2341162585742233
 40
0.4822197489729847
 40
0.6099478863172743
 40
0.7378143025126397
 40
0.8668473670910112
 40
1.0
 40
1.0
 40
1.0
 40
1.0
 10
3.475289650807497
 20
0.8585984498714814
 30
0.0
 10
3.47455676086602
 20
0.8386819924171784
 30
0.0
 10
3.473047194611393
 20
0.7976591725048201
 30
0.0
 10
3.464511542693568
 20
0.7462696842360743
 30
0.0
 10
3.452893446408957
 20
0.7049646660333689
 30
0.0
 10
3.440597669362257
 20
0.6745674581114264
 30
0.0
 10
3.424829615249425
 20
0.6452662749952572
 30
0.0
 10
3.411899553568487
 20
0.6270688659859662
 30
0.0
 10
3.405332941533613
 20
0.6178271989349784
 30
0.0
  0
SPLINE
  5
98
330
1F
100
AcDbEntity
  8
0
  6
Continuous
 62
     7
370
    25
100
AcDbSpline
210
0.0
220
0.0
230
1.0
 70
     8
 71
     3
 72
    15
 73
    11
 74
     0
 42
0.00000001
 43
0.00000001
 40
0.0
 40
0.0
 40
0.0
 40
0.0
 40
0.0986175554293151
 40
0.1998323593591259
 40
0.3052514083934367
 40
0.4166969852261658
 40
0.5384806824694783
 40
0.6753502593995745
 40
0.8281301993024773
 40
1.0
 40
1.0
 40
1.0
 40
1.0
 10
3.405332941533613
 20
0.6178271989349784
 30
0.0
 10
3.397525347193274
 20
0.6087640597870801
 30
0.0
 10
3.381704533230117
 20
0.5903990894606492
 30
0.0
 10
3.353702718117493
 20
0.5659844788405285
 30
0.0
 10
3.321496473722664
 20
0.544703574161474
 30
0.0
 10
3.285557572582644
 20
0.5247111258579488
 30
0.0
 10
3.243363188509343
 20
0.5089454267238896
 30
0.0
 10
3.19455968570232
 20
0.4981893097512636
 30
0.0
 10
3.138917591001793
 20
0.4916015827507363
 30
0.0
 10
3.099560767503364
 20
0.4907898159831567
 30
0.0
 10
3.07872523750032
 20
0.4903600660862425
 30
0.0
  0
SPLINE
  5
99
330
1F
100
AcDbEntity
  8
0
  6
Continuous
 62
     7
370
    25
100
AcDbSpline
210
0.0
220
0.0
230
1.0
 70
     8
 71
     3
 72
    15
 73
    11
 74
     0
 42
0.00000001
 43
0.00000001
 40
0.0
 40
0.0
 40
0.0
 40
0.0
 40
0.1582016465331239
 40
0.3047952311514553
 40
0.4393633187924204
 40
0.5646236186368289
 40
0.6825423120059257
 40
0.7927580160533055
 40
0.8982820331798914
 40
0.9999999999999999
 40
0.9999999999999999
 40
0.9999999999999999
 40
0.9999999999999999
 10
3.07872523750032
 20
0.4903600660862425
 30
0.0
 10
3.058892029696536
 20
0.4908157523738658
 30
0.0
 10
3.020680877730016
 20
0.4916936889213839
 30
0.0
 10
2.96590907381585
 20
0.4982748481797235
 30
0.0
 10
2.916056305912282
 20
0.5092435626670515
 30
0.0
 10
2.871304644672664
 20
0.5250582583539274
 30
0.0
 10
2.831363490908898
 20
0.5444058813158
 30
0.0
 10
2.795730947227234
 20
0.56640854563364
 30
0.0
 10
2.764363559832939
 20
0.5911787224111879
 30
0.0
 10
2.746936972730858
 20
0.6104932194843661
 30
0.0
 10
2.738383700971538
 20
0.6199731102623969
 30
0.0
  0
SPLINE
  5
9A
330
1F
100
AcDbEntity
  8
0
  6
Continuous
 62
     7
370
    25
100
AcDbSpline
210
0.0
220
0.0
230
1.0
 70
     8
 71
     3
 72
    15
 73
    11
 74
     0
 42
0.00000001
 43
0.00000001
 40
0.0
 40
0.0
 40
0.0
 40
0.0
 40
0.1360331860268345
 40
0.2680774224101052
 40
0.3941569375645527
 40
0.5186050822213375
 40
0.6404102318992096
 40
0.7614892811081528
 40
0.8802986443882237
 40
1.0
 40
1.0
 40
1.0
 40
1.0
 10
2.738383700971538
 20
0.6199731102623969
 30
0.0
 10
2.731144507538258
 20
0.6290829349871868
 30
0.0
 10
2.716878398123308
 20
0.6470354537964422
 30
0.0
 10
2.698603977851131
 20
0.6754456247139649
 30
0.0
 10
2.684103490949628
 20
0.7048356221756708
 30
0.0
 10
2.672805840690772
 20
0.7346410677213342
 30
0.0
 10
2.664126747331507
 20
0.764871609456065
 30
0.0
 10
2.658273601163369
 20
0.7952618920549608
 30
0.0
 10
2.654331097092208
 20
0.8258052756774367
 30
0.0
 10
2.654000640762987
 20
0.8462113457645901
 30
0.0
 10
2.653834794671197
 20
0.8564525385440585
 30
0.0
  0
LINE
  5
9B
330
1F
100
AcDbEntity
  8
0
  6
Continuous
 62
     7
370
    25
100
AcDbLine
 10
2.6538347947
 20
0.8564525385
 30
0.0
 11
2.6538347947
 21
1.4495824294
 31
0.0
  0
SPLINE
  5
9C
330
1F
100
AcDbEntity
  8
0
  6
Continuous
 62
     7
370
    25
100
AcDbSpline
210
0.0
220
0.0
230
1.0
 70
     8
 71
     3
 72
    15
 73
    11
 74
     0
 42
0.00000001
 43
0.00000001
 40
0.0
 40
0.0
 40
0.0
 40
0.0
 40
0.1821912015816206
 40
0.3466191944861377
 40
0.4960679047001566
 40
0.6281798333406894
 40
0.7438646614203821
 40
0.8422047206789698
 40
0.9262272502375033
 40
1.0
 40
1.0
 40
1.0
 40
1.0
 10
2.653834794671193
 20
1.449582429442892
 30
0.0
 10
2.654120879976761
 20
1.467611798556328
 30
0.0
 10
2.654665157951266
 20
1.501912716190899
 30
0.0
 10
2.657667881163621
 20
1.550945138704192
 30
0.0
 10
2.66338425670178
 20
1.594747293866278
 30
0.0
 10
2.671123504143091
 20
1.633325338672549
 30
0.0
 10
2.680970399652962
 20
1.666222240885992
 30
0.0
 10
2.692771481658843
 20
1.693291941559885
 30
0.0
 10
2.706968062494329
 20
1.714739029032891
 30
0.0
 10
2.719309267195856
 20
1.724443180760247
 30
0.0
 10
2.725079050741532
 20
1.728980084272952
 30
0.0
  0
SPLINE
  5
9D
330
1F
100
AcDbEntity
  8
0
  6
Continuous
 62
     7
370
    25
100
AcDbSpline
210
0.0
220
0.0
230
1.0
 70
     8
 71
     3
 72
    15
 73
    11
 74
     0
 42
0.00000001
 43
0.00000001
 40
0.0
 40
0.0
 40
0.0
 40
0.0
 40
0.1114702765663497
 40
0.2348391306550417
 40
0.3720115296507338
 40
0.5220420062503757
 40
0.6708188830257501
 40
0.7982609058943203
 40
0.9091270491900842
 40
1.0
 40
1.0
 40
1.0
 40
1.0
 10
2.725079050741532
 20
1.728980084272952
 30
0.0
 10
2.732140038715163
 20
1.733169166696145
 30
0.0
 10
2.747015719734089
 20
1.741994483227223
 30
0.0
 10
2.772522035965447
 20
1.752106788152564
 30
0.0
 10
2.80116208642393
 20
1.761725127680389
 30
0.0
 10
2.832475454266642
 20
1.768812748180304
 30
0.0
 10
2.863224156732272
 20
1.774872574831457
 30
0.0
 10
2.891218499525225
 20
1.780092036808121
 30
0.0
 10
2.915232153730594
 20
1.783261526324977
 30
0.0
 10
2.930009488324646
 20
1.784600033367903
 30
0.0
 10
2.936665907625124
 20
1.785202961051352
 30
0.0
  0
LINE
  5
9E
330
1F
100
AcDbEntity
  8
0
  6
Continuous
 62
     7
370
    25
100
AcDbLine
 10
2.9366659076
 20
1.7852029611
 30
0.0
 11
2.9366659076
 21
1.8573055817
 31
0.0
  0
LINE
  5
9F
330
1F
100
AcDbEntity
  8
0
  6
Continuous
 62
     7
370
    25
100
AcDbLine
 10
2.9366659076
 20
1.8573055817
 30
0.0
 11
2.2834504996
 21
1.8573055817
 31
0.0
  0
LINE
  5
A0
330
1F
100
AcDbEntity
  8
0
  6
Continuous
 62
     7
370
    25
100
AcDbLine
 10
2.2834504996
 20
1.8573055817
 30
0.0
 11
2.2834504996
 21
1.7852029611
 31
0.0
  0
CIRCLE
  5
A1
330
1F
100
AcDbEntity
  8
0
  6
Continuous
 62
     7
370
    25
100
AcDbCircle
 10
1.1148491137
 20
1.0763156777
 30
0.0
 40
0.5624999999997465
  0
CIRCLE
  5
A2
330
1F
100
AcDbEntity
  8
0
  6
Continuous
 62
     7
370
    25
100
AcDbCircle
 10
0.3510695862
 20
0.3125361501
 30
0.0
 40
0.0885826771653544
  0
CIRCLE
  5
A3
330
1F
100
AcDbEntity
  8
0
  6
Continuous
 62
     7
370
    25
100
AcDbCircle
 10
6.5715420271
 20
1.8400952052
 30
0.0
 40
0.0885826771653574
  0
CIRCLE
  5
A4
330
1F
100
AcDbEntity
  8
0
  6
Continuous
 62
     7
370
    25
100
AcDbCircle
 10
4.2829897079
 20
2.3125361501
 30
0.0
 40
0.0885826771653574
  0
ARC
  5
A5
330
1F
100
AcDbEntity
  8
0
  6
Continuous
 62
     7
370
    25
100
AcDbCircle
 10
0.2132743106
 20
0.1747408745
 30
0.0
 40
0.0984251968503938
100
AcDbArc
 50
180.0
 51
270.0
  0
CIRCLE
  5
A6
330
1F
100
AcDbEntity
  8
0
  6
Continuous
 62
     7
370
    25
100
AcDbCircle
 10
8.5507813768
 20
3.0000935217
 30
0.0
 40
0.0885826771653555
  0
CIRCLE
  5
A7
330
1F
100
AcDbEntity
  8
0
  6
Continuous
 62
     7
370
    25
100
AcDbCircle
 10
8.8663671214
 20
2.577335678
 30
0.0
 40
0.0885826771653537
  0
CIRCLE
  5
A8
330
1F
100
AcDbEntity
  8
0
  6
Continuous
 62
     7
370
    25
100
AcDbCircle
 10
7.6920615112
 20
2.3590652066
 30
0.0
 40
0.0885826771653555
  0
CIRCLE
  5
A9
330
1F
100
AcDbEntity
  8
0
  6
Continuous
 62
     7
370
    25
100
AcDbCircle
 10
9.2642002005
 20
0.3590652066
 30
0.0
 40
0.0885826771653537
  0
CIRCLE
  5
AA
330
1F
100
AcDbEntity
  8
0
  6
Continuous
 62
     7
370
    25
100
AcDbCircle
 10
9.2642002005
 20
1.8866242617
 30
0.0
 40
0.0885826771653537
  0
CIRCLE
  5
AB
330
1F
100
AcDbEntity
  8
0
  6
Continuous
 62
     7
370
    25
100
AcDbCircle
 10
7.216956106
 20
0.3590652066
 30
0.0
 40
0.0885826771653555
  0
CIRCLE
  5
AC
330
1F
100
AcDbEntity
  8
0
  6
Continuous
 62
     7
370
    25
100
AcDbCircle
 10
7.216956106
 20
1.8866242617
 30
0.0
 40
0.0885826771653555
  0
CIRCLE
  5
AD
330
1F
100
AcDbEntity
  8
0
  6
Continuous
 62
     7
370
    25
100
AcDbCircle
 10
7.9807356336
 20
1.1228447341
 30
0.0
 40
0.5625000000000009
  0
ARC
  5
AE
330
1F
100
AcDbEntity
  8
0
  6
Continuous
 62
     7
370
    25
100
AcDbCircle
 10
8.5787740892
 20
3.192944459
 30
0.0
 40
0.0984251968503932
100
AcDbArc
 50
36.741079496
 51
126.741079496
  0
LINE
  5
AF
330
1F
100
AcDbEntity
  8
0
  6
Continuous
 62
     7
370
    25
100
AcDbLine
 10
7.020282893
 20
2.152366484
 30
0.0
 11
8.5198961518
 21
3.271817191
 31
0.0
  0
ARC
  5
B0
330
1F
100
AcDbEntity
  8
0
  6
Continuous
 62
     7
370
    25
100
AcDbCircle
 10
7.0791608304
 20
2.073493752
 30
0.0
 40
0.0984251968503942
100
AcDbArc
 50
126.741079496
 51
180.0
  0
LINE
  5
B1
330
1F
100
AcDbEntity
  8
0
  6
Continuous
 62
     7
370
    25
100
AcDbLine
 10
6.9807356336
 20
2.073493752
 30
0.0
 11
6.9807356336
 21
0.221269931
 31
0.0
  0
ARC
  5
B2
330
1F
100
AcDbEntity
  8
0
  6
Continuous
 62
     7
370
    25
100
AcDbCircle
 10
7.0791608304
 20
0.221269931
 30
0.0
 40
0.0984251968503938
100
AcDbArc
 50
180.0
 51
270.0
  0
LINE
  5
B3
330
1F
100
AcDbEntity
  8
0
  6
Continuous
 62
     7
370
    25
100
AcDbLine
 10
7.0791608304
 20
0.1228447341
 30
0.0
 11
9.4019954761
 21
0.1228447341
 31
0.0
  0
ARC
  5
B4
330
1F
100
AcDbEntity
  8
0
  6
Continuous
 62
     7
370
    25
100
AcDbCircle
 10
9.4019954761
 20
0.221269931
 30
0.0
 40
0.0984251968503938
100
AcDbArc
 50
270.0
 51
0.0
  0
LINE
  5
B5
330
1F
100
AcDbEntity
  8
0
  6
Continuous
 62
     7
370
    25
100
AcDbLine
 10
9.5004206729
 20
2.0901592278
 30
0.0
 11
9.5004206729
 21
0.221269931
 31
0.0
  0
LINE
  5
B6
330
1F
100
AcDbEntity
  8
0
  6
Continuous
 62
     7
370
    25
100
AcDbLine
 10
8.6576468212
 20
3.2518223964
 30
0.0
 11
9.4808682081
 21
2.1490371652
 31
0.0
  0
ARC
  5
B7
330
1F
100
AcDbEntity
  8
0
  6
Continuous
 62
     7
370
    25
100
AcDbCircle
 10
9.4019954761
 20
2.0901592278
 30
0.0
 40
0.0984251968503944
100
AcDbArc
 50
0.0
 51
36.741079496
  0
CIRCLE
  5
B8
330
1F
100
AcDbEntity
  8
0
  6
Continuous
 62
     7
370
    25
100
AcDbCircle
 10
10.0121894442
 20
5.3118130595
 30
0.0
 40
0.0885826771653537
  0
CIRCLE
  5
B9
330
1F
100
AcDbEntity
  8
0
  6
Continuous
 62
     7
370
    25
100
AcDbCircle
 10
11.5397484993
 20
5.3118130595
 30
0.0
 40
0.0885826771653528
  0
CIRCLE
  5
BA
330
1F
100
AcDbEntity
  8
0
  6
Continuous
 62
     7
370
    25
100
AcDbCircle
 10
11.5397484993
 20
7.5952776264
 30
0.0
 40
0.0885826771653546
  0
CIRCLE
  5
BB
330
1F
100
AcDbEntity
  8
0
  6
Continuous
 62
     7
370
    25
100
AcDbCircle
 10
10.1490095571
 20
8.53860488
 30
0.0
 40
0.0885826771653555
  0
CIRCLE
  5
BC
330
1F
100
AcDbEntity
  8
0
  6
Continuous
 62
     7
370
    25
100
AcDbCircle
 10
9.0688621906
 20
7.4584575135
 30
0.0
 40
0.0885826771653537
  0
CIRCLE
  5
BD
330
1F
100
AcDbEntity
  8
0
  6
Continuous
 62
     7
370
    25
100
AcDbCircle
 10
10.7759689717
 20
6.8314980989
 30
0.0
 40
0.5625
  0
LINE
  5
BE
330
1F
100
AcDbEntity
  8
0
  6
Continuous
 62
     7
370
    25
100
AcDbLine
 10
9.7759689717
 20
6.3765154851
 30
0.0
 11
9.7759689717
 21
5.1740177839
 31
0.0
  0
ARC
  5
BF
330
1F
100
AcDbEntity
  8
0
  6
Continuous
 62
     7
370
    25
100
AcDbCircle
 10
9.8743941686
 20
5.1740177839
 30
0.0
 40
0.0984251968503962
100
AcDbArc
 50
180.0
 51
270.0
  0
LINE
  5
C0
330
1F
100
AcDbEntity
  8
0
  6
Continuous
 62
     7
370
    25
100
AcDbLine
 10
11.6775437749
 20
5.075592587
 30
0.0
 11
9.8743941686
 21
5.075592587
 31
0.0
  0
ARC
  5
C1
330
1F
100
AcDbEntity
  8
0
  6
Continuous
 62
     7
370
    25
100
AcDbCircle
 10
11.6775437749
 20
5.1740177839
 30
0.0
 40
0.0984251968503944
100
AcDbArc
 50
270.0
 51
0.0
  0
LINE
  5
C2
330
1F
100
AcDbEntity
  8
0
  6
Continuous
 62
     7
370
    25
100
AcDbLine
 10
11.7759689717
 20
7.7776310979
 30
0.0
 11
11.7759689717
 21
5.1740177839
 31
0.0
  0
ARC
  5
C3
330
1F
100
AcDbEntity
  8
0
  6
Continuous
 62
     7
370
    25
100
AcDbCircle
 10
11.6775437749
 20
7.7776310979
 30
0.0
 40
0.0984251968503944
100
AcDbArc
 50
0.0
 51
57.3827818309
  0
LINE
  5
C4
330
1F
100
AcDbEntity
  8
0
  6
Continuous
 62
     7
370
    25
100
AcDbLine
 10
10.2156854734
 20
8.830001811
 30
0.0
 11
11.7305973112
 21
7.8605337014
 31
0.0
  0
ARC
  5
C5
330
1F
100
AcDbEntity
  8
0
  6
Continuous
 62
     7
370
    25
100
AcDbCircle
 10
10.162631937
 20
8.7470992075
 30
0.0
 40
0.0984251968503973
100
AcDbArc
 50
57.3827818309
 51
135.0
  0
LINE
  5
C6
330
1F
100
AcDbEntity
  8
0
  6
Continuous
 62
     7
370
    25
100
AcDbLine
 10
8.8043931188
 20
7.5280546376
 30
0.0
 11
10.0930348129
 21
8.8166963317
 31
0.0
  0
ARC
  5
C7
330
1F
100
AcDbEntity
  8
0
  6
Continuous
 62
     7
370
    25
100
AcDbCircle
 10
8.873990243
 20
7.4584575135
 30
0.0
 40
0.0984251968503971
100
AcDbArc
 50
135.0
 51
225.0
  0
LINE
  5
C8
330
1F
100
AcDbEntity
  8
0
  6
Continuous
 62
     7
370
    25
100
AcDbLine
 10
9.747140899
 20
6.4461126092
 30
0.0
 11
8.8043931188
 21
7.3888603894
 31
0.0
  0
ARC
  5
C9
330
1F
100
AcDbEntity
  8
0
  6
Continuous
 62
     7
370
    25
100
AcDbCircle
 10
9.6775437749
 20
6.3765154851
 30
0.0
 40
0.0984251968503927
100
AcDbArc
 50
0.0
 51
45.0
  0
CIRCLE
  5
CA
330
1F
100
AcDbEntity
  8
0
  6
Continuous
 62
     7
100
AcDbCircle
 10
-15.6376544357
 20
4.1668688668
 30
0.0
 40
0.236220472440955
  0
CIRCLE
  5
CB
330
1F
100
AcDbEntity
  8
0
  6
CENTERX2
 62
     7
100
AcDbCircle
 10
-15.6376544357
 20
4.1668688668
 30
0.0
 40
0.6299212598425233
  0
LINE
  5
CC
330
1F
100
AcDbEntity
  8
0
  6
CENTERX2
 62
     7
100
AcDbLine
 10
-17.1814385095
 20
4.4778924889
 30
0.0
 11
-15.6376544357
 21
4.1668688668
 31
0.0
  0
CIRCLE
  5
CD
330
1F
100
AcDbEntity
  8
0
  6
Continuous
 62
     7
370
    25
100
AcDbCircle
 10
6.6186018245
 20
5.2416720164
 30
0.0
 40
0.0885826771653495
  0
CIRCLE
  5
CE
330
1F
100
AcDbEntity
  8
0
  6
Continuous
 62
     7
370
    25
100
AcDbCircle
 10
5.8548222969
 20
4.4778924889
 30
0.0
 40
0.5624999999999989
  0
CIRCLE
  5
CF
330
1F
100
AcDbEntity
  8
0
  6
Continuous
 62
     7
370
    25
100
AcDbCircle
 10
0.3981293835
 20
2.779386138
 30
0.0
 40
0.088582677165353
  0
CIRCLE
  5
D0
330
1F
100
AcDbEntity
  8
0
  6
Continuous
 62
     7
370
    25
100
AcDbCircle
 10
0.3981293835
 20
3.7141129613
 30
0.0
 40
0.0885826771653588
  0
SPLINE
  5
D1
330
1F
100
AcDbEntity
  8
0
  6
Continuous
 62
     7
370
    25
100
AcDbSpline
210
0.0
220
0.0
230
1.0
 70
     8
 71
     3
 72
    12
 73
     8
 74
     0
 42
0.00000001
 43
0.00000001
 40
0.0
 40
0.0
 40
0.0
 40
0.0
 40
0.139409797969776
 40
0.2794603369739031
 40
0.4195829282945803
 40
0.5597153992647025
 40
1.0
 40
1.0
 40
1.0
 40
1.0
 10
3.12729368136172
 20
3.817073619231703
 30
0.0
 10
3.138047735091071
 20
3.82621220123359
 30
0.0
 10
3.159605269230056
 20
3.844531367051938
 30
0.0
 10
3.175501063973992
 20
3.884500372075967
 30
0.0
 10
3.184904559228821
 20
3.92523123936557
 30
0.0
 10
3.193714440172144
 20
3.99675114319412
 30
0.0
 10
3.194992984048046
 20
4.054676775642334
 30
0.0
 10
3.19596284383915
 20
4.098617185389181
 30
0.0
  0
LINE
  5
D2
330
1F
100
AcDbEntity
  8
0
  6
Continuous
 62
     7
370
    25
100
AcDbLine
 10
3.1959628438
 20
4.0986171854
 30
0.0
 11
3.1959628438
 21
5.1574098343
 31
0.0
  0
LINE
  5
D3
330
1F
100
AcDbEntity
  8
0
  6
Continuous
 62
     7
370
    25
100
AcDbLine
 10
3.1959628438
 20
5.1574098343
 30
0.0
 11
3.2942455826
 21
5.1574098343
 31
0.0
  0
LINE
  5
D4
330
1F
100
AcDbEntity
  8
0
  6
Continuous
 62
     7
370
    25
100
AcDbLine
 10
3.2942455826
 20
5.1574098343
 30
0.0
 11
4.2629099558
 21
3.9741543284
 31
0.0
  0
LINE
  5
D5
330
1F
100
AcDbEntity
  8
0
  6
Continuous
 62
     7
370
    25
100
AcDbLine
 10
4.2629099558
 20
3.9741543284
 30
0.0
 11
4.2629099558
 21
4.7200731058
 31
0.0
  0
SPLINE
  5
D6
330
1F
100
AcDbEntity
  8
0
  6
Continuous
 62
     7
370
    25
100
AcDbSpline
210
0.0
220
0.0
230
1.0
 70
     8
 71
     3
 72
    12
 73
     8
 74
     0
 42
0.00000001
 43
0.00000001
 40
0.0
 40
0.0
 40
0.0
 40
0.0
 40
0.2802464970481525
 40
0.5603894050912601
 40
0.7072219601748351
 40
0.8539148491936283
 40
0.9999999999999999
 40
0.9999999999999999
 40
0.9999999999999999
 40
0.9999999999999999
 10
4.262909955832283
 20
4.720073105809949
 30
0.0
 10
4.26252200693387
 20
4.748562947394977
 30
0.0
 10
4.26174625253665
 20
4.805532099713179
 30
0.0
 10
4.25460357348094
 20
4.877432369290123
 30
0.0
 10
4.240742952816056
 20
4.934070317931649
 30
0.0
 10
4.223366772045354
 20
4.976116377245591
 30
0.0
 10
4.202504410251239
 20
4.99770945860802
 30
0.0
 10
4.192094882027436
 20
5.008483588215173
 30
0.0
  0
SPLINE
  5
D7
330
1F
100
AcDbEntity
  8
0
  6
Continuous
 62
     7
370
    25
100
AcDbSpline
210
0.0
220
0.0
230
1.0
 70
     8
 71
     3
 72
    12
 73
     8
 74
     0
 42
0.00000001
 43
0.00000001
 40
0.0
 40
0.0
 40
0.0
 40
0.0
 40
0.1862266694642126
 40
0.3730354813974467
 40
0.5598710433745407
 40
0.7800153924530525
 40
1.0
 40
1.0
 40
1.0
 40
1.0
 10
4.192094882027436
 20
5.008483588215173
 30
0.0
 10
4.180239218458847
 20
5.015972834068006
 30
0.0
 10
4.156490830651027
 20
5.030974737071769
 30
0.0
 10
4.115876560786901
 20
5.042744289079771
 30
0.0
 10
4.072853105458575
 20
5.053705333584759
 30
0.0
 10
4.02695171235562
 20
5.0640134277694
 30
0.0
 10
3.994268571118154
 20
5.068481694304734
 30
0.0
 10
3.977932931550942
 20
5.070715016710346
 30
0.0
  0
LINE
  5
D8
330
1F
100
AcDbEntity
  8
0
  6
Continuous
 62
     7
370
    25
100
AcDbLine
 10
3.9779329316
 20
5.0707150167
 30
0.0
 11
3.9779329316
 21
5.1432468196
 31
0.0
  0
LINE
  5
D9
330
1F
100
AcDbEntity
  8
0
  6
Continuous
 62
     7
370
    25
100
AcDbLine
 10
3.9779329316
 20
5.1432468196
 30
0.0
 11
4.6337234332
 21
5.1432468196
 31
0.0
  0
LINE
  5
DA
330
1F
100
AcDbEntity
  8
0
  6
Continuous
 62
     7
370
    25
100
AcDbLine
 10
4.6337234332
 20
5.1432468196
 30
0.0
 11
4.6337234332
 21
5.0707150167
 31
0.0
  0
SPLINE
  5
DB
330
1F
100
AcDbEntity
  8
0
  6
Continuous
 62
     7
370
    25
100
AcDbSpline
210
0.0
220
0.0
230
1.0
 70
     8
 71
     3
 72
    11
 73
     7
 74
     0
 42
0.00000001
 43
0.00000001
 40
0.0
 40
0.0
 40
0.0
 40
0.0
 40
0.2800901277345274
 40
0.560309685274118
 40
0.780431261953888
 40
1.0
 40
1.0
 40
1.0
 40
1.0
 10
4.633723433210428
 20
5.070715016710343
 30
0.0
 10
4.615147620242192
 20
5.068209092032605
 30
0.0
 10
4.577987410412125
 20
5.063196084687934
 30
0.0
 10
4.527559280945242
 20
5.049848810247666
 30
0.0
 10
4.480600085259024
 20
5.038482965567192
 30
0.0
 10
4.454202695625553
 20
5.025344790545063
 30
0.0
 10
4.441020596008132
 20
5.018783962586785
 30
0.0
  0
SPLINE
  5
DC
330
1F
100
AcDbEntity
  8
0
  6
Continuous
 62
     7
370
    25
100
AcDbSpline
210
0.0
220
0.0
230
1.0
 70
     8
 71
     3
 72
    11
 73
     7
 74
     0
 42
0.00000001
 43
0.00000001
 40
0.0
 40
0.0
 40
0.0
 40
0.0
 40
0.185725989884952
 40
0.3722786275669129
 40
0.5592212763004824
 40
1.0
 40
1.0
 40
1.0
 40
1.0
 10
4.441020596008132
 20
5.018783962586785
 30
0.0
 10
4.427199506852853
 20
5.005423049170194
 30
0.0
 10
4.399495812257417
 20
4.978641754248303
 30
0.0
 10
4.383454039744194
 20
4.922178680823593
 30
0.0
 10
4.373354817484119
 20
4.840263595998024
 30
0.0
 10
4.372765350478361
 20
4.776209731329754
 30
0.0
 10
4.372351433530698
 20
4.731231844712534
 30
0.0
  0
LINE
  5
DD
330
1F
100
AcDbEntity
  8
0
  6
Continuous
 62
     7
370
    25
100
AcDbLine
 10
4.3723514335
 20
4.7312318447
 30
0.0
 11
4.3723514335
 21
4.018789284
 31
0.0
  0
SPLINE
  5
DE
330
1F
100
AcDbEntity
  8
0
  6
Continuous
 62
     7
370
    25
100
AcDbSpline
210
0.0
220
0.0
230
1.0
 70
     8
 71
     3
 72
    11
 73
     7
 74
     0
 42
0.00000001
 43
0.00000001
 40
0.0
 40
0.0
 40
0.0
 40
0.0
 40
0.2801042894257979
 40
0.5604774502284761
 40
0.7803481010130561
 40
1.0
 40
1.0
 40
1.0
 40
1.0
 10
4.372351433530689
 20
4.018789284009157
 30
0.0
 10
4.373284867900597
 20
4.001573615464542
 30
0.0
 10
4.375152632641616
 20
3.967125753099978
 30
0.0
 10
4.390792272431131
 20
3.921611249974118
 30
0.0
 10
4.410105365563794
 20
3.881440244757242
 30
0.0
 10
4.42928809407712
 20
3.862274066740683
 30
0.0
 10
4.438874684680701
 20
3.852695747266863
 30
0.0
  0
SPLINE
  5
DF
330
1F
100
AcDbEntity
  8
0
  6
Continuous
 62
     7
370
    25
100
AcDbSpline
210
0.0
220
0.0
230
1.0
 70
     8
 71
     3
 72
    11
 73
     7
 74
     0
 42
0.00000001
 43
0.00000001
 40
0.0
 40
0.0
 40
0.0
 40
0.0
 40
0.2797256000167861
 40
0.5598267137409441
 40
0.7799998213573601
 40
1.0
 40
1.0
 40
1.0
 40
1.0
 10
4.438874684680701
 20
3.852695747266863
 30
0.0
 10
4.457327334942542
 20
3.839886970719586
 30
0.0
 10
4.494257406967699
 20
3.814252222662646
 30
0.0
 10
4.553403218992276
 20
3.793337787355088
 30
0.0
 10
4.608253001679212
 20
3.775482626781975
 30
0.0
 10
4.643263529328494
 20
3.771163780350149
 30
0.0
 10
4.660761915935906
 20
3.769005205497489
 30
0.0
  0
LINE
  5
E0
330
1F
100
AcDbEntity
  8
0
  6
Continuous
 62
     7
370
    25
100
AcDbLine
 10
4.6607619159
 20
3.7690052055
 30
0.0
 11
4.6607619159
 21
3.6969025849
 31
0.0
  0
LINE
  5
E1
330
1F
100
AcDbEntity
  8
0
  6
Continuous
 62
     7
370
    25
100
AcDbLine
 10
4.6607619159
 20
3.6969025849
 30
0.0
 11
4.2045411677
 21
3.6969025849
 31
0.0
  0
LINE
  5
E2
330
1F
100
AcDbEntity
  8
0
  6
Continuous
 62
     7
370
    25
100
AcDbLine
 10
4.2045411677
 20
3.6969025849
 30
0.0
 11
3.3054043215
 21
4.7999010072
 31
0.0
  0
LINE
  5
E3
330
1F
100
AcDbEntity
  8
0
  6
Continuous
 62
     7
370
    25
100
AcDbLine
 10
3.3054043215
 20
4.7999010072
 30
0.0
 11
3.3054043215
 21
4.1114926534
 31
0.0
  0
SPLINE
  5
E4
330
1F
100
AcDbEntity
  8
0
  6
Continuous
 62
     7
370
    25
100
AcDbSpline
210
0.0
220
0.0
230
1.0
 70
     8
 71
     3
 72
    12
 73
     8
 74
     0
 42
0.00000001
 43
0.00000001
 40
0.0
 40
0.0
 40
0.0
 40
0.0
 40
0.2803798467932124
 40
0.5606290683457124
 40
0.7075087659319867
 40
0.8542226399211722
 40
1.0
 40
1.0
 40
1.0
 40
1.0
 10
3.305404321537565
 20
4.111492653353699
 30
0.0
 10
3.30571494529078
 20
4.083378044059081
 30
0.0
 10
3.306336048081742
 20
4.027161923692305
 30
0.0
 10
3.3136606317326
 20
3.95616158931003
 30
0.0
 10
3.327551477796479
 20
3.900462213221294
 30
0.0
 10
3.343326296709086
 20
3.858274647618875
 30
0.0
 10
3.364705603909687
 20
3.837652201595533
 30
0.0
 10
3.375361030811445
 20
3.827373993603318
 30
0.0
  0
SPLINE
  5
E5
330
1F
100
AcDbEntity
  8
0
  6
Continuous
 62
     7
370
    25
100
AcDbSpline
210
0.0
220
0.0
230
1.0
 70
     8
 71
     3
 72
    11
 73
     7
 74
     0
 42
0.00000001
 43
0.00000001
 40
0.0
 40
0.0
 40
0.0
 40
0.0
 40
0.2797006485890361
 40
0.5598367317448566
 40
0.7799457534350048
 40
1.0
 40
1.0
 40
1.0
 40
1.0
 10
3.375361030811445
 20
3.827373993603318
 30
0.0
 10
3.394021234652684
 20
3.818613002355972
 30
0.0
 10
3.431370692313474
 20
3.801077380856694
 30
0.0
 10
3.487208827995731
 20
3.78721692705067
 30
0.0
 10
3.538693704646361
 20
3.774716037312137
 30
0.0
 10
3.570864494485944
 20
3.770908658168806
 30
0.0
 10
3.586947887695037
 20
3.769005205497498
 30
0.0
  0
LINE
  5
E6
330
1F
100
AcDbEntity
  8
0
  6
Continuous
 62
     7
370
    25
100
AcDbLine
 10
3.5869478877
 20
3.7690052055
 30
0.0
 11
3.5869478877
 21
3.6969025849
 31
0.0
  0
LINE
  5
E7
330
1F
100
AcDbEntity
  8
0
  6
Continuous
 62
     7
370
    25
100
AcDbLine
 10
3.5869478877
 20
3.6969025849
 30
0.0
 11
2.9371659378
 21
3.6969025849
 31
0.0
  0
LINE
  5
E8
330
1F
100
AcDbEntity
  8
0
  6
Continuous
 62
     7
370
    25
100
AcDbLine
 10
2.9371659378
 20
3.6969025849
 30
0.0
 11
2.9371659378
 21
3.7690052055
 31
0.0
  0
SPLINE
  5
E9
330
1F
100
AcDbEntity
  8
0
  6
Continuous
 62
     7
370
    25
100
AcDbSpline
210
0.0
220
0.0
230
1.0
 70
     8
 71
     3
 72
    11
 73
     7
 74
     0
 42
0.00000001
 43
0.00000001
 40
0.0
 40
0.0
 40
0.0
 40
0.0
 40
0.2799551847338455
 40
0.560138137849122
 40
0.7802096502713403
 40
1.0
 40
1.0
 40
1.0
 40
1.0
 10
2.93716593775232
 20
3.769005205497503
 30
0.0
 10
2.955435155602986
 20
3.771180146078479
 30
0.0
 10
2.991988454933947
 20
3.775531796747565
 30
0.0
 10
3.041921295958895
 20
3.787120780435646
 30
0.0
 10
3.087751554079741
 20
3.79920541627056
 30
0.0
 10
3.114118590264008
 20
3.811120090224859
 30
0.0
 10
3.12729368136172
 20
3.817073619231703
 30
0.0
  0
SPLINE
  5
EA
330
1F
100
AcDbEntity
  8
0
  6
Continuous
 62
     7
370
    25
100
AcDbSpline
210
0.0
220
0.0
230
1.0
 70
     8
 71
     3
 72
    12
 73
     8
 74
     0
 42
0.00000001
 43
0.00000001
 40
0.0
 40
0.0
 40
0.0
 40
0.0
 40
0.1392746601273542
 40
0.2794043000624578
 40
0.4195740496297695
 40
0.5596999547010768
 40
1.0
 40
1.0
 40
1.0
 40
1.0
 10
1.384732184518315
 20
3.814927707904294
 30
0.0
 10
1.395062789261231
 20
3.824086112686565
 30
0.0
 10
1.415787416302321
 20
3.84245914390086
 30
0.0
 10
1.431011781766987
 20
3.88167785764495
 30
0.0
 10
1.440535973198658
 20
3.921516145718372
 30
0.0
 10
1.450176258356684
 20
3.991473960473768
 30
0.0
 10
1.451522073095933
 20
4.048251061752288
 30
0.0
 10
1.452542982464787
 20
4.091321086875962
 30
0.0
  0
LINE
  5
EB
330
1F
100
AcDbEntity
  8
0
  6
Continuous
 62
     7
370
    25
100
AcDbLine
 10
1.4525429825
 20
4.0913210869
 30
0.0
 11
1.4525429825
 21
4.7200731058
 31
0.0
  0
SPLINE
  5
EC
330
1F
100
AcDbEntity
  8
0
  6
Continuous
 62
     7
370
    25
100
AcDbSpline
210
0.0
220
0.0
230
1.0
 70
     8
 71
     3
 72
    13
 73
     9
 74
     0
 42
0.00000001
 43
0.00000001
 40
0.0
 40
0.0
 40
0.0
 40
0.0
 40
0.1866545240744283
 40
0.3732819016366224
 40
0.5598316022596049
 40
0.7065464714112089
 40
0.8532924169507256
 40
1.0
 40
1.0
 40
1.0
 40
1.0
 10
1.452542982464787
 20
4.720073105809968
 30
0.0
 10
1.453636138782056
 20
4.746642243359985
 30
0.0
 10
1.455822292430987
 20
4.79977665431892
 30
0.0
 10
1.478055009296903
 20
4.877014869984652
 30
0.0
 10
1.513533982396136
 20
4.942430778974543
 30
0.0
 10
1.556443820460877
 20
4.995646689765575
 30
0.0
 10
1.60115920812031
 20
5.039779281876848
 30
0.0
 10
1.635701974902217
 20
5.063265343628306
 30
0.0
 10
1.652971100445799
 20
5.075006839365202
 30
0.0
  0
SPLINE
  5
ED
330
1F
100
AcDbEntity
  8
0
  6
Continuous
 62
     7
370
    25
100
AcDbSpline
210
0.0
220
0.0
230
1.0
 70
     8
 71
     3
 72
    11
 73
     7
 74
     0
 42
0.00000001
 43
0.00000001
 40
0.0
 40
0.0
 40
0.0
 40
0.0
 40
0.2799236563027064
 40
0.559847648912347
 40
0.7799410892571196
 40
1.0
 40
1.0
 40
1.0
 40
1.0
 10
1.652971100445799
 20
5.075006839365202
 30
0.0
 10
1.685247508012934
 20
5.092989886572624
 30
0.0
 10
1.749800361924827
 20
5.128956002592728
 30
0.0
 10
1.849017859139416
 20
5.157761264126282
 30
0.0
 10
1.942422963196718
 20
5.174751685152086
 30
0.0
 10
2.000385134944488
 20
5.17692434058596
 30
0.0
 10
2.029363947275239
 20
5.17801058308135
 30
0.0
  0
SPLINE
  5
EE
330
1F
100
AcDbEntity
  8
0
  6
Continuous
 62
     7
370
    25
100
AcDbSpline
210
0.0
220
0.0
230
1.0
 70
     8
 71
     3
 72
    13
 73
     9
 74
     0
 42
0.00000001
 43
0.00000001
 40
0.0
 40
0.0
 40
0.0
 40
0.0
 40
0.1866869251711911
 40
0.373364243623051
 40
0.5600085738346068
 40
0.7066758742754768
 40
0.8533699661577608
 40
1.0
 40
1.0
 40
1.0
 40
1.0
 10
2.029363947275239
 20
5.17801058308135
 30
0.0
 10
2.058710029030661
 20
5.17741341624526
 30
0.0
 10
2.117400682421996
 20
5.17621911330267
 30
0.0
 10
2.204905176998925
 20
5.165144067679685
 30
0.0
 10
2.284513845976733
 20
5.145850813518133
 30
0.0
 10
2.355611228570603
 20
5.120466494006226
 30
0.0
 10
2.418475173115269
 20
5.091005235356482
 30
0.0
 10
2.456350695615194
 20
5.064601032853767
 30
0.0
 10
2.475284321113071
 20
5.05140181476358
 30
0.0
  0
SPLINE
  5
EF
330
1F
100
AcDbEntity
  8
0
  6
Continuous
 62
     7
370
    25
100
AcDbSpline
210
0.0
220
0.0
230
1.0
 70
     8
 71
     3
 72
    12
 73
     8
 74
     0
 42
0.00000001
 43
0.00000001
 40
0.0
 40
0.0
 40
0.0
 40
0.0
 40
0.1866942827394758
 40
0.3735097611104543
 40
0.5601455747637125
 40
0.7800626707914745
 40
1.0
 40
1.0
 40
1.0
 40
1.0
 10
2.475284321113071
 20
5.05140181476358
 30
0.0
 10
2.491552100130151
 20
5.037973295292642
 30
0.0
 10
2.524098218657771
 20
5.011107539008848
 30
0.0
 10
2.56495787811674
 20
4.962312231227021
 30
0.0
 10
2.598401111165298
 20
4.904099355814314
 30
0.0
 10
2.622613462325427
 20
4.836750439403355
 30
0.0
 10
2.625681002469407
 20
4.787006221092758
 30
0.0
 10
2.627214843094387
 20
4.762132967827386
 30
0.0
  0
LINE
  5
F0
330
1F
100
AcDbEntity
  8
0
  6
Continuous
 62
     7
370
    25
100
AcDbLine
 10
2.6272148431
 20
4.7621329678
 30
0.0
 11
2.6272148431
 21
3.9067727127
 31
0.0
  0
SPLINE
  5
F1
330
1F
100
AcDbEntity
  8
0
  6
Continuous
 62
     7
370
    25
100
AcDbSpline
210
0.0
220
0.0
230
1.0
 70
     8
 71
     3
 72
    11
 73
     7
 74
     0
 42
0.00000001
 43
0.00000001
 40
0.0
 40
0.0
 40
0.0
 40
0.0
 40
0.280224176175607
 40
0.55988997612869
 40
0.7798493559725346
 40
1.0
 40
1.0
 40
1.0
 40
1.0
 10
2.627214843094382
 20
3.90677271271785
 30
0.0
 10
2.627805153461742
 20
3.894509753908392
 30
0.0
 10
2.628984597940797
 20
3.870008271528116
 30
0.0
 10
2.643452613784992
 20
3.837717238716932
 30
0.0
 10
2.667720934847468
 20
3.81695173373262
 30
0.0
 10
2.684491035426489
 20
3.807592336701907
 30
0.0
 10
2.692879729713436
 20
3.802910604470731
 30
0.0
  0
SPLINE
  5
F2
330
1F
100
AcDbEntity
  8
0
  6
Continuous
 62
     7
370
    25
100
AcDbSpline
210
0.0
220
0.0
230
1.0
 70
     8
 71
     3
 72
    10
 73
     6
 74
     0
 42
0.00000001
 43
0.00000001
 40
0.0
 40
0.0
 40
0.0
 40
0.0
 40
0.2798434121944515
 40
0.5601229000611108
 40
1.0
 40
1.0
 40
1.0
 40
1.0
 10
2.692879729713436
 20
3.802910604470731
 30
0.0
 10
2.705669536368321
 20
3.797430085254784
 30
0.0
 10
2.731269079836489
 20
3.786460506614334
 30
0.0
 10
2.780072737332118
 20
3.776467259945655
 30
0.0
 10
2.81546630911778
 20
3.771834767177404
 30
0.0
 10
2.837084970916041
 20
3.769005205497498
 30
0.0
  0
LINE
  5
F3
330
1F
100
AcDbEntity
  8
0
  6
Continuous
 62
     7
370
    25
100
AcDbLine
 10
2.8370849709
 20
3.7690052055
 30
0.0
 11
2.8370849709
 21
3.6969025849
 31
0.0
  0
LINE
  5
F4
330
1F
100
AcDbEntity
  8
0
  6
Continuous
 62
     7
370
    25
100
AcDbLine
 10
2.8370849709
 20
3.6969025849
 30
0.0
 11
2.1709940949
 21
3.6969025849
 31
0.0
  0
LINE
  5
F5
330
1F
100
AcDbEntity
  8
0
  6
Continuous
 62
     7
370
    25
100
AcDbLine
 10
2.1709940949
 20
3.6969025849
 30
0.0
 11
2.1709940949
 21
3.7690052055
 31
0.0
  0
SPLINE
  5
F6
330
1F
100
AcDbEntity
  8
0
  6
Continuous
 62
     7
370
    25
100
AcDbSpline
210
0.0
220
0.0
230
1.0
 70
     8
 71
     3
 72
     9
 73
     5
 74
     0
 42
0.00000001
 43
0.00000001
 40
0.0
 40
0.0
 40
0.0
 40
0.0
 40
0.5599616175383971
 40
1.0
 40
1.0
 40
1.0
 40
1.0
 10
2.170994094884925
 20
3.769005205497505
 30
0.0
 10
2.199267957699679
 20
3.771702216446585
 30
0.0
 10
2.249760459201918
 20
3.77651863754512
 30
0.0
 10
2.299077371307778
 20
3.788289127339974
 30
0.0
 10
2.320778705538836
 20
3.793468594630086
 30
0.0
  0
SPLINE
  5
F7
330
1F
100
AcDbEntity
  8
0
  6
Continuous
 62
     7
370
    25
100
AcDbSpline
210
0.0
220
0.0
230
1.0
 70
     8
 71
     3
 72
    11
 73
     7
 74
     0
 42
0.00000001
 43
0.00000001
 40
0.0
 40
0.0
 40
0.0
 40
0.0
 40
0.2799633158510444
 40
0.5583856775472619
 40
0.7792211874058884
 40
1.0
 40
1.0
 40
1.0
 40
1.0
 10
2.320778705538836
 20
3.793468594630086
 30
0.0
 10
2.33240669600255
 20
3.798004147195956
 30
0.0
 10
2.355598674972573
 20
3.807050288062111
 30
0.0
 10
2.375747385759808
 20
3.836848199285879
 30
0.0
 10
2.383427296294606
 20
3.867522725512176
 30
0.0
 10
2.384579844996341
 20
3.886823293378234
 30
0.0
 10
2.385156045361422
 20
3.896472338346237
 30
0.0
  0
LINE
  5
F8
330
1F
100
AcDbEntity
  8
0
  6
Continuous
 62
     7
370
    25
100
AcDbLine
 10
2.3851560454
 20
3.8964723383
 30
0.0
 11
2.3851560454
 21
4.6956097167
 31
0.0
  0
SPLINE
  5
F9
330
1F
100
AcDbEntity
  8
0
  6
Continuous
 62
     7
370
    25
100
AcDbSpline
210
0.0
220
0.0
230
1.0
 70
     8
 71
     3
 72
    11
 73
     7
 74
     0
 42
0.00000001
 43
0.00000001
 40
0.0
 40
0.0
 40
0.0
 40
0.0
 40
0.2801034788186521
 40
0.5601579659360829
 40
0.7800536503201998
 40
1.0
 40
1.0
 40
1.0
 40
1.0
 10
2.385156045361435
 20
4.695609716677375
 30
0.0
 10
2.384196453770803
 20
4.71943511441719
 30
0.0
 10
2.382277438427596
 20
4.767081742698424
 30
0.0
 10
2.369276801898501
 20
4.832447609500045
 30
0.0
 10
2.347152026371784
 20
4.890051478944608
 30
0.0
 10
2.325851050733671
 20
4.920936618840232
 30
0.0
 10
2.315199336087546
 20
4.936380967613877
 30
0.0
  0
SPLINE
  5
FA
330
1F
100
AcDbEntity
  8
0
  6
Continuous
 62
     7
370
    25
100
AcDbSpline
210
0.0
220
0.0
230
1.0
 70
     8
 71
     3
 72
    12
 73
     8
 74
     0
 42
0.00000001
 43
0.00000001
 40
0.0
 40
0.0
 40
0.0
 40
0.0
 40
0.1865607457502464
 40
0.3732516709145302
 40
0.5598103280484655
 40
0.7798647680092068
 40
1.0
 40
1.0
 40
1.0
 40
1.0
 10
2.315199336087546
 20
4.936380967613877
 30
0.0
 10
2.299907971539958
 20
4.953141531310286
 30
0.0
 10
2.269314572349804
 20
4.986674353984197
 30
0.0
 10
2.21106680633362
 20
5.022784562168095
 30
0.0
 10
2.144007957491628
 20
5.049538846538085
 30
0.0
 10
2.068534704763963
 20
5.061775023991215
 30
0.0
 10
2.015242583354051
 20
5.063156990423844
 30
0.0
 10
1.988591632054258
 20
5.063848100462616
 30
0.0
  0
SPLINE
  5
FB
330
1F
100
AcDbEntity
  8
0
  6
Continuous
 62
     7
370
    25
100
AcDbSpline
210
0.0
220
0.0
230
1.0
 70
     8
 71
     3
 72
    13
 73
     9
 74
     0
 42
0.00000001
 43
0.00000001
 40
0.0
 40
0.0
 40
0.0
 40
0.0
 40
0.1867181173358484
 40
0.3734271681047084
 40
0.5600248460413253
 40
0.7067061263144273
 40
0.8534068932553206
 40
1.0
 40
1.0
 40
1.0
 40
1.0
 10
1.988591632054258
 20
5.063848100462616
 30
0.0
 10
1.965189698460028
 20
5.063250922404444
 30
0.0
 10
1.918386967611221
 20
5.062056595285575
 30
0.0
 10
1.84877315939599
 20
5.05157879470458
 30
0.0
 10
1.786217088421361
 20
5.032130278468654
 30
0.0
 10
1.732349767426793
 20
5.005188980179774
 30
0.0
 10
1.685906383226617
 20
4.974736353614684
 30
0.0
 10
1.660799119361511
 20
4.947732184564111
 30
0.0
 10
1.648250095525472
 20
4.934235056286462
 30
0.0
  0
SPLINE
  5
FC
330
1F
100
AcDbEntity
  8
0
  6
Continuous
 62
     7
370
    25
100
AcDbSpline
210
0.0
220
0.0
230
1.0
 70
     8
 71
     3
 72
    11
 73
     7
 74
     0
 42
0.00000001
 43
0.00000001
 40
0.0
 40
0.0
 40
0.0
 40
0.0
 40
0.2799797404827876
 40
0.559858150607203
 40
0.7799476090720848
 40
1.0
 40
1.0
 40
1.0
 40
1.0
 10
1.648250095525472
 20
4.934235056286462
 30
0.0
 10
1.633629647328977
 20
4.915176463323592
 30
0.0
 10
1.604394042373323
 20
4.877066175089995
 30
0.0
 10
1.579747406537353
 20
4.81439439176724
 30
0.0
 10
1.565964447422176
 20
4.754223103607642
 30
0.0
 10
1.564455566266206
 20
4.716577063057057
 30
0.0
 10
1.563701189225135
 20
4.697755628004802
 30
0.0
  0
LINE
  5
FD
330
1F
100
AcDbEntity
  8
0
  6
Continuous
 62
     7
370
    25
100
AcDbLine
 10
1.5637011892
 20
4.697755628
 30
0.0
 11
1.5637011892
 21
4.1046257371
 31
0.0
  0
SPLINE
  5
FE
330
1F
100
AcDbEntity
  8
0
  6
Continuous
 62
     7
370
    25
100
AcDbSpline
210
0.0
220
0.0
230
1.0
 70
     8
 71
     3
 72
    12
 73
     8
 74
     0
 42
0.00000001
 43
0.00000001
 40
0.0
 40
0.0
 40
0.0
 40
0.0
 40
0.2803214800499942
 40
0.5605168907452674
 40
0.7073553625963082
 40
0.8540850941688518
 40
0.9999999999999999
 40
0.9999999999999999
 40
0.9999999999999999
 40
0.9999999999999999
 10
1.563701189225126
 20
4.104625737105968
 30
0.0
 10
1.564181334399866
 20
4.076930080723563
 30
0.0
 10
1.56514140881302
 20
4.021551223563385
 30
0.0
 10
1.57351506003787
 20
3.951715384910605
 30
0.0
 10
1.587671400908938
 20
3.897027961603359
 30
0.0
 10
1.602794681776026
 20
3.855210224946535
 30
0.0
 10
1.624248435724689
 20
3.835203561300105
 30
0.0
 10
1.634945445295466
 20
3.825228082275907
 30
0.0
  0
SPLINE
  5
FF
330
1F
100
AcDbEntity
  8
0
  6
Continuous
 62
     7
370
    25
100
AcDbSpline
210
0.0
220
0.0
230
1.0
 70
     8
 71
     3
 72
    10
 73
     6
 74
     0
 42
0.00000001
 43
0.00000001
 40
0.0
 40
0.0
 40
0.0
 40
0.0
 40
0.279739776475982
 40
0.5598360838540142
 40
1.0
 40
1.0
 40
1.0
 40
1.0
 10
1.634945445295466
 20
3.825228082275907
 30
0.0
 10
1.653295854829512
 20
3.815797690645032
 30
0.0
 10
1.690020061662299
 20
3.796924888262947
 30
0.0
 10
1.762131997351257
 20
3.78047320968039
 30
0.0
 10
1.814518172666474
 20
3.773355168118032
 30
0.0
 10
1.846532302179058
 20
3.769005205497511
 30
0.0
  0
LINE
  5
100
330
1F
100
AcDbEntity
  8
0
  6
Continuous
 62
     7
370
    25
100
AcDbLine
 10
1.8465323022
 20
3.7690052055
 30
0.0
 11
1.8465323022
 21
3.6969025849
 31
0.0
  0
LINE
  5
101
330
1F
100
AcDbEntity
  8
0
  6
Continuous
 62
     7
370
    25
100
AcDbLine
 10
1.8465323022
 20
3.6969025849
 30
0.0
 11
1.1933168941
 21
3.6969025849
 31
0.0
  0
LINE
  5
102
330
1F
100
AcDbEntity
  8
0
  6
Continuous
 62
     7
370
    25
100
AcDbLine
 10
1.1933168941
 20
3.6969025849
 30
0.0
 11
1.1933168941
 21
3.7690052055
 31
0.0
  0
SPLINE
  5
103
330
1F
100
AcDbEntity
  8
0
  6
Continuous
 62
     7
370
    25
100
AcDbSpline
210
0.0
220
0.0
230
1.0
 70
     8
 71
     3
 72
    11
 73
     7
 74
     0
 42
0.00000001
 43
0.00000001
 40
0.0
 40
0.0
 40
0.0
 40
0.0
 40
0.2800367257816784
 40
0.5601605896898318
 40
0.7801920658856539
 40
1.0
 40
1.0
 40
1.0
 40
1.0
 10
1.193316894112469
 20
3.769005205497514
 30
0.0
 10
1.211734948602158
 20
3.770844137675744
 30
0.0
 10
1.248576788668253
 20
3.774522574246816
 30
0.0
 10
1.299337716758956
 20
3.783496321355797
 30
0.0
 10
1.345621375700373
 20
3.79543751195511
 30
0.0
 10
1.37169966621823
 20
3.80843317754154
 30
0.0
 10
1.384732184518315
 20
3.814927707904294
 30
0.0
  0
LINE
  5
104
330
1F
100
AcDbEntity
  8
0
  6
Continuous
 62
     7
370
    25
100
AcDbLine
 10
6.7705355549
 20
3.4656580939
 30
0.0
 11
0.2744725628
 21
2.5227411144
 31
0.0
  0
ARC
  5
105
330
1F
100
AcDbEntity
  8
0
  6
Continuous
 62
     7
370
    25
100
AcDbCircle
 10
6.7563971001
 20
3.5630625264
 30
0.0
 40
0.098425196850398
100
AcDbArc
 50
278.258920504
 51
360.0
  0
LINE
  5
106
330
1F
100
AcDbEntity
  8
0
  6
Continuous
 62
     7
370
    25
100
AcDbLine
 10
6.8548222969
 20
5.379467292
 30
0.0
 11
6.8548222969
 21
3.5630625264
 31
0.0
  0
ARC
  5
107
330
1F
100
AcDbEntity
  8
0
  6
Continuous
 62
     7
370
    25
100
AcDbCircle
 10
6.7563971001
 20
5.379467292
 30
0.0
 40
0.0984251968503935
100
AcDbArc
 50
360.0
 51
90.0
  0
LINE
  5
108
330
1F
100
AcDbEntity
  8
0
  6
Continuous
 62
     7
370
    25
100
AcDbLine
 10
0.260334108
 20
5.4778924889
 30
0.0
 11
6.7563971001
 21
5.4778924889
 31
0.0
  0
ARC
  5
109
330
1F
100
AcDbEntity
  8
0
  6
Continuous
 62
     7
370
    25
100
AcDbCircle
 10
0.260334108
 20
5.379467292
 30
0.0
 40
0.098425196850396
100
AcDbArc
 50
90.0
 51
180.0
  0
LINE
  5
10A
330
1F
100
AcDbEntity
  8
0
  6
Continuous
 62
     7
370
    25
100
AcDbLine
 10
0.1619089111
 20
2.6201455469
 30
0.0
 11
0.1619089111
 21
5.379467292
 31
0.0
  0
ARC
  5
10B
330
1F
100
AcDbEntity
  8
0
  6
Continuous
 62
     7
370
    25
100
AcDbCircle
 10
0.260334108
 20
2.6201455469
 30
0.0
 40
0.0984251968503952
100
AcDbArc
 50
180.0
 51
278.258920504
  0
CIRCLE
  5
10C
330
1F
100
AcDbEntity
  8
0
  6
Continuous
 62
     7
370
    25
100
AcDbCircle
 10
0.3981293835
 20
5.2416720164
 30
0.0
 40
0.0885826771653517
  0
CIRCLE
  5
10D
330
1F
100
AcDbEntity
  8
0
  6
Continuous
 62
     7
370
    25
100
AcDbCircle
 10
0.3981293835
 20
3.2416720164
 30
0.0
 40
0.088582677165356
  0
CIRCLE
  5
10E
330
1F
100
AcDbEntity
  8
0
  6
Continuous
 62
     7
370
    25
100
AcDbCircle
 10
2.6866817027
 20
3.2416720164
 30
0.0
 40
0.0885826771653558
  0
CIRCLE
  5
10F
330
1F
100
AcDbEntity
  8
0
  6
Continuous
 62
     7
370
    25
100
AcDbCircle
 10
6.6186018245
 20
3.7141129613
 30
0.0
 40
0.0885826771653542
  0
CIRCLE
  5
110
330
1F
100
AcDbEntity
  8
0
  6
Continuous
 62
     7
370
    25
100
AcDbCircle
 10
10.0678461096
 20
1.2158127202
 30
0.0
 40
0.0885826771653535
  0
CIRCLE
  5
111
330
1F
100
AcDbEntity
  8
0
  6
Continuous
 62
     7
370
    25
100
AcDbCircle
 10
11.5954051647
 20
1.2158127202
 30
0.0
 40
0.0885826771653555
  0
CIRCLE
  5
112
330
1F
100
AcDbEntity
  8
0
  6
Continuous
 62
     7
370
    25
100
AcDbCircle
 10
11.5954051647
 20
3.4992772872
 30
0.0
 40
0.0885826771653546
  0
CIRCLE
  5
113
330
1F
100
AcDbEntity
  8
0
  6
Continuous
 62
     7
370
    25
100
AcDbCircle
 10
10.2046662225
 20
4.4426045408
 30
0.0
 40
0.0885826771653555
  0
CIRCLE
  5
114
330
1F
100
AcDbEntity
  8
0
  6
Continuous
 62
     7
370
    25
100
AcDbCircle
 10
9.1245188559
 20
3.3624571742
 30
0.0
 40
0.0885826771653546
  0
CIRCLE
  5
115
330
1F
100
AcDbEntity
  8
0
  6
Continuous
 62
     7
370
    25
100
AcDbCircle
 10
10.8316256371
 20
2.7354977596
 30
0.0
 40
0.5625000000000004
  0
LINE
  5
116
330
1F
100
AcDbEntity
  8
0
  6
Continuous
 62
     7
370
    25
100
AcDbLine
 10
9.8316256371
 20
2.2805151458
 30
0.0
 11
9.8316256371
 21
1.0780174446
 31
0.0
  0
ARC
  5
117
330
1F
100
AcDbEntity
  8
0
  6
Continuous
 62
     7
370
    25
100
AcDbCircle
 10
9.930050834
 20
1.0780174446
 30
0.0
 40
0.0984251968503944
100
AcDbArc
 50
180.0
 51
270.0
  0
LINE
  5
118
330
1F
100
AcDbEntity
  8
0
  6
Continuous
 62
     7
370
    25
100
AcDbLine
 10
11.7332004403
 20
0.9795922478
 30
0.0
 11
9.930050834
 21
0.9795922478
 31
0.0
  0
ARC
  5
119
330
1F
100
AcDbEntity
  8
0
  6
Continuous
 62
     7
370
    25
100
AcDbCircle
 10
11.7332004403
 20
1.0780174446
 30
0.0
 40
0.0984251968503939
100
AcDbArc
 50
270.0
 51
0.0
  0
LINE
  5
11A
330
1F
100
AcDbEntity
  8
0
  6
Continuous
 62
     7
370
    25
100
AcDbLine
 10
11.8316256371
 20
3.6816307587
 30
0.0
 11
11.8316256371
 21
1.0780174446
 31
0.0
  0
ARC
  5
11B
330
1F
100
AcDbEntity
  8
0
  6
Continuous
 62
     7
370
    25
100
AcDbCircle
 10
11.7332004403
 20
3.6816307587
 30
0.0
 40
0.0984251968503946
100
AcDbArc
 50
0.0
 51
57.3827818309
  0
LINE
  5
11C
330
1F
100
AcDbEntity
  8
0
  6
Continuous
 62
     7
370
    25
100
AcDbLine
 10
10.2713421387
 20
4.7340014717
 30
0.0
 11
11.7862539766
 21
3.7645333621
 31
0.0
  0
ARC
  5
11D
330
1F
100
AcDbEntity
  8
0
  6
Continuous
 62
     7
370
    25
100
AcDbCircle
 10
10.2182886024
 20
4.6510988683
 30
0.0
 40
0.0984251968503976
100
AcDbArc
 50
57.3827818309
 51
135.0
  0
LINE
  5
11E
330
1F
100
AcDbEntity
  8
0
  6
Continuous
 62
     7
370
    25
100
AcDbLine
 10
8.8600497842
 20
3.4320542984
 30
0.0
 11
10.1486914783
 21
4.7206959924
 31
0.0
  0
ARC
  5
11F
330
1F
100
AcDbEntity
  8
0
  6
Continuous
 62
     7
370
    25
100
AcDbCircle
 10
8.9296469084
 20
3.3624571742
 30
0.0
 40
0.0984251968503965
100
AcDbArc
 50
135.0
 51
225.0
  0
LINE
  5
120
330
1F
100
AcDbEntity
  8
0
  6
Continuous
 62
     7
370
    25
100
AcDbLine
 10
9.8027975644
 20
2.3501122699
 30
0.0
 11
8.8600497842
 21
3.2928600501
 31
0.0
  0
ARC
  5
121
330
1F
100
AcDbEntity
  8
0
  6
Continuous
 62
     7
370
    25
100
AcDbCircle
 10
9.7332004403
 20
2.2805151458
 30
0.0
 40
0.0984251968503944
100
AcDbArc
 50
0.0
 51
45.0
  0
CIRCLE
  5
122
330
1F
100
AcDbEntity
  8
0
  6
Continuous
 62
     7
370
    25
100
AcDbCircle
 10
7.9586854812
 20
3.5947385803
 30
0.0
 40
0.0885826771653537
  0
CIRCLE
  5
123
330
1F
100
AcDbEntity
  8
0
  6
Continuous
 62
     7
370
    25
100
AcDbCircle
 10
7.6430997365
 20
4.0174964239
 30
0.0
 40
0.0885826771653528
  0
CIRCLE
  5
124
330
1F
100
AcDbEntity
  8
0
  6
Continuous
 62
     7
370
    25
100
AcDbCircle
 10
8.8174053467
 20
4.2357668954
 30
0.0
 40
0.0885826771653555
  0
CIRCLE
  5
125
330
1F
100
AcDbEntity
  8
0
  6
Continuous
 62
     7
370
    25
100
AcDbCircle
 10
7.2452666575
 20
6.2357668954
 30
0.0
 40
0.0885826771653528
  0
CIRCLE
  5
126
330
1F
100
AcDbEntity
  8
0
  6
Continuous
 62
     7
370
    25
100
AcDbCircle
 10
7.2452666575
 20
4.7082078403
 30
0.0
 40
0.0885826771653528
  0
CIRCLE
  5
127
330
1F
100
AcDbEntity
  8
0
  6
Continuous
 62
     7
370
    25
100
AcDbCircle
 10
9.2925107519
 20
6.2357668954
 30
0.0
 40
0.088582677165352
  0
CIRCLE
  5
128
330
1F
100
AcDbEntity
  8
0
  6
Continuous
 62
     7
370
    25
100
AcDbCircle
 10
9.2925107519
 20
4.7082078403
 30
0.0
 40
0.088582677165352
  0
CIRCLE
  5
129
330
1F
100
AcDbEntity
  8
0
  6
Continuous
 62
     7
370
    25
100
AcDbCircle
 10
8.5287312244
 20
5.4719873678
 30
0.0
 40
0.5625
  0
ARC
  5
12A
330
1F
100
AcDbEntity
  8
0
  6
Continuous
 62
     7
370
    25
100
AcDbCircle
 10
7.9306927687
 20
3.401887643
 30
0.0
 40
0.0984251968503928
100
AcDbArc
 50
216.741079496
 51
306.741079496
  0
LINE
  5
12B
330
1F
100
AcDbEntity
  8
0
  6
Continuous
 62
     7
370
    25
100
AcDbLine
 10
9.489183965
 20
4.442465618
 30
0.0
 11
7.9895707062
 21
3.323014911
 31
0.0
  0
ARC
  5
12C
330
1F
100
AcDbEntity
  8
0
  6
Continuous
 62
     7
370
    25
100
AcDbCircle
 10
9.4303060275
 20
4.52133835
 30
0.0
 40
0.0984251968503944
100
AcDbArc
 50
306.741079496
 51
0.0
  0
LINE
  5
12D
330
1F
100
AcDbEntity
  8
0
  6
Continuous
 62
     7
370
    25
100
AcDbLine
 10
9.5287312244
 20
4.52133835
 30
0.0
 11
9.5287312244
 21
6.373562171
 31
0.0
  0
ARC
  5
12E
330
1F
100
AcDbEntity
  8
0
  6
Continuous
 62
     7
370
    25
100
AcDbCircle
 10
9.4303060275
 20
6.373562171
 30
0.0
 40
0.0984251968503944
100
AcDbArc
 50
0.0
 51
90.0
  0
LINE
  5
12F
330
1F
100
AcDbEntity
  8
0
  6
Continuous
 62
     7
370
    25
100
AcDbLine
 10
9.4303060275
 20
6.4719873678
 30
0.0
 11
7.1074713819
 21
6.4719873678
 31
0.0
  0
ARC
  5
130
330
1F
100
AcDbEntity
  8
0
  6
Continuous
 62
     7
370
    25
100
AcDbCircle
 10
7.1074713819
 20
6.373562171
 30
0.0
 40
0.0984251968503935
100
AcDbArc
 50
90.0
 51
180.0
  0
LINE
  5
131
330
1F
100
AcDbEntity
  8
0
  6
Continuous
 62
     7
370
    25
100
AcDbLine
 10
7.009046185
 20
4.5046728742
 30
0.0
 11
7.009046185
 21
6.373562171
 31
0.0
  0
LINE
  5
132
330
1F
100
AcDbEntity
  8
0
  6
Continuous
 62
     7
370
    25
100
AcDbLine
 10
7.8518200367
 20
3.3430097056
 30
0.0
 11
7.0285986498
 21
4.4457949367
 31
0.0
  0
ARC
  5
133
330
1F
100
AcDbEntity
  8
0
  6
Continuous
 62
     7
370
    25
100
AcDbCircle
 10
7.1074713819
 20
4.5046728742
 30
0.0
 40
0.0984251968503944
100
AcDbArc
 50
180.0
 51
216.741079496
  0
MTEXT
  5
135
330
1F
100
AcDbEntity
  8
0
  6
Continuous
 62
     7
100
AcDbMText
 10
0.0
 20
0.5790104628
 30
0.0
 40
0.2076
 41
0.0
 71
     1
 72
     1
  1
SOLIDWORKS Educational Product.
  7
SLDTEXTSTYLE0
 73
     1
 44
1.0
  0
MTEXT
  5
136
330
1F
100
AcDbEntity
  8
0
  6
Continuous
 62
     7
100
AcDbMText
 10
0.0
 20
0.2676104628
 30
0.0
 40
0.2076
 41
0.0
 71
     1
 72
     1
  1
For Instructional Use Only.
  7
SLDTEXTSTYLE0
 73
     1
 44
1.0
  0
ENDSEC
  0
SECTION
  2
OBJECTS
  0
DICTIONARY
  5
C
330
0
100
AcDbDictionary
281
     1
  3
ACAD_GROUP
350
D
  3
ACAD_LAYOUT
350
1A
  3
ACAD_MLINESTYLE
350
17
  3
ACAD_PLOTSETTINGS
350
19
  3
ACAD_PLOTSTYLENAME
350
E
  3
ACAD_SCALELIST
350
47
  3
DWGPROPS
350
137
  0
DICTIONARY
  5
D
102
{ACAD_REACTORS
330
C
102
}
330
C
100
AcDbDictionary
281
     1
  0
DICTIONARY
  5
1A
102
{ACAD_REACTORS
330
C
102
}
330
C
100
AcDbDictionary
281
     1
  3
Layout1
350
1E
  3
Layout2
350
26
  3
Model
350
22
  0
DICTIONARY
  5
17
102
{ACAD_REACTORS
330
C
102
}
330
C
100
AcDbDictionary
281
     1
  3
Standard
350
18
  0
DICTIONARY
  5
19
102
{ACAD_REACTORS
330
C
102
}
330
C
100
AcDbDictionary
281
     1
  0
ACDBDICTIONARYWDFLT
  5
E
102
{ACAD_REACTORS
330
C
102
}
330
C
100
AcDbDictionary
281
     1
  3
Normal
350
F
100
AcDbDictionaryWithDefault
340
F
  0
DICTIONARY
  5
47
102
{ACAD_REACTORS
330
C
102
}
330
C
100
AcDbDictionary
281
     1
  3
A0
350
48
  3
A1
350
49
  3
A2
350
4A
  3
A3
350
4B
  3
A4
350
4C
  3
A5
350
4D
  3
A6
350
4E
  3
A7
350
4F
  3
A8
350
50
  3
A9
350
51
  3
B1
350
52
  3
B2
350
53
  3
B3
350
54
  3
B4
350
55
  3
B5
350
56
  3
B6
350
57
  3
B7
350
58
  0
XRECORD
  5
137
102
{ACAD_REACTORS
330
C
102
}
330
C
100
AcDbXrecord
280
     1
  1
DWGPROPS COOKIE
  2

  3

  4

  6

  7

  8
Matthew Geisel
  9

300
=
301
=
302
=
303
=
304
=
305
=
306
=
307
=
308
=
309
=
 40
0.0
 41
2460754.949446262
 42
2460754.949447234
  1

 90
        0
  0
LAYOUT
  5
1E
102
{ACAD_REACTORS
330
1A
102
}
330
1A
100
AcDbPlotSettings
  1

  2
none_device
  4

  6

 40
0.0
 41
0.0
 42
0.0
 43
0.0
 44
0.0
 45
0.0
 46
0.0
 47
0.0
 48
0.0
 49
0.0
140
0.0
141
0.0
142
1.0
143
1.0
 70
   688
 72
     0
 73
     0
 74
     5
  7

 75
    16
147
1.0
148
0.0
149
0.0
100
AcDbLayout
  1
Layout1
 70
     1
 71
     1
 10
0.0
 20
0.0
 11
12.0
 21
9.0
 12
0.0
 22
0.0
 32
0.0
 14
1.0000000000E+20
 24
1.0000000000E+20
 34
1.0000000000E+20
 15
-1.0000000000E+20
 25
-1.0000000000E+20
 35
-1.0000000000E+20
146
0.0
 13
0.0
 23
0.0
 33
0.0
 16
1.0
 26
0.0
 36
0.0
 17
0.0
 27
1.0
 37
0.0
 76
     0
330
1B
  0
LAYOUT
  5
26
102
{ACAD_REACTORS
330
1A
102
}
330
1A
100
AcDbPlotSettings
  1

  2
none_device
  4

  6

 40
0.0
 41
0.0
 42
0.0
 43
0.0
 44
0.0
 45
0.0
 46
0.0
 47
0.0
 48
0.0
 49
0.0
140
0.0
141
0.0
142
1.0
143
1.0
 70
   688
 72
     0
 73
     0
 74
     5
  7

 75
    16
147
1.0
148
0.0
149
0.0
100
AcDbLayout
  1
Layout2
 70
     1
 71
     2
 10
0.0
 20
0.0
 11
0.0
 21
0.0
 12
0.0
 22
0.0
 32
0.0
 14
0.0
 24
0.0
 34
0.0
 15
0.0
 25
0.0
 35
0.0
146
0.0
 13
0.0
 23
0.0
 33
0.0
 16
1.0
 26
0.0
 36
0.0
 17
0.0
 27
1.0
 37
0.0
 76
     0
330
23
  0
LAYOUT
  5
22
102
{ACAD_REACTORS
330
1A
102
}
330
1A
100
AcDbPlotSettings
  1

  2
none_device
  4
Letter_(8.50_x_11.00_Inches)
  6

 40
6.35
 41
6.35
 42
6.35000508
 43
6.35000508
 44
215.9
 45
279.4
 46
0.0
 47
0.0
 48
0.0
 49
0.0
140
0.0
141
0.0
142
1.0
143
1.0
 70
  1712
 72
     0
 73
     0
 74
     0
  7

 75
     0
147
1.0
148
0.0
149
0.0
100
AcDbLayout
  1
Model
 70
     1
 71
     0
 10
0.0
 20
0.0
 11
12.0
 21
12.0
 12
0.0
 22
0.0
 32
0.0
 14
0.0
 24
0.0
 34
0.0
 15
12.0
 25
12.0
 35
0.0
146
0.0
 13
0.0
 23
0.0
 33
0.0
 16
1.0
 26
0.0
 36
0.0
 17
0.0
 27
1.0
 37
0.0
 76
     0
330
1F
331
29
  0
MLINESTYLE
  5
18
102
{ACAD_REACTORS
330
17
102
}
330
17
100
AcDbMlineStyle
  2
Standard
 70
     0
  3

 62
   256
 51
90.0
 52
90.0
 71
     2
 49
0.5
 62
   256
  6
BYLAYER
 49
-0.5
 62
   256
  6
BYLAYER
  0
ACDBPLACEHOLDER
  5
F
102
{ACAD_REACTORS
330
E
102
}
330
E
  0
SCALE
  5
48
102
{ACAD_REACTORS
330
47
102
}
330
47
100
AcDbScale
 70
     0
300
1:1
140
1.0
141
1.0
290
     1
  0
SCALE
  5
49
102
{ACAD_REACTORS
330
47
102
}
330
47
100
AcDbScale
 70
     0
300
1/128" = 1'-0"
140
0.0078125
141
12.0
290
     0
  0
SCALE
  5
4A
102
{ACAD_REACTORS
330
47
102
}
330
47
100
AcDbScale
 70
     0
300
1/64" = 1'-0"
140
0.015625
141
12.0
290
     0
  0
SCALE
  5
4B
102
{ACAD_REACTORS
330
47
102
}
330
47
100
AcDbScale
 70
     0
300
1/32" = 1'-0"
140
0.03125
141
12.0
290
     0
  0
SCALE
  5
4C
102
{ACAD_REACTORS
330
47
102
}
330
47
100
AcDbScale
 70
     0
300
1/16" = 1'-0"
140
0.0625
141
12.0
290
     0
  0
SCALE
  5
4D
102
{ACAD_REACTORS
330
47
102
}
330
47
100
AcDbScale
 70
     0
300
3/32" = 1'-0"
140
0.09375
141
12.0
290
     0
  0
SCALE
  5
4E
102
{ACAD_REACTORS
330
47
102
}
330
47
100
AcDbScale
 70
     0
300
1/8" = 1'-0"
140
0.125
141
12.0
290
     0
  0
SCALE
  5
4F
102
{ACAD_REACTORS
330
47
102
}
330
47
100
AcDbScale
 70
     0
300
3/16" = 1'-0"
140
0.1875
141
12.0
290
     0
  0
SCALE
  5
50
102
{ACAD_REACTORS
330
47
102
}
330
47
100
AcDbScale
 70
     0
300
1/4" = 1'-0"
140
0.25
141
12.0
290
     0
  0
SCALE
  5
51
102
{ACAD_REACTORS
330
47
102
}
330
47
100
AcDbScale
 70
     0
300
3/8" = 1'-0"
140
0.375
141
12.0
290
     0
  0
SCALE
  5
52
102
{ACAD_REACTORS
330
47
102
}
330
47
100
AcDbScale
 70
     0
300
1/2" = 1'-0"
140
0.5
141
12.0
290
     0
  0
SCALE
  5
53
102
{ACAD_REACTORS
330
47
102
}
330
47
100
AcDbScale
 70
     0
300
3/4" = 1'-0"
140
0.75
141
12.0
290
     0
  0
SCALE
  5
54
102
{ACAD_REACTORS
330
47
102
}
330
47
100
AcDbScale
 70
     0
300
1" = 1'-0"
140
1.0
141
12.0
290
     0
  0
SCALE
  5
55
102
{ACAD_REACTORS
330
47
102
}
330
47
100
AcDbScale
 70
     0
300
1-1/2" = 1'-0"
140
1.5
141
12.0
290
     0
  0
SCALE
  5
56
102
{ACAD_REACTORS
330
47
102
}
330
47
100
AcDbScale
 70
     0
300
3" = 1'-0"
140
3.0
141
12.0
290
     0
  0
SCALE
  5
57
102
{ACAD_REACTORS
330
47
102
}
330
47
100
AcDbScale
 70
     0
300
6" = 1'-0"
140
6.0
141
12.0
290
     0
  0
SCALE
  5
58
102
{ACAD_REACTORS
330
47
102
}
330
47
100
AcDbScale
 70
     0
300
1'-0" = 1'-0"
140
12.0
141
12.0
290
     0
  0
ENDSEC
  0
EOF
