%TF.GenerationSoftware,KiCad,Pcbnew,8.0.6*%
%TF.CreationDate,2025-03-28T19:17:51-04:00*%
%TF.ProjectId,Microcontroller boards,4d696372-6f63-46f6-9e74-726f6c6c6572,rev?*%
%TF.SameCoordinates,Original*%
%TF.FileFunction,Soldermask,Top*%
%TF.FilePolarity,Negative*%
%FSLAX46Y46*%
G04 Gerber Fmt 4.6, Leading zero omitted, Abs format (unit mm)*
G04 Created by KiCad (PCBNEW 8.0.6) date 2025-03-28 19:17:51*
%MOMM*%
%LPD*%
G01*
G04 APERTURE LIST*
G04 Aperture macros list*
%AMRoundRect*
0 Rectangle with rounded corners*
0 $1 Rounding radius*
0 $2 $3 $4 $5 $6 $7 $8 $9 X,Y pos of 4 corners*
0 Add a 4 corners polygon primitive as box body*
4,1,4,$2,$3,$4,$5,$6,$7,$8,$9,$2,$3,0*
0 Add four circle primitives for the rounded corners*
1,1,$1+$1,$2,$3*
1,1,$1+$1,$4,$5*
1,1,$1+$1,$6,$7*
1,1,$1+$1,$8,$9*
0 Add four rect primitives between the rounded corners*
20,1,$1+$1,$2,$3,$4,$5,0*
20,1,$1+$1,$4,$5,$6,$7,0*
20,1,$1+$1,$6,$7,$8,$9,0*
20,1,$1+$1,$8,$9,$2,$3,0*%
G04 Aperture macros list end*
%ADD10RoundRect,0.250000X-0.685000X0.335000X-0.685000X-0.335000X0.685000X-0.335000X0.685000X0.335000X0*%
%ADD11O,1.870000X1.170000*%
%ADD12C,2.500000*%
%ADD13RoundRect,0.250000X-0.335000X-0.685000X0.335000X-0.685000X0.335000X0.685000X-0.335000X0.685000X0*%
%ADD14O,1.170000X1.870000*%
%ADD15C,1.270000*%
%ADD16C,1.524000*%
G04 APERTURE END LIST*
D10*
%TO.C,J6*%
X99720400Y-91897200D03*
D11*
X99720400Y-93397200D03*
X99720400Y-94897200D03*
%TD*%
D12*
%TO.C,2.5mm*%
X129362200Y-104724200D03*
%TD*%
%TO.C,2.5mm*%
X129438400Y-61722000D03*
%TD*%
D13*
%TO.C,J5*%
X134500000Y-68250000D03*
D14*
X136000000Y-68250000D03*
X137500000Y-68250000D03*
%TD*%
D10*
%TO.C,J10*%
X99491800Y-69951600D03*
D11*
X99491800Y-71451600D03*
X99491800Y-72951600D03*
X99491800Y-74451600D03*
X99491800Y-75951600D03*
X99491800Y-77451600D03*
X99491800Y-78951600D03*
X99491800Y-80451600D03*
X99491800Y-81951600D03*
X99491800Y-83451600D03*
%TD*%
D13*
%TO.C,J3*%
X134500000Y-77250000D03*
D14*
X136000000Y-77250000D03*
X137500000Y-77250000D03*
%TD*%
D13*
%TO.C,J4*%
X134500000Y-72750000D03*
D14*
X136000000Y-72750000D03*
X137500000Y-72750000D03*
%TD*%
D13*
%TO.C,J8*%
X134500000Y-81750000D03*
D14*
X136000000Y-81750000D03*
X137500000Y-81750000D03*
%TD*%
D12*
%TO.C,2.5mm*%
X104063800Y-61671200D03*
%TD*%
D15*
%TO.C,J2*%
X139017400Y-88104901D03*
X139017400Y-90104900D03*
X139017400Y-92104901D03*
X139017400Y-94104899D03*
%TD*%
D16*
%TO.C,U1*%
X102780000Y-65470000D03*
X102780000Y-68010000D03*
X102780000Y-70550000D03*
X102780000Y-73090000D03*
X102780000Y-75630000D03*
X102780000Y-78170000D03*
X102780000Y-80710000D03*
X102780000Y-83250000D03*
X102780000Y-85790000D03*
X102780000Y-88330000D03*
X102780000Y-90870000D03*
X102780000Y-93410000D03*
X102780000Y-95950000D03*
X102780000Y-98490000D03*
X102780000Y-101030000D03*
X130720000Y-101030000D03*
X130720000Y-98490000D03*
X130720000Y-95950000D03*
X130720000Y-93410000D03*
X130720000Y-90870000D03*
X130720000Y-88330000D03*
X130720000Y-85790000D03*
X130720000Y-83250000D03*
X130720000Y-80710000D03*
X130720000Y-78170000D03*
X130720000Y-75630000D03*
X130720000Y-73090000D03*
X130720000Y-70550000D03*
X130720000Y-68010000D03*
X130720000Y-65470000D03*
%TD*%
D13*
%TO.C,J7*%
X134500000Y-63750000D03*
D14*
X136000000Y-63750000D03*
X137500000Y-63750000D03*
%TD*%
D15*
%TO.C,J1*%
X139017400Y-98604901D03*
X139017400Y-100604900D03*
X139017400Y-102604901D03*
X139017400Y-104604899D03*
%TD*%
D12*
%TO.C,2.5mm*%
X104063800Y-104902000D03*
%TD*%
M02*
