%TF.GenerationSoftware,KiCad,Pcbnew,8.0.6*%
%TF.CreationDate,2025-03-28T19:17:51-04:00*%
%TF.ProjectId,Microcontroller boards,4d696372-6f63-46f6-9e74-726f6c6c6572,rev?*%
%TF.SameCoordinates,Original*%
%TF.FileFunction,Legend,Top*%
%TF.FilePolarity,Positive*%
%FSLAX46Y46*%
G04 Gerber Fmt 4.6, Leading zero omitted, Abs format (unit mm)*
G04 Created by KiCad (PCBNEW 8.0.6) date 2025-03-28 19:17:51*
%MOMM*%
%LPD*%
G01*
G04 APERTURE LIST*
%ADD10C,0.150000*%
%ADD11C,0.300000*%
%ADD12C,0.120000*%
%ADD13C,0.152400*%
%ADD14C,0.508000*%
%ADD15C,0.000000*%
%ADD16C,1.524000*%
G04 APERTURE END LIST*
D10*
X101675219Y-93730533D02*
X102389504Y-93730533D01*
X102389504Y-93730533D02*
X102532361Y-93778152D01*
X102532361Y-93778152D02*
X102627600Y-93873390D01*
X102627600Y-93873390D02*
X102675219Y-94016247D01*
X102675219Y-94016247D02*
X102675219Y-94111485D01*
X101675219Y-92825771D02*
X101675219Y-93016247D01*
X101675219Y-93016247D02*
X101722838Y-93111485D01*
X101722838Y-93111485D02*
X101770457Y-93159104D01*
X101770457Y-93159104D02*
X101913314Y-93254342D01*
X101913314Y-93254342D02*
X102103790Y-93301961D01*
X102103790Y-93301961D02*
X102484742Y-93301961D01*
X102484742Y-93301961D02*
X102579980Y-93254342D01*
X102579980Y-93254342D02*
X102627600Y-93206723D01*
X102627600Y-93206723D02*
X102675219Y-93111485D01*
X102675219Y-93111485D02*
X102675219Y-92921009D01*
X102675219Y-92921009D02*
X102627600Y-92825771D01*
X102627600Y-92825771D02*
X102579980Y-92778152D01*
X102579980Y-92778152D02*
X102484742Y-92730533D01*
X102484742Y-92730533D02*
X102246647Y-92730533D01*
X102246647Y-92730533D02*
X102151409Y-92778152D01*
X102151409Y-92778152D02*
X102103790Y-92825771D01*
X102103790Y-92825771D02*
X102056171Y-92921009D01*
X102056171Y-92921009D02*
X102056171Y-93111485D01*
X102056171Y-93111485D02*
X102103790Y-93206723D01*
X102103790Y-93206723D02*
X102151409Y-93254342D01*
X102151409Y-93254342D02*
X102246647Y-93301961D01*
X127105067Y-100743657D02*
X127152686Y-100696038D01*
X127152686Y-100696038D02*
X127247924Y-100648419D01*
X127247924Y-100648419D02*
X127486019Y-100648419D01*
X127486019Y-100648419D02*
X127581257Y-100696038D01*
X127581257Y-100696038D02*
X127628876Y-100743657D01*
X127628876Y-100743657D02*
X127676495Y-100838895D01*
X127676495Y-100838895D02*
X127676495Y-100934133D01*
X127676495Y-100934133D02*
X127628876Y-101076990D01*
X127628876Y-101076990D02*
X127057448Y-101648419D01*
X127057448Y-101648419D02*
X127676495Y-101648419D01*
X128105067Y-101553180D02*
X128152686Y-101600800D01*
X128152686Y-101600800D02*
X128105067Y-101648419D01*
X128105067Y-101648419D02*
X128057448Y-101600800D01*
X128057448Y-101600800D02*
X128105067Y-101553180D01*
X128105067Y-101553180D02*
X128105067Y-101648419D01*
X129057447Y-100648419D02*
X128581257Y-100648419D01*
X128581257Y-100648419D02*
X128533638Y-101124609D01*
X128533638Y-101124609D02*
X128581257Y-101076990D01*
X128581257Y-101076990D02*
X128676495Y-101029371D01*
X128676495Y-101029371D02*
X128914590Y-101029371D01*
X128914590Y-101029371D02*
X129009828Y-101076990D01*
X129009828Y-101076990D02*
X129057447Y-101124609D01*
X129057447Y-101124609D02*
X129105066Y-101219847D01*
X129105066Y-101219847D02*
X129105066Y-101457942D01*
X129105066Y-101457942D02*
X129057447Y-101553180D01*
X129057447Y-101553180D02*
X129009828Y-101600800D01*
X129009828Y-101600800D02*
X128914590Y-101648419D01*
X128914590Y-101648419D02*
X128676495Y-101648419D01*
X128676495Y-101648419D02*
X128581257Y-101600800D01*
X128581257Y-101600800D02*
X128533638Y-101553180D01*
X129533638Y-101648419D02*
X129533638Y-100981752D01*
X129533638Y-101076990D02*
X129581257Y-101029371D01*
X129581257Y-101029371D02*
X129676495Y-100981752D01*
X129676495Y-100981752D02*
X129819352Y-100981752D01*
X129819352Y-100981752D02*
X129914590Y-101029371D01*
X129914590Y-101029371D02*
X129962209Y-101124609D01*
X129962209Y-101124609D02*
X129962209Y-101648419D01*
X129962209Y-101124609D02*
X130009828Y-101029371D01*
X130009828Y-101029371D02*
X130105066Y-100981752D01*
X130105066Y-100981752D02*
X130247923Y-100981752D01*
X130247923Y-100981752D02*
X130343162Y-101029371D01*
X130343162Y-101029371D02*
X130390781Y-101124609D01*
X130390781Y-101124609D02*
X130390781Y-101648419D01*
X130866971Y-101648419D02*
X130866971Y-100981752D01*
X130866971Y-101076990D02*
X130914590Y-101029371D01*
X130914590Y-101029371D02*
X131009828Y-100981752D01*
X131009828Y-100981752D02*
X131152685Y-100981752D01*
X131152685Y-100981752D02*
X131247923Y-101029371D01*
X131247923Y-101029371D02*
X131295542Y-101124609D01*
X131295542Y-101124609D02*
X131295542Y-101648419D01*
X131295542Y-101124609D02*
X131343161Y-101029371D01*
X131343161Y-101029371D02*
X131438399Y-100981752D01*
X131438399Y-100981752D02*
X131581256Y-100981752D01*
X131581256Y-100981752D02*
X131676495Y-101029371D01*
X131676495Y-101029371D02*
X131724114Y-101124609D01*
X131724114Y-101124609D02*
X131724114Y-101648419D01*
X127181267Y-57741457D02*
X127228886Y-57693838D01*
X127228886Y-57693838D02*
X127324124Y-57646219D01*
X127324124Y-57646219D02*
X127562219Y-57646219D01*
X127562219Y-57646219D02*
X127657457Y-57693838D01*
X127657457Y-57693838D02*
X127705076Y-57741457D01*
X127705076Y-57741457D02*
X127752695Y-57836695D01*
X127752695Y-57836695D02*
X127752695Y-57931933D01*
X127752695Y-57931933D02*
X127705076Y-58074790D01*
X127705076Y-58074790D02*
X127133648Y-58646219D01*
X127133648Y-58646219D02*
X127752695Y-58646219D01*
X128181267Y-58550980D02*
X128228886Y-58598600D01*
X128228886Y-58598600D02*
X128181267Y-58646219D01*
X128181267Y-58646219D02*
X128133648Y-58598600D01*
X128133648Y-58598600D02*
X128181267Y-58550980D01*
X128181267Y-58550980D02*
X128181267Y-58646219D01*
X129133647Y-57646219D02*
X128657457Y-57646219D01*
X128657457Y-57646219D02*
X128609838Y-58122409D01*
X128609838Y-58122409D02*
X128657457Y-58074790D01*
X128657457Y-58074790D02*
X128752695Y-58027171D01*
X128752695Y-58027171D02*
X128990790Y-58027171D01*
X128990790Y-58027171D02*
X129086028Y-58074790D01*
X129086028Y-58074790D02*
X129133647Y-58122409D01*
X129133647Y-58122409D02*
X129181266Y-58217647D01*
X129181266Y-58217647D02*
X129181266Y-58455742D01*
X129181266Y-58455742D02*
X129133647Y-58550980D01*
X129133647Y-58550980D02*
X129086028Y-58598600D01*
X129086028Y-58598600D02*
X128990790Y-58646219D01*
X128990790Y-58646219D02*
X128752695Y-58646219D01*
X128752695Y-58646219D02*
X128657457Y-58598600D01*
X128657457Y-58598600D02*
X128609838Y-58550980D01*
X129609838Y-58646219D02*
X129609838Y-57979552D01*
X129609838Y-58074790D02*
X129657457Y-58027171D01*
X129657457Y-58027171D02*
X129752695Y-57979552D01*
X129752695Y-57979552D02*
X129895552Y-57979552D01*
X129895552Y-57979552D02*
X129990790Y-58027171D01*
X129990790Y-58027171D02*
X130038409Y-58122409D01*
X130038409Y-58122409D02*
X130038409Y-58646219D01*
X130038409Y-58122409D02*
X130086028Y-58027171D01*
X130086028Y-58027171D02*
X130181266Y-57979552D01*
X130181266Y-57979552D02*
X130324123Y-57979552D01*
X130324123Y-57979552D02*
X130419362Y-58027171D01*
X130419362Y-58027171D02*
X130466981Y-58122409D01*
X130466981Y-58122409D02*
X130466981Y-58646219D01*
X130943171Y-58646219D02*
X130943171Y-57979552D01*
X130943171Y-58074790D02*
X130990790Y-58027171D01*
X130990790Y-58027171D02*
X131086028Y-57979552D01*
X131086028Y-57979552D02*
X131228885Y-57979552D01*
X131228885Y-57979552D02*
X131324123Y-58027171D01*
X131324123Y-58027171D02*
X131371742Y-58122409D01*
X131371742Y-58122409D02*
X131371742Y-58646219D01*
X131371742Y-58122409D02*
X131419361Y-58027171D01*
X131419361Y-58027171D02*
X131514599Y-57979552D01*
X131514599Y-57979552D02*
X131657456Y-57979552D01*
X131657456Y-57979552D02*
X131752695Y-58027171D01*
X131752695Y-58027171D02*
X131800314Y-58122409D01*
X131800314Y-58122409D02*
X131800314Y-58646219D01*
X135666666Y-65204819D02*
X135666666Y-65919104D01*
X135666666Y-65919104D02*
X135619047Y-66061961D01*
X135619047Y-66061961D02*
X135523809Y-66157200D01*
X135523809Y-66157200D02*
X135380952Y-66204819D01*
X135380952Y-66204819D02*
X135285714Y-66204819D01*
X136619047Y-65204819D02*
X136142857Y-65204819D01*
X136142857Y-65204819D02*
X136095238Y-65681009D01*
X136095238Y-65681009D02*
X136142857Y-65633390D01*
X136142857Y-65633390D02*
X136238095Y-65585771D01*
X136238095Y-65585771D02*
X136476190Y-65585771D01*
X136476190Y-65585771D02*
X136571428Y-65633390D01*
X136571428Y-65633390D02*
X136619047Y-65681009D01*
X136619047Y-65681009D02*
X136666666Y-65776247D01*
X136666666Y-65776247D02*
X136666666Y-66014342D01*
X136666666Y-66014342D02*
X136619047Y-66109580D01*
X136619047Y-66109580D02*
X136571428Y-66157200D01*
X136571428Y-66157200D02*
X136476190Y-66204819D01*
X136476190Y-66204819D02*
X136238095Y-66204819D01*
X136238095Y-66204819D02*
X136142857Y-66157200D01*
X136142857Y-66157200D02*
X136095238Y-66109580D01*
X101446619Y-77511123D02*
X102160904Y-77511123D01*
X102160904Y-77511123D02*
X102303761Y-77558742D01*
X102303761Y-77558742D02*
X102399000Y-77653980D01*
X102399000Y-77653980D02*
X102446619Y-77796837D01*
X102446619Y-77796837D02*
X102446619Y-77892075D01*
X102446619Y-76511123D02*
X102446619Y-77082551D01*
X102446619Y-76796837D02*
X101446619Y-76796837D01*
X101446619Y-76796837D02*
X101589476Y-76892075D01*
X101589476Y-76892075D02*
X101684714Y-76987313D01*
X101684714Y-76987313D02*
X101732333Y-77082551D01*
X101446619Y-75892075D02*
X101446619Y-75796837D01*
X101446619Y-75796837D02*
X101494238Y-75701599D01*
X101494238Y-75701599D02*
X101541857Y-75653980D01*
X101541857Y-75653980D02*
X101637095Y-75606361D01*
X101637095Y-75606361D02*
X101827571Y-75558742D01*
X101827571Y-75558742D02*
X102065666Y-75558742D01*
X102065666Y-75558742D02*
X102256142Y-75606361D01*
X102256142Y-75606361D02*
X102351380Y-75653980D01*
X102351380Y-75653980D02*
X102399000Y-75701599D01*
X102399000Y-75701599D02*
X102446619Y-75796837D01*
X102446619Y-75796837D02*
X102446619Y-75892075D01*
X102446619Y-75892075D02*
X102399000Y-75987313D01*
X102399000Y-75987313D02*
X102351380Y-76034932D01*
X102351380Y-76034932D02*
X102256142Y-76082551D01*
X102256142Y-76082551D02*
X102065666Y-76130170D01*
X102065666Y-76130170D02*
X101827571Y-76130170D01*
X101827571Y-76130170D02*
X101637095Y-76082551D01*
X101637095Y-76082551D02*
X101541857Y-76034932D01*
X101541857Y-76034932D02*
X101494238Y-75987313D01*
X101494238Y-75987313D02*
X101446619Y-75892075D01*
X135666666Y-74204819D02*
X135666666Y-74919104D01*
X135666666Y-74919104D02*
X135619047Y-75061961D01*
X135619047Y-75061961D02*
X135523809Y-75157200D01*
X135523809Y-75157200D02*
X135380952Y-75204819D01*
X135380952Y-75204819D02*
X135285714Y-75204819D01*
X136047619Y-74204819D02*
X136666666Y-74204819D01*
X136666666Y-74204819D02*
X136333333Y-74585771D01*
X136333333Y-74585771D02*
X136476190Y-74585771D01*
X136476190Y-74585771D02*
X136571428Y-74633390D01*
X136571428Y-74633390D02*
X136619047Y-74681009D01*
X136619047Y-74681009D02*
X136666666Y-74776247D01*
X136666666Y-74776247D02*
X136666666Y-75014342D01*
X136666666Y-75014342D02*
X136619047Y-75109580D01*
X136619047Y-75109580D02*
X136571428Y-75157200D01*
X136571428Y-75157200D02*
X136476190Y-75204819D01*
X136476190Y-75204819D02*
X136190476Y-75204819D01*
X136190476Y-75204819D02*
X136095238Y-75157200D01*
X136095238Y-75157200D02*
X136047619Y-75109580D01*
X135666666Y-69704819D02*
X135666666Y-70419104D01*
X135666666Y-70419104D02*
X135619047Y-70561961D01*
X135619047Y-70561961D02*
X135523809Y-70657200D01*
X135523809Y-70657200D02*
X135380952Y-70704819D01*
X135380952Y-70704819D02*
X135285714Y-70704819D01*
X136571428Y-70038152D02*
X136571428Y-70704819D01*
X136333333Y-69657200D02*
X136095238Y-70371485D01*
X136095238Y-70371485D02*
X136714285Y-70371485D01*
X135666666Y-78704819D02*
X135666666Y-79419104D01*
X135666666Y-79419104D02*
X135619047Y-79561961D01*
X135619047Y-79561961D02*
X135523809Y-79657200D01*
X135523809Y-79657200D02*
X135380952Y-79704819D01*
X135380952Y-79704819D02*
X135285714Y-79704819D01*
X136285714Y-79133390D02*
X136190476Y-79085771D01*
X136190476Y-79085771D02*
X136142857Y-79038152D01*
X136142857Y-79038152D02*
X136095238Y-78942914D01*
X136095238Y-78942914D02*
X136095238Y-78895295D01*
X136095238Y-78895295D02*
X136142857Y-78800057D01*
X136142857Y-78800057D02*
X136190476Y-78752438D01*
X136190476Y-78752438D02*
X136285714Y-78704819D01*
X136285714Y-78704819D02*
X136476190Y-78704819D01*
X136476190Y-78704819D02*
X136571428Y-78752438D01*
X136571428Y-78752438D02*
X136619047Y-78800057D01*
X136619047Y-78800057D02*
X136666666Y-78895295D01*
X136666666Y-78895295D02*
X136666666Y-78942914D01*
X136666666Y-78942914D02*
X136619047Y-79038152D01*
X136619047Y-79038152D02*
X136571428Y-79085771D01*
X136571428Y-79085771D02*
X136476190Y-79133390D01*
X136476190Y-79133390D02*
X136285714Y-79133390D01*
X136285714Y-79133390D02*
X136190476Y-79181009D01*
X136190476Y-79181009D02*
X136142857Y-79228628D01*
X136142857Y-79228628D02*
X136095238Y-79323866D01*
X136095238Y-79323866D02*
X136095238Y-79514342D01*
X136095238Y-79514342D02*
X136142857Y-79609580D01*
X136142857Y-79609580D02*
X136190476Y-79657200D01*
X136190476Y-79657200D02*
X136285714Y-79704819D01*
X136285714Y-79704819D02*
X136476190Y-79704819D01*
X136476190Y-79704819D02*
X136571428Y-79657200D01*
X136571428Y-79657200D02*
X136619047Y-79609580D01*
X136619047Y-79609580D02*
X136666666Y-79514342D01*
X136666666Y-79514342D02*
X136666666Y-79323866D01*
X136666666Y-79323866D02*
X136619047Y-79228628D01*
X136619047Y-79228628D02*
X136571428Y-79181009D01*
X136571428Y-79181009D02*
X136476190Y-79133390D01*
X101806667Y-57690657D02*
X101854286Y-57643038D01*
X101854286Y-57643038D02*
X101949524Y-57595419D01*
X101949524Y-57595419D02*
X102187619Y-57595419D01*
X102187619Y-57595419D02*
X102282857Y-57643038D01*
X102282857Y-57643038D02*
X102330476Y-57690657D01*
X102330476Y-57690657D02*
X102378095Y-57785895D01*
X102378095Y-57785895D02*
X102378095Y-57881133D01*
X102378095Y-57881133D02*
X102330476Y-58023990D01*
X102330476Y-58023990D02*
X101759048Y-58595419D01*
X101759048Y-58595419D02*
X102378095Y-58595419D01*
X102806667Y-58500180D02*
X102854286Y-58547800D01*
X102854286Y-58547800D02*
X102806667Y-58595419D01*
X102806667Y-58595419D02*
X102759048Y-58547800D01*
X102759048Y-58547800D02*
X102806667Y-58500180D01*
X102806667Y-58500180D02*
X102806667Y-58595419D01*
X103759047Y-57595419D02*
X103282857Y-57595419D01*
X103282857Y-57595419D02*
X103235238Y-58071609D01*
X103235238Y-58071609D02*
X103282857Y-58023990D01*
X103282857Y-58023990D02*
X103378095Y-57976371D01*
X103378095Y-57976371D02*
X103616190Y-57976371D01*
X103616190Y-57976371D02*
X103711428Y-58023990D01*
X103711428Y-58023990D02*
X103759047Y-58071609D01*
X103759047Y-58071609D02*
X103806666Y-58166847D01*
X103806666Y-58166847D02*
X103806666Y-58404942D01*
X103806666Y-58404942D02*
X103759047Y-58500180D01*
X103759047Y-58500180D02*
X103711428Y-58547800D01*
X103711428Y-58547800D02*
X103616190Y-58595419D01*
X103616190Y-58595419D02*
X103378095Y-58595419D01*
X103378095Y-58595419D02*
X103282857Y-58547800D01*
X103282857Y-58547800D02*
X103235238Y-58500180D01*
X104235238Y-58595419D02*
X104235238Y-57928752D01*
X104235238Y-58023990D02*
X104282857Y-57976371D01*
X104282857Y-57976371D02*
X104378095Y-57928752D01*
X104378095Y-57928752D02*
X104520952Y-57928752D01*
X104520952Y-57928752D02*
X104616190Y-57976371D01*
X104616190Y-57976371D02*
X104663809Y-58071609D01*
X104663809Y-58071609D02*
X104663809Y-58595419D01*
X104663809Y-58071609D02*
X104711428Y-57976371D01*
X104711428Y-57976371D02*
X104806666Y-57928752D01*
X104806666Y-57928752D02*
X104949523Y-57928752D01*
X104949523Y-57928752D02*
X105044762Y-57976371D01*
X105044762Y-57976371D02*
X105092381Y-58071609D01*
X105092381Y-58071609D02*
X105092381Y-58595419D01*
X105568571Y-58595419D02*
X105568571Y-57928752D01*
X105568571Y-58023990D02*
X105616190Y-57976371D01*
X105616190Y-57976371D02*
X105711428Y-57928752D01*
X105711428Y-57928752D02*
X105854285Y-57928752D01*
X105854285Y-57928752D02*
X105949523Y-57976371D01*
X105949523Y-57976371D02*
X105997142Y-58071609D01*
X105997142Y-58071609D02*
X105997142Y-58595419D01*
X105997142Y-58071609D02*
X106044761Y-57976371D01*
X106044761Y-57976371D02*
X106139999Y-57928752D01*
X106139999Y-57928752D02*
X106282856Y-57928752D01*
X106282856Y-57928752D02*
X106378095Y-57976371D01*
X106378095Y-57976371D02*
X106425714Y-58071609D01*
X106425714Y-58071609D02*
X106425714Y-58595419D01*
X139562580Y-90771566D02*
X138848295Y-90771566D01*
X138848295Y-90771566D02*
X138705438Y-90723947D01*
X138705438Y-90723947D02*
X138610200Y-90628709D01*
X138610200Y-90628709D02*
X138562580Y-90485852D01*
X138562580Y-90485852D02*
X138562580Y-90390614D01*
X139467342Y-91200138D02*
X139514961Y-91247757D01*
X139514961Y-91247757D02*
X139562580Y-91342995D01*
X139562580Y-91342995D02*
X139562580Y-91581090D01*
X139562580Y-91581090D02*
X139514961Y-91676328D01*
X139514961Y-91676328D02*
X139467342Y-91723947D01*
X139467342Y-91723947D02*
X139372104Y-91771566D01*
X139372104Y-91771566D02*
X139276866Y-91771566D01*
X139276866Y-91771566D02*
X139134009Y-91723947D01*
X139134009Y-91723947D02*
X138562580Y-91152519D01*
X138562580Y-91152519D02*
X138562580Y-91771566D01*
X116103495Y-74562619D02*
X116103495Y-75372142D01*
X116103495Y-75372142D02*
X116151114Y-75467380D01*
X116151114Y-75467380D02*
X116198733Y-75515000D01*
X116198733Y-75515000D02*
X116293971Y-75562619D01*
X116293971Y-75562619D02*
X116484447Y-75562619D01*
X116484447Y-75562619D02*
X116579685Y-75515000D01*
X116579685Y-75515000D02*
X116627304Y-75467380D01*
X116627304Y-75467380D02*
X116674923Y-75372142D01*
X116674923Y-75372142D02*
X116674923Y-74562619D01*
X117674923Y-75562619D02*
X117103495Y-75562619D01*
X117389209Y-75562619D02*
X117389209Y-74562619D01*
X117389209Y-74562619D02*
X117293971Y-74705476D01*
X117293971Y-74705476D02*
X117198733Y-74800714D01*
X117198733Y-74800714D02*
X117103495Y-74848333D01*
X128013333Y-93864819D02*
X127680000Y-93388628D01*
X127441905Y-93864819D02*
X127441905Y-92864819D01*
X127441905Y-92864819D02*
X127822857Y-92864819D01*
X127822857Y-92864819D02*
X127918095Y-92912438D01*
X127918095Y-92912438D02*
X127965714Y-92960057D01*
X127965714Y-92960057D02*
X128013333Y-93055295D01*
X128013333Y-93055295D02*
X128013333Y-93198152D01*
X128013333Y-93198152D02*
X127965714Y-93293390D01*
X127965714Y-93293390D02*
X127918095Y-93341009D01*
X127918095Y-93341009D02*
X127822857Y-93388628D01*
X127822857Y-93388628D02*
X127441905Y-93388628D01*
X128346667Y-92864819D02*
X129013333Y-93864819D01*
X129013333Y-92864819D02*
X128346667Y-93864819D01*
X105581904Y-87832438D02*
X105486666Y-87784819D01*
X105486666Y-87784819D02*
X105343809Y-87784819D01*
X105343809Y-87784819D02*
X105200952Y-87832438D01*
X105200952Y-87832438D02*
X105105714Y-87927676D01*
X105105714Y-87927676D02*
X105058095Y-88022914D01*
X105058095Y-88022914D02*
X105010476Y-88213390D01*
X105010476Y-88213390D02*
X105010476Y-88356247D01*
X105010476Y-88356247D02*
X105058095Y-88546723D01*
X105058095Y-88546723D02*
X105105714Y-88641961D01*
X105105714Y-88641961D02*
X105200952Y-88737200D01*
X105200952Y-88737200D02*
X105343809Y-88784819D01*
X105343809Y-88784819D02*
X105439047Y-88784819D01*
X105439047Y-88784819D02*
X105581904Y-88737200D01*
X105581904Y-88737200D02*
X105629523Y-88689580D01*
X105629523Y-88689580D02*
X105629523Y-88356247D01*
X105629523Y-88356247D02*
X105439047Y-88356247D01*
X104534286Y-86197200D02*
X104677143Y-86244819D01*
X104677143Y-86244819D02*
X104915238Y-86244819D01*
X104915238Y-86244819D02*
X105010476Y-86197200D01*
X105010476Y-86197200D02*
X105058095Y-86149580D01*
X105058095Y-86149580D02*
X105105714Y-86054342D01*
X105105714Y-86054342D02*
X105105714Y-85959104D01*
X105105714Y-85959104D02*
X105058095Y-85863866D01*
X105058095Y-85863866D02*
X105010476Y-85816247D01*
X105010476Y-85816247D02*
X104915238Y-85768628D01*
X104915238Y-85768628D02*
X104724762Y-85721009D01*
X104724762Y-85721009D02*
X104629524Y-85673390D01*
X104629524Y-85673390D02*
X104581905Y-85625771D01*
X104581905Y-85625771D02*
X104534286Y-85530533D01*
X104534286Y-85530533D02*
X104534286Y-85435295D01*
X104534286Y-85435295D02*
X104581905Y-85340057D01*
X104581905Y-85340057D02*
X104629524Y-85292438D01*
X104629524Y-85292438D02*
X104724762Y-85244819D01*
X104724762Y-85244819D02*
X104962857Y-85244819D01*
X104962857Y-85244819D02*
X105105714Y-85292438D01*
X105534286Y-86244819D02*
X105534286Y-85244819D01*
X106105714Y-86244819D02*
X105677143Y-85673390D01*
X106105714Y-85244819D02*
X105534286Y-85816247D01*
X127441905Y-83704819D02*
X127441905Y-82704819D01*
X127441905Y-82704819D02*
X127680000Y-82704819D01*
X127680000Y-82704819D02*
X127822857Y-82752438D01*
X127822857Y-82752438D02*
X127918095Y-82847676D01*
X127918095Y-82847676D02*
X127965714Y-82942914D01*
X127965714Y-82942914D02*
X128013333Y-83133390D01*
X128013333Y-83133390D02*
X128013333Y-83276247D01*
X128013333Y-83276247D02*
X127965714Y-83466723D01*
X127965714Y-83466723D02*
X127918095Y-83561961D01*
X127918095Y-83561961D02*
X127822857Y-83657200D01*
X127822857Y-83657200D02*
X127680000Y-83704819D01*
X127680000Y-83704819D02*
X127441905Y-83704819D01*
X128918095Y-82704819D02*
X128441905Y-82704819D01*
X128441905Y-82704819D02*
X128394286Y-83181009D01*
X128394286Y-83181009D02*
X128441905Y-83133390D01*
X128441905Y-83133390D02*
X128537143Y-83085771D01*
X128537143Y-83085771D02*
X128775238Y-83085771D01*
X128775238Y-83085771D02*
X128870476Y-83133390D01*
X128870476Y-83133390D02*
X128918095Y-83181009D01*
X128918095Y-83181009D02*
X128965714Y-83276247D01*
X128965714Y-83276247D02*
X128965714Y-83514342D01*
X128965714Y-83514342D02*
X128918095Y-83609580D01*
X128918095Y-83609580D02*
X128870476Y-83657200D01*
X128870476Y-83657200D02*
X128775238Y-83704819D01*
X128775238Y-83704819D02*
X128537143Y-83704819D01*
X128537143Y-83704819D02*
X128441905Y-83657200D01*
X128441905Y-83657200D02*
X128394286Y-83609580D01*
X127441905Y-65924819D02*
X127441905Y-64924819D01*
X127441905Y-64924819D02*
X127680000Y-64924819D01*
X127680000Y-64924819D02*
X127822857Y-64972438D01*
X127822857Y-64972438D02*
X127918095Y-65067676D01*
X127918095Y-65067676D02*
X127965714Y-65162914D01*
X127965714Y-65162914D02*
X128013333Y-65353390D01*
X128013333Y-65353390D02*
X128013333Y-65496247D01*
X128013333Y-65496247D02*
X127965714Y-65686723D01*
X127965714Y-65686723D02*
X127918095Y-65781961D01*
X127918095Y-65781961D02*
X127822857Y-65877200D01*
X127822857Y-65877200D02*
X127680000Y-65924819D01*
X127680000Y-65924819D02*
X127441905Y-65924819D01*
X128632381Y-64924819D02*
X128727619Y-64924819D01*
X128727619Y-64924819D02*
X128822857Y-64972438D01*
X128822857Y-64972438D02*
X128870476Y-65020057D01*
X128870476Y-65020057D02*
X128918095Y-65115295D01*
X128918095Y-65115295D02*
X128965714Y-65305771D01*
X128965714Y-65305771D02*
X128965714Y-65543866D01*
X128965714Y-65543866D02*
X128918095Y-65734342D01*
X128918095Y-65734342D02*
X128870476Y-65829580D01*
X128870476Y-65829580D02*
X128822857Y-65877200D01*
X128822857Y-65877200D02*
X128727619Y-65924819D01*
X128727619Y-65924819D02*
X128632381Y-65924819D01*
X128632381Y-65924819D02*
X128537143Y-65877200D01*
X128537143Y-65877200D02*
X128489524Y-65829580D01*
X128489524Y-65829580D02*
X128441905Y-65734342D01*
X128441905Y-65734342D02*
X128394286Y-65543866D01*
X128394286Y-65543866D02*
X128394286Y-65305771D01*
X128394286Y-65305771D02*
X128441905Y-65115295D01*
X128441905Y-65115295D02*
X128489524Y-65020057D01*
X128489524Y-65020057D02*
X128537143Y-64972438D01*
X128537143Y-64972438D02*
X128632381Y-64924819D01*
X104097343Y-98883000D02*
X104192581Y-98930619D01*
X104192581Y-98930619D02*
X104383057Y-98930619D01*
X104383057Y-98930619D02*
X104478295Y-98883000D01*
X104478295Y-98883000D02*
X104525914Y-98787761D01*
X104525914Y-98787761D02*
X104525914Y-98740142D01*
X104525914Y-98740142D02*
X104478295Y-98644904D01*
X104478295Y-98644904D02*
X104383057Y-98597285D01*
X104383057Y-98597285D02*
X104240200Y-98597285D01*
X104240200Y-98597285D02*
X104144962Y-98549666D01*
X104144962Y-98549666D02*
X104097343Y-98454428D01*
X104097343Y-98454428D02*
X104097343Y-98406809D01*
X104097343Y-98406809D02*
X104144962Y-98311571D01*
X104144962Y-98311571D02*
X104240200Y-98263952D01*
X104240200Y-98263952D02*
X104383057Y-98263952D01*
X104383057Y-98263952D02*
X104478295Y-98311571D01*
X104859248Y-98263952D02*
X105049724Y-98930619D01*
X105049724Y-98930619D02*
X105240200Y-98454428D01*
X105240200Y-98454428D02*
X105430676Y-98930619D01*
X105430676Y-98930619D02*
X105621152Y-98263952D01*
X106430676Y-98930619D02*
X106430676Y-98406809D01*
X106430676Y-98406809D02*
X106383057Y-98311571D01*
X106383057Y-98311571D02*
X106287819Y-98263952D01*
X106287819Y-98263952D02*
X106097343Y-98263952D01*
X106097343Y-98263952D02*
X106002105Y-98311571D01*
X106430676Y-98883000D02*
X106335438Y-98930619D01*
X106335438Y-98930619D02*
X106097343Y-98930619D01*
X106097343Y-98930619D02*
X106002105Y-98883000D01*
X106002105Y-98883000D02*
X105954486Y-98787761D01*
X105954486Y-98787761D02*
X105954486Y-98692523D01*
X105954486Y-98692523D02*
X106002105Y-98597285D01*
X106002105Y-98597285D02*
X106097343Y-98549666D01*
X106097343Y-98549666D02*
X106335438Y-98549666D01*
X106335438Y-98549666D02*
X106430676Y-98502047D01*
X106906867Y-98930619D02*
X106906867Y-97930619D01*
X106906867Y-98311571D02*
X107002105Y-98263952D01*
X107002105Y-98263952D02*
X107192581Y-98263952D01*
X107192581Y-98263952D02*
X107287819Y-98311571D01*
X107287819Y-98311571D02*
X107335438Y-98359190D01*
X107335438Y-98359190D02*
X107383057Y-98454428D01*
X107383057Y-98454428D02*
X107383057Y-98740142D01*
X107383057Y-98740142D02*
X107335438Y-98835380D01*
X107335438Y-98835380D02*
X107287819Y-98883000D01*
X107287819Y-98883000D02*
X107192581Y-98930619D01*
X107192581Y-98930619D02*
X107002105Y-98930619D01*
X107002105Y-98930619D02*
X106906867Y-98883000D01*
X104605714Y-65639104D02*
X105081904Y-65639104D01*
X104510476Y-65924819D02*
X104843809Y-64924819D01*
X104843809Y-64924819D02*
X105177142Y-65924819D01*
X105700952Y-64924819D02*
X105796190Y-64924819D01*
X105796190Y-64924819D02*
X105891428Y-64972438D01*
X105891428Y-64972438D02*
X105939047Y-65020057D01*
X105939047Y-65020057D02*
X105986666Y-65115295D01*
X105986666Y-65115295D02*
X106034285Y-65305771D01*
X106034285Y-65305771D02*
X106034285Y-65543866D01*
X106034285Y-65543866D02*
X105986666Y-65734342D01*
X105986666Y-65734342D02*
X105939047Y-65829580D01*
X105939047Y-65829580D02*
X105891428Y-65877200D01*
X105891428Y-65877200D02*
X105796190Y-65924819D01*
X105796190Y-65924819D02*
X105700952Y-65924819D01*
X105700952Y-65924819D02*
X105605714Y-65877200D01*
X105605714Y-65877200D02*
X105558095Y-65829580D01*
X105558095Y-65829580D02*
X105510476Y-65734342D01*
X105510476Y-65734342D02*
X105462857Y-65543866D01*
X105462857Y-65543866D02*
X105462857Y-65305771D01*
X105462857Y-65305771D02*
X105510476Y-65115295D01*
X105510476Y-65115295D02*
X105558095Y-65020057D01*
X105558095Y-65020057D02*
X105605714Y-64972438D01*
X105605714Y-64972438D02*
X105700952Y-64924819D01*
X127441905Y-86244819D02*
X127441905Y-85244819D01*
X127441905Y-85244819D02*
X127680000Y-85244819D01*
X127680000Y-85244819D02*
X127822857Y-85292438D01*
X127822857Y-85292438D02*
X127918095Y-85387676D01*
X127918095Y-85387676D02*
X127965714Y-85482914D01*
X127965714Y-85482914D02*
X128013333Y-85673390D01*
X128013333Y-85673390D02*
X128013333Y-85816247D01*
X128013333Y-85816247D02*
X127965714Y-86006723D01*
X127965714Y-86006723D02*
X127918095Y-86101961D01*
X127918095Y-86101961D02*
X127822857Y-86197200D01*
X127822857Y-86197200D02*
X127680000Y-86244819D01*
X127680000Y-86244819D02*
X127441905Y-86244819D01*
X128870476Y-85244819D02*
X128680000Y-85244819D01*
X128680000Y-85244819D02*
X128584762Y-85292438D01*
X128584762Y-85292438D02*
X128537143Y-85340057D01*
X128537143Y-85340057D02*
X128441905Y-85482914D01*
X128441905Y-85482914D02*
X128394286Y-85673390D01*
X128394286Y-85673390D02*
X128394286Y-86054342D01*
X128394286Y-86054342D02*
X128441905Y-86149580D01*
X128441905Y-86149580D02*
X128489524Y-86197200D01*
X128489524Y-86197200D02*
X128584762Y-86244819D01*
X128584762Y-86244819D02*
X128775238Y-86244819D01*
X128775238Y-86244819D02*
X128870476Y-86197200D01*
X128870476Y-86197200D02*
X128918095Y-86149580D01*
X128918095Y-86149580D02*
X128965714Y-86054342D01*
X128965714Y-86054342D02*
X128965714Y-85816247D01*
X128965714Y-85816247D02*
X128918095Y-85721009D01*
X128918095Y-85721009D02*
X128870476Y-85673390D01*
X128870476Y-85673390D02*
X128775238Y-85625771D01*
X128775238Y-85625771D02*
X128584762Y-85625771D01*
X128584762Y-85625771D02*
X128489524Y-85673390D01*
X128489524Y-85673390D02*
X128441905Y-85721009D01*
X128441905Y-85721009D02*
X128394286Y-85816247D01*
X128441904Y-97992438D02*
X128346666Y-97944819D01*
X128346666Y-97944819D02*
X128203809Y-97944819D01*
X128203809Y-97944819D02*
X128060952Y-97992438D01*
X128060952Y-97992438D02*
X127965714Y-98087676D01*
X127965714Y-98087676D02*
X127918095Y-98182914D01*
X127918095Y-98182914D02*
X127870476Y-98373390D01*
X127870476Y-98373390D02*
X127870476Y-98516247D01*
X127870476Y-98516247D02*
X127918095Y-98706723D01*
X127918095Y-98706723D02*
X127965714Y-98801961D01*
X127965714Y-98801961D02*
X128060952Y-98897200D01*
X128060952Y-98897200D02*
X128203809Y-98944819D01*
X128203809Y-98944819D02*
X128299047Y-98944819D01*
X128299047Y-98944819D02*
X128441904Y-98897200D01*
X128441904Y-98897200D02*
X128489523Y-98849580D01*
X128489523Y-98849580D02*
X128489523Y-98516247D01*
X128489523Y-98516247D02*
X128299047Y-98516247D01*
X127418095Y-95404819D02*
X127989523Y-95404819D01*
X127703809Y-96404819D02*
X127703809Y-95404819D01*
X128227619Y-95404819D02*
X128894285Y-96404819D01*
X128894285Y-95404819D02*
X128227619Y-96404819D01*
X127441905Y-91324819D02*
X127441905Y-90324819D01*
X127441905Y-90324819D02*
X127680000Y-90324819D01*
X127680000Y-90324819D02*
X127822857Y-90372438D01*
X127822857Y-90372438D02*
X127918095Y-90467676D01*
X127918095Y-90467676D02*
X127965714Y-90562914D01*
X127965714Y-90562914D02*
X128013333Y-90753390D01*
X128013333Y-90753390D02*
X128013333Y-90896247D01*
X128013333Y-90896247D02*
X127965714Y-91086723D01*
X127965714Y-91086723D02*
X127918095Y-91181961D01*
X127918095Y-91181961D02*
X127822857Y-91277200D01*
X127822857Y-91277200D02*
X127680000Y-91324819D01*
X127680000Y-91324819D02*
X127441905Y-91324819D01*
X128584762Y-90753390D02*
X128489524Y-90705771D01*
X128489524Y-90705771D02*
X128441905Y-90658152D01*
X128441905Y-90658152D02*
X128394286Y-90562914D01*
X128394286Y-90562914D02*
X128394286Y-90515295D01*
X128394286Y-90515295D02*
X128441905Y-90420057D01*
X128441905Y-90420057D02*
X128489524Y-90372438D01*
X128489524Y-90372438D02*
X128584762Y-90324819D01*
X128584762Y-90324819D02*
X128775238Y-90324819D01*
X128775238Y-90324819D02*
X128870476Y-90372438D01*
X128870476Y-90372438D02*
X128918095Y-90420057D01*
X128918095Y-90420057D02*
X128965714Y-90515295D01*
X128965714Y-90515295D02*
X128965714Y-90562914D01*
X128965714Y-90562914D02*
X128918095Y-90658152D01*
X128918095Y-90658152D02*
X128870476Y-90705771D01*
X128870476Y-90705771D02*
X128775238Y-90753390D01*
X128775238Y-90753390D02*
X128584762Y-90753390D01*
X128584762Y-90753390D02*
X128489524Y-90801009D01*
X128489524Y-90801009D02*
X128441905Y-90848628D01*
X128441905Y-90848628D02*
X128394286Y-90943866D01*
X128394286Y-90943866D02*
X128394286Y-91134342D01*
X128394286Y-91134342D02*
X128441905Y-91229580D01*
X128441905Y-91229580D02*
X128489524Y-91277200D01*
X128489524Y-91277200D02*
X128584762Y-91324819D01*
X128584762Y-91324819D02*
X128775238Y-91324819D01*
X128775238Y-91324819D02*
X128870476Y-91277200D01*
X128870476Y-91277200D02*
X128918095Y-91229580D01*
X128918095Y-91229580D02*
X128965714Y-91134342D01*
X128965714Y-91134342D02*
X128965714Y-90943866D01*
X128965714Y-90943866D02*
X128918095Y-90848628D01*
X128918095Y-90848628D02*
X128870476Y-90801009D01*
X128870476Y-90801009D02*
X128775238Y-90753390D01*
X104558095Y-73497200D02*
X104700952Y-73544819D01*
X104700952Y-73544819D02*
X104939047Y-73544819D01*
X104939047Y-73544819D02*
X105034285Y-73497200D01*
X105034285Y-73497200D02*
X105081904Y-73449580D01*
X105081904Y-73449580D02*
X105129523Y-73354342D01*
X105129523Y-73354342D02*
X105129523Y-73259104D01*
X105129523Y-73259104D02*
X105081904Y-73163866D01*
X105081904Y-73163866D02*
X105034285Y-73116247D01*
X105034285Y-73116247D02*
X104939047Y-73068628D01*
X104939047Y-73068628D02*
X104748571Y-73021009D01*
X104748571Y-73021009D02*
X104653333Y-72973390D01*
X104653333Y-72973390D02*
X104605714Y-72925771D01*
X104605714Y-72925771D02*
X104558095Y-72830533D01*
X104558095Y-72830533D02*
X104558095Y-72735295D01*
X104558095Y-72735295D02*
X104605714Y-72640057D01*
X104605714Y-72640057D02*
X104653333Y-72592438D01*
X104653333Y-72592438D02*
X104748571Y-72544819D01*
X104748571Y-72544819D02*
X104986666Y-72544819D01*
X104986666Y-72544819D02*
X105129523Y-72592438D01*
X105462857Y-72544819D02*
X106081904Y-72544819D01*
X106081904Y-72544819D02*
X105748571Y-72925771D01*
X105748571Y-72925771D02*
X105891428Y-72925771D01*
X105891428Y-72925771D02*
X105986666Y-72973390D01*
X105986666Y-72973390D02*
X106034285Y-73021009D01*
X106034285Y-73021009D02*
X106081904Y-73116247D01*
X106081904Y-73116247D02*
X106081904Y-73354342D01*
X106081904Y-73354342D02*
X106034285Y-73449580D01*
X106034285Y-73449580D02*
X105986666Y-73497200D01*
X105986666Y-73497200D02*
X105891428Y-73544819D01*
X105891428Y-73544819D02*
X105605714Y-73544819D01*
X105605714Y-73544819D02*
X105510476Y-73497200D01*
X105510476Y-73497200D02*
X105462857Y-73449580D01*
X127441905Y-88784819D02*
X127441905Y-87784819D01*
X127441905Y-87784819D02*
X127680000Y-87784819D01*
X127680000Y-87784819D02*
X127822857Y-87832438D01*
X127822857Y-87832438D02*
X127918095Y-87927676D01*
X127918095Y-87927676D02*
X127965714Y-88022914D01*
X127965714Y-88022914D02*
X128013333Y-88213390D01*
X128013333Y-88213390D02*
X128013333Y-88356247D01*
X128013333Y-88356247D02*
X127965714Y-88546723D01*
X127965714Y-88546723D02*
X127918095Y-88641961D01*
X127918095Y-88641961D02*
X127822857Y-88737200D01*
X127822857Y-88737200D02*
X127680000Y-88784819D01*
X127680000Y-88784819D02*
X127441905Y-88784819D01*
X128346667Y-87784819D02*
X129013333Y-87784819D01*
X129013333Y-87784819D02*
X128584762Y-88784819D01*
X127441905Y-71004819D02*
X127441905Y-70004819D01*
X127441905Y-70004819D02*
X127680000Y-70004819D01*
X127680000Y-70004819D02*
X127822857Y-70052438D01*
X127822857Y-70052438D02*
X127918095Y-70147676D01*
X127918095Y-70147676D02*
X127965714Y-70242914D01*
X127965714Y-70242914D02*
X128013333Y-70433390D01*
X128013333Y-70433390D02*
X128013333Y-70576247D01*
X128013333Y-70576247D02*
X127965714Y-70766723D01*
X127965714Y-70766723D02*
X127918095Y-70861961D01*
X127918095Y-70861961D02*
X127822857Y-70957200D01*
X127822857Y-70957200D02*
X127680000Y-71004819D01*
X127680000Y-71004819D02*
X127441905Y-71004819D01*
X128394286Y-70100057D02*
X128441905Y-70052438D01*
X128441905Y-70052438D02*
X128537143Y-70004819D01*
X128537143Y-70004819D02*
X128775238Y-70004819D01*
X128775238Y-70004819D02*
X128870476Y-70052438D01*
X128870476Y-70052438D02*
X128918095Y-70100057D01*
X128918095Y-70100057D02*
X128965714Y-70195295D01*
X128965714Y-70195295D02*
X128965714Y-70290533D01*
X128965714Y-70290533D02*
X128918095Y-70433390D01*
X128918095Y-70433390D02*
X128346667Y-71004819D01*
X128346667Y-71004819D02*
X128965714Y-71004819D01*
X104581905Y-93341009D02*
X104915238Y-93341009D01*
X105058095Y-93864819D02*
X104581905Y-93864819D01*
X104581905Y-93864819D02*
X104581905Y-92864819D01*
X104581905Y-92864819D02*
X105058095Y-92864819D01*
X105486667Y-93864819D02*
X105486667Y-92864819D01*
X105486667Y-92864819D02*
X106058095Y-93864819D01*
X106058095Y-93864819D02*
X106058095Y-92864819D01*
X104558095Y-76037200D02*
X104700952Y-76084819D01*
X104700952Y-76084819D02*
X104939047Y-76084819D01*
X104939047Y-76084819D02*
X105034285Y-76037200D01*
X105034285Y-76037200D02*
X105081904Y-75989580D01*
X105081904Y-75989580D02*
X105129523Y-75894342D01*
X105129523Y-75894342D02*
X105129523Y-75799104D01*
X105129523Y-75799104D02*
X105081904Y-75703866D01*
X105081904Y-75703866D02*
X105034285Y-75656247D01*
X105034285Y-75656247D02*
X104939047Y-75608628D01*
X104939047Y-75608628D02*
X104748571Y-75561009D01*
X104748571Y-75561009D02*
X104653333Y-75513390D01*
X104653333Y-75513390D02*
X104605714Y-75465771D01*
X104605714Y-75465771D02*
X104558095Y-75370533D01*
X104558095Y-75370533D02*
X104558095Y-75275295D01*
X104558095Y-75275295D02*
X104605714Y-75180057D01*
X104605714Y-75180057D02*
X104653333Y-75132438D01*
X104653333Y-75132438D02*
X104748571Y-75084819D01*
X104748571Y-75084819D02*
X104986666Y-75084819D01*
X104986666Y-75084819D02*
X105129523Y-75132438D01*
X105510476Y-75180057D02*
X105558095Y-75132438D01*
X105558095Y-75132438D02*
X105653333Y-75084819D01*
X105653333Y-75084819D02*
X105891428Y-75084819D01*
X105891428Y-75084819D02*
X105986666Y-75132438D01*
X105986666Y-75132438D02*
X106034285Y-75180057D01*
X106034285Y-75180057D02*
X106081904Y-75275295D01*
X106081904Y-75275295D02*
X106081904Y-75370533D01*
X106081904Y-75370533D02*
X106034285Y-75513390D01*
X106034285Y-75513390D02*
X105462857Y-76084819D01*
X105462857Y-76084819D02*
X106081904Y-76084819D01*
X104772380Y-96404819D02*
X104439047Y-95928628D01*
X104200952Y-96404819D02*
X104200952Y-95404819D01*
X104200952Y-95404819D02*
X104581904Y-95404819D01*
X104581904Y-95404819D02*
X104677142Y-95452438D01*
X104677142Y-95452438D02*
X104724761Y-95500057D01*
X104724761Y-95500057D02*
X104772380Y-95595295D01*
X104772380Y-95595295D02*
X104772380Y-95738152D01*
X104772380Y-95738152D02*
X104724761Y-95833390D01*
X104724761Y-95833390D02*
X104677142Y-95881009D01*
X104677142Y-95881009D02*
X104581904Y-95928628D01*
X104581904Y-95928628D02*
X104200952Y-95928628D01*
X105153333Y-96357200D02*
X105296190Y-96404819D01*
X105296190Y-96404819D02*
X105534285Y-96404819D01*
X105534285Y-96404819D02*
X105629523Y-96357200D01*
X105629523Y-96357200D02*
X105677142Y-96309580D01*
X105677142Y-96309580D02*
X105724761Y-96214342D01*
X105724761Y-96214342D02*
X105724761Y-96119104D01*
X105724761Y-96119104D02*
X105677142Y-96023866D01*
X105677142Y-96023866D02*
X105629523Y-95976247D01*
X105629523Y-95976247D02*
X105534285Y-95928628D01*
X105534285Y-95928628D02*
X105343809Y-95881009D01*
X105343809Y-95881009D02*
X105248571Y-95833390D01*
X105248571Y-95833390D02*
X105200952Y-95785771D01*
X105200952Y-95785771D02*
X105153333Y-95690533D01*
X105153333Y-95690533D02*
X105153333Y-95595295D01*
X105153333Y-95595295D02*
X105200952Y-95500057D01*
X105200952Y-95500057D02*
X105248571Y-95452438D01*
X105248571Y-95452438D02*
X105343809Y-95404819D01*
X105343809Y-95404819D02*
X105581904Y-95404819D01*
X105581904Y-95404819D02*
X105724761Y-95452438D01*
X106010476Y-95404819D02*
X106581904Y-95404819D01*
X106296190Y-96404819D02*
X106296190Y-95404819D01*
X104510476Y-83657200D02*
X104653333Y-83704819D01*
X104653333Y-83704819D02*
X104891428Y-83704819D01*
X104891428Y-83704819D02*
X104986666Y-83657200D01*
X104986666Y-83657200D02*
X105034285Y-83609580D01*
X105034285Y-83609580D02*
X105081904Y-83514342D01*
X105081904Y-83514342D02*
X105081904Y-83419104D01*
X105081904Y-83419104D02*
X105034285Y-83323866D01*
X105034285Y-83323866D02*
X104986666Y-83276247D01*
X104986666Y-83276247D02*
X104891428Y-83228628D01*
X104891428Y-83228628D02*
X104700952Y-83181009D01*
X104700952Y-83181009D02*
X104605714Y-83133390D01*
X104605714Y-83133390D02*
X104558095Y-83085771D01*
X104558095Y-83085771D02*
X104510476Y-82990533D01*
X104510476Y-82990533D02*
X104510476Y-82895295D01*
X104510476Y-82895295D02*
X104558095Y-82800057D01*
X104558095Y-82800057D02*
X104605714Y-82752438D01*
X104605714Y-82752438D02*
X104700952Y-82704819D01*
X104700952Y-82704819D02*
X104939047Y-82704819D01*
X104939047Y-82704819D02*
X105081904Y-82752438D01*
X105700952Y-82704819D02*
X105891428Y-82704819D01*
X105891428Y-82704819D02*
X105986666Y-82752438D01*
X105986666Y-82752438D02*
X106081904Y-82847676D01*
X106081904Y-82847676D02*
X106129523Y-83038152D01*
X106129523Y-83038152D02*
X106129523Y-83371485D01*
X106129523Y-83371485D02*
X106081904Y-83561961D01*
X106081904Y-83561961D02*
X105986666Y-83657200D01*
X105986666Y-83657200D02*
X105891428Y-83704819D01*
X105891428Y-83704819D02*
X105700952Y-83704819D01*
X105700952Y-83704819D02*
X105605714Y-83657200D01*
X105605714Y-83657200D02*
X105510476Y-83561961D01*
X105510476Y-83561961D02*
X105462857Y-83371485D01*
X105462857Y-83371485D02*
X105462857Y-83038152D01*
X105462857Y-83038152D02*
X105510476Y-82847676D01*
X105510476Y-82847676D02*
X105605714Y-82752438D01*
X105605714Y-82752438D02*
X105700952Y-82704819D01*
X104462857Y-70004819D02*
X104796190Y-71004819D01*
X104796190Y-71004819D02*
X105129523Y-70004819D01*
X105462857Y-70004819D02*
X105462857Y-70814342D01*
X105462857Y-70814342D02*
X105510476Y-70909580D01*
X105510476Y-70909580D02*
X105558095Y-70957200D01*
X105558095Y-70957200D02*
X105653333Y-71004819D01*
X105653333Y-71004819D02*
X105843809Y-71004819D01*
X105843809Y-71004819D02*
X105939047Y-70957200D01*
X105939047Y-70957200D02*
X105986666Y-70909580D01*
X105986666Y-70909580D02*
X106034285Y-70814342D01*
X106034285Y-70814342D02*
X106034285Y-70004819D01*
X104534286Y-81117200D02*
X104677143Y-81164819D01*
X104677143Y-81164819D02*
X104915238Y-81164819D01*
X104915238Y-81164819D02*
X105010476Y-81117200D01*
X105010476Y-81117200D02*
X105058095Y-81069580D01*
X105058095Y-81069580D02*
X105105714Y-80974342D01*
X105105714Y-80974342D02*
X105105714Y-80879104D01*
X105105714Y-80879104D02*
X105058095Y-80783866D01*
X105058095Y-80783866D02*
X105010476Y-80736247D01*
X105010476Y-80736247D02*
X104915238Y-80688628D01*
X104915238Y-80688628D02*
X104724762Y-80641009D01*
X104724762Y-80641009D02*
X104629524Y-80593390D01*
X104629524Y-80593390D02*
X104581905Y-80545771D01*
X104581905Y-80545771D02*
X104534286Y-80450533D01*
X104534286Y-80450533D02*
X104534286Y-80355295D01*
X104534286Y-80355295D02*
X104581905Y-80260057D01*
X104581905Y-80260057D02*
X104629524Y-80212438D01*
X104629524Y-80212438D02*
X104724762Y-80164819D01*
X104724762Y-80164819D02*
X104962857Y-80164819D01*
X104962857Y-80164819D02*
X105105714Y-80212438D01*
X106105714Y-81069580D02*
X106058095Y-81117200D01*
X106058095Y-81117200D02*
X105915238Y-81164819D01*
X105915238Y-81164819D02*
X105820000Y-81164819D01*
X105820000Y-81164819D02*
X105677143Y-81117200D01*
X105677143Y-81117200D02*
X105581905Y-81021961D01*
X105581905Y-81021961D02*
X105534286Y-80926723D01*
X105534286Y-80926723D02*
X105486667Y-80736247D01*
X105486667Y-80736247D02*
X105486667Y-80593390D01*
X105486667Y-80593390D02*
X105534286Y-80402914D01*
X105534286Y-80402914D02*
X105581905Y-80307676D01*
X105581905Y-80307676D02*
X105677143Y-80212438D01*
X105677143Y-80212438D02*
X105820000Y-80164819D01*
X105820000Y-80164819D02*
X105915238Y-80164819D01*
X105915238Y-80164819D02*
X106058095Y-80212438D01*
X106058095Y-80212438D02*
X106105714Y-80260057D01*
X104558095Y-90324819D02*
X105177142Y-90324819D01*
X105177142Y-90324819D02*
X104843809Y-90705771D01*
X104843809Y-90705771D02*
X104986666Y-90705771D01*
X104986666Y-90705771D02*
X105081904Y-90753390D01*
X105081904Y-90753390D02*
X105129523Y-90801009D01*
X105129523Y-90801009D02*
X105177142Y-90896247D01*
X105177142Y-90896247D02*
X105177142Y-91134342D01*
X105177142Y-91134342D02*
X105129523Y-91229580D01*
X105129523Y-91229580D02*
X105081904Y-91277200D01*
X105081904Y-91277200D02*
X104986666Y-91324819D01*
X104986666Y-91324819D02*
X104700952Y-91324819D01*
X104700952Y-91324819D02*
X104605714Y-91277200D01*
X104605714Y-91277200D02*
X104558095Y-91229580D01*
X105462857Y-90324819D02*
X105796190Y-91324819D01*
X105796190Y-91324819D02*
X106129523Y-90324819D01*
X104558095Y-78577200D02*
X104700952Y-78624819D01*
X104700952Y-78624819D02*
X104939047Y-78624819D01*
X104939047Y-78624819D02*
X105034285Y-78577200D01*
X105034285Y-78577200D02*
X105081904Y-78529580D01*
X105081904Y-78529580D02*
X105129523Y-78434342D01*
X105129523Y-78434342D02*
X105129523Y-78339104D01*
X105129523Y-78339104D02*
X105081904Y-78243866D01*
X105081904Y-78243866D02*
X105034285Y-78196247D01*
X105034285Y-78196247D02*
X104939047Y-78148628D01*
X104939047Y-78148628D02*
X104748571Y-78101009D01*
X104748571Y-78101009D02*
X104653333Y-78053390D01*
X104653333Y-78053390D02*
X104605714Y-78005771D01*
X104605714Y-78005771D02*
X104558095Y-77910533D01*
X104558095Y-77910533D02*
X104558095Y-77815295D01*
X104558095Y-77815295D02*
X104605714Y-77720057D01*
X104605714Y-77720057D02*
X104653333Y-77672438D01*
X104653333Y-77672438D02*
X104748571Y-77624819D01*
X104748571Y-77624819D02*
X104986666Y-77624819D01*
X104986666Y-77624819D02*
X105129523Y-77672438D01*
X106081904Y-78624819D02*
X105510476Y-78624819D01*
X105796190Y-78624819D02*
X105796190Y-77624819D01*
X105796190Y-77624819D02*
X105700952Y-77767676D01*
X105700952Y-77767676D02*
X105605714Y-77862914D01*
X105605714Y-77862914D02*
X105510476Y-77910533D01*
X127441905Y-76084819D02*
X127441905Y-75084819D01*
X127441905Y-75084819D02*
X127680000Y-75084819D01*
X127680000Y-75084819D02*
X127822857Y-75132438D01*
X127822857Y-75132438D02*
X127918095Y-75227676D01*
X127918095Y-75227676D02*
X127965714Y-75322914D01*
X127965714Y-75322914D02*
X128013333Y-75513390D01*
X128013333Y-75513390D02*
X128013333Y-75656247D01*
X128013333Y-75656247D02*
X127965714Y-75846723D01*
X127965714Y-75846723D02*
X127918095Y-75941961D01*
X127918095Y-75941961D02*
X127822857Y-76037200D01*
X127822857Y-76037200D02*
X127680000Y-76084819D01*
X127680000Y-76084819D02*
X127441905Y-76084819D01*
X128870476Y-75418152D02*
X128870476Y-76084819D01*
X128632381Y-75037200D02*
X128394286Y-75751485D01*
X128394286Y-75751485D02*
X129013333Y-75751485D01*
X104224762Y-100484819D02*
X104558095Y-101484819D01*
X104558095Y-101484819D02*
X104891428Y-100484819D01*
X105224762Y-101484819D02*
X105224762Y-100484819D01*
X105700952Y-101484819D02*
X105700952Y-100484819D01*
X105700952Y-100484819D02*
X106272380Y-101484819D01*
X106272380Y-101484819D02*
X106272380Y-100484819D01*
X113297618Y-63384819D02*
X112964285Y-62908628D01*
X112726190Y-63384819D02*
X112726190Y-62384819D01*
X112726190Y-62384819D02*
X113107142Y-62384819D01*
X113107142Y-62384819D02*
X113202380Y-62432438D01*
X113202380Y-62432438D02*
X113249999Y-62480057D01*
X113249999Y-62480057D02*
X113297618Y-62575295D01*
X113297618Y-62575295D02*
X113297618Y-62718152D01*
X113297618Y-62718152D02*
X113249999Y-62813390D01*
X113249999Y-62813390D02*
X113202380Y-62861009D01*
X113202380Y-62861009D02*
X113107142Y-62908628D01*
X113107142Y-62908628D02*
X112726190Y-62908628D01*
X114059523Y-62861009D02*
X113726190Y-62861009D01*
X113726190Y-63384819D02*
X113726190Y-62384819D01*
X113726190Y-62384819D02*
X114202380Y-62384819D01*
X115297619Y-63099104D02*
X115773809Y-63099104D01*
X115202381Y-63384819D02*
X115535714Y-62384819D01*
X115535714Y-62384819D02*
X115869047Y-63384819D01*
X116202381Y-62718152D02*
X116202381Y-63384819D01*
X116202381Y-62813390D02*
X116250000Y-62765771D01*
X116250000Y-62765771D02*
X116345238Y-62718152D01*
X116345238Y-62718152D02*
X116488095Y-62718152D01*
X116488095Y-62718152D02*
X116583333Y-62765771D01*
X116583333Y-62765771D02*
X116630952Y-62861009D01*
X116630952Y-62861009D02*
X116630952Y-63384819D01*
X116964286Y-62718152D02*
X117345238Y-62718152D01*
X117107143Y-62384819D02*
X117107143Y-63241961D01*
X117107143Y-63241961D02*
X117154762Y-63337200D01*
X117154762Y-63337200D02*
X117250000Y-63384819D01*
X117250000Y-63384819D02*
X117345238Y-63384819D01*
X118059524Y-63337200D02*
X117964286Y-63384819D01*
X117964286Y-63384819D02*
X117773810Y-63384819D01*
X117773810Y-63384819D02*
X117678572Y-63337200D01*
X117678572Y-63337200D02*
X117630953Y-63241961D01*
X117630953Y-63241961D02*
X117630953Y-62861009D01*
X117630953Y-62861009D02*
X117678572Y-62765771D01*
X117678572Y-62765771D02*
X117773810Y-62718152D01*
X117773810Y-62718152D02*
X117964286Y-62718152D01*
X117964286Y-62718152D02*
X118059524Y-62765771D01*
X118059524Y-62765771D02*
X118107143Y-62861009D01*
X118107143Y-62861009D02*
X118107143Y-62956247D01*
X118107143Y-62956247D02*
X117630953Y-63051485D01*
X118535715Y-62718152D02*
X118535715Y-63384819D01*
X118535715Y-62813390D02*
X118583334Y-62765771D01*
X118583334Y-62765771D02*
X118678572Y-62718152D01*
X118678572Y-62718152D02*
X118821429Y-62718152D01*
X118821429Y-62718152D02*
X118916667Y-62765771D01*
X118916667Y-62765771D02*
X118964286Y-62861009D01*
X118964286Y-62861009D02*
X118964286Y-63384819D01*
X119440477Y-62718152D02*
X119440477Y-63384819D01*
X119440477Y-62813390D02*
X119488096Y-62765771D01*
X119488096Y-62765771D02*
X119583334Y-62718152D01*
X119583334Y-62718152D02*
X119726191Y-62718152D01*
X119726191Y-62718152D02*
X119821429Y-62765771D01*
X119821429Y-62765771D02*
X119869048Y-62861009D01*
X119869048Y-62861009D02*
X119869048Y-63384819D01*
X120773810Y-63384819D02*
X120773810Y-62861009D01*
X120773810Y-62861009D02*
X120726191Y-62765771D01*
X120726191Y-62765771D02*
X120630953Y-62718152D01*
X120630953Y-62718152D02*
X120440477Y-62718152D01*
X120440477Y-62718152D02*
X120345239Y-62765771D01*
X120773810Y-63337200D02*
X120678572Y-63384819D01*
X120678572Y-63384819D02*
X120440477Y-63384819D01*
X120440477Y-63384819D02*
X120345239Y-63337200D01*
X120345239Y-63337200D02*
X120297620Y-63241961D01*
X120297620Y-63241961D02*
X120297620Y-63146723D01*
X120297620Y-63146723D02*
X120345239Y-63051485D01*
X120345239Y-63051485D02*
X120440477Y-63003866D01*
X120440477Y-63003866D02*
X120678572Y-63003866D01*
X120678572Y-63003866D02*
X120773810Y-62956247D01*
X128441904Y-80212438D02*
X128346666Y-80164819D01*
X128346666Y-80164819D02*
X128203809Y-80164819D01*
X128203809Y-80164819D02*
X128060952Y-80212438D01*
X128060952Y-80212438D02*
X127965714Y-80307676D01*
X127965714Y-80307676D02*
X127918095Y-80402914D01*
X127918095Y-80402914D02*
X127870476Y-80593390D01*
X127870476Y-80593390D02*
X127870476Y-80736247D01*
X127870476Y-80736247D02*
X127918095Y-80926723D01*
X127918095Y-80926723D02*
X127965714Y-81021961D01*
X127965714Y-81021961D02*
X128060952Y-81117200D01*
X128060952Y-81117200D02*
X128203809Y-81164819D01*
X128203809Y-81164819D02*
X128299047Y-81164819D01*
X128299047Y-81164819D02*
X128441904Y-81117200D01*
X128441904Y-81117200D02*
X128489523Y-81069580D01*
X128489523Y-81069580D02*
X128489523Y-80736247D01*
X128489523Y-80736247D02*
X128299047Y-80736247D01*
X127441905Y-68464819D02*
X127441905Y-67464819D01*
X127441905Y-67464819D02*
X127680000Y-67464819D01*
X127680000Y-67464819D02*
X127822857Y-67512438D01*
X127822857Y-67512438D02*
X127918095Y-67607676D01*
X127918095Y-67607676D02*
X127965714Y-67702914D01*
X127965714Y-67702914D02*
X128013333Y-67893390D01*
X128013333Y-67893390D02*
X128013333Y-68036247D01*
X128013333Y-68036247D02*
X127965714Y-68226723D01*
X127965714Y-68226723D02*
X127918095Y-68321961D01*
X127918095Y-68321961D02*
X127822857Y-68417200D01*
X127822857Y-68417200D02*
X127680000Y-68464819D01*
X127680000Y-68464819D02*
X127441905Y-68464819D01*
X128965714Y-68464819D02*
X128394286Y-68464819D01*
X128680000Y-68464819D02*
X128680000Y-67464819D01*
X128680000Y-67464819D02*
X128584762Y-67607676D01*
X128584762Y-67607676D02*
X128489524Y-67702914D01*
X128489524Y-67702914D02*
X128394286Y-67750533D01*
X127418095Y-77624819D02*
X128037142Y-77624819D01*
X128037142Y-77624819D02*
X127703809Y-78005771D01*
X127703809Y-78005771D02*
X127846666Y-78005771D01*
X127846666Y-78005771D02*
X127941904Y-78053390D01*
X127941904Y-78053390D02*
X127989523Y-78101009D01*
X127989523Y-78101009D02*
X128037142Y-78196247D01*
X128037142Y-78196247D02*
X128037142Y-78434342D01*
X128037142Y-78434342D02*
X127989523Y-78529580D01*
X127989523Y-78529580D02*
X127941904Y-78577200D01*
X127941904Y-78577200D02*
X127846666Y-78624819D01*
X127846666Y-78624819D02*
X127560952Y-78624819D01*
X127560952Y-78624819D02*
X127465714Y-78577200D01*
X127465714Y-78577200D02*
X127418095Y-78529580D01*
X128322857Y-77624819D02*
X128656190Y-78624819D01*
X128656190Y-78624819D02*
X128989523Y-77624819D01*
X105581904Y-67512438D02*
X105486666Y-67464819D01*
X105486666Y-67464819D02*
X105343809Y-67464819D01*
X105343809Y-67464819D02*
X105200952Y-67512438D01*
X105200952Y-67512438D02*
X105105714Y-67607676D01*
X105105714Y-67607676D02*
X105058095Y-67702914D01*
X105058095Y-67702914D02*
X105010476Y-67893390D01*
X105010476Y-67893390D02*
X105010476Y-68036247D01*
X105010476Y-68036247D02*
X105058095Y-68226723D01*
X105058095Y-68226723D02*
X105105714Y-68321961D01*
X105105714Y-68321961D02*
X105200952Y-68417200D01*
X105200952Y-68417200D02*
X105343809Y-68464819D01*
X105343809Y-68464819D02*
X105439047Y-68464819D01*
X105439047Y-68464819D02*
X105581904Y-68417200D01*
X105581904Y-68417200D02*
X105629523Y-68369580D01*
X105629523Y-68369580D02*
X105629523Y-68036247D01*
X105629523Y-68036247D02*
X105439047Y-68036247D01*
X115488095Y-105564819D02*
X115488095Y-106374342D01*
X115488095Y-106374342D02*
X115535714Y-106469580D01*
X115535714Y-106469580D02*
X115583333Y-106517200D01*
X115583333Y-106517200D02*
X115678571Y-106564819D01*
X115678571Y-106564819D02*
X115869047Y-106564819D01*
X115869047Y-106564819D02*
X115964285Y-106517200D01*
X115964285Y-106517200D02*
X116011904Y-106469580D01*
X116011904Y-106469580D02*
X116059523Y-106374342D01*
X116059523Y-106374342D02*
X116059523Y-105564819D01*
X116488095Y-106517200D02*
X116630952Y-106564819D01*
X116630952Y-106564819D02*
X116869047Y-106564819D01*
X116869047Y-106564819D02*
X116964285Y-106517200D01*
X116964285Y-106517200D02*
X117011904Y-106469580D01*
X117011904Y-106469580D02*
X117059523Y-106374342D01*
X117059523Y-106374342D02*
X117059523Y-106279104D01*
X117059523Y-106279104D02*
X117011904Y-106183866D01*
X117011904Y-106183866D02*
X116964285Y-106136247D01*
X116964285Y-106136247D02*
X116869047Y-106088628D01*
X116869047Y-106088628D02*
X116678571Y-106041009D01*
X116678571Y-106041009D02*
X116583333Y-105993390D01*
X116583333Y-105993390D02*
X116535714Y-105945771D01*
X116535714Y-105945771D02*
X116488095Y-105850533D01*
X116488095Y-105850533D02*
X116488095Y-105755295D01*
X116488095Y-105755295D02*
X116535714Y-105660057D01*
X116535714Y-105660057D02*
X116583333Y-105612438D01*
X116583333Y-105612438D02*
X116678571Y-105564819D01*
X116678571Y-105564819D02*
X116916666Y-105564819D01*
X116916666Y-105564819D02*
X117059523Y-105612438D01*
X117821428Y-106041009D02*
X117964285Y-106088628D01*
X117964285Y-106088628D02*
X118011904Y-106136247D01*
X118011904Y-106136247D02*
X118059523Y-106231485D01*
X118059523Y-106231485D02*
X118059523Y-106374342D01*
X118059523Y-106374342D02*
X118011904Y-106469580D01*
X118011904Y-106469580D02*
X117964285Y-106517200D01*
X117964285Y-106517200D02*
X117869047Y-106564819D01*
X117869047Y-106564819D02*
X117488095Y-106564819D01*
X117488095Y-106564819D02*
X117488095Y-105564819D01*
X117488095Y-105564819D02*
X117821428Y-105564819D01*
X117821428Y-105564819D02*
X117916666Y-105612438D01*
X117916666Y-105612438D02*
X117964285Y-105660057D01*
X117964285Y-105660057D02*
X118011904Y-105755295D01*
X118011904Y-105755295D02*
X118011904Y-105850533D01*
X118011904Y-105850533D02*
X117964285Y-105945771D01*
X117964285Y-105945771D02*
X117916666Y-105993390D01*
X117916666Y-105993390D02*
X117821428Y-106041009D01*
X117821428Y-106041009D02*
X117488095Y-106041009D01*
X127441905Y-73544819D02*
X127441905Y-72544819D01*
X127441905Y-72544819D02*
X127680000Y-72544819D01*
X127680000Y-72544819D02*
X127822857Y-72592438D01*
X127822857Y-72592438D02*
X127918095Y-72687676D01*
X127918095Y-72687676D02*
X127965714Y-72782914D01*
X127965714Y-72782914D02*
X128013333Y-72973390D01*
X128013333Y-72973390D02*
X128013333Y-73116247D01*
X128013333Y-73116247D02*
X127965714Y-73306723D01*
X127965714Y-73306723D02*
X127918095Y-73401961D01*
X127918095Y-73401961D02*
X127822857Y-73497200D01*
X127822857Y-73497200D02*
X127680000Y-73544819D01*
X127680000Y-73544819D02*
X127441905Y-73544819D01*
X128346667Y-72544819D02*
X128965714Y-72544819D01*
X128965714Y-72544819D02*
X128632381Y-72925771D01*
X128632381Y-72925771D02*
X128775238Y-72925771D01*
X128775238Y-72925771D02*
X128870476Y-72973390D01*
X128870476Y-72973390D02*
X128918095Y-73021009D01*
X128918095Y-73021009D02*
X128965714Y-73116247D01*
X128965714Y-73116247D02*
X128965714Y-73354342D01*
X128965714Y-73354342D02*
X128918095Y-73449580D01*
X128918095Y-73449580D02*
X128870476Y-73497200D01*
X128870476Y-73497200D02*
X128775238Y-73544819D01*
X128775238Y-73544819D02*
X128489524Y-73544819D01*
X128489524Y-73544819D02*
X128394286Y-73497200D01*
X128394286Y-73497200D02*
X128346667Y-73449580D01*
X127418095Y-100484819D02*
X128037142Y-100484819D01*
X128037142Y-100484819D02*
X127703809Y-100865771D01*
X127703809Y-100865771D02*
X127846666Y-100865771D01*
X127846666Y-100865771D02*
X127941904Y-100913390D01*
X127941904Y-100913390D02*
X127989523Y-100961009D01*
X127989523Y-100961009D02*
X128037142Y-101056247D01*
X128037142Y-101056247D02*
X128037142Y-101294342D01*
X128037142Y-101294342D02*
X127989523Y-101389580D01*
X127989523Y-101389580D02*
X127941904Y-101437200D01*
X127941904Y-101437200D02*
X127846666Y-101484819D01*
X127846666Y-101484819D02*
X127560952Y-101484819D01*
X127560952Y-101484819D02*
X127465714Y-101437200D01*
X127465714Y-101437200D02*
X127418095Y-101389580D01*
X128322857Y-100484819D02*
X128656190Y-101484819D01*
X128656190Y-101484819D02*
X128989523Y-100484819D01*
X135666666Y-60704819D02*
X135666666Y-61419104D01*
X135666666Y-61419104D02*
X135619047Y-61561961D01*
X135619047Y-61561961D02*
X135523809Y-61657200D01*
X135523809Y-61657200D02*
X135380952Y-61704819D01*
X135380952Y-61704819D02*
X135285714Y-61704819D01*
X136047619Y-60704819D02*
X136714285Y-60704819D01*
X136714285Y-60704819D02*
X136285714Y-61704819D01*
X139562580Y-101271566D02*
X138848295Y-101271566D01*
X138848295Y-101271566D02*
X138705438Y-101223947D01*
X138705438Y-101223947D02*
X138610200Y-101128709D01*
X138610200Y-101128709D02*
X138562580Y-100985852D01*
X138562580Y-100985852D02*
X138562580Y-100890614D01*
X138562580Y-102271566D02*
X138562580Y-101700138D01*
X138562580Y-101985852D02*
X139562580Y-101985852D01*
X139562580Y-101985852D02*
X139419723Y-101890614D01*
X139419723Y-101890614D02*
X139324485Y-101795376D01*
X139324485Y-101795376D02*
X139276866Y-101700138D01*
D11*
X115413047Y-96335434D02*
X115555904Y-96406862D01*
X115555904Y-96406862D02*
X115841618Y-96406862D01*
X115841618Y-96406862D02*
X115984475Y-96335434D01*
X115984475Y-96335434D02*
X116055904Y-96192576D01*
X116055904Y-96192576D02*
X116055904Y-96121148D01*
X116055904Y-96121148D02*
X115984475Y-95978291D01*
X115984475Y-95978291D02*
X115841618Y-95906862D01*
X115841618Y-95906862D02*
X115627333Y-95906862D01*
X115627333Y-95906862D02*
X115484475Y-95835434D01*
X115484475Y-95835434D02*
X115413047Y-95692576D01*
X115413047Y-95692576D02*
X115413047Y-95621148D01*
X115413047Y-95621148D02*
X115484475Y-95478291D01*
X115484475Y-95478291D02*
X115627333Y-95406862D01*
X115627333Y-95406862D02*
X115841618Y-95406862D01*
X115841618Y-95406862D02*
X115984475Y-95478291D01*
X116555904Y-95406862D02*
X116841619Y-96406862D01*
X116841619Y-96406862D02*
X117127333Y-95692576D01*
X117127333Y-95692576D02*
X117413047Y-96406862D01*
X117413047Y-96406862D02*
X117698761Y-95406862D01*
X118913048Y-96406862D02*
X118913048Y-95621148D01*
X118913048Y-95621148D02*
X118841619Y-95478291D01*
X118841619Y-95478291D02*
X118698762Y-95406862D01*
X118698762Y-95406862D02*
X118413048Y-95406862D01*
X118413048Y-95406862D02*
X118270190Y-95478291D01*
X118913048Y-96335434D02*
X118770190Y-96406862D01*
X118770190Y-96406862D02*
X118413048Y-96406862D01*
X118413048Y-96406862D02*
X118270190Y-96335434D01*
X118270190Y-96335434D02*
X118198762Y-96192576D01*
X118198762Y-96192576D02*
X118198762Y-96049719D01*
X118198762Y-96049719D02*
X118270190Y-95906862D01*
X118270190Y-95906862D02*
X118413048Y-95835434D01*
X118413048Y-95835434D02*
X118770190Y-95835434D01*
X118770190Y-95835434D02*
X118913048Y-95764005D01*
X119627333Y-96406862D02*
X119627333Y-94906862D01*
X119627333Y-95478291D02*
X119770191Y-95406862D01*
X119770191Y-95406862D02*
X120055905Y-95406862D01*
X120055905Y-95406862D02*
X120198762Y-95478291D01*
X120198762Y-95478291D02*
X120270191Y-95549719D01*
X120270191Y-95549719D02*
X120341619Y-95692576D01*
X120341619Y-95692576D02*
X120341619Y-96121148D01*
X120341619Y-96121148D02*
X120270191Y-96264005D01*
X120270191Y-96264005D02*
X120198762Y-96335434D01*
X120198762Y-96335434D02*
X120055905Y-96406862D01*
X120055905Y-96406862D02*
X119770191Y-96406862D01*
X119770191Y-96406862D02*
X119627333Y-96335434D01*
D10*
X101908267Y-100845257D02*
X101955886Y-100797638D01*
X101955886Y-100797638D02*
X102051124Y-100750019D01*
X102051124Y-100750019D02*
X102289219Y-100750019D01*
X102289219Y-100750019D02*
X102384457Y-100797638D01*
X102384457Y-100797638D02*
X102432076Y-100845257D01*
X102432076Y-100845257D02*
X102479695Y-100940495D01*
X102479695Y-100940495D02*
X102479695Y-101035733D01*
X102479695Y-101035733D02*
X102432076Y-101178590D01*
X102432076Y-101178590D02*
X101860648Y-101750019D01*
X101860648Y-101750019D02*
X102479695Y-101750019D01*
X102908267Y-101654780D02*
X102955886Y-101702400D01*
X102955886Y-101702400D02*
X102908267Y-101750019D01*
X102908267Y-101750019D02*
X102860648Y-101702400D01*
X102860648Y-101702400D02*
X102908267Y-101654780D01*
X102908267Y-101654780D02*
X102908267Y-101750019D01*
X103860647Y-100750019D02*
X103384457Y-100750019D01*
X103384457Y-100750019D02*
X103336838Y-101226209D01*
X103336838Y-101226209D02*
X103384457Y-101178590D01*
X103384457Y-101178590D02*
X103479695Y-101130971D01*
X103479695Y-101130971D02*
X103717790Y-101130971D01*
X103717790Y-101130971D02*
X103813028Y-101178590D01*
X103813028Y-101178590D02*
X103860647Y-101226209D01*
X103860647Y-101226209D02*
X103908266Y-101321447D01*
X103908266Y-101321447D02*
X103908266Y-101559542D01*
X103908266Y-101559542D02*
X103860647Y-101654780D01*
X103860647Y-101654780D02*
X103813028Y-101702400D01*
X103813028Y-101702400D02*
X103717790Y-101750019D01*
X103717790Y-101750019D02*
X103479695Y-101750019D01*
X103479695Y-101750019D02*
X103384457Y-101702400D01*
X103384457Y-101702400D02*
X103336838Y-101654780D01*
X104336838Y-101750019D02*
X104336838Y-101083352D01*
X104336838Y-101178590D02*
X104384457Y-101130971D01*
X104384457Y-101130971D02*
X104479695Y-101083352D01*
X104479695Y-101083352D02*
X104622552Y-101083352D01*
X104622552Y-101083352D02*
X104717790Y-101130971D01*
X104717790Y-101130971D02*
X104765409Y-101226209D01*
X104765409Y-101226209D02*
X104765409Y-101750019D01*
X104765409Y-101226209D02*
X104813028Y-101130971D01*
X104813028Y-101130971D02*
X104908266Y-101083352D01*
X104908266Y-101083352D02*
X105051123Y-101083352D01*
X105051123Y-101083352D02*
X105146362Y-101130971D01*
X105146362Y-101130971D02*
X105193981Y-101226209D01*
X105193981Y-101226209D02*
X105193981Y-101750019D01*
X105670171Y-101750019D02*
X105670171Y-101083352D01*
X105670171Y-101178590D02*
X105717790Y-101130971D01*
X105717790Y-101130971D02*
X105813028Y-101083352D01*
X105813028Y-101083352D02*
X105955885Y-101083352D01*
X105955885Y-101083352D02*
X106051123Y-101130971D01*
X106051123Y-101130971D02*
X106098742Y-101226209D01*
X106098742Y-101226209D02*
X106098742Y-101750019D01*
X106098742Y-101226209D02*
X106146361Y-101130971D01*
X106146361Y-101130971D02*
X106241599Y-101083352D01*
X106241599Y-101083352D02*
X106384456Y-101083352D01*
X106384456Y-101083352D02*
X106479695Y-101130971D01*
X106479695Y-101130971D02*
X106527314Y-101226209D01*
X106527314Y-101226209D02*
X106527314Y-101750019D01*
D12*
%TO.C,J6*%
X97410400Y-90287200D02*
X97410400Y-96507200D01*
X97410400Y-96507200D02*
X101130400Y-96507200D01*
X97610400Y-90487200D02*
X97610400Y-96307200D01*
X97610400Y-96307200D02*
X99370400Y-96307200D01*
X99370400Y-90487200D02*
X97610400Y-90487200D01*
X99370400Y-90487200D02*
X99370400Y-90287200D01*
X99370400Y-96307200D02*
X99370400Y-96507200D01*
X100070400Y-90287200D02*
X100070400Y-90487200D01*
X100070400Y-90487200D02*
X99370400Y-90487200D01*
X100070400Y-90487200D02*
X100930400Y-90487200D01*
X100070400Y-96307200D02*
X99370400Y-96307200D01*
X100070400Y-96307200D02*
X100070400Y-96507200D01*
X100930400Y-90487200D02*
X100930400Y-96307200D01*
X100930400Y-96307200D02*
X100070400Y-96307200D01*
X101130400Y-90287200D02*
X97410400Y-90287200D01*
X101130400Y-96507200D02*
X101130400Y-90287200D01*
X101430400Y-89987200D02*
X100180400Y-89987200D01*
X101430400Y-91237200D02*
X101430400Y-89987200D01*
%TO.C,J5*%
X132590000Y-66540000D02*
X132590000Y-67790000D01*
X132890000Y-66840000D02*
X132890000Y-70560000D01*
X132890000Y-67900000D02*
X133090000Y-67900000D01*
X132890000Y-70560000D02*
X139110000Y-70560000D01*
X133090000Y-67040000D02*
X138910000Y-67040000D01*
X133090000Y-67900000D02*
X133090000Y-67040000D01*
X133090000Y-67900000D02*
X133090000Y-68600000D01*
X133090000Y-68600000D02*
X132890000Y-68600000D01*
X133090000Y-68600000D02*
X133090000Y-70360000D01*
X133090000Y-70360000D02*
X138910000Y-70360000D01*
X133840000Y-66540000D02*
X132590000Y-66540000D01*
X138910000Y-67040000D02*
X138910000Y-67900000D01*
X138910000Y-67900000D02*
X138910000Y-68600000D01*
X138910000Y-67900000D02*
X139110000Y-67900000D01*
X138910000Y-68600000D02*
X139110000Y-68600000D01*
X138910000Y-70360000D02*
X138910000Y-68600000D01*
X139110000Y-66840000D02*
X132890000Y-66840000D01*
X139110000Y-70560000D02*
X139110000Y-66840000D01*
%TO.C,J10*%
X97181800Y-68341600D02*
X97181800Y-85061600D01*
X97181800Y-85061600D02*
X100901800Y-85061600D01*
X97381800Y-68541600D02*
X97381800Y-84861600D01*
X97381800Y-84861600D02*
X99141800Y-84861600D01*
X99141800Y-68541600D02*
X97381800Y-68541600D01*
X99141800Y-68541600D02*
X99141800Y-68341600D01*
X99141800Y-84861600D02*
X99141800Y-85061600D01*
X99841800Y-68341600D02*
X99841800Y-68541600D01*
X99841800Y-68541600D02*
X99141800Y-68541600D01*
X99841800Y-68541600D02*
X100701800Y-68541600D01*
X99841800Y-84861600D02*
X99141800Y-84861600D01*
X99841800Y-84861600D02*
X99841800Y-85061600D01*
X100701800Y-68541600D02*
X100701800Y-84861600D01*
X100701800Y-84861600D02*
X99841800Y-84861600D01*
X100901800Y-68341600D02*
X97181800Y-68341600D01*
X100901800Y-85061600D02*
X100901800Y-68341600D01*
X101201800Y-68041600D02*
X99951800Y-68041600D01*
X101201800Y-69291600D02*
X101201800Y-68041600D01*
%TO.C,J3*%
X132590000Y-75540000D02*
X132590000Y-76790000D01*
X132890000Y-75840000D02*
X132890000Y-79560000D01*
X132890000Y-76900000D02*
X133090000Y-76900000D01*
X132890000Y-79560000D02*
X139110000Y-79560000D01*
X133090000Y-76040000D02*
X138910000Y-76040000D01*
X133090000Y-76900000D02*
X133090000Y-76040000D01*
X133090000Y-76900000D02*
X133090000Y-77600000D01*
X133090000Y-77600000D02*
X132890000Y-77600000D01*
X133090000Y-77600000D02*
X133090000Y-79360000D01*
X133090000Y-79360000D02*
X138910000Y-79360000D01*
X133840000Y-75540000D02*
X132590000Y-75540000D01*
X138910000Y-76040000D02*
X138910000Y-76900000D01*
X138910000Y-76900000D02*
X138910000Y-77600000D01*
X138910000Y-76900000D02*
X139110000Y-76900000D01*
X138910000Y-77600000D02*
X139110000Y-77600000D01*
X138910000Y-79360000D02*
X138910000Y-77600000D01*
X139110000Y-75840000D02*
X132890000Y-75840000D01*
X139110000Y-79560000D02*
X139110000Y-75840000D01*
%TO.C,J4*%
X132590000Y-71040000D02*
X132590000Y-72290000D01*
X132890000Y-71340000D02*
X132890000Y-75060000D01*
X132890000Y-72400000D02*
X133090000Y-72400000D01*
X132890000Y-75060000D02*
X139110000Y-75060000D01*
X133090000Y-71540000D02*
X138910000Y-71540000D01*
X133090000Y-72400000D02*
X133090000Y-71540000D01*
X133090000Y-72400000D02*
X133090000Y-73100000D01*
X133090000Y-73100000D02*
X132890000Y-73100000D01*
X133090000Y-73100000D02*
X133090000Y-74860000D01*
X133090000Y-74860000D02*
X138910000Y-74860000D01*
X133840000Y-71040000D02*
X132590000Y-71040000D01*
X138910000Y-71540000D02*
X138910000Y-72400000D01*
X138910000Y-72400000D02*
X138910000Y-73100000D01*
X138910000Y-72400000D02*
X139110000Y-72400000D01*
X138910000Y-73100000D02*
X139110000Y-73100000D01*
X138910000Y-74860000D02*
X138910000Y-73100000D01*
X139110000Y-71340000D02*
X132890000Y-71340000D01*
X139110000Y-75060000D02*
X139110000Y-71340000D01*
%TO.C,J8*%
X132590000Y-80040000D02*
X132590000Y-81290000D01*
X132890000Y-80340000D02*
X132890000Y-84060000D01*
X132890000Y-81400000D02*
X133090000Y-81400000D01*
X132890000Y-84060000D02*
X139110000Y-84060000D01*
X133090000Y-80540000D02*
X138910000Y-80540000D01*
X133090000Y-81400000D02*
X133090000Y-80540000D01*
X133090000Y-81400000D02*
X133090000Y-82100000D01*
X133090000Y-82100000D02*
X132890000Y-82100000D01*
X133090000Y-82100000D02*
X133090000Y-83860000D01*
X133090000Y-83860000D02*
X138910000Y-83860000D01*
X133840000Y-80040000D02*
X132590000Y-80040000D01*
X138910000Y-80540000D02*
X138910000Y-81400000D01*
X138910000Y-81400000D02*
X138910000Y-82100000D01*
X138910000Y-81400000D02*
X139110000Y-81400000D01*
X138910000Y-82100000D02*
X139110000Y-82100000D01*
X138910000Y-83860000D02*
X138910000Y-82100000D01*
X139110000Y-80340000D02*
X132890000Y-80340000D01*
X139110000Y-84060000D02*
X139110000Y-80340000D01*
D13*
%TO.C,J2*%
X132645800Y-86024900D02*
X132645800Y-96184900D01*
X132645800Y-96184900D02*
X140494400Y-96184900D01*
X140494400Y-86024900D02*
X132645800Y-86024900D01*
X140494400Y-96184900D02*
X140494400Y-86024900D01*
D14*
X139398400Y-88104901D02*
G75*
G02*
X138636400Y-88104901I-381000J0D01*
G01*
X138636400Y-88104901D02*
G75*
G02*
X139398400Y-88104901I381000J0D01*
G01*
D10*
%TO.C,U1*%
X101510000Y-60390000D02*
X101510000Y-106110000D01*
X111250000Y-66250000D02*
X111250000Y-59120000D01*
X112950000Y-102650000D02*
X120550000Y-102650000D01*
X112950000Y-107380000D02*
X102780000Y-107380000D01*
X112950000Y-108380000D02*
X112950000Y-102650000D01*
X120550000Y-102650000D02*
X120550000Y-108380000D01*
X120550000Y-108380000D02*
X112950000Y-108380000D01*
X122250000Y-59120000D02*
X122250000Y-66250000D01*
X122250000Y-66250000D02*
X111250000Y-66250000D01*
X130720000Y-59120000D02*
X102780000Y-59120000D01*
X130730000Y-107380000D02*
X120560000Y-107380000D01*
X131990000Y-60390000D02*
X131990000Y-106110000D01*
X101510000Y-60390000D02*
G75*
G02*
X102780000Y-59120000I1269999J1D01*
G01*
X102780000Y-107380000D02*
G75*
G02*
X101510000Y-106110000I-1J1269999D01*
G01*
X130720000Y-59120000D02*
G75*
G02*
X131990000Y-60390000I0J-1270000D01*
G01*
X131990000Y-106110000D02*
G75*
G02*
X130720000Y-107380000I-1270000J0D01*
G01*
X105846051Y-61660000D02*
G75*
G02*
X102253949Y-61660000I-1796051J0D01*
G01*
X102253949Y-61660000D02*
G75*
G02*
X105846051Y-61660000I1796051J0D01*
G01*
X105846051Y-104840000D02*
G75*
G02*
X102253949Y-104840000I-1796051J0D01*
G01*
X102253949Y-104840000D02*
G75*
G02*
X105846051Y-104840000I1796051J0D01*
G01*
X131246051Y-61660000D02*
G75*
G02*
X127653949Y-61660000I-1796051J0D01*
G01*
X127653949Y-61660000D02*
G75*
G02*
X131246051Y-61660000I1796051J0D01*
G01*
X131246051Y-104840000D02*
G75*
G02*
X127653949Y-104840000I-1796051J0D01*
G01*
X127653949Y-104840000D02*
G75*
G02*
X131246051Y-104840000I1796051J0D01*
G01*
D12*
%TO.C,J7*%
X132590000Y-62040000D02*
X132590000Y-63290000D01*
X132890000Y-62340000D02*
X132890000Y-66060000D01*
X132890000Y-63400000D02*
X133090000Y-63400000D01*
X132890000Y-66060000D02*
X139110000Y-66060000D01*
X133090000Y-62540000D02*
X138910000Y-62540000D01*
X133090000Y-63400000D02*
X133090000Y-62540000D01*
X133090000Y-63400000D02*
X133090000Y-64100000D01*
X133090000Y-64100000D02*
X132890000Y-64100000D01*
X133090000Y-64100000D02*
X133090000Y-65860000D01*
X133090000Y-65860000D02*
X138910000Y-65860000D01*
X133840000Y-62040000D02*
X132590000Y-62040000D01*
X138910000Y-62540000D02*
X138910000Y-63400000D01*
X138910000Y-63400000D02*
X138910000Y-64100000D01*
X138910000Y-63400000D02*
X139110000Y-63400000D01*
X138910000Y-64100000D02*
X139110000Y-64100000D01*
X138910000Y-65860000D02*
X138910000Y-64100000D01*
X139110000Y-62340000D02*
X132890000Y-62340000D01*
X139110000Y-66060000D02*
X139110000Y-62340000D01*
D13*
%TO.C,J1*%
X132645800Y-96524900D02*
X132645800Y-106684900D01*
X132645800Y-106684900D02*
X140494400Y-106684900D01*
X140494400Y-96524900D02*
X132645800Y-96524900D01*
X140494400Y-106684900D02*
X140494400Y-96524900D01*
D14*
X139398400Y-98604901D02*
G75*
G02*
X138636400Y-98604901I-381000J0D01*
G01*
X138636400Y-98604901D02*
G75*
G02*
X139398400Y-98604901I381000J0D01*
G01*
D15*
%TO.C,swab*%
G36*
X113385305Y-81848937D02*
G01*
X113355839Y-81878403D01*
X113326372Y-81848937D01*
X113355839Y-81819471D01*
X113385305Y-81848937D01*
G37*
G36*
X113444238Y-80139888D02*
G01*
X113414771Y-80169355D01*
X113385305Y-80139888D01*
X113414771Y-80110422D01*
X113444238Y-80139888D01*
G37*
G36*
X113444238Y-81613206D02*
G01*
X113414771Y-81642672D01*
X113385305Y-81613206D01*
X113414771Y-81583740D01*
X113444238Y-81613206D01*
G37*
G36*
X113444238Y-82615062D02*
G01*
X113414771Y-82644529D01*
X113385305Y-82615062D01*
X113414771Y-82585596D01*
X113444238Y-82615062D01*
G37*
G36*
X113444238Y-82732928D02*
G01*
X113414771Y-82762394D01*
X113385305Y-82732928D01*
X113414771Y-82703461D01*
X113444238Y-82732928D01*
G37*
G36*
X113503170Y-76957522D02*
G01*
X113473704Y-76986988D01*
X113444238Y-76957522D01*
X113473704Y-76928055D01*
X113503170Y-76957522D01*
G37*
G36*
X113503170Y-80847081D02*
G01*
X113473704Y-80876547D01*
X113444238Y-80847081D01*
X113473704Y-80817614D01*
X113503170Y-80847081D01*
G37*
G36*
X113562103Y-79020167D02*
G01*
X113532637Y-79049633D01*
X113503170Y-79020167D01*
X113532637Y-78990700D01*
X113562103Y-79020167D01*
G37*
G36*
X113562103Y-83086524D02*
G01*
X113532637Y-83115990D01*
X113503170Y-83086524D01*
X113532637Y-83057058D01*
X113562103Y-83086524D01*
G37*
G36*
X113621036Y-79550561D02*
G01*
X113591569Y-79580027D01*
X113562103Y-79550561D01*
X113591569Y-79521095D01*
X113621036Y-79550561D01*
G37*
G36*
X113621036Y-81495341D02*
G01*
X113591569Y-81524807D01*
X113562103Y-81495341D01*
X113591569Y-81465874D01*
X113621036Y-81495341D01*
G37*
G36*
X113621036Y-82673995D02*
G01*
X113591569Y-82703461D01*
X113562103Y-82673995D01*
X113591569Y-82644529D01*
X113621036Y-82673995D01*
G37*
G36*
X113679969Y-82791860D02*
G01*
X113650502Y-82821327D01*
X113621036Y-82791860D01*
X113650502Y-82762394D01*
X113679969Y-82791860D01*
G37*
G36*
X113679969Y-83145457D02*
G01*
X113650502Y-83174923D01*
X113621036Y-83145457D01*
X113650502Y-83115990D01*
X113679969Y-83145457D01*
G37*
G36*
X113738901Y-82084668D02*
G01*
X113709435Y-82114134D01*
X113679969Y-82084668D01*
X113709435Y-82055201D01*
X113738901Y-82084668D01*
G37*
G36*
X113856767Y-78843368D02*
G01*
X113827300Y-78872835D01*
X113797834Y-78843368D01*
X113827300Y-78813902D01*
X113856767Y-78843368D01*
G37*
G36*
X113915699Y-78607638D02*
G01*
X113886233Y-78637104D01*
X113856767Y-78607638D01*
X113886233Y-78578171D01*
X113915699Y-78607638D01*
G37*
G36*
X114033565Y-82261466D02*
G01*
X114004098Y-82290932D01*
X113974632Y-82261466D01*
X114004098Y-82232000D01*
X114033565Y-82261466D01*
G37*
G36*
X114681825Y-82968658D02*
G01*
X114652358Y-82998125D01*
X114622892Y-82968658D01*
X114652358Y-82939192D01*
X114681825Y-82968658D01*
G37*
G36*
X114917556Y-79727359D02*
G01*
X114888089Y-79756826D01*
X114858623Y-79727359D01*
X114888089Y-79697893D01*
X114917556Y-79727359D01*
G37*
G36*
X114917556Y-83263322D02*
G01*
X114888089Y-83292788D01*
X114858623Y-83263322D01*
X114888089Y-83233856D01*
X114917556Y-83263322D01*
G37*
G36*
X115742614Y-75130607D02*
G01*
X115713147Y-75160074D01*
X115683681Y-75130607D01*
X115713147Y-75101141D01*
X115742614Y-75130607D01*
G37*
G36*
X116449806Y-74953809D02*
G01*
X116420340Y-74983276D01*
X116390873Y-74953809D01*
X116420340Y-74924343D01*
X116449806Y-74953809D01*
G37*
G36*
X116862335Y-87447545D02*
G01*
X116832869Y-87477011D01*
X116803402Y-87447545D01*
X116832869Y-87418078D01*
X116862335Y-87447545D01*
G37*
G36*
X119396442Y-86622487D02*
G01*
X119366975Y-86651953D01*
X119337509Y-86622487D01*
X119366975Y-86593020D01*
X119396442Y-86622487D01*
G37*
G36*
X120280433Y-80316686D02*
G01*
X120250966Y-80346153D01*
X120221500Y-80316686D01*
X120250966Y-80287220D01*
X120280433Y-80316686D01*
G37*
G36*
X124111059Y-81790004D02*
G01*
X124081593Y-81819471D01*
X124052126Y-81790004D01*
X124081593Y-81760538D01*
X124111059Y-81790004D01*
G37*
G36*
X124582521Y-81907870D02*
G01*
X124553054Y-81937336D01*
X124523588Y-81907870D01*
X124553054Y-81878403D01*
X124582521Y-81907870D01*
G37*
G36*
X113483526Y-78774614D02*
G01*
X113490579Y-78844553D01*
X113483526Y-78853191D01*
X113448491Y-78845101D01*
X113444238Y-78813902D01*
X113465800Y-78765394D01*
X113483526Y-78774614D01*
G37*
G36*
X113484495Y-82869210D02*
G01*
X113491521Y-82961314D01*
X113479843Y-82982164D01*
X113453057Y-82964588D01*
X113448890Y-82904815D01*
X113463283Y-82841932D01*
X113484495Y-82869210D01*
G37*
G36*
X113542459Y-78538883D02*
G01*
X113549512Y-78608822D01*
X113542459Y-78617460D01*
X113507423Y-78609370D01*
X113503170Y-78578171D01*
X113524733Y-78529663D01*
X113542459Y-78538883D01*
G37*
G36*
X113601392Y-81839115D02*
G01*
X113593302Y-81874150D01*
X113562103Y-81878403D01*
X113513595Y-81856841D01*
X113522815Y-81839115D01*
X113592754Y-81832062D01*
X113601392Y-81839115D01*
G37*
G36*
X113719257Y-78833546D02*
G01*
X113711167Y-78868582D01*
X113679969Y-78872835D01*
X113631460Y-78851272D01*
X113640680Y-78833546D01*
X113710619Y-78826493D01*
X113719257Y-78833546D01*
G37*
G36*
X113838092Y-77624198D02*
G01*
X113845117Y-77716303D01*
X113833439Y-77737152D01*
X113806654Y-77719576D01*
X113802487Y-77659803D01*
X113816879Y-77596920D01*
X113838092Y-77624198D01*
G37*
G36*
X113896055Y-77419161D02*
G01*
X113903108Y-77489101D01*
X113896055Y-77497738D01*
X113861020Y-77489648D01*
X113856767Y-77458450D01*
X113878329Y-77409941D01*
X113896055Y-77419161D01*
G37*
G36*
X115487238Y-80660460D02*
G01*
X115479149Y-80695496D01*
X115447950Y-80699749D01*
X115399442Y-80678186D01*
X115408661Y-80660460D01*
X115478601Y-80653407D01*
X115487238Y-80660460D01*
G37*
G36*
X118846403Y-81014057D02*
G01*
X118838313Y-81049092D01*
X118807115Y-81053345D01*
X118758606Y-81031783D01*
X118767826Y-81014057D01*
X118837766Y-81007004D01*
X118846403Y-81014057D01*
G37*
G36*
X113445199Y-81378069D02*
G01*
X113479196Y-81448697D01*
X113471187Y-81469946D01*
X113414296Y-81522202D01*
X113386458Y-81462684D01*
X113385305Y-81432930D01*
X113414300Y-81372232D01*
X113445199Y-81378069D01*
G37*
G36*
X109668448Y-84803206D02*
G01*
X109633347Y-84910542D01*
X109613611Y-84942904D01*
X109570623Y-84989187D01*
X109556236Y-84930654D01*
X109555581Y-84898705D01*
X109577060Y-84795235D01*
X109613611Y-84766106D01*
X109668448Y-84803206D01*
G37*
G36*
X113384403Y-82423531D02*
G01*
X113340504Y-82507252D01*
X113252706Y-82522011D01*
X113174682Y-82509611D01*
X113208507Y-82483708D01*
X113314507Y-82414905D01*
X113340203Y-82385228D01*
X113376096Y-82370685D01*
X113384403Y-82423531D01*
G37*
G36*
X113503170Y-83793716D02*
G01*
X113559855Y-83869059D01*
X113562103Y-83885594D01*
X113517153Y-83939461D01*
X113503170Y-83941048D01*
X113451450Y-83893079D01*
X113444238Y-83849171D01*
X113472808Y-83788172D01*
X113503170Y-83793716D01*
G37*
G36*
X113559705Y-80035336D02*
G01*
X113562103Y-80051489D01*
X113541996Y-80108890D01*
X113536115Y-80110422D01*
X113485800Y-80069126D01*
X113473704Y-80051489D01*
X113478377Y-79997184D01*
X113499692Y-79992556D01*
X113559705Y-80035336D01*
G37*
G36*
X113619349Y-80211652D02*
G01*
X113621036Y-80224809D01*
X113578198Y-80304624D01*
X113562103Y-80316686D01*
X113511651Y-80303326D01*
X113503170Y-80261232D01*
X113533939Y-80180599D01*
X113562103Y-80169355D01*
X113619349Y-80211652D01*
G37*
G36*
X113621036Y-83275713D02*
G01*
X113716244Y-83309924D01*
X113738901Y-83329128D01*
X113689308Y-83347517D01*
X113621036Y-83351721D01*
X113525237Y-83329330D01*
X113503170Y-83298306D01*
X113550103Y-83267991D01*
X113621036Y-83275713D01*
G37*
G36*
X113756324Y-78680110D02*
G01*
X113768368Y-78696037D01*
X113765674Y-78750429D01*
X113745857Y-78754969D01*
X113662545Y-78711963D01*
X113650502Y-78696037D01*
X113653196Y-78641644D01*
X113673012Y-78637104D01*
X113756324Y-78680110D01*
G37*
G36*
X121978237Y-74424717D02*
G01*
X121989481Y-74452881D01*
X121947184Y-74510127D01*
X121934027Y-74511814D01*
X121854212Y-74468976D01*
X121842149Y-74452881D01*
X121855510Y-74402429D01*
X121897604Y-74393949D01*
X121978237Y-74424717D01*
G37*
G36*
X122813864Y-82041864D02*
G01*
X122814539Y-82055201D01*
X122769235Y-82111869D01*
X122752129Y-82114134D01*
X122716932Y-82078030D01*
X122726140Y-82055201D01*
X122779098Y-81998981D01*
X122788551Y-81996269D01*
X122813864Y-82041864D01*
G37*
G36*
X123030012Y-80382257D02*
G01*
X123020804Y-80405085D01*
X122967846Y-80461306D01*
X122958393Y-80464018D01*
X122933080Y-80418422D01*
X122932405Y-80405085D01*
X122977709Y-80348417D01*
X122994815Y-80346153D01*
X123030012Y-80382257D01*
G37*
G36*
X113175597Y-79689572D02*
G01*
X113194993Y-79786292D01*
X113197160Y-79906264D01*
X113168312Y-79926127D01*
X113129930Y-79894335D01*
X113096208Y-79812367D01*
X113095044Y-79708079D01*
X113124824Y-79642274D01*
X113136720Y-79638960D01*
X113175597Y-79689572D01*
G37*
G36*
X115392799Y-74852538D02*
G01*
X115474720Y-74923176D01*
X115529853Y-75009090D01*
X115526655Y-75061724D01*
X115453859Y-75097364D01*
X115379192Y-75036106D01*
X115345467Y-74986008D01*
X115308191Y-74885536D01*
X115323415Y-74840066D01*
X115392799Y-74852538D01*
G37*
G36*
X118394553Y-74712541D02*
G01*
X118404263Y-74775699D01*
X118309069Y-74865139D01*
X118273515Y-74887395D01*
X118159156Y-74940632D01*
X118101564Y-74939412D01*
X118099922Y-74932495D01*
X118138107Y-74780993D01*
X118234942Y-74695987D01*
X118279547Y-74688612D01*
X118394553Y-74712541D01*
G37*
G36*
X115488228Y-75189307D02*
G01*
X115476822Y-75219968D01*
X115408754Y-75255596D01*
X115389017Y-75248473D01*
X115317057Y-75258303D01*
X115301212Y-75276978D01*
X115217264Y-75334553D01*
X115197477Y-75336872D01*
X115185640Y-75308587D01*
X115245155Y-75250347D01*
X115358776Y-75185048D01*
X115450987Y-75163234D01*
X115488228Y-75189307D01*
G37*
G36*
X121223225Y-74397710D02*
G01*
X121261673Y-74421759D01*
X121217745Y-74485239D01*
X121193890Y-74511814D01*
X121103078Y-74599157D01*
X121051600Y-74629679D01*
X120996512Y-74585793D01*
X120942369Y-74511814D01*
X120904290Y-74434551D01*
X120936665Y-74401430D01*
X121061777Y-74393992D01*
X121084659Y-74393949D01*
X121223225Y-74397710D01*
G37*
G36*
X113777521Y-82221514D02*
G01*
X113778190Y-82253668D01*
X113754419Y-82337056D01*
X113730929Y-82349865D01*
X113706960Y-82393454D01*
X113717590Y-82438264D01*
X113732195Y-82514785D01*
X113722045Y-82526663D01*
X113678010Y-82480675D01*
X113660855Y-82443992D01*
X113666597Y-82333191D01*
X113703660Y-82259397D01*
X113760819Y-82191918D01*
X113777521Y-82221514D01*
G37*
G36*
X117184411Y-74405077D02*
G01*
X117322729Y-74434288D01*
X117374540Y-74475314D01*
X117326724Y-74521892D01*
X117278734Y-74540052D01*
X117166430Y-74619866D01*
X117128595Y-74685264D01*
X117069858Y-74766613D01*
X116977799Y-74822600D01*
X116894652Y-74835767D01*
X116862335Y-74795325D01*
X116830710Y-74711331D01*
X116753288Y-74583459D01*
X116740457Y-74565111D01*
X116618578Y-74393949D01*
X116972710Y-74393949D01*
X117184411Y-74405077D01*
G37*
G36*
X119237564Y-88424888D02*
G01*
X119231933Y-88736615D01*
X119224065Y-89004348D01*
X119214819Y-89207024D01*
X119205052Y-89323574D01*
X119200179Y-89343035D01*
X119166050Y-89312507D01*
X119116900Y-89203659D01*
X119110762Y-89186498D01*
X119047938Y-89059361D01*
X118957520Y-89018624D01*
X118885745Y-89021424D01*
X118745869Y-88991700D01*
X118662610Y-88879664D01*
X118634051Y-88705305D01*
X118658275Y-88488615D01*
X118733363Y-88249584D01*
X118857398Y-88008202D01*
X119001562Y-87814193D01*
X119249110Y-87532582D01*
X119237564Y-88424888D01*
G37*
G36*
X113434162Y-79567808D02*
G01*
X113485103Y-79637350D01*
X113567777Y-79716995D01*
X113625068Y-79724867D01*
X113679780Y-79702096D01*
X113656205Y-79744787D01*
X113563732Y-79839627D01*
X113508605Y-79890028D01*
X113392014Y-79978859D01*
X113313075Y-80011718D01*
X113302340Y-80007813D01*
X113273081Y-79925931D01*
X113267440Y-79857653D01*
X113282576Y-79779934D01*
X113343081Y-79805274D01*
X113350592Y-79811404D01*
X113432006Y-79849999D01*
X113477563Y-79809514D01*
X113487395Y-79765676D01*
X113460710Y-79776112D01*
X113414947Y-79757124D01*
X113400038Y-79664756D01*
X113404572Y-79561215D01*
X113434162Y-79567808D01*
G37*
G36*
X109849342Y-82320394D02*
G01*
X110056923Y-82356994D01*
X110275420Y-82383584D01*
X110283583Y-82384276D01*
X110436895Y-82403243D01*
X110531660Y-82426698D01*
X110540769Y-82432321D01*
X110535026Y-82499262D01*
X110475257Y-82615197D01*
X110387292Y-82742423D01*
X110296957Y-82843241D01*
X110233903Y-82880259D01*
X110147260Y-82927706D01*
X110122694Y-82968658D01*
X110058137Y-83049228D01*
X109963366Y-83020474D01*
X109887942Y-82949285D01*
X109820143Y-82816513D01*
X109790463Y-82643818D01*
X109790409Y-82636942D01*
X109770186Y-82474950D01*
X109721070Y-82358821D01*
X109716743Y-82353858D01*
X109686506Y-82306175D01*
X109738061Y-82299419D01*
X109849342Y-82320394D01*
G37*
G36*
X111114242Y-76050900D02*
G01*
X111218378Y-76136347D01*
X111331195Y-76248085D01*
X111427329Y-76305627D01*
X111524970Y-76377062D01*
X111623772Y-76505814D01*
X111629316Y-76515375D01*
X111742819Y-76651785D01*
X111890301Y-76694712D01*
X111894513Y-76694795D01*
X112059319Y-76697265D01*
X111853054Y-76810190D01*
X111642823Y-76903946D01*
X111499240Y-76912200D01*
X111406781Y-76833945D01*
X111381191Y-76779667D01*
X111289565Y-76646933D01*
X111191118Y-76579333D01*
X111052212Y-76497256D01*
X110913518Y-76372779D01*
X110803016Y-76237330D01*
X110748687Y-76122334D01*
X110750468Y-76084416D01*
X110831898Y-76012669D01*
X110967455Y-76003084D01*
X111114242Y-76050900D01*
G37*
G36*
X113100696Y-80285528D02*
G01*
X113118377Y-80308287D01*
X113168074Y-80401138D01*
X113135935Y-80484448D01*
X113091367Y-80535749D01*
X113015137Y-80663217D01*
X113027388Y-80761088D01*
X113118269Y-80801061D01*
X113180884Y-80792951D01*
X113303287Y-80797274D01*
X113348938Y-80871434D01*
X113308411Y-80988522D01*
X113267368Y-81039846D01*
X113184203Y-81182023D01*
X113139100Y-81355707D01*
X113120108Y-81554273D01*
X112928576Y-81367275D01*
X112804888Y-81215324D01*
X112740606Y-81072507D01*
X112737045Y-81040873D01*
X112758780Y-80913956D01*
X112812765Y-80763523D01*
X112882172Y-80623475D01*
X112950170Y-80527714D01*
X112999931Y-80510142D01*
X113000321Y-80510515D01*
X113030721Y-80503352D01*
X113030329Y-80464018D01*
X113024374Y-80321700D01*
X113026600Y-80287220D01*
X113046551Y-80238090D01*
X113100696Y-80285528D01*
G37*
G36*
X120658371Y-78919857D02*
G01*
X120760335Y-79034934D01*
X120856335Y-79179080D01*
X120918716Y-79313310D01*
X120928692Y-79367097D01*
X120968406Y-79490303D01*
X121067561Y-79637498D01*
X121106945Y-79681041D01*
X121214259Y-79800093D01*
X121244897Y-79874442D01*
X121209909Y-79938107D01*
X121195344Y-79953216D01*
X121120533Y-80080809D01*
X121105491Y-80160936D01*
X121065236Y-80299913D01*
X121017091Y-80367200D01*
X120948327Y-80474054D01*
X120931196Y-80579165D01*
X120970457Y-80638347D01*
X120987625Y-80640816D01*
X121044845Y-80685663D01*
X121046558Y-80699749D01*
X121013457Y-80750778D01*
X121002358Y-80750656D01*
X120914172Y-80734060D01*
X120825560Y-80717091D01*
X120752570Y-80691956D01*
X120712662Y-80632991D01*
X120696059Y-80511239D01*
X120692962Y-80324374D01*
X120683343Y-80121001D01*
X120658344Y-79962946D01*
X120629505Y-79893741D01*
X120600052Y-79813848D01*
X120575298Y-79658202D01*
X120556867Y-79459066D01*
X120546385Y-79248701D01*
X120545476Y-79059373D01*
X120555764Y-78923343D01*
X120578095Y-78872835D01*
X120658371Y-78919857D01*
G37*
G36*
X112836943Y-80008265D02*
G01*
X112881416Y-80068535D01*
X112886159Y-80144377D01*
X112846242Y-80266423D01*
X112766893Y-80443586D01*
X112641373Y-80803571D01*
X112622275Y-81122733D01*
X112709100Y-81409847D01*
X112711589Y-81414697D01*
X112766399Y-81542743D01*
X112778207Y-81619588D01*
X112775632Y-81623730D01*
X112730287Y-81602006D01*
X112679346Y-81527112D01*
X112623904Y-81388620D01*
X112570309Y-81201869D01*
X112559357Y-81153735D01*
X112506618Y-80906013D01*
X112520257Y-81156478D01*
X112514340Y-81332915D01*
X112473217Y-81405499D01*
X112463492Y-81406942D01*
X112347854Y-81427046D01*
X112299870Y-81442713D01*
X112231221Y-81429078D01*
X112204421Y-81347068D01*
X112219011Y-81238319D01*
X112274531Y-81144465D01*
X112303396Y-81122926D01*
X112374056Y-81024773D01*
X112370501Y-80913733D01*
X112367766Y-80796795D01*
X112402690Y-80757333D01*
X112454248Y-80813991D01*
X112462284Y-80832348D01*
X112483410Y-80834171D01*
X112496004Y-80741670D01*
X112496662Y-80722707D01*
X112520261Y-80374587D01*
X112569560Y-80126261D01*
X112642506Y-79982038D01*
X112737049Y-79946224D01*
X112836943Y-80008265D01*
G37*
G36*
X112373500Y-74662035D02*
G01*
X112597116Y-74711035D01*
X112754120Y-74748539D01*
X112947936Y-74785232D01*
X113066363Y-74777457D01*
X113119918Y-74747702D01*
X113206776Y-74712749D01*
X113315941Y-74762327D01*
X113338574Y-74778618D01*
X113473704Y-74878854D01*
X113341105Y-74848183D01*
X113239141Y-74842264D01*
X113208507Y-74866245D01*
X113157765Y-74911530D01*
X113035406Y-74952990D01*
X113032384Y-74953661D01*
X112896837Y-74997533D01*
X112822642Y-75046742D01*
X112746161Y-75083857D01*
X112605255Y-75101004D01*
X112591121Y-75101141D01*
X112416084Y-75125077D01*
X112204644Y-75185489D01*
X112118252Y-75219007D01*
X111937896Y-75287924D01*
X111789106Y-75330368D01*
X111740262Y-75336872D01*
X111639154Y-75384448D01*
X111558391Y-75484204D01*
X111467903Y-75607870D01*
X111391688Y-75615329D01*
X111341172Y-75535841D01*
X111352694Y-75427915D01*
X111394226Y-75389906D01*
X111478519Y-75302721D01*
X111557629Y-75161869D01*
X111559386Y-75157672D01*
X111696306Y-74976445D01*
X111891244Y-74855122D01*
X112041256Y-74773363D01*
X112133606Y-74701368D01*
X112147718Y-74675433D01*
X112166804Y-74646404D01*
X112236063Y-74641215D01*
X112373500Y-74662035D01*
G37*
G36*
X113281932Y-78676317D02*
G01*
X113322952Y-78745934D01*
X113326372Y-78815967D01*
X113306406Y-78975820D01*
X113256962Y-79170207D01*
X113242467Y-79213694D01*
X113198332Y-79367079D01*
X113187261Y-79469506D01*
X113193357Y-79486300D01*
X113181995Y-79517949D01*
X113154714Y-79521095D01*
X113108155Y-79478406D01*
X113120108Y-79344297D01*
X113134478Y-79217161D01*
X113094183Y-79170223D01*
X113065858Y-79167498D01*
X112984500Y-79199680D01*
X112972776Y-79229909D01*
X112936672Y-79265106D01*
X112913843Y-79255897D01*
X112858910Y-79252045D01*
X112854508Y-79267153D01*
X112807298Y-79330459D01*
X112690754Y-79421157D01*
X112541452Y-79514915D01*
X112395971Y-79587403D01*
X112346264Y-79605224D01*
X112257490Y-79609067D01*
X112176120Y-79546743D01*
X112075686Y-79397558D01*
X112071342Y-79390241D01*
X111922003Y-79138032D01*
X112136041Y-79092098D01*
X112317589Y-79028172D01*
X112425885Y-78961234D01*
X113149574Y-78961234D01*
X113179040Y-78990700D01*
X113208507Y-78961234D01*
X113179040Y-78931768D01*
X113149574Y-78961234D01*
X112425885Y-78961234D01*
X112467794Y-78935330D01*
X112475192Y-78928625D01*
X112667006Y-78805157D01*
X112927994Y-78712069D01*
X113164307Y-78670620D01*
X113281932Y-78676317D01*
G37*
G36*
X113714708Y-75885519D02*
G01*
X113750840Y-76018868D01*
X113773628Y-76153992D01*
X113798125Y-76334116D01*
X113803889Y-76452360D01*
X113791940Y-76482417D01*
X113744142Y-76513519D01*
X113675046Y-76621579D01*
X113655374Y-76660915D01*
X113572882Y-76790243D01*
X113495715Y-76837708D01*
X113483725Y-76835347D01*
X113384543Y-76838051D01*
X113232816Y-76880911D01*
X113192551Y-76896742D01*
X113029131Y-76962128D01*
X112946670Y-76976879D01*
X112917471Y-76936039D01*
X112913843Y-76846872D01*
X112876188Y-76721791D01*
X113444238Y-76721791D01*
X113473704Y-76751257D01*
X113503170Y-76721791D01*
X113473704Y-76692324D01*
X113444238Y-76721791D01*
X112876188Y-76721791D01*
X112864814Y-76684009D01*
X112739315Y-76577948D01*
X112569727Y-76540285D01*
X112388433Y-76582618D01*
X112311351Y-76631098D01*
X112189066Y-76703617D01*
X112119615Y-76694484D01*
X112118893Y-76693362D01*
X112116570Y-76638048D01*
X112133665Y-76633392D01*
X112192060Y-76590375D01*
X112301835Y-76475951D01*
X112442405Y-76312057D01*
X112488917Y-76254760D01*
X112639802Y-76069599D01*
X112741356Y-75961741D01*
X112817216Y-75915928D01*
X112891017Y-75916899D01*
X112970954Y-75943551D01*
X113144549Y-75980793D01*
X113321277Y-75941826D01*
X113341105Y-75934064D01*
X113538247Y-75857561D01*
X113653312Y-75836565D01*
X113714708Y-75885519D01*
G37*
G36*
X116742722Y-87463683D02*
G01*
X116744470Y-87480489D01*
X116704826Y-87515718D01*
X116670804Y-87505585D01*
X116647454Y-87505249D01*
X116688867Y-87546307D01*
X116742893Y-87660116D01*
X116741515Y-87829948D01*
X116687385Y-88009250D01*
X116659561Y-88060691D01*
X116657676Y-88113909D01*
X116723822Y-88114479D01*
X116779418Y-88118170D01*
X116816713Y-88166965D01*
X116842942Y-88282949D01*
X116865337Y-88488206D01*
X116872121Y-88567266D01*
X116884726Y-88839829D01*
X116872239Y-89027802D01*
X116837107Y-89122319D01*
X116781778Y-89114516D01*
X116737871Y-89053461D01*
X116646251Y-88960464D01*
X116558634Y-88966835D01*
X116510507Y-89065728D01*
X116508739Y-89097661D01*
X116488739Y-89204317D01*
X116404923Y-89242175D01*
X116338246Y-89244993D01*
X116206833Y-89222221D01*
X116140461Y-89171327D01*
X116130114Y-89064222D01*
X116139330Y-88883607D01*
X116163223Y-88664326D01*
X116196903Y-88441223D01*
X116235481Y-88249142D01*
X116274069Y-88122930D01*
X116291359Y-88095805D01*
X116358691Y-87998615D01*
X116367300Y-87963206D01*
X116382044Y-87794927D01*
X116396463Y-87723395D01*
X116419499Y-87727855D01*
X116449806Y-87771675D01*
X116491446Y-87813966D01*
X116506801Y-87753517D01*
X116507836Y-87709795D01*
X116542090Y-87555644D01*
X116624337Y-87445741D01*
X116697324Y-87418078D01*
X116742722Y-87463683D01*
G37*
G36*
X110951174Y-77311118D02*
G01*
X111013337Y-77498262D01*
X111059217Y-77664088D01*
X111065342Y-77692350D01*
X111134069Y-77877177D01*
X111262266Y-77969162D01*
X111420125Y-77988844D01*
X111589949Y-78019277D01*
X111657719Y-78107731D01*
X111621033Y-78249936D01*
X111593133Y-78296651D01*
X111534330Y-78433442D01*
X111546429Y-78591723D01*
X111559189Y-78639886D01*
X111608316Y-78846595D01*
X111607141Y-78956405D01*
X111555206Y-78979225D01*
X111543658Y-78975975D01*
X111486850Y-78905144D01*
X111467367Y-78802402D01*
X111417391Y-78581680D01*
X111290261Y-78421317D01*
X111107347Y-78345416D01*
X111059582Y-78342440D01*
X110914750Y-78356166D01*
X110829722Y-78389659D01*
X110826212Y-78394125D01*
X110754105Y-78438442D01*
X110608880Y-78490590D01*
X110530697Y-78512177D01*
X110296185Y-78608437D01*
X110103340Y-78782931D01*
X110082612Y-78808147D01*
X109894233Y-78990031D01*
X109723417Y-79063387D01*
X109602070Y-79070378D01*
X109562480Y-79023513D01*
X109566440Y-78940623D01*
X109621981Y-78813161D01*
X109755420Y-78746763D01*
X109962135Y-78643149D01*
X110167706Y-78458299D01*
X110339970Y-78224688D01*
X110409004Y-78086850D01*
X110510884Y-77843523D01*
X110582341Y-77681564D01*
X110636215Y-77572705D01*
X110667677Y-77517382D01*
X110727667Y-77400391D01*
X110793160Y-77252185D01*
X110865577Y-77075387D01*
X110951174Y-77311118D01*
G37*
G36*
X123532220Y-79940470D02*
G01*
X123719658Y-80033204D01*
X123918767Y-80171864D01*
X124110833Y-80347923D01*
X124221315Y-80476157D01*
X124354496Y-80646884D01*
X124464220Y-80786159D01*
X124523057Y-80859327D01*
X124571161Y-80972894D01*
X124582479Y-81065591D01*
X124553284Y-81170742D01*
X124445425Y-81208393D01*
X124429226Y-81209545D01*
X124252747Y-81255313D01*
X124161349Y-81375236D01*
X124145607Y-81443439D01*
X124101098Y-81524336D01*
X124022659Y-81575441D01*
X123953690Y-81577481D01*
X123934261Y-81537300D01*
X123884837Y-81507182D01*
X123772196Y-81513013D01*
X123663785Y-81527136D01*
X123652205Y-81498066D01*
X123691013Y-81445908D01*
X123729382Y-81367860D01*
X123671480Y-81350432D01*
X123556018Y-81383780D01*
X123477116Y-81470683D01*
X123469951Y-81624203D01*
X123498571Y-81726252D01*
X123587026Y-81798936D01*
X123734302Y-81819471D01*
X123870167Y-81830251D01*
X123924773Y-81883441D01*
X123934261Y-81992791D01*
X123923838Y-82120994D01*
X123873696Y-82193854D01*
X123755521Y-82233998D01*
X123604510Y-82256336D01*
X123312945Y-82238691D01*
X123153703Y-82184824D01*
X123010541Y-82107290D01*
X122947535Y-82019551D01*
X122932758Y-81874935D01*
X122932705Y-81861777D01*
X122890694Y-81570342D01*
X122776768Y-81316735D01*
X122607862Y-81123267D01*
X122400912Y-81012251D01*
X122274348Y-80994413D01*
X122137216Y-80962099D01*
X122062059Y-80885482D01*
X122069074Y-80795050D01*
X122076134Y-80788148D01*
X122991337Y-80788148D01*
X123020804Y-80817614D01*
X123050270Y-80788148D01*
X123020804Y-80758682D01*
X122991337Y-80788148D01*
X122076134Y-80788148D01*
X122113492Y-80751629D01*
X122218200Y-80726422D01*
X122387890Y-80725179D01*
X122473170Y-80733296D01*
X122655668Y-80747216D01*
X122773997Y-80720701D01*
X122878599Y-80640808D01*
X122894429Y-80625217D01*
X123034809Y-80454301D01*
X123150938Y-80259567D01*
X123218739Y-80084601D01*
X123227068Y-80023100D01*
X123267212Y-79926891D01*
X123375167Y-79902190D01*
X123532220Y-79940470D01*
G37*
G36*
X119465586Y-78920077D02*
G01*
X119700185Y-78981212D01*
X119855203Y-79077456D01*
X119976759Y-79160655D01*
X120063255Y-79186031D01*
X120075438Y-79180588D01*
X120096011Y-79179366D01*
X120082655Y-79207626D01*
X120077140Y-79290106D01*
X120095061Y-79309532D01*
X120142292Y-79385623D01*
X120189042Y-79525821D01*
X120220999Y-79677183D01*
X120223956Y-79786292D01*
X120214431Y-79882991D01*
X120210180Y-80032990D01*
X120210179Y-80033552D01*
X120186438Y-80201155D01*
X120133663Y-80325883D01*
X120060388Y-80393855D01*
X119964707Y-80385132D01*
X119902916Y-80359403D01*
X119795638Y-80317670D01*
X119766810Y-80344132D01*
X119782857Y-80426929D01*
X119770580Y-80574102D01*
X119684374Y-80700064D01*
X119557315Y-80758336D01*
X119546780Y-80758682D01*
X119444733Y-80799970D01*
X119404852Y-80836948D01*
X119310861Y-80884229D01*
X119140694Y-80918240D01*
X119018974Y-80928197D01*
X118838841Y-80930257D01*
X118714590Y-80905965D01*
X118602904Y-80836620D01*
X118460467Y-80703520D01*
X118431382Y-80674511D01*
X118240145Y-80448669D01*
X118141131Y-80250222D01*
X118133375Y-80214932D01*
X118099676Y-80012526D01*
X118065872Y-79815758D01*
X118048743Y-79706317D01*
X119812811Y-79706317D01*
X119871556Y-79775526D01*
X119971286Y-79888554D01*
X120002305Y-79948357D01*
X120052828Y-80042971D01*
X120083915Y-80033321D01*
X120085012Y-79932673D01*
X120072642Y-79859958D01*
X120031465Y-79727359D01*
X120162567Y-79727359D01*
X120192033Y-79756826D01*
X120221500Y-79727359D01*
X120192033Y-79697893D01*
X120162567Y-79727359D01*
X120031465Y-79727359D01*
X120012976Y-79667821D01*
X119939318Y-79592341D01*
X119853170Y-79631141D01*
X119812811Y-79706317D01*
X118048743Y-79706317D01*
X118037910Y-79637103D01*
X118006079Y-79406526D01*
X117988979Y-79270631D01*
X117970460Y-79077478D01*
X117976930Y-78974368D01*
X118012432Y-78935350D01*
X118041766Y-78931768D01*
X118164236Y-78968962D01*
X118198246Y-78994731D01*
X118289620Y-79024531D01*
X118448897Y-78982673D01*
X118460496Y-78978100D01*
X118618801Y-78933313D01*
X118828766Y-78909804D01*
X119112472Y-78906300D01*
X119465586Y-78920077D01*
G37*
G36*
X116626694Y-78845124D02*
G01*
X116874044Y-78851811D01*
X117043422Y-78865559D01*
X117154758Y-78888496D01*
X117227980Y-78922752D01*
X117260041Y-78947922D01*
X117397801Y-79016698D01*
X117521483Y-78987412D01*
X117591402Y-78882550D01*
X117602218Y-78869323D01*
X117595247Y-78953216D01*
X117588198Y-79005433D01*
X117585611Y-79151667D01*
X117616538Y-79225178D01*
X117662263Y-79211771D01*
X117704069Y-79097246D01*
X117704735Y-79093832D01*
X117724604Y-79002296D01*
X117733802Y-79024562D01*
X117738300Y-79087055D01*
X117694689Y-79218419D01*
X117602773Y-79306935D01*
X117497076Y-79415940D01*
X117435978Y-79591573D01*
X117420997Y-79682042D01*
X117354659Y-79998881D01*
X117244184Y-80230845D01*
X117071710Y-80407959D01*
X116935852Y-80497604D01*
X116772790Y-80598575D01*
X116653995Y-80683684D01*
X116617003Y-80719288D01*
X116539786Y-80762713D01*
X116395780Y-80798531D01*
X116226215Y-80821819D01*
X116072320Y-80827650D01*
X115975326Y-80811102D01*
X115961832Y-80797543D01*
X115895299Y-80745603D01*
X115798434Y-80718176D01*
X115680813Y-80680855D01*
X115634570Y-80639112D01*
X115567013Y-80588705D01*
X115516705Y-80580981D01*
X115451691Y-80571531D01*
X115494750Y-80530880D01*
X115506883Y-80522951D01*
X115554708Y-80479425D01*
X115496705Y-80465452D01*
X115468988Y-80464921D01*
X115353631Y-80429573D01*
X115310521Y-80380174D01*
X115315240Y-80322336D01*
X115408938Y-80320201D01*
X115426800Y-80323250D01*
X115529129Y-80325693D01*
X115537590Y-80289228D01*
X115546346Y-80234401D01*
X115575434Y-80228287D01*
X115597003Y-80195553D01*
X115530313Y-80107686D01*
X115526494Y-80103841D01*
X115402047Y-79979394D01*
X115233467Y-80099072D01*
X115035748Y-80188437D01*
X114873356Y-80187363D01*
X114728400Y-80137944D01*
X114688309Y-80069016D01*
X114755551Y-80002941D01*
X114849771Y-79973700D01*
X115025206Y-79914385D01*
X115221531Y-79812757D01*
X115404258Y-79691197D01*
X115538901Y-79572084D01*
X115588657Y-79494202D01*
X115604269Y-79395475D01*
X115565457Y-79346042D01*
X115448462Y-79331764D01*
X115320458Y-79334588D01*
X115179427Y-79332434D01*
X115112339Y-79315712D01*
X115113528Y-79305478D01*
X115116543Y-79234033D01*
X115093116Y-79195473D01*
X115076792Y-79110993D01*
X115137826Y-79042719D01*
X115207512Y-78992048D01*
X115198343Y-79020334D01*
X115157196Y-79079099D01*
X115140616Y-79114427D01*
X115193476Y-79071707D01*
X115245595Y-79020167D01*
X115418484Y-78843368D01*
X116281441Y-78843368D01*
X116626694Y-78845124D01*
G37*
G36*
X115074573Y-75407036D02*
G01*
X115074709Y-75425271D01*
X115062259Y-75490134D01*
X115050610Y-75489571D01*
X114995029Y-75509096D01*
X114889482Y-75598628D01*
X114756073Y-75734908D01*
X114616905Y-75894678D01*
X114494081Y-76054679D01*
X114448228Y-76123438D01*
X114342784Y-76330134D01*
X114248607Y-76576892D01*
X114215282Y-76692324D01*
X114120773Y-76956760D01*
X113992839Y-77149148D01*
X113978003Y-77163786D01*
X113858031Y-77317510D01*
X113758130Y-77513352D01*
X113741636Y-77559629D01*
X113685564Y-77702866D01*
X113635285Y-77778100D01*
X113618925Y-77781275D01*
X113550847Y-77793641D01*
X113487367Y-77869852D01*
X113463925Y-77959995D01*
X113472703Y-77987224D01*
X113543235Y-78023867D01*
X113566175Y-78015794D01*
X113617576Y-78022413D01*
X113621036Y-78040821D01*
X113577980Y-78123978D01*
X113561142Y-78136770D01*
X113529611Y-78211670D01*
X113540321Y-78243380D01*
X113551464Y-78281164D01*
X113517536Y-78254041D01*
X113452203Y-78149611D01*
X113427328Y-78077243D01*
X113409299Y-78055546D01*
X113395760Y-78134394D01*
X113392141Y-78206364D01*
X113377691Y-78366137D01*
X113349757Y-78468411D01*
X113338485Y-78482286D01*
X113323061Y-78442243D01*
X113322531Y-78310424D01*
X113336533Y-78111927D01*
X113345055Y-78029035D01*
X113375591Y-77804588D01*
X113409981Y-77630579D01*
X113442128Y-77535947D01*
X113450808Y-77527204D01*
X113488027Y-77460828D01*
X113503170Y-77331865D01*
X113522565Y-77193252D01*
X113797834Y-77193252D01*
X113827300Y-77222719D01*
X113856767Y-77193252D01*
X113827300Y-77163786D01*
X113797834Y-77193252D01*
X113522565Y-77193252D01*
X113522671Y-77192498D01*
X113556245Y-77075387D01*
X113679969Y-77075387D01*
X113709435Y-77104853D01*
X113738901Y-77075387D01*
X113709435Y-77045921D01*
X113679969Y-77075387D01*
X113556245Y-77075387D01*
X113572437Y-77018907D01*
X113600929Y-76944049D01*
X113749803Y-76944049D01*
X113774673Y-77011634D01*
X113817434Y-77095394D01*
X113850143Y-77066571D01*
X113871274Y-76996810D01*
X113862035Y-76906002D01*
X113819215Y-76888767D01*
X113751252Y-76895483D01*
X113749803Y-76944049D01*
X113600929Y-76944049D01*
X113639359Y-76843083D01*
X113669660Y-76780723D01*
X113738901Y-76780723D01*
X113768368Y-76810190D01*
X113797834Y-76780723D01*
X113768368Y-76751257D01*
X113738901Y-76780723D01*
X113669660Y-76780723D01*
X113710332Y-76697019D01*
X113772249Y-76612709D01*
X113800677Y-76605682D01*
X113869929Y-76593957D01*
X113886233Y-76574459D01*
X113956327Y-76539151D01*
X113977910Y-76547019D01*
X114003321Y-76529790D01*
X113982452Y-76446554D01*
X113967819Y-76329108D01*
X114041080Y-76228829D01*
X114072206Y-76203117D01*
X114161202Y-76111407D01*
X114180725Y-76043796D01*
X114180497Y-76043418D01*
X114190714Y-75972051D01*
X114209402Y-75956260D01*
X114264338Y-75961308D01*
X114269296Y-75983949D01*
X114304791Y-75996069D01*
X114390481Y-75935737D01*
X114393429Y-75933008D01*
X114472572Y-75833958D01*
X114485033Y-75764728D01*
X114507817Y-75703376D01*
X114606240Y-75621761D01*
X114626097Y-75609550D01*
X114641222Y-75602069D01*
X114740757Y-75602069D01*
X114770224Y-75631536D01*
X114799690Y-75602069D01*
X114770224Y-75572603D01*
X114740757Y-75602069D01*
X114641222Y-75602069D01*
X114740821Y-75552807D01*
X114798185Y-75546032D01*
X114799690Y-75550917D01*
X114833395Y-75545158D01*
X114914994Y-75471028D01*
X114919851Y-75465850D01*
X115019386Y-75364976D01*
X115063620Y-75347294D01*
X115074573Y-75407036D01*
G37*
G36*
X112711570Y-82722626D02*
G01*
X112801031Y-82795577D01*
X112863239Y-82861615D01*
X112897735Y-82940173D01*
X112908968Y-83060884D01*
X112901387Y-83253381D01*
X112891166Y-83395921D01*
X112875752Y-83637666D01*
X112876227Y-83784442D01*
X112895055Y-83858380D01*
X112934700Y-83881608D01*
X112945289Y-83882116D01*
X113004085Y-83896665D01*
X112966190Y-83957663D01*
X112960366Y-83963993D01*
X112883811Y-84008089D01*
X112850671Y-83992228D01*
X112772999Y-83958455D01*
X112678202Y-83959762D01*
X112585717Y-83998814D01*
X112511449Y-84100547D01*
X112436514Y-84291219D01*
X112433637Y-84299856D01*
X112358158Y-84564589D01*
X112328904Y-84757792D01*
X112347116Y-84865777D01*
X112380676Y-84883972D01*
X112471322Y-84861358D01*
X112592595Y-84813003D01*
X112711731Y-84772632D01*
X112778291Y-84802495D01*
X112804561Y-84842469D01*
X112900624Y-84932725D01*
X113015196Y-84912118D01*
X113127773Y-84792146D01*
X113233701Y-84650150D01*
X113371699Y-84488262D01*
X113404043Y-84453282D01*
X113511866Y-84342234D01*
X113556228Y-84313105D01*
X113553386Y-84360994D01*
X113539280Y-84412510D01*
X113468890Y-84744519D01*
X113470041Y-85032412D01*
X113534093Y-85300886D01*
X113604561Y-85479207D01*
X113720030Y-85734340D01*
X113867456Y-86040517D01*
X114033796Y-86371969D01*
X114206006Y-86702925D01*
X114371043Y-87007618D01*
X114515861Y-87260278D01*
X114573054Y-87353443D01*
X114686043Y-87552676D01*
X114779851Y-87753692D01*
X114806280Y-87824905D01*
X114884865Y-88016089D01*
X114980607Y-88187433D01*
X114984668Y-88193301D01*
X115061792Y-88326811D01*
X115094349Y-88429882D01*
X115094354Y-88430652D01*
X115124722Y-88542219D01*
X115169806Y-88627819D01*
X115232279Y-88773940D01*
X115263654Y-88920863D01*
X115304229Y-89081444D01*
X115365000Y-89190700D01*
X115433814Y-89305283D01*
X115447950Y-89368101D01*
X115485511Y-89465464D01*
X115577298Y-89591579D01*
X115590848Y-89606571D01*
X115681710Y-89727524D01*
X115682803Y-89807755D01*
X115667461Y-89826967D01*
X115610561Y-89843286D01*
X115471699Y-89857091D01*
X115245798Y-89868493D01*
X114927780Y-89877599D01*
X114512570Y-89884519D01*
X113995088Y-89889361D01*
X113370259Y-89892234D01*
X112633004Y-89893248D01*
X112577927Y-89893252D01*
X109554679Y-89893252D01*
X109554679Y-88387461D01*
X109554679Y-86881670D01*
X109763507Y-86794416D01*
X109938056Y-86692546D01*
X110015389Y-86580362D01*
X109986575Y-86472009D01*
X109975033Y-86459407D01*
X109914470Y-86350435D01*
X109908275Y-86309259D01*
X109925183Y-86261053D01*
X109993800Y-86283869D01*
X110053533Y-86321045D01*
X110191779Y-86400644D01*
X110249011Y-86406791D01*
X110232405Y-86357290D01*
X110245765Y-86306837D01*
X110287859Y-86298357D01*
X110368492Y-86329126D01*
X110379737Y-86357290D01*
X110430066Y-86401959D01*
X110523736Y-86416222D01*
X110671897Y-86362152D01*
X110772174Y-86239424D01*
X110854554Y-86121050D01*
X110918966Y-86063644D01*
X110924731Y-86062626D01*
X110926586Y-86017093D01*
X110878936Y-85900507D01*
X110869899Y-85883205D01*
X111129913Y-85883205D01*
X111193910Y-85992700D01*
X111255042Y-86018795D01*
X111383984Y-86014647D01*
X111581980Y-85973935D01*
X111810499Y-85908239D01*
X112031009Y-85829138D01*
X112204980Y-85748211D01*
X112250506Y-85719648D01*
X112406098Y-85592853D01*
X112530781Y-85469666D01*
X112648646Y-85335448D01*
X112530781Y-85379980D01*
X112335594Y-85441443D01*
X112236778Y-85440969D01*
X112228861Y-85382557D01*
X112230230Y-85308049D01*
X112207566Y-85296501D01*
X112149093Y-85248459D01*
X112074839Y-85130094D01*
X112061132Y-85102380D01*
X111944472Y-84935560D01*
X111791301Y-84803300D01*
X111788323Y-84801522D01*
X111664902Y-84734835D01*
X111594477Y-84734461D01*
X111529072Y-84805913D01*
X111509345Y-84833578D01*
X111430831Y-84986521D01*
X111399544Y-85109033D01*
X111363270Y-85240821D01*
X111284804Y-85416548D01*
X111240528Y-85497388D01*
X111145289Y-85712238D01*
X111129913Y-85883205D01*
X110869899Y-85883205D01*
X110829522Y-85805899D01*
X110730800Y-85582925D01*
X110677285Y-85332115D01*
X110662684Y-85017426D01*
X110666163Y-84870029D01*
X110689600Y-84709997D01*
X110766840Y-84612982D01*
X110865931Y-84556589D01*
X111037614Y-84470572D01*
X111244272Y-84363819D01*
X111322660Y-84322497D01*
X111508933Y-84238715D01*
X111678701Y-84186970D01*
X111738810Y-84179208D01*
X111874777Y-84142416D01*
X112016261Y-84056618D01*
X112120231Y-83952940D01*
X112147718Y-83883395D01*
X112200017Y-83853206D01*
X112331391Y-83840411D01*
X112394801Y-83841492D01*
X112562179Y-83837423D01*
X112657397Y-83793332D01*
X112716180Y-83706918D01*
X112760333Y-83582869D01*
X112728613Y-83492827D01*
X112710696Y-83471187D01*
X112637713Y-83360230D01*
X112555235Y-83196027D01*
X112534911Y-83148832D01*
X112478451Y-82998588D01*
X112473152Y-82909331D01*
X112521877Y-82834538D01*
X112556429Y-82798953D01*
X112645469Y-82720203D01*
X112711570Y-82722626D01*
G37*
G36*
X120050360Y-74853734D02*
G01*
X120120960Y-74911007D01*
X120128448Y-74919201D01*
X120203508Y-75038736D01*
X120221490Y-75143922D01*
X120189997Y-75206463D01*
X120116632Y-75198059D01*
X120064694Y-75156493D01*
X119955740Y-75110441D01*
X119783781Y-75092772D01*
X119600130Y-75103178D01*
X119456104Y-75141349D01*
X119425590Y-75160338D01*
X119350405Y-75270509D01*
X119337509Y-75332824D01*
X119369962Y-75452316D01*
X119445180Y-75577852D01*
X119529954Y-75658249D01*
X119553756Y-75666092D01*
X119682039Y-75701539D01*
X119869811Y-75777296D01*
X120075009Y-75873848D01*
X120255567Y-75971681D01*
X120352776Y-76036761D01*
X120487173Y-76089774D01*
X120697241Y-76081253D01*
X120706372Y-76079865D01*
X120893209Y-76050916D01*
X121047099Y-76027064D01*
X121076024Y-76022579D01*
X121365252Y-75953183D01*
X121607923Y-75848344D01*
X121782383Y-75721044D01*
X121866980Y-75584264D01*
X121871616Y-75545601D01*
X121875600Y-75481161D01*
X121906838Y-75462122D01*
X121994264Y-75488284D01*
X122129335Y-75543810D01*
X122272962Y-75599121D01*
X122364644Y-75625751D01*
X122374790Y-75626106D01*
X122505826Y-75650042D01*
X122655290Y-75748223D01*
X122785044Y-75891492D01*
X122833128Y-75976520D01*
X122931235Y-76154138D01*
X123069744Y-76354474D01*
X123142402Y-76444982D01*
X123337238Y-76624690D01*
X123532333Y-76694863D01*
X123750882Y-76661579D01*
X123836590Y-76626893D01*
X123951039Y-76540342D01*
X124045698Y-76414147D01*
X124094076Y-76290601D01*
X124086230Y-76228366D01*
X124088938Y-76146999D01*
X124106150Y-76110939D01*
X124154135Y-76093462D01*
X124214088Y-76186394D01*
X124227588Y-76217635D01*
X124328614Y-76365824D01*
X124442649Y-76434266D01*
X124548925Y-76493073D01*
X124582207Y-76618783D01*
X124582521Y-76639780D01*
X124547709Y-76772287D01*
X124450888Y-76809743D01*
X124303477Y-76749295D01*
X124261860Y-76719916D01*
X124118784Y-76642212D01*
X124016669Y-76668789D01*
X123948677Y-76772618D01*
X123889640Y-76861181D01*
X123794650Y-76897823D01*
X123629821Y-76899039D01*
X123372093Y-76867783D01*
X123114599Y-76805627D01*
X122880540Y-76722375D01*
X122693119Y-76627829D01*
X122575539Y-76531792D01*
X122551001Y-76444067D01*
X122551270Y-76443353D01*
X122529975Y-76358442D01*
X122459180Y-76292371D01*
X122301794Y-76255639D01*
X122139107Y-76315718D01*
X122001479Y-76457076D01*
X121952229Y-76551702D01*
X121918849Y-76701663D01*
X121948875Y-76857486D01*
X122051224Y-77037643D01*
X122234815Y-77260604D01*
X122357811Y-77391781D01*
X122499488Y-77551798D01*
X122600171Y-77690331D01*
X122637741Y-77776163D01*
X122596513Y-77870239D01*
X122496268Y-77989062D01*
X122372161Y-78099773D01*
X122259352Y-78169512D01*
X122208594Y-78177265D01*
X122131539Y-78204848D01*
X122064375Y-78290880D01*
X122049316Y-78347714D01*
X122095906Y-78394443D01*
X122199114Y-78451117D01*
X122360801Y-78489250D01*
X122468916Y-78456039D01*
X122598789Y-78418016D01*
X122672511Y-78424720D01*
X122786909Y-78426662D01*
X122920714Y-78380200D01*
X123023595Y-78308120D01*
X123050270Y-78253716D01*
X123104854Y-78135867D01*
X123251369Y-78037515D01*
X123463964Y-77973792D01*
X123547618Y-77962617D01*
X123736612Y-77929787D01*
X123886432Y-77877576D01*
X123926157Y-77852336D01*
X124056340Y-77793840D01*
X124173366Y-77851328D01*
X124232055Y-77935761D01*
X124255810Y-78031959D01*
X124212453Y-78145185D01*
X124135986Y-78254755D01*
X124047289Y-78363034D01*
X123964562Y-78424522D01*
X123851460Y-78452441D01*
X123671642Y-78460013D01*
X123570991Y-78460306D01*
X123343279Y-78465849D01*
X123196335Y-78488902D01*
X123093326Y-78539102D01*
X123018125Y-78604959D01*
X122896146Y-78780006D01*
X122889981Y-78951299D01*
X122959997Y-79082569D01*
X123026750Y-79229068D01*
X123048396Y-79362904D01*
X123070846Y-79528834D01*
X123109362Y-79639258D01*
X123129852Y-79734184D01*
X123101370Y-79797149D01*
X123047726Y-79792040D01*
X123026145Y-79765468D01*
X122952109Y-79741926D01*
X122811324Y-79749778D01*
X122648199Y-79781226D01*
X122507143Y-79828468D01*
X122444416Y-79867645D01*
X122331636Y-79915838D01*
X122163585Y-79927691D01*
X121997358Y-79902453D01*
X121930549Y-79874395D01*
X121814413Y-79830156D01*
X121647775Y-79791363D01*
X121626971Y-79787883D01*
X121492893Y-79760892D01*
X121435848Y-79712552D01*
X121431774Y-79605659D01*
X121443862Y-79504783D01*
X121491334Y-79304653D01*
X121567760Y-79127173D01*
X121585375Y-79099468D01*
X121662678Y-78961956D01*
X121694818Y-78851078D01*
X121643823Y-78747458D01*
X121522156Y-78675290D01*
X121376786Y-78658838D01*
X121338995Y-78667277D01*
X121244652Y-78677280D01*
X121218847Y-78655808D01*
X121182655Y-78428587D01*
X121113812Y-78291269D01*
X120992936Y-78216642D01*
X120887590Y-78190676D01*
X120690488Y-78138454D01*
X120567461Y-78071559D01*
X120538814Y-78001667D01*
X120543267Y-77992668D01*
X120542494Y-77919246D01*
X120516970Y-77762988D01*
X120483927Y-77610254D01*
X120692962Y-77610254D01*
X120741932Y-77635850D01*
X120854070Y-77669255D01*
X120936229Y-77687344D01*
X121008366Y-77669575D01*
X121144780Y-77616841D01*
X121201426Y-77592240D01*
X121402961Y-77524838D01*
X121605086Y-77490257D01*
X121635885Y-77489108D01*
X121775494Y-77477126D01*
X121832607Y-77426909D01*
X121842149Y-77341584D01*
X121820984Y-77237149D01*
X121735453Y-77181405D01*
X121635885Y-77158478D01*
X121481050Y-77128674D01*
X121376920Y-77104739D01*
X121370688Y-77102868D01*
X121281469Y-77106333D01*
X121128455Y-77137597D01*
X121066779Y-77154169D01*
X120891786Y-77224060D01*
X120793675Y-77326207D01*
X120757383Y-77409105D01*
X120713562Y-77539201D01*
X120693152Y-77608452D01*
X120692962Y-77610254D01*
X120483927Y-77610254D01*
X120471980Y-77555031D01*
X120461889Y-77513150D01*
X120408849Y-77277528D01*
X120389318Y-77127035D01*
X120401643Y-77034302D01*
X120430116Y-76986988D01*
X120505127Y-76852249D01*
X120525578Y-76780723D01*
X120568191Y-76663739D01*
X120602856Y-76621863D01*
X120638436Y-76573899D01*
X120587099Y-76534157D01*
X120437269Y-76497282D01*
X120278600Y-76471887D01*
X120079153Y-76433016D01*
X119952060Y-76371888D01*
X119851845Y-76263460D01*
X119821819Y-76220338D01*
X119696761Y-76065141D01*
X119563976Y-75943472D01*
X119539448Y-75927011D01*
X119420919Y-75826511D01*
X119362352Y-75734834D01*
X119289191Y-75635556D01*
X119159310Y-75542416D01*
X119157532Y-75541493D01*
X119044198Y-75476838D01*
X119024966Y-75426119D01*
X119088925Y-75349747D01*
X119101277Y-75337373D01*
X119204398Y-75193634D01*
X119253342Y-75075793D01*
X119300142Y-74972307D01*
X119392961Y-74952458D01*
X119450463Y-74961667D01*
X119612434Y-74960246D01*
X119798748Y-74914654D01*
X119823141Y-74905066D01*
X119966535Y-74852468D01*
X120050360Y-74853734D01*
G37*
G36*
X121174221Y-80921129D02*
G01*
X121174245Y-80921185D01*
X121240689Y-80996229D01*
X121372550Y-81105188D01*
X121533816Y-81221942D01*
X121688476Y-81320371D01*
X121797950Y-81373578D01*
X121900710Y-81424398D01*
X121930549Y-81465747D01*
X121980641Y-81512605D01*
X122063147Y-81535441D01*
X122167904Y-81593016D01*
X122218067Y-81698123D01*
X122202265Y-81803992D01*
X122140946Y-81855506D01*
X122071008Y-81939203D01*
X122050280Y-82093302D01*
X122078126Y-82281401D01*
X122151546Y-82462962D01*
X122214555Y-82586033D01*
X122210737Y-82662842D01*
X122129194Y-82744898D01*
X122084208Y-82781237D01*
X121913737Y-82917929D01*
X122084208Y-82985464D01*
X122275838Y-83050698D01*
X122431477Y-83092643D01*
X122610357Y-83141896D01*
X122673485Y-83184361D01*
X122622666Y-83221763D01*
X122579100Y-83233787D01*
X122440994Y-83310340D01*
X122353795Y-83413102D01*
X122311948Y-83515228D01*
X122317433Y-83618451D01*
X122375450Y-83766943D01*
X122402074Y-83823183D01*
X122532546Y-84087775D01*
X122629989Y-84265115D01*
X122708760Y-84375873D01*
X122783213Y-84440718D01*
X122855331Y-84475749D01*
X122957316Y-84534176D01*
X122985199Y-84629265D01*
X122975989Y-84722934D01*
X122965490Y-84865146D01*
X122988508Y-84993831D01*
X123057014Y-85129865D01*
X123182982Y-85294126D01*
X123378385Y-85507490D01*
X123495120Y-85628116D01*
X123710259Y-85855442D01*
X123857885Y-86033834D01*
X123958290Y-86192991D01*
X124031764Y-86362612D01*
X124065465Y-86462912D01*
X124168552Y-86726771D01*
X124292720Y-86909920D01*
X124382524Y-86993307D01*
X124582517Y-87152881D01*
X124582519Y-88523067D01*
X124582521Y-89893252D01*
X121954835Y-89893252D01*
X119327149Y-89893252D01*
X119366808Y-89642788D01*
X119444842Y-89283651D01*
X119569725Y-88867089D01*
X119595953Y-88795628D01*
X121348076Y-88795628D01*
X121361774Y-88872979D01*
X121442752Y-88878325D01*
X121457072Y-88874847D01*
X121547979Y-88865983D01*
X121567959Y-88882707D01*
X121584688Y-88983663D01*
X121672225Y-89009262D01*
X121740841Y-88973159D01*
X121736675Y-88891396D01*
X121733370Y-88797423D01*
X121759268Y-88773531D01*
X121813135Y-88748231D01*
X121774242Y-88683307D01*
X121653491Y-88595225D01*
X121633460Y-88583562D01*
X121511997Y-88520318D01*
X121450837Y-88524640D01*
X121408278Y-88605042D01*
X121398101Y-88631598D01*
X121348076Y-88795628D01*
X119595953Y-88795628D01*
X119727670Y-88436751D01*
X119808467Y-88244285D01*
X119987581Y-87836189D01*
X119839343Y-87104068D01*
X119783250Y-86824119D01*
X119736888Y-86587188D01*
X119704732Y-86416547D01*
X119691255Y-86335471D01*
X119691105Y-86332972D01*
X119725582Y-86353444D01*
X119815933Y-86444642D01*
X119941569Y-86585643D01*
X120082659Y-86741853D01*
X120202394Y-86860206D01*
X120268760Y-86911279D01*
X120305029Y-86925326D01*
X120317659Y-86917064D01*
X120298339Y-86871115D01*
X120238759Y-86772098D01*
X120130606Y-86604635D01*
X120090688Y-86543848D01*
X122558831Y-86543848D01*
X122563915Y-86576664D01*
X122662068Y-86636398D01*
X122703256Y-86658488D01*
X122862712Y-86738235D01*
X122951910Y-86763047D01*
X123001620Y-86738698D01*
X123016820Y-86717332D01*
X123003599Y-86647961D01*
X122913606Y-86577066D01*
X122785849Y-86525205D01*
X122659334Y-86512939D01*
X122637091Y-86517182D01*
X122558831Y-86543848D01*
X120090688Y-86543848D01*
X119975013Y-86367697D01*
X119847978Y-86172015D01*
X119750301Y-86016669D01*
X119696820Y-85925477D01*
X119691105Y-85911975D01*
X119743520Y-85898200D01*
X119877961Y-85900605D01*
X120060224Y-85915808D01*
X120256105Y-85940424D01*
X120431400Y-85971070D01*
X120523603Y-85994319D01*
X120957000Y-86127680D01*
X121280418Y-86220878D01*
X121494616Y-86274115D01*
X121600352Y-86287592D01*
X121611202Y-86283751D01*
X121609459Y-86216638D01*
X121575099Y-86070923D01*
X121518803Y-85888154D01*
X121438607Y-85650097D01*
X122902938Y-85650097D01*
X122907611Y-85704403D01*
X122928927Y-85709030D01*
X122988939Y-85666250D01*
X122991337Y-85650097D01*
X122971230Y-85592696D01*
X122965349Y-85591164D01*
X122915034Y-85632461D01*
X122902938Y-85650097D01*
X121438607Y-85650097D01*
X121395834Y-85523126D01*
X121540968Y-85408964D01*
X121638003Y-85312509D01*
X121655389Y-85208121D01*
X121632012Y-85106199D01*
X121541009Y-84917242D01*
X121400867Y-84758326D01*
X121244826Y-84662352D01*
X121169364Y-84648241D01*
X121063459Y-84678683D01*
X120894967Y-84758860D01*
X120698643Y-84872050D01*
X120680597Y-84883412D01*
X120513813Y-84994733D01*
X120405979Y-85077751D01*
X120375911Y-85117631D01*
X120381581Y-85119143D01*
X120469961Y-85158745D01*
X120597245Y-85255547D01*
X120729144Y-85377889D01*
X120831367Y-85494112D01*
X120869760Y-85569864D01*
X120821312Y-85633870D01*
X120698387Y-85719085D01*
X120619423Y-85761636D01*
X120369086Y-85885493D01*
X120268042Y-85753062D01*
X120176955Y-85593703D01*
X120132632Y-85467664D01*
X120070101Y-85341982D01*
X119957620Y-85217787D01*
X119828945Y-85123113D01*
X119717831Y-85085997D01*
X119683706Y-85094809D01*
X119575605Y-85220401D01*
X119486915Y-85437373D01*
X119425081Y-85719852D01*
X119397546Y-86041963D01*
X119396834Y-86092092D01*
X119390601Y-86334203D01*
X119374169Y-86463967D01*
X119346741Y-86486525D01*
X119337509Y-86475155D01*
X119301045Y-86449525D01*
X119283023Y-86524359D01*
X119279479Y-86637220D01*
X119268538Y-86790225D01*
X119242090Y-86878833D01*
X119229022Y-86887684D01*
X119190187Y-86940088D01*
X119141928Y-87075302D01*
X119107949Y-87207260D01*
X119055854Y-87395535D01*
X118998452Y-87537640D01*
X118964846Y-87586246D01*
X118874359Y-87629696D01*
X118705144Y-87687058D01*
X118493401Y-87746094D01*
X118488041Y-87747444D01*
X118271787Y-87812983D01*
X118094144Y-87887015D01*
X117993519Y-87953529D01*
X117993443Y-87953618D01*
X117925512Y-88018336D01*
X117868278Y-88003422D01*
X117789742Y-87912665D01*
X117676932Y-87809701D01*
X117498252Y-87687768D01*
X117323621Y-87589740D01*
X117161434Y-87498741D01*
X116957667Y-87367191D01*
X116703849Y-87188857D01*
X116391514Y-86957505D01*
X116012193Y-86666900D01*
X115557419Y-86310810D01*
X115182753Y-86013757D01*
X114870541Y-85764794D01*
X114639345Y-85578813D01*
X114477688Y-85445731D01*
X114374097Y-85355467D01*
X114317097Y-85297941D01*
X114295214Y-85263071D01*
X114296974Y-85240775D01*
X114298953Y-85237258D01*
X114283663Y-85168025D01*
X114239180Y-85119164D01*
X114164898Y-85023702D01*
X114151430Y-84974289D01*
X114111279Y-84883896D01*
X114033565Y-84795573D01*
X113960595Y-84707174D01*
X114328228Y-84707174D01*
X114349791Y-84755682D01*
X114367517Y-84746462D01*
X114374570Y-84676523D01*
X114367517Y-84667885D01*
X114332481Y-84675975D01*
X114328228Y-84707174D01*
X113960595Y-84707174D01*
X113944921Y-84688186D01*
X113915699Y-84609641D01*
X113893287Y-84559842D01*
X114151430Y-84559842D01*
X114180897Y-84589308D01*
X114210363Y-84559842D01*
X114180897Y-84530375D01*
X114151430Y-84559842D01*
X113893287Y-84559842D01*
X113883112Y-84537232D01*
X113860865Y-84530375D01*
X113804734Y-84481625D01*
X113786400Y-84364664D01*
X113807398Y-84223432D01*
X113846985Y-84132580D01*
X113870179Y-84088380D01*
X114033565Y-84088380D01*
X114063031Y-84117846D01*
X114092498Y-84088380D01*
X114063031Y-84058914D01*
X114033565Y-84088380D01*
X113870179Y-84088380D01*
X113887652Y-84055083D01*
X116018718Y-84055083D01*
X116070341Y-84203012D01*
X116079575Y-84217558D01*
X116152652Y-84350013D01*
X116183626Y-84447593D01*
X116183626Y-84447600D01*
X116217793Y-84537583D01*
X116297910Y-84649034D01*
X116393147Y-84747797D01*
X116472677Y-84799716D01*
X116498273Y-84796217D01*
X116495034Y-84773329D01*
X119930506Y-84773329D01*
X119969976Y-84781286D01*
X120075468Y-84704018D01*
X120101539Y-84679715D01*
X120148482Y-84625055D01*
X121931445Y-84625055D01*
X121931451Y-84632708D01*
X121954655Y-84803662D01*
X122042614Y-84919750D01*
X122136813Y-84983638D01*
X122278189Y-85047166D01*
X122365152Y-85021613D01*
X122416752Y-84895338D01*
X122433546Y-84802313D01*
X122439209Y-84543278D01*
X122366301Y-84370001D01*
X122215549Y-84284146D01*
X122205637Y-84282111D01*
X122061489Y-84304026D01*
X121966321Y-84423162D01*
X121931445Y-84625055D01*
X120148482Y-84625055D01*
X120202287Y-84562406D01*
X120243177Y-84471227D01*
X120239415Y-84452752D01*
X120181787Y-84451884D01*
X120085639Y-84530175D01*
X120064712Y-84553456D01*
X119960827Y-84693077D01*
X119930506Y-84773329D01*
X116495034Y-84773329D01*
X116489753Y-84736017D01*
X116433957Y-84680377D01*
X116370197Y-84585471D01*
X116464255Y-84585471D01*
X116472316Y-84589308D01*
X116526098Y-84547821D01*
X116538205Y-84530375D01*
X116553222Y-84475280D01*
X116545161Y-84471443D01*
X116491380Y-84512930D01*
X116479272Y-84530375D01*
X116464255Y-84585471D01*
X116370197Y-84585471D01*
X116364388Y-84576824D01*
X116387135Y-84472969D01*
X116487874Y-84414672D01*
X116517627Y-84412510D01*
X116606635Y-84381381D01*
X116622205Y-84338844D01*
X116623535Y-84206245D01*
X120398298Y-84206245D01*
X120439214Y-84272447D01*
X120522113Y-84278920D01*
X120587225Y-84225414D01*
X120592942Y-84207053D01*
X120554916Y-84148845D01*
X120501430Y-84129065D01*
X120413787Y-84152050D01*
X120398298Y-84206245D01*
X116623535Y-84206245D01*
X116623572Y-84202603D01*
X116687487Y-84154843D01*
X116770020Y-84161607D01*
X116872332Y-84167125D01*
X116890686Y-84109406D01*
X116881012Y-84065035D01*
X116880935Y-84029447D01*
X116921268Y-84029447D01*
X116950734Y-84058914D01*
X116980201Y-84029447D01*
X116950734Y-83999981D01*
X116921268Y-84029447D01*
X116880935Y-84029447D01*
X116880797Y-83966078D01*
X116958594Y-83937756D01*
X116976787Y-83917467D01*
X116901166Y-83869372D01*
X116823027Y-83834623D01*
X116664224Y-83764594D01*
X116554052Y-83706046D01*
X116533275Y-83690584D01*
X116421151Y-83648371D01*
X116280511Y-83668418D01*
X116195133Y-83722329D01*
X116058258Y-83903672D01*
X116018718Y-84055083D01*
X113887652Y-84055083D01*
X113897587Y-84036151D01*
X113874155Y-84002930D01*
X113827773Y-83999981D01*
X113754853Y-83965938D01*
X113757457Y-83918763D01*
X113750141Y-83809090D01*
X113727935Y-83776857D01*
X113724318Y-83764250D01*
X114210363Y-83764250D01*
X114231926Y-83812758D01*
X114249651Y-83803539D01*
X114256705Y-83733599D01*
X114249651Y-83724962D01*
X114214616Y-83733051D01*
X114210363Y-83764250D01*
X113724318Y-83764250D01*
X113698997Y-83675998D01*
X113731661Y-83528519D01*
X113797834Y-83528519D01*
X113819397Y-83577028D01*
X113837122Y-83567808D01*
X113844176Y-83497868D01*
X113837122Y-83489231D01*
X113802087Y-83497320D01*
X113797834Y-83528519D01*
X113731661Y-83528519D01*
X113736730Y-83505631D01*
X113773875Y-83354757D01*
X113776808Y-83251286D01*
X113772476Y-83240504D01*
X113790721Y-83209493D01*
X113856685Y-83216759D01*
X113952299Y-83264879D01*
X113974632Y-83303140D01*
X113938210Y-83332096D01*
X113916374Y-83322672D01*
X113881135Y-83331096D01*
X113888445Y-83365701D01*
X113965660Y-83434635D01*
X114039557Y-83453834D01*
X114120814Y-83446173D01*
X114101050Y-83391676D01*
X114094399Y-83383479D01*
X114030539Y-83263322D01*
X114092498Y-83263322D01*
X114121964Y-83292788D01*
X114151430Y-83263322D01*
X114121964Y-83233856D01*
X114092498Y-83263322D01*
X114030539Y-83263322D01*
X114025930Y-83254650D01*
X113965939Y-83080968D01*
X114109980Y-83080968D01*
X114151430Y-83115990D01*
X114245465Y-83168995D01*
X114257993Y-83149032D01*
X114239829Y-83115990D01*
X114153763Y-83059959D01*
X114133219Y-83057960D01*
X114109980Y-83080968D01*
X113965939Y-83080968D01*
X113955017Y-83049346D01*
X113891657Y-82808300D01*
X113845847Y-82572245D01*
X113827583Y-82381913D01*
X113832193Y-82315043D01*
X113832010Y-82136733D01*
X113787958Y-82049535D01*
X113712881Y-81920598D01*
X113693984Y-81848937D01*
X113705111Y-81811341D01*
X113758883Y-81877029D01*
X113794646Y-81937336D01*
X113870534Y-82095870D01*
X113911221Y-82226829D01*
X113913229Y-82246733D01*
X113963802Y-82333609D01*
X114033565Y-82349865D01*
X114129554Y-82386714D01*
X114151430Y-82438264D01*
X114181457Y-82516716D01*
X114206979Y-82526663D01*
X114242338Y-82575009D01*
X114224206Y-82705271D01*
X114181952Y-82830099D01*
X114179108Y-82931264D01*
X114206345Y-82966175D01*
X114261325Y-82956599D01*
X114269296Y-82920420D01*
X114311019Y-82813982D01*
X114357695Y-82762394D01*
X114409080Y-82727001D01*
X114439883Y-82739368D01*
X114455760Y-82819060D01*
X114462367Y-82985641D01*
X114464190Y-83130723D01*
X114477068Y-83272857D01*
X114506330Y-83348122D01*
X114515138Y-83351721D01*
X114622892Y-83351721D01*
X114644455Y-83400229D01*
X114662180Y-83391010D01*
X114669234Y-83321070D01*
X114662180Y-83312433D01*
X114627145Y-83320522D01*
X114622892Y-83351721D01*
X114515138Y-83351721D01*
X114558492Y-83303844D01*
X114563959Y-83263322D01*
X114591677Y-83183298D01*
X114657032Y-83193699D01*
X114733328Y-83286191D01*
X114751271Y-83321794D01*
X114814269Y-83419770D01*
X114879992Y-83416072D01*
X114896362Y-83403788D01*
X114965779Y-83380006D01*
X115022880Y-83457157D01*
X115031782Y-83477914D01*
X115112340Y-83627147D01*
X115209123Y-83764250D01*
X115297716Y-83857868D01*
X115353800Y-83862741D01*
X115387681Y-83823183D01*
X115433698Y-83699298D01*
X115444596Y-83553742D01*
X115437591Y-83519514D01*
X120492843Y-83519514D01*
X120525358Y-83585312D01*
X120580365Y-83552662D01*
X120625963Y-83460212D01*
X120649447Y-83340645D01*
X120647337Y-83213193D01*
X120624983Y-83116048D01*
X120587733Y-83087399D01*
X120575112Y-83097130D01*
X120538350Y-83183075D01*
X120503518Y-83333143D01*
X120498077Y-83366454D01*
X120492843Y-83519514D01*
X115437591Y-83519514D01*
X115420669Y-83436836D01*
X115385216Y-83399564D01*
X115339397Y-83333359D01*
X115299375Y-83192238D01*
X115297101Y-83178401D01*
X120103634Y-83178401D01*
X120122573Y-83231947D01*
X120148211Y-83204389D01*
X120221500Y-83204389D01*
X120250966Y-83233856D01*
X120280433Y-83204389D01*
X120250966Y-83174923D01*
X120221500Y-83204389D01*
X120148211Y-83204389D01*
X120166031Y-83185234D01*
X120185053Y-83142396D01*
X120189172Y-83081561D01*
X120161892Y-83086941D01*
X120105729Y-83162394D01*
X120103634Y-83178401D01*
X115297101Y-83178401D01*
X115289057Y-83129456D01*
X115259317Y-82977135D01*
X115224089Y-82889003D01*
X115211291Y-82880259D01*
X115186157Y-82827848D01*
X115175318Y-82696018D01*
X115176174Y-82629795D01*
X115194910Y-82526663D01*
X116512574Y-82526663D01*
X116535912Y-82562355D01*
X116609681Y-82498082D01*
X116628249Y-82476325D01*
X116699427Y-82362356D01*
X116709327Y-82281761D01*
X116709030Y-82281267D01*
X116657106Y-82274990D01*
X116587968Y-82340988D01*
X116530574Y-82443089D01*
X116512574Y-82526663D01*
X115194910Y-82526663D01*
X115210446Y-82441142D01*
X115286288Y-82268735D01*
X115383652Y-82148536D01*
X115463619Y-82114134D01*
X115535380Y-82077541D01*
X115647930Y-81987826D01*
X115665761Y-81971584D01*
X115776715Y-81896033D01*
X115959957Y-81797668D01*
X116182746Y-81691169D01*
X116412343Y-81591216D01*
X116616009Y-81512492D01*
X116761005Y-81469676D01*
X116793527Y-81465874D01*
X116810270Y-81514732D01*
X116787405Y-81637630D01*
X116768071Y-81699464D01*
X116712990Y-81895015D01*
X116722331Y-82013229D01*
X116810652Y-82069308D01*
X116992506Y-82078451D01*
X117123058Y-82070172D01*
X117366501Y-82062251D01*
X117506854Y-82085013D01*
X117535475Y-82106713D01*
X117620050Y-82168994D01*
X117708254Y-82151805D01*
X117746786Y-82069935D01*
X117798152Y-81975025D01*
X117923100Y-81885828D01*
X118079090Y-81828280D01*
X118157594Y-81819471D01*
X118262154Y-81863553D01*
X118334708Y-81936025D01*
X118410328Y-82009935D01*
X118463130Y-81980717D01*
X118518665Y-81939162D01*
X118580716Y-81982028D01*
X118668029Y-82045538D01*
X118701036Y-82055201D01*
X118740838Y-82007173D01*
X118740893Y-81889857D01*
X118705218Y-81743405D01*
X118659783Y-81642672D01*
X118590169Y-81506952D01*
X118594569Y-81455364D01*
X118683036Y-81479307D01*
X118790109Y-81531160D01*
X118944413Y-81601564D01*
X119060522Y-81640163D01*
X119080563Y-81642672D01*
X119181972Y-81680033D01*
X119230167Y-81716875D01*
X119330384Y-81773907D01*
X119498652Y-81836289D01*
X119602706Y-81865931D01*
X119866061Y-81962479D01*
X120024581Y-82097981D01*
X120088156Y-82284382D01*
X120082375Y-82445055D01*
X120078248Y-82636138D01*
X120111508Y-82804022D01*
X120169831Y-82930037D01*
X120240892Y-82995514D01*
X120312368Y-82981784D01*
X120319642Y-82968658D01*
X120457231Y-82968658D01*
X120486697Y-82998125D01*
X120516163Y-82968658D01*
X120486697Y-82939192D01*
X120457231Y-82968658D01*
X120319642Y-82968658D01*
X120369103Y-82879404D01*
X120395107Y-82836503D01*
X120842613Y-82836503D01*
X120854174Y-82981532D01*
X120854796Y-82983392D01*
X120929451Y-83046012D01*
X121063137Y-83060540D01*
X121209491Y-83031642D01*
X121322146Y-82963988D01*
X121343923Y-82934145D01*
X121384640Y-82830963D01*
X121354571Y-82773213D01*
X121235716Y-82745576D01*
X121112270Y-82736977D01*
X120927824Y-82755770D01*
X120842613Y-82836503D01*
X120395107Y-82836503D01*
X120418613Y-82797722D01*
X120457401Y-82791966D01*
X120528148Y-82780233D01*
X120550663Y-82754250D01*
X120558600Y-82712917D01*
X120525269Y-82727300D01*
X120471267Y-82724885D01*
X120458857Y-82648299D01*
X120486603Y-82533099D01*
X120537013Y-82436644D01*
X120608145Y-82272050D01*
X120662475Y-82029626D01*
X120692979Y-81749001D01*
X120696062Y-81539365D01*
X120715535Y-81327467D01*
X120805250Y-81145673D01*
X120852654Y-81082638D01*
X120996303Y-80931940D01*
X121106821Y-80876432D01*
X121174221Y-80921129D01*
G37*
%TD*%
D16*
%TO.C,U1*%
X102780000Y-65470000D03*
X102780000Y-68010000D03*
X102780000Y-70550000D03*
X102780000Y-73090000D03*
X102780000Y-75630000D03*
X102780000Y-78170000D03*
X102780000Y-80710000D03*
X102780000Y-83250000D03*
X102780000Y-85790000D03*
X102780000Y-88330000D03*
X102780000Y-90870000D03*
X102780000Y-93410000D03*
X102780000Y-95950000D03*
X102780000Y-98490000D03*
X102780000Y-101030000D03*
X130720000Y-101030000D03*
X130720000Y-98490000D03*
X130720000Y-95950000D03*
X130720000Y-93410000D03*
X130720000Y-90870000D03*
X130720000Y-88330000D03*
X130720000Y-85790000D03*
X130720000Y-83250000D03*
X130720000Y-80710000D03*
X130720000Y-78170000D03*
X130720000Y-75630000D03*
X130720000Y-73090000D03*
X130720000Y-70550000D03*
X130720000Y-68010000D03*
X130720000Y-65470000D03*
%TD*%
M02*
