M48
; DRILL file {KiCad 8.0.6} date 2025-03-28T19:17:54-0400
; FORMAT={-:-/ absolute / metric / decimal}
; #@! TF.CreationDate,2025-03-28T19:17:54-04:00
; #@! TF.GenerationSoftware,Kicad,Pcbnew,8.0.6
; #@! TF.FileFunction,Plated,1,2,PTH
FMAT,2
METRIC
; #@! TA.AperFunction,Plated,PTH,ComponentDrill
T1C0.762
; #@! TA.AperFunction,Plated,PTH,ComponentDrill
T2C0.870
%
G90
G05
T1
X102.78Y-65.47
X102.78Y-68.01
X102.78Y-70.55
X102.78Y-73.09
X102.78Y-75.63
X102.78Y-78.17
X102.78Y-80.71
X102.78Y-83.25
X102.78Y-85.79
X102.78Y-88.33
X102.78Y-90.87
X102.78Y-93.41
X102.78Y-95.95
X102.78Y-98.49
X102.78Y-101.03
X130.72Y-65.47
X130.72Y-68.01
X130.72Y-70.55
X130.72Y-73.09
X130.72Y-75.63
X130.72Y-78.17
X130.72Y-80.71
X130.72Y-83.25
X130.72Y-85.79
X130.72Y-88.33
X130.72Y-90.87
X130.72Y-93.41
X130.72Y-95.95
X130.72Y-98.49
X130.72Y-101.03
X139.017Y-88.105
X139.017Y-90.105
X139.017Y-92.105
X139.017Y-94.105
X139.017Y-98.605
X139.017Y-100.605
X139.017Y-102.605
X139.017Y-104.605
T2
X99.492Y-69.952
X99.492Y-71.452
X99.492Y-72.952
X99.492Y-74.452
X99.492Y-75.952
X99.492Y-77.452
X99.492Y-78.952
X99.492Y-80.452
X99.492Y-81.952
X99.492Y-83.452
X99.72Y-91.897
X99.72Y-93.397
X99.72Y-94.897
X134.5Y-63.75
X134.5Y-68.25
X134.5Y-72.75
X134.5Y-77.25
X134.5Y-81.75
X136.0Y-63.75
X136.0Y-68.25
X136.0Y-72.75
X136.0Y-77.25
X136.0Y-81.75
X137.5Y-63.75
X137.5Y-68.25
X137.5Y-72.75
X137.5Y-77.25
X137.5Y-81.75
M30
