%TF.GenerationSoftware,KiCad,Pcbnew,8.0.6*%
%TF.CreationDate,2025-03-28T19:17:51-04:00*%
%TF.ProjectId,Microcontroller boards,4d696372-6f63-46f6-9e74-726f6c6c6572,rev?*%
%TF.SameCoordinates,Original*%
%TF.FileFunction,Copper,L2,Bot*%
%TF.FilePolarity,Positive*%
%FSLAX46Y46*%
G04 Gerber Fmt 4.6, Leading zero omitted, Abs format (unit mm)*
G04 Created by KiCad (PCBNEW 8.0.6) date 2025-03-28 19:17:51*
%MOMM*%
%LPD*%
G01*
G04 APERTURE LIST*
G04 Aperture macros list*
%AMRoundRect*
0 Rectangle with rounded corners*
0 $1 Rounding radius*
0 $2 $3 $4 $5 $6 $7 $8 $9 X,Y pos of 4 corners*
0 Add a 4 corners polygon primitive as box body*
4,1,4,$2,$3,$4,$5,$6,$7,$8,$9,$2,$3,0*
0 Add four circle primitives for the rounded corners*
1,1,$1+$1,$2,$3*
1,1,$1+$1,$4,$5*
1,1,$1+$1,$6,$7*
1,1,$1+$1,$8,$9*
0 Add four rect primitives between the rounded corners*
20,1,$1+$1,$2,$3,$4,$5,0*
20,1,$1+$1,$4,$5,$6,$7,0*
20,1,$1+$1,$6,$7,$8,$9,0*
20,1,$1+$1,$8,$9,$2,$3,0*%
G04 Aperture macros list end*
%TA.AperFunction,ComponentPad*%
%ADD10RoundRect,0.250000X-0.685000X0.335000X-0.685000X-0.335000X0.685000X-0.335000X0.685000X0.335000X0*%
%TD*%
%TA.AperFunction,ComponentPad*%
%ADD11O,1.870000X1.170000*%
%TD*%
%TA.AperFunction,ComponentPad*%
%ADD12RoundRect,0.250000X-0.335000X-0.685000X0.335000X-0.685000X0.335000X0.685000X-0.335000X0.685000X0*%
%TD*%
%TA.AperFunction,ComponentPad*%
%ADD13O,1.170000X1.870000*%
%TD*%
%TA.AperFunction,ComponentPad*%
%ADD14C,1.270000*%
%TD*%
%TA.AperFunction,ComponentPad*%
%ADD15C,1.524000*%
%TD*%
G04 APERTURE END LIST*
D10*
%TO.P,J6,1,Pin_1*%
%TO.N,Net-(J6-Pin_1)*%
X99720400Y-91897200D03*
D11*
%TO.P,J6,2,Pin_2*%
%TO.N,Net-(J6-Pin_2)*%
X99720400Y-93397200D03*
%TO.P,J6,3,Pin_3*%
%TO.N,Net-(J6-Pin_3)*%
X99720400Y-94897200D03*
%TD*%
D12*
%TO.P,J5,1,Pin_1*%
%TO.N,Net-(J5-Pin_1)*%
X134500000Y-68250000D03*
D13*
%TO.P,J5,2,Pin_2*%
%TO.N,Net-(J3-Pin_2)*%
X136000000Y-68250000D03*
%TO.P,J5,3,Pin_3*%
%TO.N,GND*%
X137500000Y-68250000D03*
%TD*%
D10*
%TO.P,J10,1,Pin_1*%
%TO.N,Net-(J10-Pin_1)*%
X99491800Y-69951600D03*
D11*
%TO.P,J10,2,Pin_2*%
%TO.N,Net-(J10-Pin_2)*%
X99491800Y-71451600D03*
%TO.P,J10,3,Pin_3*%
%TO.N,Net-(J10-Pin_3)*%
X99491800Y-72951600D03*
%TO.P,J10,4,Pin_4*%
%TO.N,Net-(J10-Pin_4)*%
X99491800Y-74451600D03*
%TO.P,J10,5,Pin_5*%
%TO.N,Net-(J10-Pin_5)*%
X99491800Y-75951600D03*
%TO.P,J10,6,Pin_6*%
%TO.N,Net-(J10-Pin_6)*%
X99491800Y-77451600D03*
%TO.P,J10,7,Pin_7*%
%TO.N,Net-(J10-Pin_7)*%
X99491800Y-78951600D03*
%TO.P,J10,8,Pin_8*%
%TO.N,Net-(J10-Pin_8)*%
X99491800Y-80451600D03*
%TO.P,J10,9,Pin_9*%
%TO.N,Net-(J10-Pin_9)*%
X99491800Y-81951600D03*
%TO.P,J10,10,Pin_10*%
%TO.N,Net-(J10-Pin_10)*%
X99491800Y-83451600D03*
%TD*%
D12*
%TO.P,J3,1,Pin_1*%
%TO.N,Net-(J3-Pin_1)*%
X134500000Y-77250000D03*
D13*
%TO.P,J3,2,Pin_2*%
%TO.N,Net-(J3-Pin_2)*%
X136000000Y-77250000D03*
%TO.P,J3,3,Pin_3*%
%TO.N,GND*%
X137500000Y-77250000D03*
%TD*%
D12*
%TO.P,J4,1,Pin_1*%
%TO.N,Net-(J4-Pin_1)*%
X134500000Y-72750000D03*
D13*
%TO.P,J4,2,Pin_2*%
%TO.N,Net-(J3-Pin_2)*%
X136000000Y-72750000D03*
%TO.P,J4,3,Pin_3*%
%TO.N,GND*%
X137500000Y-72750000D03*
%TD*%
D12*
%TO.P,J8,1,Pin_1*%
%TO.N,Net-(J8-Pin_1)*%
X134500000Y-81750000D03*
D13*
%TO.P,J8,2,Pin_2*%
%TO.N,Net-(J8-Pin_2)*%
X136000000Y-81750000D03*
%TO.P,J8,3,Pin_3*%
%TO.N,Net-(J8-Pin_3)*%
X137500000Y-81750000D03*
%TD*%
D14*
%TO.P,J2,1,1*%
%TO.N,GND*%
X139017400Y-88104901D03*
%TO.P,J2,2,2*%
%TO.N,Net-(U1-D6(GPIO12))*%
X139017400Y-90104900D03*
%TO.P,J2,3,3*%
%TO.N,Net-(U1-D7(GPIO13))*%
X139017400Y-92104901D03*
%TO.P,J2,4,4*%
%TO.N,Net-(J3-Pin_2)*%
X139017400Y-94104899D03*
%TD*%
D15*
%TO.P,U1,1,A0(ADC0)*%
%TO.N,Net-(J10-Pin_1)*%
X102780000Y-65470000D03*
%TO.P,U1,2,RSV*%
%TO.N,Net-(J10-Pin_2)*%
X102780000Y-68010000D03*
%TO.P,U1,3,RSV*%
%TO.N,Net-(J10-Pin_3)*%
X102780000Y-70550000D03*
%TO.P,U1,4,SD3(GPIO10)*%
%TO.N,Net-(J10-Pin_4)*%
X102780000Y-73090000D03*
%TO.P,U1,5,SD2(GPIO9)*%
%TO.N,Net-(J10-Pin_5)*%
X102780000Y-75630000D03*
%TO.P,U1,6,SD1(MOSI)*%
%TO.N,Net-(J10-Pin_6)*%
X102780000Y-78170000D03*
%TO.P,U1,7,CMD(CS)*%
%TO.N,Net-(J10-Pin_7)*%
X102780000Y-80710000D03*
%TO.P,U1,8,SDO(MISO)*%
%TO.N,Net-(J10-Pin_8)*%
X102780000Y-83250000D03*
%TO.P,U1,9,CLK(SCLK)*%
%TO.N,Net-(J10-Pin_9)*%
X102780000Y-85790000D03*
%TO.P,U1,10,GND*%
%TO.N,Net-(J10-Pin_10)*%
X102780000Y-88330000D03*
%TO.P,U1,11,3.3V*%
%TO.N,Net-(J6-Pin_1)*%
X102780000Y-90870000D03*
%TO.P,U1,12,EN*%
%TO.N,Net-(J6-Pin_2)*%
X102780000Y-93410000D03*
%TO.P,U1,13,RST*%
%TO.N,Net-(J6-Pin_3)*%
X102780000Y-95950000D03*
%TO.P,U1,14,GND*%
%TO.N,GND*%
X102780000Y-98490000D03*
%TO.P,U1,15,VIN*%
%TO.N,Net-(J3-Pin_2)*%
X102780000Y-101030000D03*
%TO.P,U1,16,3.3V*%
%TO.N,Net-(J9-Pin_1)*%
X130720000Y-101030000D03*
%TO.P,U1,17,GND*%
%TO.N,GND*%
X130720000Y-98490000D03*
%TO.P,U1,18,TX(GPIO1)*%
%TO.N,Net-(J8-Pin_1)*%
X130720000Y-95950000D03*
%TO.P,U1,19,RX(DPIO3)*%
%TO.N,Net-(U1-RX(DPIO3))*%
X130720000Y-93410000D03*
%TO.P,U1,20,D8(GPIO15)*%
%TO.N,Net-(U1-D8(GPIO15))*%
X130720000Y-90870000D03*
%TO.P,U1,21,D7(GPIO13)*%
%TO.N,Net-(U1-D7(GPIO13))*%
X130720000Y-88330000D03*
%TO.P,U1,22,D6(GPIO12)*%
%TO.N,Net-(U1-D6(GPIO12))*%
X130720000Y-85790000D03*
%TO.P,U1,23,D5(GPIO14)*%
%TO.N,Net-(J8-Pin_2)*%
X130720000Y-83250000D03*
%TO.P,U1,24,GND*%
%TO.N,GND*%
X130720000Y-80710000D03*
%TO.P,U1,25,3.3V*%
%TO.N,Net-(J9-Pin_2)*%
X130720000Y-78170000D03*
%TO.P,U1,26,D4(GPIO2)*%
%TO.N,Net-(J8-Pin_3)*%
X130720000Y-75630000D03*
%TO.P,U1,27,D3(GPIO0)*%
%TO.N,Net-(J3-Pin_1)*%
X130720000Y-73090000D03*
%TO.P,U1,28,D2(GPIO4)*%
%TO.N,Net-(J4-Pin_1)*%
X130720000Y-70550000D03*
%TO.P,U1,29,D1(GPIO5)*%
%TO.N,Net-(J5-Pin_1)*%
X130720000Y-68010000D03*
%TO.P,U1,30,D0(GPIO16)*%
%TO.N,Net-(J7-Pin_1)*%
X130720000Y-65470000D03*
%TD*%
D12*
%TO.P,J7,1,Pin_1*%
%TO.N,Net-(J7-Pin_1)*%
X134500000Y-63750000D03*
D13*
%TO.P,J7,2,Pin_2*%
%TO.N,Net-(J3-Pin_2)*%
X136000000Y-63750000D03*
%TO.P,J7,3,Pin_3*%
%TO.N,GND*%
X137500000Y-63750000D03*
%TD*%
D14*
%TO.P,J1,1,1*%
%TO.N,unconnected-(J1-Pad1)*%
X139017400Y-98604901D03*
%TO.P,J1,2,2*%
%TO.N,Net-(U1-D8(GPIO15))*%
X139017400Y-100604900D03*
%TO.P,J1,3,3*%
%TO.N,Net-(U1-RX(DPIO3))*%
X139017400Y-102604901D03*
%TO.P,J1,4,4*%
%TO.N,Net-(J3-Pin_2)*%
X139017400Y-104604899D03*
%TD*%
%TA.AperFunction,Conductor*%
%TO.N,GND*%
G36*
X140209339Y-59244985D02*
G01*
X140255094Y-59297789D01*
X140266300Y-59349300D01*
X140266300Y-87539478D01*
X140246615Y-87606517D01*
X140193811Y-87652272D01*
X140124653Y-87662216D01*
X140061097Y-87633191D01*
X140031300Y-87594750D01*
X139986530Y-87504842D01*
X139986528Y-87504838D01*
X139979853Y-87496000D01*
X139979852Y-87495999D01*
X139398400Y-88077452D01*
X139398400Y-88054741D01*
X139372436Y-87957840D01*
X139322276Y-87870961D01*
X139251340Y-87800025D01*
X139164461Y-87749865D01*
X139067560Y-87723901D01*
X139044848Y-87723901D01*
X139623511Y-87145236D01*
X139623510Y-87145235D01*
X139525483Y-87084539D01*
X139525477Y-87084537D01*
X139329336Y-87008552D01*
X139122571Y-86969901D01*
X138912229Y-86969901D01*
X138705464Y-87008552D01*
X138705463Y-87008552D01*
X138509323Y-87084536D01*
X138411287Y-87145236D01*
X138989953Y-87723901D01*
X138967240Y-87723901D01*
X138870339Y-87749865D01*
X138783460Y-87800025D01*
X138712524Y-87870961D01*
X138662364Y-87957840D01*
X138636400Y-88054741D01*
X138636400Y-88077454D01*
X138054946Y-87496000D01*
X138054945Y-87496000D01*
X138048270Y-87504840D01*
X137954511Y-87693131D01*
X137896945Y-87895456D01*
X137877538Y-88104900D01*
X137877538Y-88104901D01*
X137896945Y-88314345D01*
X137954511Y-88516670D01*
X138048271Y-88704963D01*
X138054945Y-88713800D01*
X138636400Y-88132347D01*
X138636400Y-88155061D01*
X138662364Y-88251962D01*
X138712524Y-88338841D01*
X138783460Y-88409777D01*
X138870339Y-88459937D01*
X138967240Y-88485901D01*
X138989953Y-88485901D01*
X138410060Y-89065791D01*
X138399050Y-89129892D01*
X138352984Y-89180746D01*
X138330180Y-89194865D01*
X138330176Y-89194869D01*
X138174661Y-89336639D01*
X138047842Y-89504574D01*
X137954042Y-89692949D01*
X137896451Y-89895362D01*
X137877035Y-90104899D01*
X137877035Y-90104900D01*
X137896451Y-90314437D01*
X137954042Y-90516850D01*
X138003500Y-90616175D01*
X138047842Y-90705225D01*
X138174658Y-90873157D01*
X138174661Y-90873160D01*
X138328347Y-91013263D01*
X138364629Y-91072974D01*
X138362868Y-91142821D01*
X138328347Y-91196537D01*
X138174661Y-91336639D01*
X138047842Y-91504575D01*
X137954042Y-91692950D01*
X137954041Y-91692954D01*
X137911969Y-91840824D01*
X137896451Y-91895363D01*
X137877035Y-92104900D01*
X137877035Y-92104901D01*
X137896451Y-92314438D01*
X137896451Y-92314440D01*
X137896452Y-92314443D01*
X137916527Y-92384999D01*
X137954042Y-92516851D01*
X138047842Y-92705226D01*
X138174661Y-92873162D01*
X138328345Y-93013263D01*
X138364627Y-93072974D01*
X138362866Y-93142822D01*
X138328345Y-93196537D01*
X138174661Y-93336637D01*
X138047842Y-93504573D01*
X137954042Y-93692948D01*
X137954041Y-93692952D01*
X137911221Y-93843451D01*
X137896451Y-93895361D01*
X137877035Y-94104898D01*
X137877035Y-94104899D01*
X137896451Y-94314436D01*
X137954042Y-94516849D01*
X138024362Y-94658070D01*
X138047842Y-94705224D01*
X138159033Y-94852465D01*
X138174661Y-94873159D01*
X138330176Y-95014929D01*
X138330178Y-95014931D01*
X138509092Y-95125710D01*
X138509098Y-95125713D01*
X138550668Y-95141817D01*
X138705324Y-95201731D01*
X138912180Y-95240399D01*
X138912182Y-95240399D01*
X139122618Y-95240399D01*
X139122620Y-95240399D01*
X139329476Y-95201731D01*
X139525704Y-95125712D01*
X139704623Y-95014930D01*
X139860140Y-94873158D01*
X139986958Y-94705224D01*
X140010438Y-94658070D01*
X140031300Y-94616174D01*
X140078803Y-94564936D01*
X140146466Y-94547515D01*
X140212806Y-94569440D01*
X140256761Y-94623752D01*
X140266300Y-94671445D01*
X140266300Y-98038354D01*
X140246615Y-98105393D01*
X140193811Y-98151148D01*
X140124653Y-98161092D01*
X140061097Y-98132067D01*
X140031300Y-98093626D01*
X140003777Y-98038354D01*
X139986958Y-98004576D01*
X139860140Y-97836642D01*
X139810961Y-97791810D01*
X139704623Y-97694870D01*
X139704621Y-97694868D01*
X139525707Y-97584089D01*
X139525701Y-97584086D01*
X139371048Y-97524174D01*
X139329476Y-97508069D01*
X139122620Y-97469401D01*
X138912180Y-97469401D01*
X138705324Y-97508069D01*
X138705321Y-97508069D01*
X138705321Y-97508070D01*
X138509098Y-97584086D01*
X138509092Y-97584089D01*
X138330178Y-97694868D01*
X138330176Y-97694870D01*
X138174661Y-97836640D01*
X138047842Y-98004575D01*
X137954042Y-98192950D01*
X137896451Y-98395363D01*
X137877035Y-98604900D01*
X137877035Y-98604901D01*
X137896451Y-98814438D01*
X137896451Y-98814440D01*
X137896452Y-98814443D01*
X137912544Y-98871000D01*
X137954042Y-99016851D01*
X138003500Y-99116176D01*
X138047842Y-99205226D01*
X138174658Y-99373158D01*
X138174661Y-99373161D01*
X138328346Y-99513263D01*
X138364628Y-99572974D01*
X138362867Y-99642821D01*
X138328346Y-99696537D01*
X138174661Y-99836638D01*
X138047842Y-100004574D01*
X137954042Y-100192949D01*
X137896451Y-100395362D01*
X137877035Y-100604899D01*
X137877035Y-100604900D01*
X137896451Y-100814437D01*
X137954042Y-101016850D01*
X138003500Y-101116175D01*
X138047842Y-101205225D01*
X138174658Y-101373157D01*
X138174661Y-101373160D01*
X138328347Y-101513263D01*
X138364629Y-101572974D01*
X138362868Y-101642821D01*
X138328347Y-101696537D01*
X138174661Y-101836639D01*
X138047842Y-102004575D01*
X137954042Y-102192950D01*
X137896451Y-102395363D01*
X137877035Y-102604900D01*
X137877035Y-102604901D01*
X137896451Y-102814438D01*
X137954042Y-103016851D01*
X138047842Y-103205226D01*
X138174661Y-103373162D01*
X138328345Y-103513263D01*
X138364627Y-103572974D01*
X138362866Y-103642822D01*
X138328345Y-103696537D01*
X138174661Y-103836637D01*
X138047842Y-104004573D01*
X137954042Y-104192948D01*
X137896451Y-104395361D01*
X137877035Y-104604898D01*
X137877035Y-104604899D01*
X137896451Y-104814436D01*
X137896451Y-104814438D01*
X137896452Y-104814441D01*
X137904378Y-104842297D01*
X137954042Y-105016849D01*
X138047842Y-105205224D01*
X138174661Y-105373159D01*
X138330176Y-105514929D01*
X138330178Y-105514931D01*
X138509092Y-105625710D01*
X138509098Y-105625713D01*
X138550668Y-105641817D01*
X138705324Y-105701731D01*
X138912180Y-105740399D01*
X138912182Y-105740399D01*
X139122618Y-105740399D01*
X139122620Y-105740399D01*
X139329476Y-105701731D01*
X139525704Y-105625712D01*
X139704623Y-105514930D01*
X139860140Y-105373158D01*
X139986958Y-105205224D01*
X140003778Y-105171445D01*
X140031300Y-105116174D01*
X140078803Y-105064936D01*
X140146466Y-105047515D01*
X140212806Y-105069440D01*
X140256761Y-105123752D01*
X140266300Y-105171445D01*
X140266300Y-107858900D01*
X140246615Y-107925939D01*
X140193811Y-107971694D01*
X140142300Y-107982900D01*
X97347700Y-107982900D01*
X97280661Y-107963215D01*
X97234906Y-107910411D01*
X97223700Y-107858900D01*
X97223700Y-104783902D01*
X102563300Y-104783902D01*
X102563300Y-105020097D01*
X102600246Y-105253368D01*
X102673233Y-105477996D01*
X102780457Y-105688433D01*
X102919283Y-105879510D01*
X103086290Y-106046517D01*
X103277367Y-106185343D01*
X103376791Y-106236002D01*
X103487803Y-106292566D01*
X103487805Y-106292566D01*
X103487808Y-106292568D01*
X103608212Y-106331689D01*
X103712431Y-106365553D01*
X103945703Y-106402500D01*
X103945708Y-106402500D01*
X104181897Y-106402500D01*
X104415168Y-106365553D01*
X104639792Y-106292568D01*
X104850233Y-106185343D01*
X105041310Y-106046517D01*
X105208317Y-105879510D01*
X105347143Y-105688433D01*
X105454368Y-105477992D01*
X105527353Y-105253368D01*
X105534979Y-105205222D01*
X105564300Y-105020097D01*
X105564300Y-104783902D01*
X105536139Y-104606102D01*
X127861700Y-104606102D01*
X127861700Y-104842297D01*
X127898646Y-105075568D01*
X127971633Y-105300196D01*
X128078857Y-105510633D01*
X128217683Y-105701710D01*
X128384690Y-105868717D01*
X128575767Y-106007543D01*
X128652252Y-106046514D01*
X128786203Y-106114766D01*
X128786205Y-106114766D01*
X128786208Y-106114768D01*
X128906612Y-106153889D01*
X129010831Y-106187753D01*
X129244103Y-106224700D01*
X129244108Y-106224700D01*
X129480297Y-106224700D01*
X129713568Y-106187753D01*
X129720988Y-106185342D01*
X129938192Y-106114768D01*
X130148633Y-106007543D01*
X130339710Y-105868717D01*
X130506717Y-105701710D01*
X130645543Y-105510633D01*
X130752768Y-105300192D01*
X130825753Y-105075568D01*
X130834539Y-105020097D01*
X130862700Y-104842297D01*
X130862700Y-104606102D01*
X130825753Y-104372831D01*
X130767305Y-104192948D01*
X130752768Y-104148208D01*
X130752766Y-104148205D01*
X130752766Y-104148203D01*
X130645542Y-103937766D01*
X130506717Y-103746690D01*
X130339710Y-103579683D01*
X130148633Y-103440857D01*
X130071391Y-103401500D01*
X129938196Y-103333633D01*
X129713568Y-103260646D01*
X129480297Y-103223700D01*
X129480292Y-103223700D01*
X129244108Y-103223700D01*
X129244103Y-103223700D01*
X129010831Y-103260646D01*
X128786203Y-103333633D01*
X128575766Y-103440857D01*
X128478629Y-103511432D01*
X128384690Y-103579683D01*
X128384688Y-103579685D01*
X128384687Y-103579685D01*
X128217685Y-103746687D01*
X128217685Y-103746688D01*
X128217683Y-103746690D01*
X128209840Y-103757485D01*
X128078857Y-103937766D01*
X127971633Y-104148203D01*
X127898646Y-104372831D01*
X127861700Y-104606102D01*
X105536139Y-104606102D01*
X105527353Y-104550631D01*
X105454366Y-104326003D01*
X105386573Y-104192952D01*
X105347143Y-104115567D01*
X105208317Y-103924490D01*
X105041310Y-103757483D01*
X104850233Y-103618657D01*
X104639796Y-103511433D01*
X104415168Y-103438446D01*
X104181897Y-103401500D01*
X104181892Y-103401500D01*
X103945708Y-103401500D01*
X103945703Y-103401500D01*
X103712431Y-103438446D01*
X103487803Y-103511433D01*
X103277366Y-103618657D01*
X103172472Y-103694868D01*
X103086290Y-103757483D01*
X103086288Y-103757485D01*
X103086287Y-103757485D01*
X102919285Y-103924487D01*
X102919285Y-103924488D01*
X102919283Y-103924490D01*
X102909637Y-103937767D01*
X102780457Y-104115566D01*
X102673233Y-104326003D01*
X102600246Y-104550631D01*
X102563300Y-104783902D01*
X97223700Y-104783902D01*
X97223700Y-91512183D01*
X98284900Y-91512183D01*
X98284900Y-92282201D01*
X98284901Y-92282219D01*
X98295400Y-92384996D01*
X98295401Y-92384999D01*
X98350585Y-92551531D01*
X98350587Y-92551536D01*
X98361632Y-92569442D01*
X98441488Y-92698910D01*
X98459928Y-92766302D01*
X98443244Y-92823441D01*
X98444209Y-92823933D01*
X98364426Y-92980514D01*
X98311628Y-93143010D01*
X98284900Y-93311763D01*
X98284900Y-93482636D01*
X98288375Y-93504574D01*
X98311628Y-93651389D01*
X98364427Y-93813888D01*
X98441997Y-93966126D01*
X98441999Y-93966129D01*
X98520600Y-94074315D01*
X98544080Y-94140121D01*
X98528254Y-94208175D01*
X98520600Y-94220085D01*
X98441999Y-94328270D01*
X98364426Y-94480514D01*
X98311628Y-94643010D01*
X98284900Y-94811763D01*
X98284900Y-94982636D01*
X98307561Y-95125710D01*
X98311628Y-95151389D01*
X98364427Y-95313888D01*
X98441997Y-95466126D01*
X98542427Y-95604356D01*
X98663244Y-95725173D01*
X98801474Y-95825603D01*
X98953712Y-95903173D01*
X99116211Y-95955972D01*
X99203155Y-95969742D01*
X99284964Y-95982700D01*
X99284969Y-95982700D01*
X100155836Y-95982700D01*
X100230413Y-95970887D01*
X100324589Y-95955972D01*
X100487088Y-95903173D01*
X100639326Y-95825603D01*
X100777556Y-95725173D01*
X100898373Y-95604356D01*
X100998803Y-95466126D01*
X101076373Y-95313888D01*
X101129172Y-95151389D01*
X101144087Y-95057213D01*
X101155900Y-94982636D01*
X101155900Y-94811763D01*
X101139025Y-94705222D01*
X101129172Y-94643011D01*
X101076373Y-94480512D01*
X100998803Y-94328274D01*
X100920198Y-94220083D01*
X100896719Y-94154280D01*
X100912544Y-94086226D01*
X100920192Y-94074323D01*
X100998803Y-93966126D01*
X101076373Y-93813888D01*
X101129172Y-93651389D01*
X101152425Y-93504573D01*
X101155900Y-93482636D01*
X101155900Y-93311763D01*
X101141725Y-93222269D01*
X101129172Y-93143011D01*
X101076373Y-92980512D01*
X100998803Y-92828274D01*
X100998802Y-92828273D01*
X100996591Y-92823933D01*
X100997665Y-92823385D01*
X100980878Y-92761374D01*
X100999309Y-92698914D01*
X101090214Y-92551534D01*
X101145399Y-92384997D01*
X101155900Y-92282209D01*
X101155899Y-91512192D01*
X101145399Y-91409403D01*
X101090214Y-91242866D01*
X100998112Y-91093544D01*
X100874056Y-90969488D01*
X100724734Y-90877386D01*
X100558197Y-90822201D01*
X100558195Y-90822200D01*
X100455410Y-90811700D01*
X98985398Y-90811700D01*
X98985381Y-90811701D01*
X98882603Y-90822200D01*
X98882600Y-90822201D01*
X98716068Y-90877385D01*
X98716063Y-90877387D01*
X98566742Y-90969489D01*
X98442689Y-91093542D01*
X98350587Y-91242863D01*
X98350586Y-91242866D01*
X98295401Y-91409403D01*
X98295401Y-91409404D01*
X98295400Y-91409404D01*
X98284900Y-91512183D01*
X97223700Y-91512183D01*
X97223700Y-69566583D01*
X98056300Y-69566583D01*
X98056300Y-70336601D01*
X98056301Y-70336619D01*
X98066800Y-70439396D01*
X98066801Y-70439399D01*
X98103450Y-70549997D01*
X98121986Y-70605934D01*
X98212888Y-70753310D01*
X98231328Y-70820702D01*
X98214644Y-70877841D01*
X98215609Y-70878333D01*
X98213397Y-70882673D01*
X98213397Y-70882674D01*
X98162048Y-70983451D01*
X98135826Y-71034914D01*
X98083028Y-71197410D01*
X98056300Y-71366163D01*
X98056300Y-71537036D01*
X98083028Y-71705789D01*
X98119267Y-71817323D01*
X98135827Y-71868288D01*
X98199100Y-71992466D01*
X98213399Y-72020529D01*
X98292000Y-72128715D01*
X98315480Y-72194521D01*
X98299654Y-72262575D01*
X98292000Y-72274485D01*
X98213399Y-72382670D01*
X98135826Y-72534914D01*
X98083028Y-72697410D01*
X98056300Y-72866163D01*
X98056300Y-73037036D01*
X98065970Y-73098087D01*
X98083028Y-73205789D01*
X98135827Y-73368288D01*
X98213397Y-73520526D01*
X98213399Y-73520529D01*
X98292000Y-73628715D01*
X98315480Y-73694521D01*
X98299654Y-73762575D01*
X98292000Y-73774485D01*
X98213399Y-73882670D01*
X98135826Y-74034914D01*
X98083028Y-74197410D01*
X98056300Y-74366163D01*
X98056300Y-74537036D01*
X98083028Y-74705789D01*
X98118636Y-74815381D01*
X98135827Y-74868288D01*
X98213397Y-75020526D01*
X98213399Y-75020529D01*
X98292000Y-75128715D01*
X98315480Y-75194521D01*
X98299654Y-75262575D01*
X98292000Y-75274485D01*
X98213399Y-75382670D01*
X98135826Y-75534914D01*
X98083028Y-75697410D01*
X98056300Y-75866163D01*
X98056300Y-76037036D01*
X98081030Y-76193176D01*
X98083028Y-76205789D01*
X98135827Y-76368288D01*
X98210573Y-76514983D01*
X98213399Y-76520529D01*
X98292000Y-76628715D01*
X98315480Y-76694521D01*
X98299654Y-76762575D01*
X98292000Y-76774485D01*
X98213399Y-76882670D01*
X98135826Y-77034914D01*
X98083028Y-77197410D01*
X98056300Y-77366163D01*
X98056300Y-77537036D01*
X98065970Y-77598087D01*
X98083028Y-77705789D01*
X98135827Y-77868288D01*
X98213397Y-78020526D01*
X98213399Y-78020529D01*
X98292000Y-78128715D01*
X98315480Y-78194521D01*
X98299654Y-78262575D01*
X98292000Y-78274485D01*
X98213399Y-78382670D01*
X98135826Y-78534914D01*
X98083028Y-78697410D01*
X98056300Y-78866163D01*
X98056300Y-79037036D01*
X98083028Y-79205789D01*
X98135827Y-79368288D01*
X98213397Y-79520526D01*
X98213399Y-79520529D01*
X98292000Y-79628715D01*
X98315480Y-79694521D01*
X98299654Y-79762575D01*
X98292000Y-79774485D01*
X98213399Y-79882670D01*
X98135826Y-80034914D01*
X98083028Y-80197410D01*
X98056300Y-80366163D01*
X98056300Y-80537036D01*
X98080977Y-80692841D01*
X98083028Y-80705789D01*
X98135827Y-80868288D01*
X98210573Y-81014983D01*
X98213399Y-81020529D01*
X98292000Y-81128715D01*
X98315480Y-81194521D01*
X98299654Y-81262575D01*
X98292000Y-81274485D01*
X98213399Y-81382670D01*
X98135826Y-81534914D01*
X98083028Y-81697410D01*
X98056300Y-81866163D01*
X98056300Y-82037036D01*
X98083028Y-82205789D01*
X98106872Y-82279175D01*
X98135827Y-82368288D01*
X98213397Y-82520526D01*
X98213399Y-82520529D01*
X98292000Y-82628715D01*
X98315480Y-82694521D01*
X98299654Y-82762575D01*
X98292000Y-82774485D01*
X98213399Y-82882670D01*
X98135826Y-83034914D01*
X98083028Y-83197410D01*
X98056300Y-83366163D01*
X98056300Y-83537036D01*
X98079489Y-83683445D01*
X98083028Y-83705789D01*
X98135827Y-83868288D01*
X98213397Y-84020526D01*
X98313827Y-84158756D01*
X98434644Y-84279573D01*
X98572874Y-84380003D01*
X98725112Y-84457573D01*
X98887611Y-84510372D01*
X98965304Y-84522677D01*
X99056364Y-84537100D01*
X99056369Y-84537100D01*
X99927236Y-84537100D01*
X100001813Y-84525287D01*
X100095989Y-84510372D01*
X100258488Y-84457573D01*
X100410726Y-84380003D01*
X100548956Y-84279573D01*
X100669773Y-84158756D01*
X100770203Y-84020526D01*
X100847773Y-83868288D01*
X100900572Y-83705789D01*
X100915487Y-83611613D01*
X100927300Y-83537036D01*
X100927300Y-83366163D01*
X100908901Y-83250000D01*
X100900572Y-83197411D01*
X100847773Y-83034912D01*
X100770203Y-82882674D01*
X100691598Y-82774483D01*
X100668119Y-82708680D01*
X100683944Y-82640626D01*
X100691592Y-82628723D01*
X100770203Y-82520526D01*
X100847773Y-82368288D01*
X100900572Y-82205789D01*
X100915487Y-82111613D01*
X100927300Y-82037036D01*
X100927300Y-81866163D01*
X100913125Y-81776669D01*
X100900572Y-81697411D01*
X100847773Y-81534912D01*
X100770203Y-81382674D01*
X100691598Y-81274483D01*
X100668119Y-81208680D01*
X100683944Y-81140626D01*
X100691592Y-81128723D01*
X100770203Y-81020526D01*
X100847773Y-80868288D01*
X100900572Y-80705789D01*
X100921757Y-80572029D01*
X100927300Y-80537036D01*
X100927300Y-80366163D01*
X100913106Y-80276548D01*
X100900572Y-80197411D01*
X100847773Y-80034912D01*
X100770203Y-79882674D01*
X100691598Y-79774483D01*
X100668119Y-79708680D01*
X100683944Y-79640626D01*
X100691592Y-79628723D01*
X100770203Y-79520526D01*
X100847773Y-79368288D01*
X100900572Y-79205789D01*
X100915487Y-79111613D01*
X100927300Y-79037036D01*
X100927300Y-78866163D01*
X100913125Y-78776669D01*
X100900572Y-78697411D01*
X100847773Y-78534912D01*
X100770203Y-78382674D01*
X100691598Y-78274483D01*
X100668119Y-78208680D01*
X100683944Y-78140626D01*
X100691592Y-78128723D01*
X100770203Y-78020526D01*
X100847773Y-77868288D01*
X100900572Y-77705789D01*
X100917630Y-77598087D01*
X100927300Y-77537036D01*
X100927300Y-77366163D01*
X100900851Y-77199175D01*
X100900572Y-77197411D01*
X100847773Y-77034912D01*
X100770203Y-76882674D01*
X100691598Y-76774483D01*
X100668119Y-76708680D01*
X100683944Y-76640626D01*
X100691592Y-76628723D01*
X100770203Y-76520526D01*
X100847773Y-76368288D01*
X100900572Y-76205789D01*
X100921447Y-76073989D01*
X100927300Y-76037036D01*
X100927300Y-75866163D01*
X100913125Y-75776669D01*
X100900572Y-75697411D01*
X100847773Y-75534912D01*
X100770203Y-75382674D01*
X100691598Y-75274483D01*
X100668119Y-75208680D01*
X100683944Y-75140626D01*
X100691592Y-75128723D01*
X100770203Y-75020526D01*
X100847773Y-74868288D01*
X100900572Y-74705789D01*
X100915487Y-74611613D01*
X100927300Y-74537036D01*
X100927300Y-74366163D01*
X100908524Y-74247618D01*
X100900572Y-74197411D01*
X100847773Y-74034912D01*
X100770203Y-73882674D01*
X100691598Y-73774483D01*
X100668119Y-73708680D01*
X100683944Y-73640626D01*
X100691592Y-73628723D01*
X100770203Y-73520526D01*
X100847773Y-73368288D01*
X100900572Y-73205789D01*
X100917630Y-73098087D01*
X100927300Y-73037036D01*
X100927300Y-72866163D01*
X100913125Y-72776669D01*
X100900572Y-72697411D01*
X100847773Y-72534912D01*
X100770203Y-72382674D01*
X100691598Y-72274483D01*
X100668119Y-72208680D01*
X100683944Y-72140626D01*
X100691592Y-72128723D01*
X100770203Y-72020526D01*
X100847773Y-71868288D01*
X100900572Y-71705789D01*
X100921447Y-71573989D01*
X100927300Y-71537036D01*
X100927300Y-71366163D01*
X100913125Y-71276669D01*
X100900572Y-71197411D01*
X100847773Y-71034912D01*
X100770203Y-70882674D01*
X100770202Y-70882673D01*
X100767991Y-70878333D01*
X100769065Y-70877785D01*
X100752278Y-70815774D01*
X100770709Y-70753314D01*
X100861614Y-70605934D01*
X100916799Y-70439397D01*
X100927300Y-70336609D01*
X100927299Y-69566592D01*
X100923327Y-69527712D01*
X100916799Y-69463803D01*
X100916798Y-69463800D01*
X100912056Y-69449490D01*
X100861614Y-69297266D01*
X100769512Y-69147944D01*
X100645456Y-69023888D01*
X100496134Y-68931786D01*
X100329597Y-68876601D01*
X100329595Y-68876600D01*
X100226810Y-68866100D01*
X98756798Y-68866100D01*
X98756781Y-68866101D01*
X98654003Y-68876600D01*
X98654000Y-68876601D01*
X98487468Y-68931785D01*
X98487463Y-68931787D01*
X98338142Y-69023889D01*
X98214089Y-69147942D01*
X98121987Y-69297263D01*
X98121985Y-69297268D01*
X98105219Y-69347865D01*
X98066801Y-69463803D01*
X98066801Y-69463804D01*
X98066800Y-69463804D01*
X98056300Y-69566583D01*
X97223700Y-69566583D01*
X97223700Y-65469997D01*
X101512677Y-65469997D01*
X101512677Y-65470002D01*
X101531929Y-65690062D01*
X101531930Y-65690070D01*
X101589104Y-65903445D01*
X101589105Y-65903447D01*
X101589106Y-65903450D01*
X101682466Y-66103662D01*
X101682468Y-66103666D01*
X101809170Y-66284615D01*
X101809175Y-66284621D01*
X101965378Y-66440824D01*
X101965384Y-66440829D01*
X102146333Y-66567531D01*
X102146335Y-66567532D01*
X102146338Y-66567534D01*
X102265748Y-66623215D01*
X102275189Y-66627618D01*
X102327628Y-66673790D01*
X102346780Y-66740984D01*
X102326564Y-66807865D01*
X102275189Y-66852382D01*
X102146340Y-66912465D01*
X102146338Y-66912466D01*
X101965377Y-67039175D01*
X101809175Y-67195377D01*
X101682466Y-67376338D01*
X101682465Y-67376340D01*
X101589107Y-67576548D01*
X101589104Y-67576554D01*
X101531930Y-67789929D01*
X101531929Y-67789937D01*
X101512677Y-68009997D01*
X101512677Y-68010002D01*
X101531929Y-68230062D01*
X101531930Y-68230070D01*
X101589104Y-68443445D01*
X101589105Y-68443447D01*
X101589106Y-68443450D01*
X101615476Y-68500000D01*
X101682466Y-68643662D01*
X101682468Y-68643666D01*
X101809170Y-68824615D01*
X101809175Y-68824621D01*
X101965378Y-68980824D01*
X101965384Y-68980829D01*
X102146333Y-69107531D01*
X102146335Y-69107532D01*
X102146338Y-69107534D01*
X102232994Y-69147942D01*
X102275189Y-69167618D01*
X102327628Y-69213790D01*
X102346780Y-69280984D01*
X102326564Y-69347865D01*
X102275189Y-69392382D01*
X102146340Y-69452465D01*
X102146338Y-69452466D01*
X101965377Y-69579175D01*
X101809175Y-69735377D01*
X101682466Y-69916338D01*
X101682465Y-69916340D01*
X101589107Y-70116548D01*
X101589104Y-70116554D01*
X101531930Y-70329929D01*
X101531929Y-70329937D01*
X101512677Y-70549997D01*
X101512677Y-70550002D01*
X101531929Y-70770062D01*
X101531930Y-70770070D01*
X101589104Y-70983445D01*
X101589105Y-70983447D01*
X101589106Y-70983450D01*
X101613103Y-71034912D01*
X101682466Y-71183662D01*
X101682468Y-71183666D01*
X101809170Y-71364615D01*
X101809175Y-71364621D01*
X101965378Y-71520824D01*
X101965384Y-71520829D01*
X102146333Y-71647531D01*
X102146335Y-71647532D01*
X102146338Y-71647534D01*
X102243506Y-71692844D01*
X102275189Y-71707618D01*
X102327628Y-71753790D01*
X102346780Y-71820984D01*
X102326564Y-71887865D01*
X102275189Y-71932382D01*
X102146340Y-71992465D01*
X102146338Y-71992466D01*
X101965377Y-72119175D01*
X101809175Y-72275377D01*
X101682466Y-72456338D01*
X101682465Y-72456340D01*
X101589107Y-72656548D01*
X101589104Y-72656554D01*
X101531930Y-72869929D01*
X101531929Y-72869937D01*
X101512677Y-73089997D01*
X101512677Y-73090002D01*
X101531929Y-73310062D01*
X101531930Y-73310070D01*
X101589104Y-73523445D01*
X101589105Y-73523447D01*
X101589106Y-73523450D01*
X101638191Y-73628714D01*
X101682466Y-73723662D01*
X101682468Y-73723666D01*
X101809170Y-73904615D01*
X101809175Y-73904621D01*
X101965378Y-74060824D01*
X101965384Y-74060829D01*
X102146333Y-74187531D01*
X102146335Y-74187532D01*
X102146338Y-74187534D01*
X102265748Y-74243215D01*
X102275189Y-74247618D01*
X102327628Y-74293790D01*
X102346780Y-74360984D01*
X102326564Y-74427865D01*
X102275189Y-74472382D01*
X102146340Y-74532465D01*
X102146338Y-74532466D01*
X101965377Y-74659175D01*
X101809175Y-74815377D01*
X101682466Y-74996338D01*
X101682465Y-74996340D01*
X101589107Y-75196548D01*
X101589104Y-75196554D01*
X101531930Y-75409929D01*
X101531929Y-75409937D01*
X101512677Y-75629997D01*
X101512677Y-75630002D01*
X101531929Y-75850062D01*
X101531930Y-75850070D01*
X101589104Y-76063445D01*
X101589105Y-76063447D01*
X101589106Y-76063450D01*
X101674073Y-76245663D01*
X101682466Y-76263662D01*
X101682468Y-76263666D01*
X101809170Y-76444615D01*
X101809175Y-76444621D01*
X101965378Y-76600824D01*
X101965384Y-76600829D01*
X102146333Y-76727531D01*
X102146335Y-76727532D01*
X102146338Y-76727534D01*
X102221484Y-76762575D01*
X102275189Y-76787618D01*
X102327628Y-76833790D01*
X102346780Y-76900984D01*
X102326564Y-76967865D01*
X102275189Y-77012382D01*
X102146340Y-77072465D01*
X102146338Y-77072466D01*
X101965377Y-77199175D01*
X101809175Y-77355377D01*
X101682466Y-77536338D01*
X101682465Y-77536340D01*
X101589107Y-77736548D01*
X101589104Y-77736554D01*
X101531930Y-77949929D01*
X101531929Y-77949937D01*
X101512677Y-78169997D01*
X101512677Y-78170002D01*
X101531929Y-78390062D01*
X101531930Y-78390070D01*
X101589104Y-78603445D01*
X101589105Y-78603447D01*
X101589106Y-78603450D01*
X101632920Y-78697410D01*
X101682466Y-78803662D01*
X101682468Y-78803666D01*
X101809170Y-78984615D01*
X101809175Y-78984621D01*
X101965378Y-79140824D01*
X101965384Y-79140829D01*
X102146333Y-79267531D01*
X102146335Y-79267532D01*
X102146338Y-79267534D01*
X102265748Y-79323215D01*
X102275189Y-79327618D01*
X102327628Y-79373790D01*
X102346780Y-79440984D01*
X102326564Y-79507865D01*
X102275189Y-79552382D01*
X102146340Y-79612465D01*
X102146338Y-79612466D01*
X101965377Y-79739175D01*
X101809175Y-79895377D01*
X101682466Y-80076338D01*
X101682465Y-80076340D01*
X101589107Y-80276548D01*
X101589104Y-80276554D01*
X101531930Y-80489929D01*
X101531929Y-80489937D01*
X101512677Y-80709997D01*
X101512677Y-80710002D01*
X101531929Y-80930062D01*
X101531930Y-80930070D01*
X101589104Y-81143445D01*
X101589105Y-81143447D01*
X101589106Y-81143450D01*
X101650209Y-81274486D01*
X101682466Y-81343662D01*
X101682468Y-81343666D01*
X101809170Y-81524615D01*
X101809175Y-81524621D01*
X101965378Y-81680824D01*
X101965384Y-81680829D01*
X102146333Y-81807531D01*
X102146335Y-81807532D01*
X102146338Y-81807534D01*
X102265748Y-81863215D01*
X102275189Y-81867618D01*
X102327628Y-81913790D01*
X102346780Y-81980984D01*
X102326564Y-82047865D01*
X102275189Y-82092382D01*
X102146340Y-82152465D01*
X102146338Y-82152466D01*
X101965377Y-82279175D01*
X101809175Y-82435377D01*
X101682466Y-82616338D01*
X101682465Y-82616340D01*
X101618119Y-82754331D01*
X101593487Y-82807156D01*
X101589107Y-82816548D01*
X101589104Y-82816554D01*
X101531930Y-83029929D01*
X101531929Y-83029937D01*
X101512677Y-83249997D01*
X101512677Y-83250002D01*
X101531929Y-83470062D01*
X101531930Y-83470070D01*
X101589104Y-83683445D01*
X101589105Y-83683447D01*
X101589106Y-83683450D01*
X101599523Y-83705789D01*
X101682466Y-83883662D01*
X101682468Y-83883666D01*
X101809170Y-84064615D01*
X101809175Y-84064621D01*
X101965378Y-84220824D01*
X101965384Y-84220829D01*
X102146333Y-84347531D01*
X102146335Y-84347532D01*
X102146338Y-84347534D01*
X102265748Y-84403215D01*
X102275189Y-84407618D01*
X102327628Y-84453790D01*
X102346780Y-84520984D01*
X102326564Y-84587865D01*
X102275189Y-84632382D01*
X102146340Y-84692465D01*
X102146338Y-84692466D01*
X101965377Y-84819175D01*
X101809175Y-84975377D01*
X101682466Y-85156338D01*
X101682465Y-85156340D01*
X101589107Y-85356548D01*
X101589104Y-85356554D01*
X101531930Y-85569929D01*
X101531929Y-85569937D01*
X101512677Y-85789997D01*
X101512677Y-85790002D01*
X101531929Y-86010062D01*
X101531930Y-86010070D01*
X101589104Y-86223445D01*
X101589105Y-86223447D01*
X101589106Y-86223450D01*
X101682466Y-86423662D01*
X101682468Y-86423666D01*
X101809170Y-86604615D01*
X101809175Y-86604621D01*
X101965378Y-86760824D01*
X101965384Y-86760829D01*
X102146333Y-86887531D01*
X102146335Y-86887532D01*
X102146338Y-86887534D01*
X102265748Y-86943215D01*
X102275189Y-86947618D01*
X102327628Y-86993790D01*
X102346780Y-87060984D01*
X102326564Y-87127865D01*
X102275189Y-87172382D01*
X102146340Y-87232465D01*
X102146338Y-87232466D01*
X101965377Y-87359175D01*
X101809175Y-87515377D01*
X101682466Y-87696338D01*
X101682465Y-87696340D01*
X101589107Y-87896548D01*
X101589104Y-87896554D01*
X101531930Y-88109929D01*
X101531929Y-88109937D01*
X101512677Y-88329997D01*
X101512677Y-88330002D01*
X101531929Y-88550062D01*
X101531930Y-88550070D01*
X101589104Y-88763445D01*
X101589105Y-88763447D01*
X101589106Y-88763450D01*
X101682466Y-88963662D01*
X101682468Y-88963666D01*
X101809170Y-89144615D01*
X101809175Y-89144621D01*
X101965378Y-89300824D01*
X101965384Y-89300829D01*
X102146333Y-89427531D01*
X102146335Y-89427532D01*
X102146338Y-89427534D01*
X102265748Y-89483215D01*
X102275189Y-89487618D01*
X102327628Y-89533790D01*
X102346780Y-89600984D01*
X102326564Y-89667865D01*
X102275189Y-89712382D01*
X102146340Y-89772465D01*
X102146338Y-89772466D01*
X101965377Y-89899175D01*
X101809175Y-90055377D01*
X101682466Y-90236338D01*
X101682465Y-90236340D01*
X101589107Y-90436548D01*
X101589104Y-90436554D01*
X101531930Y-90649929D01*
X101531929Y-90649937D01*
X101512677Y-90869997D01*
X101512677Y-90870002D01*
X101531929Y-91090062D01*
X101531930Y-91090070D01*
X101589104Y-91303445D01*
X101589105Y-91303447D01*
X101589106Y-91303450D01*
X101638513Y-91409404D01*
X101682466Y-91503662D01*
X101682468Y-91503666D01*
X101809170Y-91684615D01*
X101809175Y-91684621D01*
X101965378Y-91840824D01*
X101965384Y-91840829D01*
X102146333Y-91967531D01*
X102146335Y-91967532D01*
X102146338Y-91967534D01*
X102265748Y-92023215D01*
X102275189Y-92027618D01*
X102327628Y-92073790D01*
X102346780Y-92140984D01*
X102326564Y-92207865D01*
X102275189Y-92252382D01*
X102146340Y-92312465D01*
X102146338Y-92312466D01*
X101965377Y-92439175D01*
X101809175Y-92595377D01*
X101682466Y-92776338D01*
X101682465Y-92776340D01*
X101589107Y-92976548D01*
X101589104Y-92976554D01*
X101531930Y-93189929D01*
X101531929Y-93189937D01*
X101512677Y-93409997D01*
X101512677Y-93410002D01*
X101531929Y-93630062D01*
X101531930Y-93630070D01*
X101589104Y-93843445D01*
X101589105Y-93843447D01*
X101589106Y-93843450D01*
X101646311Y-93966126D01*
X101682466Y-94043662D01*
X101682468Y-94043666D01*
X101809170Y-94224615D01*
X101809175Y-94224621D01*
X101965378Y-94380824D01*
X101965384Y-94380829D01*
X102146333Y-94507531D01*
X102146335Y-94507532D01*
X102146338Y-94507534D01*
X102232078Y-94547515D01*
X102275189Y-94567618D01*
X102327628Y-94613790D01*
X102346780Y-94680984D01*
X102326564Y-94747865D01*
X102275189Y-94792382D01*
X102146340Y-94852465D01*
X102146338Y-94852466D01*
X101965377Y-94979175D01*
X101809175Y-95135377D01*
X101682466Y-95316338D01*
X101682465Y-95316340D01*
X101589107Y-95516548D01*
X101589104Y-95516554D01*
X101531930Y-95729929D01*
X101531929Y-95729937D01*
X101512677Y-95949997D01*
X101512677Y-95950002D01*
X101531929Y-96170062D01*
X101531930Y-96170070D01*
X101589104Y-96383445D01*
X101589105Y-96383447D01*
X101589106Y-96383450D01*
X101682466Y-96583662D01*
X101682468Y-96583666D01*
X101809170Y-96764615D01*
X101809175Y-96764621D01*
X101965378Y-96920824D01*
X101965384Y-96920829D01*
X102146333Y-97047531D01*
X102146335Y-97047532D01*
X102146338Y-97047534D01*
X102275781Y-97107894D01*
X102328220Y-97154066D01*
X102347372Y-97221260D01*
X102327156Y-97288141D01*
X102275781Y-97332658D01*
X102146590Y-97392901D01*
X102081811Y-97438258D01*
X102752553Y-98109000D01*
X102729840Y-98109000D01*
X102632939Y-98134964D01*
X102546060Y-98185124D01*
X102475124Y-98256060D01*
X102424964Y-98342939D01*
X102399000Y-98439840D01*
X102399000Y-98462553D01*
X101728258Y-97791811D01*
X101682901Y-97856590D01*
X101589579Y-98056720D01*
X101589575Y-98056729D01*
X101532426Y-98270013D01*
X101532424Y-98270023D01*
X101513179Y-98489999D01*
X101513179Y-98490000D01*
X101532424Y-98709976D01*
X101532426Y-98709986D01*
X101589575Y-98923270D01*
X101589580Y-98923284D01*
X101682898Y-99123405D01*
X101682901Y-99123411D01*
X101728258Y-99188187D01*
X101728259Y-99188188D01*
X102399000Y-98517447D01*
X102399000Y-98540160D01*
X102424964Y-98637061D01*
X102475124Y-98723940D01*
X102546060Y-98794876D01*
X102632939Y-98845036D01*
X102729840Y-98871000D01*
X102752553Y-98871000D01*
X102081810Y-99541740D01*
X102146589Y-99587098D01*
X102275781Y-99647342D01*
X102328220Y-99693514D01*
X102347372Y-99760708D01*
X102327156Y-99827589D01*
X102275781Y-99872106D01*
X102146340Y-99932465D01*
X102146338Y-99932466D01*
X101965377Y-100059175D01*
X101809175Y-100215377D01*
X101682466Y-100396338D01*
X101682465Y-100396340D01*
X101589107Y-100596548D01*
X101589104Y-100596554D01*
X101531930Y-100809929D01*
X101531929Y-100809937D01*
X101512677Y-101029997D01*
X101512677Y-101030002D01*
X101531929Y-101250062D01*
X101531930Y-101250070D01*
X101589104Y-101463445D01*
X101589105Y-101463447D01*
X101589106Y-101463450D01*
X101612334Y-101513262D01*
X101682466Y-101663662D01*
X101682468Y-101663666D01*
X101809170Y-101844615D01*
X101809175Y-101844621D01*
X101965378Y-102000824D01*
X101965384Y-102000829D01*
X102146333Y-102127531D01*
X102146335Y-102127532D01*
X102146338Y-102127534D01*
X102346550Y-102220894D01*
X102559932Y-102278070D01*
X102717123Y-102291822D01*
X102779998Y-102297323D01*
X102780000Y-102297323D01*
X102780002Y-102297323D01*
X102835017Y-102292509D01*
X103000068Y-102278070D01*
X103213450Y-102220894D01*
X103413662Y-102127534D01*
X103594620Y-102000826D01*
X103750826Y-101844620D01*
X103877534Y-101663662D01*
X103970894Y-101463450D01*
X104028070Y-101250068D01*
X104043872Y-101069441D01*
X104047323Y-101030002D01*
X104047323Y-101029997D01*
X104040103Y-100947474D01*
X104028070Y-100809932D01*
X103970894Y-100596550D01*
X103877534Y-100396339D01*
X103750826Y-100215380D01*
X103594620Y-100059174D01*
X103594616Y-100059171D01*
X103594615Y-100059170D01*
X103413666Y-99932468D01*
X103413662Y-99932466D01*
X103284218Y-99872105D01*
X103231779Y-99825932D01*
X103212627Y-99758739D01*
X103232843Y-99691858D01*
X103284219Y-99647340D01*
X103413416Y-99587095D01*
X103413417Y-99587094D01*
X103478188Y-99541741D01*
X102807448Y-98871000D01*
X102830160Y-98871000D01*
X102927061Y-98845036D01*
X103013940Y-98794876D01*
X103084876Y-98723940D01*
X103135036Y-98637061D01*
X103161000Y-98540160D01*
X103161000Y-98517447D01*
X103831741Y-99188188D01*
X103877094Y-99123417D01*
X103877100Y-99123407D01*
X103970419Y-98923284D01*
X103970424Y-98923270D01*
X104027573Y-98709986D01*
X104027575Y-98709976D01*
X104046821Y-98490000D01*
X104046821Y-98489999D01*
X104027575Y-98270023D01*
X104027573Y-98270013D01*
X103970424Y-98056729D01*
X103970420Y-98056720D01*
X103877096Y-97856586D01*
X103831741Y-97791811D01*
X103831740Y-97791810D01*
X103161000Y-98462551D01*
X103161000Y-98439840D01*
X103135036Y-98342939D01*
X103084876Y-98256060D01*
X103013940Y-98185124D01*
X102927061Y-98134964D01*
X102830160Y-98109000D01*
X102807448Y-98109000D01*
X103478188Y-97438259D01*
X103478187Y-97438258D01*
X103413411Y-97392901D01*
X103413405Y-97392898D01*
X103284219Y-97332658D01*
X103231779Y-97286486D01*
X103212627Y-97219293D01*
X103232843Y-97152411D01*
X103284219Y-97107894D01*
X103413662Y-97047534D01*
X103594620Y-96920826D01*
X103750826Y-96764620D01*
X103877534Y-96583662D01*
X103970894Y-96383450D01*
X104028070Y-96170068D01*
X104047323Y-95950000D01*
X104028070Y-95729932D01*
X103970894Y-95516550D01*
X103877534Y-95316339D01*
X103750826Y-95135380D01*
X103594620Y-94979174D01*
X103594616Y-94979171D01*
X103594615Y-94979170D01*
X103413666Y-94852468D01*
X103413658Y-94852464D01*
X103284811Y-94792382D01*
X103232371Y-94746210D01*
X103213219Y-94679017D01*
X103233435Y-94612135D01*
X103284811Y-94567618D01*
X103327922Y-94547515D01*
X103413662Y-94507534D01*
X103594620Y-94380826D01*
X103750826Y-94224620D01*
X103877534Y-94043662D01*
X103970894Y-93843450D01*
X104028070Y-93630068D01*
X104047323Y-93410000D01*
X104028070Y-93189932D01*
X103970894Y-92976550D01*
X103877534Y-92776339D01*
X103770694Y-92623754D01*
X103750827Y-92595381D01*
X103702963Y-92547517D01*
X103594620Y-92439174D01*
X103594616Y-92439171D01*
X103594615Y-92439170D01*
X103413666Y-92312468D01*
X103413658Y-92312464D01*
X103284811Y-92252382D01*
X103232371Y-92206210D01*
X103213219Y-92139017D01*
X103233435Y-92072135D01*
X103284811Y-92027618D01*
X103290802Y-92024824D01*
X103413662Y-91967534D01*
X103594620Y-91840826D01*
X103750826Y-91684620D01*
X103877534Y-91503662D01*
X103970894Y-91303450D01*
X104028070Y-91090068D01*
X104047323Y-90870000D01*
X104028070Y-90649932D01*
X103970894Y-90436550D01*
X103877534Y-90236339D01*
X103750826Y-90055380D01*
X103594620Y-89899174D01*
X103594616Y-89899171D01*
X103594615Y-89899170D01*
X103413666Y-89772468D01*
X103413658Y-89772464D01*
X103284811Y-89712382D01*
X103232371Y-89666210D01*
X103213219Y-89599017D01*
X103233435Y-89532135D01*
X103284811Y-89487618D01*
X103290802Y-89484824D01*
X103413662Y-89427534D01*
X103594620Y-89300826D01*
X103750826Y-89144620D01*
X103877534Y-88963662D01*
X103970894Y-88763450D01*
X104028070Y-88550068D01*
X104047323Y-88330000D01*
X104045953Y-88314345D01*
X104028070Y-88109937D01*
X104028070Y-88109932D01*
X103970894Y-87896550D01*
X103877534Y-87696339D01*
X103806401Y-87594750D01*
X103750827Y-87515381D01*
X103731445Y-87495999D01*
X103594620Y-87359174D01*
X103594616Y-87359171D01*
X103594615Y-87359170D01*
X103413666Y-87232468D01*
X103413658Y-87232464D01*
X103284811Y-87172382D01*
X103232371Y-87126210D01*
X103213219Y-87059017D01*
X103233435Y-86992135D01*
X103284811Y-86947618D01*
X103290802Y-86944824D01*
X103413662Y-86887534D01*
X103594620Y-86760826D01*
X103750826Y-86604620D01*
X103877534Y-86423662D01*
X103970894Y-86223450D01*
X104028070Y-86010068D01*
X104047323Y-85790000D01*
X104028070Y-85569932D01*
X103970894Y-85356550D01*
X103877534Y-85156339D01*
X103750826Y-84975380D01*
X103594620Y-84819174D01*
X103594616Y-84819171D01*
X103594615Y-84819170D01*
X103413666Y-84692468D01*
X103413658Y-84692464D01*
X103284811Y-84632382D01*
X103232371Y-84586210D01*
X103213219Y-84519017D01*
X103233435Y-84452135D01*
X103284811Y-84407618D01*
X103290802Y-84404824D01*
X103413662Y-84347534D01*
X103594620Y-84220826D01*
X103750826Y-84064620D01*
X103877534Y-83883662D01*
X103970894Y-83683450D01*
X104028070Y-83470068D01*
X104047323Y-83250000D01*
X104028070Y-83029932D01*
X103970894Y-82816550D01*
X103877534Y-82616339D01*
X103750826Y-82435380D01*
X103594620Y-82279174D01*
X103594616Y-82279171D01*
X103594615Y-82279170D01*
X103413666Y-82152468D01*
X103413658Y-82152464D01*
X103284811Y-82092382D01*
X103232371Y-82046210D01*
X103213219Y-81979017D01*
X103233435Y-81912135D01*
X103284811Y-81867618D01*
X103290802Y-81864824D01*
X103413662Y-81807534D01*
X103594620Y-81680826D01*
X103750826Y-81524620D01*
X103877534Y-81343662D01*
X103970894Y-81143450D01*
X104028070Y-80930068D01*
X104047323Y-80710000D01*
X104028070Y-80489932D01*
X103970894Y-80276550D01*
X103877534Y-80076339D01*
X103750826Y-79895380D01*
X103594620Y-79739174D01*
X103594616Y-79739171D01*
X103594615Y-79739170D01*
X103413666Y-79612468D01*
X103413658Y-79612464D01*
X103284811Y-79552382D01*
X103232371Y-79506210D01*
X103213219Y-79439017D01*
X103233435Y-79372135D01*
X103284811Y-79327618D01*
X103290802Y-79324824D01*
X103413662Y-79267534D01*
X103594620Y-79140826D01*
X103750826Y-78984620D01*
X103877534Y-78803662D01*
X103970894Y-78603450D01*
X104028070Y-78390068D01*
X104047323Y-78170000D01*
X104047206Y-78168667D01*
X104033910Y-78016688D01*
X104028070Y-77949932D01*
X103970894Y-77736550D01*
X103877534Y-77536339D01*
X103814180Y-77445859D01*
X103750827Y-77355381D01*
X103702715Y-77307269D01*
X103594620Y-77199174D01*
X103594616Y-77199171D01*
X103594615Y-77199170D01*
X103413666Y-77072468D01*
X103413658Y-77072464D01*
X103284811Y-77012382D01*
X103232371Y-76966210D01*
X103213219Y-76899017D01*
X103233435Y-76832135D01*
X103284811Y-76787618D01*
X103290802Y-76784824D01*
X103413662Y-76727534D01*
X103594620Y-76600826D01*
X103750826Y-76444620D01*
X103877534Y-76263662D01*
X103970894Y-76063450D01*
X104028070Y-75850068D01*
X104047323Y-75630000D01*
X104028070Y-75409932D01*
X103970894Y-75196550D01*
X103877534Y-74996339D01*
X103750826Y-74815380D01*
X103594620Y-74659174D01*
X103594616Y-74659171D01*
X103594615Y-74659170D01*
X103413666Y-74532468D01*
X103413658Y-74532464D01*
X103284811Y-74472382D01*
X103232371Y-74426210D01*
X103213219Y-74359017D01*
X103233435Y-74292135D01*
X103284811Y-74247618D01*
X103290802Y-74244824D01*
X103413662Y-74187534D01*
X103594620Y-74060826D01*
X103750826Y-73904620D01*
X103877534Y-73723662D01*
X103970894Y-73523450D01*
X104028070Y-73310068D01*
X104042509Y-73145017D01*
X104047323Y-73090002D01*
X104047323Y-73089997D01*
X104028070Y-72869937D01*
X104028070Y-72869932D01*
X103970894Y-72656550D01*
X103877534Y-72456339D01*
X103750826Y-72275380D01*
X103594620Y-72119174D01*
X103594616Y-72119171D01*
X103594615Y-72119170D01*
X103413666Y-71992468D01*
X103413658Y-71992464D01*
X103284811Y-71932382D01*
X103232371Y-71886210D01*
X103213219Y-71819017D01*
X103233435Y-71752135D01*
X103284811Y-71707618D01*
X103315782Y-71693176D01*
X103413662Y-71647534D01*
X103594620Y-71520826D01*
X103750826Y-71364620D01*
X103877534Y-71183662D01*
X103970894Y-70983450D01*
X104028070Y-70770068D01*
X104047323Y-70550000D01*
X104028070Y-70329932D01*
X103970894Y-70116550D01*
X103877534Y-69916339D01*
X103750826Y-69735380D01*
X103594620Y-69579174D01*
X103594616Y-69579171D01*
X103594615Y-69579170D01*
X103413666Y-69452468D01*
X103413658Y-69452464D01*
X103284811Y-69392382D01*
X103232371Y-69346210D01*
X103213219Y-69279017D01*
X103233435Y-69212135D01*
X103284811Y-69167618D01*
X103327006Y-69147942D01*
X103413662Y-69107534D01*
X103594620Y-68980826D01*
X103750826Y-68824620D01*
X103877534Y-68643662D01*
X103970894Y-68443450D01*
X104028070Y-68230068D01*
X104047323Y-68010000D01*
X104044952Y-67982903D01*
X104037867Y-67901913D01*
X104028070Y-67789932D01*
X103970894Y-67576550D01*
X103877534Y-67376339D01*
X103786038Y-67245668D01*
X103750827Y-67195381D01*
X103748290Y-67192844D01*
X103594620Y-67039174D01*
X103594616Y-67039171D01*
X103594615Y-67039170D01*
X103413666Y-66912468D01*
X103413658Y-66912464D01*
X103284811Y-66852382D01*
X103232371Y-66806210D01*
X103213219Y-66739017D01*
X103233435Y-66672135D01*
X103284811Y-66627618D01*
X103290802Y-66624824D01*
X103413662Y-66567534D01*
X103594620Y-66440826D01*
X103750826Y-66284620D01*
X103877534Y-66103662D01*
X103970894Y-65903450D01*
X104028070Y-65690068D01*
X104047323Y-65470000D01*
X104047323Y-65469997D01*
X129452677Y-65469997D01*
X129452677Y-65470002D01*
X129471929Y-65690062D01*
X129471930Y-65690070D01*
X129529104Y-65903445D01*
X129529105Y-65903447D01*
X129529106Y-65903450D01*
X129622466Y-66103662D01*
X129622468Y-66103666D01*
X129749170Y-66284615D01*
X129749175Y-66284621D01*
X129905378Y-66440824D01*
X129905384Y-66440829D01*
X130086333Y-66567531D01*
X130086335Y-66567532D01*
X130086338Y-66567534D01*
X130205748Y-66623215D01*
X130215189Y-66627618D01*
X130267628Y-66673790D01*
X130286780Y-66740984D01*
X130266564Y-66807865D01*
X130215189Y-66852382D01*
X130086340Y-66912465D01*
X130086338Y-66912466D01*
X129905377Y-67039175D01*
X129749175Y-67195377D01*
X129622466Y-67376338D01*
X129622465Y-67376340D01*
X129529107Y-67576548D01*
X129529104Y-67576554D01*
X129471930Y-67789929D01*
X129471929Y-67789937D01*
X129452677Y-68009997D01*
X129452677Y-68010002D01*
X129471929Y-68230062D01*
X129471930Y-68230070D01*
X129529104Y-68443445D01*
X129529105Y-68443447D01*
X129529106Y-68443450D01*
X129555476Y-68500000D01*
X129622466Y-68643662D01*
X129622468Y-68643666D01*
X129749170Y-68824615D01*
X129749175Y-68824621D01*
X129905378Y-68980824D01*
X129905384Y-68980829D01*
X130086333Y-69107531D01*
X130086335Y-69107532D01*
X130086338Y-69107534D01*
X130172994Y-69147942D01*
X130215189Y-69167618D01*
X130267628Y-69213790D01*
X130286780Y-69280984D01*
X130266564Y-69347865D01*
X130215189Y-69392382D01*
X130086340Y-69452465D01*
X130086338Y-69452466D01*
X129905377Y-69579175D01*
X129749175Y-69735377D01*
X129622466Y-69916338D01*
X129622465Y-69916340D01*
X129529107Y-70116548D01*
X129529104Y-70116554D01*
X129471930Y-70329929D01*
X129471929Y-70329937D01*
X129452677Y-70549997D01*
X129452677Y-70550002D01*
X129471929Y-70770062D01*
X129471930Y-70770070D01*
X129529104Y-70983445D01*
X129529105Y-70983447D01*
X129529106Y-70983450D01*
X129553103Y-71034912D01*
X129622466Y-71183662D01*
X129622468Y-71183666D01*
X129749170Y-71364615D01*
X129749175Y-71364621D01*
X129905378Y-71520824D01*
X129905384Y-71520829D01*
X130086333Y-71647531D01*
X130086335Y-71647532D01*
X130086338Y-71647534D01*
X130183506Y-71692844D01*
X130215189Y-71707618D01*
X130267628Y-71753790D01*
X130286780Y-71820984D01*
X130266564Y-71887865D01*
X130215189Y-71932382D01*
X130086340Y-71992465D01*
X130086338Y-71992466D01*
X129905377Y-72119175D01*
X129749175Y-72275377D01*
X129622466Y-72456338D01*
X129622465Y-72456340D01*
X129529107Y-72656548D01*
X129529104Y-72656554D01*
X129471930Y-72869929D01*
X129471929Y-72869937D01*
X129452677Y-73089997D01*
X129452677Y-73090002D01*
X129471929Y-73310062D01*
X129471930Y-73310070D01*
X129529104Y-73523445D01*
X129529105Y-73523447D01*
X129529106Y-73523450D01*
X129578191Y-73628714D01*
X129622466Y-73723662D01*
X129622468Y-73723666D01*
X129749170Y-73904615D01*
X129749175Y-73904621D01*
X129905378Y-74060824D01*
X129905384Y-74060829D01*
X130086333Y-74187531D01*
X130086335Y-74187532D01*
X130086338Y-74187534D01*
X130205748Y-74243215D01*
X130215189Y-74247618D01*
X130267628Y-74293790D01*
X130286780Y-74360984D01*
X130266564Y-74427865D01*
X130215189Y-74472382D01*
X130086340Y-74532465D01*
X130086338Y-74532466D01*
X129905377Y-74659175D01*
X129749175Y-74815377D01*
X129622466Y-74996338D01*
X129622465Y-74996340D01*
X129529107Y-75196548D01*
X129529104Y-75196554D01*
X129471930Y-75409929D01*
X129471929Y-75409937D01*
X129452677Y-75629997D01*
X129452677Y-75630002D01*
X129471929Y-75850062D01*
X129471930Y-75850070D01*
X129529104Y-76063445D01*
X129529105Y-76063447D01*
X129529106Y-76063450D01*
X129614073Y-76245663D01*
X129622466Y-76263662D01*
X129622468Y-76263666D01*
X129749170Y-76444615D01*
X129749175Y-76444621D01*
X129905378Y-76600824D01*
X129905384Y-76600829D01*
X130086333Y-76727531D01*
X130086335Y-76727532D01*
X130086338Y-76727534D01*
X130161484Y-76762575D01*
X130215189Y-76787618D01*
X130267628Y-76833790D01*
X130286780Y-76900984D01*
X130266564Y-76967865D01*
X130215189Y-77012382D01*
X130086340Y-77072465D01*
X130086338Y-77072466D01*
X129905377Y-77199175D01*
X129749175Y-77355377D01*
X129622466Y-77536338D01*
X129622465Y-77536340D01*
X129529107Y-77736548D01*
X129529104Y-77736554D01*
X129471930Y-77949929D01*
X129471929Y-77949937D01*
X129452677Y-78169997D01*
X129452677Y-78170002D01*
X129471929Y-78390062D01*
X129471930Y-78390070D01*
X129529104Y-78603445D01*
X129529105Y-78603447D01*
X129529106Y-78603450D01*
X129572920Y-78697410D01*
X129622466Y-78803662D01*
X129622468Y-78803666D01*
X129749170Y-78984615D01*
X129749175Y-78984621D01*
X129905378Y-79140824D01*
X129905384Y-79140829D01*
X130086333Y-79267531D01*
X130086335Y-79267532D01*
X130086338Y-79267534D01*
X130215189Y-79327618D01*
X130215781Y-79327894D01*
X130268220Y-79374066D01*
X130287372Y-79441260D01*
X130267156Y-79508141D01*
X130215781Y-79552658D01*
X130086590Y-79612901D01*
X130021811Y-79658258D01*
X130692553Y-80329000D01*
X130669840Y-80329000D01*
X130572939Y-80354964D01*
X130486060Y-80405124D01*
X130415124Y-80476060D01*
X130364964Y-80562939D01*
X130339000Y-80659840D01*
X130339000Y-80682553D01*
X129668258Y-80011811D01*
X129622901Y-80076590D01*
X129529579Y-80276720D01*
X129529575Y-80276729D01*
X129472426Y-80490013D01*
X129472424Y-80490023D01*
X129453179Y-80709999D01*
X129453179Y-80710000D01*
X129472424Y-80929976D01*
X129472426Y-80929986D01*
X129529575Y-81143270D01*
X129529580Y-81143284D01*
X129622898Y-81343405D01*
X129622901Y-81343411D01*
X129668258Y-81408187D01*
X129668259Y-81408188D01*
X130339000Y-80737447D01*
X130339000Y-80760160D01*
X130364964Y-80857061D01*
X130415124Y-80943940D01*
X130486060Y-81014876D01*
X130572939Y-81065036D01*
X130669840Y-81091000D01*
X130692553Y-81091000D01*
X130021810Y-81761740D01*
X130086589Y-81807098D01*
X130215781Y-81867342D01*
X130268220Y-81913514D01*
X130287372Y-81980708D01*
X130267156Y-82047589D01*
X130215781Y-82092106D01*
X130086340Y-82152465D01*
X130086338Y-82152466D01*
X129905377Y-82279175D01*
X129749175Y-82435377D01*
X129622466Y-82616338D01*
X129622465Y-82616340D01*
X129558119Y-82754331D01*
X129533487Y-82807156D01*
X129529107Y-82816548D01*
X129529104Y-82816554D01*
X129471930Y-83029929D01*
X129471929Y-83029937D01*
X129452677Y-83249997D01*
X129452677Y-83250002D01*
X129471929Y-83470062D01*
X129471930Y-83470070D01*
X129529104Y-83683445D01*
X129529105Y-83683447D01*
X129529106Y-83683450D01*
X129539523Y-83705789D01*
X129622466Y-83883662D01*
X129622468Y-83883666D01*
X129749170Y-84064615D01*
X129749175Y-84064621D01*
X129905378Y-84220824D01*
X129905384Y-84220829D01*
X130086333Y-84347531D01*
X130086335Y-84347532D01*
X130086338Y-84347534D01*
X130205748Y-84403215D01*
X130215189Y-84407618D01*
X130267628Y-84453790D01*
X130286780Y-84520984D01*
X130266564Y-84587865D01*
X130215189Y-84632382D01*
X130086340Y-84692465D01*
X130086338Y-84692466D01*
X129905377Y-84819175D01*
X129749175Y-84975377D01*
X129622466Y-85156338D01*
X129622465Y-85156340D01*
X129529107Y-85356548D01*
X129529104Y-85356554D01*
X129471930Y-85569929D01*
X129471929Y-85569937D01*
X129452677Y-85789997D01*
X129452677Y-85790002D01*
X129471929Y-86010062D01*
X129471930Y-86010070D01*
X129529104Y-86223445D01*
X129529105Y-86223447D01*
X129529106Y-86223450D01*
X129622466Y-86423662D01*
X129622468Y-86423666D01*
X129749170Y-86604615D01*
X129749175Y-86604621D01*
X129905378Y-86760824D01*
X129905384Y-86760829D01*
X130086333Y-86887531D01*
X130086335Y-86887532D01*
X130086338Y-86887534D01*
X130205748Y-86943215D01*
X130215189Y-86947618D01*
X130267628Y-86993790D01*
X130286780Y-87060984D01*
X130266564Y-87127865D01*
X130215189Y-87172382D01*
X130086340Y-87232465D01*
X130086338Y-87232466D01*
X129905377Y-87359175D01*
X129749175Y-87515377D01*
X129622466Y-87696338D01*
X129622465Y-87696340D01*
X129529107Y-87896548D01*
X129529104Y-87896554D01*
X129471930Y-88109929D01*
X129471929Y-88109937D01*
X129452677Y-88329997D01*
X129452677Y-88330002D01*
X129471929Y-88550062D01*
X129471930Y-88550070D01*
X129529104Y-88763445D01*
X129529105Y-88763447D01*
X129529106Y-88763450D01*
X129622466Y-88963662D01*
X129622468Y-88963666D01*
X129749170Y-89144615D01*
X129749175Y-89144621D01*
X129905378Y-89300824D01*
X129905384Y-89300829D01*
X130086333Y-89427531D01*
X130086335Y-89427532D01*
X130086338Y-89427534D01*
X130205748Y-89483215D01*
X130215189Y-89487618D01*
X130267628Y-89533790D01*
X130286780Y-89600984D01*
X130266564Y-89667865D01*
X130215189Y-89712382D01*
X130086340Y-89772465D01*
X130086338Y-89772466D01*
X129905377Y-89899175D01*
X129749175Y-90055377D01*
X129622466Y-90236338D01*
X129622465Y-90236340D01*
X129529107Y-90436548D01*
X129529104Y-90436554D01*
X129471930Y-90649929D01*
X129471929Y-90649937D01*
X129452677Y-90869997D01*
X129452677Y-90870002D01*
X129471929Y-91090062D01*
X129471930Y-91090070D01*
X129529104Y-91303445D01*
X129529105Y-91303447D01*
X129529106Y-91303450D01*
X129578513Y-91409404D01*
X129622466Y-91503662D01*
X129622468Y-91503666D01*
X129749170Y-91684615D01*
X129749175Y-91684621D01*
X129905378Y-91840824D01*
X129905384Y-91840829D01*
X130086333Y-91967531D01*
X130086335Y-91967532D01*
X130086338Y-91967534D01*
X130205748Y-92023215D01*
X130215189Y-92027618D01*
X130267628Y-92073790D01*
X130286780Y-92140984D01*
X130266564Y-92207865D01*
X130215189Y-92252382D01*
X130086340Y-92312465D01*
X130086338Y-92312466D01*
X129905377Y-92439175D01*
X129749175Y-92595377D01*
X129622466Y-92776338D01*
X129622465Y-92776340D01*
X129529107Y-92976548D01*
X129529104Y-92976554D01*
X129471930Y-93189929D01*
X129471929Y-93189937D01*
X129452677Y-93409997D01*
X129452677Y-93410002D01*
X129471929Y-93630062D01*
X129471930Y-93630070D01*
X129529104Y-93843445D01*
X129529105Y-93843447D01*
X129529106Y-93843450D01*
X129586311Y-93966126D01*
X129622466Y-94043662D01*
X129622468Y-94043666D01*
X129749170Y-94224615D01*
X129749175Y-94224621D01*
X129905378Y-94380824D01*
X129905384Y-94380829D01*
X130086333Y-94507531D01*
X130086335Y-94507532D01*
X130086338Y-94507534D01*
X130172078Y-94547515D01*
X130215189Y-94567618D01*
X130267628Y-94613790D01*
X130286780Y-94680984D01*
X130266564Y-94747865D01*
X130215189Y-94792382D01*
X130086340Y-94852465D01*
X130086338Y-94852466D01*
X129905377Y-94979175D01*
X129749175Y-95135377D01*
X129622466Y-95316338D01*
X129622465Y-95316340D01*
X129529107Y-95516548D01*
X129529104Y-95516554D01*
X129471930Y-95729929D01*
X129471929Y-95729937D01*
X129452677Y-95949997D01*
X129452677Y-95950002D01*
X129471929Y-96170062D01*
X129471930Y-96170070D01*
X129529104Y-96383445D01*
X129529105Y-96383447D01*
X129529106Y-96383450D01*
X129622466Y-96583662D01*
X129622468Y-96583666D01*
X129749170Y-96764615D01*
X129749175Y-96764621D01*
X129905378Y-96920824D01*
X129905384Y-96920829D01*
X130086333Y-97047531D01*
X130086335Y-97047532D01*
X130086338Y-97047534D01*
X130215781Y-97107894D01*
X130268220Y-97154066D01*
X130287372Y-97221260D01*
X130267156Y-97288141D01*
X130215781Y-97332658D01*
X130086590Y-97392901D01*
X130021811Y-97438258D01*
X130692553Y-98109000D01*
X130669840Y-98109000D01*
X130572939Y-98134964D01*
X130486060Y-98185124D01*
X130415124Y-98256060D01*
X130364964Y-98342939D01*
X130339000Y-98439840D01*
X130339000Y-98462553D01*
X129668258Y-97791811D01*
X129622901Y-97856590D01*
X129529579Y-98056720D01*
X129529575Y-98056729D01*
X129472426Y-98270013D01*
X129472424Y-98270023D01*
X129453179Y-98489999D01*
X129453179Y-98490000D01*
X129472424Y-98709976D01*
X129472426Y-98709986D01*
X129529575Y-98923270D01*
X129529580Y-98923284D01*
X129622898Y-99123405D01*
X129622901Y-99123411D01*
X129668258Y-99188187D01*
X129668259Y-99188188D01*
X130339000Y-98517447D01*
X130339000Y-98540160D01*
X130364964Y-98637061D01*
X130415124Y-98723940D01*
X130486060Y-98794876D01*
X130572939Y-98845036D01*
X130669840Y-98871000D01*
X130692553Y-98871000D01*
X130021810Y-99541740D01*
X130086589Y-99587098D01*
X130215781Y-99647342D01*
X130268220Y-99693514D01*
X130287372Y-99760708D01*
X130267156Y-99827589D01*
X130215781Y-99872106D01*
X130086340Y-99932465D01*
X130086338Y-99932466D01*
X129905377Y-100059175D01*
X129749175Y-100215377D01*
X129622466Y-100396338D01*
X129622465Y-100396340D01*
X129529107Y-100596548D01*
X129529104Y-100596554D01*
X129471930Y-100809929D01*
X129471929Y-100809937D01*
X129452677Y-101029997D01*
X129452677Y-101030002D01*
X129471929Y-101250062D01*
X129471930Y-101250070D01*
X129529104Y-101463445D01*
X129529105Y-101463447D01*
X129529106Y-101463450D01*
X129552334Y-101513262D01*
X129622466Y-101663662D01*
X129622468Y-101663666D01*
X129749170Y-101844615D01*
X129749175Y-101844621D01*
X129905378Y-102000824D01*
X129905384Y-102000829D01*
X130086333Y-102127531D01*
X130086335Y-102127532D01*
X130086338Y-102127534D01*
X130286550Y-102220894D01*
X130499932Y-102278070D01*
X130657123Y-102291822D01*
X130719998Y-102297323D01*
X130720000Y-102297323D01*
X130720002Y-102297323D01*
X130775017Y-102292509D01*
X130940068Y-102278070D01*
X131153450Y-102220894D01*
X131353662Y-102127534D01*
X131534620Y-102000826D01*
X131690826Y-101844620D01*
X131817534Y-101663662D01*
X131910894Y-101463450D01*
X131968070Y-101250068D01*
X131983872Y-101069441D01*
X131987323Y-101030002D01*
X131987323Y-101029997D01*
X131980103Y-100947474D01*
X131968070Y-100809932D01*
X131910894Y-100596550D01*
X131817534Y-100396339D01*
X131690826Y-100215380D01*
X131534620Y-100059174D01*
X131534616Y-100059171D01*
X131534615Y-100059170D01*
X131353666Y-99932468D01*
X131353662Y-99932466D01*
X131224218Y-99872105D01*
X131171779Y-99825932D01*
X131152627Y-99758739D01*
X131172843Y-99691858D01*
X131224219Y-99647340D01*
X131353416Y-99587095D01*
X131353417Y-99587094D01*
X131418188Y-99541741D01*
X130747448Y-98871000D01*
X130770160Y-98871000D01*
X130867061Y-98845036D01*
X130953940Y-98794876D01*
X131024876Y-98723940D01*
X131075036Y-98637061D01*
X131101000Y-98540160D01*
X131101000Y-98517447D01*
X131771741Y-99188188D01*
X131817094Y-99123417D01*
X131817100Y-99123407D01*
X131910419Y-98923284D01*
X131910424Y-98923270D01*
X131967573Y-98709986D01*
X131967575Y-98709976D01*
X131986821Y-98490000D01*
X131986821Y-98489999D01*
X131967575Y-98270023D01*
X131967573Y-98270013D01*
X131910424Y-98056729D01*
X131910420Y-98056720D01*
X131817096Y-97856586D01*
X131771741Y-97791811D01*
X131771740Y-97791810D01*
X131101000Y-98462551D01*
X131101000Y-98439840D01*
X131075036Y-98342939D01*
X131024876Y-98256060D01*
X130953940Y-98185124D01*
X130867061Y-98134964D01*
X130770160Y-98109000D01*
X130747448Y-98109000D01*
X131418188Y-97438259D01*
X131418187Y-97438258D01*
X131353411Y-97392901D01*
X131353405Y-97392898D01*
X131224219Y-97332658D01*
X131171779Y-97286486D01*
X131152627Y-97219293D01*
X131172843Y-97152411D01*
X131224219Y-97107894D01*
X131353662Y-97047534D01*
X131534620Y-96920826D01*
X131690826Y-96764620D01*
X131817534Y-96583662D01*
X131910894Y-96383450D01*
X131968070Y-96170068D01*
X131987323Y-95950000D01*
X131968070Y-95729932D01*
X131910894Y-95516550D01*
X131817534Y-95316339D01*
X131690826Y-95135380D01*
X131534620Y-94979174D01*
X131534616Y-94979171D01*
X131534615Y-94979170D01*
X131353666Y-94852468D01*
X131353658Y-94852464D01*
X131224811Y-94792382D01*
X131172371Y-94746210D01*
X131153219Y-94679017D01*
X131173435Y-94612135D01*
X131224811Y-94567618D01*
X131267922Y-94547515D01*
X131353662Y-94507534D01*
X131534620Y-94380826D01*
X131690826Y-94224620D01*
X131817534Y-94043662D01*
X131910894Y-93843450D01*
X131968070Y-93630068D01*
X131987323Y-93410000D01*
X131968070Y-93189932D01*
X131910894Y-92976550D01*
X131817534Y-92776339D01*
X131710694Y-92623754D01*
X131690827Y-92595381D01*
X131642963Y-92547517D01*
X131534620Y-92439174D01*
X131534616Y-92439171D01*
X131534615Y-92439170D01*
X131353666Y-92312468D01*
X131353658Y-92312464D01*
X131224811Y-92252382D01*
X131172371Y-92206210D01*
X131153219Y-92139017D01*
X131173435Y-92072135D01*
X131224811Y-92027618D01*
X131230802Y-92024824D01*
X131353662Y-91967534D01*
X131534620Y-91840826D01*
X131690826Y-91684620D01*
X131817534Y-91503662D01*
X131910894Y-91303450D01*
X131968070Y-91090068D01*
X131987323Y-90870000D01*
X131968070Y-90649932D01*
X131910894Y-90436550D01*
X131817534Y-90236339D01*
X131690826Y-90055380D01*
X131534620Y-89899174D01*
X131534616Y-89899171D01*
X131534615Y-89899170D01*
X131353666Y-89772468D01*
X131353658Y-89772464D01*
X131224811Y-89712382D01*
X131172371Y-89666210D01*
X131153219Y-89599017D01*
X131173435Y-89532135D01*
X131224811Y-89487618D01*
X131230802Y-89484824D01*
X131353662Y-89427534D01*
X131534620Y-89300826D01*
X131690826Y-89144620D01*
X131817534Y-88963662D01*
X131910894Y-88763450D01*
X131968070Y-88550068D01*
X131987323Y-88330000D01*
X131985953Y-88314345D01*
X131968070Y-88109937D01*
X131968070Y-88109932D01*
X131910894Y-87896550D01*
X131817534Y-87696339D01*
X131746401Y-87594750D01*
X131690827Y-87515381D01*
X131671445Y-87495999D01*
X131534620Y-87359174D01*
X131534616Y-87359171D01*
X131534615Y-87359170D01*
X131353666Y-87232468D01*
X131353658Y-87232464D01*
X131224811Y-87172382D01*
X131172371Y-87126210D01*
X131153219Y-87059017D01*
X131173435Y-86992135D01*
X131224811Y-86947618D01*
X131230802Y-86944824D01*
X131353662Y-86887534D01*
X131534620Y-86760826D01*
X131690826Y-86604620D01*
X131817534Y-86423662D01*
X131910894Y-86223450D01*
X131968070Y-86010068D01*
X131987323Y-85790000D01*
X131968070Y-85569932D01*
X131910894Y-85356550D01*
X131817534Y-85156339D01*
X131690826Y-84975380D01*
X131534620Y-84819174D01*
X131534616Y-84819171D01*
X131534615Y-84819170D01*
X131353666Y-84692468D01*
X131353658Y-84692464D01*
X131224811Y-84632382D01*
X131172371Y-84586210D01*
X131153219Y-84519017D01*
X131173435Y-84452135D01*
X131224811Y-84407618D01*
X131230802Y-84404824D01*
X131353662Y-84347534D01*
X131534620Y-84220826D01*
X131690826Y-84064620D01*
X131817534Y-83883662D01*
X131910894Y-83683450D01*
X131968070Y-83470068D01*
X131987323Y-83250000D01*
X131968070Y-83029932D01*
X131910894Y-82816550D01*
X131817534Y-82616339D01*
X131690826Y-82435380D01*
X131534620Y-82279174D01*
X131534616Y-82279171D01*
X131534615Y-82279170D01*
X131353666Y-82152468D01*
X131353662Y-82152466D01*
X131224218Y-82092105D01*
X131171779Y-82045932D01*
X131152627Y-81978739D01*
X131172843Y-81911858D01*
X131224219Y-81867340D01*
X131353416Y-81807095D01*
X131353417Y-81807094D01*
X131418188Y-81761741D01*
X130747448Y-81091000D01*
X130770160Y-81091000D01*
X130867061Y-81065036D01*
X130953940Y-81014876D01*
X131024876Y-80943940D01*
X131075036Y-80857061D01*
X131101000Y-80760160D01*
X131101000Y-80737447D01*
X131771741Y-81408188D01*
X131817094Y-81343417D01*
X131817100Y-81343407D01*
X131910419Y-81143284D01*
X131910424Y-81143270D01*
X131944798Y-81014983D01*
X133414500Y-81014983D01*
X133414500Y-82485001D01*
X133414501Y-82485018D01*
X133425000Y-82587796D01*
X133425001Y-82587799D01*
X133465058Y-82708680D01*
X133480186Y-82754334D01*
X133572288Y-82903656D01*
X133696344Y-83027712D01*
X133845666Y-83119814D01*
X134012203Y-83174999D01*
X134114991Y-83185500D01*
X134885008Y-83185499D01*
X134885016Y-83185498D01*
X134885019Y-83185498D01*
X134941302Y-83179748D01*
X134987797Y-83174999D01*
X135154334Y-83119814D01*
X135301713Y-83028909D01*
X135369102Y-83010471D01*
X135426237Y-83027163D01*
X135426733Y-83026191D01*
X135431073Y-83028402D01*
X135431074Y-83028403D01*
X135583312Y-83105973D01*
X135745811Y-83158772D01*
X135832755Y-83172542D01*
X135914564Y-83185500D01*
X135914569Y-83185500D01*
X136085436Y-83185500D01*
X136160013Y-83173687D01*
X136254189Y-83158772D01*
X136416688Y-83105973D01*
X136568926Y-83028403D01*
X136677116Y-82949798D01*
X136742920Y-82926319D01*
X136810974Y-82942144D01*
X136822876Y-82949792D01*
X136931074Y-83028403D01*
X137083312Y-83105973D01*
X137245811Y-83158772D01*
X137332755Y-83172542D01*
X137414564Y-83185500D01*
X137414569Y-83185500D01*
X137585436Y-83185500D01*
X137660013Y-83173687D01*
X137754189Y-83158772D01*
X137916688Y-83105973D01*
X138068926Y-83028403D01*
X138207156Y-82927973D01*
X138327973Y-82807156D01*
X138428403Y-82668926D01*
X138505973Y-82516688D01*
X138558772Y-82354189D01*
X138582276Y-82205789D01*
X138585500Y-82185436D01*
X138585500Y-81314563D01*
X138567608Y-81201600D01*
X138558772Y-81145811D01*
X138505973Y-80983312D01*
X138428403Y-80831074D01*
X138327973Y-80692844D01*
X138207156Y-80572027D01*
X138068926Y-80471597D01*
X137916688Y-80394027D01*
X137754189Y-80341228D01*
X137585436Y-80314500D01*
X137585431Y-80314500D01*
X137414569Y-80314500D01*
X137414564Y-80314500D01*
X137245810Y-80341228D01*
X137083314Y-80394026D01*
X136931070Y-80471599D01*
X136822885Y-80550200D01*
X136757079Y-80573680D01*
X136689025Y-80557854D01*
X136677115Y-80550200D01*
X136568929Y-80471599D01*
X136568928Y-80471598D01*
X136568926Y-80471597D01*
X136416688Y-80394027D01*
X136254189Y-80341228D01*
X136085436Y-80314500D01*
X136085431Y-80314500D01*
X135914569Y-80314500D01*
X135914564Y-80314500D01*
X135745810Y-80341228D01*
X135583314Y-80394026D01*
X135426733Y-80473809D01*
X135426189Y-80472742D01*
X135364133Y-80489520D01*
X135301711Y-80471088D01*
X135154334Y-80380186D01*
X134987797Y-80325001D01*
X134987795Y-80325000D01*
X134885010Y-80314500D01*
X134114998Y-80314500D01*
X134114980Y-80314501D01*
X134012203Y-80325000D01*
X134012200Y-80325001D01*
X133845668Y-80380185D01*
X133845663Y-80380187D01*
X133696342Y-80472289D01*
X133572289Y-80596342D01*
X133480187Y-80745663D01*
X133480186Y-80745666D01*
X133425001Y-80912203D01*
X133425001Y-80912204D01*
X133425000Y-80912204D01*
X133414500Y-81014983D01*
X131944798Y-81014983D01*
X131967573Y-80929986D01*
X131967575Y-80929976D01*
X131986821Y-80710000D01*
X131986821Y-80709999D01*
X131967575Y-80490023D01*
X131967573Y-80490013D01*
X131910424Y-80276729D01*
X131910420Y-80276720D01*
X131817096Y-80076586D01*
X131771741Y-80011811D01*
X131771740Y-80011810D01*
X131101000Y-80682551D01*
X131101000Y-80659840D01*
X131075036Y-80562939D01*
X131024876Y-80476060D01*
X130953940Y-80405124D01*
X130867061Y-80354964D01*
X130770160Y-80329000D01*
X130747448Y-80329000D01*
X131418188Y-79658259D01*
X131418187Y-79658258D01*
X131353411Y-79612901D01*
X131353405Y-79612898D01*
X131224219Y-79552658D01*
X131171779Y-79506486D01*
X131152627Y-79439293D01*
X131172843Y-79372411D01*
X131224219Y-79327894D01*
X131224811Y-79327618D01*
X131353662Y-79267534D01*
X131534620Y-79140826D01*
X131690826Y-78984620D01*
X131817534Y-78803662D01*
X131910894Y-78603450D01*
X131968070Y-78390068D01*
X131987323Y-78170000D01*
X131987206Y-78168667D01*
X131973910Y-78016688D01*
X131968070Y-77949932D01*
X131910894Y-77736550D01*
X131817534Y-77536339D01*
X131754180Y-77445859D01*
X131690827Y-77355381D01*
X131642715Y-77307269D01*
X131534620Y-77199174D01*
X131534616Y-77199171D01*
X131534615Y-77199170D01*
X131353666Y-77072468D01*
X131353658Y-77072464D01*
X131224811Y-77012382D01*
X131172371Y-76966210D01*
X131153219Y-76899017D01*
X131173435Y-76832135D01*
X131224811Y-76787618D01*
X131230802Y-76784824D01*
X131353662Y-76727534D01*
X131534620Y-76600826D01*
X131620463Y-76514983D01*
X133414500Y-76514983D01*
X133414500Y-77985001D01*
X133414501Y-77985018D01*
X133425000Y-78087796D01*
X133425001Y-78087799D01*
X133465058Y-78208680D01*
X133480186Y-78254334D01*
X133572288Y-78403656D01*
X133696344Y-78527712D01*
X133845666Y-78619814D01*
X134012203Y-78674999D01*
X134114991Y-78685500D01*
X134885008Y-78685499D01*
X134885016Y-78685498D01*
X134885019Y-78685498D01*
X134941302Y-78679748D01*
X134987797Y-78674999D01*
X135154334Y-78619814D01*
X135301713Y-78528909D01*
X135369102Y-78510471D01*
X135426237Y-78527163D01*
X135426733Y-78526191D01*
X135431073Y-78528402D01*
X135431074Y-78528403D01*
X135583312Y-78605973D01*
X135745811Y-78658772D01*
X135832755Y-78672542D01*
X135914564Y-78685500D01*
X135914569Y-78685500D01*
X136085436Y-78685500D01*
X136160013Y-78673687D01*
X136254189Y-78658772D01*
X136416688Y-78605973D01*
X136568926Y-78528403D01*
X136677540Y-78449490D01*
X136743344Y-78426010D01*
X136811398Y-78441835D01*
X136823309Y-78449490D01*
X136931332Y-78527972D01*
X137083502Y-78605507D01*
X137245931Y-78658284D01*
X137250000Y-78658928D01*
X137250000Y-77607957D01*
X137332096Y-77655356D01*
X137442731Y-77685000D01*
X137557269Y-77685000D01*
X137667904Y-77655356D01*
X137750000Y-77607957D01*
X137750000Y-78658927D01*
X137754066Y-78658284D01*
X137754069Y-78658284D01*
X137916497Y-78605507D01*
X138068667Y-78527972D01*
X138206823Y-78427597D01*
X138206828Y-78427593D01*
X138327593Y-78306828D01*
X138327597Y-78306823D01*
X138427972Y-78168667D01*
X138505507Y-78016499D01*
X138558284Y-77854071D01*
X138585000Y-77685396D01*
X138585000Y-77500000D01*
X137857958Y-77500000D01*
X137905356Y-77417904D01*
X137935000Y-77307269D01*
X137935000Y-77192731D01*
X137905356Y-77082096D01*
X137857958Y-77000000D01*
X138585000Y-77000000D01*
X138585000Y-76814603D01*
X138558284Y-76645928D01*
X138505507Y-76483500D01*
X138427972Y-76331332D01*
X138327597Y-76193176D01*
X138327593Y-76193171D01*
X138206828Y-76072406D01*
X138206823Y-76072402D01*
X138068667Y-75972027D01*
X137916497Y-75894492D01*
X137754069Y-75841715D01*
X137750000Y-75841070D01*
X137750000Y-76892042D01*
X137667904Y-76844644D01*
X137557269Y-76815000D01*
X137442731Y-76815000D01*
X137332096Y-76844644D01*
X137250000Y-76892042D01*
X137250000Y-75841071D01*
X137249999Y-75841070D01*
X137245930Y-75841715D01*
X137083502Y-75894492D01*
X136931332Y-75972027D01*
X136823310Y-76050509D01*
X136757503Y-76073989D01*
X136689450Y-76058163D01*
X136677540Y-76050509D01*
X136568929Y-75971599D01*
X136568928Y-75971598D01*
X136568926Y-75971597D01*
X136416688Y-75894027D01*
X136254189Y-75841228D01*
X136253191Y-75841070D01*
X136085436Y-75814500D01*
X136085431Y-75814500D01*
X135914569Y-75814500D01*
X135914564Y-75814500D01*
X135745810Y-75841228D01*
X135583314Y-75894026D01*
X135426733Y-75973809D01*
X135426189Y-75972742D01*
X135364133Y-75989520D01*
X135301711Y-75971088D01*
X135154334Y-75880186D01*
X134987797Y-75825001D01*
X134987795Y-75825000D01*
X134885010Y-75814500D01*
X134114998Y-75814500D01*
X134114980Y-75814501D01*
X134012203Y-75825000D01*
X134012200Y-75825001D01*
X133845668Y-75880185D01*
X133845663Y-75880187D01*
X133696342Y-75972289D01*
X133572289Y-76096342D01*
X133480187Y-76245663D01*
X133480185Y-76245668D01*
X133474221Y-76263666D01*
X133425001Y-76412203D01*
X133425001Y-76412204D01*
X133425000Y-76412204D01*
X133414500Y-76514983D01*
X131620463Y-76514983D01*
X131690826Y-76444620D01*
X131817534Y-76263662D01*
X131910894Y-76063450D01*
X131968070Y-75850068D01*
X131987323Y-75630000D01*
X131968070Y-75409932D01*
X131910894Y-75196550D01*
X131817534Y-74996339D01*
X131690826Y-74815380D01*
X131534620Y-74659174D01*
X131534616Y-74659171D01*
X131534615Y-74659170D01*
X131353666Y-74532468D01*
X131353658Y-74532464D01*
X131224811Y-74472382D01*
X131172371Y-74426210D01*
X131153219Y-74359017D01*
X131173435Y-74292135D01*
X131224811Y-74247618D01*
X131230802Y-74244824D01*
X131353662Y-74187534D01*
X131534620Y-74060826D01*
X131690826Y-73904620D01*
X131817534Y-73723662D01*
X131910894Y-73523450D01*
X131968070Y-73310068D01*
X131982509Y-73145017D01*
X131987323Y-73090002D01*
X131987323Y-73089997D01*
X131968070Y-72869937D01*
X131968070Y-72869932D01*
X131910894Y-72656550D01*
X131817534Y-72456339D01*
X131690826Y-72275380D01*
X131534620Y-72119174D01*
X131534616Y-72119171D01*
X131534615Y-72119170D01*
X131385821Y-72014983D01*
X133414500Y-72014983D01*
X133414500Y-73485001D01*
X133414501Y-73485018D01*
X133425000Y-73587796D01*
X133425001Y-73587799D01*
X133476909Y-73744444D01*
X133480186Y-73754334D01*
X133572288Y-73903656D01*
X133696344Y-74027712D01*
X133845666Y-74119814D01*
X134012203Y-74174999D01*
X134114991Y-74185500D01*
X134885008Y-74185499D01*
X134885016Y-74185498D01*
X134885019Y-74185498D01*
X134941302Y-74179748D01*
X134987797Y-74174999D01*
X135154334Y-74119814D01*
X135301713Y-74028909D01*
X135369102Y-74010471D01*
X135426237Y-74027163D01*
X135426733Y-74026191D01*
X135431073Y-74028402D01*
X135431074Y-74028403D01*
X135583312Y-74105973D01*
X135745811Y-74158772D01*
X135832755Y-74172542D01*
X135914564Y-74185500D01*
X135914569Y-74185500D01*
X136085436Y-74185500D01*
X136160013Y-74173687D01*
X136254189Y-74158772D01*
X136416688Y-74105973D01*
X136568926Y-74028403D01*
X136677540Y-73949490D01*
X136743344Y-73926010D01*
X136811398Y-73941835D01*
X136823309Y-73949490D01*
X136931332Y-74027972D01*
X137083502Y-74105507D01*
X137245931Y-74158284D01*
X137250000Y-74158928D01*
X137250000Y-73107957D01*
X137332096Y-73155356D01*
X137442731Y-73185000D01*
X137557269Y-73185000D01*
X137667904Y-73155356D01*
X137750000Y-73107957D01*
X137750000Y-74158928D01*
X137754066Y-74158284D01*
X137754069Y-74158284D01*
X137916497Y-74105507D01*
X138068667Y-74027972D01*
X138206823Y-73927597D01*
X138206828Y-73927593D01*
X138327593Y-73806828D01*
X138327597Y-73806823D01*
X138427972Y-73668667D01*
X138505507Y-73516499D01*
X138558284Y-73354071D01*
X138585000Y-73185396D01*
X138585000Y-73000000D01*
X137857958Y-73000000D01*
X137905356Y-72917904D01*
X137935000Y-72807269D01*
X137935000Y-72692731D01*
X137905356Y-72582096D01*
X137857958Y-72500000D01*
X138585000Y-72500000D01*
X138585000Y-72314603D01*
X138558284Y-72145928D01*
X138505507Y-71983500D01*
X138427972Y-71831332D01*
X138327597Y-71693176D01*
X138327593Y-71693171D01*
X138206828Y-71572406D01*
X138206823Y-71572402D01*
X138068667Y-71472027D01*
X137916497Y-71394492D01*
X137754069Y-71341715D01*
X137750000Y-71341070D01*
X137750000Y-72392042D01*
X137667904Y-72344644D01*
X137557269Y-72315000D01*
X137442731Y-72315000D01*
X137332096Y-72344644D01*
X137250000Y-72392042D01*
X137250000Y-71341071D01*
X137249999Y-71341070D01*
X137245930Y-71341715D01*
X137083502Y-71394492D01*
X136931332Y-71472027D01*
X136823310Y-71550509D01*
X136757503Y-71573989D01*
X136689450Y-71558163D01*
X136677540Y-71550509D01*
X136568929Y-71471599D01*
X136568928Y-71471598D01*
X136568926Y-71471597D01*
X136416688Y-71394027D01*
X136254189Y-71341228D01*
X136253191Y-71341070D01*
X136085436Y-71314500D01*
X136085431Y-71314500D01*
X135914569Y-71314500D01*
X135914564Y-71314500D01*
X135745810Y-71341228D01*
X135583314Y-71394026D01*
X135426733Y-71473809D01*
X135426189Y-71472742D01*
X135364133Y-71489520D01*
X135301711Y-71471088D01*
X135154334Y-71380186D01*
X134987797Y-71325001D01*
X134987795Y-71325000D01*
X134885010Y-71314500D01*
X134114998Y-71314500D01*
X134114980Y-71314501D01*
X134012203Y-71325000D01*
X134012200Y-71325001D01*
X133845668Y-71380185D01*
X133845663Y-71380187D01*
X133696342Y-71472289D01*
X133572289Y-71596342D01*
X133480187Y-71745663D01*
X133480186Y-71745666D01*
X133425001Y-71912203D01*
X133425001Y-71912204D01*
X133425000Y-71912204D01*
X133414500Y-72014983D01*
X131385821Y-72014983D01*
X131353666Y-71992468D01*
X131353658Y-71992464D01*
X131224811Y-71932382D01*
X131172371Y-71886210D01*
X131153219Y-71819017D01*
X131173435Y-71752135D01*
X131224811Y-71707618D01*
X131255782Y-71693176D01*
X131353662Y-71647534D01*
X131534620Y-71520826D01*
X131690826Y-71364620D01*
X131817534Y-71183662D01*
X131910894Y-70983450D01*
X131968070Y-70770068D01*
X131987323Y-70550000D01*
X131968070Y-70329932D01*
X131910894Y-70116550D01*
X131817534Y-69916339D01*
X131690826Y-69735380D01*
X131534620Y-69579174D01*
X131534616Y-69579171D01*
X131534615Y-69579170D01*
X131353666Y-69452468D01*
X131353658Y-69452464D01*
X131224811Y-69392382D01*
X131172371Y-69346210D01*
X131153219Y-69279017D01*
X131173435Y-69212135D01*
X131224811Y-69167618D01*
X131267006Y-69147942D01*
X131353662Y-69107534D01*
X131534620Y-68980826D01*
X131690826Y-68824620D01*
X131817534Y-68643662D01*
X131910894Y-68443450D01*
X131968070Y-68230068D01*
X131987323Y-68010000D01*
X131984952Y-67982903D01*
X131977867Y-67901913D01*
X131968070Y-67789932D01*
X131910894Y-67576550D01*
X131882185Y-67514983D01*
X133414500Y-67514983D01*
X133414500Y-68985001D01*
X133414501Y-68985018D01*
X133425000Y-69087796D01*
X133425001Y-69087799D01*
X133480185Y-69254331D01*
X133480187Y-69254336D01*
X133506668Y-69297268D01*
X133572288Y-69403656D01*
X133696344Y-69527712D01*
X133845666Y-69619814D01*
X134012203Y-69674999D01*
X134114991Y-69685500D01*
X134885008Y-69685499D01*
X134885016Y-69685498D01*
X134885019Y-69685498D01*
X134941302Y-69679748D01*
X134987797Y-69674999D01*
X135154334Y-69619814D01*
X135301713Y-69528909D01*
X135369102Y-69510471D01*
X135426237Y-69527163D01*
X135426733Y-69526191D01*
X135431073Y-69528402D01*
X135431074Y-69528403D01*
X135583312Y-69605973D01*
X135745811Y-69658772D01*
X135832755Y-69672542D01*
X135914564Y-69685500D01*
X135914569Y-69685500D01*
X136085436Y-69685500D01*
X136160013Y-69673687D01*
X136254189Y-69658772D01*
X136416688Y-69605973D01*
X136568926Y-69528403D01*
X136677540Y-69449490D01*
X136743344Y-69426010D01*
X136811398Y-69441835D01*
X136823309Y-69449490D01*
X136931332Y-69527972D01*
X137083502Y-69605507D01*
X137245931Y-69658284D01*
X137250000Y-69658928D01*
X137250000Y-68607957D01*
X137332096Y-68655356D01*
X137442731Y-68685000D01*
X137557269Y-68685000D01*
X137667904Y-68655356D01*
X137750000Y-68607957D01*
X137750000Y-69658927D01*
X137754066Y-69658284D01*
X137754069Y-69658284D01*
X137916497Y-69605507D01*
X138068667Y-69527972D01*
X138206823Y-69427597D01*
X138206828Y-69427593D01*
X138327593Y-69306828D01*
X138327597Y-69306823D01*
X138427972Y-69168667D01*
X138505507Y-69016499D01*
X138558284Y-68854071D01*
X138585000Y-68685396D01*
X138585000Y-68500000D01*
X137857958Y-68500000D01*
X137905356Y-68417904D01*
X137935000Y-68307269D01*
X137935000Y-68192731D01*
X137905356Y-68082096D01*
X137857958Y-68000000D01*
X138585000Y-68000000D01*
X138585000Y-67814603D01*
X138558284Y-67645928D01*
X138505507Y-67483500D01*
X138427972Y-67331332D01*
X138327597Y-67193176D01*
X138327593Y-67193171D01*
X138206828Y-67072406D01*
X138206823Y-67072402D01*
X138068667Y-66972027D01*
X137916497Y-66894492D01*
X137754069Y-66841715D01*
X137750000Y-66841070D01*
X137750000Y-67892042D01*
X137667904Y-67844644D01*
X137557269Y-67815000D01*
X137442731Y-67815000D01*
X137332096Y-67844644D01*
X137250000Y-67892042D01*
X137250000Y-66841071D01*
X137249999Y-66841070D01*
X137245930Y-66841715D01*
X137083502Y-66894492D01*
X136931332Y-66972027D01*
X136823310Y-67050509D01*
X136757503Y-67073989D01*
X136689450Y-67058163D01*
X136677540Y-67050509D01*
X136568929Y-66971599D01*
X136568928Y-66971598D01*
X136568926Y-66971597D01*
X136416688Y-66894027D01*
X136254189Y-66841228D01*
X136253191Y-66841070D01*
X136085436Y-66814500D01*
X136085431Y-66814500D01*
X135914569Y-66814500D01*
X135914564Y-66814500D01*
X135745810Y-66841228D01*
X135583314Y-66894026D01*
X135426733Y-66973809D01*
X135426189Y-66972742D01*
X135364133Y-66989520D01*
X135301711Y-66971088D01*
X135154334Y-66880186D01*
X134987797Y-66825001D01*
X134987795Y-66825000D01*
X134885010Y-66814500D01*
X134114998Y-66814500D01*
X134114980Y-66814501D01*
X134012203Y-66825000D01*
X134012200Y-66825001D01*
X133845668Y-66880185D01*
X133845663Y-66880187D01*
X133696342Y-66972289D01*
X133572289Y-67096342D01*
X133480187Y-67245663D01*
X133480186Y-67245666D01*
X133425001Y-67412203D01*
X133425001Y-67412204D01*
X133425000Y-67412204D01*
X133414500Y-67514983D01*
X131882185Y-67514983D01*
X131817534Y-67376339D01*
X131726038Y-67245668D01*
X131690827Y-67195381D01*
X131688290Y-67192844D01*
X131534620Y-67039174D01*
X131534616Y-67039171D01*
X131534615Y-67039170D01*
X131353666Y-66912468D01*
X131353658Y-66912464D01*
X131224811Y-66852382D01*
X131172371Y-66806210D01*
X131153219Y-66739017D01*
X131173435Y-66672135D01*
X131224811Y-66627618D01*
X131230802Y-66624824D01*
X131353662Y-66567534D01*
X131534620Y-66440826D01*
X131690826Y-66284620D01*
X131817534Y-66103662D01*
X131910894Y-65903450D01*
X131968070Y-65690068D01*
X131987323Y-65470000D01*
X131968070Y-65249932D01*
X131910894Y-65036550D01*
X131817534Y-64836339D01*
X131690826Y-64655380D01*
X131534620Y-64499174D01*
X131534616Y-64499171D01*
X131534615Y-64499170D01*
X131353666Y-64372468D01*
X131353662Y-64372466D01*
X131353660Y-64372465D01*
X131153450Y-64279106D01*
X131153447Y-64279105D01*
X131153445Y-64279104D01*
X130940070Y-64221930D01*
X130940062Y-64221929D01*
X130720002Y-64202677D01*
X130719998Y-64202677D01*
X130499937Y-64221929D01*
X130499929Y-64221930D01*
X130286554Y-64279104D01*
X130286548Y-64279107D01*
X130086340Y-64372465D01*
X130086338Y-64372466D01*
X129905377Y-64499175D01*
X129749175Y-64655377D01*
X129622466Y-64836338D01*
X129622465Y-64836340D01*
X129579736Y-64927973D01*
X129533937Y-65026191D01*
X129529107Y-65036548D01*
X129529104Y-65036554D01*
X129471930Y-65249929D01*
X129471929Y-65249937D01*
X129452677Y-65469997D01*
X104047323Y-65469997D01*
X104028070Y-65249932D01*
X103970894Y-65036550D01*
X103877534Y-64836339D01*
X103750826Y-64655380D01*
X103594620Y-64499174D01*
X103594616Y-64499171D01*
X103594615Y-64499170D01*
X103413666Y-64372468D01*
X103413662Y-64372466D01*
X103413660Y-64372465D01*
X103213450Y-64279106D01*
X103213447Y-64279105D01*
X103213445Y-64279104D01*
X103000070Y-64221930D01*
X103000062Y-64221929D01*
X102780002Y-64202677D01*
X102779998Y-64202677D01*
X102559937Y-64221929D01*
X102559929Y-64221930D01*
X102346554Y-64279104D01*
X102346548Y-64279107D01*
X102146340Y-64372465D01*
X102146338Y-64372466D01*
X101965377Y-64499175D01*
X101809175Y-64655377D01*
X101682466Y-64836338D01*
X101682465Y-64836340D01*
X101639736Y-64927973D01*
X101593937Y-65026191D01*
X101589107Y-65036548D01*
X101589104Y-65036554D01*
X101531930Y-65249929D01*
X101531929Y-65249937D01*
X101512677Y-65469997D01*
X97223700Y-65469997D01*
X97223700Y-61553102D01*
X102563300Y-61553102D01*
X102563300Y-61789297D01*
X102600246Y-62022568D01*
X102673233Y-62247196D01*
X102748048Y-62394027D01*
X102780457Y-62457633D01*
X102919283Y-62648710D01*
X103086290Y-62815717D01*
X103277367Y-62954543D01*
X103376791Y-63005202D01*
X103487803Y-63061766D01*
X103487805Y-63061766D01*
X103487808Y-63061768D01*
X103608212Y-63100889D01*
X103712431Y-63134753D01*
X103945703Y-63171700D01*
X103945708Y-63171700D01*
X104181897Y-63171700D01*
X104415168Y-63134753D01*
X104483452Y-63112566D01*
X104639792Y-63061768D01*
X104850233Y-62954543D01*
X105041310Y-62815717D01*
X105208317Y-62648710D01*
X105347143Y-62457633D01*
X105454368Y-62247192D01*
X105527353Y-62022568D01*
X105564300Y-61789297D01*
X105564300Y-61603902D01*
X127937900Y-61603902D01*
X127937900Y-61840097D01*
X127974846Y-62073368D01*
X128047833Y-62297996D01*
X128137415Y-62473809D01*
X128155057Y-62508433D01*
X128293883Y-62699510D01*
X128460890Y-62866517D01*
X128651967Y-63005343D01*
X128751391Y-63056002D01*
X128862403Y-63112566D01*
X128862405Y-63112566D01*
X128862408Y-63112568D01*
X128964719Y-63145811D01*
X129087031Y-63185553D01*
X129320303Y-63222500D01*
X129320308Y-63222500D01*
X129556497Y-63222500D01*
X129789768Y-63185553D01*
X129832403Y-63171700D01*
X130014392Y-63112568D01*
X130205913Y-63014983D01*
X133414500Y-63014983D01*
X133414500Y-64485001D01*
X133414501Y-64485018D01*
X133425000Y-64587796D01*
X133425001Y-64587799D01*
X133480185Y-64754331D01*
X133480186Y-64754334D01*
X133572288Y-64903656D01*
X133696344Y-65027712D01*
X133845666Y-65119814D01*
X134012203Y-65174999D01*
X134114991Y-65185500D01*
X134885008Y-65185499D01*
X134885016Y-65185498D01*
X134885019Y-65185498D01*
X134941302Y-65179748D01*
X134987797Y-65174999D01*
X135154334Y-65119814D01*
X135301713Y-65028909D01*
X135369102Y-65010471D01*
X135426237Y-65027163D01*
X135426733Y-65026191D01*
X135431073Y-65028402D01*
X135431074Y-65028403D01*
X135583312Y-65105973D01*
X135745811Y-65158772D01*
X135832755Y-65172542D01*
X135914564Y-65185500D01*
X135914569Y-65185500D01*
X136085436Y-65185500D01*
X136160013Y-65173687D01*
X136254189Y-65158772D01*
X136416688Y-65105973D01*
X136568926Y-65028403D01*
X136677540Y-64949490D01*
X136743344Y-64926010D01*
X136811398Y-64941835D01*
X136823309Y-64949490D01*
X136931332Y-65027972D01*
X137083502Y-65105507D01*
X137245931Y-65158284D01*
X137250000Y-65158928D01*
X137250000Y-64107957D01*
X137332096Y-64155356D01*
X137442731Y-64185000D01*
X137557269Y-64185000D01*
X137667904Y-64155356D01*
X137750000Y-64107957D01*
X137750000Y-65158928D01*
X137754066Y-65158284D01*
X137754069Y-65158284D01*
X137916497Y-65105507D01*
X138068667Y-65027972D01*
X138206823Y-64927597D01*
X138206828Y-64927593D01*
X138327593Y-64806828D01*
X138327597Y-64806823D01*
X138427972Y-64668667D01*
X138505507Y-64516499D01*
X138558284Y-64354071D01*
X138585000Y-64185396D01*
X138585000Y-64000000D01*
X137857958Y-64000000D01*
X137905356Y-63917904D01*
X137935000Y-63807269D01*
X137935000Y-63692731D01*
X137905356Y-63582096D01*
X137857958Y-63500000D01*
X138585000Y-63500000D01*
X138585000Y-63314603D01*
X138558284Y-63145928D01*
X138505507Y-62983500D01*
X138427972Y-62831332D01*
X138327597Y-62693176D01*
X138327593Y-62693171D01*
X138206828Y-62572406D01*
X138206823Y-62572402D01*
X138068667Y-62472027D01*
X137916497Y-62394492D01*
X137754069Y-62341715D01*
X137750000Y-62341070D01*
X137750000Y-63392042D01*
X137667904Y-63344644D01*
X137557269Y-63315000D01*
X137442731Y-63315000D01*
X137332096Y-63344644D01*
X137250000Y-63392042D01*
X137250000Y-62341071D01*
X137249999Y-62341070D01*
X137245930Y-62341715D01*
X137083502Y-62394492D01*
X136931332Y-62472027D01*
X136823310Y-62550509D01*
X136757503Y-62573989D01*
X136689450Y-62558163D01*
X136677540Y-62550509D01*
X136568929Y-62471599D01*
X136568928Y-62471598D01*
X136568926Y-62471597D01*
X136416688Y-62394027D01*
X136254189Y-62341228D01*
X136253191Y-62341070D01*
X136085436Y-62314500D01*
X136085431Y-62314500D01*
X135914569Y-62314500D01*
X135914564Y-62314500D01*
X135745810Y-62341228D01*
X135583314Y-62394026D01*
X135426733Y-62473809D01*
X135426189Y-62472742D01*
X135364133Y-62489520D01*
X135301711Y-62471088D01*
X135154334Y-62380186D01*
X134987797Y-62325001D01*
X134987795Y-62325000D01*
X134885010Y-62314500D01*
X134114998Y-62314500D01*
X134114980Y-62314501D01*
X134012203Y-62325000D01*
X134012200Y-62325001D01*
X133845668Y-62380185D01*
X133845663Y-62380187D01*
X133696342Y-62472289D01*
X133572289Y-62596342D01*
X133480187Y-62745663D01*
X133480186Y-62745666D01*
X133425001Y-62912203D01*
X133425001Y-62912204D01*
X133425000Y-62912204D01*
X133414500Y-63014983D01*
X130205913Y-63014983D01*
X130224833Y-63005343D01*
X130415910Y-62866517D01*
X130582917Y-62699510D01*
X130721743Y-62508433D01*
X130828968Y-62297992D01*
X130901953Y-62073368D01*
X130909999Y-62022568D01*
X130938900Y-61840097D01*
X130938900Y-61603902D01*
X130901953Y-61370631D01*
X130828966Y-61146003D01*
X130721742Y-60935566D01*
X130582917Y-60744490D01*
X130415910Y-60577483D01*
X130224833Y-60438657D01*
X130014396Y-60331433D01*
X129789768Y-60258446D01*
X129556497Y-60221500D01*
X129556492Y-60221500D01*
X129320308Y-60221500D01*
X129320303Y-60221500D01*
X129087031Y-60258446D01*
X128862403Y-60331433D01*
X128651966Y-60438657D01*
X128542950Y-60517862D01*
X128460890Y-60577483D01*
X128460888Y-60577485D01*
X128460887Y-60577485D01*
X128293885Y-60744487D01*
X128293885Y-60744488D01*
X128293883Y-60744490D01*
X128234262Y-60826550D01*
X128155057Y-60935566D01*
X128047833Y-61146003D01*
X127974846Y-61370631D01*
X127937900Y-61603902D01*
X105564300Y-61603902D01*
X105564300Y-61553102D01*
X105527353Y-61319831D01*
X105454366Y-61095203D01*
X105347142Y-60884766D01*
X105208317Y-60693690D01*
X105041310Y-60526683D01*
X104850233Y-60387857D01*
X104639796Y-60280633D01*
X104415168Y-60207646D01*
X104181897Y-60170700D01*
X104181892Y-60170700D01*
X103945708Y-60170700D01*
X103945703Y-60170700D01*
X103712431Y-60207646D01*
X103487803Y-60280633D01*
X103277366Y-60387857D01*
X103207447Y-60438657D01*
X103086290Y-60526683D01*
X103086288Y-60526685D01*
X103086287Y-60526685D01*
X102919285Y-60693687D01*
X102919285Y-60693688D01*
X102919283Y-60693690D01*
X102882377Y-60744487D01*
X102780457Y-60884766D01*
X102673233Y-61095203D01*
X102600246Y-61319831D01*
X102563300Y-61553102D01*
X97223700Y-61553102D01*
X97223700Y-59349300D01*
X97243385Y-59282261D01*
X97296189Y-59236506D01*
X97347700Y-59225300D01*
X140142300Y-59225300D01*
X140209339Y-59244985D01*
G37*
%TD.AperFunction*%
%TA.AperFunction,Conductor*%
G36*
X139979852Y-88713800D02*
G01*
X139979853Y-88713800D01*
X139986528Y-88704962D01*
X140031300Y-88615051D01*
X140078803Y-88563814D01*
X140146466Y-88546393D01*
X140212807Y-88568319D01*
X140256761Y-88622630D01*
X140266300Y-88670323D01*
X140266300Y-89538353D01*
X140246615Y-89605392D01*
X140193811Y-89651147D01*
X140124653Y-89661091D01*
X140061097Y-89632066D01*
X140031300Y-89593625D01*
X139995084Y-89520894D01*
X139986958Y-89504575D01*
X139860140Y-89336641D01*
X139704623Y-89194869D01*
X139681814Y-89180746D01*
X139635181Y-89128721D01*
X139624707Y-89065760D01*
X139044848Y-88485901D01*
X139067560Y-88485901D01*
X139164461Y-88459937D01*
X139251340Y-88409777D01*
X139322276Y-88338841D01*
X139372436Y-88251962D01*
X139398400Y-88155061D01*
X139398400Y-88132348D01*
X139979852Y-88713800D01*
G37*
%TD.AperFunction*%
%TD*%
M02*
