%TF.GenerationSoftware,KiCad,Pcbnew,8.0.6*%
%TF.CreationDate,2025-03-28T19:17:51-04:00*%
%TF.ProjectId,Microcontroller boards,4d696372-6f63-46f6-9e74-726f6c6c6572,rev?*%
%TF.SameCoordinates,Original*%
%TF.FileFunction,Copper,L1,Top*%
%TF.FilePolarity,Positive*%
%FSLAX46Y46*%
G04 Gerber Fmt 4.6, Leading zero omitted, Abs format (unit mm)*
G04 Created by KiCad (PCBNEW 8.0.6) date 2025-03-28 19:17:51*
%MOMM*%
%LPD*%
G01*
G04 APERTURE LIST*
G04 Aperture macros list*
%AMRoundRect*
0 Rectangle with rounded corners*
0 $1 Rounding radius*
0 $2 $3 $4 $5 $6 $7 $8 $9 X,Y pos of 4 corners*
0 Add a 4 corners polygon primitive as box body*
4,1,4,$2,$3,$4,$5,$6,$7,$8,$9,$2,$3,0*
0 Add four circle primitives for the rounded corners*
1,1,$1+$1,$2,$3*
1,1,$1+$1,$4,$5*
1,1,$1+$1,$6,$7*
1,1,$1+$1,$8,$9*
0 Add four rect primitives between the rounded corners*
20,1,$1+$1,$2,$3,$4,$5,0*
20,1,$1+$1,$4,$5,$6,$7,0*
20,1,$1+$1,$6,$7,$8,$9,0*
20,1,$1+$1,$8,$9,$2,$3,0*%
G04 Aperture macros list end*
%TA.AperFunction,ComponentPad*%
%ADD10RoundRect,0.250000X-0.685000X0.335000X-0.685000X-0.335000X0.685000X-0.335000X0.685000X0.335000X0*%
%TD*%
%TA.AperFunction,ComponentPad*%
%ADD11O,1.870000X1.170000*%
%TD*%
%TA.AperFunction,ComponentPad*%
%ADD12RoundRect,0.250000X-0.335000X-0.685000X0.335000X-0.685000X0.335000X0.685000X-0.335000X0.685000X0*%
%TD*%
%TA.AperFunction,ComponentPad*%
%ADD13O,1.170000X1.870000*%
%TD*%
%TA.AperFunction,ComponentPad*%
%ADD14C,1.270000*%
%TD*%
%TA.AperFunction,ComponentPad*%
%ADD15C,1.524000*%
%TD*%
%TA.AperFunction,Conductor*%
%ADD16C,0.200000*%
%TD*%
G04 APERTURE END LIST*
D10*
%TO.P,J6,1,Pin_1*%
%TO.N,Net-(J6-Pin_1)*%
X99720400Y-91897200D03*
D11*
%TO.P,J6,2,Pin_2*%
%TO.N,Net-(J6-Pin_2)*%
X99720400Y-93397200D03*
%TO.P,J6,3,Pin_3*%
%TO.N,Net-(J6-Pin_3)*%
X99720400Y-94897200D03*
%TD*%
D12*
%TO.P,J5,1,Pin_1*%
%TO.N,Net-(J5-Pin_1)*%
X134500000Y-68250000D03*
D13*
%TO.P,J5,2,Pin_2*%
%TO.N,Net-(J3-Pin_2)*%
X136000000Y-68250000D03*
%TO.P,J5,3,Pin_3*%
%TO.N,GND*%
X137500000Y-68250000D03*
%TD*%
D10*
%TO.P,J10,1,Pin_1*%
%TO.N,Net-(J10-Pin_1)*%
X99491800Y-69951600D03*
D11*
%TO.P,J10,2,Pin_2*%
%TO.N,Net-(J10-Pin_2)*%
X99491800Y-71451600D03*
%TO.P,J10,3,Pin_3*%
%TO.N,Net-(J10-Pin_3)*%
X99491800Y-72951600D03*
%TO.P,J10,4,Pin_4*%
%TO.N,Net-(J10-Pin_4)*%
X99491800Y-74451600D03*
%TO.P,J10,5,Pin_5*%
%TO.N,Net-(J10-Pin_5)*%
X99491800Y-75951600D03*
%TO.P,J10,6,Pin_6*%
%TO.N,Net-(J10-Pin_6)*%
X99491800Y-77451600D03*
%TO.P,J10,7,Pin_7*%
%TO.N,Net-(J10-Pin_7)*%
X99491800Y-78951600D03*
%TO.P,J10,8,Pin_8*%
%TO.N,Net-(J10-Pin_8)*%
X99491800Y-80451600D03*
%TO.P,J10,9,Pin_9*%
%TO.N,Net-(J10-Pin_9)*%
X99491800Y-81951600D03*
%TO.P,J10,10,Pin_10*%
%TO.N,Net-(J10-Pin_10)*%
X99491800Y-83451600D03*
%TD*%
D12*
%TO.P,J3,1,Pin_1*%
%TO.N,Net-(J3-Pin_1)*%
X134500000Y-77250000D03*
D13*
%TO.P,J3,2,Pin_2*%
%TO.N,Net-(J3-Pin_2)*%
X136000000Y-77250000D03*
%TO.P,J3,3,Pin_3*%
%TO.N,GND*%
X137500000Y-77250000D03*
%TD*%
D12*
%TO.P,J4,1,Pin_1*%
%TO.N,Net-(J4-Pin_1)*%
X134500000Y-72750000D03*
D13*
%TO.P,J4,2,Pin_2*%
%TO.N,Net-(J3-Pin_2)*%
X136000000Y-72750000D03*
%TO.P,J4,3,Pin_3*%
%TO.N,GND*%
X137500000Y-72750000D03*
%TD*%
D12*
%TO.P,J8,1,Pin_1*%
%TO.N,Net-(J8-Pin_1)*%
X134500000Y-81750000D03*
D13*
%TO.P,J8,2,Pin_2*%
%TO.N,Net-(J8-Pin_2)*%
X136000000Y-81750000D03*
%TO.P,J8,3,Pin_3*%
%TO.N,Net-(J8-Pin_3)*%
X137500000Y-81750000D03*
%TD*%
D14*
%TO.P,J2,1,1*%
%TO.N,GND*%
X139017400Y-88104901D03*
%TO.P,J2,2,2*%
%TO.N,Net-(U1-D6(GPIO12))*%
X139017400Y-90104900D03*
%TO.P,J2,3,3*%
%TO.N,Net-(U1-D7(GPIO13))*%
X139017400Y-92104901D03*
%TO.P,J2,4,4*%
%TO.N,Net-(J3-Pin_2)*%
X139017400Y-94104899D03*
%TD*%
D15*
%TO.P,U1,1,A0(ADC0)*%
%TO.N,Net-(J10-Pin_1)*%
X102780000Y-65470000D03*
%TO.P,U1,2,RSV*%
%TO.N,Net-(J10-Pin_2)*%
X102780000Y-68010000D03*
%TO.P,U1,3,RSV*%
%TO.N,Net-(J10-Pin_3)*%
X102780000Y-70550000D03*
%TO.P,U1,4,SD3(GPIO10)*%
%TO.N,Net-(J10-Pin_4)*%
X102780000Y-73090000D03*
%TO.P,U1,5,SD2(GPIO9)*%
%TO.N,Net-(J10-Pin_5)*%
X102780000Y-75630000D03*
%TO.P,U1,6,SD1(MOSI)*%
%TO.N,Net-(J10-Pin_6)*%
X102780000Y-78170000D03*
%TO.P,U1,7,CMD(CS)*%
%TO.N,Net-(J10-Pin_7)*%
X102780000Y-80710000D03*
%TO.P,U1,8,SDO(MISO)*%
%TO.N,Net-(J10-Pin_8)*%
X102780000Y-83250000D03*
%TO.P,U1,9,CLK(SCLK)*%
%TO.N,Net-(J10-Pin_9)*%
X102780000Y-85790000D03*
%TO.P,U1,10,GND*%
%TO.N,Net-(J10-Pin_10)*%
X102780000Y-88330000D03*
%TO.P,U1,11,3.3V*%
%TO.N,Net-(J6-Pin_1)*%
X102780000Y-90870000D03*
%TO.P,U1,12,EN*%
%TO.N,Net-(J6-Pin_2)*%
X102780000Y-93410000D03*
%TO.P,U1,13,RST*%
%TO.N,Net-(J6-Pin_3)*%
X102780000Y-95950000D03*
%TO.P,U1,14,GND*%
%TO.N,GND*%
X102780000Y-98490000D03*
%TO.P,U1,15,VIN*%
%TO.N,Net-(J3-Pin_2)*%
X102780000Y-101030000D03*
%TO.P,U1,16,3.3V*%
%TO.N,Net-(J9-Pin_1)*%
X130720000Y-101030000D03*
%TO.P,U1,17,GND*%
%TO.N,GND*%
X130720000Y-98490000D03*
%TO.P,U1,18,TX(GPIO1)*%
%TO.N,Net-(J8-Pin_1)*%
X130720000Y-95950000D03*
%TO.P,U1,19,RX(DPIO3)*%
%TO.N,Net-(U1-RX(DPIO3))*%
X130720000Y-93410000D03*
%TO.P,U1,20,D8(GPIO15)*%
%TO.N,Net-(U1-D8(GPIO15))*%
X130720000Y-90870000D03*
%TO.P,U1,21,D7(GPIO13)*%
%TO.N,Net-(U1-D7(GPIO13))*%
X130720000Y-88330000D03*
%TO.P,U1,22,D6(GPIO12)*%
%TO.N,Net-(U1-D6(GPIO12))*%
X130720000Y-85790000D03*
%TO.P,U1,23,D5(GPIO14)*%
%TO.N,Net-(J8-Pin_2)*%
X130720000Y-83250000D03*
%TO.P,U1,24,GND*%
%TO.N,GND*%
X130720000Y-80710000D03*
%TO.P,U1,25,3.3V*%
%TO.N,Net-(J9-Pin_2)*%
X130720000Y-78170000D03*
%TO.P,U1,26,D4(GPIO2)*%
%TO.N,Net-(J8-Pin_3)*%
X130720000Y-75630000D03*
%TO.P,U1,27,D3(GPIO0)*%
%TO.N,Net-(J3-Pin_1)*%
X130720000Y-73090000D03*
%TO.P,U1,28,D2(GPIO4)*%
%TO.N,Net-(J4-Pin_1)*%
X130720000Y-70550000D03*
%TO.P,U1,29,D1(GPIO5)*%
%TO.N,Net-(J5-Pin_1)*%
X130720000Y-68010000D03*
%TO.P,U1,30,D0(GPIO16)*%
%TO.N,Net-(J7-Pin_1)*%
X130720000Y-65470000D03*
%TD*%
D12*
%TO.P,J7,1,Pin_1*%
%TO.N,Net-(J7-Pin_1)*%
X134500000Y-63750000D03*
D13*
%TO.P,J7,2,Pin_2*%
%TO.N,Net-(J3-Pin_2)*%
X136000000Y-63750000D03*
%TO.P,J7,3,Pin_3*%
%TO.N,GND*%
X137500000Y-63750000D03*
%TD*%
D14*
%TO.P,J1,1,1*%
%TO.N,unconnected-(J1-Pad1)*%
X139017400Y-98604901D03*
%TO.P,J1,2,2*%
%TO.N,Net-(U1-D8(GPIO15))*%
X139017400Y-100604900D03*
%TO.P,J1,3,3*%
%TO.N,Net-(U1-RX(DPIO3))*%
X139017400Y-102604901D03*
%TO.P,J1,4,4*%
%TO.N,Net-(J3-Pin_2)*%
X139017400Y-104604899D03*
%TD*%
D16*
%TO.N,Net-(U1-D8(GPIO15))*%
X138082400Y-99669900D02*
X138082400Y-98232400D01*
X138082400Y-98232400D02*
X130720000Y-90870000D01*
X139017400Y-100604900D02*
X138082400Y-99669900D01*
%TO.N,Net-(J3-Pin_2)*%
X139952400Y-93169899D02*
X139017400Y-94104899D01*
X104188200Y-102438200D02*
X102780000Y-101030000D01*
X139017400Y-104604899D02*
X136850701Y-102438200D01*
X139952400Y-81552400D02*
X139952400Y-93169899D01*
X136000000Y-72750000D02*
X136000000Y-77250000D01*
X136850701Y-102438200D02*
X104188200Y-102438200D01*
X136000000Y-77250000D02*
X136000000Y-77600000D01*
X136000000Y-63750000D02*
X136000000Y-68250000D01*
X139952400Y-95039899D02*
X139952400Y-103669899D01*
X139952400Y-103669899D02*
X139017400Y-104604899D01*
X136000000Y-68250000D02*
X136000000Y-72750000D01*
X139017400Y-94104899D02*
X139952400Y-95039899D01*
X136000000Y-77600000D02*
X139952400Y-81552400D01*
%TO.N,Net-(U1-RX(DPIO3))*%
X132694314Y-93410000D02*
X130720000Y-93410000D01*
X137682400Y-98398086D02*
X132694314Y-93410000D01*
X139017400Y-101539900D02*
X138630110Y-101539900D01*
X138630110Y-101539900D02*
X137682400Y-100592190D01*
X137682400Y-100592190D02*
X137682400Y-98398086D01*
X139017400Y-102604901D02*
X139017400Y-101539900D01*
%TO.N,Net-(U1-D6(GPIO12))*%
X135034900Y-90104900D02*
X130720000Y-85790000D01*
X139017400Y-90104900D02*
X135034900Y-90104900D01*
%TO.N,Net-(U1-D7(GPIO13))*%
X139017400Y-92104901D02*
X134494901Y-92104901D01*
X134494901Y-92104901D02*
X130720000Y-88330000D01*
%TO.N,Net-(J3-Pin_1)*%
X130720000Y-73470000D02*
X130720000Y-73090000D01*
X134500000Y-77250000D02*
X130720000Y-73470000D01*
%TO.N,Net-(J4-Pin_1)*%
X132300000Y-70550000D02*
X130720000Y-70550000D01*
X134500000Y-72750000D02*
X132300000Y-70550000D01*
%TO.N,Net-(J5-Pin_1)*%
X134500000Y-68250000D02*
X130960000Y-68250000D01*
X130960000Y-68250000D02*
X130720000Y-68010000D01*
%TO.N,Net-(J6-Pin_2)*%
X99720400Y-93397200D02*
X102767200Y-93397200D01*
X102767200Y-93397200D02*
X102780000Y-93410000D01*
%TO.N,Net-(J6-Pin_3)*%
X99720400Y-94897200D02*
X101727200Y-94897200D01*
X101727200Y-94897200D02*
X102780000Y-95950000D01*
%TO.N,Net-(J6-Pin_1)*%
X99720400Y-91897200D02*
X101752800Y-91897200D01*
X101752800Y-91897200D02*
X102780000Y-90870000D01*
%TO.N,Net-(J7-Pin_1)*%
X134500000Y-63750000D02*
X134500000Y-63851579D01*
X132881579Y-65470000D02*
X130720000Y-65470000D01*
X134500000Y-63851579D02*
X132881579Y-65470000D01*
%TO.N,Net-(J8-Pin_2)*%
X133502800Y-80467200D02*
X130720000Y-83250000D01*
X136000000Y-81400000D02*
X135067200Y-80467200D01*
X136000000Y-81750000D02*
X136000000Y-81400000D01*
X135067200Y-80467200D02*
X133502800Y-80467200D01*
%TO.N,Net-(J8-Pin_3)*%
X137500000Y-81750000D02*
X137500000Y-81400000D01*
X134892648Y-78792648D02*
X133882648Y-78792648D01*
X133882648Y-78792648D02*
X130720000Y-75630000D01*
X137500000Y-81400000D02*
X134892648Y-78792648D01*
%TO.N,Net-(J8-Pin_1)*%
X130280105Y-84728000D02*
X129413000Y-85595105D01*
X131522000Y-84728000D02*
X130280105Y-84728000D01*
X129413000Y-94643000D02*
X130720000Y-95950000D01*
X129413000Y-85595105D02*
X129413000Y-94643000D01*
X134500000Y-81750000D02*
X131522000Y-84728000D01*
%TO.N,Net-(J10-Pin_6)*%
X102061600Y-77451600D02*
X99491800Y-77451600D01*
X102780000Y-78170000D02*
X102061600Y-77451600D01*
%TO.N,Net-(J10-Pin_1)*%
X102702400Y-65392400D02*
X102780000Y-65470000D01*
X99491800Y-68758200D02*
X102780000Y-65470000D01*
X99491800Y-69951600D02*
X99491800Y-68758200D01*
%TO.N,Net-(J10-Pin_10)*%
X99491800Y-85041800D02*
X102780000Y-88330000D01*
X99491800Y-83451600D02*
X99491800Y-85041800D01*
%TO.N,Net-(J10-Pin_9)*%
X102780000Y-84804800D02*
X102780000Y-85790000D01*
X99926800Y-81951600D02*
X102780000Y-84804800D01*
X99491800Y-81951600D02*
X99926800Y-81951600D01*
%TO.N,Net-(J10-Pin_3)*%
X100378400Y-72951600D02*
X99491800Y-72951600D01*
X102780000Y-70550000D02*
X100378400Y-72951600D01*
%TO.N,Net-(J10-Pin_2)*%
X102780000Y-68468144D02*
X99796544Y-71451600D01*
X102780000Y-68010000D02*
X102780000Y-68468144D01*
X99796544Y-71451600D02*
X99491800Y-71451600D01*
%TO.N,Net-(J10-Pin_5)*%
X99813400Y-75630000D02*
X99491800Y-75951600D01*
X102780000Y-75185400D02*
X102780000Y-75630000D01*
X102780000Y-75630000D02*
X99813400Y-75630000D01*
%TO.N,Net-(J10-Pin_7)*%
X101021600Y-78951600D02*
X99491800Y-78951600D01*
X102780000Y-80710000D02*
X101021600Y-78951600D01*
%TO.N,Net-(J10-Pin_4)*%
X102780000Y-73090000D02*
X101418400Y-74451600D01*
X101418400Y-74451600D02*
X99491800Y-74451600D01*
%TO.N,Net-(J10-Pin_8)*%
X102780000Y-83250000D02*
X99981600Y-80451600D01*
X99981600Y-80451600D02*
X99491800Y-80451600D01*
%TD*%
M02*
