  0
SECTION
  2
HEADER
  9
$ACADVER
  1
AC1003
  9
$EXTMIN
 10
0.249999999999998
 20
3.00000000000001
  9
$EXTMAX
 10
4.6
 20
-4.44089209850063E-16
  9
$INSUNITS
 70
1
  9
$INSBASE
 10
2.425
 20
1.5
999
Created with OMAX LAYOUT for Windows. (www.omax.com) 5/15/2025
  0
ENDSEC
  0
SECTION
  2
TABLES
  0
TABLE
  2
LAYER
 70
    10
  0
LAYER
  2
0
 70
     0
 62
     7
  6
CONTINUOUS
  0
LAYER
  2
1
 70
     0
 62
     7
  6
CONTINUOUS
  0
LAYER
  2
2
 70
     0
 62
     7
  6
CONTINUOUS
  0
LAYER
  2
3
 70
     0
 62
     7
  6
CONTINUOUS
  0
LAYER
  2
4
 70
     0
 62
     7
  6
CONTINUOUS
  0
LAYER
  2
5
 70
     0
 62
     7
  6
CONTINUOUS
  0
LAYER
  2
6
 70
     0
 62
     7
  6
CONTINUOUS
  0
LAYER
  2
7
 70
     0
 62
     7
  6
CONTINUOUS
  0
LAYER
  2
8
 70
     0
 62
     7
  6
CONTINUOUS
  0
LAYER
  2
9
 70
     0
 62
     7
  6
CONTINUOUS
  0
LAYER
  2
10
 70
     0
 62
     7
  6
CONTINUOUS
  0
LAYER
  2
11
 70
     0
 62
     7
  6
CONTINUOUS
  0
LAYER
  2
12
 70
     0
 62
     7
  6
CONTINUOUS
  0
LAYER
  2
13
 70
     0
 62
     7
  6
CONTINUOUS
  0
LAYER
  2
14
 70
     0
 62
     7
  6
CONTINUOUS
  0
LAYER
  2
15
 70
     0
 62
     7
  6
CONTINUOUS
  0
LAYER
  2
16
 70
     0
 62
     7
  6
CONTINUOUS
  0
LAYER
  2
17
 70
     0
 62
     7
  6
CONTINUOUS
  0
LAYER
  2
18
 70
     0
 62
     7
  6
CONTINUOUS
  0
LAYER
  2
19
 70
     0
 62
     7
  6
CONTINUOUS
  0
LAYER
  2
20
 70
     0
 62
     7
  6
CONTINUOUS
  0
LAYER
  2
21
 70
     0
 62
     7
  6
CONTINUOUS
  0
LAYER
  2
22
 70
     0
 62
     7
  6
CONTINUOUS
  0
LAYER
  2
23
 70
     0
 62
     7
  6
CONTINUOUS
  0
LAYER
  2
24
 70
     0
 62
     7
  6
CONTINUOUS
  0
LAYER
  2
25
 70
     0
 62
     7
  6
CONTINUOUS
  0
LAYER
  2
26
 70
     0
 62
     7
  6
CONTINUOUS
  0
LAYER
  2
27
 70
     0
 62
     7
  6
CONTINUOUS
  0
LAYER
  2
28
 70
     0
 62
     7
  6
CONTINUOUS
  0
LAYER
  2
29
 70
     0
 62
     7
  6
CONTINUOUS
  0
LAYER
  2
30
 70
     0
 62
     7
  6
CONTINUOUS
  0
LAYER
  2
31
 70
     0
 62
     7
  6
CONTINUOUS
  0
ENDTAB
  0
ENDSEC
  0
SECTION
  2
ENTITIES
  0
LINE
  8
0
  6
CONTINUOUS
 62
0
 10
0.25
 20
0.000141001431054555
 30
0.0
 11
1.25260700240923
 21
0.124362070568977
 31
0.0
  0
LINE
  8
0
  6
CONTINUOUS
 62
0
 10
1.25088615718907
 20
0.136733802209712
 30
0.0
 11
1.33172705396092
 21
0.971327584979894
 31
0.0
  0
LINE
  8
0
  6
CONTINUOUS
 62
0
 10
1.4304856074915
 20
0.953896932864392
 30
0.0
 11
2.12768327924245
 21
1.00005854936136
 31
0.0
  0
LINE
  8
0
  6
CONTINUOUS
 62
0
 10
2.12281903063173
 20
1.01156333695241
 30
0.0
 11
2.00347752989822
 21
1.62999713977232
 31
0.0
  0
LINE
  8
0
  6
CONTINUOUS
 62
0
 10
1.99781903063173
 20
1.65969325816974
 30
0.0
 11
2.00347752989822
 21
2.25991839967232
 31
0.0
  0
LINE
  8
0
  6
CONTINUOUS
 62
0
 10
1.99781903063173
 20
2.28961451806974
 30
0.0
 11
2.00082675654262
 21
2.75337867512237
 31
0.0
  0
LINE
  8
0
  6
CONTINUOUS
 62
0
 10
1.97067798146515
 20
2.7555989055497
 30
0.0
 11
0.496522470101779
 21
2.7499241200277
 31
0.0
  0
LINE
  8
0
  6
CONTINUOUS
 62
0
 10
0.502180969368267
 20
2.72022800163028
 30
0.0
 11
0.496522470101779
 21
2.2597666397277
 31
0.0
  0
LINE
  8
0
  6
CONTINUOUS
 62
0
 10
0.502180969368267
 20
2.23007052133029
 30
0.0
 11
0.49662132487764
 21
1.63074801634263
 31
0.0
  0
LINE
  8
0
  6
CONTINUOUS
 62
0
 10
0.494401094450308
 20
1.60059924126516
 30
0.0
 11
0.372392997590772
 21
1.00063792943104
 31
0.0
  0
LINE
  8
0
  6
CONTINUOUS
 62
0
 10
0.374113842810935
 20
0.988266197790308
 30
0.0
 11
0.296603203322095
 21
0.272910435232995
 31
0.0
  0
LINE
  8
0
  6
CONTINUOUS
 62
0
 10
0.327745996533744
 20
0.233793604699624
 30
0.0
 11
3.50260700240923
 21
0.124362070568977
 31
0.0
  0
LINE
  8
0
  6
CONTINUOUS
 62
0
 10
3.50088615718907
 20
0.136733802209712
 30
0.0
 11
3.50257669502964
 21
0.488940014511528
 31
0.0
  0
LINE
  8
0
  6
CONTINUOUS
 62
0
 10
3.49490053353263
 20
0.498793825791127
 30
0.0
 11
2.75347752989822
 21
1.62999713977232
 31
0.0
  0
LINE
  8
0
  6
CONTINUOUS
 62
0
 10
2.74781903063173
 20
1.65969325816974
 30
0.0
 11
2.75347752989822
 21
2.25991839967232
 31
0.0
  0
LINE
  8
0
  6
CONTINUOUS
 62
0
 10
2.74781903063173
 20
2.28961451806973
 30
0.0
 11
2.74917324345738
 21
2.74662132487765
 31
0.0
  0
LINE
  8
0
  6
CONTINUOUS
 62
0
 10
2.77932201853485
 20
2.74440109445032
 30
0.0
 11
4.24652247010178
 21
2.7499241200277
 31
0.0
  0
LINE
  8
0
  6
CONTINUOUS
 62
0
 10
4.25218096936827
 20
2.72022800163028
 30
0.0
 11
4.24652247010178
 21
2.2597666397277
 31
0.0
  0
LINE
  8
0
  6
CONTINUOUS
 62
0
 10
4.25218096936827
 20
2.23007052133028
 30
0.0
 11
4.24652247010178
 21
1.6298453798277
 31
0.0
  0
LINE
  8
0
  6
CONTINUOUS
 62
0
 10
4.25218096936827
 20
1.60014926143028
 30
0.0
 11
4.37563792943103
 21
1.00260700240924
 31
0.0
  0
LINE
  8
0
  6
CONTINUOUS
 62
0
 10
4.3632661977903
 20
1.00088615718908
 30
0.0
 11
4.01410553690874
 21
1.00139234485554
 31
0.0
  0
LINE
  8
0
  6
CONTINUOUS
 62
0
 10
4.004140580246
 20
1.00892365886918
 30
0.0
 11
3.4980612344014
 21
1.51366698789772
 31
0.0
  0
LINE
  8
0
  6
CONTINUOUS
 62
0
 10
3.49336566425767
 20
1.50209233139796
 30
0.0
 11
3.26520792829051
 21
1.06968606291531
 31
0.0
  0
LINE
  8
0
  6
CONTINUOUS
 62
0
 10
3.16644937475993
 20
1.08711671503081
 30
0.0
 11
2.98882690583103
 21
1.00260700240924
 31
0.0
  0
LINE
  8
0
  6
CONTINUOUS
 62
0
 10
2.9764551741903
 20
1.00088615718908
 30
0.0
 11
2.62239299759077
 21
1.00063792943104
 31
0.0
  0
LINE
  8
0
  6
CONTINUOUS
 62
0
 10
2.62411384281093
 20
0.988266197790308
 30
0.0
 11
2.56530218587513
 21
0.249024179231493
 31
0.0
  0
LINE
  8
0
  6
CONTINUOUS
 62
0
 10
2.59742458650399
 20
0.210707715696359
 30
0.0
 11
4.6
 21
0.000141001431054555
 31
0.0
  0
ARC
  8
3
  6
CONTINUOUS
 62
3
 10
1.24999999999788
 20
0.125000000002772
 30
0.0
 40
0.0615157480293768
 50
74.9999999974274
 51
180.000000002572
  0
ARC
  8
3
  6
CONTINUOUS
 62
3
 10
1.25
 20
0.125000000000009
 30
0.0
 40
0.0615157480314961
 50
179.999999999999
 51
359.999999999999
  0
ARC
  8
3
  6
CONTINUOUS
 62
3
 10
1.2500000000072
 20
0.125000000005534
 30
0.0
 40
0.0615157480242972
 50
359.999999994855
 51
75.0000000051448
  0
ARC
  8
3
  6
CONTINUOUS
 62
3
 10
1.25000000016112
 20
0.999999999978801
 30
0.0
 40
0.236220472279826
 50
344.999999994854
 51
5.14473962082547E-9
  0
ARC
  8
3
  6
CONTINUOUS
 62
3
 10
1.25
 20
1.00000000000001
 30
0.0
 40
0.236220472440945
 50
359.999999999999
 51
180
  0
ARC
  8
3
  6
CONTINUOUS
 62
3
 10
1.2499999999986
 20
0.999999999989402
 30
0.0
 40
0.236220472439549
 50
179.999999997427
 51
345.000000002572
  0
ARC
  8
3
  6
CONTINUOUS
 62
3
 10
2.12499999999586
 20
1.00000000000415
 30
0.0
 40
0.0615157480273534
 50
89.9999999961411
 51
180.000000003859
  0
ARC
  8
3
  6
CONTINUOUS
 62
3
 10
2.125
 20
1.00000000000001
 30
0.0
 40
0.0615157480314963
 50
179.999999999999
 51
359.999999999999
  0
ARC
  8
3
  6
CONTINUOUS
 62
3
 10
2.12500000000414
 20
1.00000000000415
 30
0.0
 40
0.0615157480273534
 50
359.999999996141
 51
90.0000000038585
  0
ARC
  8
3
  6
CONTINUOUS
 62
3
 10
1.99999999999463
 20
1.62992125980538
 30
0.0
 40
0.0797244094434524
 50
89.9999999961411
 51
180.000000003859
  0
ARC
  8
3
  6
CONTINUOUS
 62
3
 10
2
 20
1.62992125980001
 30
0.0
 40
0.0797244094488216
 50
179.999999999999
 51
359.999999999999
  0
ARC
  8
3
  6
CONTINUOUS
 62
3
 10
2.00000000000537
 20
1.62992125980538
 30
0.0
 40
0.0797244094434524
 50
359.999999996141
 51
90.0000000038585
  0
ARC
  8
3
  6
CONTINUOUS
 62
3
 10
1.99999999999463
 20
2.25984251970538
 30
0.0
 40
0.0797244094434493
 50
89.9999999961411
 51
180.000000003859
  0
ARC
  8
3
  6
CONTINUOUS
 62
3
 10
2
 20
2.25984251970001
 30
0.0
 40
0.0797244094488185
 50
179.999999999999
 51
359.999999999999
  0
ARC
  8
3
  6
CONTINUOUS
 62
3
 10
2.00000000000537
 20
2.25984251970538
 30
0.0
 40
0.0797244094434493
 50
359.999999996141
 51
90.0000000038585
  0
ARC
  8
3
  6
CONTINUOUS
 62
3
 10
1.99999999997281
 20
2.75000000000359
 30
0.0
 40
0.0797244094216299
 50
164.999999997426
 51
180.000000002571
  0
ARC
  8
3
  6
CONTINUOUS
 62
3
 10
2
 20
2.75000000000001
 30
0.0
 40
0.0797244094488186
 50
179.999999999999
 51
359.999999999999
  0
ARC
  8
3
  6
CONTINUOUS
 62
3
 10
2.00000000000094
 20
2.75000000000717
 30
0.0
 40
0.079724409447876
 50
359.999999994854
 51
165.000000005145
  0
ARC
  8
3
  6
CONTINUOUS
 62
3
 10
0.50000000000537
 20
2.74999999999464
 30
0.0
 40
0.0797244094434498
 50
269.999999996141
 51
3.85850899514555E-9
  0
ARC
  8
3
  6
CONTINUOUS
 62
3
 10
0.5
 20
2.75000000000001
 30
0.0
 40
0.079724409448819
 50
359.999999999999
 51
180
  0
ARC
  8
3
  6
CONTINUOUS
 62
3
 10
0.499999999994631
 20
2.74999999999464
 30
0.0
 40
0.0797244094434498
 50
179.999999996141
 51
270.000000003858
  0
ARC
  8
3
  6
CONTINUOUS
 62
3
 10
0.50000000000537
 20
2.25984251969464
 30
0.0
 40
0.0797244094434467
 50
269.999999996141
 51
3.85850899514555E-9
  0
ARC
  8
3
  6
CONTINUOUS
 62
3
 10
0.5
 20
2.25984251970001
 30
0.0
 40
0.0797244094488159
 50
359.999999999999
 51
180
  0
ARC
  8
3
  6
CONTINUOUS
 62
3
 10
0.499999999994631
 20
2.25984251969464
 30
0.0
 40
0.0797244094434467
 50
179.999999996141
 51
270.000000003858
  0
ARC
  8
3
  6
CONTINUOUS
 62
3
 10
0.500000000005494
 20
1.62992125979285
 30
0.0
 40
0.0797244094433256
 50
254.999999994854
 51
5.14475711387621E-9
  0
ARC
  8
3
  6
CONTINUOUS
 62
3
 10
0.5
 20
1.62992125980001
 30
0.0
 40
0.0797244094488189
 50
359.999999999999
 51
180
  0
ARC
  8
3
  6
CONTINUOUS
 62
3
 10
0.499999999995335
 20
1.62992125979643
 30
0.0
 40
0.079724409444154
 50
179.999999997427
 51
255.000000002572
  0
ARC
  8
3
  6
CONTINUOUS
 62
3
 10
0.375000000004239
 20
0.999999999994486
 30
0.0
 40
0.0615157480272575
 50
254.999999994855
 51
5.14474439165749E-9
  0
ARC
  8
3
  6
CONTINUOUS
 62
3
 10
0.375
 20
1.00000000000001
 30
0.0
 40
0.0615157480314961
 50
359.999999999999
 51
180
  0
ARC
  8
3
  6
CONTINUOUS
 62
3
 10
0.374999999996401
 20
0.999999999997247
 30
0.0
 40
0.0615157480278967
 50
179.999999997427
 51
255.000000002572
  0
LINE
  8
3
  6
CONTINUOUS
 62
3
 10
0.401459135687386
 20
0.380172886481349
 30
0.0
 11
0.437499128849928
 21
0.41704002334606
 31
0.0
  0
ARC
  8
3
  6
CONTINUOUS
 62
3
 10
1.24999999999999
 20
1
 30
0.0
 40
0.999999999999987
 50
180
 51
215.659002075903
  0
LINE
  8
3
  6
CONTINUOUS
 62
3
 10
0.25
 20
1.00000000000001
 30
0.0
 11
0.25
 21
2.87500000000001
 31
0.0
  0
ARC
  8
3
  6
CONTINUOUS
 62
3
 10
0.375
 20
2.87500000000001
 30
0.0
 40
0.125
 50
89.9999999999998
 51
180
  0
LINE
  8
3
  6
CONTINUOUS
 62
3
 10
0.375
 20
3.00000000000001
 30
0.0
 11
2.125
 21
3.00000000000001
 31
0.0
  0
ARC
  8
3
  6
CONTINUOUS
 62
3
 10
2.125
 20
2.87500000000001
 30
0.0
 40
0.125
 50
359.999999999999
 51
89.9999999999998
  0
LINE
  8
3
  6
CONTINUOUS
 62
3
 10
2.25
 20
2.87500000000001
 30
0.0
 11
2.25
 21
1.00000000000001
 31
0.0
  0
ARC
  8
3
  6
CONTINUOUS
 62
3
 10
1.25
 20
1.00000000000001
 30
0.0
 40
1
 50
221.390970041101
 51
2.04400334450929E-13
  0
LINE
  8
3
  6
CONTINUOUS
 62
3
 10
0.499784715273226
 20
0.338806362279316
 30
0.0
 11
0.455778657441237
 21
0.311944981788878
 31
0.0
  0
ARC
  8
3
  6
CONTINUOUS
 62
3
 10
3.49999999999788
 20
0.125000000002772
 30
0.0
 40
0.061515748029377
 50
74.9999999974275
 51
180.000000002572
  0
ARC
  8
3
  6
CONTINUOUS
 62
3
 10
3.5
 20
0.125000000000009
 30
0.0
 40
0.0615157480314963
 50
179.999999999999
 51
359.999999999999
  0
ARC
  8
3
  6
CONTINUOUS
 62
3
 10
3.5000000000072
 20
0.125000000005534
 30
0.0
 40
0.0615157480242974
 50
359.999999994855
 51
75.0000000051449
  0
ARC
  8
3
  6
CONTINUOUS
 62
3
 10
3.4999999999964
 20
0.488188976402772
 30
0.0
 40
0.0615157480278969
 50
104.999999997427
 51
180.000000002572
  0
ARC
  8
3
  6
CONTINUOUS
 62
3
 10
3.5
 20
0.488188976400009
 30
0.0
 40
0.0615157480314963
 50
179.999999999999
 51
359.999999999999
  0
ARC
  8
3
  6
CONTINUOUS
 62
3
 10
3.50000000000424
 20
0.488188976405535
 30
0.0
 40
0.0615157480272577
 50
359.999999994854
 51
105.000000005145
  0
ARC
  8
3
  6
CONTINUOUS
 62
3
 10
2.74999999999463
 20
1.62992125980538
 30
0.0
 40
0.0797244094434493
 50
89.9999999961411
 51
180.000000003859
  0
ARC
  8
3
  6
CONTINUOUS
 62
3
 10
2.75
 20
1.62992125980001
 30
0.0
 40
0.0797244094488185
 50
179.999999999999
 51
359.999999999999
  0
ARC
  8
3
  6
CONTINUOUS
 62
3
 10
2.75000000000537
 20
1.62992125980538
 30
0.0
 40
0.0797244094434493
 50
359.999999996141
 51
90.0000000038585
  0
ARC
  8
3
  6
CONTINUOUS
 62
3
 10
2.74999999999463
 20
2.25984251970538
 30
0.0
 40
0.0797244094434467
 50
89.9999999961411
 51
180.000000003859
  0
ARC
  8
3
  6
CONTINUOUS
 62
3
 10
2.75
 20
2.25984251970001
 30
0.0
 40
0.0797244094488159
 50
179.999999999999
 51
359.999999999999
  0
ARC
  8
3
  6
CONTINUOUS
 62
3
 10
2.75000000000537
 20
2.25984251970538
 30
0.0
 40
0.0797244094434467
 50
359.999999996141
 51
90.0000000038585
  0
ARC
  8
3
  6
CONTINUOUS
 62
3
 10
2.75000000005438
 20
2.74999999999285
 30
0.0
 40
0.0797244093944415
 50
344.999999994854
 51
5.14464897501704E-9
  0
ARC
  8
3
  6
CONTINUOUS
 62
3
 10
2.75
 20
2.75000000000001
 30
0.0
 40
0.079724409448819
 50
359.999999999999
 51
180
  0
ARC
  8
3
  6
CONTINUOUS
 62
3
 10
2.74999999999953
 20
2.74999999999643
 30
0.0
 40
0.0797244094483477
 50
179.999999997427
 51
345.000000002572
  0
ARC
  8
3
  6
CONTINUOUS
 62
3
 10
4.25000000000537
 20
2.74999999999464
 30
0.0
 40
0.0797244094434493
 50
269.999999996141
 51
3.85850899514555E-9
  0
ARC
  8
3
  6
CONTINUOUS
 62
3
 10
4.25
 20
2.75000000000001
 30
0.0
 40
0.0797244094488185
 50
359.999999999999
 51
180
  0
ARC
  8
3
  6
CONTINUOUS
 62
3
 10
4.24999999999463
 20
2.74999999999464
 30
0.0
 40
0.0797244094434493
 50
179.999999996141
 51
270.000000003858
  0
ARC
  8
3
  6
CONTINUOUS
 62
3
 10
4.25000000000537
 20
2.25984251969464
 30
0.0
 40
0.0797244094434493
 50
269.999999996141
 51
3.85850899514555E-9
  0
ARC
  8
3
  6
CONTINUOUS
 62
3
 10
4.25
 20
2.25984251970001
 30
0.0
 40
0.0797244094488185
 50
359.999999999999
 51
180
  0
ARC
  8
3
  6
CONTINUOUS
 62
3
 10
4.24999999999463
 20
2.25984251969464
 30
0.0
 40
0.0797244094434493
 50
179.999999996141
 51
270.000000003858
  0
ARC
  8
3
  6
CONTINUOUS
 62
3
 10
4.25000000000537
 20
1.62992125979464
 30
0.0
 40
0.079724409443452
 50
269.999999996141
 51
3.85850899514555E-9
  0
ARC
  8
3
  6
CONTINUOUS
 62
3
 10
4.25
 20
1.62992125980001
 30
0.0
 40
0.0797244094488212
 50
359.999999999999
 51
180
  0
ARC
  8
3
  6
CONTINUOUS
 62
3
 10
4.24999999999463
 20
1.62992125979464
 30
0.0
 40
0.079724409443452
 50
179.999999996141
 51
270.000000003858
  0
ARC
  8
3
  6
CONTINUOUS
 62
3
 10
4.37499999997902
 20
1.00000000000277
 30
0.0
 40
0.0615157480105172
 50
164.999999997427
 51
180.000000002572
  0
ARC
  8
3
  6
CONTINUOUS
 62
3
 10
4.375
 20
1.00000000000001
 30
0.0
 40
0.0615157480314963
 50
179.999999999999
 51
359.999999999999
  0
ARC
  8
3
  6
CONTINUOUS
 62
3
 10
4.37500000000073
 20
1.00000000000553
 30
0.0
 40
0.061515748030769
 50
359.999999994854
 51
165.000000005145
  0
ARC
  8
3
  6
CONTINUOUS
 62
3
 10
4.01181102359522
 20
1.00000000000277
 30
0.0
 40
0.0615157480267125
 50
119.999999997427
 51
180.000000002572
  0
ARC
  8
3
  6
CONTINUOUS
 62
3
 10
4.0118110236
 20
1.00000000000001
 30
0.0
 40
0.0615157480314963
 50
179.999999999999
 51
359.999999999999
  0
ARC
  8
3
  6
CONTINUOUS
 62
3
 10
4.01181102360319
 20
1.00000000000553
 30
0.0
 40
0.0615157480283071
 50
359.999999994854
 51
120.000000005145
  0
ARC
  8
3
  6
CONTINUOUS
 62
3
 10
3.50000000000229
 20
1.51181102359449
 30
0.0
 40
0.0615157480292083
 50
224.999999994855
 51
5.14476347498558E-9
  0
ARC
  8
3
  6
CONTINUOUS
 62
3
 10
3.5
 20
1.51181102360001
 30
0.0
 40
0.0615157480314963
 50
359.999999999999
 51
180
  0
ARC
  8
3
  6
CONTINUOUS
 62
3
 10
3.49999999999333
 20
1.51181102359725
 30
0.0
 40
0.0615157480248284
 50
179.999999997427
 51
225.000000002572
  0
ARC
  8
3
  6
CONTINUOUS
 62
3
 10
3.4999999998654
 20
1.00000000001773
 30
0.0
 40
0.394685039235479
 50
164.999999997427
 51
180.000000002572
  0
ARC
  8
3
  6
CONTINUOUS
 62
3
 10
3.5
 20
1.00000000000001
 30
0.0
 40
0.394685039370079
 50
179.999999999999
 51
359.999999999999
  0
ARC
  8
3
  6
CONTINUOUS
 62
3
 10
3.50000000000467
 20
1.00000000003546
 30
0.0
 40
0.394685039365413
 50
359.999999994854
 51
165.000000005145
  0
ARC
  8
3
  6
CONTINUOUS
 62
3
 10
2.98818897637902
 20
1.00000000000277
 30
0.0
 40
0.0615157480105172
 50
164.999999997427
 51
180.000000002572
  0
ARC
  8
3
  6
CONTINUOUS
 62
3
 10
2.9881889764
 20
1.00000000000001
 30
0.0
 40
0.0615157480314963
 50
179.999999999999
 51
359.999999999999
  0
ARC
  8
3
  6
CONTINUOUS
 62
3
 10
2.98818897640073
 20
1.00000000000553
 30
0.0
 40
0.061515748030769
 50
359.999999994854
 51
165.000000005145
  0
ARC
  8
3
  6
CONTINUOUS
 62
3
 10
2.62500000000424
 20
0.999999999994486
 30
0.0
 40
0.0615157480272577
 50
254.999999994855
 51
5.14476983609494E-9
  0
ARC
  8
3
  6
CONTINUOUS
 62
3
 10
2.625
 20
1.00000000000001
 30
0.0
 40
0.0615157480314963
 50
359.999999999999
 51
180
  0
ARC
  8
3
  6
CONTINUOUS
 62
3
 10
2.6249999999964
 20
0.999999999997247
 30
0.0
 40
0.0615157480278969
 50
179.999999997427
 51
255.000000002572
  0
LINE
  8
3
  6
CONTINUOUS
 62
3
 10
2.66741104280539
 20
0.358904938859359
 30
0.0
 11
2.70250683970112
 21
0.396672013514625
 31
0.0
  0
ARC
  8
3
  6
CONTINUOUS
 62
3
 10
3.49999999999999
 20
1
 30
0.0
 40
0.999999999999988
 50
180
 51
217.108620801325
  0
LINE
  8
3
  6
CONTINUOUS
 62
3
 10
2.5
 20
1.00000000000001
 30
0.0
 11
2.5
 21
2.87500000000001
 31
0.0
  0
ARC
  8
3
  6
CONTINUOUS
 62
3
 10
2.625
 20
2.87500000000001
 30
0.0
 40
0.125
 50
89.9999999999998
 51
180
  0
LINE
  8
3
  6
CONTINUOUS
 62
3
 10
2.625
 20
3.00000000000001
 30
0.0
 11
4.375
 21
3.00000000000001
 31
0.0
  0
ARC
  8
3
  6
CONTINUOUS
 62
3
 10
4.375
 20
2.87500000000001
 30
0.0
 40
0.125
 50
359.999999999999
 51
89.9999999999998
  0
LINE
  8
3
  6
CONTINUOUS
 62
3
 10
4.5
 20
2.87500000000001
 30
0.0
 11
4.5
 21
1.00000000000001
 31
0.0
  0
ARC
  8
3
  6
CONTINUOUS
 62
3
 10
3.5
 20
1.00000000000001
 30
0.0
 40
1
 50
222.840588766523
 51
2.55289209354345E-13
  0
LINE
  8
3
  6
CONTINUOUS
 62
3
 10
2.76675164095883
 20
0.320039086444357
 30
0.0
 11
2.72343920405248
 21
0.292073041014382
 31
0.0
  0
LINE
  8
9
  6
CONTINUOUS
 62
9
 10
1.25260700240923
 20
0.124362070568977
 30
0.0
 11
1.26592144716428
 21
0.184419649747123
 31
0.0
  0
LINE
  8
9
  6
CONTINUOUS
 62
9
 10
1.26592144716428
 20
0.184419649747123
 30
0.0
 11
1.25088615718907
 21
0.136733802209712
 31
0.0
  0
LINE
  8
9
  6
CONTINUOUS
 62
9
 10
1.33172705396092
 20
0.971327584979894
 30
0.0
 11
1.47817145502891
 21
0.938861642889178
 31
0.0
  0
LINE
  8
9
  6
CONTINUOUS
 62
9
 10
1.47817145502891
 20
0.938861642889178
 30
0.0
 11
1.4304856074915
 21
0.953896932864392
 31
0.0
  0
LINE
  8
9
  6
CONTINUOUS
 62
9
 10
2.12768327924245
 20
1.00005854936136
 30
0.0
 11
2.125
 21
1.06151574803151
 31
0.0
  0
LINE
  8
9
  6
CONTINUOUS
 62
9
 10
2.125
 20
1.06151574803151
 30
0.0
 11
2.12281903063173
 21
1.01156333695241
 31
0.0
  0
LINE
  8
9
  6
CONTINUOUS
 62
9
 10
2.00347752989822
 20
1.62999713977232
 30
0.0
 11
2
 21
1.70964566924883
 31
0.0
  0
LINE
  8
9
  6
CONTINUOUS
 62
9
 10
2
 20
1.70964566924883
 30
0.0
 11
1.99781903063173
 21
1.65969325816974
 31
0.0
  0
LINE
  8
9
  6
CONTINUOUS
 62
9
 10
2.00347752989822
 20
2.25991839967232
 30
0.0
 11
2
 21
2.33956692914883
 31
0.0
  0
LINE
  8
9
  6
CONTINUOUS
 62
9
 10
2
 20
2.33956692914883
 30
0.0
 11
1.99781903063173
 21
2.28961451806974
 31
0.0
  0
LINE
  8
9
  6
CONTINUOUS
 62
9
 10
2.00082675654262
 20
2.75337867512237
 30
0.0
 11
1.92299213392774
 21
2.77063419552492
 31
0.0
  0
LINE
  8
9
  6
CONTINUOUS
 62
9
 10
1.92299213392774
 20
2.77063419552492
 30
0.0
 11
1.97067798146515
 21
2.7555989055497
 31
0.0
  0
LINE
  8
9
  6
CONTINUOUS
 62
9
 10
0.496522470101779
 20
2.7499241200277
 30
0.0
 11
0.5
 21
2.67027559055119
 31
0.0
  0
LINE
  8
9
  6
CONTINUOUS
 62
9
 10
0.5
 20
2.67027559055119
 30
0.0
 11
0.502180969368267
 21
2.72022800163028
 31
0.0
  0
LINE
  8
9
  6
CONTINUOUS
 62
9
 10
0.496522470101779
 20
2.2597666397277
 30
0.0
 11
0.5
 21
2.18011811025119
 31
0.0
  0
LINE
  8
9
  6
CONTINUOUS
 62
9
 10
0.5
 20
2.18011811025119
 30
0.0
 11
0.502180969368267
 21
2.23007052133029
 31
0.0
  0
LINE
  8
9
  6
CONTINUOUS
 62
9
 10
0.49662132487764
 20
1.63074801634263
 30
0.0
 11
0.479365804475094
 21
1.55291339372775
 31
0.0
  0
LINE
  8
9
  6
CONTINUOUS
 62
9
 10
0.479365804475094
 20
1.55291339372775
 30
0.0
 11
0.494401094450308
 21
1.60059924126516
 31
0.0
  0
LINE
  8
9
  6
CONTINUOUS
 62
9
 10
0.372392997590772
 20
1.00063792943104
 30
0.0
 11
0.359078552835721
 21
0.940580350252897
 31
0.0
  0
LINE
  8
9
  6
CONTINUOUS
 62
9
 10
0.359078552835721
 20
0.940580350252897
 30
0.0
 11
0.374113842810935
 21
0.988266197790308
 31
0.0
  0
LINE
  8
9
  6
CONTINUOUS
 62
9
 10
0.296603203322095
 20
0.272910435232995
 30
0.0
 11
0.401459135687386
 21
0.380172886481349
 31
0.0
  0
LINE
  8
9
  6
CONTINUOUS
 62
9
 10
0.455778657441237
 20
0.311944981788878
 30
0.0
 11
0.327745996533744
 21
0.233793604699624
 31
0.0
  0
LINE
  8
9
  6
CONTINUOUS
 62
9
 10
3.50260700240923
 20
0.124362070568977
 30
0.0
 11
3.51592144716428
 21
0.184419649747123
 31
0.0
  0
LINE
  8
9
  6
CONTINUOUS
 62
9
 10
3.51592144716428
 20
0.184419649747123
 30
0.0
 11
3.50088615718907
 21
0.136733802209712
 31
0.0
  0
LINE
  8
9
  6
CONTINUOUS
 62
9
 10
3.50257669502964
 20
0.488940014511528
 30
0.0
 11
3.48407855283572
 21
0.547608626147123
 31
0.0
  0
LINE
  8
9
  6
CONTINUOUS
 62
9
 10
3.48407855283572
 20
0.547608626147123
 30
0.0
 11
3.49490053353263
 21
0.498793825791127
 31
0.0
  0
LINE
  8
9
  6
CONTINUOUS
 62
9
 10
2.75347752989822
 20
1.62999713977232
 30
0.0
 11
2.75
 21
1.70964566924883
 31
0.0
  0
LINE
  8
9
  6
CONTINUOUS
 62
9
 10
2.75
 20
1.70964566924883
 30
0.0
 11
2.74781903063173
 21
1.65969325816974
 31
0.0
  0
LINE
  8
9
  6
CONTINUOUS
 62
9
 10
2.75347752989822
 20
2.25991839967232
 30
0.0
 11
2.75
 21
2.33956692914883
 31
0.0
  0
LINE
  8
9
  6
CONTINUOUS
 62
9
 10
2.75
 20
2.33956692914883
 30
0.0
 11
2.74781903063173
 21
2.28961451806973
 31
0.0
  0
LINE
  8
9
  6
CONTINUOUS
 62
9
 10
2.74917324345738
 20
2.74662132487765
 30
0.0
 11
2.82700786607226
 21
2.7293658044751
 31
0.0
  0
LINE
  8
9
  6
CONTINUOUS
 62
9
 10
2.82700786607226
 20
2.7293658044751
 30
0.0
 11
2.77932201853485
 21
2.74440109445032
 31
0.0
  0
LINE
  8
9
  6
CONTINUOUS
 62
9
 10
4.24652247010178
 20
2.7499241200277
 30
0.0
 11
4.25
 21
2.67027559055119
 31
0.0
  0
LINE
  8
9
  6
CONTINUOUS
 62
9
 10
4.25
 20
2.67027559055119
 30
0.0
 11
4.25218096936827
 21
2.72022800163028
 31
0.0
  0
LINE
  8
9
  6
CONTINUOUS
 62
9
 10
4.24652247010178
 20
2.2597666397277
 30
0.0
 11
4.25
 21
2.18011811025119
 31
0.0
  0
LINE
  8
9
  6
CONTINUOUS
 62
9
 10
4.25
 20
2.18011811025119
 30
0.0
 11
4.25218096936827
 21
2.23007052133028
 31
0.0
  0
LINE
  8
9
  6
CONTINUOUS
 62
9
 10
4.24652247010178
 20
1.6298453798277
 30
0.0
 11
4.25
 21
1.55019685035119
 31
0.0
  0
LINE
  8
9
  6
CONTINUOUS
 62
9
 10
4.25
 20
1.55019685035119
 30
0.0
 11
4.25218096936827
 21
1.60014926143028
 31
0.0
  0
LINE
  8
9
  6
CONTINUOUS
 62
9
 10
4.37563792943103
 20
1.00260700240924
 30
0.0
 11
4.31558035025289
 21
1.01592144716429
 31
0.0
  0
LINE
  8
9
  6
CONTINUOUS
 62
9
 10
4.31558035025289
 20
1.01592144716429
 30
0.0
 11
4.3632661977903
 21
1.00088615718908
 31
0.0
  0
LINE
  8
9
  6
CONTINUOUS
 62
9
 10
4.01410553690874
 20
1.00139234485554
 30
0.0
 11
3.98105314958425
 21
1.05327420052809
 31
0.0
  0
LINE
  8
9
  6
CONTINUOUS
 62
9
 10
3.98105314958425
 20
1.05327420052809
 30
0.0
 11
4.004140580246
 21
1.00892365886918
 31
0.0
  0
LINE
  8
9
  6
CONTINUOUS
 62
9
 10
3.4980612344014
 20
1.51366698789772
 30
0.0
 11
3.45650179741717
 21
1.46831282101718
 31
0.0
  0
LINE
  8
9
  6
CONTINUOUS
 62
9
 10
3.45650179741717
 20
1.46831282101718
 30
0.0
 11
3.49336566425767
 21
1.50209233139796
 31
0.0
  0
LINE
  8
9
  6
CONTINUOUS
 62
9
 10
3.26520792829051
 20
1.06968606291531
 30
0.0
 11
3.11876352722252
 21
1.10215200500602
 31
0.0
  0
LINE
  8
9
  6
CONTINUOUS
 62
9
 10
3.11876352722252
 20
1.10215200500602
 30
0.0
 11
3.16644937475993
 21
1.08711671503081
 31
0.0
  0
LINE
  8
9
  6
CONTINUOUS
 62
9
 10
2.98882690583103
 20
1.00260700240924
 30
0.0
 11
2.92876932665289
 21
1.01592144716429
 31
0.0
  0
LINE
  8
9
  6
CONTINUOUS
 62
9
 10
2.92876932665289
 20
1.01592144716429
 30
0.0
 11
2.9764551741903
 21
1.00088615718908
 31
0.0
  0
LINE
  8
9
  6
CONTINUOUS
 62
9
 10
2.62239299759077
 20
1.00063792943104
 30
0.0
 11
2.60907855283572
 21
0.940580350252897
 31
0.0
  0
LINE
  8
9
  6
CONTINUOUS
 62
9
 10
2.60907855283572
 20
0.940580350252897
 30
0.0
 11
2.62411384281093
 21
0.988266197790308
 31
0.0
  0
LINE
  8
9
  6
CONTINUOUS
 62
9
 10
2.56530218587513
 20
0.249024179231493
 30
0.0
 11
2.66741104280539
 21
0.358904938859359
 31
0.0
  0
LINE
  8
9
  6
CONTINUOUS
 62
9
 10
2.72343920405248
 20
0.292073041014382
 30
0.0
 11
2.59742458650399
 21
0.210707715696359
 31
0.0
  0
ENDSEC
  0
EOF
