  0
SECTION
  2
HEADER
  9
$ACADVER
  1
AC1003
  9
$EXTMIN
 10
0.449556990691404
 20
4.58709028239412
  9
$EXTMAX
 10
6.72950779091798
 20
0.243346527050356
  9
$INSUNITS
 70
1
  9
$INSBASE
 10
3.58953239080469
 20
2.41521840472224
999
Created with OMAX LAYOUT for Windows. (www.omax.com) 5/17/2025
  0
ENDSEC
  0
SECTION
  2
TABLES
  0
TABLE
  2
LAYER
 70
    10
  0
LAYER
  2
0
 70
     0
 62
     7
  6
CONTINUOUS
  0
LAYER
  2
1
 70
     0
 62
     7
  6
CONTINUOUS
  0
LAYER
  2
2
 70
     0
 62
     7
  6
CONTINUOUS
  0
LAYER
  2
3
 70
     0
 62
     7
  6
CONTINUOUS
  0
LAYER
  2
4
 70
     0
 62
     7
  6
CONTINUOUS
  0
LAYER
  2
5
 70
     0
 62
     7
  6
CONTINUOUS
  0
LAYER
  2
6
 70
     0
 62
     7
  6
CONTINUOUS
  0
LAYER
  2
7
 70
     0
 62
     7
  6
CONTINUOUS
  0
LAYER
  2
8
 70
     0
 62
     7
  6
CONTINUOUS
  0
LAYER
  2
9
 70
     0
 62
     7
  6
CONTINUOUS
  0
LAYER
  2
10
 70
     0
 62
     7
  6
CONTINUOUS
  0
LAYER
  2
11
 70
     0
 62
     7
  6
CONTINUOUS
  0
LAYER
  2
12
 70
     0
 62
     7
  6
CONTINUOUS
  0
LAYER
  2
13
 70
     0
 62
     7
  6
CONTINUOUS
  0
LAYER
  2
14
 70
     0
 62
     7
  6
CONTINUOUS
  0
LAYER
  2
15
 70
     0
 62
     7
  6
CONTINUOUS
  0
LAYER
  2
16
 70
     0
 62
     7
  6
CONTINUOUS
  0
LAYER
  2
17
 70
     0
 62
     7
  6
CONTINUOUS
  0
LAYER
  2
18
 70
     0
 62
     7
  6
CONTINUOUS
  0
LAYER
  2
19
 70
     0
 62
     7
  6
CONTINUOUS
  0
LAYER
  2
20
 70
     0
 62
     7
  6
CONTINUOUS
  0
LAYER
  2
21
 70
     0
 62
     7
  6
CONTINUOUS
  0
LAYER
  2
22
 70
     0
 62
     7
  6
CONTINUOUS
  0
LAYER
  2
23
 70
     0
 62
     7
  6
CONTINUOUS
  0
LAYER
  2
24
 70
     0
 62
     7
  6
CONTINUOUS
  0
LAYER
  2
25
 70
     0
 62
     7
  6
CONTINUOUS
  0
LAYER
  2
26
 70
     0
 62
     7
  6
CONTINUOUS
  0
LAYER
  2
27
 70
     0
 62
     7
  6
CONTINUOUS
  0
LAYER
  2
28
 70
     0
 62
     7
  6
CONTINUOUS
  0
LAYER
  2
29
 70
     0
 62
     7
  6
CONTINUOUS
  0
LAYER
  2
30
 70
     0
 62
     7
  6
CONTINUOUS
  0
LAYER
  2
31
 70
     0
 62
     7
  6
CONTINUOUS
  0
ENDTAB
  0
ENDSEC
  0
SECTION
  2
ENTITIES
  0
LINE
  8
0
  6
CONTINUOUS
 62
0
 10
0.537832977495042
 20
0.243346527050356
 30
0.0
 11
0.882051446450133
 21
0.490911503525689
 31
0.0
  0
LINE
  8
0
  6
CONTINUOUS
 62
0
 10
0.89971356129281
 20
0.51663666048491
 30
0.0
 11
1.38288841316917
 21
0.99433189400917
 31
0.0
  0
LINE
  8
0
  6
CONTINUOUS
 62
0
 10
1.36944083114748
 20
1.0224903126271
 30
0.0
 11
1.0173885894455
 21
1.73971880367701
 31
0.0
  0
LINE
  8
0
  6
CONTINUOUS
 62
0
 10
0.94057649930476
 20
1.80419346797885
 30
0.0
 11
0.608044503839564
 21
2.08224149807136
 31
0.0
  0
LINE
  8
0
  6
CONTINUOUS
 62
0
 10
0.576170873844996
 20
2.04371784675208
 30
0.0
 11
1.41604737063011
 21
2.58807564439643
 31
0.0
  0
LINE
  8
0
  6
CONTINUOUS
 62
0
 10
1.4025997887686
 20
2.61623406250633
 30
0.0
 11
1.08189935660959
 21
3.68594213446064
 31
0.0
  0
LINE
  8
0
  6
CONTINUOUS
 62
0
 10
1.06446870449409
 20
3.58718358093006
 30
0.0
 11
0.914360452666865
 21
3.09017750061727
 31
0.0
  0
LINE
  8
0
  6
CONTINUOUS
 62
0
 10
0.884940567949032
 20
3.10057963268543
 30
0.0
 11
0.449556990691404
 21
3.37313364283344
 31
0.0
  0
LINE
  8
0
  6
CONTINUOUS
 62
0
 10
0.460532600457637
 20
3.32435315503085
 30
0.0
 11
2.91604737063011
 21
2.58807564439643
 31
0.0
  0
LINE
  8
0
  6
CONTINUOUS
 62
0
 10
2.9025997887686
 20
2.61623406250633
 30
0.0
 11
2.58189935660959
 21
3.68594213446064
 31
0.0
  0
LINE
  8
0
  6
CONTINUOUS
 62
0
 10
2.56446870449409
 20
3.58718358093006
 30
0.0
 11
2.41436045266687
 21
3.09017750061727
 31
0.0
  0
LINE
  8
0
  6
CONTINUOUS
 62
0
 10
2.38494056794903
 20
3.10057963268543
 30
0.0
 11
1.9495569906914
 21
3.37313364283344
 31
0.0
  0
LINE
  8
0
  6
CONTINUOUS
 62
0
 10
1.96053260045764
 20
3.32435315503085
 30
0.0
 11
2.13205144645013
 21
0.490911503525689
 31
0.0
  0
LINE
  8
0
  6
CONTINUOUS
 62
0
 10
2.14971356129281
 20
0.51663666048491
 30
0.0
 11
2.63288841316917
 21
0.99433189400917
 31
0.0
  0
LINE
  8
0
  6
CONTINUOUS
 62
0
 10
2.61944083114748
 20
1.0224903126271
 30
0.0
 11
2.2673885894455
 21
1.73971880367701
 31
0.0
  0
LINE
  8
0
  6
CONTINUOUS
 62
0
 10
2.19057649930476
 20
1.80419346797885
 30
0.0
 11
1.85804450383956
 21
2.08224149807136
 31
0.0
  0
LINE
  8
0
  6
CONTINUOUS
 62
0
 10
1.826170873845
 20
2.04371784675208
 30
0.0
 11
3.38205144645013
 21
0.490911503525689
 31
0.0
  0
LINE
  8
0
  6
CONTINUOUS
 62
0
 10
3.39971356129281
 20
0.51663666048491
 30
0.0
 11
3.88288841316917
 21
0.99433189400917
 31
0.0
  0
LINE
  8
0
  6
CONTINUOUS
 62
0
 10
3.86944083114748
 20
1.0224903126271
 30
0.0
 11
3.5173885894455
 21
1.73971880367701
 31
0.0
  0
LINE
  8
0
  6
CONTINUOUS
 62
0
 10
3.44057649930476
 20
1.80419346797885
 30
0.0
 11
3.10804450383956
 21
2.08224149807136
 31
0.0
  0
LINE
  8
0
  6
CONTINUOUS
 62
0
 10
3.076170873845
 20
2.04371784675208
 30
0.0
 11
4.41604737063011
 21
2.58807564439643
 31
0.0
  0
LINE
  8
0
  6
CONTINUOUS
 62
0
 10
4.4025997887686
 20
2.61623406250633
 30
0.0
 11
4.08189935660959
 21
3.68594213446064
 31
0.0
  0
LINE
  8
0
  6
CONTINUOUS
 62
0
 10
4.06446870449409
 20
3.58718358093006
 30
0.0
 11
3.91436045266687
 21
3.09017750061727
 31
0.0
  0
LINE
  8
0
  6
CONTINUOUS
 62
0
 10
3.88494056794903
 20
3.10057963268543
 30
0.0
 11
3.4495569906914
 21
3.37313364283344
 31
0.0
  0
LINE
  8
0
  6
CONTINUOUS
 62
0
 10
3.46053260045764
 20
3.32435315503085
 30
0.0
 11
5.91604737063011
 21
2.58807564439643
 31
0.0
  0
LINE
  8
0
  6
CONTINUOUS
 62
0
 10
5.9025997887686
 20
2.61623406250633
 30
0.0
 11
5.58189935660959
 21
3.68594213446064
 31
0.0
  0
LINE
  8
0
  6
CONTINUOUS
 62
0
 10
5.56446870449409
 20
3.58718358093006
 30
0.0
 11
5.41436045266687
 21
3.09017750061727
 31
0.0
  0
LINE
  8
0
  6
CONTINUOUS
 62
0
 10
5.38494056794903
 20
3.10057963268543
 30
0.0
 11
4.9495569906914
 21
3.37313364283344
 31
0.0
  0
LINE
  8
0
  6
CONTINUOUS
 62
0
 10
4.96053260045764
 20
3.32435315503085
 30
0.0
 11
5.12696412878582
 21
0.995781557175021
 31
0.0
  0
LINE
  8
0
  6
CONTINUOUS
 62
0
 10
5.10930201394314
 20
0.970056400215799
 30
0.0
 11
4.63292817315146
 21
0.492509565281317
 31
0.0
  0
LINE
  8
0
  6
CONTINUOUS
 62
0
 10
4.63536143481017
 20
0.523619262145683
 30
0.0
 11
4.7673885894455
 21
1.73971880367701
 31
0.0
  0
LINE
  8
0
  6
CONTINUOUS
 62
0
 10
4.69057649930476
 20
1.80419346797885
 30
0.0
 11
4.35804450383956
 21
2.08224149807136
 31
0.0
  0
LINE
  8
0
  6
CONTINUOUS
 62
0
 10
4.326170873845
 20
2.04371784675208
 30
0.0
 11
5.88205144645013
 21
0.490911503525689
 31
0.0
  0
LINE
  8
0
  6
CONTINUOUS
 62
0
 10
5.89971356129281
 20
0.516636660484911
 30
0.0
 11
6.38288841316917
 21
0.99433189400917
 31
0.0
  0
LINE
  8
0
  6
CONTINUOUS
 62
0
 10
6.36944083114748
 20
1.0224903126271
 30
0.0
 11
6.0173885894455
 21
1.73971880367701
 31
0.0
  0
LINE
  8
0
  6
CONTINUOUS
 62
0
 10
5.94057649930476
 20
1.80419346797885
 30
0.0
 11
5.60804450383956
 21
2.08224149807136
 31
0.0
  0
LINE
  8
0
  6
CONTINUOUS
 62
0
 10
5.576170873845
 20
2.04371784675208
 30
0.0
 11
6.72950779091798
 21
0.243346527050356
 31
0.0
  0
ARC
  8
3
  6
CONTINUOUS
 62
3
 10
0.879507785973413
 20
0.493346528713478
 30
0.0
 40
0.0807086619368779
 50
44.999999996141
 51
90.0000000038583
  0
ARC
  8
3
  6
CONTINUOUS
 62
3
 10
0.879507785967978
 20
0.493346528700356
 30
0.0
 40
0.0807086619500001
 50
90
 51
270
  0
ARC
  8
3
  6
CONTINUOUS
 62
3
 10
0.879507785973415
 20
0.493346528698104
 30
0.0
 40
0.0807086619477487
 50
269.99999999614
 51
45.0000000038583
  0
ARC
  8
3
  6
CONTINUOUS
 62
3
 10
1.37950778926616
 20
0.993346532000115
 30
0.0
 40
0.0807086619497616
 50
104.999999998712
 51
270.000000001285
  0
ARC
  8
3
  6
CONTINUOUS
 62
3
 10
1.37950778926798
 20
0.993346532000354
 30
0.0
 40
0.0807086619500001
 50
270
 51
90
  0
ARC
  8
3
  6
CONTINUOUS
 62
3
 10
1.37950778925892
 20
0.993346532069166
 30
0.0
 40
0.0807086618811887
 50
89.9999999935686
 51
105.000000006431
  0
ARC
  8
3
  6
CONTINUOUS
 62
3
 10
1.1295077876109
 20
1.61834653612243
 30
0.0
 40
0.314960631997071
 50
134.999999998712
 51
270.000000001285
  0
ARC
  8
3
  6
CONTINUOUS
 62
3
 10
1.12950778761798
 20
1.61834653612536
 30
0.0
 40
0.314960632
 50
269.999999999999
 51
90.0000000000003
  0
ARC
  8
3
  6
CONTINUOUS
 62
3
 10
1.12950778758262
 20
1.61834653621071
 30
0.0
 40
0.31496063191465
 50
89.9999999935685
 51
135.000000006431
  0
LINE
  8
3
  6
CONTINUOUS
 62
3
 10
0.734583316353945
 20
2.00169381699083
 30
0.0
 11
0.778075924115592
 21
1.97400880375469
 31
0.0
  0
ARC
  8
3
  6
CONTINUOUS
 62
3
 10
1.12950778761797
 20
1.61834653612535
 30
0.0
 40
0.5000000033
 50
359.999999999998
 51
134.657214790028
  0
LINE
  8
3
  6
CONTINUOUS
 62
3
 10
1.62950779091798
 20
1.61834653612536
 30
0.0
 11
1.62950779091798
 21
0.305846527462855
 31
0.0
  0
ARC
  8
3
  6
CONTINUOUS
 62
3
 10
1.56700779050548
 20
0.305846527462856
 30
0.0
 40
0.0625000004124994
 50
269.999999999999
 51
359.999999999999
  0
LINE
  8
3
  6
CONTINUOUS
 62
3
 10
1.56700779050548
 20
0.243346527050356
 30
0.0
 11
0.692007784730477
 21
0.243346527050356
 31
0.0
  0
ARC
  8
3
  6
CONTINUOUS
 62
3
 10
0.692007784730477
 20
0.305846527462856
 30
0.0
 40
0.0625000004124994
 50
180.000000000001
 51
270.000000000001
  0
LINE
  8
3
  6
CONTINUOUS
 62
3
 10
0.629507784317977
 20
0.305846527462855
 30
0.0
 11
0.629507784317977
 21
1.61834653612536
 31
0.0
  0
ARC
  8
3
  6
CONTINUOUS
 62
3
 10
1.12950778761797
 20
1.61834653612535
 30
0.0
 40
0.500000003299995
 50
146.13555566855
 51
180
  0
LINE
  8
3
  6
CONTINUOUS
 62
3
 10
0.714328664126456
 20
1.89696150111613
 30
0.0
 11
0.678989062939112
 21
1.93450054047049
 31
0.0
  0
ARC
  8
3
  6
CONTINUOUS
 62
3
 10
1.41266674674941
 20
2.58709028239388
 30
0.0
 40
0.0807086614170837
 50
104.999999998712
 51
270.000000001285
  0
ARC
  8
3
  6
CONTINUOUS
 62
3
 10
1.41266674675123
 20
2.58709028239412
 30
0.0
 40
0.0807086614173222
 50
270
 51
90
  0
ARC
  8
3
  6
CONTINUOUS
 62
3
 10
1.41266674674217
 20
2.58709028246293
 30
0.0
 40
0.0807086613485113
 50
89.9999999935696
 51
105.000000006431
  0
ARC
  8
3
  6
CONTINUOUS
 62
3
 10
1.16266674670212
 20
3.96209028202111
 30
0.0
 40
0.437499999626994
 50
254.999999993568
 51
270.000000006431
  0
ARC
  8
3
  6
CONTINUOUS
 62
3
 10
1.16266674675123
 20
3.96209028239412
 30
0.0
 40
0.4375
 50
270
 51
90
  0
ARC
  8
3
  6
CONTINUOUS
 62
3
 10
1.1626667467414
 20
3.96209028239541
 30
0.0
 40
0.437499999998707
 50
89.9999999987134
 51
255.000000001286
  0
ARC
  8
3
  6
CONTINUOUS
 62
3
 10
0.912666746749413
 20
3.08709028239307
 30
0.0
 40
0.0807086614162764
 50
149.999999998712
 51
270.000000001285
  0
ARC
  8
3
  6
CONTINUOUS
 62
3
 10
0.912666746751227
 20
3.08709028239412
 30
0.0
 40
0.0807086614173222
 50
270
 51
90
  0
ARC
  8
3
  6
CONTINUOUS
 62
3
 10
0.912666746742166
 20
3.08709028240981
 30
0.0
 40
0.0807086614016312
 50
89.9999999935682
 51
150.000000006431
  0
LINE
  8
3
  6
CONTINUOUS
 62
3
 10
0.590684316744025
 20
3.42395763166979
 30
0.0
 11
0.639191137018761
 21
3.44142632579931
 31
0.0
  0
LINE
  8
3
  6
CONTINUOUS
 62
3
 10
0.639191137018761
 20
3.44142632579931
 30
0.0
 11
0.552910649151225
 21
3.82489516039411
 31
0.0
  0
ARC
  8
3
  6
CONTINUOUS
 62
3
 10
1.16266674675123
 20
3.96209028239411
 30
0.0
 40
0.625000000000001
 50
89.9999999999998
 51
192.6803834918
  0
ARC
  8
3
  6
CONTINUOUS
 62
3
 10
1.16266674675121
 20
3.96209028239412
 30
0.0
 40
0.625
 50
347.319616508198
 51
89.9999999999997
  0
LINE
  8
3
  6
CONTINUOUS
 62
3
 10
1.77242284435123
 20
3.82489516039411
 30
0.0
 11
1.66419113695123
 21
3.34386535019412
 31
0.0
  0
ARC
  8
3
  6
CONTINUOUS
 62
3
 10
1.72516674675122
 20
3.33014583799412
 30
0.0
 40
0.0624999999999907
 50
167.3196165082
 51
180
  0
LINE
  8
3
  6
CONTINUOUS
 62
3
 10
1.66266674675123
 20
3.33014583799412
 30
0.0
 11
1.66266674675123
 21
2.39959028239412
 31
0.0
  0
ARC
  8
3
  6
CONTINUOUS
 62
3
 10
1.60016674675123
 20
2.39959028239412
 30
0.0
 40
0.0625000000000001
 50
270
 51
4.5884470896801E-13
  0
LINE
  8
3
  6
CONTINUOUS
 62
3
 10
1.60016674675123
 20
2.33709028239412
 30
0.0
 11
0.725166746751225
 21
2.33709028239412
 31
0.0
  0
ARC
  8
3
  6
CONTINUOUS
 62
3
 10
0.725166746751226
 20
2.39959028239412
 30
0.0
 40
0.0625
 50
180
 51
270
  0
LINE
  8
3
  6
CONTINUOUS
 62
3
 10
0.662666746751225
 20
2.39959028239412
 30
0.0
 11
0.662666746751225
 21
3.33014583799412
 31
0.0
  0
ARC
  8
3
  6
CONTINUOUS
 62
3
 10
0.600166746751235
 20
3.33014583799412
 30
0.0
 40
0.0624999999999906
 50
359.999999999999
 51
12.6803834917995
  0
LINE
  8
3
  6
CONTINUOUS
 62
3
 10
0.661142356551225
 20
3.34386535019411
 30
0.0
 11
0.609828067576047
 21
3.33887429472082
 31
0.0
  0
ARC
  8
3
  6
CONTINUOUS
 62
3
 10
2.91266674674941
 20
2.58709028239388
 30
0.0
 40
0.0807086614170837
 50
104.999999998712
 51
270.000000001285
  0
ARC
  8
3
  6
CONTINUOUS
 62
3
 10
2.91266674675123
 20
2.58709028239412
 30
0.0
 40
0.0807086614173222
 50
270
 51
90
  0
ARC
  8
3
  6
CONTINUOUS
 62
3
 10
2.91266674674217
 20
2.58709028246293
 30
0.0
 40
0.0807086613485104
 50
89.9999999935697
 51
105.000000006431
  0
ARC
  8
3
  6
CONTINUOUS
 62
3
 10
2.66266674670212
 20
3.96209028202111
 30
0.0
 40
0.437499999626995
 50
254.999999993568
 51
270.000000006431
  0
ARC
  8
3
  6
CONTINUOUS
 62
3
 10
2.66266674675123
 20
3.96209028239412
 30
0.0
 40
0.4375
 50
270
 51
90
  0
ARC
  8
3
  6
CONTINUOUS
 62
3
 10
2.6626667467414
 20
3.96209028239541
 30
0.0
 40
0.437499999998707
 50
89.9999999987134
 51
255.000000001286
  0
ARC
  8
3
  6
CONTINUOUS
 62
3
 10
2.41266674674941
 20
3.08709028239307
 30
0.0
 40
0.0807086614162761
 50
149.999999998712
 51
270.000000001285
  0
ARC
  8
3
  6
CONTINUOUS
 62
3
 10
2.41266674675123
 20
3.08709028239412
 30
0.0
 40
0.0807086614173222
 50
270
 51
90
  0
ARC
  8
3
  6
CONTINUOUS
 62
3
 10
2.41266674674217
 20
3.08709028240981
 30
0.0
 40
0.0807086614016311
 50
89.9999999935684
 51
150.000000006431
  0
LINE
  8
3
  6
CONTINUOUS
 62
3
 10
2.09068431674402
 20
3.42395763166979
 30
0.0
 11
2.13919113701876
 21
3.44142632579931
 31
0.0
  0
LINE
  8
3
  6
CONTINUOUS
 62
3
 10
2.13919113701876
 20
3.44142632579931
 30
0.0
 11
2.05291064915123
 21
3.82489516039411
 31
0.0
  0
ARC
  8
3
  6
CONTINUOUS
 62
3
 10
2.66266674675123
 20
3.96209028239411
 30
0.0
 40
0.625000000000001
 50
89.9999999999998
 51
192.6803834918
  0
ARC
  8
3
  6
CONTINUOUS
 62
3
 10
2.66266674675121
 20
3.96209028239412
 30
0.0
 40
0.625
 50
347.319616508198
 51
89.9999999999997
  0
LINE
  8
3
  6
CONTINUOUS
 62
3
 10
3.27242284435123
 20
3.82489516039411
 30
0.0
 11
3.16419113695123
 21
3.34386535019412
 31
0.0
  0
ARC
  8
3
  6
CONTINUOUS
 62
3
 10
3.22516674675122
 20
3.33014583799412
 30
0.0
 40
0.0624999999999907
 50
167.3196165082
 51
180
  0
LINE
  8
3
  6
CONTINUOUS
 62
3
 10
3.16266674675123
 20
3.33014583799412
 30
0.0
 11
3.16266674675123
 21
2.39959028239412
 31
0.0
  0
ARC
  8
3
  6
CONTINUOUS
 62
3
 10
3.10016674675123
 20
2.39959028239412
 30
0.0
 40
0.0625
 50
270
 51
5.60622458774843E-13
  0
LINE
  8
3
  6
CONTINUOUS
 62
3
 10
3.10016674675123
 20
2.33709028239412
 30
0.0
 11
2.22516674675123
 21
2.33709028239412
 31
0.0
  0
ARC
  8
3
  6
CONTINUOUS
 62
3
 10
2.22516674675123
 20
2.39959028239412
 30
0.0
 40
0.0625
 50
180
 51
270
  0
LINE
  8
3
  6
CONTINUOUS
 62
3
 10
2.16266674675123
 20
2.39959028239412
 30
0.0
 11
2.16266674675123
 21
3.33014583799412
 31
0.0
  0
ARC
  8
3
  6
CONTINUOUS
 62
3
 10
2.10016674675123
 20
3.33014583799412
 30
0.0
 40
0.0624999999999906
 50
360
 51
12.6803834918
  0
LINE
  8
3
  6
CONTINUOUS
 62
3
 10
2.16114235655123
 20
3.34386535019411
 30
0.0
 11
2.10982806757605
 21
3.33887429472082
 31
0.0
  0
ARC
  8
3
  6
CONTINUOUS
 62
3
 10
2.12950778597341
 20
0.493346528713478
 30
0.0
 40
0.0807086619368778
 50
44.9999999961409
 51
90.0000000038582
  0
ARC
  8
3
  6
CONTINUOUS
 62
3
 10
2.12950778596798
 20
0.493346528700356
 30
0.0
 40
0.0807086619500001
 50
90
 51
270
  0
ARC
  8
3
  6
CONTINUOUS
 62
3
 10
2.12950778597341
 20
0.493346528698104
 30
0.0
 40
0.0807086619477486
 50
269.999999996141
 51
45.0000000038585
  0
ARC
  8
3
  6
CONTINUOUS
 62
3
 10
2.62950778926616
 20
0.993346532000115
 30
0.0
 40
0.0807086619497616
 50
104.999999998712
 51
270.000000001285
  0
ARC
  8
3
  6
CONTINUOUS
 62
3
 10
2.62950778926798
 20
0.993346532000354
 30
0.0
 40
0.0807086619500001
 50
270
 51
90
  0
ARC
  8
3
  6
CONTINUOUS
 62
3
 10
2.62950778925892
 20
0.993346532069165
 30
0.0
 40
0.080708661881189
 50
89.9999999935684
 51
105.000000006431
  0
ARC
  8
3
  6
CONTINUOUS
 62
3
 10
2.3795077876109
 20
1.61834653612243
 30
0.0
 40
0.314960631997071
 50
134.999999998712
 51
270.000000001285
  0
ARC
  8
3
  6
CONTINUOUS
 62
3
 10
2.37950778761798
 20
1.61834653612536
 30
0.0
 40
0.314960632
 50
270
 51
90
  0
ARC
  8
3
  6
CONTINUOUS
 62
3
 10
2.37950778758262
 20
1.61834653621071
 30
0.0
 40
0.314960631914651
 50
89.9999999935685
 51
135.000000006431
  0
LINE
  8
3
  6
CONTINUOUS
 62
3
 10
1.98458331635395
 20
2.00169381699083
 30
0.0
 11
2.02807592411559
 21
1.97400880375469
 31
0.0
  0
ARC
  8
3
  6
CONTINUOUS
 62
3
 10
2.37950778761797
 20
1.61834653612535
 30
0.0
 40
0.500000003300001
 50
359.999999999998
 51
134.657214790028
  0
LINE
  8
3
  6
CONTINUOUS
 62
3
 10
2.87950779091798
 20
1.61834653612536
 30
0.0
 11
2.87950779091798
 21
0.305846527462855
 31
0.0
  0
ARC
  8
3
  6
CONTINUOUS
 62
3
 10
2.81700779050548
 20
0.305846527462856
 30
0.0
 40
0.0625000004124995
 50
269.999999999999
 51
359.999999999999
  0
LINE
  8
3
  6
CONTINUOUS
 62
3
 10
2.81700779050548
 20
0.243346527050356
 30
0.0
 11
1.94200778473048
 21
0.243346527050356
 31
0.0
  0
ARC
  8
3
  6
CONTINUOUS
 62
3
 10
1.94200778473048
 20
0.305846527462856
 30
0.0
 40
0.0625000004124994
 50
180.000000000001
 51
270.000000000001
  0
LINE
  8
3
  6
CONTINUOUS
 62
3
 10
1.87950778431798
 20
0.305846527462855
 30
0.0
 11
1.87950778431798
 21
1.61834653612536
 31
0.0
  0
ARC
  8
3
  6
CONTINUOUS
 62
3
 10
2.37950778761797
 20
1.61834653612535
 30
0.0
 40
0.500000003299995
 50
146.13555566855
 51
180
  0
LINE
  8
3
  6
CONTINUOUS
 62
3
 10
1.96432866412646
 20
1.89696150111613
 30
0.0
 11
1.92898906293911
 21
1.93450054047049
 31
0.0
  0
ARC
  8
3
  6
CONTINUOUS
 62
3
 10
3.37950778597341
 20
0.493346528713478
 30
0.0
 40
0.0807086619368778
 50
44.9999999961409
 51
90.0000000038582
  0
ARC
  8
3
  6
CONTINUOUS
 62
3
 10
3.37950778596798
 20
0.493346528700356
 30
0.0
 40
0.0807086619500001
 50
90
 51
270
  0
ARC
  8
3
  6
CONTINUOUS
 62
3
 10
3.37950778597341
 20
0.493346528698104
 30
0.0
 40
0.0807086619477486
 50
269.999999996141
 51
45.0000000038585
  0
ARC
  8
3
  6
CONTINUOUS
 62
3
 10
3.87950778926616
 20
0.993346532000115
 30
0.0
 40
0.0807086619497616
 50
104.999999998712
 51
270.000000001285
  0
ARC
  8
3
  6
CONTINUOUS
 62
3
 10
3.87950778926798
 20
0.993346532000354
 30
0.0
 40
0.0807086619500001
 50
270
 51
90
  0
ARC
  8
3
  6
CONTINUOUS
 62
3
 10
3.87950778925892
 20
0.993346532069165
 30
0.0
 40
0.080708661881189
 50
89.9999999935684
 51
105.000000006431
  0
ARC
  8
3
  6
CONTINUOUS
 62
3
 10
3.6295077876109
 20
1.61834653612243
 30
0.0
 40
0.314960631997071
 50
134.999999998712
 51
270.000000001285
  0
ARC
  8
3
  6
CONTINUOUS
 62
3
 10
3.62950778761798
 20
1.61834653612536
 30
0.0
 40
0.314960632
 50
270
 51
90
  0
ARC
  8
3
  6
CONTINUOUS
 62
3
 10
3.62950778758262
 20
1.61834653621071
 30
0.0
 40
0.314960631914651
 50
89.9999999935685
 51
135.000000006431
  0
LINE
  8
3
  6
CONTINUOUS
 62
3
 10
3.23458331635395
 20
2.00169381699083
 30
0.0
 11
3.27807592411559
 21
1.97400880375469
 31
0.0
  0
ARC
  8
3
  6
CONTINUOUS
 62
3
 10
3.62950778761797
 20
1.61834653612535
 30
0.0
 40
0.500000003300001
 50
359.999999999998
 51
134.657214790028
  0
LINE
  8
3
  6
CONTINUOUS
 62
3
 10
4.12950779091798
 20
1.61834653612536
 30
0.0
 11
4.12950779091798
 21
0.305846527462855
 31
0.0
  0
ARC
  8
3
  6
CONTINUOUS
 62
3
 10
4.06700779050548
 20
0.305846527462856
 30
0.0
 40
0.0625000004124993
 50
269.999999999999
 51
359.999999999999
  0
LINE
  8
3
  6
CONTINUOUS
 62
3
 10
4.06700779050548
 20
0.243346527050356
 30
0.0
 11
3.19200778473048
 21
0.243346527050356
 31
0.0
  0
ARC
  8
3
  6
CONTINUOUS
 62
3
 10
3.19200778473048
 20
0.305846527462856
 30
0.0
 40
0.0625000004124993
 50
180.000000000001
 51
270.000000000001
  0
LINE
  8
3
  6
CONTINUOUS
 62
3
 10
3.12950778431798
 20
0.305846527462855
 30
0.0
 11
3.12950778431798
 21
1.61834653612536
 31
0.0
  0
ARC
  8
3
  6
CONTINUOUS
 62
3
 10
3.62950778761797
 20
1.61834653612535
 30
0.0
 40
0.500000003299995
 50
146.13555566855
 51
180
  0
LINE
  8
3
  6
CONTINUOUS
 62
3
 10
3.21432866412646
 20
1.89696150111613
 30
0.0
 11
3.17898906293911
 21
1.93450054047049
 31
0.0
  0
ARC
  8
3
  6
CONTINUOUS
 62
3
 10
4.41266674674941
 20
2.58709028239388
 30
0.0
 40
0.0807086614170838
 50
104.999999998713
 51
270.000000001286
  0
ARC
  8
3
  6
CONTINUOUS
 62
3
 10
4.41266674675123
 20
2.58709028239412
 30
0.0
 40
0.0807086614173222
 50
270
 51
90
  0
ARC
  8
3
  6
CONTINUOUS
 62
3
 10
4.41266674674217
 20
2.58709028246293
 30
0.0
 40
0.0807086613485133
 50
89.999999993569
 51
105.000000006431
  0
ARC
  8
3
  6
CONTINUOUS
 62
3
 10
4.16266674670212
 20
3.96209028202111
 30
0.0
 40
0.437499999626993
 50
254.999999993568
 51
270.00000000643
  0
ARC
  8
3
  6
CONTINUOUS
 62
3
 10
4.16266674675123
 20
3.96209028239412
 30
0.0
 40
0.4375
 50
270
 51
90
  0
ARC
  8
3
  6
CONTINUOUS
 62
3
 10
4.1626667467414
 20
3.96209028239541
 30
0.0
 40
0.437499999998707
 50
89.9999999987134
 51
255.000000001286
  0
ARC
  8
3
  6
CONTINUOUS
 62
3
 10
3.91266674674941
 20
3.08709028239307
 30
0.0
 40
0.0807086614162761
 50
149.999999998712
 51
270.000000001285
  0
ARC
  8
3
  6
CONTINUOUS
 62
3
 10
3.91266674675123
 20
3.08709028239412
 30
0.0
 40
0.0807086614173222
 50
270
 51
90
  0
ARC
  8
3
  6
CONTINUOUS
 62
3
 10
3.91266674674217
 20
3.08709028240981
 30
0.0
 40
0.0807086614016311
 50
89.9999999935684
 51
150.000000006431
  0
LINE
  8
3
  6
CONTINUOUS
 62
3
 10
3.59068431674402
 20
3.42395763166979
 30
0.0
 11
3.63919113701876
 21
3.44142632579931
 31
0.0
  0
LINE
  8
3
  6
CONTINUOUS
 62
3
 10
3.63919113701876
 20
3.44142632579931
 30
0.0
 11
3.55291064915123
 21
3.82489516039411
 31
0.0
  0
ARC
  8
3
  6
CONTINUOUS
 62
3
 10
4.16266674675123
 20
3.96209028239411
 30
0.0
 40
0.625000000000001
 50
89.9999999999998
 51
192.6803834918
  0
ARC
  8
3
  6
CONTINUOUS
 62
3
 10
4.16266674675121
 20
3.96209028239412
 30
0.0
 40
0.625
 50
347.319616508198
 51
89.9999999999997
  0
LINE
  8
3
  6
CONTINUOUS
 62
3
 10
4.77242284435123
 20
3.82489516039411
 30
0.0
 11
4.66419113695123
 21
3.34386535019412
 31
0.0
  0
ARC
  8
3
  6
CONTINUOUS
 62
3
 10
4.72516674675122
 20
3.33014583799412
 30
0.0
 40
0.0624999999999907
 50
167.3196165082
 51
180
  0
LINE
  8
3
  6
CONTINUOUS
 62
3
 10
4.66266674675123
 20
3.33014583799412
 30
0.0
 11
4.66266674675123
 21
2.39959028239412
 31
0.0
  0
ARC
  8
3
  6
CONTINUOUS
 62
3
 10
4.60016674675123
 20
2.39959028239412
 30
0.0
 40
0.0625
 50
270
 51
5.60622458774843E-13
  0
LINE
  8
3
  6
CONTINUOUS
 62
3
 10
4.60016674675123
 20
2.33709028239412
 30
0.0
 11
3.72516674675123
 21
2.33709028239412
 31
0.0
  0
ARC
  8
3
  6
CONTINUOUS
 62
3
 10
3.72516674675123
 20
2.39959028239412
 30
0.0
 40
0.0625
 50
180
 51
270
  0
LINE
  8
3
  6
CONTINUOUS
 62
3
 10
3.66266674675123
 20
2.39959028239412
 30
0.0
 11
3.66266674675123
 21
3.33014583799412
 31
0.0
  0
ARC
  8
3
  6
CONTINUOUS
 62
3
 10
3.60016674675123
 20
3.33014583799412
 30
0.0
 40
0.0624999999999906
 50
360
 51
12.6803834918
  0
LINE
  8
3
  6
CONTINUOUS
 62
3
 10
3.66114235655123
 20
3.34386535019411
 30
0.0
 11
3.60982806757605
 21
3.33887429472082
 31
0.0
  0
ARC
  8
3
  6
CONTINUOUS
 62
3
 10
5.91266674674941
 20
2.58709028239388
 30
0.0
 40
0.0807086614170838
 50
104.999999998713
 51
270.000000001286
  0
ARC
  8
3
  6
CONTINUOUS
 62
3
 10
5.91266674675123
 20
2.58709028239412
 30
0.0
 40
0.0807086614173222
 50
270
 51
90
  0
ARC
  8
3
  6
CONTINUOUS
 62
3
 10
5.91266674674217
 20
2.58709028246293
 30
0.0
 40
0.0807086613485133
 50
89.999999993569
 51
105.000000006431
  0
ARC
  8
3
  6
CONTINUOUS
 62
3
 10
5.66266674670212
 20
3.96209028202111
 30
0.0
 40
0.437499999626993
 50
254.999999993568
 51
270.00000000643
  0
ARC
  8
3
  6
CONTINUOUS
 62
3
 10
5.66266674675123
 20
3.96209028239412
 30
0.0
 40
0.4375
 50
270
 51
90
  0
ARC
  8
3
  6
CONTINUOUS
 62
3
 10
5.6626667467414
 20
3.96209028239541
 30
0.0
 40
0.437499999998707
 50
89.9999999987134
 51
255.000000001286
  0
ARC
  8
3
  6
CONTINUOUS
 62
3
 10
5.41266674674941
 20
3.08709028239307
 30
0.0
 40
0.0807086614162765
 50
149.999999998712
 51
270.000000001285
  0
ARC
  8
3
  6
CONTINUOUS
 62
3
 10
5.41266674675123
 20
3.08709028239412
 30
0.0
 40
0.0807086614173222
 50
270
 51
90
  0
ARC
  8
3
  6
CONTINUOUS
 62
3
 10
5.41266674674217
 20
3.08709028240981
 30
0.0
 40
0.0807086614016315
 50
89.9999999935684
 51
150.000000006431
  0
LINE
  8
3
  6
CONTINUOUS
 62
3
 10
5.09068431674402
 20
3.42395763166979
 30
0.0
 11
5.13919113701876
 21
3.44142632579931
 31
0.0
  0
LINE
  8
3
  6
CONTINUOUS
 62
3
 10
5.13919113701876
 20
3.44142632579931
 30
0.0
 11
5.05291064915123
 21
3.82489516039411
 31
0.0
  0
ARC
  8
3
  6
CONTINUOUS
 62
3
 10
5.66266674675123
 20
3.96209028239411
 30
0.0
 40
0.625000000000001
 50
89.9999999999998
 51
192.6803834918
  0
ARC
  8
3
  6
CONTINUOUS
 62
3
 10
5.66266674675121
 20
3.96209028239412
 30
0.0
 40
0.625
 50
347.319616508198
 51
89.9999999999997
  0
LINE
  8
3
  6
CONTINUOUS
 62
3
 10
6.27242284435123
 20
3.82489516039411
 30
0.0
 11
6.16419113695123
 21
3.34386535019412
 31
0.0
  0
ARC
  8
3
  6
CONTINUOUS
 62
3
 10
6.22516674675122
 20
3.33014583799412
 30
0.0
 40
0.0624999999999907
 50
167.3196165082
 51
180
  0
LINE
  8
3
  6
CONTINUOUS
 62
3
 10
6.16266674675123
 20
3.33014583799412
 30
0.0
 11
6.16266674675123
 21
2.39959028239412
 31
0.0
  0
ARC
  8
3
  6
CONTINUOUS
 62
3
 10
6.10016674675123
 20
2.39959028239412
 30
0.0
 40
0.0625
 50
270
 51
5.60622458774843E-13
  0
LINE
  8
3
  6
CONTINUOUS
 62
3
 10
6.10016674675123
 20
2.33709028239412
 30
0.0
 11
5.22516674675123
 21
2.33709028239412
 31
0.0
  0
ARC
  8
3
  6
CONTINUOUS
 62
3
 10
5.22516674675123
 20
2.39959028239412
 30
0.0
 40
0.0625
 50
180
 51
270
  0
LINE
  8
3
  6
CONTINUOUS
 62
3
 10
5.16266674675123
 20
2.39959028239412
 30
0.0
 11
5.16266674675123
 21
3.33014583799412
 31
0.0
  0
ARC
  8
3
  6
CONTINUOUS
 62
3
 10
5.10016674675123
 20
3.33014583799412
 30
0.0
 40
0.0624999999999906
 50
360
 51
12.6803834918
  0
LINE
  8
3
  6
CONTINUOUS
 62
3
 10
5.16114235655123
 20
3.34386535019411
 30
0.0
 11
5.10982806757605
 21
3.33887429472082
 31
0.0
  0
ARC
  8
3
  6
CONTINUOUS
 62
3
 10
5.12950778925892
 20
0.993346531978482
 30
0.0
 40
0.0807086619281291
 50
224.999999993567
 51
270.00000000643
  0
ARC
  8
3
  6
CONTINUOUS
 62
3
 10
5.12950778926798
 20
0.993346532000354
 30
0.0
 40
0.0807086619500001
 50
270
 51
90
  0
ARC
  8
3
  6
CONTINUOUS
 62
3
 10
5.12950778926616
 20
0.993346532001105
 30
0.0
 40
0.0807086619492497
 50
89.9999999987135
 51
225.000000001286
  0
ARC
  8
3
  6
CONTINUOUS
 62
3
 10
4.62950778597341
 20
0.493346528741642
 30
0.0
 40
0.0807086619087137
 50
74.9999999961409
 51
90.0000000038581
  0
ARC
  8
3
  6
CONTINUOUS
 62
3
 10
4.62950778596798
 20
0.493346528700356
 30
0.0
 40
0.0807086619500001
 50
90
 51
270
  0
ARC
  8
3
  6
CONTINUOUS
 62
3
 10
4.62950778597341
 20
0.49334652869964
 30
0.0
 40
0.0807086619492845
 50
269.999999996141
 51
75.0000000038587
  0
ARC
  8
3
  6
CONTINUOUS
 62
3
 10
4.8795077876109
 20
1.61834653612243
 30
0.0
 40
0.314960631997071
 50
134.999999998712
 51
270.000000001285
  0
ARC
  8
3
  6
CONTINUOUS
 62
3
 10
4.87950778761798
 20
1.61834653612536
 30
0.0
 40
0.314960632
 50
270
 51
90
  0
ARC
  8
3
  6
CONTINUOUS
 62
3
 10
4.87950778758262
 20
1.61834653621071
 30
0.0
 40
0.314960631914651
 50
89.9999999935684
 51
135.000000006431
  0
LINE
  8
3
  6
CONTINUOUS
 62
3
 10
4.48458331635395
 20
2.00169381699083
 30
0.0
 11
4.52807592411559
 21
1.97400880375469
 31
0.0
  0
ARC
  8
3
  6
CONTINUOUS
 62
3
 10
4.87950778761797
 20
1.61834653612535
 30
0.0
 40
0.500000003300001
 50
359.999999999998
 51
134.657214790028
  0
LINE
  8
3
  6
CONTINUOUS
 62
3
 10
5.37950779091798
 20
1.61834653612536
 30
0.0
 11
5.37950779091798
 21
0.305846527462855
 31
0.0
  0
ARC
  8
3
  6
CONTINUOUS
 62
3
 10
5.31700779050548
 20
0.305846527462856
 30
0.0
 40
0.0625000004124993
 50
269.999999999999
 51
359.999999999999
  0
LINE
  8
3
  6
CONTINUOUS
 62
3
 10
5.31700779050548
 20
0.243346527050356
 30
0.0
 11
4.44200778473048
 21
0.243346527050356
 31
0.0
  0
ARC
  8
3
  6
CONTINUOUS
 62
3
 10
4.44200778473048
 20
0.305846527462856
 30
0.0
 40
0.0625000004124993
 50
180.000000000001
 51
270.000000000001
  0
LINE
  8
3
  6
CONTINUOUS
 62
3
 10
4.37950778431798
 20
0.305846527462855
 30
0.0
 11
4.37950778431798
 21
1.61834653612536
 31
0.0
  0
ARC
  8
3
  6
CONTINUOUS
 62
3
 10
4.87950778761797
 20
1.61834653612535
 30
0.0
 40
0.500000003299996
 50
146.13555566855
 51
180
  0
LINE
  8
3
  6
CONTINUOUS
 62
3
 10
4.46432866412646
 20
1.89696150111613
 30
0.0
 11
4.42898906293911
 21
1.93450054047049
 31
0.0
  0
ARC
  8
3
  6
CONTINUOUS
 62
3
 10
5.87950778597341
 20
0.493346528713478
 30
0.0
 40
0.080708661936878
 50
44.999999996141
 51
90.0000000038585
  0
ARC
  8
3
  6
CONTINUOUS
 62
3
 10
5.87950778596798
 20
0.493346528700356
 30
0.0
 40
0.0807086619500001
 50
90
 51
270
  0
ARC
  8
3
  6
CONTINUOUS
 62
3
 10
5.87950778597341
 20
0.493346528698104
 30
0.0
 40
0.0807086619477487
 50
269.999999996141
 51
45.0000000038584
  0
ARC
  8
3
  6
CONTINUOUS
 62
3
 10
6.37950778926616
 20
0.993346532000115
 30
0.0
 40
0.0807086619497617
 50
104.999999998713
 51
270.000000001286
  0
ARC
  8
3
  6
CONTINUOUS
 62
3
 10
6.37950778926798
 20
0.993346532000354
 30
0.0
 40
0.0807086619500001
 50
270
 51
90
  0
ARC
  8
3
  6
CONTINUOUS
 62
3
 10
6.37950778925892
 20
0.993346532069165
 30
0.0
 40
0.0807086618811889
 50
89.9999999935687
 51
105.000000006431
  0
ARC
  8
3
  6
CONTINUOUS
 62
3
 10
6.1295077876109
 20
1.61834653612243
 30
0.0
 40
0.314960631997071
 50
134.999999998712
 51
270.000000001285
  0
ARC
  8
3
  6
CONTINUOUS
 62
3
 10
6.12950778761798
 20
1.61834653612536
 30
0.0
 40
0.314960632
 50
270
 51
90
  0
ARC
  8
3
  6
CONTINUOUS
 62
3
 10
6.12950778758262
 20
1.61834653621071
 30
0.0
 40
0.314960631914651
 50
89.9999999935684
 51
135.000000006431
  0
LINE
  8
3
  6
CONTINUOUS
 62
3
 10
5.73458331635395
 20
2.00169381699083
 30
0.0
 11
5.77807592411559
 21
1.97400880375469
 31
0.0
  0
ARC
  8
3
  6
CONTINUOUS
 62
3
 10
6.12950778761797
 20
1.61834653612535
 30
0.0
 40
0.500000003300001
 50
359.999999999998
 51
134.657214790028
  0
LINE
  8
3
  6
CONTINUOUS
 62
3
 10
6.62950779091798
 20
1.61834653612536
 30
0.0
 11
6.62950779091798
 21
0.305846527462855
 31
0.0
  0
ARC
  8
3
  6
CONTINUOUS
 62
3
 10
6.56700779050548
 20
0.305846527462856
 30
0.0
 40
0.0625000004124993
 50
269.999999999999
 51
359.999999999999
  0
LINE
  8
3
  6
CONTINUOUS
 62
3
 10
6.56700779050548
 20
0.243346527050356
 30
0.0
 11
5.69200778473048
 21
0.243346527050356
 31
0.0
  0
ARC
  8
3
  6
CONTINUOUS
 62
3
 10
5.69200778473048
 20
0.305846527462856
 30
0.0
 40
0.0625000004124993
 50
180.000000000001
 51
270.000000000001
  0
LINE
  8
3
  6
CONTINUOUS
 62
3
 10
5.62950778431798
 20
0.305846527462855
 30
0.0
 11
5.62950778431798
 21
1.61834653612536
 31
0.0
  0
ARC
  8
3
  6
CONTINUOUS
 62
3
 10
6.12950778761797
 20
1.61834653612535
 30
0.0
 40
0.500000003299996
 50
146.13555566855
 51
180
  0
LINE
  8
3
  6
CONTINUOUS
 62
3
 10
5.71432866412646
 20
1.89696150111613
 30
0.0
 11
5.67898906293911
 21
1.93450054047049
 31
0.0
  0
LINE
  8
9
  6
CONTINUOUS
 62
9
 10
0.882051446450133
 20
0.490911503525689
 30
0.0
 11
0.936577428133316
 21
0.550416170865693
 31
0.0
  0
LINE
  8
9
  6
CONTINUOUS
 62
9
 10
0.936577428133316
 20
0.550416170865693
 30
0.0
 11
0.89971356129281
 21
0.51663666048491
 31
0.0
  0
LINE
  8
9
  6
CONTINUOUS
 62
9
 10
1.38288841316917
 20
0.99433189400917
 30
0.0
 11
1.35861885045058
 21
1.07130511298309
 31
0.0
  0
LINE
  8
9
  6
CONTINUOUS
 62
9
 10
1.35861885045058
 20
1.07130511298309
 30
0.0
 11
1.36944083114748
 21
1.0224903126271
 31
0.0
  0
LINE
  8
9
  6
CONTINUOUS
 62
9
 10
1.0173885894455
 20
1.73971880367701
 30
0.0
 11
0.906796988923977
 21
1.84105733481936
 31
0.0
  0
LINE
  8
9
  6
CONTINUOUS
 62
9
 10
0.906796988923977
 20
1.84105733481936
 30
0.0
 11
0.94057649930476
 21
1.80419346797885
 31
0.0
  0
LINE
  8
9
  6
CONTINUOUS
 62
9
 10
0.608044503839564
 20
2.08224149807136
 30
0.0
 11
0.734583316353945
 21
2.00169381699083
 31
0.0
  0
LINE
  8
9
  6
CONTINUOUS
 62
9
 10
0.678989062939112
 20
1.93450054047049
 30
0.0
 11
0.576170873844996
 21
2.04371784675208
 31
0.0
  0
LINE
  8
9
  6
CONTINUOUS
 62
9
 10
1.41604737063011
 20
2.58807564439643
 30
0.0
 11
1.39177780807169
 21
2.66504886286233
 31
0.0
  0
LINE
  8
9
  6
CONTINUOUS
 62
9
 10
1.39177780807169
 20
2.66504886286233
 30
0.0
 11
1.4025997887686
 21
2.61623406250633
 31
0.0
  0
LINE
  8
9
  6
CONTINUOUS
 62
9
 10
1.08189935660959
 20
3.68594213446064
 30
0.0
 11
1.04943341451887
 21
3.53949773339265
 31
0.0
  0
LINE
  8
9
  6
CONTINUOUS
 62
9
 10
1.04943341451887
 20
3.53949773339265
 30
0.0
 11
1.06446870449409
 21
3.58718358093006
 31
0.0
  0
LINE
  8
9
  6
CONTINUOUS
 62
9
 10
0.914360452666865
 20
3.09017750061727
 30
0.0
 11
0.842770995658387
 21
3.12744461310278
 31
0.0
  0
LINE
  8
9
  6
CONTINUOUS
 62
9
 10
0.842770995658387
 20
3.12744461310278
 30
0.0
 11
0.884940567949032
 21
3.10057963268543
 31
0.0
  0
LINE
  8
9
  6
CONTINUOUS
 62
9
 10
0.449556990691404
 20
3.37313364283344
 30
0.0
 11
0.590684316744025
 21
3.42395763166979
 31
0.0
  0
LINE
  8
9
  6
CONTINUOUS
 62
9
 10
0.609828067576047
 20
3.33887429472082
 30
0.0
 11
0.460532600457637
 21
3.32435315503085
 31
0.0
  0
LINE
  8
9
  6
CONTINUOUS
 62
9
 10
2.91604737063011
 20
2.58807564439643
 30
0.0
 11
2.89177780807169
 21
2.66504886286233
 31
0.0
  0
LINE
  8
9
  6
CONTINUOUS
 62
9
 10
2.89177780807169
 20
2.66504886286233
 30
0.0
 11
2.9025997887686
 21
2.61623406250633
 31
0.0
  0
LINE
  8
9
  6
CONTINUOUS
 62
9
 10
2.58189935660959
 20
3.68594213446064
 30
0.0
 11
2.54943341451887
 21
3.53949773339265
 31
0.0
  0
LINE
  8
9
  6
CONTINUOUS
 62
9
 10
2.54943341451887
 20
3.53949773339265
 30
0.0
 11
2.56446870449409
 21
3.58718358093006
 31
0.0
  0
LINE
  8
9
  6
CONTINUOUS
 62
9
 10
2.41436045266687
 20
3.09017750061727
 30
0.0
 11
2.34277099565839
 21
3.12744461310278
 31
0.0
  0
LINE
  8
9
  6
CONTINUOUS
 62
9
 10
2.34277099565839
 20
3.12744461310278
 30
0.0
 11
2.38494056794903
 21
3.10057963268543
 31
0.0
  0
LINE
  8
9
  6
CONTINUOUS
 62
9
 10
1.9495569906914
 20
3.37313364283344
 30
0.0
 11
2.09068431674402
 21
3.42395763166979
 31
0.0
  0
LINE
  8
9
  6
CONTINUOUS
 62
9
 10
2.10982806757605
 20
3.33887429472082
 30
0.0
 11
1.96053260045764
 21
3.32435315503085
 31
0.0
  0
LINE
  8
9
  6
CONTINUOUS
 62
9
 10
2.13205144645013
 20
0.490911503525689
 30
0.0
 11
2.18657742813332
 21
0.550416170865693
 31
0.0
  0
LINE
  8
9
  6
CONTINUOUS
 62
9
 10
2.18657742813332
 20
0.550416170865693
 30
0.0
 11
2.14971356129281
 21
0.51663666048491
 31
0.0
  0
LINE
  8
9
  6
CONTINUOUS
 62
9
 10
2.63288841316917
 20
0.99433189400917
 30
0.0
 11
2.60861885045058
 21
1.07130511298309
 31
0.0
  0
LINE
  8
9
  6
CONTINUOUS
 62
9
 10
2.60861885045058
 20
1.07130511298309
 30
0.0
 11
2.61944083114748
 21
1.0224903126271
 31
0.0
  0
LINE
  8
9
  6
CONTINUOUS
 62
9
 10
2.2673885894455
 20
1.73971880367701
 30
0.0
 11
2.15679698892398
 21
1.84105733481936
 31
0.0
  0
LINE
  8
9
  6
CONTINUOUS
 62
9
 10
2.15679698892398
 20
1.84105733481936
 30
0.0
 11
2.19057649930476
 21
1.80419346797885
 31
0.0
  0
LINE
  8
9
  6
CONTINUOUS
 62
9
 10
1.85804450383956
 20
2.08224149807136
 30
0.0
 11
1.98458331635395
 21
2.00169381699083
 31
0.0
  0
LINE
  8
9
  6
CONTINUOUS
 62
9
 10
1.92898906293911
 20
1.93450054047049
 30
0.0
 11
1.826170873845
 21
2.04371784675208
 31
0.0
  0
LINE
  8
9
  6
CONTINUOUS
 62
9
 10
3.38205144645013
 20
0.490911503525689
 30
0.0
 11
3.43657742813332
 21
0.550416170865693
 31
0.0
  0
LINE
  8
9
  6
CONTINUOUS
 62
9
 10
3.43657742813332
 20
0.550416170865693
 30
0.0
 11
3.39971356129281
 21
0.51663666048491
 31
0.0
  0
LINE
  8
9
  6
CONTINUOUS
 62
9
 10
3.88288841316917
 20
0.99433189400917
 30
0.0
 11
3.85861885045058
 21
1.07130511298309
 31
0.0
  0
LINE
  8
9
  6
CONTINUOUS
 62
9
 10
3.85861885045058
 20
1.07130511298309
 30
0.0
 11
3.86944083114748
 21
1.0224903126271
 31
0.0
  0
LINE
  8
9
  6
CONTINUOUS
 62
9
 10
3.5173885894455
 20
1.73971880367701
 30
0.0
 11
3.40679698892398
 21
1.84105733481936
 31
0.0
  0
LINE
  8
9
  6
CONTINUOUS
 62
9
 10
3.40679698892398
 20
1.84105733481936
 30
0.0
 11
3.44057649930476
 21
1.80419346797885
 31
0.0
  0
LINE
  8
9
  6
CONTINUOUS
 62
9
 10
3.10804450383956
 20
2.08224149807136
 30
0.0
 11
3.23458331635395
 21
2.00169381699083
 31
0.0
  0
LINE
  8
9
  6
CONTINUOUS
 62
9
 10
3.17898906293911
 20
1.93450054047049
 30
0.0
 11
3.076170873845
 21
2.04371784675208
 31
0.0
  0
LINE
  8
9
  6
CONTINUOUS
 62
9
 10
4.41604737063011
 20
2.58807564439643
 30
0.0
 11
4.39177780807169
 21
2.66504886286233
 31
0.0
  0
LINE
  8
9
  6
CONTINUOUS
 62
9
 10
4.39177780807169
 20
2.66504886286233
 30
0.0
 11
4.4025997887686
 21
2.61623406250633
 31
0.0
  0
LINE
  8
9
  6
CONTINUOUS
 62
9
 10
4.08189935660959
 20
3.68594213446064
 30
0.0
 11
4.04943341451887
 21
3.53949773339265
 31
0.0
  0
LINE
  8
9
  6
CONTINUOUS
 62
9
 10
4.04943341451887
 20
3.53949773339265
 30
0.0
 11
4.06446870449409
 21
3.58718358093006
 31
0.0
  0
LINE
  8
9
  6
CONTINUOUS
 62
9
 10
3.91436045266687
 20
3.09017750061727
 30
0.0
 11
3.84277099565839
 21
3.12744461310278
 31
0.0
  0
LINE
  8
9
  6
CONTINUOUS
 62
9
 10
3.84277099565839
 20
3.12744461310278
 30
0.0
 11
3.88494056794903
 21
3.10057963268543
 31
0.0
  0
LINE
  8
9
  6
CONTINUOUS
 62
9
 10
3.4495569906914
 20
3.37313364283344
 30
0.0
 11
3.59068431674402
 21
3.42395763166979
 31
0.0
  0
LINE
  8
9
  6
CONTINUOUS
 62
9
 10
3.60982806757605
 20
3.33887429472082
 30
0.0
 11
3.46053260045764
 21
3.32435315503085
 31
0.0
  0
LINE
  8
9
  6
CONTINUOUS
 62
9
 10
5.91604737063011
 20
2.58807564439643
 30
0.0
 11
5.89177780807169
 21
2.66504886286233
 31
0.0
  0
LINE
  8
9
  6
CONTINUOUS
 62
9
 10
5.89177780807169
 20
2.66504886286233
 30
0.0
 11
5.9025997887686
 21
2.61623406250633
 31
0.0
  0
LINE
  8
9
  6
CONTINUOUS
 62
9
 10
5.58189935660959
 20
3.68594213446064
 30
0.0
 11
5.54943341451887
 21
3.53949773339265
 31
0.0
  0
LINE
  8
9
  6
CONTINUOUS
 62
9
 10
5.54943341451887
 20
3.53949773339265
 30
0.0
 11
5.56446870449409
 21
3.58718358093006
 31
0.0
  0
LINE
  8
9
  6
CONTINUOUS
 62
9
 10
5.41436045266687
 20
3.09017750061727
 30
0.0
 11
5.34277099565839
 21
3.12744461310278
 31
0.0
  0
LINE
  8
9
  6
CONTINUOUS
 62
9
 10
5.34277099565839
 20
3.12744461310278
 30
0.0
 11
5.38494056794903
 21
3.10057963268543
 31
0.0
  0
LINE
  8
9
  6
CONTINUOUS
 62
9
 10
4.9495569906914
 20
3.37313364283344
 30
0.0
 11
5.09068431674402
 21
3.42395763166979
 31
0.0
  0
LINE
  8
9
  6
CONTINUOUS
 62
9
 10
5.10982806757605
 20
3.33887429472082
 30
0.0
 11
4.96053260045764
 21
3.32435315503085
 31
0.0
  0
LINE
  8
9
  6
CONTINUOUS
 62
9
 10
5.12696412878582
 20
0.995781557175021
 30
0.0
 11
5.07243814710264
 21
0.936276889835016
 31
0.0
  0
LINE
  8
9
  6
CONTINUOUS
 62
9
 10
5.07243814710264
 20
0.936276889835016
 30
0.0
 11
5.10930201394314
 21
0.970056400215799
 31
0.0
  0
LINE
  8
9
  6
CONTINUOUS
 62
9
 10
4.63292817315146
 20
0.492509565281317
 30
0.0
 11
4.65039672478538
 21
0.571305109683095
 31
0.0
  0
LINE
  8
9
  6
CONTINUOUS
 62
9
 10
4.65039672478538
 20
0.571305109683095
 30
0.0
 11
4.63536143481017
 21
0.523619262145683
 31
0.0
  0
LINE
  8
9
  6
CONTINUOUS
 62
9
 10
4.7673885894455
 20
1.73971880367701
 30
0.0
 11
4.65679698892398
 21
1.84105733481936
 31
0.0
  0
LINE
  8
9
  6
CONTINUOUS
 62
9
 10
4.65679698892398
 20
1.84105733481936
 30
0.0
 11
4.69057649930476
 21
1.80419346797885
 31
0.0
  0
LINE
  8
9
  6
CONTINUOUS
 62
9
 10
4.35804450383956
 20
2.08224149807136
 30
0.0
 11
4.48458331635395
 21
2.00169381699083
 31
0.0
  0
LINE
  8
9
  6
CONTINUOUS
 62
9
 10
4.42898906293911
 20
1.93450054047049
 30
0.0
 11
4.326170873845
 21
2.04371784675208
 31
0.0
  0
LINE
  8
9
  6
CONTINUOUS
 62
9
 10
5.88205144645013
 20
0.490911503525689
 30
0.0
 11
5.93657742813332
 21
0.550416170865693
 31
0.0
  0
LINE
  8
9
  6
CONTINUOUS
 62
9
 10
5.93657742813332
 20
0.550416170865693
 30
0.0
 11
5.89971356129281
 21
0.516636660484911
 31
0.0
  0
LINE
  8
9
  6
CONTINUOUS
 62
9
 10
6.38288841316917
 20
0.99433189400917
 30
0.0
 11
6.35861885045058
 21
1.07130511298309
 31
0.0
  0
LINE
  8
9
  6
CONTINUOUS
 62
9
 10
6.35861885045058
 20
1.07130511298309
 30
0.0
 11
6.36944083114748
 21
1.0224903126271
 31
0.0
  0
LINE
  8
9
  6
CONTINUOUS
 62
9
 10
6.0173885894455
 20
1.73971880367701
 30
0.0
 11
5.90679698892398
 21
1.84105733481936
 31
0.0
  0
LINE
  8
9
  6
CONTINUOUS
 62
9
 10
5.90679698892398
 20
1.84105733481936
 30
0.0
 11
5.94057649930476
 21
1.80419346797885
 31
0.0
  0
LINE
  8
9
  6
CONTINUOUS
 62
9
 10
5.60804450383956
 20
2.08224149807136
 30
0.0
 11
5.73458331635395
 21
2.00169381699083
 31
0.0
  0
LINE
  8
9
  6
CONTINUOUS
 62
9
 10
5.67898906293911
 20
1.93450054047049
 30
0.0
 11
5.576170873845
 21
2.04371784675208
 31
0.0
  0
ENDSEC
  0
EOF
