%TF.GenerationSoftware,KiCad,Pcbnew,8.0.6*%
%TF.CreationDate,2025-02-02T12:33:11-05:00*%
%TF.ProjectId,Electrical schematic,456c6563-7472-4696-9361-6c2073636865,rev?*%
%TF.SameCoordinates,Original*%
%TF.FileFunction,Copper,L1,Top*%
%TF.FilePolarity,Positive*%
%FSLAX46Y46*%
G04 Gerber Fmt 4.6, Leading zero omitted, Abs format (unit mm)*
G04 Created by KiCad (PCBNEW 8.0.6) date 2025-02-02 12:33:11*
%MOMM*%
%LPD*%
G01*
G04 APERTURE LIST*
G04 Aperture macros list*
%AMRoundRect*
0 Rectangle with rounded corners*
0 $1 Rounding radius*
0 $2 $3 $4 $5 $6 $7 $8 $9 X,Y pos of 4 corners*
0 Add a 4 corners polygon primitive as box body*
4,1,4,$2,$3,$4,$5,$6,$7,$8,$9,$2,$3,0*
0 Add four circle primitives for the rounded corners*
1,1,$1+$1,$2,$3*
1,1,$1+$1,$4,$5*
1,1,$1+$1,$6,$7*
1,1,$1+$1,$8,$9*
0 Add four rect primitives between the rounded corners*
20,1,$1+$1,$2,$3,$4,$5,0*
20,1,$1+$1,$4,$5,$6,$7,0*
20,1,$1+$1,$6,$7,$8,$9,0*
20,1,$1+$1,$8,$9,$2,$3,0*%
G04 Aperture macros list end*
%TA.AperFunction,NonConductor*%
%ADD10C,0.200000*%
%TD*%
%TA.AperFunction,SMDPad,CuDef*%
%ADD11R,1.005599X1.199998*%
%TD*%
%TA.AperFunction,SMDPad,CuDef*%
%ADD12RoundRect,0.250000X0.337500X0.475000X-0.337500X0.475000X-0.337500X-0.475000X0.337500X-0.475000X0*%
%TD*%
%TA.AperFunction,SMDPad,CuDef*%
%ADD13R,1.295400X4.495800*%
%TD*%
%TA.AperFunction,SMDPad,CuDef*%
%ADD14R,1.803400X3.911600*%
%TD*%
%TA.AperFunction,SMDPad,CuDef*%
%ADD15R,2.997200X1.219200*%
%TD*%
%TA.AperFunction,SMDPad,CuDef*%
%ADD16R,2.667000X0.787400*%
%TD*%
%TA.AperFunction,SMDPad,CuDef*%
%ADD17R,10.414000X10.414000*%
%TD*%
%TA.AperFunction,SMDPad,CuDef*%
%ADD18R,1.752600X0.660400*%
%TD*%
%TA.AperFunction,SMDPad,CuDef*%
%ADD19O,1.752600X0.660400*%
%TD*%
%TA.AperFunction,SMDPad,CuDef*%
%ADD20R,2.413000X3.302000*%
%TD*%
%TA.AperFunction,SMDPad,CuDef*%
%ADD21RoundRect,0.072500X-0.532500X-0.217500X0.532500X-0.217500X0.532500X0.217500X-0.532500X0.217500X0*%
%TD*%
%TA.AperFunction,SMDPad,CuDef*%
%ADD22O,1.092200X1.701800*%
%TD*%
%TA.AperFunction,SMDPad,CuDef*%
%ADD23R,0.711200X1.193800*%
%TD*%
%TA.AperFunction,SMDPad,CuDef*%
%ADD24R,0.762000X1.193800*%
%TD*%
%TA.AperFunction,SMDPad,CuDef*%
%ADD25R,0.812800X1.193800*%
%TD*%
%TA.AperFunction,SMDPad,CuDef*%
%ADD26RoundRect,0.250000X0.450000X-0.350000X0.450000X0.350000X-0.450000X0.350000X-0.450000X-0.350000X0*%
%TD*%
%TA.AperFunction,ComponentPad*%
%ADD27R,2.000000X0.900000*%
%TD*%
%TA.AperFunction,ComponentPad*%
%ADD28RoundRect,1.025000X1.025000X-1.025000X1.025000X1.025000X-1.025000X1.025000X-1.025000X-1.025000X0*%
%TD*%
%TA.AperFunction,ComponentPad*%
%ADD29C,4.100000*%
%TD*%
%TA.AperFunction,ComponentPad*%
%ADD30R,1.300000X2.300000*%
%TD*%
%TA.AperFunction,SMDPad,CuDef*%
%ADD31R,1.856504X0.392473*%
%TD*%
%TA.AperFunction,ComponentPad*%
%ADD32R,2.300000X1.300000*%
%TD*%
%TA.AperFunction,ComponentPad*%
%ADD33RoundRect,1.025000X1.025000X1.025000X-1.025000X1.025000X-1.025000X-1.025000X1.025000X-1.025000X0*%
%TD*%
%TA.AperFunction,ComponentPad*%
%ADD34R,0.900000X2.000000*%
%TD*%
%TA.AperFunction,SMDPad,CuDef*%
%ADD35RoundRect,0.250000X0.350000X0.450000X-0.350000X0.450000X-0.350000X-0.450000X0.350000X-0.450000X0*%
%TD*%
%TA.AperFunction,SMDPad,CuDef*%
%ADD36RoundRect,0.250000X-0.350000X-0.450000X0.350000X-0.450000X0.350000X0.450000X-0.350000X0.450000X0*%
%TD*%
%TA.AperFunction,ViaPad*%
%ADD37C,0.600000*%
%TD*%
%TA.AperFunction,Conductor*%
%ADD38C,0.400000*%
%TD*%
%TA.AperFunction,Conductor*%
%ADD39C,0.200000*%
%TD*%
%TA.AperFunction,Conductor*%
%ADD40C,0.800000*%
%TD*%
G04 APERTURE END LIST*
D10*
X106000000Y-78000000D02*
X179000000Y-78000000D01*
X179000000Y-147000000D01*
X106000000Y-147000000D01*
X106000000Y-78000000D01*
D11*
%TO.P,R2,1*%
%TO.N,/Buck Converter/Vout (5V 5A)*%
X152910699Y-109190000D03*
%TO.P,R2,2*%
%TO.N,Net-(U1-FB)*%
X151205101Y-109190000D03*
%TD*%
D12*
%TO.P,C10,1*%
%TO.N,/Buck Converter/Vout (5V 5A)*%
X133712499Y-124905000D03*
%TO.P,C10,2*%
%TO.N,GND*%
X131637499Y-124905000D03*
%TD*%
D13*
%TO.P,J1,1,1*%
%TO.N,/Buck Converter/Vout (5V 5A)*%
X145750000Y-87549501D03*
%TO.P,J1,2,2*%
%TO.N,Net-(U4-D)*%
X143250000Y-87549501D03*
%TO.P,J1,3,3*%
%TO.N,Net-(U4-A0)*%
X140750000Y-87549501D03*
%TO.P,J1,4,4*%
%TO.N,GND*%
X138250000Y-87549501D03*
D14*
%TO.P,J1,5*%
%TO.N,N/C*%
X135050001Y-80759501D03*
%TO.P,J1,6*%
X148949999Y-80759501D03*
%TD*%
D15*
%TO.P,C3,1*%
%TO.N,/Buck Converter/Vin (12V)*%
X158302000Y-119190000D03*
%TO.P,C3,2*%
%TO.N,GND*%
X163813800Y-119190000D03*
%TD*%
D16*
%TO.P,U1,1,VIN*%
%TO.N,/Buck Converter/Vin (12V)*%
X147057900Y-114810000D03*
%TO.P,U1,2,SYNC*%
%TO.N,GND*%
X147057900Y-113540000D03*
%TO.P,U1,3,EN*%
%TO.N,unconnected-(U1-EN-Pad3)*%
X147057900Y-112270000D03*
%TO.P,U1,4,AGND*%
%TO.N,GND*%
X147057900Y-111000000D03*
%TO.P,U1,5,FB*%
%TO.N,Net-(U1-FB)*%
X147057900Y-109730000D03*
%TO.P,U1,6,SS/TRK*%
%TO.N,unconnected-(U1-SS{slash}TRK-Pad6)*%
X147057900Y-108460000D03*
%TO.P,U1,7,VOUT*%
%TO.N,/Buck Converter/Vout (5V 5A)*%
X147057900Y-107190000D03*
D17*
%TO.P,U1,8,8*%
%TO.N,unconnected-(U1-Pad8)*%
X138815600Y-111000000D03*
%TD*%
D18*
%TO.P,U2,1,IP+*%
%TO.N,/Current Sensor/CURRENT IN*%
X145674999Y-124905000D03*
D19*
%TO.P,U2,2,IP+*%
X145674999Y-123635000D03*
%TO.P,U2,3,IP-*%
%TO.N,/Buck Converter/Vin (12V)*%
X145674999Y-122365000D03*
%TO.P,U2,4,IP-*%
X145674999Y-121095000D03*
%TO.P,U2,5,GND*%
%TO.N,GND*%
X138325001Y-121095000D03*
%TO.P,U2,6,FILTER*%
%TO.N,Net-(U2-FILTER)*%
X138325001Y-122365000D03*
%TO.P,U2,7,VIOUT*%
%TO.N,/Current Sensor/VOLTAGE OUT (of reading)*%
X138325001Y-123635000D03*
%TO.P,U2,8,VCC*%
%TO.N,/Buck Converter/Vout (5V 5A)*%
X138325001Y-124905000D03*
D20*
%TO.P,U2,9*%
%TO.N,N/C*%
X142000000Y-123000000D03*
%TD*%
D21*
%TO.P,U3,1,OUT*%
%TO.N,/Voltage Reading/OUT*%
X137000000Y-98050000D03*
%TO.P,U3,2,GND*%
%TO.N,GND*%
X137000000Y-99000000D03*
%TO.P,U3,3,IN+*%
%TO.N,Net-(U3-IN+)*%
X137000000Y-99950000D03*
%TO.P,U3,4,IN-*%
%TO.N,/Voltage Reading/OUT*%
X139510000Y-99950000D03*
%TO.P,U3,5,~{SHDN}*%
%TO.N,unconnected-(U3-~{SHDN}-Pad5)*%
X139510000Y-99000000D03*
%TO.P,U3,6,VDD*%
%TO.N,+5V*%
X139510000Y-98050000D03*
%TD*%
D22*
%TO.P,J4,7*%
%TO.N,N/C*%
X163320000Y-84799999D03*
%TO.P,J4,8*%
X154680000Y-84799999D03*
%TO.P,J4,9*%
X163320000Y-81000000D03*
%TO.P,J4,10*%
X154680000Y-81000000D03*
D23*
%TO.P,J4,A5,CC1*%
%TO.N,Net-(J4-CC1)*%
X159499999Y-84880000D03*
D24*
%TO.P,J4,A9,VBUS*%
%TO.N,/Buck Converter/Vout (5V 5A)*%
X157480000Y-84880000D03*
D25*
%TO.P,J4,A12,GND*%
%TO.N,GND*%
X156250000Y-84880000D03*
D23*
%TO.P,J4,B5,CC2*%
%TO.N,Net-(J4-CC2)*%
X158500001Y-84880000D03*
D24*
%TO.P,J4,B9,VBUS*%
%TO.N,/Buck Converter/Vout (5V 5A)*%
X160519936Y-84879883D03*
D25*
%TO.P,J4,B12,GND*%
%TO.N,GND*%
X161749936Y-84879883D03*
%TD*%
D26*
%TO.P,R3,1*%
%TO.N,GND*%
X158000000Y-92000000D03*
%TO.P,R3,2*%
%TO.N,Net-(J4-CC2)*%
X158000000Y-90000000D03*
%TD*%
D12*
%TO.P,C11,1*%
%TO.N,Net-(U2-FILTER)*%
X133712499Y-120905000D03*
%TO.P,C11,2*%
%TO.N,GND*%
X131637499Y-120905000D03*
%TD*%
D27*
%TO.P,J5,*%
%TO.N,*%
X117000000Y-93500000D03*
X117000000Y-80000000D03*
D28*
%TO.P,J5,1,+*%
%TO.N,/Buck Converter/Vout (5V 5A)*%
X123000000Y-90350000D03*
D29*
%TO.P,J5,2,-*%
%TO.N,GND*%
X123000000Y-83150000D03*
D30*
%TO.P,J5,3*%
%TO.N,N/C*%
X119350000Y-86750000D03*
%TD*%
D11*
%TO.P,R1,1*%
%TO.N,Net-(U1-FB)*%
X151205101Y-112000000D03*
%TO.P,R1,2*%
%TO.N,GND*%
X152910699Y-112000000D03*
%TD*%
D15*
%TO.P,C1,1*%
%TO.N,/Buck Converter/Vout (5V 5A)*%
X158302000Y-109190000D03*
%TO.P,C1,2*%
%TO.N,GND*%
X163813800Y-109190000D03*
%TD*%
%TO.P,C2,1*%
%TO.N,/Buck Converter/Vout (5V 5A)*%
X158302000Y-100190000D03*
%TO.P,C2,2*%
%TO.N,GND*%
X163813800Y-100190000D03*
%TD*%
D31*
%TO.P,U4,1,A0*%
%TO.N,Net-(U4-A0)*%
X145849143Y-97999999D03*
%TO.P,U4,2,S1*%
%TO.N,/Voltage Reading/OUT*%
X145849143Y-98500001D03*
%TO.P,U4,3,GND*%
%TO.N,GND*%
X145849143Y-99000000D03*
%TO.P,U4,4,S3*%
%TO.N,unconnected-(U4-S3-Pad4)*%
X145849143Y-99499999D03*
%TO.P,U4,5,EN*%
%TO.N,/Buck Converter/Vout (5V 5A)*%
X145849143Y-100000001D03*
%TO.P,U4,6,VDD*%
X150150857Y-100000001D03*
%TO.P,U4,7,S4*%
%TO.N,/Current Sensor/VOLTAGE OUT (of reading)*%
X150150857Y-99499999D03*
%TO.P,U4,8,D*%
%TO.N,Net-(U4-D)*%
X150150857Y-99000000D03*
%TO.P,U4,9,S2*%
%TO.N,unconnected-(U4-S2-Pad9)*%
X150150857Y-98500001D03*
%TO.P,U4,10,A1*%
%TO.N,Net-(U4-A0)*%
X150150857Y-97999999D03*
%TD*%
D32*
%TO.P,J2,3*%
%TO.N,N/C*%
X160000000Y-133500000D03*
D29*
%TO.P,J2,2,-*%
%TO.N,GND*%
X156400000Y-129850000D03*
D33*
%TO.P,J2,1,+*%
%TO.N,/Current Sensor/CURRENT IN*%
X163600000Y-129850000D03*
D34*
%TO.P,J2,*%
%TO.N,*%
X153250000Y-135850000D03*
X166750000Y-135850000D03*
%TD*%
D35*
%TO.P,R6,1*%
%TO.N,Net-(U3-IN+)*%
X135000000Y-97500000D03*
%TO.P,R6,2*%
%TO.N,GND*%
X133000000Y-97500000D03*
%TD*%
D27*
%TO.P,J3,*%
%TO.N,*%
X117150000Y-119750000D03*
X117150000Y-106250000D03*
D28*
%TO.P,J3,1,+*%
%TO.N,/Buck Converter/Vin (12V)*%
X123150000Y-116600000D03*
D29*
%TO.P,J3,2,-*%
%TO.N,GND*%
X123150000Y-109400000D03*
D30*
%TO.P,J3,3*%
%TO.N,N/C*%
X119500000Y-113000000D03*
%TD*%
D36*
%TO.P,R5,1*%
%TO.N,/Buck Converter/Vin (12V)*%
X133000000Y-100000000D03*
%TO.P,R5,2*%
%TO.N,Net-(U3-IN+)*%
X135000000Y-100000000D03*
%TD*%
D26*
%TO.P,R4,1*%
%TO.N,GND*%
X161000000Y-92000000D03*
%TO.P,R4,2*%
%TO.N,Net-(J4-CC1)*%
X161000000Y-90000000D03*
%TD*%
D37*
%TO.N,GND*%
X138250000Y-93000000D03*
X137000000Y-99000000D03*
X163813800Y-100190000D03*
X158000000Y-92000000D03*
X163813800Y-119190000D03*
X129000000Y-88000000D03*
X133000000Y-97500000D03*
X156400000Y-129850000D03*
X143000000Y-100000000D03*
%TO.N,/Buck Converter/Vout (5V 5A)*%
X147000000Y-91000000D03*
X147057900Y-107190000D03*
X136000000Y-125000000D03*
X132000000Y-91000000D03*
%TO.N,/Current Sensor/VOLTAGE OUT (of reading)*%
X153000000Y-100000000D03*
X138325001Y-123635000D03*
%TD*%
D38*
%TO.N,GND*%
X146118100Y-111000000D02*
X147057900Y-111000000D01*
X164702800Y-119190000D02*
X163813800Y-119190000D01*
X130050000Y-97500000D02*
X133000000Y-97500000D01*
X155000000Y-112000000D02*
X157190000Y-114190000D01*
X138250000Y-87549501D02*
X138250000Y-93000000D01*
X164057900Y-114190000D02*
X165512400Y-115644500D01*
D39*
X131637499Y-119362501D02*
X131637499Y-120905000D01*
D38*
X165512400Y-115644500D02*
X165512400Y-118380400D01*
X144624654Y-99000000D02*
X143624654Y-100000000D01*
X157000000Y-81000000D02*
X156250000Y-81750000D01*
X129000000Y-88000000D02*
X129000000Y-87000000D01*
D39*
X138250000Y-93000000D02*
X138250000Y-93250000D01*
D38*
X156250000Y-81750000D02*
X156250000Y-84880000D01*
X131637499Y-120905000D02*
X131637499Y-120911250D01*
X164702800Y-100190000D02*
X163813800Y-100190000D01*
X145849143Y-99000000D02*
X144624654Y-99000000D01*
X147057900Y-113540000D02*
X146118100Y-113540000D01*
D39*
X137095000Y-121095000D02*
X135000000Y-119000000D01*
X138325001Y-121095000D02*
X137095000Y-121095000D01*
D38*
X131637499Y-124905000D02*
X131637499Y-120905000D01*
X164702800Y-109190000D02*
X165512400Y-108380400D01*
X136582499Y-129850000D02*
X156400000Y-129850000D01*
X125150000Y-83150000D02*
X123000000Y-83150000D01*
X165512400Y-112735500D02*
X165512400Y-109999600D01*
X163813800Y-100190000D02*
X164033144Y-100190000D01*
X165512400Y-118380400D02*
X164702800Y-119190000D01*
X161000000Y-81000000D02*
X157000000Y-81000000D01*
X152910699Y-112999999D02*
X152910699Y-112000000D01*
X143624654Y-100000000D02*
X143000000Y-100000000D01*
X152910699Y-112000000D02*
X155000000Y-112000000D01*
X161749936Y-84879883D02*
X161749936Y-81749936D01*
X123150000Y-104400000D02*
X123150000Y-109400000D01*
X164702800Y-109190000D02*
X163813800Y-109190000D01*
X147057900Y-113540000D02*
X152370698Y-113540000D01*
X163000000Y-89000000D02*
X161749936Y-87749936D01*
D39*
X135000000Y-119000000D02*
X132000000Y-119000000D01*
D38*
X130050000Y-97500000D02*
X123150000Y-104400000D01*
X145424400Y-111693700D02*
X146118100Y-111000000D01*
X165512400Y-108380400D02*
X165512400Y-100999600D01*
X163000000Y-91000000D02*
X163000000Y-89000000D01*
X164057900Y-114190000D02*
X165512400Y-112735500D01*
D39*
X132000000Y-119000000D02*
X131637499Y-119362501D01*
D38*
X129000000Y-87000000D02*
X125150000Y-83150000D01*
X161749936Y-81749936D02*
X161000000Y-81000000D01*
X162000000Y-92000000D02*
X163000000Y-91000000D01*
X165512400Y-100999600D02*
X164702800Y-100190000D01*
X131637499Y-120911250D02*
X131751249Y-121025000D01*
X161749936Y-87749936D02*
X161749936Y-84879883D01*
X146118100Y-113540000D02*
X145424400Y-112846300D01*
X161000000Y-92000000D02*
X162000000Y-92000000D01*
X145424400Y-112846300D02*
X145424400Y-111693700D01*
X161749936Y-84879883D02*
X161749936Y-85000000D01*
X152370698Y-113540000D02*
X152910699Y-112999999D01*
X165512400Y-109999600D02*
X164702800Y-109190000D01*
X158000000Y-92000000D02*
X161000000Y-92000000D01*
X131637499Y-124905000D02*
X136582499Y-129850000D01*
X157190000Y-114190000D02*
X164057900Y-114190000D01*
D39*
%TO.N,Net-(U2-FILTER)*%
X134674999Y-120905000D02*
X136134999Y-122365000D01*
X133712499Y-120905000D02*
X134674999Y-120905000D01*
X136134999Y-122365000D02*
X138325001Y-122365000D01*
D38*
%TO.N,Net-(U3-IN+)*%
X135050000Y-99950000D02*
X135000000Y-100000000D01*
X135000000Y-97500000D02*
X135000000Y-100000000D01*
X137000000Y-99950000D02*
X135050000Y-99950000D01*
D40*
%TO.N,/Buck Converter/Vin (12V)*%
X133000000Y-103000000D02*
X128000000Y-108000000D01*
X124550000Y-118000000D02*
X123150000Y-116600000D01*
X147057900Y-116942100D02*
X146000000Y-118000000D01*
X151677900Y-114810000D02*
X156057900Y-119190000D01*
X125400000Y-116600000D02*
X123150000Y-116600000D01*
X147057900Y-114810000D02*
X151677900Y-114810000D01*
X144000000Y-118000000D02*
X124550000Y-118000000D01*
X133000000Y-100000000D02*
X133000000Y-103000000D01*
X145674999Y-119674999D02*
X144000000Y-118000000D01*
X145674999Y-121095000D02*
X145674999Y-119674999D01*
X128000000Y-108000000D02*
X128000000Y-114000000D01*
X128000000Y-114000000D02*
X125400000Y-116600000D01*
X156057900Y-119190000D02*
X158302000Y-119190000D01*
X147057900Y-114810000D02*
X147057900Y-116942100D01*
X146000000Y-118000000D02*
X144000000Y-118000000D01*
X145674999Y-122365000D02*
X145674999Y-121095000D01*
%TO.N,/Current Sensor/CURRENT IN*%
X161905000Y-124905000D02*
X163600000Y-126600000D01*
X145674999Y-124905000D02*
X161905000Y-124905000D01*
X145674999Y-124905000D02*
X145674999Y-123635000D01*
X163600000Y-126600000D02*
X163600000Y-129850000D01*
D39*
%TO.N,/Voltage Reading/OUT*%
X145849143Y-98500001D02*
X141288801Y-98500001D01*
D38*
X138255000Y-99299999D02*
X138255000Y-98700001D01*
X138905001Y-99950000D02*
X138255000Y-99299999D01*
X137604999Y-98050000D02*
X137000000Y-98050000D01*
D39*
X139838802Y-99950000D02*
X139510000Y-99950000D01*
D38*
X138255000Y-98700001D02*
X137604999Y-98050000D01*
D39*
X141288801Y-98500001D02*
X139838802Y-99950000D01*
D38*
X139510000Y-99950000D02*
X138905001Y-99950000D01*
%TO.N,Net-(U1-FB)*%
X148517900Y-109730000D02*
X149057900Y-109190000D01*
X147057900Y-109730000D02*
X148517900Y-109730000D01*
X151205101Y-109190000D02*
X151205101Y-112000000D01*
X149057900Y-109190000D02*
X151205101Y-109190000D01*
D40*
%TO.N,/Buck Converter/Vout (5V 5A)*%
X150000000Y-92000000D02*
X148000000Y-92000000D01*
X153057900Y-104545100D02*
X153057900Y-103057900D01*
X151000000Y-92000000D02*
X150000000Y-92000000D01*
X153057900Y-104545100D02*
X153057900Y-106190000D01*
X160000000Y-83000000D02*
X160519936Y-83519936D01*
X157480000Y-87288699D02*
X152768699Y-92000000D01*
X138325001Y-124905000D02*
X133712499Y-124905000D01*
X157480000Y-84880000D02*
X157480000Y-83520000D01*
X154989999Y-100190000D02*
X158302000Y-100190000D01*
X152123950Y-107123950D02*
X152057900Y-107190000D01*
X160519936Y-83519936D02*
X160519936Y-84879883D01*
X154400000Y-99600001D02*
X154400000Y-98000000D01*
X157480000Y-87288699D02*
X157480000Y-84880000D01*
X152057900Y-107190000D02*
X152910699Y-108042799D01*
X157413000Y-109190000D02*
X155413000Y-107190000D01*
X152768699Y-92000000D02*
X150000000Y-92000000D01*
X152910699Y-108042799D02*
X152910699Y-109190000D01*
X145750000Y-89750000D02*
X145750000Y-87549501D01*
D39*
X150150857Y-100150857D02*
X150150857Y-100000001D01*
D40*
X154400000Y-98000000D02*
X154400000Y-95400000D01*
X154400000Y-101715800D02*
X154400000Y-98000000D01*
X148000000Y-92000000D02*
X147000000Y-91000000D01*
D39*
X145849143Y-100000001D02*
X150150857Y-100000001D01*
D40*
X157480000Y-83520000D02*
X158000000Y-83000000D01*
X154400000Y-95400000D02*
X151000000Y-92000000D01*
X153057900Y-106190000D02*
X152123950Y-107123950D01*
X158302000Y-109190000D02*
X157413000Y-109190000D01*
X150810000Y-107190000D02*
X152057900Y-107190000D01*
X153057900Y-103057900D02*
X154400000Y-101715800D01*
X132000000Y-91000000D02*
X123650000Y-91000000D01*
X154400000Y-99600001D02*
X154989999Y-100190000D01*
X123650000Y-91000000D02*
X123000000Y-90350000D01*
D39*
X153057900Y-103057900D02*
X150150857Y-100150857D01*
D40*
X155413000Y-107190000D02*
X152057900Y-107190000D01*
X147000000Y-91000000D02*
X145750000Y-89750000D01*
X150810000Y-107190000D02*
X147057900Y-107190000D01*
X158000000Y-83000000D02*
X160000000Y-83000000D01*
D39*
%TO.N,/Current Sensor/VOLTAGE OUT (of reading)*%
X151500001Y-99499999D02*
X151500000Y-99499999D01*
X151500001Y-99499999D02*
X152499999Y-99499999D01*
X152499999Y-99499999D02*
X153000000Y-100000000D01*
X151500000Y-99499999D02*
X150150857Y-99499999D01*
%TO.N,Net-(U4-A0)*%
X144000000Y-98000000D02*
X140750000Y-94750000D01*
X144000001Y-97999999D02*
X144000000Y-98000000D01*
X140750000Y-94750000D02*
X140750000Y-87549501D01*
X145849143Y-97999999D02*
X144000001Y-97999999D01*
X145849143Y-97999999D02*
X150150857Y-97999999D01*
%TO.N,Net-(U4-D)*%
X151000000Y-94000000D02*
X147000000Y-94000000D01*
X147000000Y-94000000D02*
X143250000Y-90250000D01*
X152000000Y-99000000D02*
X153000000Y-98000000D01*
X150150857Y-99000000D02*
X152000000Y-99000000D01*
X153000000Y-96000000D02*
X151000000Y-94000000D01*
X153000000Y-98000000D02*
X153000000Y-96000000D01*
X143250000Y-90250000D02*
X143250000Y-87549501D01*
%TO.N,Net-(J4-CC1)*%
X161000000Y-90000000D02*
X161000000Y-89000000D01*
X159499999Y-87499999D02*
X159499999Y-84880000D01*
X161000000Y-89000000D02*
X159499999Y-87499999D01*
%TO.N,Net-(J4-CC2)*%
X158000000Y-88000000D02*
X158500001Y-87499999D01*
X158500001Y-87499999D02*
X158500001Y-84880000D01*
X158000000Y-90000000D02*
X158000000Y-88000000D01*
%TD*%
M02*
