%TF.GenerationSoftware,KiCad,Pcbnew,8.0.6*%
%TF.CreationDate,2025-02-22T22:44:17-05:00*%
%TF.ProjectId,Electrical schematic,456c6563-7472-4696-9361-6c2073636865,rev?*%
%TF.SameCoordinates,Original*%
%TF.FileFunction,Paste,Top*%
%TF.FilePolarity,Positive*%
%FSLAX46Y46*%
G04 Gerber Fmt 4.6, Leading zero omitted, Abs format (unit mm)*
G04 Created by KiCad (PCBNEW 8.0.6) date 2025-02-22 22:44:17*
%MOMM*%
%LPD*%
G01*
G04 APERTURE LIST*
G04 Aperture macros list*
%AMRoundRect*
0 Rectangle with rounded corners*
0 $1 Rounding radius*
0 $2 $3 $4 $5 $6 $7 $8 $9 X,Y pos of 4 corners*
0 Add a 4 corners polygon primitive as box body*
4,1,4,$2,$3,$4,$5,$6,$7,$8,$9,$2,$3,0*
0 Add four circle primitives for the rounded corners*
1,1,$1+$1,$2,$3*
1,1,$1+$1,$4,$5*
1,1,$1+$1,$6,$7*
1,1,$1+$1,$8,$9*
0 Add four rect primitives between the rounded corners*
20,1,$1+$1,$2,$3,$4,$5,0*
20,1,$1+$1,$4,$5,$6,$7,0*
20,1,$1+$1,$6,$7,$8,$9,0*
20,1,$1+$1,$8,$9,$2,$3,0*%
G04 Aperture macros list end*
%ADD10C,0.000000*%
%ADD11R,1.005599X1.199998*%
%ADD12R,2.997200X1.219200*%
%ADD13R,1.752600X0.660400*%
%ADD14O,1.752600X0.660400*%
%ADD15RoundRect,0.250000X-0.350000X-0.450000X0.350000X-0.450000X0.350000X0.450000X-0.350000X0.450000X0*%
%ADD16R,1.003300X0.457200*%
%ADD17R,0.889000X2.489200*%
%ADD18R,2.489200X5.156200*%
%ADD19R,1.295400X4.495800*%
%ADD20R,1.803400X3.911600*%
%ADD21RoundRect,0.250000X0.337500X0.475000X-0.337500X0.475000X-0.337500X-0.475000X0.337500X-0.475000X0*%
%ADD22R,1.473200X0.558800*%
%ADD23R,2.667000X0.787400*%
%ADD24R,10.414000X10.414000*%
G04 APERTURE END LIST*
D10*
%TO.C,U2*%
G36*
X133106500Y-77900000D02*
G01*
X130893500Y-77900000D01*
X130893500Y-76449000D01*
X133106500Y-76449000D01*
X133106500Y-77900000D01*
G37*
G36*
X133106500Y-79551000D02*
G01*
X130893500Y-79551000D01*
X130893500Y-78100000D01*
X133106500Y-78100000D01*
X133106500Y-79551000D01*
G37*
%TD*%
D11*
%TO.C,R1*%
X149147201Y-90000000D03*
X150852799Y-90000000D03*
%TD*%
D12*
%TO.C,C3*%
X155244100Y-96000000D03*
X160755900Y-96000000D03*
%TD*%
D13*
%TO.C,U2*%
X135674999Y-79905000D03*
D14*
X135674999Y-78635000D03*
X135674999Y-77365000D03*
X135674999Y-76095000D03*
X128325001Y-76095000D03*
X128325001Y-77365000D03*
X128325001Y-78635000D03*
X128325001Y-79905000D03*
%TD*%
D15*
%TO.C,R4*%
X147000000Y-76000000D03*
X149000000Y-76000000D03*
%TD*%
D12*
%TO.C,C2*%
X155244100Y-88000000D03*
X160755900Y-88000000D03*
%TD*%
D11*
%TO.C,R2*%
X149294402Y-86000000D03*
X151000000Y-86000000D03*
%TD*%
D16*
%TO.C,U4*%
X134000000Y-69099998D03*
X134000000Y-70049999D03*
X134000000Y-71000000D03*
X136705100Y-71000000D03*
X136705100Y-70049999D03*
X136705100Y-69099998D03*
%TD*%
D17*
%TO.C,U5*%
X136000000Y-97500000D03*
X137999999Y-97500000D03*
X140000000Y-97500000D03*
X141999998Y-97500000D03*
D18*
X131750001Y-99693392D03*
X146249997Y-99693392D03*
%TD*%
D19*
%TO.C,J1*%
X139250000Y-61549501D03*
X136750000Y-61549501D03*
X134250000Y-61549501D03*
X131750000Y-61549501D03*
D20*
X128550001Y-54759501D03*
X142449999Y-54759501D03*
%TD*%
D12*
%TO.C,C1*%
X155244100Y-80000000D03*
X160755900Y-80000000D03*
%TD*%
D21*
%TO.C,C11*%
X125000000Y-76000000D03*
X122925000Y-76000000D03*
%TD*%
D22*
%TO.C,U3*%
X144117600Y-78950001D03*
X144117600Y-78000000D03*
X144117600Y-77049999D03*
X141882400Y-77049999D03*
X141882400Y-78000000D03*
X141882400Y-78950001D03*
%TD*%
D21*
%TO.C,C10*%
X125000000Y-80000000D03*
X122925000Y-80000000D03*
%TD*%
D15*
%TO.C,R3*%
X147000000Y-80000000D03*
X149000000Y-80000000D03*
%TD*%
D23*
%TO.C,U1*%
X145000000Y-91620000D03*
X145000000Y-90350000D03*
X145000000Y-89080000D03*
X145000000Y-87810000D03*
X145000000Y-86540000D03*
X145000000Y-85270000D03*
X145000000Y-84000000D03*
D24*
X136757700Y-87810000D03*
%TD*%
M02*
