%TF.GenerationSoftware,KiCad,Pcbnew,8.0.6*%
%TF.CreationDate,2025-03-28T18:59:19-04:00*%
%TF.ProjectId,Electrical schematic,456c6563-7472-4696-9361-6c2073636865,rev?*%
%TF.SameCoordinates,Original*%
%TF.FileFunction,Copper,L2,Bot*%
%TF.FilePolarity,Positive*%
%FSLAX46Y46*%
G04 Gerber Fmt 4.6, Leading zero omitted, Abs format (unit mm)*
G04 Created by KiCad (PCBNEW 8.0.6) date 2025-03-28 18:59:19*
%MOMM*%
%LPD*%
G01*
G04 APERTURE LIST*
G04 Aperture macros list*
%AMRoundRect*
0 Rectangle with rounded corners*
0 $1 Rounding radius*
0 $2 $3 $4 $5 $6 $7 $8 $9 X,Y pos of 4 corners*
0 Add a 4 corners polygon primitive as box body*
4,1,4,$2,$3,$4,$5,$6,$7,$8,$9,$2,$3,0*
0 Add four circle primitives for the rounded corners*
1,1,$1+$1,$2,$3*
1,1,$1+$1,$4,$5*
1,1,$1+$1,$6,$7*
1,1,$1+$1,$8,$9*
0 Add four rect primitives between the rounded corners*
20,1,$1+$1,$2,$3,$4,$5,0*
20,1,$1+$1,$4,$5,$6,$7,0*
20,1,$1+$1,$6,$7,$8,$9,0*
20,1,$1+$1,$8,$9,$2,$3,0*%
G04 Aperture macros list end*
%TA.AperFunction,NonConductor*%
%ADD10C,0.200000*%
%TD*%
%TA.AperFunction,ComponentPad*%
%ADD11C,1.803400*%
%TD*%
%TA.AperFunction,ComponentPad*%
%ADD12R,0.900000X2.000000*%
%TD*%
%TA.AperFunction,ComponentPad*%
%ADD13RoundRect,1.025000X1.025000X1.025000X-1.025000X1.025000X-1.025000X-1.025000X1.025000X-1.025000X0*%
%TD*%
%TA.AperFunction,ComponentPad*%
%ADD14C,4.100000*%
%TD*%
%TA.AperFunction,ComponentPad*%
%ADD15R,2.300000X1.300000*%
%TD*%
%TA.AperFunction,ComponentPad*%
%ADD16RoundRect,1.025000X-1.025000X-1.025000X1.025000X-1.025000X1.025000X1.025000X-1.025000X1.025000X0*%
%TD*%
%TA.AperFunction,ViaPad*%
%ADD17C,1.000000*%
%TD*%
%TA.AperFunction,ViaPad*%
%ADD18C,0.800000*%
%TD*%
%TA.AperFunction,ViaPad*%
%ADD19C,0.600000*%
%TD*%
%TA.AperFunction,Conductor*%
%ADD20C,0.600000*%
%TD*%
%TA.AperFunction,Conductor*%
%ADD21C,0.200000*%
%TD*%
G04 APERTURE END LIST*
D10*
X93000000Y-61500000D02*
X163500000Y-61500000D01*
X163500000Y-133500000D01*
X93000000Y-133500000D01*
X93000000Y-61500000D01*
D11*
%TO.P,U5,5*%
%TO.N,N/C*%
X126017400Y-71570102D03*
%TO.P,U5,6*%
X121017400Y-71570102D03*
%TD*%
D12*
%TO.P,J3,*%
%TO.N,*%
X154750000Y-122500000D03*
X141250000Y-122500000D03*
D13*
%TO.P,J3,1,+*%
%TO.N,GND*%
X151600000Y-116500000D03*
D14*
%TO.P,J3,2,-*%
%TO.N,/Buck Converter/Vin (12V)*%
X144400000Y-116500000D03*
D15*
%TO.P,J3,3*%
%TO.N,N/C*%
X148000000Y-120150000D03*
%TD*%
D12*
%TO.P,J2,*%
%TO.N,*%
X135000000Y-122500000D03*
X121500000Y-122500000D03*
D13*
%TO.P,J2,1,+*%
%TO.N,GND*%
X131850000Y-116500000D03*
D14*
%TO.P,J2,2,-*%
%TO.N,/Current Sensor/CURRENT IN*%
X124650000Y-116500000D03*
D15*
%TO.P,J2,3*%
%TO.N,N/C*%
X128250000Y-120150000D03*
%TD*%
D12*
%TO.P,J5,*%
%TO.N,*%
X139650000Y-72650000D03*
X153150000Y-72650000D03*
D16*
%TO.P,J5,1,+*%
%TO.N,GND*%
X142800000Y-78650000D03*
D14*
%TO.P,J5,2,-*%
%TO.N,/Buck Converter/Vout (5V 5A)*%
X150000000Y-78650000D03*
D15*
%TO.P,J5,3*%
%TO.N,N/C*%
X146400000Y-75000000D03*
%TD*%
D17*
%TO.N,GND*%
X156255900Y-105467600D03*
X156255900Y-88532400D03*
X143705598Y-86000000D03*
D18*
%TO.N,/Buck Converter/Vout (5V 5A)*%
X120000000Y-83500000D03*
D19*
X117500000Y-88647450D03*
%TO.N,Net-(U4-S)*%
X116549999Y-88647450D03*
X102750000Y-70549501D03*
D17*
%TO.N,GND*%
X144000000Y-96810000D03*
X97750000Y-70549501D03*
X120517401Y-75770101D03*
X117500000Y-91352550D03*
D19*
X122147450Y-96000000D03*
X118500000Y-97549999D03*
D17*
X119962500Y-108500000D03*
X119962500Y-103500000D03*
D19*
%TO.N,/Current Sensor/VOLTAGE OUT (of reading)*%
X118450001Y-91352550D03*
X115500000Y-93000000D03*
X127325001Y-107730000D03*
X115000000Y-105000000D03*
D17*
%TO.N,GND*%
X127325001Y-105190000D03*
X156255900Y-97000000D03*
D19*
%TO.N,Net-(U1-FB)*%
X142000000Y-89000000D03*
X144000000Y-95540000D03*
D18*
%TO.N,unconnected-(U1-Pad8)*%
X137500000Y-92500000D03*
X140500000Y-92500000D03*
X139500000Y-92500000D03*
X135500000Y-92500000D03*
X133500000Y-93500000D03*
X136500000Y-92500000D03*
X132500000Y-92500000D03*
X139500000Y-93500000D03*
X139500000Y-94500000D03*
X138500000Y-93500000D03*
X136500000Y-95500000D03*
X135500000Y-94500000D03*
X135500000Y-95500000D03*
X139500000Y-96500000D03*
X134500000Y-97500000D03*
X134500000Y-94500000D03*
X136500000Y-98500000D03*
X139500000Y-98500000D03*
X133500000Y-98500000D03*
X133500000Y-95500000D03*
X135500000Y-97500000D03*
X138500000Y-98500000D03*
X139500000Y-100500000D03*
X137500000Y-97500000D03*
X133500000Y-94500000D03*
X140500000Y-97500000D03*
X139500000Y-97500000D03*
X134500000Y-92500000D03*
X138500000Y-95500000D03*
X133500000Y-97500000D03*
X138500000Y-97500000D03*
X140500000Y-95500000D03*
X138500000Y-94500000D03*
X136500000Y-94500000D03*
X137500000Y-96500000D03*
X135500000Y-98500000D03*
X136500000Y-97500000D03*
X137500000Y-99500000D03*
X133500000Y-96500000D03*
X140500000Y-98500000D03*
X139500000Y-99500000D03*
X137500000Y-93500000D03*
X136500000Y-93500000D03*
X138500000Y-96500000D03*
X137500000Y-98500000D03*
X138500000Y-99500000D03*
X137500000Y-95500000D03*
X139500000Y-95500000D03*
X137500000Y-94500000D03*
X135500000Y-93500000D03*
X134500000Y-96500000D03*
X140500000Y-100500000D03*
X136500000Y-96500000D03*
X140500000Y-96500000D03*
X140500000Y-99500000D03*
X138500000Y-101500000D03*
X135500000Y-100500000D03*
X136500000Y-100500000D03*
X137500000Y-100500000D03*
X138500000Y-100500000D03*
X131500000Y-99500000D03*
X140500000Y-94500000D03*
X131500000Y-97500000D03*
X131500000Y-101500000D03*
X131500000Y-100500000D03*
X136500000Y-101500000D03*
X134500000Y-101500000D03*
X133500000Y-100500000D03*
X132500000Y-94500000D03*
X132500000Y-99500000D03*
X132500000Y-100500000D03*
X136500000Y-99500000D03*
X131500000Y-94500000D03*
X135500000Y-101500000D03*
X132500000Y-101500000D03*
X132500000Y-97500000D03*
X131500000Y-92500000D03*
X134500000Y-93500000D03*
X135500000Y-96500000D03*
X131500000Y-95500000D03*
X133500000Y-101500000D03*
X133500000Y-99500000D03*
X132500000Y-93500000D03*
X132500000Y-95500000D03*
X140500000Y-101500000D03*
X140500000Y-93500000D03*
X134500000Y-95500000D03*
X134500000Y-98500000D03*
X131500000Y-96500000D03*
X133500000Y-92500000D03*
X134500000Y-99500000D03*
X137500000Y-101500000D03*
X131500000Y-98500000D03*
X131500000Y-93500000D03*
X134500000Y-100500000D03*
X132500000Y-96500000D03*
X135500000Y-99500000D03*
X138500000Y-92500000D03*
X132500000Y-98500000D03*
X139500000Y-101500000D03*
%TD*%
D20*
%TO.N,/Buck Converter/Vout (5V 5A)*%
X117500000Y-86000000D02*
X120000000Y-83500000D01*
X117500000Y-88647450D02*
X117500000Y-86000000D01*
D21*
%TO.N,Net-(U4-S)*%
X104000000Y-86000000D02*
X102750000Y-84750000D01*
X115000000Y-86000000D02*
X104000000Y-86000000D01*
X102750000Y-84750000D02*
X102750000Y-70549501D01*
X116549999Y-88647450D02*
X116549999Y-87549999D01*
X116549999Y-87549999D02*
X115000000Y-86000000D01*
%TO.N,/Current Sensor/VOLTAGE OUT (of reading)*%
X118450001Y-92549999D02*
X118450001Y-91352550D01*
X118000000Y-93000000D02*
X118450001Y-92549999D01*
X115500000Y-93000000D02*
X118000000Y-93000000D01*
X124230000Y-107730000D02*
X127325001Y-107730000D01*
X123500000Y-107000000D02*
X124230000Y-107730000D01*
X115000000Y-105000000D02*
X117000000Y-107000000D01*
X117000000Y-107000000D02*
X123500000Y-107000000D01*
%TO.N,Net-(U1-FB)*%
X142500000Y-90500000D02*
X142000000Y-90000000D01*
X142000000Y-90000000D02*
X142000000Y-89000000D01*
X146000000Y-90500000D02*
X142500000Y-90500000D01*
X147000000Y-91500000D02*
X146000000Y-90500000D01*
X145960000Y-95540000D02*
X147000000Y-94500000D01*
X144000000Y-95540000D02*
X145960000Y-95540000D01*
X147000000Y-94500000D02*
X147000000Y-91500000D01*
%TD*%
%TA.AperFunction,Conductor*%
%TO.N,GND*%
G36*
X163142539Y-61820185D02*
G01*
X163188294Y-61872989D01*
X163199500Y-61924500D01*
X163199500Y-133075500D01*
X163179815Y-133142539D01*
X163127011Y-133188294D01*
X163075500Y-133199500D01*
X93424500Y-133199500D01*
X93357461Y-133179815D01*
X93311706Y-133127011D01*
X93300500Y-133075500D01*
X93300500Y-129381902D01*
X95499500Y-129381902D01*
X95499500Y-129618097D01*
X95536446Y-129851368D01*
X95609433Y-130075996D01*
X95716657Y-130286433D01*
X95855483Y-130477510D01*
X96022490Y-130644517D01*
X96213567Y-130783343D01*
X96312991Y-130834002D01*
X96424003Y-130890566D01*
X96424005Y-130890566D01*
X96424008Y-130890568D01*
X96544412Y-130929689D01*
X96648631Y-130963553D01*
X96881903Y-131000500D01*
X96881908Y-131000500D01*
X97118097Y-131000500D01*
X97351368Y-130963553D01*
X97575992Y-130890568D01*
X97786433Y-130783343D01*
X97977510Y-130644517D01*
X98144517Y-130477510D01*
X98283343Y-130286433D01*
X98390568Y-130075992D01*
X98463553Y-129851368D01*
X98500500Y-129618097D01*
X98500500Y-129381902D01*
X158499500Y-129381902D01*
X158499500Y-129618097D01*
X158536446Y-129851368D01*
X158609433Y-130075996D01*
X158716657Y-130286433D01*
X158855483Y-130477510D01*
X159022490Y-130644517D01*
X159213567Y-130783343D01*
X159312991Y-130834002D01*
X159424003Y-130890566D01*
X159424005Y-130890566D01*
X159424008Y-130890568D01*
X159544412Y-130929689D01*
X159648631Y-130963553D01*
X159881903Y-131000500D01*
X159881908Y-131000500D01*
X160118097Y-131000500D01*
X160351368Y-130963553D01*
X160575992Y-130890568D01*
X160786433Y-130783343D01*
X160977510Y-130644517D01*
X161144517Y-130477510D01*
X161283343Y-130286433D01*
X161390568Y-130075992D01*
X161463553Y-129851368D01*
X161500500Y-129618097D01*
X161500500Y-129381902D01*
X161463553Y-129148631D01*
X161390566Y-128924003D01*
X161283342Y-128713566D01*
X161144517Y-128522490D01*
X160977510Y-128355483D01*
X160786433Y-128216657D01*
X160575996Y-128109433D01*
X160351368Y-128036446D01*
X160118097Y-127999500D01*
X160118092Y-127999500D01*
X159881908Y-127999500D01*
X159881903Y-127999500D01*
X159648631Y-128036446D01*
X159424003Y-128109433D01*
X159213566Y-128216657D01*
X159104550Y-128295862D01*
X159022490Y-128355483D01*
X159022488Y-128355485D01*
X159022487Y-128355485D01*
X158855485Y-128522487D01*
X158855485Y-128522488D01*
X158855483Y-128522490D01*
X158795862Y-128604550D01*
X158716657Y-128713566D01*
X158609433Y-128924003D01*
X158536446Y-129148631D01*
X158499500Y-129381902D01*
X98500500Y-129381902D01*
X98463553Y-129148631D01*
X98390566Y-128924003D01*
X98283342Y-128713566D01*
X98144517Y-128522490D01*
X97977510Y-128355483D01*
X97786433Y-128216657D01*
X97575996Y-128109433D01*
X97351368Y-128036446D01*
X97118097Y-127999500D01*
X97118092Y-127999500D01*
X96881908Y-127999500D01*
X96881903Y-127999500D01*
X96648631Y-128036446D01*
X96424003Y-128109433D01*
X96213566Y-128216657D01*
X96104550Y-128295862D01*
X96022490Y-128355483D01*
X96022488Y-128355485D01*
X96022487Y-128355485D01*
X95855485Y-128522487D01*
X95855485Y-128522488D01*
X95855483Y-128522490D01*
X95795862Y-128604550D01*
X95716657Y-128713566D01*
X95609433Y-128924003D01*
X95536446Y-129148631D01*
X95499500Y-129381902D01*
X93300500Y-129381902D01*
X93300500Y-121480247D01*
X120849500Y-121480247D01*
X120849500Y-123519752D01*
X120861131Y-123578229D01*
X120861132Y-123578230D01*
X120905447Y-123644552D01*
X120971769Y-123688867D01*
X120971770Y-123688868D01*
X121030247Y-123700499D01*
X121030250Y-123700500D01*
X121030252Y-123700500D01*
X121969750Y-123700500D01*
X121969751Y-123700499D01*
X121984568Y-123697552D01*
X122028229Y-123688868D01*
X122028229Y-123688867D01*
X122028231Y-123688867D01*
X122094552Y-123644552D01*
X122138867Y-123578231D01*
X122138867Y-123578229D01*
X122138868Y-123578229D01*
X122150499Y-123519752D01*
X122150500Y-123519750D01*
X122150500Y-121480249D01*
X122150499Y-121480247D01*
X134349500Y-121480247D01*
X134349500Y-123519752D01*
X134361131Y-123578229D01*
X134361132Y-123578230D01*
X134405447Y-123644552D01*
X134471769Y-123688867D01*
X134471770Y-123688868D01*
X134530247Y-123700499D01*
X134530250Y-123700500D01*
X134530252Y-123700500D01*
X135469750Y-123700500D01*
X135469751Y-123700499D01*
X135484568Y-123697552D01*
X135528229Y-123688868D01*
X135528229Y-123688867D01*
X135528231Y-123688867D01*
X135594552Y-123644552D01*
X135638867Y-123578231D01*
X135638867Y-123578229D01*
X135638868Y-123578229D01*
X135650499Y-123519752D01*
X135650500Y-123519750D01*
X135650500Y-121480249D01*
X135650499Y-121480247D01*
X140599500Y-121480247D01*
X140599500Y-123519752D01*
X140611131Y-123578229D01*
X140611132Y-123578230D01*
X140655447Y-123644552D01*
X140721769Y-123688867D01*
X140721770Y-123688868D01*
X140780247Y-123700499D01*
X140780250Y-123700500D01*
X140780252Y-123700500D01*
X141719750Y-123700500D01*
X141719751Y-123700499D01*
X141734568Y-123697552D01*
X141778229Y-123688868D01*
X141778229Y-123688867D01*
X141778231Y-123688867D01*
X141844552Y-123644552D01*
X141888867Y-123578231D01*
X141888867Y-123578229D01*
X141888868Y-123578229D01*
X141900499Y-123519752D01*
X141900500Y-123519750D01*
X141900500Y-121480249D01*
X141900499Y-121480247D01*
X154099500Y-121480247D01*
X154099500Y-123519752D01*
X154111131Y-123578229D01*
X154111132Y-123578230D01*
X154155447Y-123644552D01*
X154221769Y-123688867D01*
X154221770Y-123688868D01*
X154280247Y-123700499D01*
X154280250Y-123700500D01*
X154280252Y-123700500D01*
X155219750Y-123700500D01*
X155219751Y-123700499D01*
X155234568Y-123697552D01*
X155278229Y-123688868D01*
X155278229Y-123688867D01*
X155278231Y-123688867D01*
X155344552Y-123644552D01*
X155388867Y-123578231D01*
X155388867Y-123578229D01*
X155388868Y-123578229D01*
X155400499Y-123519752D01*
X155400500Y-123519750D01*
X155400500Y-121480249D01*
X155400499Y-121480247D01*
X155388868Y-121421770D01*
X155388867Y-121421769D01*
X155344552Y-121355447D01*
X155278230Y-121311132D01*
X155278229Y-121311131D01*
X155219752Y-121299500D01*
X155219748Y-121299500D01*
X154280252Y-121299500D01*
X154280247Y-121299500D01*
X154221770Y-121311131D01*
X154221769Y-121311132D01*
X154155447Y-121355447D01*
X154111132Y-121421769D01*
X154111131Y-121421770D01*
X154099500Y-121480247D01*
X141900499Y-121480247D01*
X141888868Y-121421770D01*
X141888867Y-121421769D01*
X141844552Y-121355447D01*
X141778230Y-121311132D01*
X141778229Y-121311131D01*
X141719752Y-121299500D01*
X141719748Y-121299500D01*
X140780252Y-121299500D01*
X140780247Y-121299500D01*
X140721770Y-121311131D01*
X140721769Y-121311132D01*
X140655447Y-121355447D01*
X140611132Y-121421769D01*
X140611131Y-121421770D01*
X140599500Y-121480247D01*
X135650499Y-121480247D01*
X135638868Y-121421770D01*
X135638867Y-121421769D01*
X135594552Y-121355447D01*
X135528230Y-121311132D01*
X135528229Y-121311131D01*
X135469752Y-121299500D01*
X135469748Y-121299500D01*
X134530252Y-121299500D01*
X134530247Y-121299500D01*
X134471770Y-121311131D01*
X134471769Y-121311132D01*
X134405447Y-121355447D01*
X134361132Y-121421769D01*
X134361131Y-121421770D01*
X134349500Y-121480247D01*
X122150499Y-121480247D01*
X122138868Y-121421770D01*
X122138867Y-121421769D01*
X122094552Y-121355447D01*
X122028230Y-121311132D01*
X122028229Y-121311131D01*
X121969752Y-121299500D01*
X121969748Y-121299500D01*
X121030252Y-121299500D01*
X121030247Y-121299500D01*
X120971770Y-121311131D01*
X120971769Y-121311132D01*
X120905447Y-121355447D01*
X120861132Y-121421769D01*
X120861131Y-121421770D01*
X120849500Y-121480247D01*
X93300500Y-121480247D01*
X93300500Y-119480247D01*
X126899500Y-119480247D01*
X126899500Y-120819752D01*
X126911131Y-120878229D01*
X126911132Y-120878230D01*
X126955447Y-120944552D01*
X127021769Y-120988867D01*
X127021770Y-120988868D01*
X127080247Y-121000499D01*
X127080250Y-121000500D01*
X127080252Y-121000500D01*
X129419750Y-121000500D01*
X129419751Y-121000499D01*
X129434568Y-120997552D01*
X129478229Y-120988868D01*
X129478229Y-120988867D01*
X129478231Y-120988867D01*
X129544552Y-120944552D01*
X129588867Y-120878231D01*
X129588867Y-120878229D01*
X129588868Y-120878229D01*
X129600499Y-120819752D01*
X129600500Y-120819750D01*
X129600500Y-119480249D01*
X129600499Y-119480247D01*
X146649500Y-119480247D01*
X146649500Y-120819752D01*
X146661131Y-120878229D01*
X146661132Y-120878230D01*
X146705447Y-120944552D01*
X146771769Y-120988867D01*
X146771770Y-120988868D01*
X146830247Y-121000499D01*
X146830250Y-121000500D01*
X146830252Y-121000500D01*
X149169750Y-121000500D01*
X149169751Y-121000499D01*
X149184568Y-120997552D01*
X149228229Y-120988868D01*
X149228229Y-120988867D01*
X149228231Y-120988867D01*
X149294552Y-120944552D01*
X149338867Y-120878231D01*
X149338867Y-120878229D01*
X149338868Y-120878229D01*
X149350499Y-120819752D01*
X149350500Y-120819750D01*
X149350500Y-119480249D01*
X149350499Y-119480247D01*
X149338868Y-119421770D01*
X149338867Y-119421769D01*
X149294552Y-119355447D01*
X149228230Y-119311132D01*
X149228229Y-119311131D01*
X149169752Y-119299500D01*
X149169748Y-119299500D01*
X146830252Y-119299500D01*
X146830247Y-119299500D01*
X146771770Y-119311131D01*
X146771769Y-119311132D01*
X146705447Y-119355447D01*
X146661132Y-119421769D01*
X146661131Y-119421770D01*
X146649500Y-119480247D01*
X129600499Y-119480247D01*
X129588868Y-119421770D01*
X129588867Y-119421769D01*
X129544552Y-119355447D01*
X129478230Y-119311132D01*
X129478229Y-119311131D01*
X129419752Y-119299500D01*
X129419748Y-119299500D01*
X127080252Y-119299500D01*
X127080247Y-119299500D01*
X127021770Y-119311131D01*
X127021769Y-119311132D01*
X126955447Y-119355447D01*
X126911132Y-119421769D01*
X126911131Y-119421770D01*
X126899500Y-119480247D01*
X93300500Y-119480247D01*
X93300500Y-116499992D01*
X122394671Y-116499992D01*
X122394671Y-116500007D01*
X122413964Y-116794363D01*
X122413965Y-116794373D01*
X122413966Y-116794380D01*
X122413968Y-116794390D01*
X122471518Y-117083716D01*
X122471521Y-117083730D01*
X122566349Y-117363080D01*
X122696825Y-117627660D01*
X122696829Y-117627667D01*
X122860725Y-117872955D01*
X123055241Y-118094758D01*
X123277043Y-118289273D01*
X123522335Y-118453172D01*
X123786923Y-118583652D01*
X124066278Y-118678481D01*
X124355620Y-118736034D01*
X124383888Y-118737886D01*
X124649993Y-118755329D01*
X124650000Y-118755329D01*
X124650007Y-118755329D01*
X124885675Y-118739881D01*
X124944380Y-118736034D01*
X125233722Y-118678481D01*
X125513077Y-118583652D01*
X125777665Y-118453172D01*
X126022957Y-118289273D01*
X126244758Y-118094758D01*
X126439273Y-117872957D01*
X126603172Y-117627665D01*
X126733652Y-117363077D01*
X126828481Y-117083722D01*
X126886034Y-116794380D01*
X126905329Y-116500000D01*
X126905329Y-116499992D01*
X142144671Y-116499992D01*
X142144671Y-116500007D01*
X142163964Y-116794363D01*
X142163965Y-116794373D01*
X142163966Y-116794380D01*
X142163968Y-116794390D01*
X142221518Y-117083716D01*
X142221521Y-117083730D01*
X142316349Y-117363080D01*
X142446825Y-117627660D01*
X142446829Y-117627667D01*
X142610725Y-117872955D01*
X142805241Y-118094758D01*
X143027043Y-118289273D01*
X143272335Y-118453172D01*
X143536923Y-118583652D01*
X143816278Y-118678481D01*
X144105620Y-118736034D01*
X144133888Y-118737886D01*
X144399993Y-118755329D01*
X144400000Y-118755329D01*
X144400007Y-118755329D01*
X144635675Y-118739881D01*
X144694380Y-118736034D01*
X144983722Y-118678481D01*
X145263077Y-118583652D01*
X145527665Y-118453172D01*
X145772957Y-118289273D01*
X145994758Y-118094758D01*
X146189273Y-117872957D01*
X146353172Y-117627665D01*
X146483652Y-117363077D01*
X146578481Y-117083722D01*
X146636034Y-116794380D01*
X146655329Y-116500000D01*
X146655329Y-116499992D01*
X146636035Y-116205636D01*
X146636034Y-116205620D01*
X146578481Y-115916278D01*
X146483652Y-115636923D01*
X146353172Y-115372336D01*
X146189273Y-115127043D01*
X146146655Y-115078447D01*
X145994758Y-114905241D01*
X145772955Y-114710725D01*
X145527667Y-114546829D01*
X145527660Y-114546825D01*
X145263080Y-114416349D01*
X144983730Y-114321521D01*
X144983724Y-114321519D01*
X144983722Y-114321519D01*
X144694380Y-114263966D01*
X144694373Y-114263965D01*
X144694363Y-114263964D01*
X144400007Y-114244671D01*
X144399993Y-114244671D01*
X144105636Y-114263964D01*
X144105624Y-114263965D01*
X144105620Y-114263966D01*
X144105612Y-114263967D01*
X144105609Y-114263968D01*
X143816283Y-114321518D01*
X143816269Y-114321521D01*
X143536919Y-114416349D01*
X143272334Y-114546828D01*
X143027041Y-114710728D01*
X142805241Y-114905241D01*
X142610728Y-115127041D01*
X142446828Y-115372334D01*
X142316349Y-115636919D01*
X142221521Y-115916269D01*
X142221518Y-115916283D01*
X142163968Y-116205609D01*
X142163964Y-116205636D01*
X142144671Y-116499992D01*
X126905329Y-116499992D01*
X126886035Y-116205636D01*
X126886034Y-116205620D01*
X126828481Y-115916278D01*
X126733652Y-115636923D01*
X126603172Y-115372336D01*
X126439273Y-115127043D01*
X126396655Y-115078447D01*
X126244758Y-114905241D01*
X126022955Y-114710725D01*
X125777667Y-114546829D01*
X125777660Y-114546825D01*
X125513080Y-114416349D01*
X125233730Y-114321521D01*
X125233724Y-114321519D01*
X125233722Y-114321519D01*
X124944380Y-114263966D01*
X124944373Y-114263965D01*
X124944363Y-114263964D01*
X124650007Y-114244671D01*
X124649993Y-114244671D01*
X124355636Y-114263964D01*
X124355624Y-114263965D01*
X124355620Y-114263966D01*
X124355612Y-114263967D01*
X124355609Y-114263968D01*
X124066283Y-114321518D01*
X124066269Y-114321521D01*
X123786919Y-114416349D01*
X123522334Y-114546828D01*
X123277041Y-114710728D01*
X123055241Y-114905241D01*
X122860728Y-115127041D01*
X122696828Y-115372334D01*
X122566349Y-115636919D01*
X122471521Y-115916269D01*
X122471518Y-115916283D01*
X122413968Y-116205609D01*
X122413964Y-116205636D01*
X122394671Y-116499992D01*
X93300500Y-116499992D01*
X93300500Y-105000000D01*
X114494353Y-105000000D01*
X114514834Y-105142456D01*
X114574622Y-105273371D01*
X114574623Y-105273373D01*
X114668872Y-105382143D01*
X114789947Y-105459953D01*
X114789950Y-105459954D01*
X114789949Y-105459954D01*
X114897107Y-105491417D01*
X114925280Y-105499690D01*
X114928036Y-105500499D01*
X114928038Y-105500500D01*
X115024167Y-105500500D01*
X115091206Y-105520185D01*
X115111848Y-105536819D01*
X116759540Y-107184511D01*
X116815489Y-107240460D01*
X116815491Y-107240461D01*
X116815495Y-107240464D01*
X116866732Y-107270045D01*
X116884011Y-107280021D01*
X116960438Y-107300500D01*
X123324167Y-107300500D01*
X123391206Y-107320185D01*
X123411848Y-107336819D01*
X123989540Y-107914511D01*
X124045489Y-107970460D01*
X124045491Y-107970461D01*
X124045495Y-107970464D01*
X124102493Y-108003371D01*
X124114011Y-108010021D01*
X124190438Y-108030500D01*
X124269562Y-108030500D01*
X126866500Y-108030500D01*
X126933539Y-108050185D01*
X126960212Y-108073296D01*
X126993873Y-108112143D01*
X127114948Y-108189953D01*
X127114951Y-108189954D01*
X127114950Y-108189954D01*
X127253037Y-108230499D01*
X127253039Y-108230500D01*
X127253040Y-108230500D01*
X127396963Y-108230500D01*
X127396963Y-108230499D01*
X127535054Y-108189953D01*
X127656129Y-108112143D01*
X127750378Y-108003373D01*
X127810166Y-107872457D01*
X127830648Y-107730000D01*
X127810166Y-107587543D01*
X127750378Y-107456627D01*
X127656129Y-107347857D01*
X127535054Y-107270047D01*
X127535052Y-107270046D01*
X127535050Y-107270045D01*
X127535051Y-107270045D01*
X127396964Y-107229500D01*
X127396962Y-107229500D01*
X127253040Y-107229500D01*
X127253037Y-107229500D01*
X127114950Y-107270045D01*
X126993874Y-107347856D01*
X126960213Y-107386703D01*
X126901434Y-107424477D01*
X126866500Y-107429500D01*
X124405833Y-107429500D01*
X124338794Y-107409815D01*
X124318152Y-107393181D01*
X123684512Y-106759541D01*
X123684504Y-106759535D01*
X123615995Y-106719982D01*
X123615990Y-106719979D01*
X123590513Y-106713152D01*
X123539562Y-106699500D01*
X123539560Y-106699500D01*
X117175833Y-106699500D01*
X117108794Y-106679815D01*
X117088152Y-106663181D01*
X115539395Y-105114424D01*
X115505910Y-105053101D01*
X115504339Y-105009094D01*
X115505647Y-105000000D01*
X115485165Y-104857543D01*
X115425377Y-104726627D01*
X115331128Y-104617857D01*
X115210053Y-104540047D01*
X115210051Y-104540046D01*
X115210049Y-104540045D01*
X115210050Y-104540045D01*
X115071963Y-104499500D01*
X115071961Y-104499500D01*
X114928039Y-104499500D01*
X114928036Y-104499500D01*
X114789949Y-104540045D01*
X114668873Y-104617856D01*
X114574623Y-104726626D01*
X114574622Y-104726628D01*
X114514834Y-104857543D01*
X114494353Y-105000000D01*
X93300500Y-105000000D01*
X93300500Y-93000000D01*
X114994353Y-93000000D01*
X115014834Y-93142456D01*
X115039817Y-93197160D01*
X115074623Y-93273373D01*
X115168872Y-93382143D01*
X115289947Y-93459953D01*
X115289950Y-93459954D01*
X115289949Y-93459954D01*
X115397107Y-93491417D01*
X115426336Y-93500000D01*
X115428036Y-93500499D01*
X115428038Y-93500500D01*
X115428039Y-93500500D01*
X115571962Y-93500500D01*
X115571962Y-93500499D01*
X115710053Y-93459953D01*
X115831128Y-93382143D01*
X115864788Y-93343296D01*
X115923567Y-93305523D01*
X115958501Y-93300500D01*
X118039560Y-93300500D01*
X118039562Y-93300500D01*
X118115989Y-93280021D01*
X118184511Y-93240460D01*
X118240460Y-93184511D01*
X118690461Y-92734510D01*
X118730023Y-92665987D01*
X118750501Y-92589561D01*
X118750501Y-92510437D01*
X118750501Y-92499998D01*
X130894318Y-92499998D01*
X130894318Y-92500001D01*
X130914955Y-92656760D01*
X130914956Y-92656762D01*
X130975464Y-92802842D01*
X131068826Y-92924514D01*
X131094020Y-92989683D01*
X131079981Y-93058128D01*
X131068826Y-93075486D01*
X130975464Y-93197157D01*
X130914956Y-93343237D01*
X130914955Y-93343239D01*
X130894318Y-93499998D01*
X130894318Y-93500001D01*
X130914955Y-93656760D01*
X130914956Y-93656762D01*
X130975464Y-93802842D01*
X131068826Y-93924514D01*
X131094020Y-93989683D01*
X131079981Y-94058128D01*
X131068826Y-94075486D01*
X130975464Y-94197157D01*
X130914956Y-94343237D01*
X130914955Y-94343239D01*
X130894318Y-94499998D01*
X130894318Y-94500001D01*
X130914955Y-94656760D01*
X130914956Y-94656762D01*
X130975464Y-94802842D01*
X131068826Y-94924514D01*
X131094020Y-94989683D01*
X131079981Y-95058128D01*
X131068826Y-95075486D01*
X130975464Y-95197157D01*
X130914956Y-95343237D01*
X130914955Y-95343239D01*
X130894318Y-95499998D01*
X130894318Y-95500001D01*
X130914955Y-95656760D01*
X130914956Y-95656762D01*
X130975464Y-95802842D01*
X131068826Y-95924514D01*
X131094020Y-95989683D01*
X131079981Y-96058128D01*
X131068826Y-96075486D01*
X130975464Y-96197157D01*
X130914956Y-96343237D01*
X130914955Y-96343239D01*
X130894318Y-96499998D01*
X130894318Y-96500001D01*
X130914955Y-96656760D01*
X130914956Y-96656762D01*
X130975464Y-96802842D01*
X131068826Y-96924514D01*
X131094020Y-96989683D01*
X131079981Y-97058128D01*
X131068826Y-97075486D01*
X130975464Y-97197157D01*
X130914956Y-97343237D01*
X130914955Y-97343239D01*
X130894318Y-97499998D01*
X130894318Y-97500001D01*
X130914955Y-97656760D01*
X130914956Y-97656762D01*
X130975464Y-97802842D01*
X131068826Y-97924514D01*
X131094020Y-97989683D01*
X131079981Y-98058128D01*
X131068826Y-98075486D01*
X130975464Y-98197157D01*
X130914956Y-98343237D01*
X130914955Y-98343239D01*
X130894318Y-98499998D01*
X130894318Y-98500001D01*
X130914955Y-98656760D01*
X130914956Y-98656762D01*
X130975464Y-98802842D01*
X131068826Y-98924514D01*
X131094020Y-98989683D01*
X131079981Y-99058128D01*
X131068826Y-99075486D01*
X130975464Y-99197157D01*
X130914956Y-99343237D01*
X130914955Y-99343239D01*
X130894318Y-99499998D01*
X130894318Y-99500001D01*
X130914955Y-99656760D01*
X130914956Y-99656762D01*
X130975464Y-99802842D01*
X131068826Y-99924514D01*
X131094020Y-99989683D01*
X131079981Y-100058128D01*
X131068826Y-100075486D01*
X130975464Y-100197157D01*
X130914956Y-100343237D01*
X130914955Y-100343239D01*
X130894318Y-100499998D01*
X130894318Y-100500001D01*
X130914955Y-100656760D01*
X130914956Y-100656762D01*
X130975464Y-100802842D01*
X131068826Y-100924514D01*
X131094020Y-100989683D01*
X131079981Y-101058128D01*
X131068826Y-101075486D01*
X130975464Y-101197157D01*
X130914956Y-101343237D01*
X130914955Y-101343239D01*
X130894318Y-101499998D01*
X130894318Y-101500001D01*
X130914955Y-101656760D01*
X130914956Y-101656762D01*
X130975464Y-101802841D01*
X131071718Y-101928282D01*
X131197159Y-102024536D01*
X131343238Y-102085044D01*
X131421619Y-102095363D01*
X131499999Y-102105682D01*
X131500000Y-102105682D01*
X131500001Y-102105682D01*
X131552254Y-102098802D01*
X131656762Y-102085044D01*
X131802841Y-102024536D01*
X131924515Y-101931171D01*
X131989683Y-101905979D01*
X132058127Y-101920017D01*
X132075478Y-101931167D01*
X132197159Y-102024536D01*
X132343238Y-102085044D01*
X132421619Y-102095363D01*
X132499999Y-102105682D01*
X132500000Y-102105682D01*
X132500001Y-102105682D01*
X132552254Y-102098802D01*
X132656762Y-102085044D01*
X132802841Y-102024536D01*
X132924515Y-101931171D01*
X132989683Y-101905979D01*
X133058127Y-101920017D01*
X133075478Y-101931167D01*
X133197159Y-102024536D01*
X133343238Y-102085044D01*
X133421619Y-102095363D01*
X133499999Y-102105682D01*
X133500000Y-102105682D01*
X133500001Y-102105682D01*
X133552254Y-102098802D01*
X133656762Y-102085044D01*
X133802841Y-102024536D01*
X133924515Y-101931171D01*
X133989683Y-101905979D01*
X134058127Y-101920017D01*
X134075478Y-101931167D01*
X134197159Y-102024536D01*
X134343238Y-102085044D01*
X134421619Y-102095363D01*
X134499999Y-102105682D01*
X134500000Y-102105682D01*
X134500001Y-102105682D01*
X134552254Y-102098802D01*
X134656762Y-102085044D01*
X134802841Y-102024536D01*
X134924515Y-101931171D01*
X134989683Y-101905979D01*
X135058127Y-101920017D01*
X135075478Y-101931167D01*
X135197159Y-102024536D01*
X135343238Y-102085044D01*
X135421619Y-102095363D01*
X135499999Y-102105682D01*
X135500000Y-102105682D01*
X135500001Y-102105682D01*
X135552254Y-102098802D01*
X135656762Y-102085044D01*
X135802841Y-102024536D01*
X135924515Y-101931171D01*
X135989683Y-101905979D01*
X136058127Y-101920017D01*
X136075478Y-101931167D01*
X136197159Y-102024536D01*
X136343238Y-102085044D01*
X136421619Y-102095363D01*
X136499999Y-102105682D01*
X136500000Y-102105682D01*
X136500001Y-102105682D01*
X136552254Y-102098802D01*
X136656762Y-102085044D01*
X136802841Y-102024536D01*
X136924515Y-101931171D01*
X136989683Y-101905979D01*
X137058127Y-101920017D01*
X137075478Y-101931167D01*
X137197159Y-102024536D01*
X137343238Y-102085044D01*
X137421619Y-102095363D01*
X137499999Y-102105682D01*
X137500000Y-102105682D01*
X137500001Y-102105682D01*
X137552254Y-102098802D01*
X137656762Y-102085044D01*
X137802841Y-102024536D01*
X137924515Y-101931171D01*
X137989683Y-101905979D01*
X138058127Y-101920017D01*
X138075478Y-101931167D01*
X138197159Y-102024536D01*
X138343238Y-102085044D01*
X138421619Y-102095363D01*
X138499999Y-102105682D01*
X138500000Y-102105682D01*
X138500001Y-102105682D01*
X138552254Y-102098802D01*
X138656762Y-102085044D01*
X138802841Y-102024536D01*
X138924515Y-101931171D01*
X138989683Y-101905979D01*
X139058127Y-101920017D01*
X139075478Y-101931167D01*
X139197159Y-102024536D01*
X139343238Y-102085044D01*
X139421619Y-102095363D01*
X139499999Y-102105682D01*
X139500000Y-102105682D01*
X139500001Y-102105682D01*
X139552254Y-102098802D01*
X139656762Y-102085044D01*
X139802841Y-102024536D01*
X139924515Y-101931171D01*
X139989683Y-101905979D01*
X140058127Y-101920017D01*
X140075478Y-101931167D01*
X140197159Y-102024536D01*
X140343238Y-102085044D01*
X140421619Y-102095363D01*
X140499999Y-102105682D01*
X140500000Y-102105682D01*
X140500001Y-102105682D01*
X140552254Y-102098802D01*
X140656762Y-102085044D01*
X140802841Y-102024536D01*
X140928282Y-101928282D01*
X141024536Y-101802841D01*
X141085044Y-101656762D01*
X141105682Y-101500000D01*
X141085044Y-101343238D01*
X141024536Y-101197159D01*
X140931171Y-101075484D01*
X140905979Y-101010317D01*
X140920017Y-100941873D01*
X140931167Y-100924521D01*
X141024536Y-100802841D01*
X141085044Y-100656762D01*
X141105682Y-100500000D01*
X141085044Y-100343238D01*
X141024536Y-100197159D01*
X140931171Y-100075484D01*
X140905979Y-100010317D01*
X140920017Y-99941873D01*
X140931167Y-99924521D01*
X141024536Y-99802841D01*
X141085044Y-99656762D01*
X141105682Y-99500000D01*
X141085044Y-99343238D01*
X141024536Y-99197159D01*
X140931171Y-99075484D01*
X140905979Y-99010317D01*
X140920017Y-98941873D01*
X140931167Y-98924521D01*
X141024536Y-98802841D01*
X141085044Y-98656762D01*
X141105682Y-98500000D01*
X141085044Y-98343238D01*
X141024536Y-98197159D01*
X140931171Y-98075484D01*
X140905979Y-98010317D01*
X140920017Y-97941873D01*
X140931167Y-97924521D01*
X141024536Y-97802841D01*
X141085044Y-97656762D01*
X141105682Y-97500000D01*
X141085044Y-97343238D01*
X141024536Y-97197159D01*
X140931171Y-97075484D01*
X140905979Y-97010317D01*
X140920017Y-96941873D01*
X140931167Y-96924521D01*
X141024536Y-96802841D01*
X141085044Y-96656762D01*
X141105682Y-96500000D01*
X141085044Y-96343238D01*
X141024536Y-96197159D01*
X140931171Y-96075484D01*
X140905979Y-96010317D01*
X140920017Y-95941873D01*
X140931167Y-95924521D01*
X141024536Y-95802841D01*
X141085044Y-95656762D01*
X141105682Y-95500000D01*
X141085044Y-95343238D01*
X141024536Y-95197159D01*
X140931171Y-95075484D01*
X140905979Y-95010317D01*
X140920017Y-94941873D01*
X140931167Y-94924521D01*
X141024536Y-94802841D01*
X141085044Y-94656762D01*
X141105682Y-94500000D01*
X141085044Y-94343238D01*
X141024536Y-94197159D01*
X140931171Y-94075484D01*
X140905979Y-94010317D01*
X140920017Y-93941873D01*
X140931167Y-93924521D01*
X141024536Y-93802841D01*
X141085044Y-93656762D01*
X141105682Y-93500000D01*
X141085044Y-93343238D01*
X141024536Y-93197159D01*
X140931171Y-93075484D01*
X140905979Y-93010317D01*
X140920017Y-92941873D01*
X140931167Y-92924521D01*
X141024536Y-92802841D01*
X141085044Y-92656762D01*
X141105682Y-92500000D01*
X141085044Y-92343238D01*
X141024536Y-92197159D01*
X140928282Y-92071718D01*
X140802841Y-91975464D01*
X140656762Y-91914956D01*
X140656760Y-91914955D01*
X140500001Y-91894318D01*
X140499999Y-91894318D01*
X140343239Y-91914955D01*
X140343237Y-91914956D01*
X140197157Y-91975464D01*
X140075486Y-92068826D01*
X140010317Y-92094020D01*
X139941872Y-92079981D01*
X139924514Y-92068826D01*
X139802842Y-91975464D01*
X139656762Y-91914956D01*
X139656760Y-91914955D01*
X139500001Y-91894318D01*
X139499999Y-91894318D01*
X139343239Y-91914955D01*
X139343237Y-91914956D01*
X139197157Y-91975464D01*
X139075486Y-92068826D01*
X139010317Y-92094020D01*
X138941872Y-92079981D01*
X138924514Y-92068826D01*
X138802842Y-91975464D01*
X138656762Y-91914956D01*
X138656760Y-91914955D01*
X138500001Y-91894318D01*
X138499999Y-91894318D01*
X138343239Y-91914955D01*
X138343237Y-91914956D01*
X138197157Y-91975464D01*
X138075486Y-92068826D01*
X138010317Y-92094020D01*
X137941872Y-92079981D01*
X137924514Y-92068826D01*
X137802842Y-91975464D01*
X137656762Y-91914956D01*
X137656760Y-91914955D01*
X137500001Y-91894318D01*
X137499999Y-91894318D01*
X137343239Y-91914955D01*
X137343237Y-91914956D01*
X137197157Y-91975464D01*
X137075486Y-92068826D01*
X137010317Y-92094020D01*
X136941872Y-92079981D01*
X136924514Y-92068826D01*
X136802842Y-91975464D01*
X136656762Y-91914956D01*
X136656760Y-91914955D01*
X136500001Y-91894318D01*
X136499999Y-91894318D01*
X136343239Y-91914955D01*
X136343237Y-91914956D01*
X136197157Y-91975464D01*
X136075486Y-92068826D01*
X136010317Y-92094020D01*
X135941872Y-92079981D01*
X135924514Y-92068826D01*
X135802842Y-91975464D01*
X135656762Y-91914956D01*
X135656760Y-91914955D01*
X135500001Y-91894318D01*
X135499999Y-91894318D01*
X135343239Y-91914955D01*
X135343237Y-91914956D01*
X135197157Y-91975464D01*
X135075486Y-92068826D01*
X135010317Y-92094020D01*
X134941872Y-92079981D01*
X134924514Y-92068826D01*
X134802842Y-91975464D01*
X134656762Y-91914956D01*
X134656760Y-91914955D01*
X134500001Y-91894318D01*
X134499999Y-91894318D01*
X134343239Y-91914955D01*
X134343237Y-91914956D01*
X134197157Y-91975464D01*
X134075486Y-92068826D01*
X134010317Y-92094020D01*
X133941872Y-92079981D01*
X133924514Y-92068826D01*
X133802842Y-91975464D01*
X133656762Y-91914956D01*
X133656760Y-91914955D01*
X133500001Y-91894318D01*
X133499999Y-91894318D01*
X133343239Y-91914955D01*
X133343237Y-91914956D01*
X133197157Y-91975464D01*
X133075486Y-92068826D01*
X133010317Y-92094020D01*
X132941872Y-92079981D01*
X132924514Y-92068826D01*
X132802842Y-91975464D01*
X132656762Y-91914956D01*
X132656760Y-91914955D01*
X132500001Y-91894318D01*
X132499999Y-91894318D01*
X132343239Y-91914955D01*
X132343237Y-91914956D01*
X132197157Y-91975464D01*
X132075486Y-92068826D01*
X132010317Y-92094020D01*
X131941872Y-92079981D01*
X131924514Y-92068826D01*
X131802842Y-91975464D01*
X131656762Y-91914956D01*
X131656760Y-91914955D01*
X131500001Y-91894318D01*
X131499999Y-91894318D01*
X131343239Y-91914955D01*
X131343237Y-91914956D01*
X131197160Y-91975463D01*
X131071718Y-92071718D01*
X130975463Y-92197160D01*
X130914956Y-92343237D01*
X130914955Y-92343239D01*
X130894318Y-92499998D01*
X118750501Y-92499998D01*
X118750501Y-91816288D01*
X118770186Y-91749249D01*
X118780788Y-91735085D01*
X118781125Y-91734694D01*
X118781129Y-91734693D01*
X118875378Y-91625923D01*
X118935166Y-91495007D01*
X118955648Y-91352550D01*
X118935166Y-91210093D01*
X118875378Y-91079177D01*
X118781129Y-90970407D01*
X118660054Y-90892597D01*
X118660052Y-90892596D01*
X118660050Y-90892595D01*
X118660051Y-90892595D01*
X118521964Y-90852050D01*
X118521962Y-90852050D01*
X118378040Y-90852050D01*
X118378037Y-90852050D01*
X118239950Y-90892595D01*
X118118874Y-90970406D01*
X118024624Y-91079176D01*
X118024623Y-91079178D01*
X117964835Y-91210093D01*
X117944354Y-91352550D01*
X117964835Y-91495006D01*
X118007374Y-91588152D01*
X118024624Y-91625923D01*
X118118873Y-91734693D01*
X118118876Y-91734694D01*
X118119214Y-91735085D01*
X118148239Y-91798641D01*
X118149501Y-91816288D01*
X118149501Y-92374166D01*
X118129816Y-92441205D01*
X118113182Y-92461847D01*
X117911848Y-92663181D01*
X117850525Y-92696666D01*
X117824167Y-92699500D01*
X115958501Y-92699500D01*
X115891462Y-92679815D01*
X115864788Y-92656703D01*
X115831128Y-92617857D01*
X115710053Y-92540047D01*
X115710051Y-92540046D01*
X115710049Y-92540045D01*
X115710050Y-92540045D01*
X115571963Y-92499500D01*
X115571961Y-92499500D01*
X115428039Y-92499500D01*
X115428036Y-92499500D01*
X115289949Y-92540045D01*
X115168873Y-92617856D01*
X115074623Y-92726626D01*
X115074622Y-92726628D01*
X115014834Y-92857543D01*
X114994353Y-93000000D01*
X93300500Y-93000000D01*
X93300500Y-78381902D01*
X94999500Y-78381902D01*
X94999500Y-78618097D01*
X95036446Y-78851368D01*
X95109433Y-79075996D01*
X95189796Y-79233716D01*
X95216657Y-79286433D01*
X95355483Y-79477510D01*
X95522490Y-79644517D01*
X95713567Y-79783343D01*
X95812991Y-79834002D01*
X95924003Y-79890566D01*
X95924005Y-79890566D01*
X95924008Y-79890568D01*
X96044412Y-79929689D01*
X96148631Y-79963553D01*
X96381903Y-80000500D01*
X96381908Y-80000500D01*
X96618097Y-80000500D01*
X96851368Y-79963553D01*
X97075992Y-79890568D01*
X97286433Y-79783343D01*
X97477510Y-79644517D01*
X97644517Y-79477510D01*
X97783343Y-79286433D01*
X97890568Y-79075992D01*
X97963553Y-78851368D01*
X98000500Y-78618097D01*
X98000500Y-78381902D01*
X97963553Y-78148631D01*
X97890566Y-77924003D01*
X97783342Y-77713566D01*
X97644517Y-77522490D01*
X97477510Y-77355483D01*
X97286433Y-77216657D01*
X97075996Y-77109433D01*
X96851368Y-77036446D01*
X96618097Y-76999500D01*
X96618092Y-76999500D01*
X96381908Y-76999500D01*
X96381903Y-76999500D01*
X96148631Y-77036446D01*
X95924003Y-77109433D01*
X95713566Y-77216657D01*
X95630456Y-77277041D01*
X95522490Y-77355483D01*
X95522488Y-77355485D01*
X95522487Y-77355485D01*
X95355485Y-77522487D01*
X95355485Y-77522488D01*
X95355483Y-77522490D01*
X95295862Y-77604550D01*
X95216657Y-77713566D01*
X95109433Y-77924003D01*
X95036446Y-78148631D01*
X94999500Y-78381902D01*
X93300500Y-78381902D01*
X93300500Y-70549501D01*
X102244353Y-70549501D01*
X102264834Y-70691957D01*
X102324622Y-70822872D01*
X102324623Y-70822874D01*
X102418872Y-70931644D01*
X102418875Y-70931645D01*
X102419213Y-70932036D01*
X102448238Y-70995592D01*
X102449500Y-71013239D01*
X102449500Y-84789562D01*
X102463152Y-84840513D01*
X102469979Y-84865990D01*
X102469982Y-84865995D01*
X102509535Y-84934504D01*
X102509539Y-84934509D01*
X102509540Y-84934511D01*
X103759540Y-86184511D01*
X103815489Y-86240460D01*
X103815491Y-86240461D01*
X103815495Y-86240464D01*
X103847038Y-86258675D01*
X103884011Y-86280021D01*
X103960438Y-86300500D01*
X114824167Y-86300500D01*
X114891206Y-86320185D01*
X114911848Y-86336819D01*
X116213180Y-87638151D01*
X116246665Y-87699474D01*
X116249499Y-87725832D01*
X116249499Y-88183710D01*
X116229814Y-88250749D01*
X116219212Y-88264912D01*
X116124624Y-88374072D01*
X116124621Y-88374078D01*
X116064833Y-88504993D01*
X116044352Y-88647450D01*
X116064833Y-88789906D01*
X116107088Y-88882430D01*
X116124622Y-88920823D01*
X116218871Y-89029593D01*
X116339946Y-89107403D01*
X116339949Y-89107404D01*
X116339948Y-89107404D01*
X116416101Y-89129764D01*
X116459330Y-89142457D01*
X116478035Y-89147949D01*
X116478037Y-89147950D01*
X116478038Y-89147950D01*
X116621961Y-89147950D01*
X116621961Y-89147949D01*
X116758424Y-89107881D01*
X116760049Y-89107404D01*
X116760049Y-89107403D01*
X116760052Y-89107403D01*
X116881127Y-89029593D01*
X116930026Y-88973160D01*
X116988800Y-88935386D01*
X117058670Y-88935385D01*
X117111418Y-88966682D01*
X117130322Y-88985586D01*
X117136354Y-88992065D01*
X117168870Y-89029591D01*
X117168874Y-89029595D01*
X117172928Y-89032200D01*
X117188211Y-89044516D01*
X117192684Y-89047948D01*
X117192686Y-89047950D01*
X117236887Y-89073469D01*
X117241871Y-89076506D01*
X117289947Y-89107403D01*
X117289950Y-89107404D01*
X117289952Y-89107405D01*
X117290994Y-89107881D01*
X117300621Y-89111277D01*
X117306811Y-89113840D01*
X117306814Y-89113842D01*
X117363246Y-89128962D01*
X117363261Y-89128966D01*
X117366098Y-89129762D01*
X117428039Y-89147950D01*
X117571963Y-89147950D01*
X117571963Y-89147949D01*
X117610226Y-89136713D01*
X117633902Y-89129762D01*
X117636681Y-89128981D01*
X117693186Y-89113842D01*
X117693189Y-89113839D01*
X117699367Y-89111282D01*
X117708996Y-89107884D01*
X117710045Y-89107405D01*
X117710053Y-89107403D01*
X117758087Y-89076532D01*
X117763102Y-89073475D01*
X117807314Y-89047950D01*
X117807321Y-89047942D01*
X117811828Y-89044485D01*
X117827067Y-89032202D01*
X117831128Y-89029593D01*
X117856769Y-89000000D01*
X141494353Y-89000000D01*
X141514834Y-89142456D01*
X141574622Y-89273371D01*
X141574623Y-89273373D01*
X141668872Y-89382143D01*
X141668875Y-89382144D01*
X141669213Y-89382535D01*
X141698238Y-89446091D01*
X141699500Y-89463738D01*
X141699500Y-90039562D01*
X141713152Y-90090513D01*
X141719979Y-90115990D01*
X141719982Y-90115995D01*
X141759535Y-90184504D01*
X141759539Y-90184509D01*
X141759540Y-90184511D01*
X142315489Y-90740460D01*
X142384012Y-90780022D01*
X142460438Y-90800500D01*
X145824167Y-90800500D01*
X145891206Y-90820185D01*
X145911848Y-90836819D01*
X146663181Y-91588152D01*
X146696666Y-91649475D01*
X146699500Y-91675833D01*
X146699500Y-94324167D01*
X146679815Y-94391206D01*
X146663181Y-94411848D01*
X145871848Y-95203181D01*
X145810525Y-95236666D01*
X145784167Y-95239500D01*
X144458501Y-95239500D01*
X144391462Y-95219815D01*
X144364788Y-95196703D01*
X144331128Y-95157857D01*
X144210053Y-95080047D01*
X144210051Y-95080046D01*
X144210049Y-95080045D01*
X144210050Y-95080045D01*
X144071963Y-95039500D01*
X144071961Y-95039500D01*
X143928039Y-95039500D01*
X143928036Y-95039500D01*
X143789949Y-95080045D01*
X143668873Y-95157856D01*
X143574623Y-95266626D01*
X143574622Y-95266628D01*
X143514834Y-95397543D01*
X143494353Y-95540000D01*
X143514834Y-95682456D01*
X143574622Y-95813371D01*
X143574623Y-95813373D01*
X143668872Y-95922143D01*
X143789947Y-95999953D01*
X143789950Y-95999954D01*
X143789949Y-95999954D01*
X143928036Y-96040499D01*
X143928038Y-96040500D01*
X143928039Y-96040500D01*
X144071962Y-96040500D01*
X144071962Y-96040499D01*
X144210053Y-95999953D01*
X144331128Y-95922143D01*
X144364788Y-95883296D01*
X144423567Y-95845523D01*
X144458501Y-95840500D01*
X145999560Y-95840500D01*
X145999562Y-95840500D01*
X146075989Y-95820021D01*
X146144511Y-95780460D01*
X146200460Y-95724511D01*
X147240460Y-94684511D01*
X147264017Y-94643709D01*
X147280021Y-94615989D01*
X147300500Y-94539562D01*
X147300500Y-91460438D01*
X147280022Y-91384012D01*
X147240460Y-91315489D01*
X146184511Y-90259540D01*
X146184510Y-90259539D01*
X146184507Y-90259537D01*
X146151462Y-90240459D01*
X146151462Y-90240458D01*
X146151460Y-90240458D01*
X146139083Y-90233312D01*
X146115990Y-90219979D01*
X146115991Y-90219979D01*
X146077775Y-90209739D01*
X146039562Y-90199500D01*
X146039560Y-90199500D01*
X142675833Y-90199500D01*
X142608794Y-90179815D01*
X142588152Y-90163181D01*
X142336819Y-89911848D01*
X142303334Y-89850525D01*
X142300500Y-89824167D01*
X142300500Y-89463738D01*
X142320185Y-89396699D01*
X142330787Y-89382535D01*
X142331124Y-89382144D01*
X142331128Y-89382143D01*
X142425377Y-89273373D01*
X142485165Y-89142457D01*
X142505647Y-89000000D01*
X142485165Y-88857543D01*
X142425377Y-88726627D01*
X142331128Y-88617857D01*
X142210053Y-88540047D01*
X142210051Y-88540046D01*
X142210049Y-88540045D01*
X142210050Y-88540045D01*
X142071963Y-88499500D01*
X142071961Y-88499500D01*
X141928039Y-88499500D01*
X141928036Y-88499500D01*
X141789949Y-88540045D01*
X141668873Y-88617856D01*
X141574623Y-88726626D01*
X141574622Y-88726628D01*
X141514834Y-88857543D01*
X141494353Y-89000000D01*
X117856769Y-89000000D01*
X117863653Y-88992055D01*
X117869673Y-88985590D01*
X117882101Y-88973162D01*
X117900500Y-88954764D01*
X117903628Y-88949344D01*
X117917304Y-88930138D01*
X117925377Y-88920823D01*
X117942912Y-88882424D01*
X117948311Y-88871952D01*
X117966392Y-88840636D01*
X117969952Y-88827348D01*
X117976934Y-88807929D01*
X117985164Y-88789909D01*
X117985163Y-88789909D01*
X117985165Y-88789907D01*
X117990111Y-88755503D01*
X117993074Y-88741056D01*
X117994263Y-88736615D01*
X118000500Y-88713342D01*
X118000500Y-88692117D01*
X118001762Y-88674470D01*
X118005647Y-88647449D01*
X118001762Y-88620427D01*
X118000500Y-88602781D01*
X118000500Y-86258675D01*
X118020185Y-86191636D01*
X118036814Y-86170999D01*
X120087852Y-84119960D01*
X120149173Y-84086477D01*
X120155580Y-84085360D01*
X120156754Y-84085044D01*
X120156762Y-84085044D01*
X120302841Y-84024536D01*
X120428282Y-83928282D01*
X120524536Y-83802841D01*
X120585044Y-83656762D01*
X120605682Y-83500000D01*
X120585044Y-83343238D01*
X120524536Y-83197159D01*
X120428282Y-83071718D01*
X120302841Y-82975464D01*
X120156762Y-82914956D01*
X120156760Y-82914955D01*
X120000001Y-82894318D01*
X119999999Y-82894318D01*
X119843239Y-82914955D01*
X119843237Y-82914956D01*
X119697160Y-82975463D01*
X119571718Y-83071718D01*
X119475463Y-83197160D01*
X119414954Y-83343241D01*
X119412852Y-83351089D01*
X119410911Y-83350569D01*
X119387019Y-83404559D01*
X119380038Y-83412146D01*
X117192686Y-85599500D01*
X117099502Y-85692683D01*
X117099500Y-85692686D01*
X117033608Y-85806812D01*
X116999500Y-85934108D01*
X116999500Y-87275167D01*
X116979815Y-87342206D01*
X116927011Y-87387961D01*
X116857853Y-87397905D01*
X116794297Y-87368880D01*
X116787819Y-87362848D01*
X115184512Y-85759541D01*
X115184504Y-85759535D01*
X115115995Y-85719982D01*
X115115990Y-85719979D01*
X115090513Y-85713152D01*
X115039562Y-85699500D01*
X115039560Y-85699500D01*
X104175833Y-85699500D01*
X104108794Y-85679815D01*
X104088152Y-85663181D01*
X103086819Y-84661848D01*
X103053334Y-84600525D01*
X103050500Y-84574167D01*
X103050500Y-78649992D01*
X147744671Y-78649992D01*
X147744671Y-78650007D01*
X147763964Y-78944363D01*
X147763965Y-78944373D01*
X147763966Y-78944380D01*
X147763968Y-78944390D01*
X147821518Y-79233716D01*
X147821521Y-79233730D01*
X147916349Y-79513080D01*
X148046825Y-79777660D01*
X148046829Y-79777667D01*
X148210725Y-80022955D01*
X148405241Y-80244758D01*
X148627043Y-80439273D01*
X148872335Y-80603172D01*
X149136923Y-80733652D01*
X149416278Y-80828481D01*
X149705620Y-80886034D01*
X149733888Y-80887886D01*
X149999993Y-80905329D01*
X150000000Y-80905329D01*
X150000007Y-80905329D01*
X150235675Y-80889881D01*
X150294380Y-80886034D01*
X150583722Y-80828481D01*
X150863077Y-80733652D01*
X151127665Y-80603172D01*
X151372957Y-80439273D01*
X151594758Y-80244758D01*
X151789273Y-80022957D01*
X151953172Y-79777665D01*
X152083652Y-79513077D01*
X152178481Y-79233722D01*
X152236034Y-78944380D01*
X152255329Y-78650000D01*
X152255329Y-78649992D01*
X152236035Y-78355636D01*
X152236034Y-78355620D01*
X152178481Y-78066278D01*
X152083652Y-77786923D01*
X151953172Y-77522336D01*
X151789273Y-77277043D01*
X151736316Y-77216657D01*
X151594758Y-77055241D01*
X151372955Y-76860725D01*
X151127667Y-76696829D01*
X151127660Y-76696825D01*
X150863080Y-76566349D01*
X150583730Y-76471521D01*
X150583724Y-76471519D01*
X150583722Y-76471519D01*
X150294380Y-76413966D01*
X150294373Y-76413965D01*
X150294363Y-76413964D01*
X150000007Y-76394671D01*
X149999993Y-76394671D01*
X149705636Y-76413964D01*
X149705624Y-76413965D01*
X149705620Y-76413966D01*
X149705612Y-76413967D01*
X149705609Y-76413968D01*
X149416283Y-76471518D01*
X149416269Y-76471521D01*
X149136919Y-76566349D01*
X148872334Y-76696828D01*
X148627041Y-76860728D01*
X148405241Y-77055241D01*
X148210728Y-77277041D01*
X148046828Y-77522334D01*
X147916349Y-77786919D01*
X147821521Y-78066269D01*
X147821518Y-78066283D01*
X147763968Y-78355609D01*
X147763964Y-78355636D01*
X147744671Y-78649992D01*
X103050500Y-78649992D01*
X103050500Y-74330247D01*
X145049500Y-74330247D01*
X145049500Y-75669752D01*
X145061131Y-75728229D01*
X145061132Y-75728230D01*
X145105447Y-75794552D01*
X145171769Y-75838867D01*
X145171770Y-75838868D01*
X145230247Y-75850499D01*
X145230250Y-75850500D01*
X145230252Y-75850500D01*
X147569750Y-75850500D01*
X147569751Y-75850499D01*
X147584568Y-75847552D01*
X147628229Y-75838868D01*
X147628229Y-75838867D01*
X147628231Y-75838867D01*
X147694552Y-75794552D01*
X147738867Y-75728231D01*
X147738867Y-75728229D01*
X147738868Y-75728229D01*
X147750499Y-75669752D01*
X147750500Y-75669750D01*
X147750500Y-74330249D01*
X147750499Y-74330247D01*
X147738868Y-74271770D01*
X147738867Y-74271769D01*
X147694552Y-74205447D01*
X147628230Y-74161132D01*
X147628229Y-74161131D01*
X147569752Y-74149500D01*
X147569748Y-74149500D01*
X145230252Y-74149500D01*
X145230247Y-74149500D01*
X145171770Y-74161131D01*
X145171769Y-74161132D01*
X145105447Y-74205447D01*
X145061132Y-74271769D01*
X145061131Y-74271770D01*
X145049500Y-74330247D01*
X103050500Y-74330247D01*
X103050500Y-71570101D01*
X119910478Y-71570101D01*
X119910478Y-71570102D01*
X119929324Y-71773497D01*
X119985225Y-71969965D01*
X119985230Y-71969978D01*
X120076276Y-72152821D01*
X120199377Y-72315833D01*
X120199381Y-72315837D01*
X120350329Y-72453444D01*
X120350331Y-72453446D01*
X120523998Y-72560976D01*
X120524004Y-72560979D01*
X120564355Y-72576610D01*
X120714476Y-72634768D01*
X120915266Y-72672302D01*
X120915268Y-72672302D01*
X121119532Y-72672302D01*
X121119534Y-72672302D01*
X121320324Y-72634768D01*
X121510798Y-72560978D01*
X121684470Y-72453445D01*
X121835425Y-72315831D01*
X121958524Y-72152821D01*
X122049574Y-71969968D01*
X122105475Y-71773498D01*
X122124322Y-71570102D01*
X122124322Y-71570101D01*
X124910478Y-71570101D01*
X124910478Y-71570102D01*
X124929324Y-71773497D01*
X124985225Y-71969965D01*
X124985230Y-71969978D01*
X125076276Y-72152821D01*
X125199377Y-72315833D01*
X125199381Y-72315837D01*
X125350329Y-72453444D01*
X125350331Y-72453446D01*
X125523998Y-72560976D01*
X125524004Y-72560979D01*
X125564355Y-72576610D01*
X125714476Y-72634768D01*
X125915266Y-72672302D01*
X125915268Y-72672302D01*
X126119532Y-72672302D01*
X126119534Y-72672302D01*
X126320324Y-72634768D01*
X126510798Y-72560978D01*
X126684470Y-72453445D01*
X126835425Y-72315831D01*
X126958524Y-72152821D01*
X127049574Y-71969968D01*
X127105475Y-71773498D01*
X127118749Y-71630247D01*
X138999500Y-71630247D01*
X138999500Y-73669752D01*
X139011131Y-73728229D01*
X139011132Y-73728230D01*
X139055447Y-73794552D01*
X139121769Y-73838867D01*
X139121770Y-73838868D01*
X139180247Y-73850499D01*
X139180250Y-73850500D01*
X139180252Y-73850500D01*
X140119750Y-73850500D01*
X140119751Y-73850499D01*
X140134568Y-73847552D01*
X140178229Y-73838868D01*
X140178229Y-73838867D01*
X140178231Y-73838867D01*
X140244552Y-73794552D01*
X140288867Y-73728231D01*
X140288867Y-73728229D01*
X140288868Y-73728229D01*
X140300499Y-73669752D01*
X140300500Y-73669750D01*
X140300500Y-71630249D01*
X140300499Y-71630247D01*
X152499500Y-71630247D01*
X152499500Y-73669752D01*
X152511131Y-73728229D01*
X152511132Y-73728230D01*
X152555447Y-73794552D01*
X152621769Y-73838867D01*
X152621770Y-73838868D01*
X152680247Y-73850499D01*
X152680250Y-73850500D01*
X152680252Y-73850500D01*
X153619750Y-73850500D01*
X153619751Y-73850499D01*
X153634568Y-73847552D01*
X153678229Y-73838868D01*
X153678229Y-73838867D01*
X153678231Y-73838867D01*
X153744552Y-73794552D01*
X153788867Y-73728231D01*
X153788867Y-73728229D01*
X153788868Y-73728229D01*
X153800499Y-73669752D01*
X153800500Y-73669750D01*
X153800500Y-71630249D01*
X153800499Y-71630247D01*
X153788868Y-71571770D01*
X153788867Y-71571769D01*
X153744552Y-71505447D01*
X153678230Y-71461132D01*
X153678229Y-71461131D01*
X153619752Y-71449500D01*
X153619748Y-71449500D01*
X152680252Y-71449500D01*
X152680247Y-71449500D01*
X152621770Y-71461131D01*
X152621769Y-71461132D01*
X152555447Y-71505447D01*
X152511132Y-71571769D01*
X152511131Y-71571770D01*
X152499500Y-71630247D01*
X140300499Y-71630247D01*
X140288868Y-71571770D01*
X140288867Y-71571769D01*
X140244552Y-71505447D01*
X140178230Y-71461132D01*
X140178229Y-71461131D01*
X140119752Y-71449500D01*
X140119748Y-71449500D01*
X139180252Y-71449500D01*
X139180247Y-71449500D01*
X139121770Y-71461131D01*
X139121769Y-71461132D01*
X139055447Y-71505447D01*
X139011132Y-71571769D01*
X139011131Y-71571770D01*
X138999500Y-71630247D01*
X127118749Y-71630247D01*
X127124322Y-71570102D01*
X127105475Y-71366706D01*
X127049574Y-71170236D01*
X126958524Y-70987383D01*
X126835425Y-70824373D01*
X126835422Y-70824370D01*
X126835418Y-70824366D01*
X126684470Y-70686759D01*
X126684468Y-70686757D01*
X126510801Y-70579227D01*
X126510795Y-70579224D01*
X126360677Y-70521068D01*
X126320324Y-70505436D01*
X126119534Y-70467902D01*
X125915266Y-70467902D01*
X125714476Y-70505436D01*
X125714473Y-70505436D01*
X125714473Y-70505437D01*
X125524004Y-70579224D01*
X125523998Y-70579227D01*
X125350331Y-70686757D01*
X125350329Y-70686759D01*
X125199381Y-70824366D01*
X125199377Y-70824370D01*
X125076276Y-70987382D01*
X124985230Y-71170225D01*
X124985225Y-71170238D01*
X124929324Y-71366706D01*
X124910478Y-71570101D01*
X122124322Y-71570101D01*
X122105475Y-71366706D01*
X122049574Y-71170236D01*
X121958524Y-70987383D01*
X121835425Y-70824373D01*
X121835422Y-70824370D01*
X121835418Y-70824366D01*
X121684470Y-70686759D01*
X121684468Y-70686757D01*
X121510801Y-70579227D01*
X121510795Y-70579224D01*
X121360677Y-70521068D01*
X121320324Y-70505436D01*
X121119534Y-70467902D01*
X120915266Y-70467902D01*
X120714476Y-70505436D01*
X120714473Y-70505436D01*
X120714473Y-70505437D01*
X120524004Y-70579224D01*
X120523998Y-70579227D01*
X120350331Y-70686757D01*
X120350329Y-70686759D01*
X120199381Y-70824366D01*
X120199377Y-70824370D01*
X120076276Y-70987382D01*
X119985230Y-71170225D01*
X119985225Y-71170238D01*
X119929324Y-71366706D01*
X119910478Y-71570101D01*
X103050500Y-71570101D01*
X103050500Y-71013239D01*
X103070185Y-70946200D01*
X103080787Y-70932036D01*
X103081124Y-70931645D01*
X103081128Y-70931644D01*
X103175377Y-70822874D01*
X103235165Y-70691958D01*
X103255647Y-70549501D01*
X103235165Y-70407044D01*
X103175377Y-70276128D01*
X103081128Y-70167358D01*
X102960053Y-70089548D01*
X102960051Y-70089547D01*
X102960049Y-70089546D01*
X102960050Y-70089546D01*
X102821963Y-70049001D01*
X102821961Y-70049001D01*
X102678039Y-70049001D01*
X102678036Y-70049001D01*
X102539949Y-70089546D01*
X102418873Y-70167357D01*
X102324623Y-70276127D01*
X102324622Y-70276129D01*
X102264834Y-70407044D01*
X102244353Y-70549501D01*
X93300500Y-70549501D01*
X93300500Y-66381902D01*
X158499500Y-66381902D01*
X158499500Y-66618097D01*
X158536446Y-66851368D01*
X158609433Y-67075996D01*
X158716657Y-67286433D01*
X158855483Y-67477510D01*
X159022490Y-67644517D01*
X159213567Y-67783343D01*
X159312991Y-67834002D01*
X159424003Y-67890566D01*
X159424005Y-67890566D01*
X159424008Y-67890568D01*
X159544412Y-67929689D01*
X159648631Y-67963553D01*
X159881903Y-68000500D01*
X159881908Y-68000500D01*
X160118097Y-68000500D01*
X160351368Y-67963553D01*
X160575992Y-67890568D01*
X160786433Y-67783343D01*
X160977510Y-67644517D01*
X161144517Y-67477510D01*
X161283343Y-67286433D01*
X161390568Y-67075992D01*
X161463553Y-66851368D01*
X161500500Y-66618097D01*
X161500500Y-66381902D01*
X161463553Y-66148631D01*
X161390566Y-65924003D01*
X161283342Y-65713566D01*
X161144517Y-65522490D01*
X160977510Y-65355483D01*
X160786433Y-65216657D01*
X160575996Y-65109433D01*
X160351368Y-65036446D01*
X160118097Y-64999500D01*
X160118092Y-64999500D01*
X159881908Y-64999500D01*
X159881903Y-64999500D01*
X159648631Y-65036446D01*
X159424003Y-65109433D01*
X159213566Y-65216657D01*
X159104550Y-65295862D01*
X159022490Y-65355483D01*
X159022488Y-65355485D01*
X159022487Y-65355485D01*
X158855485Y-65522487D01*
X158855485Y-65522488D01*
X158855483Y-65522490D01*
X158795862Y-65604550D01*
X158716657Y-65713566D01*
X158609433Y-65924003D01*
X158536446Y-66148631D01*
X158499500Y-66381902D01*
X93300500Y-66381902D01*
X93300500Y-61924500D01*
X93320185Y-61857461D01*
X93372989Y-61811706D01*
X93424500Y-61800500D01*
X163075500Y-61800500D01*
X163142539Y-61820185D01*
G37*
%TD.AperFunction*%
%TD*%
M02*
