%TF.GenerationSoftware,KiCad,Pcbnew,8.0.6*%
%TF.CreationDate,2025-03-28T18:59:19-04:00*%
%TF.ProjectId,Electrical schematic,456c6563-7472-4696-9361-6c2073636865,rev?*%
%TF.SameCoordinates,Original*%
%TF.FileFunction,Legend,Top*%
%TF.FilePolarity,Positive*%
%FSLAX46Y46*%
G04 Gerber Fmt 4.6, Leading zero omitted, Abs format (unit mm)*
G04 Created by KiCad (PCBNEW 8.0.6) date 2025-03-28 18:59:19*
%MOMM*%
%LPD*%
G01*
G04 APERTURE LIST*
%ADD10C,0.150000*%
%ADD11C,0.152400*%
%ADD12C,0.508000*%
%ADD13C,0.120000*%
G04 APERTURE END LIST*
D10*
X158666666Y-126454819D02*
X158333333Y-125978628D01*
X158095238Y-126454819D02*
X158095238Y-125454819D01*
X158095238Y-125454819D02*
X158476190Y-125454819D01*
X158476190Y-125454819D02*
X158571428Y-125502438D01*
X158571428Y-125502438D02*
X158619047Y-125550057D01*
X158619047Y-125550057D02*
X158666666Y-125645295D01*
X158666666Y-125645295D02*
X158666666Y-125788152D01*
X158666666Y-125788152D02*
X158619047Y-125883390D01*
X158619047Y-125883390D02*
X158571428Y-125931009D01*
X158571428Y-125931009D02*
X158476190Y-125978628D01*
X158476190Y-125978628D02*
X158095238Y-125978628D01*
X159095238Y-125931009D02*
X159428571Y-125931009D01*
X159571428Y-126454819D02*
X159095238Y-126454819D01*
X159095238Y-126454819D02*
X159095238Y-125454819D01*
X159095238Y-125454819D02*
X159571428Y-125454819D01*
X160333333Y-125931009D02*
X160000000Y-125931009D01*
X160000000Y-126454819D02*
X160000000Y-125454819D01*
X160000000Y-125454819D02*
X160476190Y-125454819D01*
X161000000Y-125454819D02*
X161000000Y-125692914D01*
X160761905Y-125597676D02*
X161000000Y-125692914D01*
X161000000Y-125692914D02*
X161238095Y-125597676D01*
X160857143Y-125883390D02*
X161000000Y-125692914D01*
X161000000Y-125692914D02*
X161142857Y-125883390D01*
X161761905Y-125454819D02*
X161761905Y-125692914D01*
X161523810Y-125597676D02*
X161761905Y-125692914D01*
X161761905Y-125692914D02*
X162000000Y-125597676D01*
X161619048Y-125883390D02*
X161761905Y-125692914D01*
X161761905Y-125692914D02*
X161904762Y-125883390D01*
X158666666Y-63454819D02*
X158333333Y-62978628D01*
X158095238Y-63454819D02*
X158095238Y-62454819D01*
X158095238Y-62454819D02*
X158476190Y-62454819D01*
X158476190Y-62454819D02*
X158571428Y-62502438D01*
X158571428Y-62502438D02*
X158619047Y-62550057D01*
X158619047Y-62550057D02*
X158666666Y-62645295D01*
X158666666Y-62645295D02*
X158666666Y-62788152D01*
X158666666Y-62788152D02*
X158619047Y-62883390D01*
X158619047Y-62883390D02*
X158571428Y-62931009D01*
X158571428Y-62931009D02*
X158476190Y-62978628D01*
X158476190Y-62978628D02*
X158095238Y-62978628D01*
X159095238Y-62931009D02*
X159428571Y-62931009D01*
X159571428Y-63454819D02*
X159095238Y-63454819D01*
X159095238Y-63454819D02*
X159095238Y-62454819D01*
X159095238Y-62454819D02*
X159571428Y-62454819D01*
X160333333Y-62931009D02*
X160000000Y-62931009D01*
X160000000Y-63454819D02*
X160000000Y-62454819D01*
X160000000Y-62454819D02*
X160476190Y-62454819D01*
X161000000Y-62454819D02*
X161000000Y-62692914D01*
X160761905Y-62597676D02*
X161000000Y-62692914D01*
X161000000Y-62692914D02*
X161238095Y-62597676D01*
X160857143Y-62883390D02*
X161000000Y-62692914D01*
X161000000Y-62692914D02*
X161142857Y-62883390D01*
X161761905Y-62454819D02*
X161761905Y-62692914D01*
X161523810Y-62597676D02*
X161761905Y-62692914D01*
X161761905Y-62692914D02*
X162000000Y-62597676D01*
X161619048Y-62883390D02*
X161761905Y-62692914D01*
X161761905Y-62692914D02*
X161904762Y-62883390D01*
X95166666Y-75454819D02*
X94833333Y-74978628D01*
X94595238Y-75454819D02*
X94595238Y-74454819D01*
X94595238Y-74454819D02*
X94976190Y-74454819D01*
X94976190Y-74454819D02*
X95071428Y-74502438D01*
X95071428Y-74502438D02*
X95119047Y-74550057D01*
X95119047Y-74550057D02*
X95166666Y-74645295D01*
X95166666Y-74645295D02*
X95166666Y-74788152D01*
X95166666Y-74788152D02*
X95119047Y-74883390D01*
X95119047Y-74883390D02*
X95071428Y-74931009D01*
X95071428Y-74931009D02*
X94976190Y-74978628D01*
X94976190Y-74978628D02*
X94595238Y-74978628D01*
X95595238Y-74931009D02*
X95928571Y-74931009D01*
X96071428Y-75454819D02*
X95595238Y-75454819D01*
X95595238Y-75454819D02*
X95595238Y-74454819D01*
X95595238Y-74454819D02*
X96071428Y-74454819D01*
X96833333Y-74931009D02*
X96500000Y-74931009D01*
X96500000Y-75454819D02*
X96500000Y-74454819D01*
X96500000Y-74454819D02*
X96976190Y-74454819D01*
X97500000Y-74454819D02*
X97500000Y-74692914D01*
X97261905Y-74597676D02*
X97500000Y-74692914D01*
X97500000Y-74692914D02*
X97738095Y-74597676D01*
X97357143Y-74883390D02*
X97500000Y-74692914D01*
X97500000Y-74692914D02*
X97642857Y-74883390D01*
X98261905Y-74454819D02*
X98261905Y-74692914D01*
X98023810Y-74597676D02*
X98261905Y-74692914D01*
X98261905Y-74692914D02*
X98500000Y-74597676D01*
X98119048Y-74883390D02*
X98261905Y-74692914D01*
X98261905Y-74692914D02*
X98404762Y-74883390D01*
X95666666Y-126454819D02*
X95333333Y-125978628D01*
X95095238Y-126454819D02*
X95095238Y-125454819D01*
X95095238Y-125454819D02*
X95476190Y-125454819D01*
X95476190Y-125454819D02*
X95571428Y-125502438D01*
X95571428Y-125502438D02*
X95619047Y-125550057D01*
X95619047Y-125550057D02*
X95666666Y-125645295D01*
X95666666Y-125645295D02*
X95666666Y-125788152D01*
X95666666Y-125788152D02*
X95619047Y-125883390D01*
X95619047Y-125883390D02*
X95571428Y-125931009D01*
X95571428Y-125931009D02*
X95476190Y-125978628D01*
X95476190Y-125978628D02*
X95095238Y-125978628D01*
X96095238Y-125931009D02*
X96428571Y-125931009D01*
X96571428Y-126454819D02*
X96095238Y-126454819D01*
X96095238Y-126454819D02*
X96095238Y-125454819D01*
X96095238Y-125454819D02*
X96571428Y-125454819D01*
X97333333Y-125931009D02*
X97000000Y-125931009D01*
X97000000Y-126454819D02*
X97000000Y-125454819D01*
X97000000Y-125454819D02*
X97476190Y-125454819D01*
X98000000Y-125454819D02*
X98000000Y-125692914D01*
X97761905Y-125597676D02*
X98000000Y-125692914D01*
X98000000Y-125692914D02*
X98238095Y-125597676D01*
X97857143Y-125883390D02*
X98000000Y-125692914D01*
X98000000Y-125692914D02*
X98142857Y-125883390D01*
X98761905Y-125454819D02*
X98761905Y-125692914D01*
X98523810Y-125597676D02*
X98761905Y-125692914D01*
X98761905Y-125692914D02*
X99000000Y-125597676D01*
X98619048Y-125883390D02*
X98761905Y-125692914D01*
X98761905Y-125692914D02*
X98904762Y-125883390D01*
X153333333Y-88891980D02*
X153285714Y-88939600D01*
X153285714Y-88939600D02*
X153142857Y-88987219D01*
X153142857Y-88987219D02*
X153047619Y-88987219D01*
X153047619Y-88987219D02*
X152904762Y-88939600D01*
X152904762Y-88939600D02*
X152809524Y-88844361D01*
X152809524Y-88844361D02*
X152761905Y-88749123D01*
X152761905Y-88749123D02*
X152714286Y-88558647D01*
X152714286Y-88558647D02*
X152714286Y-88415790D01*
X152714286Y-88415790D02*
X152761905Y-88225314D01*
X152761905Y-88225314D02*
X152809524Y-88130076D01*
X152809524Y-88130076D02*
X152904762Y-88034838D01*
X152904762Y-88034838D02*
X153047619Y-87987219D01*
X153047619Y-87987219D02*
X153142857Y-87987219D01*
X153142857Y-87987219D02*
X153285714Y-88034838D01*
X153285714Y-88034838D02*
X153333333Y-88082457D01*
X154285714Y-88987219D02*
X153714286Y-88987219D01*
X154000000Y-88987219D02*
X154000000Y-87987219D01*
X154000000Y-87987219D02*
X153904762Y-88130076D01*
X153904762Y-88130076D02*
X153809524Y-88225314D01*
X153809524Y-88225314D02*
X153714286Y-88272933D01*
X124279304Y-76315281D02*
X124279304Y-75505758D01*
X124279304Y-75505758D02*
X124231685Y-75410520D01*
X124231685Y-75410520D02*
X124184066Y-75362901D01*
X124184066Y-75362901D02*
X124088828Y-75315281D01*
X124088828Y-75315281D02*
X123898352Y-75315281D01*
X123898352Y-75315281D02*
X123803114Y-75362901D01*
X123803114Y-75362901D02*
X123755495Y-75410520D01*
X123755495Y-75410520D02*
X123707876Y-75505758D01*
X123707876Y-75505758D02*
X123707876Y-76315281D01*
X122755495Y-76315281D02*
X123231685Y-76315281D01*
X123231685Y-76315281D02*
X123279304Y-75839091D01*
X123279304Y-75839091D02*
X123231685Y-75886710D01*
X123231685Y-75886710D02*
X123136447Y-75934329D01*
X123136447Y-75934329D02*
X122898352Y-75934329D01*
X122898352Y-75934329D02*
X122803114Y-75886710D01*
X122803114Y-75886710D02*
X122755495Y-75839091D01*
X122755495Y-75839091D02*
X122707876Y-75743853D01*
X122707876Y-75743853D02*
X122707876Y-75505758D01*
X122707876Y-75505758D02*
X122755495Y-75410520D01*
X122755495Y-75410520D02*
X122803114Y-75362901D01*
X122803114Y-75362901D02*
X122898352Y-75315281D01*
X122898352Y-75315281D02*
X123136447Y-75315281D01*
X123136447Y-75315281D02*
X123231685Y-75362901D01*
X123231685Y-75362901D02*
X123279304Y-75410520D01*
X122980783Y-102054820D02*
X122647450Y-101578629D01*
X122409355Y-102054820D02*
X122409355Y-101054820D01*
X122409355Y-101054820D02*
X122790307Y-101054820D01*
X122790307Y-101054820D02*
X122885545Y-101102439D01*
X122885545Y-101102439D02*
X122933164Y-101150058D01*
X122933164Y-101150058D02*
X122980783Y-101245296D01*
X122980783Y-101245296D02*
X122980783Y-101388153D01*
X122980783Y-101388153D02*
X122933164Y-101483391D01*
X122933164Y-101483391D02*
X122885545Y-101531010D01*
X122885545Y-101531010D02*
X122790307Y-101578629D01*
X122790307Y-101578629D02*
X122409355Y-101578629D01*
X123314117Y-101054820D02*
X123933164Y-101054820D01*
X123933164Y-101054820D02*
X123599831Y-101435772D01*
X123599831Y-101435772D02*
X123742688Y-101435772D01*
X123742688Y-101435772D02*
X123837926Y-101483391D01*
X123837926Y-101483391D02*
X123885545Y-101531010D01*
X123885545Y-101531010D02*
X123933164Y-101626248D01*
X123933164Y-101626248D02*
X123933164Y-101864343D01*
X123933164Y-101864343D02*
X123885545Y-101959581D01*
X123885545Y-101959581D02*
X123837926Y-102007201D01*
X123837926Y-102007201D02*
X123742688Y-102054820D01*
X123742688Y-102054820D02*
X123456974Y-102054820D01*
X123456974Y-102054820D02*
X123361736Y-102007201D01*
X123361736Y-102007201D02*
X123314117Y-101959581D01*
X118144304Y-98095179D02*
X118144304Y-97285656D01*
X118144304Y-97285656D02*
X118096685Y-97190418D01*
X118096685Y-97190418D02*
X118049066Y-97142799D01*
X118049066Y-97142799D02*
X117953828Y-97095179D01*
X117953828Y-97095179D02*
X117763352Y-97095179D01*
X117763352Y-97095179D02*
X117668114Y-97142799D01*
X117668114Y-97142799D02*
X117620495Y-97190418D01*
X117620495Y-97190418D02*
X117572876Y-97285656D01*
X117572876Y-97285656D02*
X117572876Y-98095179D01*
X117191923Y-98095179D02*
X116572876Y-98095179D01*
X116572876Y-98095179D02*
X116906209Y-97714227D01*
X116906209Y-97714227D02*
X116763352Y-97714227D01*
X116763352Y-97714227D02*
X116668114Y-97666608D01*
X116668114Y-97666608D02*
X116620495Y-97618989D01*
X116620495Y-97618989D02*
X116572876Y-97523751D01*
X116572876Y-97523751D02*
X116572876Y-97285656D01*
X116572876Y-97285656D02*
X116620495Y-97190418D01*
X116620495Y-97190418D02*
X116668114Y-97142799D01*
X116668114Y-97142799D02*
X116763352Y-97095179D01*
X116763352Y-97095179D02*
X117049066Y-97095179D01*
X117049066Y-97095179D02*
X117144304Y-97142799D01*
X117144304Y-97142799D02*
X117191923Y-97190418D01*
X118754000Y-99656618D02*
X118754000Y-99894713D01*
X118515905Y-99799475D02*
X118754000Y-99894713D01*
X118754000Y-99894713D02*
X118992095Y-99799475D01*
X118611143Y-100085189D02*
X118754000Y-99894713D01*
X118754000Y-99894713D02*
X118896857Y-100085189D01*
X118753999Y-100746979D02*
X118753999Y-100508884D01*
X118992094Y-100604122D02*
X118753999Y-100508884D01*
X118753999Y-100508884D02*
X118515904Y-100604122D01*
X118896856Y-100318408D02*
X118753999Y-100508884D01*
X118753999Y-100508884D02*
X118611142Y-100318408D01*
X135364919Y-97571904D02*
X136174442Y-97571904D01*
X136174442Y-97571904D02*
X136269680Y-97524285D01*
X136269680Y-97524285D02*
X136317300Y-97476666D01*
X136317300Y-97476666D02*
X136364919Y-97381428D01*
X136364919Y-97381428D02*
X136364919Y-97190952D01*
X136364919Y-97190952D02*
X136317300Y-97095714D01*
X136317300Y-97095714D02*
X136269680Y-97048095D01*
X136269680Y-97048095D02*
X136174442Y-97000476D01*
X136174442Y-97000476D02*
X135364919Y-97000476D01*
X136364919Y-96000476D02*
X136364919Y-96571904D01*
X136364919Y-96286190D02*
X135364919Y-96286190D01*
X135364919Y-96286190D02*
X135507776Y-96381428D01*
X135507776Y-96381428D02*
X135603014Y-96476666D01*
X135603014Y-96476666D02*
X135650633Y-96571904D01*
X143454819Y-101889999D02*
X143692914Y-101889999D01*
X143597676Y-102128094D02*
X143692914Y-101889999D01*
X143692914Y-101889999D02*
X143597676Y-101651904D01*
X143883390Y-102032856D02*
X143692914Y-101889999D01*
X143692914Y-101889999D02*
X143883390Y-101747142D01*
X143454819Y-101889999D02*
X143692914Y-101889999D01*
X143597676Y-102128094D02*
X143692914Y-101889999D01*
X143692914Y-101889999D02*
X143597676Y-101651904D01*
X143883390Y-102032856D02*
X143692914Y-101889999D01*
X143692914Y-101889999D02*
X143883390Y-101747142D01*
X122980783Y-98104819D02*
X122647450Y-97628628D01*
X122409355Y-98104819D02*
X122409355Y-97104819D01*
X122409355Y-97104819D02*
X122790307Y-97104819D01*
X122790307Y-97104819D02*
X122885545Y-97152438D01*
X122885545Y-97152438D02*
X122933164Y-97200057D01*
X122933164Y-97200057D02*
X122980783Y-97295295D01*
X122980783Y-97295295D02*
X122980783Y-97438152D01*
X122980783Y-97438152D02*
X122933164Y-97533390D01*
X122933164Y-97533390D02*
X122885545Y-97581009D01*
X122885545Y-97581009D02*
X122790307Y-97628628D01*
X122790307Y-97628628D02*
X122409355Y-97628628D01*
X123837926Y-97438152D02*
X123837926Y-98104819D01*
X123599831Y-97057200D02*
X123361736Y-97771485D01*
X123361736Y-97771485D02*
X123980783Y-97771485D01*
X131761904Y-107640180D02*
X131761904Y-106830657D01*
X131761904Y-106830657D02*
X131714285Y-106735419D01*
X131714285Y-106735419D02*
X131666666Y-106687800D01*
X131666666Y-106687800D02*
X131571428Y-106640180D01*
X131571428Y-106640180D02*
X131380952Y-106640180D01*
X131380952Y-106640180D02*
X131285714Y-106687800D01*
X131285714Y-106687800D02*
X131238095Y-106735419D01*
X131238095Y-106735419D02*
X131190476Y-106830657D01*
X131190476Y-106830657D02*
X131190476Y-107640180D01*
X130761904Y-107544942D02*
X130714285Y-107592561D01*
X130714285Y-107592561D02*
X130619047Y-107640180D01*
X130619047Y-107640180D02*
X130380952Y-107640180D01*
X130380952Y-107640180D02*
X130285714Y-107592561D01*
X130285714Y-107592561D02*
X130238095Y-107544942D01*
X130238095Y-107544942D02*
X130190476Y-107449704D01*
X130190476Y-107449704D02*
X130190476Y-107354466D01*
X130190476Y-107354466D02*
X130238095Y-107211609D01*
X130238095Y-107211609D02*
X130809523Y-106640180D01*
X130809523Y-106640180D02*
X130190476Y-106640180D01*
X116954819Y-90761904D02*
X117764342Y-90761904D01*
X117764342Y-90761904D02*
X117859580Y-90714285D01*
X117859580Y-90714285D02*
X117907200Y-90666666D01*
X117907200Y-90666666D02*
X117954819Y-90571428D01*
X117954819Y-90571428D02*
X117954819Y-90380952D01*
X117954819Y-90380952D02*
X117907200Y-90285714D01*
X117907200Y-90285714D02*
X117859580Y-90238095D01*
X117859580Y-90238095D02*
X117764342Y-90190476D01*
X117764342Y-90190476D02*
X116954819Y-90190476D01*
X117288152Y-89285714D02*
X117954819Y-89285714D01*
X116907200Y-89523809D02*
X117621485Y-89761904D01*
X117621485Y-89761904D02*
X117621485Y-89142857D01*
X114404619Y-91606549D02*
X114642714Y-91606549D01*
X114547476Y-91844644D02*
X114642714Y-91606549D01*
X114642714Y-91606549D02*
X114547476Y-91368454D01*
X114833190Y-91749406D02*
X114642714Y-91606549D01*
X114642714Y-91606549D02*
X114833190Y-91463692D01*
X114404619Y-91606549D02*
X114642714Y-91606549D01*
X114547476Y-91844644D02*
X114642714Y-91606549D01*
X114642714Y-91606549D02*
X114547476Y-91368454D01*
X114833190Y-91749406D02*
X114642714Y-91606549D01*
X114642714Y-91606549D02*
X114833190Y-91463692D01*
X143019465Y-88545180D02*
X143352798Y-89021371D01*
X143590893Y-88545180D02*
X143590893Y-89545180D01*
X143590893Y-89545180D02*
X143209941Y-89545180D01*
X143209941Y-89545180D02*
X143114703Y-89497561D01*
X143114703Y-89497561D02*
X143067084Y-89449942D01*
X143067084Y-89449942D02*
X143019465Y-89354704D01*
X143019465Y-89354704D02*
X143019465Y-89211847D01*
X143019465Y-89211847D02*
X143067084Y-89116609D01*
X143067084Y-89116609D02*
X143114703Y-89068990D01*
X143114703Y-89068990D02*
X143209941Y-89021371D01*
X143209941Y-89021371D02*
X143590893Y-89021371D01*
X142638512Y-89449942D02*
X142590893Y-89497561D01*
X142590893Y-89497561D02*
X142495655Y-89545180D01*
X142495655Y-89545180D02*
X142257560Y-89545180D01*
X142257560Y-89545180D02*
X142162322Y-89497561D01*
X142162322Y-89497561D02*
X142114703Y-89449942D01*
X142114703Y-89449942D02*
X142067084Y-89354704D01*
X142067084Y-89354704D02*
X142067084Y-89259466D01*
X142067084Y-89259466D02*
X142114703Y-89116609D01*
X142114703Y-89116609D02*
X142686131Y-88545180D01*
X142686131Y-88545180D02*
X142067084Y-88545180D01*
X101166666Y-70004320D02*
X101166666Y-70718605D01*
X101166666Y-70718605D02*
X101119047Y-70861462D01*
X101119047Y-70861462D02*
X101023809Y-70956701D01*
X101023809Y-70956701D02*
X100880952Y-71004320D01*
X100880952Y-71004320D02*
X100785714Y-71004320D01*
X102166666Y-71004320D02*
X101595238Y-71004320D01*
X101880952Y-71004320D02*
X101880952Y-70004320D01*
X101880952Y-70004320D02*
X101785714Y-70147177D01*
X101785714Y-70147177D02*
X101690476Y-70242415D01*
X101690476Y-70242415D02*
X101595238Y-70290034D01*
X147666666Y-133454819D02*
X147666666Y-134169104D01*
X147666666Y-134169104D02*
X147619047Y-134311961D01*
X147619047Y-134311961D02*
X147523809Y-134407200D01*
X147523809Y-134407200D02*
X147380952Y-134454819D01*
X147380952Y-134454819D02*
X147285714Y-134454819D01*
X148047619Y-133454819D02*
X148666666Y-133454819D01*
X148666666Y-133454819D02*
X148333333Y-133835771D01*
X148333333Y-133835771D02*
X148476190Y-133835771D01*
X148476190Y-133835771D02*
X148571428Y-133883390D01*
X148571428Y-133883390D02*
X148619047Y-133931009D01*
X148619047Y-133931009D02*
X148666666Y-134026247D01*
X148666666Y-134026247D02*
X148666666Y-134264342D01*
X148666666Y-134264342D02*
X148619047Y-134359580D01*
X148619047Y-134359580D02*
X148571428Y-134407200D01*
X148571428Y-134407200D02*
X148476190Y-134454819D01*
X148476190Y-134454819D02*
X148190476Y-134454819D01*
X148190476Y-134454819D02*
X148095238Y-134407200D01*
X148095238Y-134407200D02*
X148047619Y-134359580D01*
X141528571Y-114714700D02*
X142671429Y-114714700D01*
X142100000Y-115286128D02*
X142100000Y-114143271D01*
X153828571Y-114714700D02*
X154971429Y-114714700D01*
X127916666Y-133454819D02*
X127916666Y-134169104D01*
X127916666Y-134169104D02*
X127869047Y-134311961D01*
X127869047Y-134311961D02*
X127773809Y-134407200D01*
X127773809Y-134407200D02*
X127630952Y-134454819D01*
X127630952Y-134454819D02*
X127535714Y-134454819D01*
X128345238Y-133550057D02*
X128392857Y-133502438D01*
X128392857Y-133502438D02*
X128488095Y-133454819D01*
X128488095Y-133454819D02*
X128726190Y-133454819D01*
X128726190Y-133454819D02*
X128821428Y-133502438D01*
X128821428Y-133502438D02*
X128869047Y-133550057D01*
X128869047Y-133550057D02*
X128916666Y-133645295D01*
X128916666Y-133645295D02*
X128916666Y-133740533D01*
X128916666Y-133740533D02*
X128869047Y-133883390D01*
X128869047Y-133883390D02*
X128297619Y-134454819D01*
X128297619Y-134454819D02*
X128916666Y-134454819D01*
X121778571Y-114714700D02*
X122921429Y-114714700D01*
X122350000Y-115286128D02*
X122350000Y-114143271D01*
X134078571Y-114714700D02*
X135221429Y-114714700D01*
X120357142Y-105539580D02*
X120309523Y-105587200D01*
X120309523Y-105587200D02*
X120166666Y-105634819D01*
X120166666Y-105634819D02*
X120071428Y-105634819D01*
X120071428Y-105634819D02*
X119928571Y-105587200D01*
X119928571Y-105587200D02*
X119833333Y-105491961D01*
X119833333Y-105491961D02*
X119785714Y-105396723D01*
X119785714Y-105396723D02*
X119738095Y-105206247D01*
X119738095Y-105206247D02*
X119738095Y-105063390D01*
X119738095Y-105063390D02*
X119785714Y-104872914D01*
X119785714Y-104872914D02*
X119833333Y-104777676D01*
X119833333Y-104777676D02*
X119928571Y-104682438D01*
X119928571Y-104682438D02*
X120071428Y-104634819D01*
X120071428Y-104634819D02*
X120166666Y-104634819D01*
X120166666Y-104634819D02*
X120309523Y-104682438D01*
X120309523Y-104682438D02*
X120357142Y-104730057D01*
X121309523Y-105634819D02*
X120738095Y-105634819D01*
X121023809Y-105634819D02*
X121023809Y-104634819D01*
X121023809Y-104634819D02*
X120928571Y-104777676D01*
X120928571Y-104777676D02*
X120833333Y-104872914D01*
X120833333Y-104872914D02*
X120738095Y-104920533D01*
X122261904Y-105634819D02*
X121690476Y-105634819D01*
X121976190Y-105634819D02*
X121976190Y-104634819D01*
X121976190Y-104634819D02*
X121880952Y-104777676D01*
X121880952Y-104777676D02*
X121785714Y-104872914D01*
X121785714Y-104872914D02*
X121690476Y-104920533D01*
X146066666Y-60604819D02*
X146066666Y-61319104D01*
X146066666Y-61319104D02*
X146019047Y-61461961D01*
X146019047Y-61461961D02*
X145923809Y-61557200D01*
X145923809Y-61557200D02*
X145780952Y-61604819D01*
X145780952Y-61604819D02*
X145685714Y-61604819D01*
X147019047Y-60604819D02*
X146542857Y-60604819D01*
X146542857Y-60604819D02*
X146495238Y-61081009D01*
X146495238Y-61081009D02*
X146542857Y-61033390D01*
X146542857Y-61033390D02*
X146638095Y-60985771D01*
X146638095Y-60985771D02*
X146876190Y-60985771D01*
X146876190Y-60985771D02*
X146971428Y-61033390D01*
X146971428Y-61033390D02*
X147019047Y-61081009D01*
X147019047Y-61081009D02*
X147066666Y-61176247D01*
X147066666Y-61176247D02*
X147066666Y-61414342D01*
X147066666Y-61414342D02*
X147019047Y-61509580D01*
X147019047Y-61509580D02*
X146971428Y-61557200D01*
X146971428Y-61557200D02*
X146876190Y-61604819D01*
X146876190Y-61604819D02*
X146638095Y-61604819D01*
X146638095Y-61604819D02*
X146542857Y-61557200D01*
X146542857Y-61557200D02*
X146495238Y-61509580D01*
X151728571Y-80664700D02*
X152871429Y-80664700D01*
X152300000Y-81236128D02*
X152300000Y-80093271D01*
X139428571Y-80664700D02*
X140571429Y-80664700D01*
X120357142Y-110539580D02*
X120309523Y-110587200D01*
X120309523Y-110587200D02*
X120166666Y-110634819D01*
X120166666Y-110634819D02*
X120071428Y-110634819D01*
X120071428Y-110634819D02*
X119928571Y-110587200D01*
X119928571Y-110587200D02*
X119833333Y-110491961D01*
X119833333Y-110491961D02*
X119785714Y-110396723D01*
X119785714Y-110396723D02*
X119738095Y-110206247D01*
X119738095Y-110206247D02*
X119738095Y-110063390D01*
X119738095Y-110063390D02*
X119785714Y-109872914D01*
X119785714Y-109872914D02*
X119833333Y-109777676D01*
X119833333Y-109777676D02*
X119928571Y-109682438D01*
X119928571Y-109682438D02*
X120071428Y-109634819D01*
X120071428Y-109634819D02*
X120166666Y-109634819D01*
X120166666Y-109634819D02*
X120309523Y-109682438D01*
X120309523Y-109682438D02*
X120357142Y-109730057D01*
X121309523Y-110634819D02*
X120738095Y-110634819D01*
X121023809Y-110634819D02*
X121023809Y-109634819D01*
X121023809Y-109634819D02*
X120928571Y-109777676D01*
X120928571Y-109777676D02*
X120833333Y-109872914D01*
X120833333Y-109872914D02*
X120738095Y-109920533D01*
X121928571Y-109634819D02*
X122023809Y-109634819D01*
X122023809Y-109634819D02*
X122119047Y-109682438D01*
X122119047Y-109682438D02*
X122166666Y-109730057D01*
X122166666Y-109730057D02*
X122214285Y-109825295D01*
X122214285Y-109825295D02*
X122261904Y-110015771D01*
X122261904Y-110015771D02*
X122261904Y-110253866D01*
X122261904Y-110253866D02*
X122214285Y-110444342D01*
X122214285Y-110444342D02*
X122166666Y-110539580D01*
X122166666Y-110539580D02*
X122119047Y-110587200D01*
X122119047Y-110587200D02*
X122023809Y-110634819D01*
X122023809Y-110634819D02*
X121928571Y-110634819D01*
X121928571Y-110634819D02*
X121833333Y-110587200D01*
X121833333Y-110587200D02*
X121785714Y-110539580D01*
X121785714Y-110539580D02*
X121738095Y-110444342D01*
X121738095Y-110444342D02*
X121690476Y-110253866D01*
X121690476Y-110253866D02*
X121690476Y-110015771D01*
X121690476Y-110015771D02*
X121738095Y-109825295D01*
X121738095Y-109825295D02*
X121785714Y-109730057D01*
X121785714Y-109730057D02*
X121833333Y-109682438D01*
X121833333Y-109682438D02*
X121928571Y-109634819D01*
X153333333Y-105827180D02*
X153285714Y-105874800D01*
X153285714Y-105874800D02*
X153142857Y-105922419D01*
X153142857Y-105922419D02*
X153047619Y-105922419D01*
X153047619Y-105922419D02*
X152904762Y-105874800D01*
X152904762Y-105874800D02*
X152809524Y-105779561D01*
X152809524Y-105779561D02*
X152761905Y-105684323D01*
X152761905Y-105684323D02*
X152714286Y-105493847D01*
X152714286Y-105493847D02*
X152714286Y-105350990D01*
X152714286Y-105350990D02*
X152761905Y-105160514D01*
X152761905Y-105160514D02*
X152809524Y-105065276D01*
X152809524Y-105065276D02*
X152904762Y-104970038D01*
X152904762Y-104970038D02*
X153047619Y-104922419D01*
X153047619Y-104922419D02*
X153142857Y-104922419D01*
X153142857Y-104922419D02*
X153285714Y-104970038D01*
X153285714Y-104970038D02*
X153333333Y-105017657D01*
X153666667Y-104922419D02*
X154285714Y-104922419D01*
X154285714Y-104922419D02*
X153952381Y-105303371D01*
X153952381Y-105303371D02*
X154095238Y-105303371D01*
X154095238Y-105303371D02*
X154190476Y-105350990D01*
X154190476Y-105350990D02*
X154238095Y-105398609D01*
X154238095Y-105398609D02*
X154285714Y-105493847D01*
X154285714Y-105493847D02*
X154285714Y-105731942D01*
X154285714Y-105731942D02*
X154238095Y-105827180D01*
X154238095Y-105827180D02*
X154190476Y-105874800D01*
X154190476Y-105874800D02*
X154095238Y-105922419D01*
X154095238Y-105922419D02*
X153809524Y-105922419D01*
X153809524Y-105922419D02*
X153714286Y-105874800D01*
X153714286Y-105874800D02*
X153666667Y-105827180D01*
X153333333Y-97359580D02*
X153285714Y-97407200D01*
X153285714Y-97407200D02*
X153142857Y-97454819D01*
X153142857Y-97454819D02*
X153047619Y-97454819D01*
X153047619Y-97454819D02*
X152904762Y-97407200D01*
X152904762Y-97407200D02*
X152809524Y-97311961D01*
X152809524Y-97311961D02*
X152761905Y-97216723D01*
X152761905Y-97216723D02*
X152714286Y-97026247D01*
X152714286Y-97026247D02*
X152714286Y-96883390D01*
X152714286Y-96883390D02*
X152761905Y-96692914D01*
X152761905Y-96692914D02*
X152809524Y-96597676D01*
X152809524Y-96597676D02*
X152904762Y-96502438D01*
X152904762Y-96502438D02*
X153047619Y-96454819D01*
X153047619Y-96454819D02*
X153142857Y-96454819D01*
X153142857Y-96454819D02*
X153285714Y-96502438D01*
X153285714Y-96502438D02*
X153333333Y-96550057D01*
X153714286Y-96550057D02*
X153761905Y-96502438D01*
X153761905Y-96502438D02*
X153857143Y-96454819D01*
X153857143Y-96454819D02*
X154095238Y-96454819D01*
X154095238Y-96454819D02*
X154190476Y-96502438D01*
X154190476Y-96502438D02*
X154238095Y-96550057D01*
X154238095Y-96550057D02*
X154285714Y-96645295D01*
X154285714Y-96645295D02*
X154285714Y-96740533D01*
X154285714Y-96740533D02*
X154238095Y-96883390D01*
X154238095Y-96883390D02*
X153666667Y-97454819D01*
X153666667Y-97454819D02*
X154285714Y-97454819D01*
X142686132Y-86454819D02*
X142352799Y-85978628D01*
X142114704Y-86454819D02*
X142114704Y-85454819D01*
X142114704Y-85454819D02*
X142495656Y-85454819D01*
X142495656Y-85454819D02*
X142590894Y-85502438D01*
X142590894Y-85502438D02*
X142638513Y-85550057D01*
X142638513Y-85550057D02*
X142686132Y-85645295D01*
X142686132Y-85645295D02*
X142686132Y-85788152D01*
X142686132Y-85788152D02*
X142638513Y-85883390D01*
X142638513Y-85883390D02*
X142590894Y-85931009D01*
X142590894Y-85931009D02*
X142495656Y-85978628D01*
X142495656Y-85978628D02*
X142114704Y-85978628D01*
X143638513Y-86454819D02*
X143067085Y-86454819D01*
X143352799Y-86454819D02*
X143352799Y-85454819D01*
X143352799Y-85454819D02*
X143257561Y-85597676D01*
X143257561Y-85597676D02*
X143162323Y-85692914D01*
X143162323Y-85692914D02*
X143067085Y-85740533D01*
D11*
%TO.C,C1*%
X148508900Y-88532400D02*
X147746900Y-88532400D01*
X148127900Y-88151400D02*
X148127900Y-88913400D01*
X149969400Y-92063000D02*
X157030600Y-92063000D01*
X157030600Y-92063000D02*
X157030600Y-89474740D01*
X157030600Y-85001800D02*
X149969400Y-85001800D01*
X149969400Y-85001800D02*
X149969400Y-87590060D01*
X149969400Y-89474740D02*
X149969400Y-92063000D01*
X157030600Y-87590060D02*
X157030600Y-85001800D01*
D12*
%TO.C,U5*%
X132522538Y-75419812D02*
G75*
G02*
X132522538Y-76120390I149861J-350289D01*
G01*
D11*
X130894398Y-61893100D02*
X116140401Y-61893100D01*
X116140401Y-61893100D02*
X116140401Y-70665869D01*
X117844742Y-75947101D02*
X119740161Y-75947101D01*
X130894398Y-70665869D02*
X130894398Y-61893100D01*
X127294639Y-75947101D02*
X129190058Y-75947101D01*
X125294640Y-75947101D02*
X125740159Y-75947101D01*
X123294639Y-75947101D02*
X123740160Y-75947101D01*
X121294641Y-75947101D02*
X121740159Y-75947101D01*
D13*
%TO.C,R3*%
X123374514Y-100685001D02*
X122920386Y-100685001D01*
X123374514Y-99215001D02*
X122920386Y-99215001D01*
D11*
%TO.C,U3*%
X117608716Y-96025999D02*
X117156084Y-96025999D01*
X117156084Y-99073999D02*
X117608716Y-99073999D01*
%TO.C,U1*%
X141574300Y-100988300D02*
X142310900Y-100988300D01*
X141574300Y-99718300D02*
X142310900Y-99718300D01*
X141574300Y-98448300D02*
X142310900Y-98448300D01*
X141574300Y-97178300D02*
X142310900Y-97178300D01*
X141574300Y-95908300D02*
X142310900Y-95908300D01*
X141574300Y-94638300D02*
X142310900Y-94638300D01*
X141574300Y-93368300D02*
X142310900Y-93368300D01*
X141574300Y-100251700D02*
X142310900Y-100251700D01*
X141574300Y-98981700D02*
X142310900Y-98981700D01*
X141574300Y-97711700D02*
X142310900Y-97711700D01*
X141574300Y-96441700D02*
X142310900Y-96441700D01*
X141574300Y-95171700D02*
X142310900Y-95171700D01*
X141574300Y-93901700D02*
X142310900Y-93901700D01*
X141574300Y-92631700D02*
X142310900Y-92631700D01*
D13*
%TO.C,R4*%
X123374514Y-96735000D02*
X122920386Y-96735000D01*
X123374514Y-95265000D02*
X122920386Y-95265000D01*
D11*
%TO.C,U2*%
X133120900Y-104466100D02*
X128879100Y-104466100D01*
X128879100Y-104466100D02*
X128879100Y-109723900D01*
X128879100Y-109723900D02*
X133120900Y-109723900D01*
X133120900Y-109723900D02*
X133120900Y-104466100D01*
%TO.C,U4*%
X119176400Y-90977900D02*
X119176400Y-89022100D01*
X119176400Y-89022100D02*
X119011341Y-89022100D01*
X115823600Y-89022100D02*
X115823600Y-90977900D01*
X115823600Y-90977900D02*
X115988659Y-90977900D01*
X119011341Y-90977900D02*
X119176400Y-90977900D01*
X115988659Y-89022100D02*
X115823600Y-89022100D01*
D12*
%TO.C,J1*%
X110148700Y-70549501D02*
G75*
G02*
X109386700Y-70549501I-381000J0D01*
G01*
X109386700Y-70549501D02*
G75*
G02*
X110148700Y-70549501I381000J0D01*
G01*
D11*
X93867300Y-70127500D02*
X96769560Y-70127500D01*
X109132700Y-70127500D02*
X109132700Y-66048041D01*
X107215559Y-61872500D02*
X95784441Y-61872500D01*
X93867300Y-66048041D02*
X93867300Y-70127500D01*
X106230440Y-70127500D02*
X109132700Y-70127500D01*
X103730440Y-70127500D02*
X104269560Y-70127500D01*
X101230440Y-70127500D02*
X101769560Y-70127500D01*
X98730440Y-70127500D02*
X99269560Y-70127500D01*
D13*
%TO.C,J3*%
X155860000Y-132960000D02*
X155860000Y-118650000D01*
X155860000Y-132960000D02*
X140140000Y-132960000D01*
X154310000Y-115440000D02*
X153910000Y-115440000D01*
X149290000Y-115440000D02*
X146500000Y-115440000D01*
X142350000Y-115440000D02*
X141680000Y-115440000D01*
X140140000Y-132960000D02*
X140140000Y-118650000D01*
X154318715Y-115441605D02*
G75*
G02*
X155860000Y-118650000I-2568716J-3208396D01*
G01*
X140140000Y-118650000D02*
G75*
G02*
X141680253Y-115442431I4110000J0D01*
G01*
%TO.C,J2*%
X136110000Y-132960000D02*
X136110000Y-118650000D01*
X136110000Y-132960000D02*
X120390000Y-132960000D01*
X134560000Y-115440000D02*
X134160000Y-115440000D01*
X129540000Y-115440000D02*
X126750000Y-115440000D01*
X122600000Y-115440000D02*
X121930000Y-115440000D01*
X120390000Y-132960000D02*
X120390000Y-118650000D01*
X134568715Y-115441605D02*
G75*
G02*
X136110000Y-118650000I-2568716J-3208396D01*
G01*
X120390000Y-118650000D02*
G75*
G02*
X121930253Y-115442431I4110000J0D01*
G01*
%TO.C,C11*%
X121261252Y-102765000D02*
X120738748Y-102765000D01*
X121261252Y-104235000D02*
X120738748Y-104235000D01*
%TO.C,J5*%
X138540000Y-62190000D02*
X138540000Y-76500000D01*
X138540000Y-62190000D02*
X154260000Y-62190000D01*
X140090000Y-79710000D02*
X140490000Y-79710000D01*
X145110000Y-79710000D02*
X147900000Y-79710000D01*
X152050000Y-79710000D02*
X152720000Y-79710000D01*
X154260000Y-62190000D02*
X154260000Y-76500000D01*
X140081285Y-79708395D02*
G75*
G02*
X138540000Y-76500000I2568716J3208396D01*
G01*
X154260000Y-76500000D02*
G75*
G02*
X152719747Y-79707569I-4110000J0D01*
G01*
%TO.C,C10*%
X121261252Y-109235000D02*
X120738748Y-109235000D01*
X121261252Y-107765000D02*
X120738748Y-107765000D01*
D11*
%TO.C,C3*%
X148508900Y-105467600D02*
X147746900Y-105467600D01*
X148127900Y-105086600D02*
X148127900Y-105848600D01*
X149969400Y-108998200D02*
X157030600Y-108998200D01*
X157030600Y-108998200D02*
X157030600Y-106409940D01*
X157030600Y-101937000D02*
X149969400Y-101937000D01*
X149969400Y-101937000D02*
X149969400Y-104525260D01*
X149969400Y-106409940D02*
X149969400Y-108998200D01*
X157030600Y-104525260D02*
X157030600Y-101937000D01*
%TO.C,C2*%
X148508900Y-97000000D02*
X147746900Y-97000000D01*
X148127900Y-96619000D02*
X148127900Y-97381000D01*
X149969400Y-100530600D02*
X157030600Y-100530600D01*
X157030600Y-100530600D02*
X157030600Y-97942340D01*
X157030600Y-93469400D02*
X149969400Y-93469400D01*
X149969400Y-93469400D02*
X149969400Y-96057660D01*
X149969400Y-97942340D02*
X149969400Y-100530600D01*
X157030600Y-96057660D02*
X157030600Y-93469400D01*
%TD*%
M02*
