M48
; DRILL file {KiCad 8.0.6} date 2025-03-28T18:47:01-0400
; FORMAT={-:-/ absolute / metric / decimal}
; #@! TF.CreationDate,2025-03-28T18:47:01-04:00
; #@! TF.GenerationSoftware,Kicad,Pcbnew,8.0.6
; #@! TF.FileFunction,Plated,1,2,PTH
FMAT,2
METRIC
; #@! TA.AperFunction,Plated,PTH,ViaDrill
T1C0.300
; #@! TA.AperFunction,Plated,PTH,ViaDrill
T2C0.600
; #@! TA.AperFunction,Plated,PTH,ComponentDrill
T3C0.600
; #@! TA.AperFunction,Plated,PTH,ViaDrill
T4C0.800
; #@! TA.AperFunction,Plated,PTH,ComponentDrill
T5C1.000
; #@! TA.AperFunction,Plated,PTH,ComponentDrill
T6C1.295
; #@! TA.AperFunction,Plated,PTH,ComponentDrill
T7C2.700
%
G90
G05
T1
X102.75Y-70.55
X115.0Y-105.0
X115.5Y-93.0
X116.55Y-88.647
X117.5Y-88.647
X118.45Y-91.353
X118.5Y-97.55
X120.517Y-75.77
X122.147Y-96.0
X127.325Y-107.73
X142.0Y-89.0
X144.0Y-95.54
T2
X120.0Y-83.5
X131.5Y-92.5
X131.5Y-93.5
X131.5Y-94.5
X131.5Y-95.5
X131.5Y-96.5
X131.5Y-97.5
X131.5Y-98.5
X131.5Y-99.5
X131.5Y-100.5
X131.5Y-101.5
X132.5Y-92.5
X132.5Y-93.5
X132.5Y-94.5
X132.5Y-95.5
X132.5Y-96.5
X132.5Y-97.5
X132.5Y-98.5
X132.5Y-99.5
X132.5Y-100.5
X132.5Y-101.5
X133.5Y-92.5
X133.5Y-93.5
X133.5Y-94.5
X133.5Y-95.5
X133.5Y-96.5
X133.5Y-97.5
X133.5Y-98.5
X133.5Y-99.5
X133.5Y-100.5
X133.5Y-101.5
X134.5Y-92.5
X134.5Y-93.5
X134.5Y-94.5
X134.5Y-95.5
X134.5Y-96.5
X134.5Y-97.5
X134.5Y-98.5
X134.5Y-99.5
X134.5Y-100.5
X134.5Y-101.5
X135.5Y-92.5
X135.5Y-93.5
X135.5Y-94.5
X135.5Y-95.5
X135.5Y-96.5
X135.5Y-97.5
X135.5Y-98.5
X135.5Y-99.5
X135.5Y-100.5
X135.5Y-101.5
X136.5Y-92.5
X136.5Y-93.5
X136.5Y-94.5
X136.5Y-95.5
X136.5Y-96.5
X136.5Y-97.5
X136.5Y-98.5
X136.5Y-99.5
X136.5Y-100.5
X136.5Y-101.5
X137.5Y-92.5
X137.5Y-93.5
X137.5Y-94.5
X137.5Y-95.5
X137.5Y-96.5
X137.5Y-97.5
X137.5Y-98.5
X137.5Y-99.5
X137.5Y-100.5
X137.5Y-101.5
X138.5Y-92.5
X138.5Y-93.5
X138.5Y-94.5
X138.5Y-95.5
X138.5Y-96.5
X138.5Y-97.5
X138.5Y-98.5
X138.5Y-99.5
X138.5Y-100.5
X138.5Y-101.5
X139.5Y-92.5
X139.5Y-93.5
X139.5Y-94.5
X139.5Y-95.5
X139.5Y-96.5
X139.5Y-97.5
X139.5Y-98.5
X139.5Y-99.5
X139.5Y-100.5
X139.5Y-101.5
X140.5Y-92.5
X140.5Y-93.5
X140.5Y-94.5
X140.5Y-95.5
X140.5Y-96.5
X140.5Y-97.5
X140.5Y-98.5
X140.5Y-99.5
X140.5Y-100.5
X140.5Y-101.5
T4
X97.75Y-70.55
X117.5Y-91.353
X119.962Y-103.5
X119.962Y-108.5
X127.325Y-105.19
X143.706Y-86.0
X144.0Y-96.81
X156.256Y-88.532
X156.256Y-97.0
X156.256Y-105.468
T6
X121.017Y-71.57
X126.017Y-71.57
T7
X124.65Y-116.5
X131.85Y-116.5
X142.8Y-78.65
X144.4Y-116.5
X150.0Y-78.65
X151.6Y-116.5
T3
X121.5Y-123.05G85X121.5Y-121.95
G05
X135.0Y-123.05G85X135.0Y-121.95
G05
X139.65Y-72.1G85X139.65Y-73.2
G05
X141.25Y-123.05G85X141.25Y-121.95
G05
X153.15Y-72.1G85X153.15Y-73.2
G05
X154.75Y-123.05G85X154.75Y-121.95
G05
T5
X128.75Y-120.15G85X127.75Y-120.15
G05
X145.9Y-75.0G85X146.9Y-75.0
G05
X148.5Y-120.15G85X147.5Y-120.15
G05
M30
