M48
; DRILL file {KiCad 8.0.6} date 2025-02-22T22:45:09-0500
; FORMAT={-:-/ absolute / metric / decimal}
; #@! TF.CreationDate,2025-02-22T22:45:09-05:00
; #@! TF.GenerationSoftware,Kicad,Pcbnew,8.0.6
; #@! TF.FileFunction,Plated,1,2,PTH
FMAT,2
METRIC
; #@! TA.AperFunction,Plated,PTH,ViaDrill
T1C0.300
; #@! TA.AperFunction,Plated,PTH,ComponentDrill
T2C0.600
; #@! TA.AperFunction,Plated,PTH,ComponentDrill
T3C1.000
; #@! TA.AperFunction,Plated,PTH,ComponentDrill
T4C1.295
; #@! TA.AperFunction,Plated,PTH,ComponentDrill
T5C2.700
%
G90
G05
T1
X122.925Y-76.0
X122.925Y-80.0
X128.325Y-76.095
X128.325Y-78.635
X131.75Y-68.5
X132.5Y-84.0
X132.5Y-85.0
X132.5Y-86.0
X132.5Y-87.0
X132.5Y-88.0
X132.5Y-89.0
X132.5Y-90.0
X132.5Y-91.0
X132.5Y-92.0
X133.0Y-81.0
X133.5Y-84.0
X133.5Y-85.0
X133.5Y-86.0
X133.5Y-87.0
X133.5Y-88.0
X133.5Y-89.0
X133.5Y-90.0
X133.5Y-91.0
X133.5Y-92.0
X134.0Y-70.05
X134.0Y-71.0
X134.5Y-66.0
X134.5Y-84.0
X134.5Y-85.0
X134.5Y-86.0
X134.5Y-87.0
X134.5Y-88.0
X134.5Y-89.0
X134.5Y-90.0
X134.5Y-91.0
X134.5Y-92.0
X135.5Y-84.0
X135.5Y-85.0
X135.5Y-86.0
X135.5Y-87.0
X135.5Y-88.0
X135.5Y-89.0
X135.5Y-90.0
X135.5Y-91.0
X135.5Y-92.0
X136.0Y-97.5
X136.5Y-84.0
X136.5Y-85.0
X136.5Y-86.0
X136.5Y-87.0
X136.5Y-88.0
X136.5Y-89.0
X136.5Y-90.0
X136.5Y-91.0
X136.5Y-92.0
X137.5Y-73.0
X137.5Y-84.0
X137.5Y-85.0
X137.5Y-86.0
X137.5Y-87.0
X137.5Y-88.0
X137.5Y-89.0
X137.5Y-90.0
X137.5Y-91.0
X137.5Y-92.0
X138.5Y-71.0
X138.5Y-84.0
X138.5Y-85.0
X138.5Y-86.0
X138.5Y-87.0
X138.5Y-88.0
X138.5Y-89.0
X138.5Y-90.0
X138.5Y-91.0
X138.5Y-92.0
X139.5Y-84.0
X139.5Y-85.0
X139.5Y-86.0
X139.5Y-87.0
X139.5Y-88.0
X139.5Y-89.0
X139.5Y-90.0
X139.5Y-91.0
X139.5Y-92.0
X140.5Y-84.0
X140.5Y-85.0
X140.5Y-86.0
X140.5Y-87.0
X140.5Y-88.0
X140.5Y-89.0
X140.5Y-90.0
X140.5Y-91.0
X140.5Y-92.0
X141.5Y-72.5
X141.882Y-78.95
X142.0Y-73.5
X144.118Y-77.95
X145.0Y-81.5
X145.0Y-91.62
X147.5Y-82.5
X149.118Y-76.0
X151.5Y-93.5
X161.5Y-75.5
T4
X136.5Y-101.7
X141.5Y-101.7
T5
X113.4Y-69.15
X120.6Y-69.15
X125.65Y-87.9
X125.65Y-95.1
X150.9Y-69.15
X158.1Y-69.15
T2
X110.25Y-62.6G85X110.25Y-63.7
G05
X119.1Y-84.75G85X120.2Y-84.75
G05
X119.1Y-98.25G85X120.2Y-98.25
G05
X123.75Y-62.6G85X123.75Y-63.7
G05
X147.75Y-62.6G85X147.75Y-63.7
G05
X161.25Y-62.6G85X161.25Y-63.7
G05
T3
X116.5Y-65.5G85X117.5Y-65.5
G05
X122.0Y-92.0G85X122.0Y-91.0
G05
X154.0Y-65.5G85X155.0Y-65.5
G05
M30
