%TF.GenerationSoftware,KiCad,Pcbnew,8.0.6*%
%TF.CreationDate,2025-02-02T12:33:11-05:00*%
%TF.ProjectId,Electrical schematic,456c6563-7472-4696-9361-6c2073636865,rev?*%
%TF.SameCoordinates,Original*%
%TF.FileFunction,Copper,L2,Bot*%
%TF.FilePolarity,Positive*%
%FSLAX46Y46*%
G04 Gerber Fmt 4.6, Leading zero omitted, Abs format (unit mm)*
G04 Created by KiCad (PCBNEW 8.0.6) date 2025-02-02 12:33:11*
%MOMM*%
%LPD*%
G01*
G04 APERTURE LIST*
G04 Aperture macros list*
%AMRoundRect*
0 Rectangle with rounded corners*
0 $1 Rounding radius*
0 $2 $3 $4 $5 $6 $7 $8 $9 X,Y pos of 4 corners*
0 Add a 4 corners polygon primitive as box body*
4,1,4,$2,$3,$4,$5,$6,$7,$8,$9,$2,$3,0*
0 Add four circle primitives for the rounded corners*
1,1,$1+$1,$2,$3*
1,1,$1+$1,$4,$5*
1,1,$1+$1,$6,$7*
1,1,$1+$1,$8,$9*
0 Add four rect primitives between the rounded corners*
20,1,$1+$1,$2,$3,$4,$5,0*
20,1,$1+$1,$4,$5,$6,$7,0*
20,1,$1+$1,$6,$7,$8,$9,0*
20,1,$1+$1,$8,$9,$2,$3,0*%
G04 Aperture macros list end*
%TA.AperFunction,ComponentPad*%
%ADD10R,2.000000X0.900000*%
%TD*%
%TA.AperFunction,ComponentPad*%
%ADD11RoundRect,1.025000X1.025000X-1.025000X1.025000X1.025000X-1.025000X1.025000X-1.025000X-1.025000X0*%
%TD*%
%TA.AperFunction,ComponentPad*%
%ADD12C,4.100000*%
%TD*%
%TA.AperFunction,ComponentPad*%
%ADD13R,1.300000X2.300000*%
%TD*%
%TA.AperFunction,ComponentPad*%
%ADD14R,2.300000X1.300000*%
%TD*%
%TA.AperFunction,ComponentPad*%
%ADD15RoundRect,1.025000X1.025000X1.025000X-1.025000X1.025000X-1.025000X-1.025000X1.025000X-1.025000X0*%
%TD*%
%TA.AperFunction,ComponentPad*%
%ADD16R,0.900000X2.000000*%
%TD*%
%TA.AperFunction,ViaPad*%
%ADD17C,0.600000*%
%TD*%
%TA.AperFunction,Conductor*%
%ADD18C,0.400000*%
%TD*%
%TA.AperFunction,Conductor*%
%ADD19C,0.800000*%
%TD*%
%TA.AperFunction,Conductor*%
%ADD20C,0.200000*%
%TD*%
G04 APERTURE END LIST*
D10*
%TO.P,J5,*%
%TO.N,*%
X117000000Y-93500000D03*
X117000000Y-80000000D03*
D11*
%TO.P,J5,1,+*%
%TO.N,/Buck Converter/Vout (5V 5A)*%
X123000000Y-90350000D03*
D12*
%TO.P,J5,2,-*%
%TO.N,GND*%
X123000000Y-83150000D03*
D13*
%TO.P,J5,3*%
%TO.N,N/C*%
X119350000Y-86750000D03*
%TD*%
D14*
%TO.P,J2,3*%
%TO.N,N/C*%
X160000000Y-133500000D03*
D12*
%TO.P,J2,2,-*%
%TO.N,GND*%
X156400000Y-129850000D03*
D15*
%TO.P,J2,1,+*%
%TO.N,/Current Sensor/CURRENT IN*%
X163600000Y-129850000D03*
D16*
%TO.P,J2,*%
%TO.N,*%
X153250000Y-135850000D03*
X166750000Y-135850000D03*
%TD*%
D10*
%TO.P,J3,*%
%TO.N,*%
X117150000Y-119750000D03*
X117150000Y-106250000D03*
D11*
%TO.P,J3,1,+*%
%TO.N,/Buck Converter/Vin (12V)*%
X123150000Y-116600000D03*
D12*
%TO.P,J3,2,-*%
%TO.N,GND*%
X123150000Y-109400000D03*
D13*
%TO.P,J3,3*%
%TO.N,N/C*%
X119500000Y-113000000D03*
%TD*%
D17*
%TO.N,GND*%
X138250000Y-93000000D03*
X137000000Y-99000000D03*
X163813800Y-100190000D03*
X158000000Y-92000000D03*
X163813800Y-119190000D03*
X129000000Y-88000000D03*
X133000000Y-97500000D03*
X156400000Y-129850000D03*
X143000000Y-100000000D03*
%TO.N,/Buck Converter/Vout (5V 5A)*%
X147000000Y-91000000D03*
X147057900Y-107190000D03*
X136000000Y-125000000D03*
X132000000Y-91000000D03*
%TO.N,/Current Sensor/VOLTAGE OUT (of reading)*%
X153000000Y-100000000D03*
X138325001Y-123635000D03*
%TD*%
D18*
%TO.N,GND*%
X140000000Y-95190000D02*
X139190000Y-95190000D01*
X139190000Y-95190000D02*
X138250000Y-94250000D01*
X147000000Y-95190000D02*
X158810000Y-95190000D01*
X137690000Y-98310000D02*
X137000000Y-99000000D01*
X140190000Y-95190000D02*
X140000000Y-95190000D01*
X156400000Y-126603800D02*
X163813800Y-119190000D01*
X158000000Y-94380000D02*
X158810000Y-95190000D01*
X137690000Y-97500000D02*
X137690000Y-98310000D01*
X158810000Y-95190000D02*
X158813800Y-95190000D01*
X138250000Y-94250000D02*
X138250000Y-93000000D01*
X140000000Y-95190000D02*
X144000000Y-95190000D01*
X143000000Y-100000000D02*
X142000000Y-99000000D01*
X142000000Y-97000000D02*
X140190000Y-95190000D01*
X137690000Y-97500000D02*
X133000000Y-97500000D01*
X138000000Y-94000000D02*
X132000000Y-94000000D01*
X158000000Y-92000000D02*
X158000000Y-94380000D01*
X156400000Y-129850000D02*
X156400000Y-126603800D01*
X129000000Y-91000000D02*
X129000000Y-88000000D01*
X144000000Y-95190000D02*
X147000000Y-95190000D01*
X163813800Y-119190000D02*
X163810000Y-119190000D01*
X139095000Y-96095000D02*
X137690000Y-97500000D01*
X158813800Y-95190000D02*
X163813800Y-100190000D01*
X140000000Y-95190000D02*
X139095000Y-96095000D01*
X138250000Y-94250000D02*
X138000000Y-94000000D01*
X142000000Y-99000000D02*
X142000000Y-97000000D01*
X132000000Y-94000000D02*
X129000000Y-91000000D01*
D19*
%TO.N,/Buck Converter/Vout (5V 5A)*%
X147000000Y-91000000D02*
X132000000Y-91000000D01*
X136000000Y-125000000D02*
X136000000Y-118247900D01*
X136000000Y-118247900D02*
X147057900Y-107190000D01*
D20*
%TO.N,/Current Sensor/VOLTAGE OUT (of reading)*%
X153500000Y-108500000D02*
X153500000Y-100500000D01*
X153500000Y-100500000D02*
X153000000Y-100000000D01*
X138325001Y-123635000D02*
X138365000Y-123635000D01*
X138365000Y-123635000D02*
X153500000Y-108500000D01*
%TD*%
M02*
