%TF.GenerationSoftware,KiCad,Pcbnew,8.0.6*%
%TF.CreationDate,2025-02-02T12:33:11-05:00*%
%TF.ProjectId,Electrical schematic,456c6563-7472-4696-9361-6c2073636865,rev?*%
%TF.SameCoordinates,Original*%
%TF.FileFunction,Soldermask,Top*%
%TF.FilePolarity,Negative*%
%FSLAX46Y46*%
G04 Gerber Fmt 4.6, Leading zero omitted, Abs format (unit mm)*
G04 Created by KiCad (PCBNEW 8.0.6) date 2025-02-02 12:33:11*
%MOMM*%
%LPD*%
G01*
G04 APERTURE LIST*
G04 Aperture macros list*
%AMRoundRect*
0 Rectangle with rounded corners*
0 $1 Rounding radius*
0 $2 $3 $4 $5 $6 $7 $8 $9 X,Y pos of 4 corners*
0 Add a 4 corners polygon primitive as box body*
4,1,4,$2,$3,$4,$5,$6,$7,$8,$9,$2,$3,0*
0 Add four circle primitives for the rounded corners*
1,1,$1+$1,$2,$3*
1,1,$1+$1,$4,$5*
1,1,$1+$1,$6,$7*
1,1,$1+$1,$8,$9*
0 Add four rect primitives between the rounded corners*
20,1,$1+$1,$2,$3,$4,$5,0*
20,1,$1+$1,$4,$5,$6,$7,0*
20,1,$1+$1,$6,$7,$8,$9,0*
20,1,$1+$1,$8,$9,$2,$3,0*%
G04 Aperture macros list end*
%ADD10C,3.200000*%
%ADD11R,1.005599X1.199998*%
%ADD12RoundRect,0.250000X0.337500X0.475000X-0.337500X0.475000X-0.337500X-0.475000X0.337500X-0.475000X0*%
%ADD13R,1.295400X4.495800*%
%ADD14R,1.803400X3.911600*%
%ADD15R,2.997200X1.219200*%
%ADD16R,2.667000X0.787400*%
%ADD17R,10.414000X10.414000*%
%ADD18R,1.752600X0.660400*%
%ADD19O,1.752600X0.660400*%
%ADD20R,2.413000X3.302000*%
%ADD21RoundRect,0.098000X-0.609000X-0.294000X0.609000X-0.294000X0.609000X0.294000X-0.609000X0.294000X0*%
%ADD22O,1.092200X1.701800*%
%ADD23R,0.711200X1.193800*%
%ADD24R,0.762000X1.193800*%
%ADD25R,0.812800X1.193800*%
%ADD26RoundRect,0.250000X0.450000X-0.350000X0.450000X0.350000X-0.450000X0.350000X-0.450000X-0.350000X0*%
%ADD27R,2.000000X0.900000*%
%ADD28RoundRect,1.025000X1.025000X-1.025000X1.025000X1.025000X-1.025000X1.025000X-1.025000X-1.025000X0*%
%ADD29C,4.100000*%
%ADD30R,1.300000X2.300000*%
%ADD31R,1.856504X0.392473*%
%ADD32R,2.300000X1.300000*%
%ADD33RoundRect,1.025000X1.025000X1.025000X-1.025000X1.025000X-1.025000X-1.025000X1.025000X-1.025000X0*%
%ADD34R,0.900000X2.000000*%
%ADD35RoundRect,0.250000X0.350000X0.450000X-0.350000X0.450000X-0.350000X-0.450000X0.350000X-0.450000X0*%
%ADD36RoundRect,0.250000X-0.350000X-0.450000X0.350000X-0.450000X0.350000X0.450000X-0.350000X0.450000X0*%
G04 APERTURE END LIST*
D10*
%TO.C,REF\u002A\u002A*%
X174000000Y-141000000D03*
%TD*%
%TO.C,REF\u002A\u002A*%
X173000000Y-84000000D03*
%TD*%
%TO.C,REF\u002A\u002A*%
X112000000Y-100000000D03*
%TD*%
%TO.C,REF\u002A\u002A*%
X112000000Y-141000000D03*
%TD*%
D11*
%TO.C,R2*%
X152910699Y-109190000D03*
X151205101Y-109190000D03*
%TD*%
D12*
%TO.C,C10*%
X133712499Y-124905000D03*
X131637499Y-124905000D03*
%TD*%
D13*
%TO.C,J1*%
X145750000Y-87549501D03*
X143250000Y-87549501D03*
X140750000Y-87549501D03*
X138250000Y-87549501D03*
D14*
X135050001Y-80759501D03*
X148949999Y-80759501D03*
%TD*%
D15*
%TO.C,C3*%
X158302000Y-119190000D03*
X163813800Y-119190000D03*
%TD*%
D16*
%TO.C,U1*%
X147057900Y-114810000D03*
X147057900Y-113540000D03*
X147057900Y-112270000D03*
X147057900Y-111000000D03*
X147057900Y-109730000D03*
X147057900Y-108460000D03*
X147057900Y-107190000D03*
D17*
X138815600Y-111000000D03*
%TD*%
D18*
%TO.C,U2*%
X145674999Y-124905000D03*
D19*
X145674999Y-123635000D03*
X145674999Y-122365000D03*
X145674999Y-121095000D03*
X138325001Y-121095000D03*
X138325001Y-122365000D03*
X138325001Y-123635000D03*
X138325001Y-124905000D03*
D20*
X142000000Y-123000000D03*
%TD*%
D21*
%TO.C,U3*%
X137000000Y-98050000D03*
X137000000Y-99000000D03*
X137000000Y-99950000D03*
X139510000Y-99950000D03*
X139510000Y-99000000D03*
X139510000Y-98050000D03*
%TD*%
D22*
%TO.C,J4*%
X163320000Y-84799999D03*
X154680000Y-84799999D03*
X163320000Y-81000000D03*
X154680000Y-81000000D03*
D23*
X159499999Y-84880000D03*
D24*
X157480000Y-84880000D03*
D25*
X156250000Y-84880000D03*
D23*
X158500001Y-84880000D03*
D24*
X160519936Y-84879883D03*
D25*
X161749936Y-84879883D03*
%TD*%
D26*
%TO.C,R3*%
X158000000Y-92000000D03*
X158000000Y-90000000D03*
%TD*%
D12*
%TO.C,C11*%
X133712499Y-120905000D03*
X131637499Y-120905000D03*
%TD*%
D27*
%TO.C,J5*%
X117000000Y-93500000D03*
X117000000Y-80000000D03*
D28*
X123000000Y-90350000D03*
D29*
X123000000Y-83150000D03*
D30*
X119350000Y-86750000D03*
%TD*%
D11*
%TO.C,R1*%
X151205101Y-112000000D03*
X152910699Y-112000000D03*
%TD*%
D15*
%TO.C,C1*%
X158302000Y-109190000D03*
X163813800Y-109190000D03*
%TD*%
%TO.C,C2*%
X158302000Y-100190000D03*
X163813800Y-100190000D03*
%TD*%
D31*
%TO.C,U4*%
X145849143Y-97999999D03*
X145849143Y-98500001D03*
X145849143Y-99000000D03*
X145849143Y-99499999D03*
X145849143Y-100000001D03*
X150150857Y-100000001D03*
X150150857Y-99499999D03*
X150150857Y-99000000D03*
X150150857Y-98500001D03*
X150150857Y-97999999D03*
%TD*%
D32*
%TO.C,J2*%
X160000000Y-133500000D03*
D29*
X156400000Y-129850000D03*
D33*
X163600000Y-129850000D03*
D34*
X153250000Y-135850000D03*
X166750000Y-135850000D03*
%TD*%
D35*
%TO.C,R6*%
X135000000Y-97500000D03*
X133000000Y-97500000D03*
%TD*%
D27*
%TO.C,J3*%
X117150000Y-119750000D03*
X117150000Y-106250000D03*
D28*
X123150000Y-116600000D03*
D29*
X123150000Y-109400000D03*
D30*
X119500000Y-113000000D03*
%TD*%
D36*
%TO.C,R5*%
X133000000Y-100000000D03*
X135000000Y-100000000D03*
%TD*%
D26*
%TO.C,R4*%
X161000000Y-92000000D03*
X161000000Y-90000000D03*
%TD*%
M02*
