%TF.GenerationSoftware,KiCad,Pcbnew,8.0.6*%
%TF.CreationDate,2025-02-22T22:44:17-05:00*%
%TF.ProjectId,Electrical schematic,456c6563-7472-4696-9361-6c2073636865,rev?*%
%TF.SameCoordinates,Original*%
%TF.FileFunction,Copper,L1,Top*%
%TF.FilePolarity,Positive*%
%FSLAX46Y46*%
G04 Gerber Fmt 4.6, Leading zero omitted, Abs format (unit mm)*
G04 Created by KiCad (PCBNEW 8.0.6) date 2025-02-22 22:44:17*
%MOMM*%
%LPD*%
G01*
G04 APERTURE LIST*
G04 Aperture macros list*
%AMRoundRect*
0 Rectangle with rounded corners*
0 $1 Rounding radius*
0 $2 $3 $4 $5 $6 $7 $8 $9 X,Y pos of 4 corners*
0 Add a 4 corners polygon primitive as box body*
4,1,4,$2,$3,$4,$5,$6,$7,$8,$9,$2,$3,0*
0 Add four circle primitives for the rounded corners*
1,1,$1+$1,$2,$3*
1,1,$1+$1,$4,$5*
1,1,$1+$1,$6,$7*
1,1,$1+$1,$8,$9*
0 Add four rect primitives between the rounded corners*
20,1,$1+$1,$2,$3,$4,$5,0*
20,1,$1+$1,$4,$5,$6,$7,0*
20,1,$1+$1,$6,$7,$8,$9,0*
20,1,$1+$1,$8,$9,$2,$3,0*%
G04 Aperture macros list end*
%TA.AperFunction,NonConductor*%
%ADD10C,0.200000*%
%TD*%
%TA.AperFunction,SMDPad,CuDef*%
%ADD11R,1.005599X1.199998*%
%TD*%
%TA.AperFunction,SMDPad,CuDef*%
%ADD12R,2.997200X1.219200*%
%TD*%
%TA.AperFunction,SMDPad,CuDef*%
%ADD13R,1.752600X0.660400*%
%TD*%
%TA.AperFunction,SMDPad,CuDef*%
%ADD14O,1.752600X0.660400*%
%TD*%
%TA.AperFunction,SMDPad,CuDef*%
%ADD15R,2.413000X3.302000*%
%TD*%
%TA.AperFunction,SMDPad,CuDef*%
%ADD16RoundRect,0.250000X-0.350000X-0.450000X0.350000X-0.450000X0.350000X0.450000X-0.350000X0.450000X0*%
%TD*%
%TA.AperFunction,SMDPad,CuDef*%
%ADD17R,1.003300X0.457200*%
%TD*%
%TA.AperFunction,SMDPad,CuDef*%
%ADD18R,0.889000X2.489200*%
%TD*%
%TA.AperFunction,ComponentPad*%
%ADD19C,1.803400*%
%TD*%
%TA.AperFunction,SMDPad,CuDef*%
%ADD20R,2.489200X5.156200*%
%TD*%
%TA.AperFunction,SMDPad,CuDef*%
%ADD21R,1.295400X4.495800*%
%TD*%
%TA.AperFunction,SMDPad,CuDef*%
%ADD22R,1.803400X3.911600*%
%TD*%
%TA.AperFunction,ComponentPad*%
%ADD23R,0.900000X2.000000*%
%TD*%
%TA.AperFunction,ComponentPad*%
%ADD24RoundRect,1.025000X-1.025000X-1.025000X1.025000X-1.025000X1.025000X1.025000X-1.025000X1.025000X0*%
%TD*%
%TA.AperFunction,ComponentPad*%
%ADD25C,4.100000*%
%TD*%
%TA.AperFunction,ComponentPad*%
%ADD26R,2.300000X1.300000*%
%TD*%
%TA.AperFunction,SMDPad,CuDef*%
%ADD27RoundRect,0.250000X0.337500X0.475000X-0.337500X0.475000X-0.337500X-0.475000X0.337500X-0.475000X0*%
%TD*%
%TA.AperFunction,SMDPad,CuDef*%
%ADD28R,1.473200X0.558800*%
%TD*%
%TA.AperFunction,SMDPad,CuDef*%
%ADD29R,2.667000X0.787400*%
%TD*%
%TA.AperFunction,SMDPad,CuDef*%
%ADD30R,10.414000X10.414000*%
%TD*%
%TA.AperFunction,ComponentPad*%
%ADD31R,2.000000X0.900000*%
%TD*%
%TA.AperFunction,ComponentPad*%
%ADD32RoundRect,1.025000X1.025000X-1.025000X1.025000X1.025000X-1.025000X1.025000X-1.025000X-1.025000X0*%
%TD*%
%TA.AperFunction,ComponentPad*%
%ADD33R,1.300000X2.300000*%
%TD*%
%TA.AperFunction,ViaPad*%
%ADD34C,0.600000*%
%TD*%
%TA.AperFunction,Conductor*%
%ADD35C,0.200000*%
%TD*%
%TA.AperFunction,Conductor*%
%ADD36C,0.400000*%
%TD*%
%TA.AperFunction,Conductor*%
%ADD37C,0.800000*%
%TD*%
G04 APERTURE END LIST*
D10*
X108500000Y-52000000D02*
X163000000Y-52000000D01*
X163000000Y-111500000D01*
X108500000Y-111500000D01*
X108500000Y-52000000D01*
D11*
%TO.P,R1,1*%
%TO.N,Net-(U1-FB)*%
X149147201Y-90000000D03*
%TO.P,R1,2*%
%TO.N,GND*%
X150852799Y-90000000D03*
%TD*%
D12*
%TO.P,C3,1*%
%TO.N,/Buck Converter/Vin (12V)*%
X155244100Y-96000000D03*
%TO.P,C3,2*%
%TO.N,GND*%
X160755900Y-96000000D03*
%TD*%
D13*
%TO.P,U2,1,IP+*%
%TO.N,/Current Sensor/CURRENT IN*%
X135674999Y-79905000D03*
D14*
%TO.P,U2,2,IP+*%
X135674999Y-78635000D03*
%TO.P,U2,3,IP-*%
%TO.N,/Buck Converter/Vin (12V)*%
X135674999Y-77365000D03*
%TO.P,U2,4,IP-*%
X135674999Y-76095000D03*
%TO.P,U2,5,GND*%
%TO.N,GND*%
X128325001Y-76095000D03*
%TO.P,U2,6,FILTER*%
%TO.N,Net-(U2-FILTER)*%
X128325001Y-77365000D03*
%TO.P,U2,7,VIOUT*%
%TO.N,/Current Sensor/VOLTAGE OUT (of reading)*%
X128325001Y-78635000D03*
%TO.P,U2,8,VCC*%
%TO.N,/Buck Converter/Vout (5V 5A)*%
X128325001Y-79905000D03*
D15*
%TO.P,U2,9*%
%TO.N,N/C*%
X132000000Y-78000000D03*
%TD*%
D16*
%TO.P,R4,1*%
%TO.N,Net-(U3-IN+)*%
X147000000Y-76000000D03*
%TO.P,R4,2*%
%TO.N,GND*%
X149000000Y-76000000D03*
%TD*%
D12*
%TO.P,C2,1*%
%TO.N,/Buck Converter/Vout (5V 5A)*%
X155244100Y-88000000D03*
%TO.P,C2,2*%
%TO.N,GND*%
X160755900Y-88000000D03*
%TD*%
D11*
%TO.P,R2,1*%
%TO.N,/Buck Converter/Vout (5V 5A)*%
X149294402Y-86000000D03*
%TO.P,R2,2*%
%TO.N,Net-(U1-FB)*%
X151000000Y-86000000D03*
%TD*%
D17*
%TO.P,U4,1,I1*%
%TO.N,Net-(U3-IN-)*%
X134000000Y-69099998D03*
%TO.P,U4,2,GND*%
%TO.N,GND*%
X134000000Y-70049999D03*
%TO.P,U4,3,I0*%
%TO.N,/Current Sensor/VOLTAGE OUT (of reading)*%
X134000000Y-71000000D03*
%TO.P,U4,4,Y*%
%TO.N,Net-(U4-Y)*%
X136705100Y-71000000D03*
%TO.P,U4,5,VCC*%
%TO.N,/Buck Converter/Vout (5V 5A)*%
X136705100Y-70049999D03*
%TO.P,U4,6,S*%
%TO.N,Net-(U4-S)*%
X136705100Y-69099998D03*
%TD*%
D18*
%TO.P,U5,1,1*%
%TO.N,/Buck Converter/Vout (5V 5A)*%
X136000000Y-97500000D03*
%TO.P,U5,2,2*%
%TO.N,unconnected-(U5-Pad2)*%
X137999999Y-97500000D03*
%TO.P,U5,3,3*%
%TO.N,unconnected-(U5-Pad3)*%
X140000000Y-97500000D03*
%TO.P,U5,4,4*%
%TO.N,GND*%
X141999998Y-97500000D03*
D19*
%TO.P,U5,5*%
%TO.N,N/C*%
X136499999Y-101699999D03*
%TO.P,U5,6*%
X141499999Y-101699999D03*
D20*
%TO.P,U5,7*%
X131750001Y-99693392D03*
%TO.P,U5,8*%
X146249997Y-99693392D03*
%TD*%
D21*
%TO.P,J1,1,1*%
%TO.N,/Buck Converter/Vout (5V 5A)*%
X139250000Y-61549501D03*
%TO.P,J1,2,2*%
%TO.N,Net-(U4-S)*%
X136750000Y-61549501D03*
%TO.P,J1,3,3*%
%TO.N,Net-(U4-Y)*%
X134250000Y-61549501D03*
%TO.P,J1,4,4*%
%TO.N,GND*%
X131750000Y-61549501D03*
D22*
%TO.P,J1,5*%
%TO.N,N/C*%
X128550001Y-54759501D03*
%TO.P,J1,6*%
X142449999Y-54759501D03*
%TD*%
D23*
%TO.P,J3,*%
%TO.N,*%
X110250000Y-63150000D03*
X123750000Y-63150000D03*
D24*
%TO.P,J3,1,+*%
%TO.N,GND*%
X113400000Y-69150000D03*
D25*
%TO.P,J3,2,-*%
%TO.N,/Buck Converter/Vin (12V)*%
X120600000Y-69150000D03*
D26*
%TO.P,J3,3*%
%TO.N,N/C*%
X117000000Y-65500000D03*
%TD*%
D23*
%TO.P,J5,*%
%TO.N,*%
X147750000Y-63150000D03*
X161250000Y-63150000D03*
D24*
%TO.P,J5,1,+*%
%TO.N,GND*%
X150900000Y-69150000D03*
D25*
%TO.P,J5,2,-*%
%TO.N,/Buck Converter/Vout (5V 5A)*%
X158100000Y-69150000D03*
D26*
%TO.P,J5,3*%
%TO.N,N/C*%
X154500000Y-65500000D03*
%TD*%
D12*
%TO.P,C1,1*%
%TO.N,/Buck Converter/Vout (5V 5A)*%
X155244100Y-80000000D03*
%TO.P,C1,2*%
%TO.N,GND*%
X160755900Y-80000000D03*
%TD*%
D27*
%TO.P,C11,1*%
%TO.N,Net-(U2-FILTER)*%
X125000000Y-76000000D03*
%TO.P,C11,2*%
%TO.N,GND*%
X122925000Y-76000000D03*
%TD*%
D28*
%TO.P,U3,1,OUT*%
%TO.N,Net-(U3-IN-)*%
X144117600Y-78950001D03*
%TO.P,U3,2,GND*%
%TO.N,GND*%
X144117600Y-78000000D03*
%TO.P,U3,3,IN+*%
%TO.N,Net-(U3-IN+)*%
X144117600Y-77049999D03*
%TO.P,U3,4,IN-*%
%TO.N,Net-(U3-IN-)*%
X141882400Y-77049999D03*
%TO.P,U3,5,\u002ASHDN*%
%TO.N,unconnected-(U3-\u002ASHDN-Pad5)*%
X141882400Y-78000000D03*
%TO.P,U3,6,VDD*%
%TO.N,/Buck Converter/Vout (5V 5A)*%
X141882400Y-78950001D03*
%TD*%
D27*
%TO.P,C10,1*%
%TO.N,/Buck Converter/Vout (5V 5A)*%
X125000000Y-80000000D03*
%TO.P,C10,2*%
%TO.N,GND*%
X122925000Y-80000000D03*
%TD*%
D16*
%TO.P,R3,1*%
%TO.N,/Buck Converter/Vin (12V)*%
X147000000Y-80000000D03*
%TO.P,R3,2*%
%TO.N,Net-(U3-IN+)*%
X149000000Y-80000000D03*
%TD*%
D29*
%TO.P,U1,1,VIN*%
%TO.N,/Buck Converter/Vin (12V)*%
X145000000Y-91620000D03*
%TO.P,U1,2,SYNC*%
%TO.N,GND*%
X145000000Y-90350000D03*
%TO.P,U1,3,EN*%
%TO.N,unconnected-(U1-EN-Pad3)*%
X145000000Y-89080000D03*
%TO.P,U1,4,AGND*%
%TO.N,GND*%
X145000000Y-87810000D03*
%TO.P,U1,5,FB*%
%TO.N,Net-(U1-FB)*%
X145000000Y-86540000D03*
%TO.P,U1,6,SS/TRK*%
%TO.N,unconnected-(U1-SS{slash}TRK-Pad6)*%
X145000000Y-85270000D03*
%TO.P,U1,7,VOUT*%
%TO.N,/Buck Converter/Vout (5V 5A)*%
X145000000Y-84000000D03*
D30*
%TO.P,U1,8,8*%
%TO.N,unconnected-(U1-Pad8)*%
X136757700Y-87810000D03*
%TD*%
D31*
%TO.P,J2,*%
%TO.N,*%
X119650000Y-98250000D03*
X119650000Y-84750000D03*
D32*
%TO.P,J2,1,+*%
%TO.N,GND*%
X125650000Y-95100000D03*
D25*
%TO.P,J2,2,-*%
%TO.N,/Current Sensor/CURRENT IN*%
X125650000Y-87900000D03*
D33*
%TO.P,J2,3*%
%TO.N,N/C*%
X122000000Y-91500000D03*
%TD*%
D34*
%TO.N,GND*%
X142000000Y-73500000D03*
X137500000Y-73000000D03*
X134000000Y-70049999D03*
X122925000Y-80000000D03*
X122925000Y-76000000D03*
X128325001Y-76095000D03*
X131750000Y-68500000D03*
X149117600Y-76000000D03*
X144117600Y-77950001D03*
X145000000Y-81500000D03*
X161500000Y-75500000D03*
%TO.N,/Buck Converter/Vin (12V)*%
X147500000Y-82500000D03*
X145000000Y-91620000D03*
%TO.N,unconnected-(U1-Pad8)*%
X138500000Y-84000000D03*
X136500000Y-86000000D03*
X140500000Y-92000000D03*
X140500000Y-85000000D03*
X136500000Y-88000000D03*
X140500000Y-87000000D03*
X139500000Y-92000000D03*
X139500000Y-88000000D03*
X137500000Y-86000000D03*
X140500000Y-88000000D03*
X134500000Y-85000000D03*
X140500000Y-86000000D03*
X140500000Y-89000000D03*
X135500000Y-89000000D03*
X137500000Y-88000000D03*
X134500000Y-84000000D03*
X140500000Y-84000000D03*
X139500000Y-84000000D03*
X134500000Y-91000000D03*
X136500000Y-84000000D03*
X135500000Y-87000000D03*
X136500000Y-87000000D03*
X132500000Y-91000000D03*
X136500000Y-91000000D03*
X136500000Y-85000000D03*
X139500000Y-85000000D03*
X132500000Y-89000000D03*
X138500000Y-87000000D03*
X133500000Y-85000000D03*
X135500000Y-92000000D03*
X135500000Y-85000000D03*
X135500000Y-86000000D03*
X134500000Y-87000000D03*
X132500000Y-88000000D03*
X137500000Y-90000000D03*
X137500000Y-85000000D03*
X135500000Y-90000000D03*
X136500000Y-89000000D03*
X133500000Y-92000000D03*
X133500000Y-88000000D03*
X133500000Y-84000000D03*
X135500000Y-84000000D03*
X132500000Y-84000000D03*
X135500000Y-91000000D03*
X138500000Y-91000000D03*
X132500000Y-92000000D03*
X139500000Y-87000000D03*
X133500000Y-91000000D03*
X140500000Y-91000000D03*
X133500000Y-89000000D03*
X133500000Y-90000000D03*
X137500000Y-87000000D03*
X139500000Y-89000000D03*
X134500000Y-88000000D03*
X134500000Y-90000000D03*
X136500000Y-92000000D03*
X134500000Y-92000000D03*
X137500000Y-91000000D03*
X133500000Y-86000000D03*
X137500000Y-84000000D03*
X139500000Y-90000000D03*
X132500000Y-86000000D03*
X139500000Y-86000000D03*
X138500000Y-90000000D03*
X134500000Y-89000000D03*
X139500000Y-91000000D03*
X138500000Y-89000000D03*
X138500000Y-85000000D03*
X140500000Y-90000000D03*
X132500000Y-87000000D03*
X132500000Y-90000000D03*
X136500000Y-90000000D03*
X137500000Y-89000000D03*
X138500000Y-92000000D03*
X135500000Y-88000000D03*
X138500000Y-88000000D03*
X138500000Y-86000000D03*
X133500000Y-87000000D03*
X134500000Y-86000000D03*
X137500000Y-92000000D03*
X132500000Y-85000000D03*
%TO.N,/Buck Converter/Vout (5V 5A)*%
X136000000Y-97500000D03*
X141882400Y-78950001D03*
X141500000Y-72500000D03*
X151500000Y-93500000D03*
X133000000Y-81000000D03*
%TO.N,Net-(U4-Y)*%
X134500000Y-66000000D03*
X138500000Y-71000000D03*
%TO.N,/Current Sensor/VOLTAGE OUT (of reading)*%
X134000000Y-71000000D03*
X128325001Y-78635000D03*
%TD*%
D35*
%TO.N,GND*%
X150500000Y-100000000D02*
X149500000Y-99000000D01*
X149500000Y-99000000D02*
X149500000Y-96000000D01*
X161452800Y-95381022D02*
X161452800Y-88618978D01*
X150000000Y-91000000D02*
X150852799Y-90147201D01*
X160833822Y-96000000D02*
X161452800Y-96618978D01*
X143366500Y-87233700D02*
X143366500Y-83133500D01*
X161452800Y-87381022D02*
X161452800Y-80618978D01*
X160833822Y-88000000D02*
X161452800Y-87381022D01*
X161452800Y-88618978D02*
X160833822Y-88000000D01*
X143690000Y-87856400D02*
X145000000Y-87856400D01*
X160833822Y-80000000D02*
X160755900Y-80000000D01*
X141999998Y-97500000D02*
X141999998Y-96100002D01*
X145000000Y-90350000D02*
X147350000Y-90350000D01*
X145000000Y-90396400D02*
X143942800Y-90396400D01*
X150852799Y-90147201D02*
X150852799Y-90000000D01*
X160755900Y-96000000D02*
X160833822Y-96000000D01*
X138000000Y-73500000D02*
X142000000Y-73500000D01*
X161452800Y-99547200D02*
X161000000Y-100000000D01*
X144400000Y-95100000D02*
X145500000Y-95100000D01*
X131750000Y-68500000D02*
X131750000Y-68750000D01*
X143366500Y-83133500D02*
X145000000Y-81500000D01*
X160755900Y-88000000D02*
X160833822Y-88000000D01*
X148600000Y-95100000D02*
X145500000Y-95100000D01*
X131750000Y-61549501D02*
X131750000Y-68500000D01*
X149500000Y-96000000D02*
X148600000Y-95100000D01*
X161000000Y-100000000D02*
X150500000Y-100000000D01*
X143942800Y-87810000D02*
X143366500Y-87233700D01*
X161452800Y-80618978D02*
X160833822Y-80000000D01*
X160833822Y-96000000D02*
X161452800Y-95381022D01*
X148000000Y-91000000D02*
X150000000Y-91000000D01*
X161500000Y-75500000D02*
X161500000Y-79333822D01*
X161500000Y-79333822D02*
X160833822Y-80000000D01*
X161452800Y-96618978D02*
X161452800Y-99547200D01*
X125650000Y-95100000D02*
X143000000Y-95100000D01*
X143366500Y-88179900D02*
X143690000Y-87856400D01*
X137500000Y-73000000D02*
X138000000Y-73500000D01*
X143942800Y-90396400D02*
X143366500Y-89820100D01*
X143000000Y-95100000D02*
X145500000Y-95100000D01*
X145000000Y-87810000D02*
X143942800Y-87810000D01*
X147350000Y-90350000D02*
X148000000Y-91000000D01*
X143366500Y-89820100D02*
X143366500Y-88179900D01*
X141999998Y-96100002D02*
X143000000Y-95100000D01*
%TO.N,Net-(U2-FILTER)*%
X126365000Y-77365000D02*
X128325001Y-77365000D01*
X125000000Y-76000000D02*
X126365000Y-77365000D01*
%TO.N,Net-(U3-IN+)*%
X149117600Y-80000000D02*
X149117600Y-79000000D01*
X147117600Y-76000000D02*
X145117600Y-76000000D01*
X149117600Y-79000000D02*
X147117600Y-77000000D01*
X147117600Y-77000000D02*
X147117600Y-76000000D01*
X145117600Y-76000000D02*
X144117600Y-77000000D01*
D36*
%TO.N,/Buck Converter/Vin (12V)*%
X132000000Y-74500000D02*
X130000000Y-72500000D01*
X135674999Y-76095000D02*
X135674999Y-77365000D01*
X147117600Y-82117600D02*
X147500000Y-82500000D01*
X147117600Y-80000000D02*
X147117600Y-82117600D01*
X135674999Y-77365000D02*
X136865000Y-77365000D01*
X147620000Y-91620000D02*
X152000000Y-96000000D01*
X134079999Y-74500000D02*
X132000000Y-74500000D01*
X136865000Y-77365000D02*
X139500000Y-80000000D01*
X135674999Y-76095000D02*
X134079999Y-74500000D01*
X145000000Y-91620000D02*
X147620000Y-91620000D01*
X139500000Y-80000000D02*
X147117600Y-80000000D01*
X120600000Y-70600000D02*
X120600000Y-69150000D01*
X152000000Y-96000000D02*
X155244100Y-96000000D01*
X130000000Y-72500000D02*
X122500000Y-72500000D01*
X122500000Y-72500000D02*
X120600000Y-70600000D01*
%TO.N,/Current Sensor/CURRENT IN*%
X125650000Y-84850000D02*
X128500000Y-82000000D01*
X135674999Y-78635000D02*
X135674999Y-79905000D01*
X135674999Y-80825001D02*
X135674999Y-79905000D01*
X128500000Y-82000000D02*
X134500000Y-82000000D01*
X134500000Y-82000000D02*
X135674999Y-80825001D01*
X125650000Y-87900000D02*
X125650000Y-84850000D01*
D35*
%TO.N,Net-(U1-FB)*%
X151000000Y-86000000D02*
X151000000Y-87000000D01*
X146834402Y-86540000D02*
X145000000Y-86540000D01*
X149147201Y-88852799D02*
X149147201Y-90000000D01*
X149147201Y-88852799D02*
X146834402Y-86540000D01*
X151000000Y-87000000D02*
X149147201Y-88852799D01*
D37*
%TO.N,/Buck Converter/Vout (5V 5A)*%
X149294402Y-86000000D02*
X147294402Y-84000000D01*
X147000000Y-72500000D02*
X148900000Y-72500000D01*
X155166178Y-88000000D02*
X155244100Y-88000000D01*
D36*
X141500000Y-72500000D02*
X147000000Y-72500000D01*
D37*
X150900000Y-74500000D02*
X152750000Y-74500000D01*
D36*
X136705100Y-70049999D02*
X142549999Y-70049999D01*
D37*
X150900000Y-76544900D02*
X154355100Y-80000000D01*
X148900000Y-72500000D02*
X150900000Y-74500000D01*
D36*
X153000000Y-89741914D02*
X153000000Y-92000000D01*
D37*
X145000000Y-72500000D02*
X147000000Y-72500000D01*
X154355100Y-80000000D02*
X155244100Y-80000000D01*
X154547200Y-87381022D02*
X155166178Y-88000000D01*
X139250000Y-61549501D02*
X139250000Y-66750000D01*
D36*
X154741914Y-88000000D02*
X153000000Y-89741914D01*
D37*
X154547200Y-83000000D02*
X154547200Y-87381022D01*
D36*
X155244100Y-88000000D02*
X154741914Y-88000000D01*
D37*
X154547200Y-80618978D02*
X154547200Y-83000000D01*
X155244100Y-80000000D02*
X154741914Y-80000000D01*
X155166178Y-80000000D02*
X154547200Y-80618978D01*
D36*
X129000000Y-81000000D02*
X128325001Y-80325001D01*
D37*
X152750000Y-74500000D02*
X158100000Y-69150000D01*
X147000000Y-84000000D02*
X145000000Y-84000000D01*
X147000000Y-84000000D02*
X153547200Y-84000000D01*
D36*
X128325001Y-80325001D02*
X128325001Y-79905000D01*
D37*
X150900000Y-74500000D02*
X150900000Y-76544900D01*
D35*
X128230001Y-80000000D02*
X128325001Y-79905000D01*
D37*
X147294402Y-84000000D02*
X147000000Y-84000000D01*
X142549999Y-70049999D02*
X145000000Y-72500000D01*
D36*
X153000000Y-92000000D02*
X151500000Y-93500000D01*
D35*
X125000000Y-80000000D02*
X128230001Y-80000000D01*
D36*
X133000000Y-81000000D02*
X129000000Y-81000000D01*
D37*
X139250000Y-66750000D02*
X142549999Y-70049999D01*
X155244100Y-80000000D02*
X155166178Y-80000000D01*
X153547200Y-84000000D02*
X154547200Y-83000000D01*
D35*
%TO.N,Net-(U4-Y)*%
X136705100Y-71000000D02*
X138500000Y-71000000D01*
X134250000Y-65750000D02*
X134500000Y-66000000D01*
X134250000Y-61549501D02*
X134250000Y-65750000D01*
%TO.N,Net-(U4-S)*%
X136705100Y-61594401D02*
X136750000Y-61549501D01*
X136705100Y-69099998D02*
X136705100Y-61594401D01*
D36*
%TO.N,Net-(U3-IN-)*%
X132000000Y-70000000D02*
X132900002Y-69099998D01*
X143181000Y-78900002D02*
X143081000Y-78800002D01*
X144117600Y-78900002D02*
X143181000Y-78900002D01*
X132000000Y-71500000D02*
X132000000Y-70000000D01*
X133000000Y-72500000D02*
X132000000Y-71500000D01*
X132900002Y-69099998D02*
X134000000Y-69099998D01*
X142819000Y-77000000D02*
X140000000Y-77000000D01*
X143081000Y-78800002D02*
X143081000Y-77262000D01*
X135500000Y-72500000D02*
X133000000Y-72500000D01*
X143081000Y-77262000D02*
X142819000Y-77000000D01*
X140000000Y-77000000D02*
X135500000Y-72500000D01*
%TD*%
M02*
