%TF.GenerationSoftware,KiCad,Pcbnew,8.0.6*%
%TF.CreationDate,2025-02-22T22:44:17-05:00*%
%TF.ProjectId,Electrical schematic,456c6563-7472-4696-9361-6c2073636865,rev?*%
%TF.SameCoordinates,Original*%
%TF.FileFunction,Soldermask,Top*%
%TF.FilePolarity,Negative*%
%FSLAX46Y46*%
G04 Gerber Fmt 4.6, Leading zero omitted, Abs format (unit mm)*
G04 Created by KiCad (PCBNEW 8.0.6) date 2025-02-22 22:44:17*
%MOMM*%
%LPD*%
G01*
G04 APERTURE LIST*
G04 Aperture macros list*
%AMRoundRect*
0 Rectangle with rounded corners*
0 $1 Rounding radius*
0 $2 $3 $4 $5 $6 $7 $8 $9 X,Y pos of 4 corners*
0 Add a 4 corners polygon primitive as box body*
4,1,4,$2,$3,$4,$5,$6,$7,$8,$9,$2,$3,0*
0 Add four circle primitives for the rounded corners*
1,1,$1+$1,$2,$3*
1,1,$1+$1,$4,$5*
1,1,$1+$1,$6,$7*
1,1,$1+$1,$8,$9*
0 Add four rect primitives between the rounded corners*
20,1,$1+$1,$2,$3,$4,$5,0*
20,1,$1+$1,$4,$5,$6,$7,0*
20,1,$1+$1,$6,$7,$8,$9,0*
20,1,$1+$1,$8,$9,$2,$3,0*%
G04 Aperture macros list end*
%ADD10R,1.005599X1.199998*%
%ADD11C,2.100000*%
%ADD12R,2.997200X1.219200*%
%ADD13R,1.752600X0.660400*%
%ADD14O,1.752600X0.660400*%
%ADD15R,2.413000X3.302000*%
%ADD16RoundRect,0.250000X-0.350000X-0.450000X0.350000X-0.450000X0.350000X0.450000X-0.350000X0.450000X0*%
%ADD17R,1.003300X0.457200*%
%ADD18R,0.889000X2.489200*%
%ADD19C,1.803400*%
%ADD20R,2.489200X5.156200*%
%ADD21R,1.295400X4.495800*%
%ADD22R,1.803400X3.911600*%
%ADD23R,0.900000X2.000000*%
%ADD24RoundRect,1.025000X-1.025000X-1.025000X1.025000X-1.025000X1.025000X1.025000X-1.025000X1.025000X0*%
%ADD25C,4.100000*%
%ADD26R,2.300000X1.300000*%
%ADD27RoundRect,0.250000X0.337500X0.475000X-0.337500X0.475000X-0.337500X-0.475000X0.337500X-0.475000X0*%
%ADD28R,1.473200X0.558800*%
%ADD29R,2.667000X0.787400*%
%ADD30R,10.414000X10.414000*%
%ADD31R,2.000000X0.900000*%
%ADD32RoundRect,1.025000X1.025000X-1.025000X1.025000X1.025000X-1.025000X1.025000X-1.025000X-1.025000X0*%
%ADD33R,1.300000X2.300000*%
G04 APERTURE END LIST*
D10*
%TO.C,R1*%
X149147201Y-90000000D03*
X150852799Y-90000000D03*
%TD*%
D11*
%TO.C,REF\u002A\u002A*%
X112500000Y-78000000D03*
%TD*%
D12*
%TO.C,C3*%
X155244100Y-96000000D03*
X160755900Y-96000000D03*
%TD*%
D13*
%TO.C,U2*%
X135674999Y-79905000D03*
D14*
X135674999Y-78635000D03*
X135674999Y-77365000D03*
X135674999Y-76095000D03*
X128325001Y-76095000D03*
X128325001Y-77365000D03*
X128325001Y-78635000D03*
X128325001Y-79905000D03*
D15*
X132000000Y-78000000D03*
%TD*%
D16*
%TO.C,R4*%
X147000000Y-76000000D03*
X149000000Y-76000000D03*
%TD*%
D12*
%TO.C,C2*%
X155244100Y-88000000D03*
X160755900Y-88000000D03*
%TD*%
D10*
%TO.C,R2*%
X149294402Y-86000000D03*
X151000000Y-86000000D03*
%TD*%
D17*
%TO.C,U4*%
X134000000Y-69099998D03*
X134000000Y-70049999D03*
X134000000Y-71000000D03*
X136705100Y-71000000D03*
X136705100Y-70049999D03*
X136705100Y-69099998D03*
%TD*%
D11*
%TO.C,REF\u002A\u002A*%
X112500000Y-106500000D03*
%TD*%
D18*
%TO.C,U5*%
X136000000Y-97500000D03*
X137999999Y-97500000D03*
X140000000Y-97500000D03*
X141999998Y-97500000D03*
D19*
X136499999Y-101699999D03*
X141499999Y-101699999D03*
D20*
X131750001Y-99693392D03*
X146249997Y-99693392D03*
%TD*%
D21*
%TO.C,J1*%
X139250000Y-61549501D03*
X136750000Y-61549501D03*
X134250000Y-61549501D03*
X131750000Y-61549501D03*
D22*
X128550001Y-54759501D03*
X142449999Y-54759501D03*
%TD*%
D23*
%TO.C,J3*%
X110250000Y-63150000D03*
X123750000Y-63150000D03*
D24*
X113400000Y-69150000D03*
D25*
X120600000Y-69150000D03*
D26*
X117000000Y-65500000D03*
%TD*%
D23*
%TO.C,J5*%
X147750000Y-63150000D03*
X161250000Y-63150000D03*
D24*
X150900000Y-69150000D03*
D25*
X158100000Y-69150000D03*
D26*
X154500000Y-65500000D03*
%TD*%
D12*
%TO.C,C1*%
X155244100Y-80000000D03*
X160755900Y-80000000D03*
%TD*%
D27*
%TO.C,C11*%
X125000000Y-76000000D03*
X122925000Y-76000000D03*
%TD*%
D11*
%TO.C,REF\u002A\u002A*%
X158000000Y-106500000D03*
%TD*%
D28*
%TO.C,U3*%
X144117600Y-78950001D03*
X144117600Y-78000000D03*
X144117600Y-77049999D03*
X141882400Y-77049999D03*
X141882400Y-78000000D03*
X141882400Y-78950001D03*
%TD*%
D27*
%TO.C,C10*%
X125000000Y-80000000D03*
X122925000Y-80000000D03*
%TD*%
D16*
%TO.C,R3*%
X147000000Y-80000000D03*
X149000000Y-80000000D03*
%TD*%
D29*
%TO.C,U1*%
X145000000Y-91620000D03*
X145000000Y-90350000D03*
X145000000Y-89080000D03*
X145000000Y-87810000D03*
X145000000Y-86540000D03*
X145000000Y-85270000D03*
X145000000Y-84000000D03*
D30*
X136757700Y-87810000D03*
%TD*%
D31*
%TO.C,J2*%
X119650000Y-98250000D03*
X119650000Y-84750000D03*
D32*
X125650000Y-95100000D03*
D25*
X125650000Y-87900000D03*
D33*
X122000000Y-91500000D03*
%TD*%
M02*
