M48
; DRILL file {KiCad 8.0.6} date 2025-02-02T12:34:23-0500
; FORMAT={-:-/ absolute / metric / decimal}
; #@! TF.CreationDate,2025-02-02T12:34:23-05:00
; #@! TF.GenerationSoftware,Kicad,Pcbnew,8.0.6
; #@! TF.FileFunction,Plated,1,2,PTH
FMAT,2
METRIC
; #@! TA.AperFunction,Plated,PTH,ViaDrill
T1C0.300
; #@! TA.AperFunction,Plated,PTH,ComponentDrill
T2C0.600
; #@! TA.AperFunction,Plated,PTH,ComponentDrill
T3C1.000
; #@! TA.AperFunction,Plated,PTH,ComponentDrill
T4C2.700
%
G90
G05
T1
X129.0Y-88.0
X132.0Y-91.0
X133.0Y-97.5
X136.0Y-125.0
X137.0Y-99.0
X138.25Y-93.0
X138.325Y-123.635
X143.0Y-100.0
X147.0Y-91.0
X147.058Y-107.19
X153.0Y-100.0
X156.4Y-129.85
X158.0Y-92.0
X163.814Y-100.19
X163.814Y-119.19
T4
X123.0Y-83.15
X123.0Y-90.35
X123.15Y-109.4
X123.15Y-116.6
X156.4Y-129.85
X163.6Y-129.85
T2
X116.45Y-80.0G85X117.55Y-80.0
G05
X116.45Y-93.5G85X117.55Y-93.5
G05
X116.6Y-106.25G85X117.7Y-106.25
G05
X116.6Y-119.75G85X117.7Y-119.75
G05
X153.25Y-136.4G85X153.25Y-135.3
G05
X166.75Y-136.4G85X166.75Y-135.3
G05
T3
X119.35Y-87.25G85X119.35Y-86.25
G05
X119.5Y-113.5G85X119.5Y-112.5
G05
X160.5Y-133.5G85X159.5Y-133.5
G05
M30
