%TF.GenerationSoftware,KiCad,Pcbnew,8.0.6*%
%TF.CreationDate,2025-05-08T15:46:12-04:00*%
%TF.ProjectId,5VConnectorBoard,3556436f-6e6e-4656-9374-6f72426f6172,rev?*%
%TF.SameCoordinates,Original*%
%TF.FileFunction,Copper,L1,Top*%
%TF.FilePolarity,Positive*%
%FSLAX46Y46*%
G04 Gerber Fmt 4.6, Leading zero omitted, Abs format (unit mm)*
G04 Created by KiCad (PCBNEW 8.0.6) date 2025-05-08 15:46:12*
%MOMM*%
%LPD*%
G01*
G04 APERTURE LIST*
G04 Aperture macros list*
%AMRoundRect*
0 Rectangle with rounded corners*
0 $1 Rounding radius*
0 $2 $3 $4 $5 $6 $7 $8 $9 X,Y pos of 4 corners*
0 Add a 4 corners polygon primitive as box body*
4,1,4,$2,$3,$4,$5,$6,$7,$8,$9,$2,$3,0*
0 Add four circle primitives for the rounded corners*
1,1,$1+$1,$2,$3*
1,1,$1+$1,$4,$5*
1,1,$1+$1,$6,$7*
1,1,$1+$1,$8,$9*
0 Add four rect primitives between the rounded corners*
20,1,$1+$1,$2,$3,$4,$5,0*
20,1,$1+$1,$4,$5,$6,$7,0*
20,1,$1+$1,$6,$7,$8,$9,0*
20,1,$1+$1,$8,$9,$2,$3,0*%
G04 Aperture macros list end*
%TA.AperFunction,NonConductor*%
%ADD10C,0.200000*%
%TD*%
%TA.AperFunction,ComponentPad*%
%ADD11R,2.000000X0.900000*%
%TD*%
%TA.AperFunction,ComponentPad*%
%ADD12RoundRect,1.025000X-1.025000X1.025000X-1.025000X-1.025000X1.025000X-1.025000X1.025000X1.025000X0*%
%TD*%
%TA.AperFunction,ComponentPad*%
%ADD13C,4.100000*%
%TD*%
%TA.AperFunction,SMDPad,CuDef*%
%ADD14R,0.889000X2.489200*%
%TD*%
%TA.AperFunction,ComponentPad*%
%ADD15C,1.803400*%
%TD*%
%TA.AperFunction,SMDPad,CuDef*%
%ADD16R,2.489200X5.156200*%
%TD*%
%TA.AperFunction,ComponentPad*%
%ADD17RoundRect,1.025000X1.025000X-1.025000X1.025000X1.025000X-1.025000X1.025000X-1.025000X-1.025000X0*%
%TD*%
%TA.AperFunction,ViaPad*%
%ADD18C,0.800000*%
%TD*%
G04 APERTURE END LIST*
D10*
X98000000Y-63000000D02*
X170000000Y-63000000D01*
X170000000Y-121500000D01*
X98000000Y-121500000D01*
X98000000Y-63000000D01*
D11*
%TO.P,J2,*%
%TO.N,*%
X158850000Y-84750000D03*
X158850000Y-98250000D03*
D12*
%TO.P,J2,1,+*%
%TO.N,GND*%
X152850000Y-87900000D03*
D13*
%TO.P,J2,2,-*%
%TO.N,VCC*%
X152850000Y-95100000D03*
%TD*%
D14*
%TO.P,U5,1,1*%
%TO.N,VCC*%
X131250003Y-107186407D03*
%TO.P,U5,2,2*%
%TO.N,unconnected-(U5-Pad2)*%
X133250002Y-107186407D03*
%TO.P,U5,3,3*%
%TO.N,unconnected-(U5-Pad3)*%
X135250003Y-107186407D03*
%TO.P,U5,4,4*%
%TO.N,GND*%
X137250001Y-107186407D03*
D15*
%TO.P,U5,5*%
%TO.N,N/C*%
X131750002Y-111386406D03*
%TO.P,U5,6*%
X136750002Y-111386406D03*
D16*
%TO.P,U5,7*%
X127000004Y-109379799D03*
%TO.P,U5,8*%
X141500000Y-109379799D03*
%TD*%
D14*
%TO.P,U1,1,1*%
%TO.N,VCC*%
X117017399Y-77270101D03*
%TO.P,U1,2,2*%
%TO.N,unconnected-(U1-Pad2)*%
X115017400Y-77270101D03*
%TO.P,U1,3,3*%
%TO.N,unconnected-(U1-Pad3)*%
X113017399Y-77270101D03*
%TO.P,U1,4,4*%
%TO.N,GND*%
X111017401Y-77270101D03*
D15*
%TO.P,U1,5*%
%TO.N,N/C*%
X116517400Y-73070102D03*
%TO.P,U1,6*%
X111517400Y-73070102D03*
D16*
%TO.P,U1,7*%
X121267398Y-75076709D03*
%TO.P,U1,8*%
X106767402Y-75076709D03*
%TD*%
D14*
%TO.P,U3,1,1*%
%TO.N,VCC*%
X157017399Y-77270101D03*
%TO.P,U3,2,2*%
%TO.N,unconnected-(U3-Pad2)*%
X155017400Y-77270101D03*
%TO.P,U3,3,3*%
%TO.N,unconnected-(U3-Pad3)*%
X153017399Y-77270101D03*
%TO.P,U3,4,4*%
%TO.N,GND*%
X151017401Y-77270101D03*
D15*
%TO.P,U3,5*%
%TO.N,N/C*%
X156517400Y-73070102D03*
%TO.P,U3,6*%
X151517400Y-73070102D03*
D16*
%TO.P,U3,7*%
X161267398Y-75076709D03*
%TO.P,U3,8*%
X146767402Y-75076709D03*
%TD*%
D14*
%TO.P,U6,1,1*%
%TO.N,VCC*%
X150982601Y-107229900D03*
%TO.P,U6,2,2*%
%TO.N,unconnected-(U6-Pad2)*%
X152982600Y-107229900D03*
%TO.P,U6,3,3*%
%TO.N,unconnected-(U6-Pad3)*%
X154982601Y-107229900D03*
%TO.P,U6,4,4*%
%TO.N,GND*%
X156982599Y-107229900D03*
D15*
%TO.P,U6,5*%
%TO.N,N/C*%
X151482600Y-111429899D03*
%TO.P,U6,6*%
X156482600Y-111429899D03*
D16*
%TO.P,U6,7*%
X146732602Y-109423292D03*
%TO.P,U6,8*%
X161232598Y-109423292D03*
%TD*%
D11*
%TO.P,J1,*%
%TO.N,*%
X109150000Y-98250000D03*
X109150000Y-84750000D03*
D17*
%TO.P,J1,1,+*%
%TO.N,GND*%
X115150000Y-95100000D03*
D13*
%TO.P,J1,2,-*%
%TO.N,VCC*%
X115150000Y-87900000D03*
%TD*%
D14*
%TO.P,U4,1,1*%
%TO.N,VCC*%
X110982601Y-107229900D03*
%TO.P,U4,2,2*%
%TO.N,unconnected-(U4-Pad2)*%
X112982600Y-107229900D03*
%TO.P,U4,3,3*%
%TO.N,unconnected-(U4-Pad3)*%
X114982601Y-107229900D03*
%TO.P,U4,4,4*%
%TO.N,GND*%
X116982599Y-107229900D03*
D15*
%TO.P,U4,5*%
%TO.N,N/C*%
X111482600Y-111429899D03*
%TO.P,U4,6*%
X116482600Y-111429899D03*
D16*
%TO.P,U4,7*%
X106732602Y-109423292D03*
%TO.P,U4,8*%
X121232598Y-109423292D03*
%TD*%
D14*
%TO.P,U2,1,1*%
%TO.N,VCC*%
X137017399Y-77270101D03*
%TO.P,U2,2,2*%
%TO.N,unconnected-(U2-Pad2)*%
X135017400Y-77270101D03*
%TO.P,U2,3,3*%
%TO.N,unconnected-(U2-Pad3)*%
X133017399Y-77270101D03*
%TO.P,U2,4,4*%
%TO.N,GND*%
X131017401Y-77270101D03*
D15*
%TO.P,U2,5*%
%TO.N,N/C*%
X136517400Y-73070102D03*
%TO.P,U2,6*%
X131517400Y-73070102D03*
D16*
%TO.P,U2,7*%
X141267398Y-75076709D03*
%TO.P,U2,8*%
X126767402Y-75076709D03*
%TD*%
D18*
%TO.N,GND*%
X151017401Y-77270101D03*
X137250001Y-107186407D03*
X116982599Y-107229900D03*
X111017401Y-77270101D03*
X156982599Y-107229900D03*
X131017401Y-77270101D03*
%TD*%
%TA.AperFunction,Conductor*%
%TO.N,VCC*%
G36*
X169342539Y-63620185D02*
G01*
X169388294Y-63672989D01*
X169399500Y-63724500D01*
X169399500Y-120775500D01*
X169379815Y-120842539D01*
X169327011Y-120888294D01*
X169275500Y-120899500D01*
X98724500Y-120899500D01*
X98657461Y-120879815D01*
X98611706Y-120827011D01*
X98600500Y-120775500D01*
X98600500Y-118381902D01*
X99499500Y-118381902D01*
X99499500Y-118618097D01*
X99536446Y-118851368D01*
X99609433Y-119075996D01*
X99716657Y-119286433D01*
X99855483Y-119477510D01*
X100022490Y-119644517D01*
X100213567Y-119783343D01*
X100312991Y-119834002D01*
X100424003Y-119890566D01*
X100424005Y-119890566D01*
X100424008Y-119890568D01*
X100544412Y-119929689D01*
X100648631Y-119963553D01*
X100881903Y-120000500D01*
X100881908Y-120000500D01*
X101118097Y-120000500D01*
X101351368Y-119963553D01*
X101575992Y-119890568D01*
X101786433Y-119783343D01*
X101977510Y-119644517D01*
X102144517Y-119477510D01*
X102283343Y-119286433D01*
X102390568Y-119075992D01*
X102463553Y-118851368D01*
X102500500Y-118618097D01*
X102500500Y-118381902D01*
X165499500Y-118381902D01*
X165499500Y-118618097D01*
X165536446Y-118851368D01*
X165609433Y-119075996D01*
X165716657Y-119286433D01*
X165855483Y-119477510D01*
X166022490Y-119644517D01*
X166213567Y-119783343D01*
X166312991Y-119834002D01*
X166424003Y-119890566D01*
X166424005Y-119890566D01*
X166424008Y-119890568D01*
X166544412Y-119929689D01*
X166648631Y-119963553D01*
X166881903Y-120000500D01*
X166881908Y-120000500D01*
X167118097Y-120000500D01*
X167351368Y-119963553D01*
X167575992Y-119890568D01*
X167786433Y-119783343D01*
X167977510Y-119644517D01*
X168144517Y-119477510D01*
X168283343Y-119286433D01*
X168390568Y-119075992D01*
X168463553Y-118851368D01*
X168500500Y-118618097D01*
X168500500Y-118381902D01*
X168463553Y-118148631D01*
X168390566Y-117924003D01*
X168283342Y-117713566D01*
X168144517Y-117522490D01*
X167977510Y-117355483D01*
X167786433Y-117216657D01*
X167575996Y-117109433D01*
X167351368Y-117036446D01*
X167118097Y-116999500D01*
X167118092Y-116999500D01*
X166881908Y-116999500D01*
X166881903Y-116999500D01*
X166648631Y-117036446D01*
X166424003Y-117109433D01*
X166213566Y-117216657D01*
X166104550Y-117295862D01*
X166022490Y-117355483D01*
X166022488Y-117355485D01*
X166022487Y-117355485D01*
X165855485Y-117522487D01*
X165855485Y-117522488D01*
X165855483Y-117522490D01*
X165795862Y-117604550D01*
X165716657Y-117713566D01*
X165609433Y-117924003D01*
X165536446Y-118148631D01*
X165499500Y-118381902D01*
X102500500Y-118381902D01*
X102463553Y-118148631D01*
X102390566Y-117924003D01*
X102283342Y-117713566D01*
X102144517Y-117522490D01*
X101977510Y-117355483D01*
X101786433Y-117216657D01*
X101575996Y-117109433D01*
X101351368Y-117036446D01*
X101118097Y-116999500D01*
X101118092Y-116999500D01*
X100881908Y-116999500D01*
X100881903Y-116999500D01*
X100648631Y-117036446D01*
X100424003Y-117109433D01*
X100213566Y-117216657D01*
X100104550Y-117295862D01*
X100022490Y-117355483D01*
X100022488Y-117355485D01*
X100022487Y-117355485D01*
X99855485Y-117522487D01*
X99855485Y-117522488D01*
X99855483Y-117522490D01*
X99795862Y-117604550D01*
X99716657Y-117713566D01*
X99609433Y-117924003D01*
X99536446Y-118148631D01*
X99499500Y-118381902D01*
X98600500Y-118381902D01*
X98600500Y-106797327D01*
X104987502Y-106797327D01*
X104987502Y-112049262D01*
X104987503Y-112049268D01*
X104993910Y-112108875D01*
X105044204Y-112243720D01*
X105044208Y-112243727D01*
X105130454Y-112358936D01*
X105130457Y-112358939D01*
X105245666Y-112445185D01*
X105245673Y-112445189D01*
X105380519Y-112495483D01*
X105380518Y-112495483D01*
X105387446Y-112496227D01*
X105440129Y-112501892D01*
X108025074Y-112501891D01*
X108084685Y-112495483D01*
X108219533Y-112445188D01*
X108334748Y-112358938D01*
X108420998Y-112243723D01*
X108471293Y-112108875D01*
X108477702Y-112049265D01*
X108477702Y-111429893D01*
X110075594Y-111429893D01*
X110075594Y-111429904D01*
X110094783Y-111661481D01*
X110151829Y-111886753D01*
X110245175Y-112099561D01*
X110343857Y-112250604D01*
X110372275Y-112294100D01*
X110529661Y-112465067D01*
X110529664Y-112465069D01*
X110529667Y-112465072D01*
X110713032Y-112607791D01*
X110713038Y-112607795D01*
X110713041Y-112607797D01*
X110917412Y-112718398D01*
X111137200Y-112793851D01*
X111366410Y-112832099D01*
X111598790Y-112832099D01*
X111828000Y-112793851D01*
X112047788Y-112718398D01*
X112252159Y-112607797D01*
X112435539Y-112465067D01*
X112592925Y-112294100D01*
X112720025Y-112099560D01*
X112813371Y-111886753D01*
X112870416Y-111661485D01*
X112889606Y-111429899D01*
X112889606Y-111429893D01*
X115075594Y-111429893D01*
X115075594Y-111429904D01*
X115094783Y-111661481D01*
X115151829Y-111886753D01*
X115245175Y-112099561D01*
X115343857Y-112250604D01*
X115372275Y-112294100D01*
X115529661Y-112465067D01*
X115529664Y-112465069D01*
X115529667Y-112465072D01*
X115713032Y-112607791D01*
X115713038Y-112607795D01*
X115713041Y-112607797D01*
X115917412Y-112718398D01*
X116137200Y-112793851D01*
X116366410Y-112832099D01*
X116598790Y-112832099D01*
X116828000Y-112793851D01*
X117047788Y-112718398D01*
X117252159Y-112607797D01*
X117435539Y-112465067D01*
X117592925Y-112294100D01*
X117720025Y-112099560D01*
X117813371Y-111886753D01*
X117870416Y-111661485D01*
X117889606Y-111429899D01*
X117886002Y-111386411D01*
X117870416Y-111198316D01*
X117870416Y-111198313D01*
X117813371Y-110973045D01*
X117720025Y-110760238D01*
X117691609Y-110716745D01*
X117592926Y-110565700D01*
X117592925Y-110565698D01*
X117435539Y-110394731D01*
X117435534Y-110394727D01*
X117435532Y-110394725D01*
X117252167Y-110252006D01*
X117252161Y-110252002D01*
X117047788Y-110141400D01*
X117047780Y-110141397D01*
X116828002Y-110065947D01*
X116598790Y-110027699D01*
X116366410Y-110027699D01*
X116137197Y-110065947D01*
X115917419Y-110141397D01*
X115917411Y-110141400D01*
X115713038Y-110252002D01*
X115713032Y-110252006D01*
X115529667Y-110394725D01*
X115529664Y-110394728D01*
X115372276Y-110565696D01*
X115372273Y-110565700D01*
X115245175Y-110760236D01*
X115151829Y-110973044D01*
X115094783Y-111198316D01*
X115075594Y-111429893D01*
X112889606Y-111429893D01*
X112886002Y-111386411D01*
X112870416Y-111198316D01*
X112870416Y-111198313D01*
X112813371Y-110973045D01*
X112720025Y-110760238D01*
X112691609Y-110716745D01*
X112592926Y-110565700D01*
X112592925Y-110565698D01*
X112435539Y-110394731D01*
X112435534Y-110394727D01*
X112435532Y-110394725D01*
X112252167Y-110252006D01*
X112252161Y-110252002D01*
X112047788Y-110141400D01*
X112047780Y-110141397D01*
X111828002Y-110065947D01*
X111598790Y-110027699D01*
X111366410Y-110027699D01*
X111137197Y-110065947D01*
X110917419Y-110141397D01*
X110917411Y-110141400D01*
X110713038Y-110252002D01*
X110713032Y-110252006D01*
X110529667Y-110394725D01*
X110529664Y-110394728D01*
X110372276Y-110565696D01*
X110372273Y-110565700D01*
X110245175Y-110760236D01*
X110151829Y-110973044D01*
X110094783Y-111198316D01*
X110075594Y-111429893D01*
X108477702Y-111429893D01*
X108477701Y-106797320D01*
X108471293Y-106737709D01*
X108455071Y-106694216D01*
X108420999Y-106602863D01*
X108420995Y-106602856D01*
X108334749Y-106487647D01*
X108334746Y-106487644D01*
X108219537Y-106401398D01*
X108219530Y-106401394D01*
X108084684Y-106351100D01*
X108084685Y-106351100D01*
X108025085Y-106344693D01*
X108025083Y-106344692D01*
X108025075Y-106344692D01*
X108025066Y-106344692D01*
X105440131Y-106344692D01*
X105440125Y-106344693D01*
X105380518Y-106351100D01*
X105245673Y-106401394D01*
X105245666Y-106401398D01*
X105130457Y-106487644D01*
X105130454Y-106487647D01*
X105044208Y-106602856D01*
X105044204Y-106602863D01*
X104993910Y-106737709D01*
X104992177Y-106753834D01*
X104987503Y-106797315D01*
X104987502Y-106797327D01*
X98600500Y-106797327D01*
X98600500Y-105937435D01*
X112037600Y-105937435D01*
X112037600Y-108522370D01*
X112037601Y-108522376D01*
X112044008Y-108581983D01*
X112094302Y-108716828D01*
X112094306Y-108716835D01*
X112180552Y-108832044D01*
X112180555Y-108832047D01*
X112295764Y-108918293D01*
X112295771Y-108918297D01*
X112430617Y-108968591D01*
X112430616Y-108968591D01*
X112437544Y-108969335D01*
X112490227Y-108975000D01*
X113474972Y-108974999D01*
X113534583Y-108968591D01*
X113669431Y-108918296D01*
X113784646Y-108832046D01*
X113870896Y-108716831D01*
X113870896Y-108716828D01*
X113873766Y-108711575D01*
X113923170Y-108662168D01*
X113991442Y-108647314D01*
X114056907Y-108671728D01*
X114091431Y-108711568D01*
X114094307Y-108716835D01*
X114180553Y-108832044D01*
X114180556Y-108832047D01*
X114295765Y-108918293D01*
X114295772Y-108918297D01*
X114430618Y-108968591D01*
X114430617Y-108968591D01*
X114437545Y-108969335D01*
X114490228Y-108975000D01*
X115474973Y-108974999D01*
X115534584Y-108968591D01*
X115669432Y-108918296D01*
X115784647Y-108832046D01*
X115827772Y-108774438D01*
X115870896Y-108716833D01*
X115873768Y-108711574D01*
X115923174Y-108662169D01*
X115991447Y-108647317D01*
X116056911Y-108671734D01*
X116091432Y-108711574D01*
X116094303Y-108716833D01*
X116180551Y-108832044D01*
X116180554Y-108832047D01*
X116295763Y-108918293D01*
X116295770Y-108918297D01*
X116430616Y-108968591D01*
X116430615Y-108968591D01*
X116437543Y-108969335D01*
X116490226Y-108975000D01*
X117474971Y-108974999D01*
X117534582Y-108968591D01*
X117669430Y-108918296D01*
X117784645Y-108832046D01*
X117870895Y-108716831D01*
X117921190Y-108581983D01*
X117927599Y-108522373D01*
X117927598Y-106797327D01*
X119487498Y-106797327D01*
X119487498Y-112049262D01*
X119487499Y-112049268D01*
X119493906Y-112108875D01*
X119544200Y-112243720D01*
X119544204Y-112243727D01*
X119630450Y-112358936D01*
X119630453Y-112358939D01*
X119745662Y-112445185D01*
X119745669Y-112445189D01*
X119880515Y-112495483D01*
X119880514Y-112495483D01*
X119887442Y-112496227D01*
X119940125Y-112501892D01*
X122525070Y-112501891D01*
X122584681Y-112495483D01*
X122719529Y-112445188D01*
X122834744Y-112358938D01*
X122920994Y-112243723D01*
X122971289Y-112108875D01*
X122977698Y-112049265D01*
X122977697Y-106797320D01*
X122973022Y-106753834D01*
X125254904Y-106753834D01*
X125254904Y-112005769D01*
X125254905Y-112005775D01*
X125261312Y-112065382D01*
X125311606Y-112200227D01*
X125311610Y-112200234D01*
X125397856Y-112315443D01*
X125397859Y-112315446D01*
X125513068Y-112401692D01*
X125513075Y-112401696D01*
X125647921Y-112451990D01*
X125647920Y-112451990D01*
X125654848Y-112452734D01*
X125707531Y-112458399D01*
X128292476Y-112458398D01*
X128352087Y-112451990D01*
X128486935Y-112401695D01*
X128602150Y-112315445D01*
X128688400Y-112200230D01*
X128738695Y-112065382D01*
X128745104Y-112005772D01*
X128745104Y-111386400D01*
X130342996Y-111386400D01*
X130342996Y-111386411D01*
X130362185Y-111617988D01*
X130419231Y-111843260D01*
X130512577Y-112056068D01*
X130635177Y-112243720D01*
X130639677Y-112250607D01*
X130797063Y-112421574D01*
X130797066Y-112421576D01*
X130797069Y-112421579D01*
X130980434Y-112564298D01*
X130980440Y-112564302D01*
X130980443Y-112564304D01*
X131184814Y-112674905D01*
X131404602Y-112750358D01*
X131633812Y-112788606D01*
X131866192Y-112788606D01*
X132095402Y-112750358D01*
X132315190Y-112674905D01*
X132519561Y-112564304D01*
X132702941Y-112421574D01*
X132860327Y-112250607D01*
X132987427Y-112056067D01*
X133080773Y-111843260D01*
X133137818Y-111617992D01*
X133157008Y-111386406D01*
X133157008Y-111386400D01*
X135342996Y-111386400D01*
X135342996Y-111386411D01*
X135362185Y-111617988D01*
X135419231Y-111843260D01*
X135512577Y-112056068D01*
X135635177Y-112243720D01*
X135639677Y-112250607D01*
X135797063Y-112421574D01*
X135797066Y-112421576D01*
X135797069Y-112421579D01*
X135980434Y-112564298D01*
X135980440Y-112564302D01*
X135980443Y-112564304D01*
X136184814Y-112674905D01*
X136404602Y-112750358D01*
X136633812Y-112788606D01*
X136866192Y-112788606D01*
X137095402Y-112750358D01*
X137315190Y-112674905D01*
X137519561Y-112564304D01*
X137702941Y-112421574D01*
X137860327Y-112250607D01*
X137987427Y-112056067D01*
X138080773Y-111843260D01*
X138137818Y-111617992D01*
X138157008Y-111386406D01*
X138137818Y-111154820D01*
X138080773Y-110929552D01*
X137987427Y-110716745D01*
X137860327Y-110522205D01*
X137702941Y-110351238D01*
X137702936Y-110351234D01*
X137702934Y-110351232D01*
X137519569Y-110208513D01*
X137519563Y-110208509D01*
X137315190Y-110097907D01*
X137315182Y-110097904D01*
X137095404Y-110022454D01*
X136866192Y-109984206D01*
X136633812Y-109984206D01*
X136404599Y-110022454D01*
X136184821Y-110097904D01*
X136184813Y-110097907D01*
X135980440Y-110208509D01*
X135980434Y-110208513D01*
X135797069Y-110351232D01*
X135797066Y-110351235D01*
X135639678Y-110522203D01*
X135639675Y-110522207D01*
X135512577Y-110716743D01*
X135419231Y-110929551D01*
X135362185Y-111154823D01*
X135342996Y-111386400D01*
X133157008Y-111386400D01*
X133137818Y-111154820D01*
X133080773Y-110929552D01*
X132987427Y-110716745D01*
X132860327Y-110522205D01*
X132702941Y-110351238D01*
X132702936Y-110351234D01*
X132702934Y-110351232D01*
X132519569Y-110208513D01*
X132519563Y-110208509D01*
X132315190Y-110097907D01*
X132315182Y-110097904D01*
X132095404Y-110022454D01*
X131866192Y-109984206D01*
X131633812Y-109984206D01*
X131404599Y-110022454D01*
X131184821Y-110097904D01*
X131184813Y-110097907D01*
X130980440Y-110208509D01*
X130980434Y-110208513D01*
X130797069Y-110351232D01*
X130797066Y-110351235D01*
X130639678Y-110522203D01*
X130639675Y-110522207D01*
X130512577Y-110716743D01*
X130419231Y-110929551D01*
X130362185Y-111154823D01*
X130342996Y-111386400D01*
X128745104Y-111386400D01*
X128745103Y-106753827D01*
X128738695Y-106694216D01*
X128688400Y-106559368D01*
X128688399Y-106559367D01*
X128688397Y-106559363D01*
X128602151Y-106444154D01*
X128602148Y-106444151D01*
X128486939Y-106357905D01*
X128486932Y-106357901D01*
X128352086Y-106307607D01*
X128352087Y-106307607D01*
X128292487Y-106301200D01*
X128292485Y-106301199D01*
X128292477Y-106301199D01*
X128292468Y-106301199D01*
X125707533Y-106301199D01*
X125707527Y-106301200D01*
X125647920Y-106307607D01*
X125513075Y-106357901D01*
X125513068Y-106357905D01*
X125397859Y-106444151D01*
X125397856Y-106444154D01*
X125311610Y-106559363D01*
X125311606Y-106559370D01*
X125261312Y-106694216D01*
X125254905Y-106753815D01*
X125254905Y-106753822D01*
X125254904Y-106753834D01*
X122973022Y-106753834D01*
X122971289Y-106737709D01*
X122955067Y-106694216D01*
X122920995Y-106602863D01*
X122920991Y-106602856D01*
X122834745Y-106487647D01*
X122834742Y-106487644D01*
X122719533Y-106401398D01*
X122719526Y-106401394D01*
X122584680Y-106351100D01*
X122584681Y-106351100D01*
X122525081Y-106344693D01*
X122525079Y-106344692D01*
X122525071Y-106344692D01*
X122525062Y-106344692D01*
X119940127Y-106344692D01*
X119940121Y-106344693D01*
X119880514Y-106351100D01*
X119745669Y-106401394D01*
X119745662Y-106401398D01*
X119630453Y-106487644D01*
X119630450Y-106487647D01*
X119544204Y-106602856D01*
X119544200Y-106602863D01*
X119493906Y-106737709D01*
X119492173Y-106753834D01*
X119487499Y-106797315D01*
X119487498Y-106797327D01*
X117927598Y-106797327D01*
X117927598Y-105937428D01*
X117922923Y-105893942D01*
X132305002Y-105893942D01*
X132305002Y-108478877D01*
X132305003Y-108478883D01*
X132311410Y-108538490D01*
X132361704Y-108673335D01*
X132361708Y-108673342D01*
X132447954Y-108788551D01*
X132447957Y-108788554D01*
X132563166Y-108874800D01*
X132563173Y-108874804D01*
X132698019Y-108925098D01*
X132698018Y-108925098D01*
X132704946Y-108925842D01*
X132757629Y-108931507D01*
X133742374Y-108931506D01*
X133801985Y-108925098D01*
X133936833Y-108874803D01*
X134052048Y-108788553D01*
X134138298Y-108673338D01*
X134138298Y-108673335D01*
X134141168Y-108668082D01*
X134190572Y-108618675D01*
X134258844Y-108603821D01*
X134324309Y-108628235D01*
X134358833Y-108668075D01*
X134361709Y-108673342D01*
X134447955Y-108788551D01*
X134447958Y-108788554D01*
X134563167Y-108874800D01*
X134563174Y-108874804D01*
X134698020Y-108925098D01*
X134698019Y-108925098D01*
X134704947Y-108925842D01*
X134757630Y-108931507D01*
X135742375Y-108931506D01*
X135801986Y-108925098D01*
X135936834Y-108874803D01*
X136052049Y-108788553D01*
X136109680Y-108711568D01*
X136138298Y-108673340D01*
X136141170Y-108668081D01*
X136190576Y-108618676D01*
X136258849Y-108603824D01*
X136324313Y-108628241D01*
X136358834Y-108668081D01*
X136361705Y-108673340D01*
X136447953Y-108788551D01*
X136447956Y-108788554D01*
X136563165Y-108874800D01*
X136563172Y-108874804D01*
X136698018Y-108925098D01*
X136698017Y-108925098D01*
X136704945Y-108925842D01*
X136757628Y-108931507D01*
X137742373Y-108931506D01*
X137801984Y-108925098D01*
X137936832Y-108874803D01*
X138052047Y-108788553D01*
X138138297Y-108673338D01*
X138188592Y-108538490D01*
X138195001Y-108478880D01*
X138195000Y-106753834D01*
X139754900Y-106753834D01*
X139754900Y-112005769D01*
X139754901Y-112005775D01*
X139761308Y-112065382D01*
X139811602Y-112200227D01*
X139811606Y-112200234D01*
X139897852Y-112315443D01*
X139897855Y-112315446D01*
X140013064Y-112401692D01*
X140013071Y-112401696D01*
X140147917Y-112451990D01*
X140147916Y-112451990D01*
X140154844Y-112452734D01*
X140207527Y-112458399D01*
X142792472Y-112458398D01*
X142852083Y-112451990D01*
X142986931Y-112401695D01*
X143102146Y-112315445D01*
X143188396Y-112200230D01*
X143238691Y-112065382D01*
X143245100Y-112005772D01*
X143245099Y-106797327D01*
X144987502Y-106797327D01*
X144987502Y-112049262D01*
X144987503Y-112049268D01*
X144993910Y-112108875D01*
X145044204Y-112243720D01*
X145044208Y-112243727D01*
X145130454Y-112358936D01*
X145130457Y-112358939D01*
X145245666Y-112445185D01*
X145245673Y-112445189D01*
X145380519Y-112495483D01*
X145380518Y-112495483D01*
X145387446Y-112496227D01*
X145440129Y-112501892D01*
X148025074Y-112501891D01*
X148084685Y-112495483D01*
X148219533Y-112445188D01*
X148334748Y-112358938D01*
X148420998Y-112243723D01*
X148471293Y-112108875D01*
X148477702Y-112049265D01*
X148477702Y-111429893D01*
X150075594Y-111429893D01*
X150075594Y-111429904D01*
X150094783Y-111661481D01*
X150151829Y-111886753D01*
X150245175Y-112099561D01*
X150343857Y-112250604D01*
X150372275Y-112294100D01*
X150529661Y-112465067D01*
X150529664Y-112465069D01*
X150529667Y-112465072D01*
X150713032Y-112607791D01*
X150713038Y-112607795D01*
X150713041Y-112607797D01*
X150917412Y-112718398D01*
X151137200Y-112793851D01*
X151366410Y-112832099D01*
X151598790Y-112832099D01*
X151828000Y-112793851D01*
X152047788Y-112718398D01*
X152252159Y-112607797D01*
X152435539Y-112465067D01*
X152592925Y-112294100D01*
X152720025Y-112099560D01*
X152813371Y-111886753D01*
X152870416Y-111661485D01*
X152889606Y-111429899D01*
X152889606Y-111429893D01*
X155075594Y-111429893D01*
X155075594Y-111429904D01*
X155094783Y-111661481D01*
X155151829Y-111886753D01*
X155245175Y-112099561D01*
X155343857Y-112250604D01*
X155372275Y-112294100D01*
X155529661Y-112465067D01*
X155529664Y-112465069D01*
X155529667Y-112465072D01*
X155713032Y-112607791D01*
X155713038Y-112607795D01*
X155713041Y-112607797D01*
X155917412Y-112718398D01*
X156137200Y-112793851D01*
X156366410Y-112832099D01*
X156598790Y-112832099D01*
X156828000Y-112793851D01*
X157047788Y-112718398D01*
X157252159Y-112607797D01*
X157435539Y-112465067D01*
X157592925Y-112294100D01*
X157720025Y-112099560D01*
X157813371Y-111886753D01*
X157870416Y-111661485D01*
X157889606Y-111429899D01*
X157886002Y-111386411D01*
X157870416Y-111198316D01*
X157870416Y-111198313D01*
X157813371Y-110973045D01*
X157720025Y-110760238D01*
X157691609Y-110716745D01*
X157592926Y-110565700D01*
X157592925Y-110565698D01*
X157435539Y-110394731D01*
X157435534Y-110394727D01*
X157435532Y-110394725D01*
X157252167Y-110252006D01*
X157252161Y-110252002D01*
X157047788Y-110141400D01*
X157047780Y-110141397D01*
X156828002Y-110065947D01*
X156598790Y-110027699D01*
X156366410Y-110027699D01*
X156137197Y-110065947D01*
X155917419Y-110141397D01*
X155917411Y-110141400D01*
X155713038Y-110252002D01*
X155713032Y-110252006D01*
X155529667Y-110394725D01*
X155529664Y-110394728D01*
X155372276Y-110565696D01*
X155372273Y-110565700D01*
X155245175Y-110760236D01*
X155151829Y-110973044D01*
X155094783Y-111198316D01*
X155075594Y-111429893D01*
X152889606Y-111429893D01*
X152886002Y-111386411D01*
X152870416Y-111198316D01*
X152870416Y-111198313D01*
X152813371Y-110973045D01*
X152720025Y-110760238D01*
X152691609Y-110716745D01*
X152592926Y-110565700D01*
X152592925Y-110565698D01*
X152435539Y-110394731D01*
X152435534Y-110394727D01*
X152435532Y-110394725D01*
X152252167Y-110252006D01*
X152252161Y-110252002D01*
X152047788Y-110141400D01*
X152047780Y-110141397D01*
X151828002Y-110065947D01*
X151598790Y-110027699D01*
X151366410Y-110027699D01*
X151137197Y-110065947D01*
X150917419Y-110141397D01*
X150917411Y-110141400D01*
X150713038Y-110252002D01*
X150713032Y-110252006D01*
X150529667Y-110394725D01*
X150529664Y-110394728D01*
X150372276Y-110565696D01*
X150372273Y-110565700D01*
X150245175Y-110760236D01*
X150151829Y-110973044D01*
X150094783Y-111198316D01*
X150075594Y-111429893D01*
X148477702Y-111429893D01*
X148477701Y-106797320D01*
X148471293Y-106737709D01*
X148455071Y-106694216D01*
X148420999Y-106602863D01*
X148420995Y-106602856D01*
X148334749Y-106487647D01*
X148334746Y-106487644D01*
X148219537Y-106401398D01*
X148219530Y-106401394D01*
X148084684Y-106351100D01*
X148084685Y-106351100D01*
X148025085Y-106344693D01*
X148025083Y-106344692D01*
X148025075Y-106344692D01*
X148025066Y-106344692D01*
X145440131Y-106344692D01*
X145440125Y-106344693D01*
X145380518Y-106351100D01*
X145245673Y-106401394D01*
X145245666Y-106401398D01*
X145130457Y-106487644D01*
X145130454Y-106487647D01*
X145044208Y-106602856D01*
X145044204Y-106602863D01*
X144993910Y-106737709D01*
X144992177Y-106753834D01*
X144987503Y-106797315D01*
X144987502Y-106797327D01*
X143245099Y-106797327D01*
X143245099Y-106753827D01*
X143238691Y-106694216D01*
X143188396Y-106559368D01*
X143188395Y-106559367D01*
X143188393Y-106559363D01*
X143102147Y-106444154D01*
X143102144Y-106444151D01*
X142986935Y-106357905D01*
X142986928Y-106357901D01*
X142852082Y-106307607D01*
X142852083Y-106307607D01*
X142792483Y-106301200D01*
X142792481Y-106301199D01*
X142792473Y-106301199D01*
X142792464Y-106301199D01*
X140207529Y-106301199D01*
X140207523Y-106301200D01*
X140147916Y-106307607D01*
X140013071Y-106357901D01*
X140013064Y-106357905D01*
X139897855Y-106444151D01*
X139897852Y-106444154D01*
X139811606Y-106559363D01*
X139811602Y-106559370D01*
X139761308Y-106694216D01*
X139754901Y-106753815D01*
X139754901Y-106753822D01*
X139754900Y-106753834D01*
X138195000Y-106753834D01*
X138195000Y-105937435D01*
X152037600Y-105937435D01*
X152037600Y-108522370D01*
X152037601Y-108522376D01*
X152044008Y-108581983D01*
X152094302Y-108716828D01*
X152094306Y-108716835D01*
X152180552Y-108832044D01*
X152180555Y-108832047D01*
X152295764Y-108918293D01*
X152295771Y-108918297D01*
X152430617Y-108968591D01*
X152430616Y-108968591D01*
X152437544Y-108969335D01*
X152490227Y-108975000D01*
X153474972Y-108974999D01*
X153534583Y-108968591D01*
X153669431Y-108918296D01*
X153784646Y-108832046D01*
X153870896Y-108716831D01*
X153870896Y-108716828D01*
X153873766Y-108711575D01*
X153923170Y-108662168D01*
X153991442Y-108647314D01*
X154056907Y-108671728D01*
X154091431Y-108711568D01*
X154094307Y-108716835D01*
X154180553Y-108832044D01*
X154180556Y-108832047D01*
X154295765Y-108918293D01*
X154295772Y-108918297D01*
X154430618Y-108968591D01*
X154430617Y-108968591D01*
X154437545Y-108969335D01*
X154490228Y-108975000D01*
X155474973Y-108974999D01*
X155534584Y-108968591D01*
X155669432Y-108918296D01*
X155784647Y-108832046D01*
X155827772Y-108774438D01*
X155870896Y-108716833D01*
X155873768Y-108711574D01*
X155923174Y-108662169D01*
X155991447Y-108647317D01*
X156056911Y-108671734D01*
X156091432Y-108711574D01*
X156094303Y-108716833D01*
X156180551Y-108832044D01*
X156180554Y-108832047D01*
X156295763Y-108918293D01*
X156295770Y-108918297D01*
X156430616Y-108968591D01*
X156430615Y-108968591D01*
X156437543Y-108969335D01*
X156490226Y-108975000D01*
X157474971Y-108974999D01*
X157534582Y-108968591D01*
X157669430Y-108918296D01*
X157784645Y-108832046D01*
X157870895Y-108716831D01*
X157921190Y-108581983D01*
X157927599Y-108522373D01*
X157927598Y-106797327D01*
X159487498Y-106797327D01*
X159487498Y-112049262D01*
X159487499Y-112049268D01*
X159493906Y-112108875D01*
X159544200Y-112243720D01*
X159544204Y-112243727D01*
X159630450Y-112358936D01*
X159630453Y-112358939D01*
X159745662Y-112445185D01*
X159745669Y-112445189D01*
X159880515Y-112495483D01*
X159880514Y-112495483D01*
X159887442Y-112496227D01*
X159940125Y-112501892D01*
X162525070Y-112501891D01*
X162584681Y-112495483D01*
X162719529Y-112445188D01*
X162834744Y-112358938D01*
X162920994Y-112243723D01*
X162971289Y-112108875D01*
X162977698Y-112049265D01*
X162977697Y-106797320D01*
X162971289Y-106737709D01*
X162955067Y-106694216D01*
X162920995Y-106602863D01*
X162920991Y-106602856D01*
X162834745Y-106487647D01*
X162834742Y-106487644D01*
X162719533Y-106401398D01*
X162719526Y-106401394D01*
X162584680Y-106351100D01*
X162584681Y-106351100D01*
X162525081Y-106344693D01*
X162525079Y-106344692D01*
X162525071Y-106344692D01*
X162525062Y-106344692D01*
X159940127Y-106344692D01*
X159940121Y-106344693D01*
X159880514Y-106351100D01*
X159745669Y-106401394D01*
X159745662Y-106401398D01*
X159630453Y-106487644D01*
X159630450Y-106487647D01*
X159544204Y-106602856D01*
X159544200Y-106602863D01*
X159493906Y-106737709D01*
X159492173Y-106753834D01*
X159487499Y-106797315D01*
X159487498Y-106797327D01*
X157927598Y-106797327D01*
X157927598Y-105937428D01*
X157921190Y-105877817D01*
X157904968Y-105834324D01*
X157870896Y-105742971D01*
X157870892Y-105742964D01*
X157784646Y-105627755D01*
X157784643Y-105627752D01*
X157669434Y-105541506D01*
X157669427Y-105541502D01*
X157534581Y-105491208D01*
X157534582Y-105491208D01*
X157474982Y-105484801D01*
X157474980Y-105484800D01*
X157474972Y-105484800D01*
X157474963Y-105484800D01*
X156490228Y-105484800D01*
X156490222Y-105484801D01*
X156430615Y-105491208D01*
X156295770Y-105541502D01*
X156295763Y-105541506D01*
X156180554Y-105627752D01*
X156180551Y-105627755D01*
X156094303Y-105742967D01*
X156091430Y-105748229D01*
X156042023Y-105797632D01*
X155973749Y-105812482D01*
X155908286Y-105788062D01*
X155873770Y-105748229D01*
X155870896Y-105742967D01*
X155784648Y-105627755D01*
X155784645Y-105627752D01*
X155669436Y-105541506D01*
X155669429Y-105541502D01*
X155534583Y-105491208D01*
X155534584Y-105491208D01*
X155474984Y-105484801D01*
X155474982Y-105484800D01*
X155474974Y-105484800D01*
X155474965Y-105484800D01*
X154490230Y-105484800D01*
X154490224Y-105484801D01*
X154430617Y-105491208D01*
X154295772Y-105541502D01*
X154295765Y-105541506D01*
X154180556Y-105627752D01*
X154180553Y-105627755D01*
X154094304Y-105742967D01*
X154091429Y-105748234D01*
X154042021Y-105797637D01*
X153973747Y-105812485D01*
X153908284Y-105788064D01*
X153873768Y-105748228D01*
X153870894Y-105742966D01*
X153784647Y-105627755D01*
X153784644Y-105627752D01*
X153669435Y-105541506D01*
X153669428Y-105541502D01*
X153534582Y-105491208D01*
X153534583Y-105491208D01*
X153474983Y-105484801D01*
X153474981Y-105484800D01*
X153474973Y-105484800D01*
X153474964Y-105484800D01*
X152490229Y-105484800D01*
X152490223Y-105484801D01*
X152430616Y-105491208D01*
X152295771Y-105541502D01*
X152295764Y-105541506D01*
X152180555Y-105627752D01*
X152180552Y-105627755D01*
X152094306Y-105742964D01*
X152094302Y-105742971D01*
X152044008Y-105877817D01*
X152042275Y-105893942D01*
X152037601Y-105937423D01*
X152037600Y-105937435D01*
X138195000Y-105937435D01*
X138195000Y-105893935D01*
X138188592Y-105834324D01*
X138180445Y-105812482D01*
X138138298Y-105699478D01*
X138138294Y-105699471D01*
X138052048Y-105584262D01*
X138052045Y-105584259D01*
X137936836Y-105498013D01*
X137936829Y-105498009D01*
X137801983Y-105447715D01*
X137801984Y-105447715D01*
X137742384Y-105441308D01*
X137742382Y-105441307D01*
X137742374Y-105441307D01*
X137742365Y-105441307D01*
X136757630Y-105441307D01*
X136757624Y-105441308D01*
X136698017Y-105447715D01*
X136563172Y-105498009D01*
X136563165Y-105498013D01*
X136447956Y-105584259D01*
X136447953Y-105584262D01*
X136361705Y-105699474D01*
X136358832Y-105704736D01*
X136309425Y-105754139D01*
X136241151Y-105768989D01*
X136175688Y-105744569D01*
X136141172Y-105704736D01*
X136138298Y-105699474D01*
X136052050Y-105584262D01*
X136052047Y-105584259D01*
X135936838Y-105498013D01*
X135936831Y-105498009D01*
X135801985Y-105447715D01*
X135801986Y-105447715D01*
X135742386Y-105441308D01*
X135742384Y-105441307D01*
X135742376Y-105441307D01*
X135742367Y-105441307D01*
X134757632Y-105441307D01*
X134757626Y-105441308D01*
X134698019Y-105447715D01*
X134563174Y-105498009D01*
X134563167Y-105498013D01*
X134447958Y-105584259D01*
X134447955Y-105584262D01*
X134361706Y-105699474D01*
X134358831Y-105704741D01*
X134309423Y-105754144D01*
X134241149Y-105768992D01*
X134175686Y-105744571D01*
X134141170Y-105704735D01*
X134138296Y-105699473D01*
X134052049Y-105584262D01*
X134052046Y-105584259D01*
X133936837Y-105498013D01*
X133936830Y-105498009D01*
X133801984Y-105447715D01*
X133801985Y-105447715D01*
X133742385Y-105441308D01*
X133742383Y-105441307D01*
X133742375Y-105441307D01*
X133742366Y-105441307D01*
X132757631Y-105441307D01*
X132757625Y-105441308D01*
X132698018Y-105447715D01*
X132563173Y-105498009D01*
X132563166Y-105498013D01*
X132447957Y-105584259D01*
X132447954Y-105584262D01*
X132361708Y-105699471D01*
X132361704Y-105699478D01*
X132311410Y-105834324D01*
X132305003Y-105893923D01*
X132305003Y-105893930D01*
X132305002Y-105893942D01*
X117922923Y-105893942D01*
X117921190Y-105877817D01*
X117904968Y-105834324D01*
X117870896Y-105742971D01*
X117870892Y-105742964D01*
X117784646Y-105627755D01*
X117784643Y-105627752D01*
X117669434Y-105541506D01*
X117669427Y-105541502D01*
X117534581Y-105491208D01*
X117534582Y-105491208D01*
X117474982Y-105484801D01*
X117474980Y-105484800D01*
X117474972Y-105484800D01*
X117474963Y-105484800D01*
X116490228Y-105484800D01*
X116490222Y-105484801D01*
X116430615Y-105491208D01*
X116295770Y-105541502D01*
X116295763Y-105541506D01*
X116180554Y-105627752D01*
X116180551Y-105627755D01*
X116094303Y-105742967D01*
X116091430Y-105748229D01*
X116042023Y-105797632D01*
X115973749Y-105812482D01*
X115908286Y-105788062D01*
X115873770Y-105748229D01*
X115870896Y-105742967D01*
X115784648Y-105627755D01*
X115784645Y-105627752D01*
X115669436Y-105541506D01*
X115669429Y-105541502D01*
X115534583Y-105491208D01*
X115534584Y-105491208D01*
X115474984Y-105484801D01*
X115474982Y-105484800D01*
X115474974Y-105484800D01*
X115474965Y-105484800D01*
X114490230Y-105484800D01*
X114490224Y-105484801D01*
X114430617Y-105491208D01*
X114295772Y-105541502D01*
X114295765Y-105541506D01*
X114180556Y-105627752D01*
X114180553Y-105627755D01*
X114094304Y-105742967D01*
X114091429Y-105748234D01*
X114042021Y-105797637D01*
X113973747Y-105812485D01*
X113908284Y-105788064D01*
X113873768Y-105748228D01*
X113870894Y-105742966D01*
X113784647Y-105627755D01*
X113784644Y-105627752D01*
X113669435Y-105541506D01*
X113669428Y-105541502D01*
X113534582Y-105491208D01*
X113534583Y-105491208D01*
X113474983Y-105484801D01*
X113474981Y-105484800D01*
X113474973Y-105484800D01*
X113474964Y-105484800D01*
X112490229Y-105484800D01*
X112490223Y-105484801D01*
X112430616Y-105491208D01*
X112295771Y-105541502D01*
X112295764Y-105541506D01*
X112180555Y-105627752D01*
X112180552Y-105627755D01*
X112094306Y-105742964D01*
X112094302Y-105742971D01*
X112044008Y-105877817D01*
X112042275Y-105893942D01*
X112037601Y-105937423D01*
X112037600Y-105937435D01*
X98600500Y-105937435D01*
X98600500Y-97752135D01*
X107649500Y-97752135D01*
X107649500Y-98747870D01*
X107649501Y-98747876D01*
X107655908Y-98807483D01*
X107706202Y-98942328D01*
X107706206Y-98942335D01*
X107792452Y-99057544D01*
X107792455Y-99057547D01*
X107907664Y-99143793D01*
X107907671Y-99143797D01*
X108042517Y-99194091D01*
X108042516Y-99194091D01*
X108049444Y-99194835D01*
X108102127Y-99200500D01*
X110197872Y-99200499D01*
X110257483Y-99194091D01*
X110392331Y-99143796D01*
X110507546Y-99057546D01*
X110593796Y-98942331D01*
X110644091Y-98807483D01*
X110650500Y-98747873D01*
X110650499Y-97752135D01*
X157349500Y-97752135D01*
X157349500Y-98747870D01*
X157349501Y-98747876D01*
X157355908Y-98807483D01*
X157406202Y-98942328D01*
X157406206Y-98942335D01*
X157492452Y-99057544D01*
X157492455Y-99057547D01*
X157607664Y-99143793D01*
X157607671Y-99143797D01*
X157742517Y-99194091D01*
X157742516Y-99194091D01*
X157749444Y-99194835D01*
X157802127Y-99200500D01*
X159897872Y-99200499D01*
X159957483Y-99194091D01*
X160092331Y-99143796D01*
X160207546Y-99057546D01*
X160293796Y-98942331D01*
X160344091Y-98807483D01*
X160350500Y-98747873D01*
X160350499Y-97752128D01*
X160344091Y-97692517D01*
X160328419Y-97650499D01*
X160293797Y-97557671D01*
X160293793Y-97557664D01*
X160207547Y-97442455D01*
X160207544Y-97442452D01*
X160092335Y-97356206D01*
X160092328Y-97356202D01*
X159957482Y-97305908D01*
X159957483Y-97305908D01*
X159897883Y-97299501D01*
X159897881Y-97299500D01*
X159897873Y-97299500D01*
X159897864Y-97299500D01*
X157802129Y-97299500D01*
X157802123Y-97299501D01*
X157742516Y-97305908D01*
X157607671Y-97356202D01*
X157607664Y-97356206D01*
X157492455Y-97442452D01*
X157492452Y-97442455D01*
X157406206Y-97557664D01*
X157406202Y-97557671D01*
X157355908Y-97692517D01*
X157349501Y-97752116D01*
X157349501Y-97752123D01*
X157349500Y-97752135D01*
X110650499Y-97752135D01*
X110650499Y-97752128D01*
X110644091Y-97692517D01*
X110628419Y-97650499D01*
X110593797Y-97557671D01*
X110593793Y-97557664D01*
X110507547Y-97442455D01*
X110507544Y-97442452D01*
X110392335Y-97356206D01*
X110392328Y-97356202D01*
X110257482Y-97305908D01*
X110257483Y-97305908D01*
X110197883Y-97299501D01*
X110197881Y-97299500D01*
X110197873Y-97299500D01*
X110197864Y-97299500D01*
X108102129Y-97299500D01*
X108102123Y-97299501D01*
X108042516Y-97305908D01*
X107907671Y-97356202D01*
X107907664Y-97356206D01*
X107792455Y-97442452D01*
X107792452Y-97442455D01*
X107706206Y-97557664D01*
X107706202Y-97557671D01*
X107655908Y-97692517D01*
X107649501Y-97752116D01*
X107649501Y-97752123D01*
X107649500Y-97752135D01*
X98600500Y-97752135D01*
X98600500Y-94004702D01*
X112599500Y-94004702D01*
X112599500Y-96195292D01*
X112599501Y-96195298D01*
X112609718Y-96340027D01*
X112609718Y-96340031D01*
X112609719Y-96340034D01*
X112609720Y-96340038D01*
X112663834Y-96580314D01*
X112663835Y-96580319D01*
X112755795Y-96808809D01*
X112883216Y-97019589D01*
X112883219Y-97019592D01*
X113042798Y-97207201D01*
X113151309Y-97299500D01*
X113230411Y-97366784D01*
X113441191Y-97494205D01*
X113669683Y-97586165D01*
X113909966Y-97640281D01*
X114054705Y-97650500D01*
X116245294Y-97650499D01*
X116390034Y-97640281D01*
X116630317Y-97586165D01*
X116858809Y-97494205D01*
X117069589Y-97366784D01*
X117257201Y-97207201D01*
X117416784Y-97019589D01*
X117544205Y-96808809D01*
X117636165Y-96580317D01*
X117690281Y-96340034D01*
X117700500Y-96195295D01*
X117700499Y-94004706D01*
X117690281Y-93859966D01*
X117636165Y-93619683D01*
X117544205Y-93391191D01*
X117416784Y-93180411D01*
X117350930Y-93102990D01*
X117257201Y-92992798D01*
X117127654Y-92882606D01*
X117069589Y-92833216D01*
X116858809Y-92705795D01*
X116630318Y-92613835D01*
X116390036Y-92559719D01*
X116390029Y-92559718D01*
X116245296Y-92549500D01*
X114054707Y-92549500D01*
X114054701Y-92549501D01*
X113909972Y-92559718D01*
X113909966Y-92559718D01*
X113909966Y-92559719D01*
X113909963Y-92559719D01*
X113909961Y-92559720D01*
X113669685Y-92613834D01*
X113669680Y-92613835D01*
X113441190Y-92705795D01*
X113441185Y-92705798D01*
X113230417Y-92833212D01*
X113230407Y-92833219D01*
X113042798Y-92992798D01*
X112883219Y-93180407D01*
X112883212Y-93180417D01*
X112755798Y-93391185D01*
X112755795Y-93391190D01*
X112663835Y-93619680D01*
X112663835Y-93619682D01*
X112609719Y-93859963D01*
X112609718Y-93859970D01*
X112599500Y-94004702D01*
X98600500Y-94004702D01*
X98600500Y-86804702D01*
X150299500Y-86804702D01*
X150299500Y-88995292D01*
X150299501Y-88995298D01*
X150309718Y-89140027D01*
X150309718Y-89140031D01*
X150309719Y-89140034D01*
X150309720Y-89140038D01*
X150363834Y-89380314D01*
X150363835Y-89380319D01*
X150455795Y-89608809D01*
X150583216Y-89819589D01*
X150583219Y-89819592D01*
X150742798Y-90007201D01*
X150852990Y-90100930D01*
X150930411Y-90166784D01*
X151141191Y-90294205D01*
X151369683Y-90386165D01*
X151609966Y-90440281D01*
X151754705Y-90450500D01*
X153945294Y-90450499D01*
X154090034Y-90440281D01*
X154330317Y-90386165D01*
X154558809Y-90294205D01*
X154769589Y-90166784D01*
X154957201Y-90007201D01*
X155116784Y-89819589D01*
X155244205Y-89608809D01*
X155336165Y-89380317D01*
X155390281Y-89140034D01*
X155400500Y-88995295D01*
X155400499Y-86804706D01*
X155390281Y-86659966D01*
X155336165Y-86419683D01*
X155244205Y-86191191D01*
X155116784Y-85980411D01*
X155050930Y-85902990D01*
X154957201Y-85792798D01*
X154782027Y-85643796D01*
X154769589Y-85633216D01*
X154558809Y-85505795D01*
X154401121Y-85442331D01*
X154330318Y-85413835D01*
X154090036Y-85359719D01*
X154090029Y-85359718D01*
X153945296Y-85349500D01*
X151754707Y-85349500D01*
X151754701Y-85349501D01*
X151609972Y-85359718D01*
X151609966Y-85359718D01*
X151609966Y-85359719D01*
X151609963Y-85359719D01*
X151609961Y-85359720D01*
X151369685Y-85413834D01*
X151369680Y-85413835D01*
X151141190Y-85505795D01*
X151141185Y-85505798D01*
X150930417Y-85633212D01*
X150930407Y-85633219D01*
X150742798Y-85792798D01*
X150583219Y-85980407D01*
X150583212Y-85980417D01*
X150455798Y-86191185D01*
X150455795Y-86191190D01*
X150363835Y-86419680D01*
X150363835Y-86419682D01*
X150309719Y-86659963D01*
X150309718Y-86659970D01*
X150299500Y-86804702D01*
X98600500Y-86804702D01*
X98600500Y-84252135D01*
X107649500Y-84252135D01*
X107649500Y-85247870D01*
X107649501Y-85247876D01*
X107655908Y-85307483D01*
X107706202Y-85442328D01*
X107706206Y-85442335D01*
X107792452Y-85557544D01*
X107792455Y-85557547D01*
X107907664Y-85643793D01*
X107907671Y-85643797D01*
X108042517Y-85694091D01*
X108042516Y-85694091D01*
X108049444Y-85694835D01*
X108102127Y-85700500D01*
X110197872Y-85700499D01*
X110257483Y-85694091D01*
X110392331Y-85643796D01*
X110507546Y-85557546D01*
X110593796Y-85442331D01*
X110644091Y-85307483D01*
X110650500Y-85247873D01*
X110650499Y-84252135D01*
X157349500Y-84252135D01*
X157349500Y-85247870D01*
X157349501Y-85247876D01*
X157355908Y-85307483D01*
X157406202Y-85442328D01*
X157406206Y-85442335D01*
X157492452Y-85557544D01*
X157492455Y-85557547D01*
X157607664Y-85643793D01*
X157607671Y-85643797D01*
X157742517Y-85694091D01*
X157742516Y-85694091D01*
X157749444Y-85694835D01*
X157802127Y-85700500D01*
X159897872Y-85700499D01*
X159957483Y-85694091D01*
X160092331Y-85643796D01*
X160207546Y-85557546D01*
X160293796Y-85442331D01*
X160344091Y-85307483D01*
X160350500Y-85247873D01*
X160350499Y-84252128D01*
X160344091Y-84192517D01*
X160293796Y-84057669D01*
X160293795Y-84057668D01*
X160293793Y-84057664D01*
X160207547Y-83942455D01*
X160207544Y-83942452D01*
X160092335Y-83856206D01*
X160092328Y-83856202D01*
X159957482Y-83805908D01*
X159957483Y-83805908D01*
X159897883Y-83799501D01*
X159897881Y-83799500D01*
X159897873Y-83799500D01*
X159897864Y-83799500D01*
X157802129Y-83799500D01*
X157802123Y-83799501D01*
X157742516Y-83805908D01*
X157607671Y-83856202D01*
X157607664Y-83856206D01*
X157492455Y-83942452D01*
X157492452Y-83942455D01*
X157406206Y-84057664D01*
X157406202Y-84057671D01*
X157355908Y-84192517D01*
X157349501Y-84252116D01*
X157349501Y-84252123D01*
X157349500Y-84252135D01*
X110650499Y-84252135D01*
X110650499Y-84252128D01*
X110644091Y-84192517D01*
X110593796Y-84057669D01*
X110593795Y-84057668D01*
X110593793Y-84057664D01*
X110507547Y-83942455D01*
X110507544Y-83942452D01*
X110392335Y-83856206D01*
X110392328Y-83856202D01*
X110257482Y-83805908D01*
X110257483Y-83805908D01*
X110197883Y-83799501D01*
X110197881Y-83799500D01*
X110197873Y-83799500D01*
X110197864Y-83799500D01*
X108102129Y-83799500D01*
X108102123Y-83799501D01*
X108042516Y-83805908D01*
X107907671Y-83856202D01*
X107907664Y-83856206D01*
X107792455Y-83942452D01*
X107792452Y-83942455D01*
X107706206Y-84057664D01*
X107706202Y-84057671D01*
X107655908Y-84192517D01*
X107649501Y-84252116D01*
X107649501Y-84252123D01*
X107649500Y-84252135D01*
X98600500Y-84252135D01*
X98600500Y-72450744D01*
X105022302Y-72450744D01*
X105022302Y-77702679D01*
X105022303Y-77702685D01*
X105028710Y-77762292D01*
X105079004Y-77897137D01*
X105079008Y-77897144D01*
X105165254Y-78012353D01*
X105165257Y-78012356D01*
X105280466Y-78098602D01*
X105280473Y-78098606D01*
X105415319Y-78148900D01*
X105415318Y-78148900D01*
X105422246Y-78149644D01*
X105474929Y-78155309D01*
X108059874Y-78155308D01*
X108119485Y-78148900D01*
X108254333Y-78098605D01*
X108369548Y-78012355D01*
X108455798Y-77897140D01*
X108506093Y-77762292D01*
X108512502Y-77702682D01*
X108512502Y-75977636D01*
X110072401Y-75977636D01*
X110072401Y-78562571D01*
X110072402Y-78562577D01*
X110078809Y-78622184D01*
X110129103Y-78757029D01*
X110129107Y-78757036D01*
X110215353Y-78872245D01*
X110215356Y-78872248D01*
X110330565Y-78958494D01*
X110330572Y-78958498D01*
X110465418Y-79008792D01*
X110465417Y-79008792D01*
X110472345Y-79009536D01*
X110525028Y-79015201D01*
X111509773Y-79015200D01*
X111569384Y-79008792D01*
X111704232Y-78958497D01*
X111819447Y-78872247D01*
X111862572Y-78814639D01*
X111905696Y-78757034D01*
X111908568Y-78751775D01*
X111957974Y-78702370D01*
X112026247Y-78687518D01*
X112091711Y-78711935D01*
X112126232Y-78751775D01*
X112129103Y-78757034D01*
X112215351Y-78872245D01*
X112215354Y-78872248D01*
X112330563Y-78958494D01*
X112330570Y-78958498D01*
X112465416Y-79008792D01*
X112465415Y-79008792D01*
X112472343Y-79009536D01*
X112525026Y-79015201D01*
X113509771Y-79015200D01*
X113569382Y-79008792D01*
X113704230Y-78958497D01*
X113819445Y-78872247D01*
X113905695Y-78757032D01*
X113905695Y-78757029D01*
X113908565Y-78751776D01*
X113957969Y-78702369D01*
X114026241Y-78687515D01*
X114091706Y-78711929D01*
X114126230Y-78751769D01*
X114129106Y-78757036D01*
X114215352Y-78872245D01*
X114215355Y-78872248D01*
X114330564Y-78958494D01*
X114330571Y-78958498D01*
X114465417Y-79008792D01*
X114465416Y-79008792D01*
X114472344Y-79009536D01*
X114525027Y-79015201D01*
X115509772Y-79015200D01*
X115569383Y-79008792D01*
X115704231Y-78958497D01*
X115819446Y-78872247D01*
X115905696Y-78757032D01*
X115955991Y-78622184D01*
X115962400Y-78562574D01*
X115962399Y-75977629D01*
X115955991Y-75918018D01*
X115922515Y-75828265D01*
X115905697Y-75783172D01*
X115905693Y-75783165D01*
X115819447Y-75667956D01*
X115819444Y-75667953D01*
X115704235Y-75581707D01*
X115704228Y-75581703D01*
X115569382Y-75531409D01*
X115569383Y-75531409D01*
X115509783Y-75525002D01*
X115509781Y-75525001D01*
X115509773Y-75525001D01*
X115509764Y-75525001D01*
X114525029Y-75525001D01*
X114525023Y-75525002D01*
X114465416Y-75531409D01*
X114330571Y-75581703D01*
X114330564Y-75581707D01*
X114215355Y-75667953D01*
X114215352Y-75667956D01*
X114129103Y-75783168D01*
X114126228Y-75788435D01*
X114076820Y-75837838D01*
X114008546Y-75852686D01*
X113943083Y-75828265D01*
X113908567Y-75788429D01*
X113905693Y-75783167D01*
X113819446Y-75667956D01*
X113819443Y-75667953D01*
X113704234Y-75581707D01*
X113704227Y-75581703D01*
X113569381Y-75531409D01*
X113569382Y-75531409D01*
X113509782Y-75525002D01*
X113509780Y-75525001D01*
X113509772Y-75525001D01*
X113509763Y-75525001D01*
X112525028Y-75525001D01*
X112525022Y-75525002D01*
X112465415Y-75531409D01*
X112330570Y-75581703D01*
X112330563Y-75581707D01*
X112215354Y-75667953D01*
X112215351Y-75667956D01*
X112129103Y-75783168D01*
X112126230Y-75788430D01*
X112076823Y-75837833D01*
X112008549Y-75852683D01*
X111943086Y-75828263D01*
X111908570Y-75788430D01*
X111905696Y-75783168D01*
X111819448Y-75667956D01*
X111819445Y-75667953D01*
X111704236Y-75581707D01*
X111704229Y-75581703D01*
X111569383Y-75531409D01*
X111569384Y-75531409D01*
X111509784Y-75525002D01*
X111509782Y-75525001D01*
X111509774Y-75525001D01*
X111509765Y-75525001D01*
X110525030Y-75525001D01*
X110525024Y-75525002D01*
X110465417Y-75531409D01*
X110330572Y-75581703D01*
X110330565Y-75581707D01*
X110215356Y-75667953D01*
X110215353Y-75667956D01*
X110129107Y-75783165D01*
X110129103Y-75783172D01*
X110078809Y-75918018D01*
X110072402Y-75977617D01*
X110072402Y-75977624D01*
X110072401Y-75977636D01*
X108512502Y-75977636D01*
X108512501Y-73070096D01*
X110110394Y-73070096D01*
X110110394Y-73070107D01*
X110129583Y-73301684D01*
X110186629Y-73526956D01*
X110279975Y-73739764D01*
X110407073Y-73934300D01*
X110407075Y-73934303D01*
X110564461Y-74105270D01*
X110564464Y-74105272D01*
X110564467Y-74105275D01*
X110747832Y-74247994D01*
X110747838Y-74247998D01*
X110747841Y-74248000D01*
X110952212Y-74358601D01*
X111172000Y-74434054D01*
X111401210Y-74472302D01*
X111633590Y-74472302D01*
X111862800Y-74434054D01*
X112082588Y-74358601D01*
X112286959Y-74248000D01*
X112470339Y-74105270D01*
X112627725Y-73934303D01*
X112754825Y-73739763D01*
X112848171Y-73526956D01*
X112905216Y-73301688D01*
X112924406Y-73070102D01*
X112924406Y-73070096D01*
X115110394Y-73070096D01*
X115110394Y-73070107D01*
X115129583Y-73301684D01*
X115186629Y-73526956D01*
X115279975Y-73739764D01*
X115407073Y-73934300D01*
X115407075Y-73934303D01*
X115564461Y-74105270D01*
X115564464Y-74105272D01*
X115564467Y-74105275D01*
X115747832Y-74247994D01*
X115747838Y-74247998D01*
X115747841Y-74248000D01*
X115952212Y-74358601D01*
X116172000Y-74434054D01*
X116401210Y-74472302D01*
X116633590Y-74472302D01*
X116862800Y-74434054D01*
X117082588Y-74358601D01*
X117286959Y-74248000D01*
X117470339Y-74105270D01*
X117627725Y-73934303D01*
X117754825Y-73739763D01*
X117848171Y-73526956D01*
X117905216Y-73301688D01*
X117924406Y-73070102D01*
X117905216Y-72838516D01*
X117848171Y-72613248D01*
X117776890Y-72450744D01*
X119522298Y-72450744D01*
X119522298Y-77702679D01*
X119522299Y-77702685D01*
X119528706Y-77762292D01*
X119579000Y-77897137D01*
X119579004Y-77897144D01*
X119665250Y-78012353D01*
X119665253Y-78012356D01*
X119780462Y-78098602D01*
X119780469Y-78098606D01*
X119915315Y-78148900D01*
X119915314Y-78148900D01*
X119922242Y-78149644D01*
X119974925Y-78155309D01*
X122559870Y-78155308D01*
X122619481Y-78148900D01*
X122754329Y-78098605D01*
X122869544Y-78012355D01*
X122955794Y-77897140D01*
X123006089Y-77762292D01*
X123012498Y-77702682D01*
X123012497Y-72450744D01*
X125022302Y-72450744D01*
X125022302Y-77702679D01*
X125022303Y-77702685D01*
X125028710Y-77762292D01*
X125079004Y-77897137D01*
X125079008Y-77897144D01*
X125165254Y-78012353D01*
X125165257Y-78012356D01*
X125280466Y-78098602D01*
X125280473Y-78098606D01*
X125415319Y-78148900D01*
X125415318Y-78148900D01*
X125422246Y-78149644D01*
X125474929Y-78155309D01*
X128059874Y-78155308D01*
X128119485Y-78148900D01*
X128254333Y-78098605D01*
X128369548Y-78012355D01*
X128455798Y-77897140D01*
X128506093Y-77762292D01*
X128512502Y-77702682D01*
X128512502Y-75977636D01*
X130072401Y-75977636D01*
X130072401Y-78562571D01*
X130072402Y-78562577D01*
X130078809Y-78622184D01*
X130129103Y-78757029D01*
X130129107Y-78757036D01*
X130215353Y-78872245D01*
X130215356Y-78872248D01*
X130330565Y-78958494D01*
X130330572Y-78958498D01*
X130465418Y-79008792D01*
X130465417Y-79008792D01*
X130472345Y-79009536D01*
X130525028Y-79015201D01*
X131509773Y-79015200D01*
X131569384Y-79008792D01*
X131704232Y-78958497D01*
X131819447Y-78872247D01*
X131862572Y-78814639D01*
X131905696Y-78757034D01*
X131908568Y-78751775D01*
X131957974Y-78702370D01*
X132026247Y-78687518D01*
X132091711Y-78711935D01*
X132126232Y-78751775D01*
X132129103Y-78757034D01*
X132215351Y-78872245D01*
X132215354Y-78872248D01*
X132330563Y-78958494D01*
X132330570Y-78958498D01*
X132465416Y-79008792D01*
X132465415Y-79008792D01*
X132472343Y-79009536D01*
X132525026Y-79015201D01*
X133509771Y-79015200D01*
X133569382Y-79008792D01*
X133704230Y-78958497D01*
X133819445Y-78872247D01*
X133905695Y-78757032D01*
X133905695Y-78757029D01*
X133908565Y-78751776D01*
X133957969Y-78702369D01*
X134026241Y-78687515D01*
X134091706Y-78711929D01*
X134126230Y-78751769D01*
X134129106Y-78757036D01*
X134215352Y-78872245D01*
X134215355Y-78872248D01*
X134330564Y-78958494D01*
X134330571Y-78958498D01*
X134465417Y-79008792D01*
X134465416Y-79008792D01*
X134472344Y-79009536D01*
X134525027Y-79015201D01*
X135509772Y-79015200D01*
X135569383Y-79008792D01*
X135704231Y-78958497D01*
X135819446Y-78872247D01*
X135905696Y-78757032D01*
X135955991Y-78622184D01*
X135962400Y-78562574D01*
X135962399Y-75977629D01*
X135955991Y-75918018D01*
X135922515Y-75828265D01*
X135905697Y-75783172D01*
X135905693Y-75783165D01*
X135819447Y-75667956D01*
X135819444Y-75667953D01*
X135704235Y-75581707D01*
X135704228Y-75581703D01*
X135569382Y-75531409D01*
X135569383Y-75531409D01*
X135509783Y-75525002D01*
X135509781Y-75525001D01*
X135509773Y-75525001D01*
X135509764Y-75525001D01*
X134525029Y-75525001D01*
X134525023Y-75525002D01*
X134465416Y-75531409D01*
X134330571Y-75581703D01*
X134330564Y-75581707D01*
X134215355Y-75667953D01*
X134215352Y-75667956D01*
X134129103Y-75783168D01*
X134126228Y-75788435D01*
X134076820Y-75837838D01*
X134008546Y-75852686D01*
X133943083Y-75828265D01*
X133908567Y-75788429D01*
X133905693Y-75783167D01*
X133819446Y-75667956D01*
X133819443Y-75667953D01*
X133704234Y-75581707D01*
X133704227Y-75581703D01*
X133569381Y-75531409D01*
X133569382Y-75531409D01*
X133509782Y-75525002D01*
X133509780Y-75525001D01*
X133509772Y-75525001D01*
X133509763Y-75525001D01*
X132525028Y-75525001D01*
X132525022Y-75525002D01*
X132465415Y-75531409D01*
X132330570Y-75581703D01*
X132330563Y-75581707D01*
X132215354Y-75667953D01*
X132215351Y-75667956D01*
X132129103Y-75783168D01*
X132126230Y-75788430D01*
X132076823Y-75837833D01*
X132008549Y-75852683D01*
X131943086Y-75828263D01*
X131908570Y-75788430D01*
X131905696Y-75783168D01*
X131819448Y-75667956D01*
X131819445Y-75667953D01*
X131704236Y-75581707D01*
X131704229Y-75581703D01*
X131569383Y-75531409D01*
X131569384Y-75531409D01*
X131509784Y-75525002D01*
X131509782Y-75525001D01*
X131509774Y-75525001D01*
X131509765Y-75525001D01*
X130525030Y-75525001D01*
X130525024Y-75525002D01*
X130465417Y-75531409D01*
X130330572Y-75581703D01*
X130330565Y-75581707D01*
X130215356Y-75667953D01*
X130215353Y-75667956D01*
X130129107Y-75783165D01*
X130129103Y-75783172D01*
X130078809Y-75918018D01*
X130072402Y-75977617D01*
X130072402Y-75977624D01*
X130072401Y-75977636D01*
X128512502Y-75977636D01*
X128512501Y-73070096D01*
X130110394Y-73070096D01*
X130110394Y-73070107D01*
X130129583Y-73301684D01*
X130186629Y-73526956D01*
X130279975Y-73739764D01*
X130407073Y-73934300D01*
X130407075Y-73934303D01*
X130564461Y-74105270D01*
X130564464Y-74105272D01*
X130564467Y-74105275D01*
X130747832Y-74247994D01*
X130747838Y-74247998D01*
X130747841Y-74248000D01*
X130952212Y-74358601D01*
X131172000Y-74434054D01*
X131401210Y-74472302D01*
X131633590Y-74472302D01*
X131862800Y-74434054D01*
X132082588Y-74358601D01*
X132286959Y-74248000D01*
X132470339Y-74105270D01*
X132627725Y-73934303D01*
X132754825Y-73739763D01*
X132848171Y-73526956D01*
X132905216Y-73301688D01*
X132924406Y-73070102D01*
X132924406Y-73070096D01*
X135110394Y-73070096D01*
X135110394Y-73070107D01*
X135129583Y-73301684D01*
X135186629Y-73526956D01*
X135279975Y-73739764D01*
X135407073Y-73934300D01*
X135407075Y-73934303D01*
X135564461Y-74105270D01*
X135564464Y-74105272D01*
X135564467Y-74105275D01*
X135747832Y-74247994D01*
X135747838Y-74247998D01*
X135747841Y-74248000D01*
X135952212Y-74358601D01*
X136172000Y-74434054D01*
X136401210Y-74472302D01*
X136633590Y-74472302D01*
X136862800Y-74434054D01*
X137082588Y-74358601D01*
X137286959Y-74248000D01*
X137470339Y-74105270D01*
X137627725Y-73934303D01*
X137754825Y-73739763D01*
X137848171Y-73526956D01*
X137905216Y-73301688D01*
X137924406Y-73070102D01*
X137905216Y-72838516D01*
X137848171Y-72613248D01*
X137776890Y-72450744D01*
X139522298Y-72450744D01*
X139522298Y-77702679D01*
X139522299Y-77702685D01*
X139528706Y-77762292D01*
X139579000Y-77897137D01*
X139579004Y-77897144D01*
X139665250Y-78012353D01*
X139665253Y-78012356D01*
X139780462Y-78098602D01*
X139780469Y-78098606D01*
X139915315Y-78148900D01*
X139915314Y-78148900D01*
X139922242Y-78149644D01*
X139974925Y-78155309D01*
X142559870Y-78155308D01*
X142619481Y-78148900D01*
X142754329Y-78098605D01*
X142869544Y-78012355D01*
X142955794Y-77897140D01*
X143006089Y-77762292D01*
X143012498Y-77702682D01*
X143012497Y-72450744D01*
X145022302Y-72450744D01*
X145022302Y-77702679D01*
X145022303Y-77702685D01*
X145028710Y-77762292D01*
X145079004Y-77897137D01*
X145079008Y-77897144D01*
X145165254Y-78012353D01*
X145165257Y-78012356D01*
X145280466Y-78098602D01*
X145280473Y-78098606D01*
X145415319Y-78148900D01*
X145415318Y-78148900D01*
X145422246Y-78149644D01*
X145474929Y-78155309D01*
X148059874Y-78155308D01*
X148119485Y-78148900D01*
X148254333Y-78098605D01*
X148369548Y-78012355D01*
X148455798Y-77897140D01*
X148506093Y-77762292D01*
X148512502Y-77702682D01*
X148512502Y-75977636D01*
X150072401Y-75977636D01*
X150072401Y-78562571D01*
X150072402Y-78562577D01*
X150078809Y-78622184D01*
X150129103Y-78757029D01*
X150129107Y-78757036D01*
X150215353Y-78872245D01*
X150215356Y-78872248D01*
X150330565Y-78958494D01*
X150330572Y-78958498D01*
X150465418Y-79008792D01*
X150465417Y-79008792D01*
X150472345Y-79009536D01*
X150525028Y-79015201D01*
X151509773Y-79015200D01*
X151569384Y-79008792D01*
X151704232Y-78958497D01*
X151819447Y-78872247D01*
X151862572Y-78814639D01*
X151905696Y-78757034D01*
X151908568Y-78751775D01*
X151957974Y-78702370D01*
X152026247Y-78687518D01*
X152091711Y-78711935D01*
X152126232Y-78751775D01*
X152129103Y-78757034D01*
X152215351Y-78872245D01*
X152215354Y-78872248D01*
X152330563Y-78958494D01*
X152330570Y-78958498D01*
X152465416Y-79008792D01*
X152465415Y-79008792D01*
X152472343Y-79009536D01*
X152525026Y-79015201D01*
X153509771Y-79015200D01*
X153569382Y-79008792D01*
X153704230Y-78958497D01*
X153819445Y-78872247D01*
X153905695Y-78757032D01*
X153905695Y-78757029D01*
X153908565Y-78751776D01*
X153957969Y-78702369D01*
X154026241Y-78687515D01*
X154091706Y-78711929D01*
X154126230Y-78751769D01*
X154129106Y-78757036D01*
X154215352Y-78872245D01*
X154215355Y-78872248D01*
X154330564Y-78958494D01*
X154330571Y-78958498D01*
X154465417Y-79008792D01*
X154465416Y-79008792D01*
X154472344Y-79009536D01*
X154525027Y-79015201D01*
X155509772Y-79015200D01*
X155569383Y-79008792D01*
X155704231Y-78958497D01*
X155819446Y-78872247D01*
X155905696Y-78757032D01*
X155955991Y-78622184D01*
X155962400Y-78562574D01*
X155962399Y-75977629D01*
X155955991Y-75918018D01*
X155922515Y-75828265D01*
X155905697Y-75783172D01*
X155905693Y-75783165D01*
X155819447Y-75667956D01*
X155819444Y-75667953D01*
X155704235Y-75581707D01*
X155704228Y-75581703D01*
X155569382Y-75531409D01*
X155569383Y-75531409D01*
X155509783Y-75525002D01*
X155509781Y-75525001D01*
X155509773Y-75525001D01*
X155509764Y-75525001D01*
X154525029Y-75525001D01*
X154525023Y-75525002D01*
X154465416Y-75531409D01*
X154330571Y-75581703D01*
X154330564Y-75581707D01*
X154215355Y-75667953D01*
X154215352Y-75667956D01*
X154129103Y-75783168D01*
X154126228Y-75788435D01*
X154076820Y-75837838D01*
X154008546Y-75852686D01*
X153943083Y-75828265D01*
X153908567Y-75788429D01*
X153905693Y-75783167D01*
X153819446Y-75667956D01*
X153819443Y-75667953D01*
X153704234Y-75581707D01*
X153704227Y-75581703D01*
X153569381Y-75531409D01*
X153569382Y-75531409D01*
X153509782Y-75525002D01*
X153509780Y-75525001D01*
X153509772Y-75525001D01*
X153509763Y-75525001D01*
X152525028Y-75525001D01*
X152525022Y-75525002D01*
X152465415Y-75531409D01*
X152330570Y-75581703D01*
X152330563Y-75581707D01*
X152215354Y-75667953D01*
X152215351Y-75667956D01*
X152129103Y-75783168D01*
X152126230Y-75788430D01*
X152076823Y-75837833D01*
X152008549Y-75852683D01*
X151943086Y-75828263D01*
X151908570Y-75788430D01*
X151905696Y-75783168D01*
X151819448Y-75667956D01*
X151819445Y-75667953D01*
X151704236Y-75581707D01*
X151704229Y-75581703D01*
X151569383Y-75531409D01*
X151569384Y-75531409D01*
X151509784Y-75525002D01*
X151509782Y-75525001D01*
X151509774Y-75525001D01*
X151509765Y-75525001D01*
X150525030Y-75525001D01*
X150525024Y-75525002D01*
X150465417Y-75531409D01*
X150330572Y-75581703D01*
X150330565Y-75581707D01*
X150215356Y-75667953D01*
X150215353Y-75667956D01*
X150129107Y-75783165D01*
X150129103Y-75783172D01*
X150078809Y-75918018D01*
X150072402Y-75977617D01*
X150072402Y-75977624D01*
X150072401Y-75977636D01*
X148512502Y-75977636D01*
X148512501Y-73070096D01*
X150110394Y-73070096D01*
X150110394Y-73070107D01*
X150129583Y-73301684D01*
X150186629Y-73526956D01*
X150279975Y-73739764D01*
X150407073Y-73934300D01*
X150407075Y-73934303D01*
X150564461Y-74105270D01*
X150564464Y-74105272D01*
X150564467Y-74105275D01*
X150747832Y-74247994D01*
X150747838Y-74247998D01*
X150747841Y-74248000D01*
X150952212Y-74358601D01*
X151172000Y-74434054D01*
X151401210Y-74472302D01*
X151633590Y-74472302D01*
X151862800Y-74434054D01*
X152082588Y-74358601D01*
X152286959Y-74248000D01*
X152470339Y-74105270D01*
X152627725Y-73934303D01*
X152754825Y-73739763D01*
X152848171Y-73526956D01*
X152905216Y-73301688D01*
X152924406Y-73070102D01*
X152924406Y-73070096D01*
X155110394Y-73070096D01*
X155110394Y-73070107D01*
X155129583Y-73301684D01*
X155186629Y-73526956D01*
X155279975Y-73739764D01*
X155407073Y-73934300D01*
X155407075Y-73934303D01*
X155564461Y-74105270D01*
X155564464Y-74105272D01*
X155564467Y-74105275D01*
X155747832Y-74247994D01*
X155747838Y-74247998D01*
X155747841Y-74248000D01*
X155952212Y-74358601D01*
X156172000Y-74434054D01*
X156401210Y-74472302D01*
X156633590Y-74472302D01*
X156862800Y-74434054D01*
X157082588Y-74358601D01*
X157286959Y-74248000D01*
X157470339Y-74105270D01*
X157627725Y-73934303D01*
X157754825Y-73739763D01*
X157848171Y-73526956D01*
X157905216Y-73301688D01*
X157924406Y-73070102D01*
X157905216Y-72838516D01*
X157848171Y-72613248D01*
X157776890Y-72450744D01*
X159522298Y-72450744D01*
X159522298Y-77702679D01*
X159522299Y-77702685D01*
X159528706Y-77762292D01*
X159579000Y-77897137D01*
X159579004Y-77897144D01*
X159665250Y-78012353D01*
X159665253Y-78012356D01*
X159780462Y-78098602D01*
X159780469Y-78098606D01*
X159915315Y-78148900D01*
X159915314Y-78148900D01*
X159922242Y-78149644D01*
X159974925Y-78155309D01*
X162559870Y-78155308D01*
X162619481Y-78148900D01*
X162754329Y-78098605D01*
X162869544Y-78012355D01*
X162955794Y-77897140D01*
X163006089Y-77762292D01*
X163012498Y-77702682D01*
X163012497Y-72450737D01*
X163006089Y-72391126D01*
X162955794Y-72256278D01*
X162955793Y-72256277D01*
X162955791Y-72256273D01*
X162869545Y-72141064D01*
X162869542Y-72141061D01*
X162754333Y-72054815D01*
X162754326Y-72054811D01*
X162619480Y-72004517D01*
X162619481Y-72004517D01*
X162559881Y-71998110D01*
X162559879Y-71998109D01*
X162559871Y-71998109D01*
X162559862Y-71998109D01*
X159974927Y-71998109D01*
X159974921Y-71998110D01*
X159915314Y-72004517D01*
X159780469Y-72054811D01*
X159780462Y-72054815D01*
X159665253Y-72141061D01*
X159665250Y-72141064D01*
X159579004Y-72256273D01*
X159579000Y-72256280D01*
X159528706Y-72391126D01*
X159527705Y-72400441D01*
X159522299Y-72450732D01*
X159522298Y-72450744D01*
X157776890Y-72450744D01*
X157754825Y-72400441D01*
X157627725Y-72205901D01*
X157470339Y-72034934D01*
X157470334Y-72034930D01*
X157470332Y-72034928D01*
X157286967Y-71892209D01*
X157286961Y-71892205D01*
X157082588Y-71781603D01*
X157082580Y-71781600D01*
X156862802Y-71706150D01*
X156633590Y-71667902D01*
X156401210Y-71667902D01*
X156171997Y-71706150D01*
X155952219Y-71781600D01*
X155952211Y-71781603D01*
X155747838Y-71892205D01*
X155747832Y-71892209D01*
X155564467Y-72034928D01*
X155564464Y-72034931D01*
X155407076Y-72205899D01*
X155407073Y-72205903D01*
X155279975Y-72400439D01*
X155186629Y-72613247D01*
X155129583Y-72838519D01*
X155110394Y-73070096D01*
X152924406Y-73070096D01*
X152905216Y-72838516D01*
X152848171Y-72613248D01*
X152754825Y-72400441D01*
X152627725Y-72205901D01*
X152470339Y-72034934D01*
X152470334Y-72034930D01*
X152470332Y-72034928D01*
X152286967Y-71892209D01*
X152286961Y-71892205D01*
X152082588Y-71781603D01*
X152082580Y-71781600D01*
X151862802Y-71706150D01*
X151633590Y-71667902D01*
X151401210Y-71667902D01*
X151171997Y-71706150D01*
X150952219Y-71781600D01*
X150952211Y-71781603D01*
X150747838Y-71892205D01*
X150747832Y-71892209D01*
X150564467Y-72034928D01*
X150564464Y-72034931D01*
X150407076Y-72205899D01*
X150407073Y-72205903D01*
X150279975Y-72400439D01*
X150186629Y-72613247D01*
X150129583Y-72838519D01*
X150110394Y-73070096D01*
X148512501Y-73070096D01*
X148512501Y-72450737D01*
X148506093Y-72391126D01*
X148455798Y-72256278D01*
X148455797Y-72256277D01*
X148455795Y-72256273D01*
X148369549Y-72141064D01*
X148369546Y-72141061D01*
X148254337Y-72054815D01*
X148254330Y-72054811D01*
X148119484Y-72004517D01*
X148119485Y-72004517D01*
X148059885Y-71998110D01*
X148059883Y-71998109D01*
X148059875Y-71998109D01*
X148059866Y-71998109D01*
X145474931Y-71998109D01*
X145474925Y-71998110D01*
X145415318Y-72004517D01*
X145280473Y-72054811D01*
X145280466Y-72054815D01*
X145165257Y-72141061D01*
X145165254Y-72141064D01*
X145079008Y-72256273D01*
X145079004Y-72256280D01*
X145028710Y-72391126D01*
X145027709Y-72400441D01*
X145022303Y-72450732D01*
X145022302Y-72450744D01*
X143012497Y-72450744D01*
X143012497Y-72450737D01*
X143006089Y-72391126D01*
X142955794Y-72256278D01*
X142955793Y-72256277D01*
X142955791Y-72256273D01*
X142869545Y-72141064D01*
X142869542Y-72141061D01*
X142754333Y-72054815D01*
X142754326Y-72054811D01*
X142619480Y-72004517D01*
X142619481Y-72004517D01*
X142559881Y-71998110D01*
X142559879Y-71998109D01*
X142559871Y-71998109D01*
X142559862Y-71998109D01*
X139974927Y-71998109D01*
X139974921Y-71998110D01*
X139915314Y-72004517D01*
X139780469Y-72054811D01*
X139780462Y-72054815D01*
X139665253Y-72141061D01*
X139665250Y-72141064D01*
X139579004Y-72256273D01*
X139579000Y-72256280D01*
X139528706Y-72391126D01*
X139527705Y-72400441D01*
X139522299Y-72450732D01*
X139522298Y-72450744D01*
X137776890Y-72450744D01*
X137754825Y-72400441D01*
X137627725Y-72205901D01*
X137470339Y-72034934D01*
X137470334Y-72034930D01*
X137470332Y-72034928D01*
X137286967Y-71892209D01*
X137286961Y-71892205D01*
X137082588Y-71781603D01*
X137082580Y-71781600D01*
X136862802Y-71706150D01*
X136633590Y-71667902D01*
X136401210Y-71667902D01*
X136171997Y-71706150D01*
X135952219Y-71781600D01*
X135952211Y-71781603D01*
X135747838Y-71892205D01*
X135747832Y-71892209D01*
X135564467Y-72034928D01*
X135564464Y-72034931D01*
X135407076Y-72205899D01*
X135407073Y-72205903D01*
X135279975Y-72400439D01*
X135186629Y-72613247D01*
X135129583Y-72838519D01*
X135110394Y-73070096D01*
X132924406Y-73070096D01*
X132905216Y-72838516D01*
X132848171Y-72613248D01*
X132754825Y-72400441D01*
X132627725Y-72205901D01*
X132470339Y-72034934D01*
X132470334Y-72034930D01*
X132470332Y-72034928D01*
X132286967Y-71892209D01*
X132286961Y-71892205D01*
X132082588Y-71781603D01*
X132082580Y-71781600D01*
X131862802Y-71706150D01*
X131633590Y-71667902D01*
X131401210Y-71667902D01*
X131171997Y-71706150D01*
X130952219Y-71781600D01*
X130952211Y-71781603D01*
X130747838Y-71892205D01*
X130747832Y-71892209D01*
X130564467Y-72034928D01*
X130564464Y-72034931D01*
X130407076Y-72205899D01*
X130407073Y-72205903D01*
X130279975Y-72400439D01*
X130186629Y-72613247D01*
X130129583Y-72838519D01*
X130110394Y-73070096D01*
X128512501Y-73070096D01*
X128512501Y-72450737D01*
X128506093Y-72391126D01*
X128455798Y-72256278D01*
X128455797Y-72256277D01*
X128455795Y-72256273D01*
X128369549Y-72141064D01*
X128369546Y-72141061D01*
X128254337Y-72054815D01*
X128254330Y-72054811D01*
X128119484Y-72004517D01*
X128119485Y-72004517D01*
X128059885Y-71998110D01*
X128059883Y-71998109D01*
X128059875Y-71998109D01*
X128059866Y-71998109D01*
X125474931Y-71998109D01*
X125474925Y-71998110D01*
X125415318Y-72004517D01*
X125280473Y-72054811D01*
X125280466Y-72054815D01*
X125165257Y-72141061D01*
X125165254Y-72141064D01*
X125079008Y-72256273D01*
X125079004Y-72256280D01*
X125028710Y-72391126D01*
X125027709Y-72400441D01*
X125022303Y-72450732D01*
X125022302Y-72450744D01*
X123012497Y-72450744D01*
X123012497Y-72450737D01*
X123006089Y-72391126D01*
X122955794Y-72256278D01*
X122955793Y-72256277D01*
X122955791Y-72256273D01*
X122869545Y-72141064D01*
X122869542Y-72141061D01*
X122754333Y-72054815D01*
X122754326Y-72054811D01*
X122619480Y-72004517D01*
X122619481Y-72004517D01*
X122559881Y-71998110D01*
X122559879Y-71998109D01*
X122559871Y-71998109D01*
X122559862Y-71998109D01*
X119974927Y-71998109D01*
X119974921Y-71998110D01*
X119915314Y-72004517D01*
X119780469Y-72054811D01*
X119780462Y-72054815D01*
X119665253Y-72141061D01*
X119665250Y-72141064D01*
X119579004Y-72256273D01*
X119579000Y-72256280D01*
X119528706Y-72391126D01*
X119527705Y-72400441D01*
X119522299Y-72450732D01*
X119522298Y-72450744D01*
X117776890Y-72450744D01*
X117754825Y-72400441D01*
X117627725Y-72205901D01*
X117470339Y-72034934D01*
X117470334Y-72034930D01*
X117470332Y-72034928D01*
X117286967Y-71892209D01*
X117286961Y-71892205D01*
X117082588Y-71781603D01*
X117082580Y-71781600D01*
X116862802Y-71706150D01*
X116633590Y-71667902D01*
X116401210Y-71667902D01*
X116171997Y-71706150D01*
X115952219Y-71781600D01*
X115952211Y-71781603D01*
X115747838Y-71892205D01*
X115747832Y-71892209D01*
X115564467Y-72034928D01*
X115564464Y-72034931D01*
X115407076Y-72205899D01*
X115407073Y-72205903D01*
X115279975Y-72400439D01*
X115186629Y-72613247D01*
X115129583Y-72838519D01*
X115110394Y-73070096D01*
X112924406Y-73070096D01*
X112905216Y-72838516D01*
X112848171Y-72613248D01*
X112754825Y-72400441D01*
X112627725Y-72205901D01*
X112470339Y-72034934D01*
X112470334Y-72034930D01*
X112470332Y-72034928D01*
X112286967Y-71892209D01*
X112286961Y-71892205D01*
X112082588Y-71781603D01*
X112082580Y-71781600D01*
X111862802Y-71706150D01*
X111633590Y-71667902D01*
X111401210Y-71667902D01*
X111171997Y-71706150D01*
X110952219Y-71781600D01*
X110952211Y-71781603D01*
X110747838Y-71892205D01*
X110747832Y-71892209D01*
X110564467Y-72034928D01*
X110564464Y-72034931D01*
X110407076Y-72205899D01*
X110407073Y-72205903D01*
X110279975Y-72400439D01*
X110186629Y-72613247D01*
X110129583Y-72838519D01*
X110110394Y-73070096D01*
X108512501Y-73070096D01*
X108512501Y-72450737D01*
X108506093Y-72391126D01*
X108455798Y-72256278D01*
X108455797Y-72256277D01*
X108455795Y-72256273D01*
X108369549Y-72141064D01*
X108369546Y-72141061D01*
X108254337Y-72054815D01*
X108254330Y-72054811D01*
X108119484Y-72004517D01*
X108119485Y-72004517D01*
X108059885Y-71998110D01*
X108059883Y-71998109D01*
X108059875Y-71998109D01*
X108059866Y-71998109D01*
X105474931Y-71998109D01*
X105474925Y-71998110D01*
X105415318Y-72004517D01*
X105280473Y-72054811D01*
X105280466Y-72054815D01*
X105165257Y-72141061D01*
X105165254Y-72141064D01*
X105079008Y-72256273D01*
X105079004Y-72256280D01*
X105028710Y-72391126D01*
X105027709Y-72400441D01*
X105022303Y-72450732D01*
X105022302Y-72450744D01*
X98600500Y-72450744D01*
X98600500Y-65881902D01*
X99499500Y-65881902D01*
X99499500Y-66118097D01*
X99536446Y-66351368D01*
X99609433Y-66575996D01*
X99716657Y-66786433D01*
X99855483Y-66977510D01*
X100022490Y-67144517D01*
X100213567Y-67283343D01*
X100312991Y-67334002D01*
X100424003Y-67390566D01*
X100424005Y-67390566D01*
X100424008Y-67390568D01*
X100544412Y-67429689D01*
X100648631Y-67463553D01*
X100881903Y-67500500D01*
X100881908Y-67500500D01*
X101118097Y-67500500D01*
X101351368Y-67463553D01*
X101575992Y-67390568D01*
X101786433Y-67283343D01*
X101977510Y-67144517D01*
X102144517Y-66977510D01*
X102283343Y-66786433D01*
X102390568Y-66575992D01*
X102463553Y-66351368D01*
X102500500Y-66118097D01*
X102500500Y-65881902D01*
X165499500Y-65881902D01*
X165499500Y-66118097D01*
X165536446Y-66351368D01*
X165609433Y-66575996D01*
X165716657Y-66786433D01*
X165855483Y-66977510D01*
X166022490Y-67144517D01*
X166213567Y-67283343D01*
X166312991Y-67334002D01*
X166424003Y-67390566D01*
X166424005Y-67390566D01*
X166424008Y-67390568D01*
X166544412Y-67429689D01*
X166648631Y-67463553D01*
X166881903Y-67500500D01*
X166881908Y-67500500D01*
X167118097Y-67500500D01*
X167351368Y-67463553D01*
X167575992Y-67390568D01*
X167786433Y-67283343D01*
X167977510Y-67144517D01*
X168144517Y-66977510D01*
X168283343Y-66786433D01*
X168390568Y-66575992D01*
X168463553Y-66351368D01*
X168500500Y-66118097D01*
X168500500Y-65881902D01*
X168463553Y-65648631D01*
X168390566Y-65424003D01*
X168283342Y-65213566D01*
X168144517Y-65022490D01*
X167977510Y-64855483D01*
X167786433Y-64716657D01*
X167575996Y-64609433D01*
X167351368Y-64536446D01*
X167118097Y-64499500D01*
X167118092Y-64499500D01*
X166881908Y-64499500D01*
X166881903Y-64499500D01*
X166648631Y-64536446D01*
X166424003Y-64609433D01*
X166213566Y-64716657D01*
X166104550Y-64795862D01*
X166022490Y-64855483D01*
X166022488Y-64855485D01*
X166022487Y-64855485D01*
X165855485Y-65022487D01*
X165855485Y-65022488D01*
X165855483Y-65022490D01*
X165795862Y-65104550D01*
X165716657Y-65213566D01*
X165609433Y-65424003D01*
X165536446Y-65648631D01*
X165499500Y-65881902D01*
X102500500Y-65881902D01*
X102463553Y-65648631D01*
X102390566Y-65424003D01*
X102283342Y-65213566D01*
X102144517Y-65022490D01*
X101977510Y-64855483D01*
X101786433Y-64716657D01*
X101575996Y-64609433D01*
X101351368Y-64536446D01*
X101118097Y-64499500D01*
X101118092Y-64499500D01*
X100881908Y-64499500D01*
X100881903Y-64499500D01*
X100648631Y-64536446D01*
X100424003Y-64609433D01*
X100213566Y-64716657D01*
X100104550Y-64795862D01*
X100022490Y-64855483D01*
X100022488Y-64855485D01*
X100022487Y-64855485D01*
X99855485Y-65022487D01*
X99855485Y-65022488D01*
X99855483Y-65022490D01*
X99795862Y-65104550D01*
X99716657Y-65213566D01*
X99609433Y-65424003D01*
X99536446Y-65648631D01*
X99499500Y-65881902D01*
X98600500Y-65881902D01*
X98600500Y-63724500D01*
X98620185Y-63657461D01*
X98672989Y-63611706D01*
X98724500Y-63600500D01*
X169275500Y-63600500D01*
X169342539Y-63620185D01*
G37*
%TD.AperFunction*%
%TD*%
M02*
