%TF.GenerationSoftware,KiCad,Pcbnew,8.0.6*%
%TF.CreationDate,2025-05-08T15:46:12-04:00*%
%TF.ProjectId,5VConnectorBoard,3556436f-6e6e-4656-9374-6f72426f6172,rev?*%
%TF.SameCoordinates,Original*%
%TF.FileFunction,Soldermask,Top*%
%TF.FilePolarity,Negative*%
%FSLAX46Y46*%
G04 Gerber Fmt 4.6, Leading zero omitted, Abs format (unit mm)*
G04 Created by KiCad (PCBNEW 8.0.6) date 2025-05-08 15:46:12*
%MOMM*%
%LPD*%
G01*
G04 APERTURE LIST*
G04 Aperture macros list*
%AMRoundRect*
0 Rectangle with rounded corners*
0 $1 Rounding radius*
0 $2 $3 $4 $5 $6 $7 $8 $9 X,Y pos of 4 corners*
0 Add a 4 corners polygon primitive as box body*
4,1,4,$2,$3,$4,$5,$6,$7,$8,$9,$2,$3,0*
0 Add four circle primitives for the rounded corners*
1,1,$1+$1,$2,$3*
1,1,$1+$1,$4,$5*
1,1,$1+$1,$6,$7*
1,1,$1+$1,$8,$9*
0 Add four rect primitives between the rounded corners*
20,1,$1+$1,$2,$3,$4,$5,0*
20,1,$1+$1,$4,$5,$6,$7,0*
20,1,$1+$1,$6,$7,$8,$9,0*
20,1,$1+$1,$8,$9,$2,$3,0*%
G04 Aperture macros list end*
%ADD10R,2.000000X0.900000*%
%ADD11RoundRect,1.025000X-1.025000X1.025000X-1.025000X-1.025000X1.025000X-1.025000X1.025000X1.025000X0*%
%ADD12C,4.100000*%
%ADD13C,2.500000*%
%ADD14R,0.889000X2.489200*%
%ADD15C,1.803400*%
%ADD16R,2.489200X5.156200*%
%ADD17RoundRect,1.025000X1.025000X-1.025000X1.025000X1.025000X-1.025000X1.025000X-1.025000X-1.025000X0*%
G04 APERTURE END LIST*
D10*
%TO.C,J2*%
X158850000Y-84750000D03*
X158850000Y-98250000D03*
D11*
X152850000Y-87900000D03*
D12*
X152850000Y-95100000D03*
%TD*%
D13*
%TO.C,REF\u002A\u002A*%
X101000000Y-118500000D03*
%TD*%
D14*
%TO.C,U5*%
X131250003Y-107186407D03*
X133250002Y-107186407D03*
X135250003Y-107186407D03*
X137250001Y-107186407D03*
D15*
X131750002Y-111386406D03*
X136750002Y-111386406D03*
D16*
X127000004Y-109379799D03*
X141500000Y-109379799D03*
%TD*%
D14*
%TO.C,U1*%
X117017399Y-77270101D03*
X115017400Y-77270101D03*
X113017399Y-77270101D03*
X111017401Y-77270101D03*
D15*
X116517400Y-73070102D03*
X111517400Y-73070102D03*
D16*
X121267398Y-75076709D03*
X106767402Y-75076709D03*
%TD*%
D14*
%TO.C,U3*%
X157017399Y-77270101D03*
X155017400Y-77270101D03*
X153017399Y-77270101D03*
X151017401Y-77270101D03*
D15*
X156517400Y-73070102D03*
X151517400Y-73070102D03*
D16*
X161267398Y-75076709D03*
X146767402Y-75076709D03*
%TD*%
D14*
%TO.C,U6*%
X150982601Y-107229900D03*
X152982600Y-107229900D03*
X154982601Y-107229900D03*
X156982599Y-107229900D03*
D15*
X151482600Y-111429899D03*
X156482600Y-111429899D03*
D16*
X146732602Y-109423292D03*
X161232598Y-109423292D03*
%TD*%
D10*
%TO.C,J1*%
X109150000Y-98250000D03*
X109150000Y-84750000D03*
D17*
X115150000Y-95100000D03*
D12*
X115150000Y-87900000D03*
%TD*%
D13*
%TO.C,REF\u002A\u002A*%
X101000000Y-66000000D03*
%TD*%
%TO.C,REF\u002A\u002A*%
X167000000Y-118500000D03*
%TD*%
D14*
%TO.C,U4*%
X110982601Y-107229900D03*
X112982600Y-107229900D03*
X114982601Y-107229900D03*
X116982599Y-107229900D03*
D15*
X111482600Y-111429899D03*
X116482600Y-111429899D03*
D16*
X106732602Y-109423292D03*
X121232598Y-109423292D03*
%TD*%
D14*
%TO.C,U2*%
X137017399Y-77270101D03*
X135017400Y-77270101D03*
X133017399Y-77270101D03*
X131017401Y-77270101D03*
D15*
X136517400Y-73070102D03*
X131517400Y-73070102D03*
D16*
X141267398Y-75076709D03*
X126767402Y-75076709D03*
%TD*%
D13*
%TO.C,REF\u002A\u002A*%
X167000000Y-66000000D03*
%TD*%
M02*
