%TF.GenerationSoftware,KiCad,Pcbnew,8.0.6*%
%TF.CreationDate,2025-05-08T15:46:12-04:00*%
%TF.ProjectId,5VConnectorBoard,3556436f-6e6e-4656-9374-6f72426f6172,rev?*%
%TF.SameCoordinates,Original*%
%TF.FileFunction,Legend,Top*%
%TF.FilePolarity,Positive*%
%FSLAX46Y46*%
G04 Gerber Fmt 4.6, Leading zero omitted, Abs format (unit mm)*
G04 Created by KiCad (PCBNEW 8.0.6) date 2025-05-08 15:46:12*
%MOMM*%
%LPD*%
G01*
G04 APERTURE LIST*
%ADD10C,0.150000*%
%ADD11C,0.120000*%
%ADD12C,0.152400*%
%ADD13C,0.508000*%
G04 APERTURE END LIST*
D10*
X159454819Y-91833333D02*
X160169104Y-91833333D01*
X160169104Y-91833333D02*
X160311961Y-91880952D01*
X160311961Y-91880952D02*
X160407200Y-91976190D01*
X160407200Y-91976190D02*
X160454819Y-92119047D01*
X160454819Y-92119047D02*
X160454819Y-92214285D01*
X159550057Y-91404761D02*
X159502438Y-91357142D01*
X159502438Y-91357142D02*
X159454819Y-91261904D01*
X159454819Y-91261904D02*
X159454819Y-91023809D01*
X159454819Y-91023809D02*
X159502438Y-90928571D01*
X159502438Y-90928571D02*
X159550057Y-90880952D01*
X159550057Y-90880952D02*
X159645295Y-90833333D01*
X159645295Y-90833333D02*
X159740533Y-90833333D01*
X159740533Y-90833333D02*
X159883390Y-90880952D01*
X159883390Y-90880952D02*
X160454819Y-91452380D01*
X160454819Y-91452380D02*
X160454819Y-90833333D01*
X150464700Y-97971428D02*
X150464700Y-96828571D01*
X151036128Y-97399999D02*
X149893271Y-97399999D01*
X150464700Y-85671428D02*
X150464700Y-84528571D01*
X99666666Y-115454819D02*
X99333333Y-114978628D01*
X99095238Y-115454819D02*
X99095238Y-114454819D01*
X99095238Y-114454819D02*
X99476190Y-114454819D01*
X99476190Y-114454819D02*
X99571428Y-114502438D01*
X99571428Y-114502438D02*
X99619047Y-114550057D01*
X99619047Y-114550057D02*
X99666666Y-114645295D01*
X99666666Y-114645295D02*
X99666666Y-114788152D01*
X99666666Y-114788152D02*
X99619047Y-114883390D01*
X99619047Y-114883390D02*
X99571428Y-114931009D01*
X99571428Y-114931009D02*
X99476190Y-114978628D01*
X99476190Y-114978628D02*
X99095238Y-114978628D01*
X100095238Y-114931009D02*
X100428571Y-114931009D01*
X100571428Y-115454819D02*
X100095238Y-115454819D01*
X100095238Y-115454819D02*
X100095238Y-114454819D01*
X100095238Y-114454819D02*
X100571428Y-114454819D01*
X101333333Y-114931009D02*
X101000000Y-114931009D01*
X101000000Y-115454819D02*
X101000000Y-114454819D01*
X101000000Y-114454819D02*
X101476190Y-114454819D01*
X102000000Y-114454819D02*
X102000000Y-114692914D01*
X101761905Y-114597676D02*
X102000000Y-114692914D01*
X102000000Y-114692914D02*
X102238095Y-114597676D01*
X101857143Y-114883390D02*
X102000000Y-114692914D01*
X102000000Y-114692914D02*
X102142857Y-114883390D01*
X102761905Y-114454819D02*
X102761905Y-114692914D01*
X102523810Y-114597676D02*
X102761905Y-114692914D01*
X102761905Y-114692914D02*
X103000000Y-114597676D01*
X102619048Y-114883390D02*
X102761905Y-114692914D01*
X102761905Y-114692914D02*
X102904762Y-114883390D01*
X133488097Y-106641226D02*
X133488097Y-107450749D01*
X133488097Y-107450749D02*
X133535716Y-107545987D01*
X133535716Y-107545987D02*
X133583335Y-107593607D01*
X133583335Y-107593607D02*
X133678573Y-107641226D01*
X133678573Y-107641226D02*
X133869049Y-107641226D01*
X133869049Y-107641226D02*
X133964287Y-107593607D01*
X133964287Y-107593607D02*
X134011906Y-107545987D01*
X134011906Y-107545987D02*
X134059525Y-107450749D01*
X134059525Y-107450749D02*
X134059525Y-106641226D01*
X135011906Y-106641226D02*
X134535716Y-106641226D01*
X134535716Y-106641226D02*
X134488097Y-107117416D01*
X134488097Y-107117416D02*
X134535716Y-107069797D01*
X134535716Y-107069797D02*
X134630954Y-107022178D01*
X134630954Y-107022178D02*
X134869049Y-107022178D01*
X134869049Y-107022178D02*
X134964287Y-107069797D01*
X134964287Y-107069797D02*
X135011906Y-107117416D01*
X135011906Y-107117416D02*
X135059525Y-107212654D01*
X135059525Y-107212654D02*
X135059525Y-107450749D01*
X135059525Y-107450749D02*
X135011906Y-107545987D01*
X135011906Y-107545987D02*
X134964287Y-107593607D01*
X134964287Y-107593607D02*
X134869049Y-107641226D01*
X134869049Y-107641226D02*
X134630954Y-107641226D01*
X134630954Y-107641226D02*
X134535716Y-107593607D01*
X134535716Y-107593607D02*
X134488097Y-107545987D01*
X114779304Y-77815281D02*
X114779304Y-77005758D01*
X114779304Y-77005758D02*
X114731685Y-76910520D01*
X114731685Y-76910520D02*
X114684066Y-76862901D01*
X114684066Y-76862901D02*
X114588828Y-76815281D01*
X114588828Y-76815281D02*
X114398352Y-76815281D01*
X114398352Y-76815281D02*
X114303114Y-76862901D01*
X114303114Y-76862901D02*
X114255495Y-76910520D01*
X114255495Y-76910520D02*
X114207876Y-77005758D01*
X114207876Y-77005758D02*
X114207876Y-77815281D01*
X113207876Y-76815281D02*
X113779304Y-76815281D01*
X113493590Y-76815281D02*
X113493590Y-77815281D01*
X113493590Y-77815281D02*
X113588828Y-77672424D01*
X113588828Y-77672424D02*
X113684066Y-77577186D01*
X113684066Y-77577186D02*
X113779304Y-77529567D01*
X154779304Y-77815281D02*
X154779304Y-77005758D01*
X154779304Y-77005758D02*
X154731685Y-76910520D01*
X154731685Y-76910520D02*
X154684066Y-76862901D01*
X154684066Y-76862901D02*
X154588828Y-76815281D01*
X154588828Y-76815281D02*
X154398352Y-76815281D01*
X154398352Y-76815281D02*
X154303114Y-76862901D01*
X154303114Y-76862901D02*
X154255495Y-76910520D01*
X154255495Y-76910520D02*
X154207876Y-77005758D01*
X154207876Y-77005758D02*
X154207876Y-77815281D01*
X153826923Y-77815281D02*
X153207876Y-77815281D01*
X153207876Y-77815281D02*
X153541209Y-77434329D01*
X153541209Y-77434329D02*
X153398352Y-77434329D01*
X153398352Y-77434329D02*
X153303114Y-77386710D01*
X153303114Y-77386710D02*
X153255495Y-77339091D01*
X153255495Y-77339091D02*
X153207876Y-77243853D01*
X153207876Y-77243853D02*
X153207876Y-77005758D01*
X153207876Y-77005758D02*
X153255495Y-76910520D01*
X153255495Y-76910520D02*
X153303114Y-76862901D01*
X153303114Y-76862901D02*
X153398352Y-76815281D01*
X153398352Y-76815281D02*
X153684066Y-76815281D01*
X153684066Y-76815281D02*
X153779304Y-76862901D01*
X153779304Y-76862901D02*
X153826923Y-76910520D01*
X153220695Y-106684719D02*
X153220695Y-107494242D01*
X153220695Y-107494242D02*
X153268314Y-107589480D01*
X153268314Y-107589480D02*
X153315933Y-107637100D01*
X153315933Y-107637100D02*
X153411171Y-107684719D01*
X153411171Y-107684719D02*
X153601647Y-107684719D01*
X153601647Y-107684719D02*
X153696885Y-107637100D01*
X153696885Y-107637100D02*
X153744504Y-107589480D01*
X153744504Y-107589480D02*
X153792123Y-107494242D01*
X153792123Y-107494242D02*
X153792123Y-106684719D01*
X154696885Y-106684719D02*
X154506409Y-106684719D01*
X154506409Y-106684719D02*
X154411171Y-106732338D01*
X154411171Y-106732338D02*
X154363552Y-106779957D01*
X154363552Y-106779957D02*
X154268314Y-106922814D01*
X154268314Y-106922814D02*
X154220695Y-107113290D01*
X154220695Y-107113290D02*
X154220695Y-107494242D01*
X154220695Y-107494242D02*
X154268314Y-107589480D01*
X154268314Y-107589480D02*
X154315933Y-107637100D01*
X154315933Y-107637100D02*
X154411171Y-107684719D01*
X154411171Y-107684719D02*
X154601647Y-107684719D01*
X154601647Y-107684719D02*
X154696885Y-107637100D01*
X154696885Y-107637100D02*
X154744504Y-107589480D01*
X154744504Y-107589480D02*
X154792123Y-107494242D01*
X154792123Y-107494242D02*
X154792123Y-107256147D01*
X154792123Y-107256147D02*
X154744504Y-107160909D01*
X154744504Y-107160909D02*
X154696885Y-107113290D01*
X154696885Y-107113290D02*
X154601647Y-107065671D01*
X154601647Y-107065671D02*
X154411171Y-107065671D01*
X154411171Y-107065671D02*
X154315933Y-107113290D01*
X154315933Y-107113290D02*
X154268314Y-107160909D01*
X154268314Y-107160909D02*
X154220695Y-107256147D01*
X107454819Y-91833333D02*
X108169104Y-91833333D01*
X108169104Y-91833333D02*
X108311961Y-91880952D01*
X108311961Y-91880952D02*
X108407200Y-91976190D01*
X108407200Y-91976190D02*
X108454819Y-92119047D01*
X108454819Y-92119047D02*
X108454819Y-92214285D01*
X108454819Y-90833333D02*
X108454819Y-91404761D01*
X108454819Y-91119047D02*
X107454819Y-91119047D01*
X107454819Y-91119047D02*
X107597676Y-91214285D01*
X107597676Y-91214285D02*
X107692914Y-91309523D01*
X107692914Y-91309523D02*
X107740533Y-91404761D01*
X117764700Y-98471428D02*
X117764700Y-97328571D01*
X117764700Y-86171428D02*
X117764700Y-85028571D01*
X118336128Y-85599999D02*
X117193271Y-85599999D01*
X99666666Y-70454819D02*
X99333333Y-69978628D01*
X99095238Y-70454819D02*
X99095238Y-69454819D01*
X99095238Y-69454819D02*
X99476190Y-69454819D01*
X99476190Y-69454819D02*
X99571428Y-69502438D01*
X99571428Y-69502438D02*
X99619047Y-69550057D01*
X99619047Y-69550057D02*
X99666666Y-69645295D01*
X99666666Y-69645295D02*
X99666666Y-69788152D01*
X99666666Y-69788152D02*
X99619047Y-69883390D01*
X99619047Y-69883390D02*
X99571428Y-69931009D01*
X99571428Y-69931009D02*
X99476190Y-69978628D01*
X99476190Y-69978628D02*
X99095238Y-69978628D01*
X100095238Y-69931009D02*
X100428571Y-69931009D01*
X100571428Y-70454819D02*
X100095238Y-70454819D01*
X100095238Y-70454819D02*
X100095238Y-69454819D01*
X100095238Y-69454819D02*
X100571428Y-69454819D01*
X101333333Y-69931009D02*
X101000000Y-69931009D01*
X101000000Y-70454819D02*
X101000000Y-69454819D01*
X101000000Y-69454819D02*
X101476190Y-69454819D01*
X102000000Y-69454819D02*
X102000000Y-69692914D01*
X101761905Y-69597676D02*
X102000000Y-69692914D01*
X102000000Y-69692914D02*
X102238095Y-69597676D01*
X101857143Y-69883390D02*
X102000000Y-69692914D01*
X102000000Y-69692914D02*
X102142857Y-69883390D01*
X102761905Y-69454819D02*
X102761905Y-69692914D01*
X102523810Y-69597676D02*
X102761905Y-69692914D01*
X102761905Y-69692914D02*
X103000000Y-69597676D01*
X102619048Y-69883390D02*
X102761905Y-69692914D01*
X102761905Y-69692914D02*
X102904762Y-69883390D01*
X165666666Y-115454819D02*
X165333333Y-114978628D01*
X165095238Y-115454819D02*
X165095238Y-114454819D01*
X165095238Y-114454819D02*
X165476190Y-114454819D01*
X165476190Y-114454819D02*
X165571428Y-114502438D01*
X165571428Y-114502438D02*
X165619047Y-114550057D01*
X165619047Y-114550057D02*
X165666666Y-114645295D01*
X165666666Y-114645295D02*
X165666666Y-114788152D01*
X165666666Y-114788152D02*
X165619047Y-114883390D01*
X165619047Y-114883390D02*
X165571428Y-114931009D01*
X165571428Y-114931009D02*
X165476190Y-114978628D01*
X165476190Y-114978628D02*
X165095238Y-114978628D01*
X166095238Y-114931009D02*
X166428571Y-114931009D01*
X166571428Y-115454819D02*
X166095238Y-115454819D01*
X166095238Y-115454819D02*
X166095238Y-114454819D01*
X166095238Y-114454819D02*
X166571428Y-114454819D01*
X167333333Y-114931009D02*
X167000000Y-114931009D01*
X167000000Y-115454819D02*
X167000000Y-114454819D01*
X167000000Y-114454819D02*
X167476190Y-114454819D01*
X168000000Y-114454819D02*
X168000000Y-114692914D01*
X167761905Y-114597676D02*
X168000000Y-114692914D01*
X168000000Y-114692914D02*
X168238095Y-114597676D01*
X167857143Y-114883390D02*
X168000000Y-114692914D01*
X168000000Y-114692914D02*
X168142857Y-114883390D01*
X168761905Y-114454819D02*
X168761905Y-114692914D01*
X168523810Y-114597676D02*
X168761905Y-114692914D01*
X168761905Y-114692914D02*
X169000000Y-114597676D01*
X168619048Y-114883390D02*
X168761905Y-114692914D01*
X168761905Y-114692914D02*
X168904762Y-114883390D01*
X113220695Y-106684719D02*
X113220695Y-107494242D01*
X113220695Y-107494242D02*
X113268314Y-107589480D01*
X113268314Y-107589480D02*
X113315933Y-107637100D01*
X113315933Y-107637100D02*
X113411171Y-107684719D01*
X113411171Y-107684719D02*
X113601647Y-107684719D01*
X113601647Y-107684719D02*
X113696885Y-107637100D01*
X113696885Y-107637100D02*
X113744504Y-107589480D01*
X113744504Y-107589480D02*
X113792123Y-107494242D01*
X113792123Y-107494242D02*
X113792123Y-106684719D01*
X114696885Y-107018052D02*
X114696885Y-107684719D01*
X114458790Y-106637100D02*
X114220695Y-107351385D01*
X114220695Y-107351385D02*
X114839742Y-107351385D01*
X134779304Y-77815281D02*
X134779304Y-77005758D01*
X134779304Y-77005758D02*
X134731685Y-76910520D01*
X134731685Y-76910520D02*
X134684066Y-76862901D01*
X134684066Y-76862901D02*
X134588828Y-76815281D01*
X134588828Y-76815281D02*
X134398352Y-76815281D01*
X134398352Y-76815281D02*
X134303114Y-76862901D01*
X134303114Y-76862901D02*
X134255495Y-76910520D01*
X134255495Y-76910520D02*
X134207876Y-77005758D01*
X134207876Y-77005758D02*
X134207876Y-77815281D01*
X133779304Y-77720043D02*
X133731685Y-77767662D01*
X133731685Y-77767662D02*
X133636447Y-77815281D01*
X133636447Y-77815281D02*
X133398352Y-77815281D01*
X133398352Y-77815281D02*
X133303114Y-77767662D01*
X133303114Y-77767662D02*
X133255495Y-77720043D01*
X133255495Y-77720043D02*
X133207876Y-77624805D01*
X133207876Y-77624805D02*
X133207876Y-77529567D01*
X133207876Y-77529567D02*
X133255495Y-77386710D01*
X133255495Y-77386710D02*
X133826923Y-76815281D01*
X133826923Y-76815281D02*
X133207876Y-76815281D01*
X165666666Y-69954819D02*
X165333333Y-69478628D01*
X165095238Y-69954819D02*
X165095238Y-68954819D01*
X165095238Y-68954819D02*
X165476190Y-68954819D01*
X165476190Y-68954819D02*
X165571428Y-69002438D01*
X165571428Y-69002438D02*
X165619047Y-69050057D01*
X165619047Y-69050057D02*
X165666666Y-69145295D01*
X165666666Y-69145295D02*
X165666666Y-69288152D01*
X165666666Y-69288152D02*
X165619047Y-69383390D01*
X165619047Y-69383390D02*
X165571428Y-69431009D01*
X165571428Y-69431009D02*
X165476190Y-69478628D01*
X165476190Y-69478628D02*
X165095238Y-69478628D01*
X166095238Y-69431009D02*
X166428571Y-69431009D01*
X166571428Y-69954819D02*
X166095238Y-69954819D01*
X166095238Y-69954819D02*
X166095238Y-68954819D01*
X166095238Y-68954819D02*
X166571428Y-68954819D01*
X167333333Y-69431009D02*
X167000000Y-69431009D01*
X167000000Y-69954819D02*
X167000000Y-68954819D01*
X167000000Y-68954819D02*
X167476190Y-68954819D01*
X168000000Y-68954819D02*
X168000000Y-69192914D01*
X167761905Y-69097676D02*
X168000000Y-69192914D01*
X168000000Y-69192914D02*
X168238095Y-69097676D01*
X167857143Y-69383390D02*
X168000000Y-69192914D01*
X168000000Y-69192914D02*
X168142857Y-69383390D01*
X168761905Y-68954819D02*
X168761905Y-69192914D01*
X168523810Y-69097676D02*
X168761905Y-69192914D01*
X168761905Y-69192914D02*
X169000000Y-69097676D01*
X168619048Y-69383390D02*
X168761905Y-69192914D01*
X168761905Y-69192914D02*
X168904762Y-69383390D01*
D11*
%TO.C,J2*%
X150890000Y-90210000D02*
X150890000Y-93950000D01*
X169310000Y-83640000D02*
X155000000Y-83640000D01*
X169310000Y-83640000D02*
X169310000Y-99360000D01*
X169310000Y-99360000D02*
X155000000Y-99360000D01*
X151477042Y-85633194D02*
G75*
G02*
X155000000Y-83640000I3522957J-2116805D01*
G01*
X155000000Y-99360000D02*
G75*
G02*
X151069587Y-96451648I0J4110000D01*
G01*
D12*
%TO.C,U5*%
X126873004Y-112290639D02*
X126873004Y-121063408D01*
X126873004Y-121063408D02*
X141627001Y-121063408D01*
X130472763Y-107009407D02*
X128577344Y-107009407D01*
X132472762Y-107009407D02*
X132027243Y-107009407D01*
X134472763Y-107009407D02*
X134027242Y-107009407D01*
X136472761Y-107009407D02*
X136027243Y-107009407D01*
X139922660Y-107009407D02*
X138027241Y-107009407D01*
X141627001Y-121063408D02*
X141627001Y-112290639D01*
D13*
X125244864Y-107536696D02*
G75*
G02*
X125244864Y-106836118I-149861J350289D01*
G01*
D12*
%TO.C,U1*%
X106640401Y-63393100D02*
X106640401Y-72165869D01*
X108344742Y-77447101D02*
X110240161Y-77447101D01*
X111794641Y-77447101D02*
X112240159Y-77447101D01*
X113794639Y-77447101D02*
X114240160Y-77447101D01*
X115794640Y-77447101D02*
X116240159Y-77447101D01*
X117794639Y-77447101D02*
X119690058Y-77447101D01*
X121394398Y-63393100D02*
X106640401Y-63393100D01*
X121394398Y-72165869D02*
X121394398Y-63393100D01*
D13*
X123022538Y-76919812D02*
G75*
G02*
X123022538Y-77620390I149861J-350289D01*
G01*
D12*
%TO.C,U3*%
X146640401Y-63393100D02*
X146640401Y-72165869D01*
X148344742Y-77447101D02*
X150240161Y-77447101D01*
X151794641Y-77447101D02*
X152240159Y-77447101D01*
X153794639Y-77447101D02*
X154240160Y-77447101D01*
X155794640Y-77447101D02*
X156240159Y-77447101D01*
X157794639Y-77447101D02*
X159690058Y-77447101D01*
X161394398Y-63393100D02*
X146640401Y-63393100D01*
X161394398Y-72165869D02*
X161394398Y-63393100D01*
D13*
X163022538Y-76919812D02*
G75*
G02*
X163022538Y-77620390I149861J-350289D01*
G01*
D12*
%TO.C,U6*%
X146605602Y-112334132D02*
X146605602Y-121106901D01*
X146605602Y-121106901D02*
X161359599Y-121106901D01*
X150205361Y-107052900D02*
X148309942Y-107052900D01*
X152205360Y-107052900D02*
X151759841Y-107052900D01*
X154205361Y-107052900D02*
X153759840Y-107052900D01*
X156205359Y-107052900D02*
X155759841Y-107052900D01*
X159655258Y-107052900D02*
X157759839Y-107052900D01*
X161359599Y-121106901D02*
X161359599Y-112334132D01*
D13*
X144977462Y-107580189D02*
G75*
G02*
X144977462Y-106879611I-149861J350289D01*
G01*
D11*
%TO.C,J1*%
X98690000Y-83640000D02*
X113000000Y-83640000D01*
X98690000Y-99360000D02*
X98690000Y-83640000D01*
X98690000Y-99360000D02*
X113000000Y-99360000D01*
X117110000Y-92790000D02*
X117110000Y-89050000D01*
X113000000Y-83640000D02*
G75*
G02*
X116930413Y-86548352I0J-4110000D01*
G01*
X116522958Y-97366806D02*
G75*
G02*
X113000000Y-99360000I-3522957J2116805D01*
G01*
D12*
%TO.C,U4*%
X106605602Y-112334132D02*
X106605602Y-121106901D01*
X106605602Y-121106901D02*
X121359599Y-121106901D01*
X110205361Y-107052900D02*
X108309942Y-107052900D01*
X112205360Y-107052900D02*
X111759841Y-107052900D01*
X114205361Y-107052900D02*
X113759840Y-107052900D01*
X116205359Y-107052900D02*
X115759841Y-107052900D01*
X119655258Y-107052900D02*
X117759839Y-107052900D01*
X121359599Y-121106901D02*
X121359599Y-112334132D01*
D13*
X104977462Y-107580189D02*
G75*
G02*
X104977462Y-106879611I-149861J350289D01*
G01*
D12*
%TO.C,U2*%
X126640401Y-63393100D02*
X126640401Y-72165869D01*
X128344742Y-77447101D02*
X130240161Y-77447101D01*
X131794641Y-77447101D02*
X132240159Y-77447101D01*
X133794639Y-77447101D02*
X134240160Y-77447101D01*
X135794640Y-77447101D02*
X136240159Y-77447101D01*
X137794639Y-77447101D02*
X139690058Y-77447101D01*
X141394398Y-63393100D02*
X126640401Y-63393100D01*
X141394398Y-72165869D02*
X141394398Y-63393100D01*
D13*
X143022538Y-76919812D02*
G75*
G02*
X143022538Y-77620390I149861J-350289D01*
G01*
%TD*%
M02*
