M48
; DRILL file {KiCad 8.0.6} date 2025-05-08T15:46:15-0400
; FORMAT={-:-/ absolute / metric / decimal}
; #@! TF.CreationDate,2025-05-08T15:46:15-04:00
; #@! TF.GenerationSoftware,Kicad,Pcbnew,8.0.6
; #@! TF.FileFunction,Plated,1,2,PTH
FMAT,2
METRIC
; #@! TA.AperFunction,Plated,PTH,ViaDrill
T1C0.600
; #@! TA.AperFunction,Plated,PTH,ComponentDrill
T2C0.600
; #@! TA.AperFunction,Plated,PTH,ComponentDrill
T3C1.295
; #@! TA.AperFunction,Plated,PTH,ComponentDrill
T4C2.700
%
G90
G05
T1
X111.017Y-77.27
X116.983Y-107.23
X131.017Y-77.27
X137.25Y-107.186
X151.017Y-77.27
X156.983Y-107.23
T3
X111.483Y-111.43
X111.517Y-73.07
X116.483Y-111.43
X116.517Y-73.07
X131.517Y-73.07
X131.75Y-111.386
X136.517Y-73.07
X136.75Y-111.386
X151.483Y-111.43
X151.517Y-73.07
X156.483Y-111.43
X156.517Y-73.07
T4
X115.15Y-87.9
X115.15Y-95.1
X152.85Y-87.9
X152.85Y-95.1
T2
X108.6Y-84.75G85X109.7Y-84.75
G05
X108.6Y-98.25G85X109.7Y-98.25
G05
X159.4Y-84.75G85X158.3Y-84.75
G05
X159.4Y-98.25G85X158.3Y-98.25
G05
M30
