  0
SECTION
  2
HEADER
  9
$ACADVER
  1
AC1003
  9
$EXTMIN
 10
0.133348988344479
 20
10.9349229605899
  9
$EXTMAX
 10
4.58162591367045
 20
0.12802434947882
  9
$INSUNITS
 70
1
  9
$INSBASE
 10
2.35748745100747
 20
5.53147365503436
999
Created with OMAX LAYOUT for Windows. (www.omax.com) 3/21/2025
  0
ENDSEC
  0
SECTION
  2
TABLES
  0
TABLE
  2
LAYER
 70
    10
  0
LAYER
  2
0
 70
     0
 62
     7
  6
CONTINUOUS
  0
LAYER
  2
1
 70
     0
 62
     7
  6
CONTINUOUS
  0
LAYER
  2
2
 70
     0
 62
     7
  6
CONTINUOUS
  0
LAYER
  2
3
 70
     0
 62
     7
  6
CONTINUOUS
  0
LAYER
  2
4
 70
     0
 62
     7
  6
CONTINUOUS
  0
LAYER
  2
5
 70
     0
 62
     7
  6
CONTINUOUS
  0
LAYER
  2
6
 70
     0
 62
     7
  6
CONTINUOUS
  0
LAYER
  2
7
 70
     0
 62
     7
  6
CONTINUOUS
  0
LAYER
  2
8
 70
     0
 62
     7
  6
CONTINUOUS
  0
LAYER
  2
9
 70
     0
 62
     7
  6
CONTINUOUS
  0
LAYER
  2
10
 70
     0
 62
     7
  6
CONTINUOUS
  0
LAYER
  2
11
 70
     0
 62
     7
  6
CONTINUOUS
  0
LAYER
  2
12
 70
     0
 62
     7
  6
CONTINUOUS
  0
LAYER
  2
13
 70
     0
 62
     7
  6
CONTINUOUS
  0
LAYER
  2
14
 70
     0
 62
     7
  6
CONTINUOUS
  0
LAYER
  2
15
 70
     0
 62
     7
  6
CONTINUOUS
  0
LAYER
  2
16
 70
     0
 62
     7
  6
CONTINUOUS
  0
LAYER
  2
17
 70
     0
 62
     7
  6
CONTINUOUS
  0
LAYER
  2
18
 70
     0
 62
     7
  6
CONTINUOUS
  0
LAYER
  2
19
 70
     0
 62
     7
  6
CONTINUOUS
  0
LAYER
  2
20
 70
     0
 62
     7
  6
CONTINUOUS
  0
LAYER
  2
21
 70
     0
 62
     7
  6
CONTINUOUS
  0
LAYER
  2
22
 70
     0
 62
     7
  6
CONTINUOUS
  0
LAYER
  2
23
 70
     0
 62
     7
  6
CONTINUOUS
  0
LAYER
  2
24
 70
     0
 62
     7
  6
CONTINUOUS
  0
LAYER
  2
25
 70
     0
 62
     7
  6
CONTINUOUS
  0
LAYER
  2
26
 70
     0
 62
     7
  6
CONTINUOUS
  0
LAYER
  2
27
 70
     0
 62
     7
  6
CONTINUOUS
  0
LAYER
  2
28
 70
     0
 62
     7
  6
CONTINUOUS
  0
LAYER
  2
29
 70
     0
 62
     7
  6
CONTINUOUS
  0
LAYER
  2
30
 70
     0
 62
     7
  6
CONTINUOUS
  0
LAYER
  2
31
 70
     0
 62
     7
  6
CONTINUOUS
  0
ENDTAB
  0
ENDSEC
  0
SECTION
  2
ENTITIES
  0
LINE
  8
0
  6
CONTINUOUS
 62
0
 10
0.310342580337118
 20
0.21084796058993
 30
0.0
 11
2.82770236440123
 21
0.367423938961472
 31
0.0
  0
LINE
  8
0
  6
CONTINUOUS
 62
0
 10
2.82165744430218
 20
0.40597054951084
 30
0.0
 11
2.8265110220561
 21
0.627466192620974
 31
0.0
  0
LINE
  8
0
  6
CONTINUOUS
 62
0
 10
2.79498004835112
 20
0.650448358338423
 30
0.0
 11
2.19715287218905
 21
1.2404701274228
 31
0.0
  0
LINE
  8
0
  6
CONTINUOUS
 62
0
 10
2.15835516509576
 20
1.24460777991561
 30
0.0
 11
1.9642485894373
 21
1.23857497543262
 31
0.0
  0
LINE
  8
0
  6
CONTINUOUS
 62
0
 10
1.95021033853224
 20
1.20217017141756
 30
0.0
 11
1.81963424700378
 21
0.836267405034379
 31
0.0
  0
LINE
  8
0
  6
CONTINUOUS
 62
0
 10
1.78427890794445
 20
1.02162274409371
 30
0.0
 11
1.41377041995679
 21
0.342003105628138
 31
0.0
  0
LINE
  8
0
  6
CONTINUOUS
 62
0
 10
1.40772549985774
 20
0.380549716177506
 30
0.0
 11
1.41257907761166
 21
0.60204674817653
 31
0.0
  0
LINE
  8
0
  6
CONTINUOUS
 62
0
 10
1.38104810390668
 20
0.625028913893979
 30
0.0
 11
0.783220927744607
 21
1.21504929408946
 31
0.0
  0
LINE
  8
0
  6
CONTINUOUS
 62
0
 10
0.744423220651311
 20
1.21918694658227
 30
0.0
 11
0.550316644992854
 21
1.21315414209928
 31
0.0
  0
LINE
  8
0
  6
CONTINUOUS
 62
0
 10
0.536278394087792
 20
1.17674933808422
 30
0.0
 11
0.40570230255934
 21
0.810847960589929
 31
0.0
  0
LINE
  8
0
  6
CONTINUOUS
 62
0
 10
0.370346963500012
 20
0.996203299649256
 30
0.0
 11
0.21820230255934
 21
0.996203299649256
 31
0.0
  0
LINE
  8
0
  6
CONTINUOUS
 62
0
 10
0.21820230255934
 20
0.996203299649256
 30
0.0
 11
0.21820230255934
 21
1.46084934947882
 31
0.0
  0
LINE
  8
0
  6
CONTINUOUS
 62
0
 10
0.21820230255934
 20
1.46084934947882
 30
0.0
 11
0.243322539349758
 21
1.55459934947882
 31
0.0
  0
LINE
  8
0
  6
CONTINUOUS
 62
0
 10
0.243322539349758
 20
1.55459934947882
 30
0.0
 11
0.31195230255934
 21
1.6232291126884
 31
0.0
  0
LINE
  8
0
  6
CONTINUOUS
 62
0
 10
0.31195230255934
 20
1.6232291126884
 30
0.0
 11
0.40570230255934
 21
1.64834934947882
 31
0.0
  0
LINE
  8
0
  6
CONTINUOUS
 62
0
 10
0.40570230255934
 20
1.64834934947882
 30
0.0
 11
1.41000791995679
 21
1.66767393896147
 31
0.0
  0
LINE
  8
0
  6
CONTINUOUS
 62
0
 10
1.40396299985774
 20
1.70622054951084
 30
0.0
 11
1.40881657761166
 21
1.92771758150986
 31
0.0
  0
LINE
  8
0
  6
CONTINUOUS
 62
0
 10
1.37728560390668
 20
1.95069974722731
 30
0.0
 11
0.779458427744607
 21
2.5407201274228
 31
0.0
  0
LINE
  8
0
  6
CONTINUOUS
 62
0
 10
0.74066072065131
 20
2.54485777991561
 30
0.0
 11
0.546554144992854
 21
2.53882497543262
 31
0.0
  0
LINE
  8
0
  6
CONTINUOUS
 62
0
 10
0.532515894087792
 20
2.50242017141756
 30
0.0
 11
0.40193980255934
 21
2.13651879392327
 31
0.0
  0
LINE
  8
0
  6
CONTINUOUS
 62
0
 10
0.366584463500013
 20
2.3218741329826
 30
0.0
 11
0.21443980255934
 21
2.3218741329826
 31
0.0
  0
LINE
  8
0
  6
CONTINUOUS
 62
0
 10
0.21443980255934
 20
2.3218741329826
 30
0.0
 11
0.21443980255934
 21
2.78652018281215
 31
0.0
  0
LINE
  8
0
  6
CONTINUOUS
 62
0
 10
0.21443980255934
 20
2.78652018281215
 30
0.0
 11
0.239560039349758
 21
2.88027018281215
 31
0.0
  0
LINE
  8
0
  6
CONTINUOUS
 62
0
 10
0.239560039349758
 20
2.88027018281215
 30
0.0
 11
0.30818980255934
 21
2.94889994602173
 31
0.0
  0
LINE
  8
0
  6
CONTINUOUS
 62
0
 10
0.30818980255934
 20
2.94889994602173
 30
0.0
 11
0.40193980255934
 21
2.97402018281215
 31
0.0
  0
LINE
  8
0
  6
CONTINUOUS
 62
0
 10
0.40193980255934
 20
2.97402018281215
 30
0.0
 11
1.38501208662345
 21
2.98513505007258
 31
0.0
  0
LINE
  8
0
  6
CONTINUOUS
 62
0
 10
1.37896716652441
 20
3.02368166062195
 30
0.0
 11
1.38382074427833
 21
3.24517730373208
 31
0.0
  0
LINE
  8
0
  6
CONTINUOUS
 62
0
 10
1.35228977057335
 20
3.26815946944953
 30
0.0
 11
0.754462594411274
 21
3.85818123853391
 31
0.0
  0
LINE
  8
0
  6
CONTINUOUS
 62
0
 10
0.715664887317977
 20
3.86231889102672
 30
0.0
 11
0.521558311659521
 21
3.85628608654373
 31
0.0
  0
LINE
  8
0
  6
CONTINUOUS
 62
0
 10
0.507520060754459
 20
3.81988128252867
 30
0.0
 11
0.376943969226006
 21
3.45397990503438
 31
0.0
  0
LINE
  8
0
  6
CONTINUOUS
 62
0
 10
0.341588630166679
 20
3.63933524409371
 30
0.0
 11
0.189443969226006
 21
3.63933524409371
 31
0.0
  0
LINE
  8
0
  6
CONTINUOUS
 62
0
 10
0.189443969226006
 20
3.63933524409371
 30
0.0
 11
0.189443969226006
 21
4.10397990503438
 31
0.0
  0
LINE
  8
0
  6
CONTINUOUS
 62
0
 10
0.189443969226006
 20
4.10397990503438
 30
0.0
 11
0.214564206016424
 21
4.19772990503438
 31
0.0
  0
LINE
  8
0
  6
CONTINUOUS
 62
0
 10
0.214564206016424
 20
4.19772990503438
 30
0.0
 11
0.283193969226006
 21
4.26635966824396
 31
0.0
  0
LINE
  8
0
  6
CONTINUOUS
 62
0
 10
0.283193969226006
 20
4.26635966824396
 30
0.0
 11
0.376943969226006
 21
4.29147990503438
 31
0.0
  0
LINE
  8
0
  6
CONTINUOUS
 62
0
 10
0.376943969226006
 20
4.29147990503438
 30
0.0
 11
3.30428645515185
 21
5.04118551597928
 31
0.0
  0
LINE
  8
0
  6
CONTINUOUS
 62
0
 10
3.34308416224515
 20
5.03704786348648
 30
0.0
 11
3.53112969417368
 21
5.04214778411445
 31
0.0
  0
LINE
  8
0
  6
CONTINUOUS
 62
0
 10
3.56266066787866
 20
5.019165618397
 30
0.0
 11
4.15754251849523
 21
5.9031705933295
 31
0.0
  0
LINE
  8
0
  6
CONTINUOUS
 62
0
 10
4.16358743859427
 20
5.86462398278014
 30
0.0
 11
4.15940147778236
 21
5.68426041756266
 31
0.0
  0
LINE
  8
0
  6
CONTINUOUS
 62
0
 10
4.12904159386635
 20
5.65975205791835
 30
0.0
 11
4.08762775610396
 21
4.66473191987707
 31
0.0
  0
LINE
  8
0
  6
CONTINUOUS
 62
0
 10
4.0735895051989
 20
4.62832711586201
 30
0.0
 11
3.90441045941718
 21
4.38128584675336
 31
0.0
  0
LINE
  8
0
  6
CONTINUOUS
 62
0
 10
3.88142829369973
 20
4.34975487304838
 30
0.0
 11
3.55934408979641
 21
4.06857901260284
 31
0.0
  0
LINE
  8
0
  6
CONTINUOUS
 62
0
 10
3.43707730255934
 20
4.20002296058993
 30
0.0
 11
3.311166837492
 21
4.13079843614978
 31
0.0
  0
LINE
  8
0
  6
CONTINUOUS
 62
0
 10
3.311166837492
 20
4.13079843614978
 30
0.0
 11
2.99289736757548
 21
4.70968947654359
 31
0.0
  0
LINE
  8
0
  6
CONTINUOUS
 62
0
 10
2.99289736757548
 20
4.70968947654359
 30
0.0
 11
2.96970230255934
 21
4.80002296058993
 31
0.0
  0
LINE
  8
0
  6
CONTINUOUS
 62
0
 10
2.96970230255934
 20
4.80002296058993
 30
0.0
 11
2.96970230255934
 21
5.30002296058993
 31
0.0
  0
LINE
  8
0
  6
CONTINUOUS
 62
0
 10
2.96970230255934
 20
5.30002296058993
 30
0.0
 11
3.37871145515185
 21
7.12506190486817
 31
0.0
  0
LINE
  8
0
  6
CONTINUOUS
 62
0
 10
3.41750916224515
 20
7.12092425237537
 30
0.0
 11
3.6110191457015
 21
7.12614340775983
 31
0.0
  0
LINE
  8
0
  6
CONTINUOUS
 62
0
 10
3.63400131141894
 20
7.15767438146481
 30
0.0
 11
4.23196612960634
 21
7.98704698221838
 31
0.0
  0
LINE
  8
0
  6
CONTINUOUS
 62
0
 10
4.23801104970538
 20
7.94850037166902
 30
0.0
 11
4.23196612960634
 21
7.76474837110728
 31
0.0
  0
LINE
  8
0
  6
CONTINUOUS
 62
0
 10
4.23801104970538
 20
7.72620176055791
 30
0.0
 11
4.16205275610396
 21
6.74860969765484
 31
0.0
  0
LINE
  8
0
  6
CONTINUOUS
 62
0
 10
4.1480145051989
 20
6.71220489363978
 30
0.0
 11
3.9788340705283
 21
6.46516223564225
 31
0.0
  0
LINE
  8
0
  6
CONTINUOUS
 62
0
 10
3.95585190481085
 20
6.43363126193728
 30
0.0
 11
3.63376908979641
 21
6.15245540149173
 31
0.0
  0
LINE
  8
0
  6
CONTINUOUS
 62
0
 10
3.51150230255934
 20
6.28389934947882
 30
0.0
 11
1.3564440310679
 21
7.10579199451703
 31
0.0
  0
LINE
  8
0
  6
CONTINUOUS
 62
0
 10
1.35039911096885
 20
7.1443386050664
 30
0.0
 11
1.35525268872277
 21
7.36583424817653
 31
0.0
  0
LINE
  8
0
  6
CONTINUOUS
 62
0
 10
1.32372171501779
 20
7.38881641389398
 30
0.0
 11
0.725895927744607
 21
7.97883679408947
 31
0.0
  0
LINE
  8
0
  6
CONTINUOUS
 62
0
 10
0.687098220651311
 20
7.98297444658227
 30
0.0
 11
0.492991644992854
 21
7.97694164209928
 31
0.0
  0
LINE
  8
0
  6
CONTINUOUS
 62
0
 10
0.478953394087792
 20
7.94053683808422
 30
0.0
 11
0.348375913670451
 21
7.57463684947882
 31
0.0
  0
LINE
  8
0
  6
CONTINUOUS
 62
0
 10
0.313020574611124
 20
7.75999218853814
 30
0.0
 11
0.160875913670451
 21
7.75999218853814
 31
0.0
  0
LINE
  8
0
  6
CONTINUOUS
 62
0
 10
0.160875913670451
 20
7.75999218853814
 30
0.0
 11
0.160875913670451
 21
8.22463684947882
 31
0.0
  0
LINE
  8
0
  6
CONTINUOUS
 62
0
 10
0.160875913670451
 20
8.22463684947882
 30
0.0
 11
0.185996150460869
 21
8.31838684947882
 31
0.0
  0
LINE
  8
0
  6
CONTINUOUS
 62
0
 10
0.185996150460869
 20
8.31838684947882
 30
0.0
 11
0.254625913670451
 21
8.3870166126884
 31
0.0
  0
LINE
  8
0
  6
CONTINUOUS
 62
0
 10
0.254625913670451
 20
8.3870166126884
 30
0.0
 11
0.348375913670451
 21
8.41213684947882
 31
0.0
  0
LINE
  8
0
  6
CONTINUOUS
 62
0
 10
0.348375913670451
 20
8.41213684947882
 30
0.0
 11
1.33144819773457
 21
8.42325171673926
 31
0.0
  0
LINE
  8
0
  6
CONTINUOUS
 62
0
 10
1.32540327763552
 20
8.46179832728862
 30
0.0
 11
1.33025685538944
 21
8.68329397039875
 31
0.0
  0
LINE
  8
0
  6
CONTINUOUS
 62
0
 10
1.29872588168446
 20
8.7062761361162
 30
0.0
 11
0.700900094411274
 21
9.29629790520058
 31
0.0
  0
LINE
  8
0
  6
CONTINUOUS
 62
0
 10
0.662102387317978
 20
9.30043555769339
 30
0.0
 11
0.467994422770632
 21
9.2944027532104
 31
0.0
  0
LINE
  8
0
  6
CONTINUOUS
 62
0
 10
0.453956171865572
 20
9.25799794919534
 30
0.0
 11
0.323380080337118
 21
8.89209657170104
 31
0.0
  0
LINE
  8
0
  6
CONTINUOUS
 62
0
 10
0.28802474127779
 20
9.07745191076036
 30
0.0
 11
0.133348988344479
 21
9.07829602049393
 31
0.0
  0
LINE
  8
0
  6
CONTINUOUS
 62
0
 10
0.133348988344479
 20
9.07829602049393
 30
0.0
 11
0.135880080337118
 21
9.54209657170104
 31
0.0
  0
LINE
  8
0
  6
CONTINUOUS
 62
0
 10
0.135880080337118
 20
9.54209657170104
 30
0.0
 11
0.161000317127536
 21
9.63584657170104
 31
0.0
  0
LINE
  8
0
  6
CONTINUOUS
 62
0
 10
0.161000317127536
 20
9.63584657170104
 30
0.0
 11
0.229630080337118
 21
9.70447633491062
 31
0.0
  0
LINE
  8
0
  6
CONTINUOUS
 62
0
 10
0.229630080337118
 20
9.70447633491062
 30
0.0
 11
0.323380080337118
 21
9.72959657170104
 31
0.0
  0
LINE
  8
0
  6
CONTINUOUS
 62
0
 10
0.323380080337118
 20
9.72959657170104
 30
0.0
 11
2.73234264217901
 21
9.81607810562814
 31
0.0
  0
LINE
  8
0
  6
CONTINUOUS
 62
0
 10
2.72629772207996
 20
9.8546247161775
 30
0.0
 11
2.73115129983388
 21
10.0761217481766
 31
0.0
  0
LINE
  8
0
  6
CONTINUOUS
 62
0
 10
2.6996203261289
 20
10.099103913894
 30
0.0
 11
2.10179314996683
 21
10.6891242940894
 31
0.0
  0
LINE
  8
0
  6
CONTINUOUS
 62
0
 10
2.06299544287354
 20
10.6932619465822
 30
0.0
 11
1.86888886721507
 21
10.6872291420992
 31
0.0
  0
LINE
  8
0
  6
CONTINUOUS
 62
0
 10
1.85485061631001
 20
10.6508243380842
 30
0.0
 11
1.72427452478156
 21
10.2849229605899
 31
0.0
  0
LINE
  8
0
  6
CONTINUOUS
 62
0
 10
1.68891918572223
 20
10.4702782996492
 30
0.0
 11
0.457428121818517
 21
10.6561966270904
 31
0.0
  0
LINE
  8
0
  6
CONTINUOUS
 62
0
 10
0.496225828911813
 20
10.6520589745976
 30
0.0
 11
0.684271360840351
 21
10.6571588952256
 31
0.0
  0
LINE
  8
0
  6
CONTINUOUS
 62
0
 10
0.715802334545332
 20
10.6341767295081
 30
0.0
 11
1.31068279627301
 21
10.0478247599961
 31
0.0
  0
LINE
  8
0
  6
CONTINUOUS
 62
0
 10
1.31672771637205
 20
10.0092781494468
 30
0.0
 11
1.31362812181852
 21
9.78682023820151
 31
0.0
  0
LINE
  8
0
  6
CONTINUOUS
 62
0
 10
1.35242582891182
 20
9.7826825857087
 30
0.0
 11
1.710343969226
 21
9.65950351614549
 31
0.0
  0
LINE
  8
0
  6
CONTINUOUS
 62
0
 10
1.560343969226
 20
9.60950351614549
 30
0.0
 11
2.74538014217901
 21
8.44867116118369
 31
0.0
  0
LINE
  8
0
  6
CONTINUOUS
 62
0
 10
2.73933522207996
 20
8.48721777173306
 30
0.0
 11
2.74418879983388
 21
8.70871480373209
 31
0.0
  0
LINE
  8
0
  6
CONTINUOUS
 62
0
 10
2.7126578261289
 20
8.73169696944954
 30
0.0
 11
2.11483064996683
 21
9.32171734964503
 31
0.0
  0
LINE
  8
0
  6
CONTINUOUS
 62
0
 10
2.07603294287354
 20
9.32585500213783
 30
0.0
 11
1.88192636721507
 21
9.31982219765484
 31
0.0
  0
LINE
  8
0
  6
CONTINUOUS
 62
0
 10
1.86788811631001
 20
9.28341739363978
 30
0.0
 11
1.73731202478156
 21
8.91751601614549
 31
0.0
  0
LINE
  8
0
  6
CONTINUOUS
 62
0
 10
1.70195668572223
 20
9.10287135520482
 30
0.0
 11
2.77037597551234
 21
7.13121143896147
 31
0.0
  0
LINE
  8
0
  6
CONTINUOUS
 62
0
 10
2.76433105541329
 20
7.16975804951083
 30
0.0
 11
2.76918463316722
 21
7.39125369262097
 31
0.0
  0
LINE
  8
0
  6
CONTINUOUS
 62
0
 10
2.73765365946224
 20
7.41423585833841
 30
0.0
 11
2.13982648330016
 21
8.0042576274228
 31
0.0
  0
LINE
  8
0
  6
CONTINUOUS
 62
0
 10
2.10102877620687
 20
8.0083952799156
 30
0.0
 11
1.90692220054841
 21
8.00236247543262
 31
0.0
  0
LINE
  8
0
  6
CONTINUOUS
 62
0
 10
1.89288394964335
 20
7.96595767141756
 30
0.0
 11
1.76230785811489
 21
7.60005629392327
 31
0.0
  0
LINE
  8
0
  6
CONTINUOUS
 62
0
 10
1.72695251905556
 20
7.7854116329826
 30
0.0
 11
2.77413847551234
 21
5.80554060562814
 31
0.0
  0
LINE
  8
0
  6
CONTINUOUS
 62
0
 10
2.76809355541329
 20
5.8440872161775
 30
0.0
 11
2.77294713316722
 21
6.06558285928764
 31
0.0
  0
LINE
  8
0
  6
CONTINUOUS
 62
0
 10
2.74141615946224
 20
6.08856502500509
 30
0.0
 11
2.14359037218905
 21
6.67858679408947
 31
0.0
  0
LINE
  8
0
  6
CONTINUOUS
 62
0
 10
2.10479266509576
 20
6.68272444658227
 30
0.0
 11
1.91068470054841
 21
6.67669164209928
 31
0.0
  0
LINE
  8
0
  6
CONTINUOUS
 62
0
 10
1.89664644964335
 20
6.64028683808422
 30
0.0
 11
1.76607035811489
 21
6.27438546058993
 31
0.0
  0
LINE
  8
0
  6
CONTINUOUS
 62
0
 10
1.73071501905556
 20
6.45974079964926
 30
0.0
 11
0.49922395515185
 21
6.6456577382015
 31
0.0
  0
LINE
  8
0
  6
CONTINUOUS
 62
0
 10
0.538021662245146
 20
6.6415200857087
 30
0.0
 11
0.726067194173684
 21
6.64662000633666
 31
0.0
  0
LINE
  8
0
  6
CONTINUOUS
 62
0
 10
0.757598167878665
 20
6.62363784061922
 30
0.0
 11
1.35247862960634
 21
6.03728725999617
 31
0.0
  0
LINE
  8
0
  6
CONTINUOUS
 62
0
 10
1.35852354970538
 20
5.9987406494468
 30
0.0
 11
1.35542395515185
 21
5.7762827382015
 31
0.0
  0
LINE
  8
0
  6
CONTINUOUS
 62
0
 10
1.39422166224515
 20
5.7721450857087
 30
0.0
 11
1.75213980255934
 21
5.64896601614549
 31
0.0
  0
LINE
  8
0
  6
CONTINUOUS
 62
0
 10
1.60213980255934
 20
5.59896601614549
 30
0.0
 11
2.7859065310679
 21
4.37796143896147
 31
0.0
  0
LINE
  8
0
  6
CONTINUOUS
 62
0
 10
2.77986161096885
 20
4.41650804951084
 30
0.0
 11
2.78471518872277
 21
4.63800369262097
 31
0.0
  0
LINE
  8
0
  6
CONTINUOUS
 62
0
 10
2.75318421501779
 20
4.66098585833842
 30
0.0
 11
2.15535703885572
 21
5.2510076274228
 31
0.0
  0
LINE
  8
0
  6
CONTINUOUS
 62
0
 10
2.11655933176243
 20
5.25514527991561
 30
0.0
 11
1.92245275610396
 21
5.24911247543262
 31
0.0
  0
LINE
  8
0
  6
CONTINUOUS
 62
0
 10
1.9084145051989
 20
5.21270767141756
 30
0.0
 11
1.77783841367045
 21
4.84680629392326
 31
0.0
  0
LINE
  8
0
  6
CONTINUOUS
 62
0
 10
1.74248307461112
 20
5.03216163298259
 30
0.0
 11
0.510990621818516
 21
5.21807996042372
 31
0.0
  0
LINE
  8
0
  6
CONTINUOUS
 62
0
 10
0.549788328911812
 20
5.21394230793092
 30
0.0
 11
0.737833860840351
 21
5.21904222855889
 31
0.0
  0
LINE
  8
0
  6
CONTINUOUS
 62
0
 10
0.769364834545332
 20
5.19606006284144
 30
0.0
 11
1.36424668516189
 21
4.60970809332951
 31
0.0
  0
LINE
  8
0
  6
CONTINUOUS
 62
0
 10
1.37029160526094
 20
4.57116148278014
 30
0.0
 11
1.3671920107074
 21
4.34870357153483
 31
0.0
  0
LINE
  8
0
  6
CONTINUOUS
 62
0
 10
1.4059897178007
 20
4.34456591904203
 30
0.0
 11
1.763906469226
 21
4.22138684947882
 31
0.0
  0
LINE
  8
0
  6
CONTINUOUS
 62
0
 10
1.613906469226
 20
4.17138684947882
 30
0.0
 11
2.7989440310679
 21
3.01055449451702
 31
0.0
  0
LINE
  8
0
  6
CONTINUOUS
 62
0
 10
2.79289911096885
 20
3.04910110506639
 30
0.0
 11
2.79775268872277
 21
3.27059674817653
 31
0.0
  0
LINE
  8
0
  6
CONTINUOUS
 62
0
 10
2.76622171501779
 20
3.29357891389398
 30
0.0
 11
2.16839453885571
 21
3.88360068297835
 31
0.0
  0
LINE
  8
0
  6
CONTINUOUS
 62
0
 10
2.12959683176242
 20
3.88773833547116
 30
0.0
 11
1.93549025610396
 21
3.88170553098817
 31
0.0
  0
LINE
  8
0
  6
CONTINUOUS
 62
0
 10
1.9214520051989
 20
3.84530072697311
 30
0.0
 11
1.79087591367045
 21
3.47939934947882
 31
0.0
  0
LINE
  8
0
  6
CONTINUOUS
 62
0
 10
1.75552057461112
 20
3.66475468853815
 30
0.0
 11
2.82393986440123
 21
1.6930947722948
 31
0.0
  0
LINE
  8
0
  6
CONTINUOUS
 62
0
 10
2.81789494430219
 20
1.73164138284417
 30
0.0
 11
2.82274852205611
 21
1.95313702595431
 31
0.0
  0
LINE
  8
0
  6
CONTINUOUS
 62
0
 10
2.79121754835113
 20
1.97611919167176
 30
0.0
 11
2.19339037218905
 21
2.56613957186724
 31
0.0
  0
LINE
  8
0
  6
CONTINUOUS
 62
0
 10
2.15459266509576
 20
2.57027722436005
 30
0.0
 11
1.9604860894373
 21
2.56424441987706
 31
0.0
  0
LINE
  8
0
  6
CONTINUOUS
 62
0
 10
1.94644783853224
 20
2.527839615862
 30
0.0
 11
1.81587174700378
 21
2.1619396272566
 31
0.0
  0
LINE
  8
0
  6
CONTINUOUS
 62
0
 10
1.78051640794445
 20
2.34729496631593
 30
0.0
 11
1.64793388647198
 21
2.21471244484345
 31
0.0
  0
LINE
  8
0
  6
CONTINUOUS
 62
0
 10
1.64793388647198
 20
2.21471244484345
 30
0.0
 11
2.4332892255313
 21
1.42935710578412
 31
0.0
  0
LINE
  8
0
  6
CONTINUOUS
 62
0
 10
2.4332892255313
 20
1.42935710578412
 30
0.0
 11
2.56587174700378
 21
1.3744396272566
 31
0.0
  0
LINE
  8
0
  6
CONTINUOUS
 62
0
 10
2.56587174700378
 20
1.3744396272566
 30
0.0
 11
3.06587174700378
 21
1.3744396272566
 31
0.0
  0
LINE
  8
0
  6
CONTINUOUS
 62
0
 10
3.06587174700378
 20
1.3744396272566
 30
0.0
 11
3.15962174700378
 21
1.39955986404702
 31
0.0
  0
LINE
  8
0
  6
CONTINUOUS
 62
0
 10
3.15962174700378
 20
1.39955986404702
 30
0.0
 11
3.22825151021336
 21
1.4681896272566
 31
0.0
  0
LINE
  8
0
  6
CONTINUOUS
 62
0
 10
3.22825151021336
 20
1.4681896272566
 30
0.0
 11
3.25337174700378
 21
1.5619396272566
 31
0.0
  0
LINE
  8
0
  6
CONTINUOUS
 62
0
 10
3.25337174700378
 20
1.5619396272566
 30
0.0
 11
3.32661423292963
 21
3.09127162709039
 31
0.0
  0
LINE
  8
0
  6
CONTINUOUS
 62
0
 10
3.36541194002293
 20
3.08713397459759
 30
0.0
 11
3.55345747195146
 21
3.09223389522555
 31
0.0
  0
LINE
  8
0
  6
CONTINUOUS
 62
0
 10
3.58498844565644
 20
3.06925172950811
 30
0.0
 11
4.17986890738412
 21
3.9532580933295
 31
0.0
  0
LINE
  8
0
  6
CONTINUOUS
 62
0
 10
4.18591382748316
 20
3.91471148278014
 30
0.0
 11
4.18172786667125
 21
3.73434791756266
 31
0.0
  0
LINE
  8
0
  6
CONTINUOUS
 62
0
 10
4.15136798275524
 20
3.70983955791835
 30
0.0
 11
4.10995553388174
 21
2.71481941987706
 31
0.0
  0
LINE
  8
0
  6
CONTINUOUS
 62
0
 10
4.09591728297668
 20
2.678414615862
 30
0.0
 11
3.92673684830607
 21
2.43137334675336
 31
0.0
  0
LINE
  8
0
  6
CONTINUOUS
 62
0
 10
3.90375468258862
 20
2.39984237304838
 30
0.0
 11
3.58167186757419
 21
2.11866512371395
 31
0.0
  0
LINE
  8
0
  6
CONTINUOUS
 62
0
 10
3.45940508033712
 20
2.25010907170104
 30
0.0
 11
4.20670779627301
 21
1.95617198221839
 31
0.0
  0
LINE
  8
0
  6
CONTINUOUS
 62
0
 10
4.21275271637205
 20
1.91762537166903
 30
0.0
 11
4.20681763572647
 21
1.73487630799742
 31
0.0
  0
LINE
  8
0
  6
CONTINUOUS
 62
0
 10
4.20267998323367
 20
1.69607860090412
 30
0.0
 11
3.95975601568138
 21
0.429755667969466
 31
0.0
  0
LINE
  8
0
  6
CONTINUOUS
 62
0
 10
3.97379426658644
 20
0.466160471984527
 30
0.0
 11
4.14285546650055
 21
0.718666192620974
 31
0.0
  0
LINE
  8
0
  6
CONTINUOUS
 62
0
 10
4.11132449279557
 20
0.741648358338423
 30
0.0
 11
3.58388620552238
 21
1.1016951274228
 31
0.0
  0
LINE
  8
0
  6
CONTINUOUS
 62
0
 10
3.54508849842909
 20
1.10583277991561
 30
0.0
 11
3.35098192277063
 21
1.09979997543262
 31
0.0
  0
LINE
  8
0
  6
CONTINUOUS
 62
0
 10
3.33694367186557
 20
1.06339517141756
 30
0.0
 11
3.20636758033712
 21
0.703026875688227
 31
0.0
  0
LINE
  8
0
  6
CONTINUOUS
 62
0
 10
3.1822786512581
 20
0.896841525017256
 30
0.0
 11
3.08136758033712
 21
0.853026875688227
 31
0.0
  0
LINE
  8
0
  6
CONTINUOUS
 62
0
 10
3.08136758033712
 20
0.853026875688227
 30
0.0
 11
3.42670734590343
 21
0.192802026781263
 31
0.0
  0
LINE
  8
0
  6
CONTINUOUS
 62
0
 10
3.42670734590343
 20
0.192802026781263
 30
0.0
 11
3.47261532134313
 21
0.145430691819099
 31
0.0
  0
LINE
  8
0
  6
CONTINUOUS
 62
0
 10
3.47261532134313
 20
0.145430691819099
 30
0.0
 11
3.536243969226
 21
0.12802434947882
 31
0.0
  0
LINE
  8
0
  6
CONTINUOUS
 62
0
 10
3.536243969226
 20
0.12802434947882
 30
0.0
 11
4.03624327478156
 21
0.12802434947882
 31
0.0
  0
LINE
  8
0
  6
CONTINUOUS
 62
0
 10
4.03624327478156
 20
0.12802434947882
 30
0.0
 11
4.58162591367045
 21
0.21084796058993
 31
0.0
  0
ARC
  8
3
  6
CONTINUOUS
 62
3
 10
2.82383841366448
 20
0.367339627262564
 30
0.0
 40
0.0885833333273692
 50
89.9999999961411
 51
180.000000003859
  0
ARC
  8
3
  6
CONTINUOUS
 62
3
 10
2.82383841367045
 20
0.367339627256597
 30
0.0
 40
0.088583333333335
 50
179.999999999999
 51
359.999999999999
  0
ARC
  8
3
  6
CONTINUOUS
 62
3
 10
2.82383841367641
 20
0.367339627262565
 30
0.0
 40
0.0885833333273692
 50
359.999999996141
 51
90.0000000038585
  0
ARC
  8
3
  6
CONTINUOUS
 62
3
 10
2.82383841366084
 20
0.624674349482797
 30
0.0
 40
0.0885833333237331
 50
134.999999997427
 51
180.000000002572
  0
ARC
  8
3
  6
CONTINUOUS
 62
3
 10
2.82383841367045
 20
0.624674349478819
 30
0.0
 40
0.088583333333335
 50
179.999999999999
 51
359.999999999999
  0
ARC
  8
3
  6
CONTINUOUS
 62
3
 10
2.82383841367374
 20
0.624674349486775
 30
0.0
 40
0.0885833333300401
 50
359.999999994855
 51
135.000000005145
  0
ARC
  8
3
  6
CONTINUOUS
 62
3
 10
2.19623424697358
 20
1.23671601614947
 30
0.0
 40
0.0885833333031253
 50
164.999999997428
 51
180.000000002573
  0
ARC
  8
3
  6
CONTINUOUS
 62
3
 10
2.19623424700379
 20
1.23671601614549
 30
0.0
 40
0.088583333333335
 50
179.999999999999
 51
359.999999999999
  0
ARC
  8
3
  6
CONTINUOUS
 62
3
 10
2.19623424700483
 20
1.23671601615344
 30
0.0
 40
0.0885833333322879
 50
359.999999994855
 51
165.000000005145
  0
ARC
  8
3
  6
CONTINUOUS
 62
3
 10
1.96763702478616
 20
1.23671601613753
 30
0.0
 40
0.0885833333287377
 50
239.999999994854
 51
5.14478891942303E-9
  0
ARC
  8
3
  6
CONTINUOUS
 62
3
 10
1.96763702478156
 20
1.23671601614549
 30
0.0
 40
0.0885833333333302
 50
359.999999999999
 51
180
  0
ARC
  8
3
  6
CONTINUOUS
 62
3
 10
1.96763702477467
 20
1.23671601614151
 30
0.0
 40
0.0885833333264416
 50
179.999999997427
 51
240.000000002572
  0
LINE
  8
3
  6
CONTINUOUS
 62
3
 10
1.81963424700378
 20
0.986267405034379
 30
0.0
 11
1.81963424700378
 21
1.48626879392327
 31
0.0
  0
LINE
  8
3
  6
CONTINUOUS
 62
3
 10
1.81963424700378
 20
1.48626879392327
 30
0.0
 11
3.06963424700378
 21
1.48626879392327
 31
0.0
  0
LINE
  8
3
  6
CONTINUOUS
 62
3
 10
3.06963424700378
 20
1.48626879392327
 30
0.0
 11
3.06963424700378
 21
0.236267405034376
 31
0.0
  0
LINE
  8
3
  6
CONTINUOUS
 62
3
 10
3.06963424700378
 20
0.236267405034376
 30
0.0
 11
2.56963424700378
 21
0.236267405034376
 31
0.0
  0
LINE
  8
3
  6
CONTINUOUS
 62
3
 10
2.56963424700378
 20
0.236267405034376
 30
0.0
 11
1.81963424700378
 21
0.986267405034379
 31
0.0
  0
ARC
  8
3
  6
CONTINUOUS
 62
3
 10
1.40990646922004
 20
0.34191879392923
 30
0.0
 40
0.0885833333273692
 50
89.9999999961407
 51
180.000000003858
  0
ARC
  8
3
  6
CONTINUOUS
 62
3
 10
1.40990646922601
 20
0.341918793923263
 30
0.0
 40
0.088583333333335
 50
179.999999999999
 51
359.999999999999
  0
ARC
  8
3
  6
CONTINUOUS
 62
3
 10
1.40990646923197
 20
0.341918793929231
 30
0.0
 40
0.0885833333273691
 50
359.99999999614
 51
90.0000000038581
  0
ARC
  8
3
  6
CONTINUOUS
 62
3
 10
1.4099064692164
 20
0.599254905038353
 30
0.0
 40
0.0885833333237332
 50
134.999999997427
 51
180.000000002572
  0
ARC
  8
3
  6
CONTINUOUS
 62
3
 10
1.40990646922601
 20
0.599254905034375
 30
0.0
 40
0.088583333333335
 50
179.999999999999
 51
359.999999999999
  0
ARC
  8
3
  6
CONTINUOUS
 62
3
 10
1.4099064692293
 20
0.599254905042331
 30
0.0
 40
0.0885833333300402
 50
359.999999994855
 51
135.000000005145
  0
ARC
  8
3
  6
CONTINUOUS
 62
3
 10
0.782302302529129
 20
1.21129518281613
 30
0.0
 40
0.0885833333031236
 50
164.999999997427
 51
180.000000002572
  0
ARC
  8
3
  6
CONTINUOUS
 62
3
 10
0.782302302559339
 20
1.21129518281215
 30
0.0
 40
0.0885833333333335
 50
179.999999999999
 51
359.999999999999
  0
ARC
  8
3
  6
CONTINUOUS
 62
3
 10
0.782302302560387
 20
1.2112951828201
 30
0.0
 40
0.0885833333322863
 50
359.999999994855
 51
165.000000005145
  0
ARC
  8
3
  6
CONTINUOUS
 62
3
 10
0.553705080341711
 20
1.21129518280419
 30
0.0
 40
0.0885833333287409
 50
239.999999994854
 51
5.14473803054813E-9
  0
ARC
  8
3
  6
CONTINUOUS
 62
3
 10
0.553705080337117
 20
1.21129518281215
 30
0.0
 40
0.0885833333333335
 50
359.999999999999
 51
180
  0
ARC
  8
3
  6
CONTINUOUS
 62
3
 10
0.553705080330228
 20
1.21129518280817
 30
0.0
 40
0.0885833333264447
 50
179.999999997427
 51
240.000000002572
  0
LINE
  8
3
  6
CONTINUOUS
 62
3
 10
0.40570230255934
 20
0.960847960589929
 30
0.0
 11
0.40570230255934
 21
1.46084934947882
 31
0.0
  0
LINE
  8
3
  6
CONTINUOUS
 62
3
 10
0.40570230255934
 20
1.46084934947882
 30
0.0
 11
1.65570230255934
 21
1.46084934947882
 31
0.0
  0
LINE
  8
3
  6
CONTINUOUS
 62
3
 10
1.65570230255934
 20
1.46084934947882
 30
0.0
 11
1.65570230255934
 21
0.210847960589931
 31
0.0
  0
LINE
  8
3
  6
CONTINUOUS
 62
3
 10
1.65570230255934
 20
0.210847960589931
 30
0.0
 11
1.15570230255934
 21
0.210847960589931
 31
0.0
  0
LINE
  8
3
  6
CONTINUOUS
 62
3
 10
1.15570230255934
 20
0.210847960589931
 30
0.0
 11
0.40570230255934
 21
0.960847960589929
 31
0.0
  0
ARC
  8
3
  6
CONTINUOUS
 62
3
 10
1.40614396922004
 20
1.66758962726256
 30
0.0
 40
0.0885833333273692
 50
89.9999999961411
 51
180.000000003859
  0
ARC
  8
3
  6
CONTINUOUS
 62
3
 10
1.40614396922601
 20
1.6675896272566
 30
0.0
 40
0.088583333333335
 50
179.999999999999
 51
359.999999999999
  0
ARC
  8
3
  6
CONTINUOUS
 62
3
 10
1.40614396923197
 20
1.66758962726257
 30
0.0
 40
0.0885833333273692
 50
359.999999996141
 51
90.0000000038585
  0
ARC
  8
3
  6
CONTINUOUS
 62
3
 10
1.4061439692164
 20
1.92492573837169
 30
0.0
 40
0.0885833333237332
 50
134.999999997427
 51
180.000000002572
  0
ARC
  8
3
  6
CONTINUOUS
 62
3
 10
1.40614396922601
 20
1.92492573836771
 30
0.0
 40
0.088583333333335
 50
179.999999999999
 51
359.999999999999
  0
ARC
  8
3
  6
CONTINUOUS
 62
3
 10
1.4061439692293
 20
1.92492573837566
 30
0.0
 40
0.0885833333300402
 50
359.999999994854
 51
135.000000005145
  0
ARC
  8
3
  6
CONTINUOUS
 62
3
 10
0.778539802529129
 20
2.53696601614947
 30
0.0
 40
0.0885833333031235
 50
164.999999997427
 51
180.000000002573
  0
ARC
  8
3
  6
CONTINUOUS
 62
3
 10
0.778539802559339
 20
2.53696601614549
 30
0.0
 40
0.0885833333333335
 50
179.999999999999
 51
359.999999999999
  0
ARC
  8
3
  6
CONTINUOUS
 62
3
 10
0.778539802560386
 20
2.53696601615344
 30
0.0
 40
0.0885833333322863
 50
359.999999994854
 51
165.000000005145
  0
ARC
  8
3
  6
CONTINUOUS
 62
3
 10
0.549942580341711
 20
2.53696601613753
 30
0.0
 40
0.0885833333287411
 50
239.999999994855
 51
5.14473803054813E-9
  0
ARC
  8
3
  6
CONTINUOUS
 62
3
 10
0.549942580337117
 20
2.53696601614549
 30
0.0
 40
0.0885833333333336
 50
359.999999999999
 51
180
  0
ARC
  8
3
  6
CONTINUOUS
 62
3
 10
0.549942580330228
 20
2.53696601614151
 30
0.0
 40
0.0885833333264448
 50
179.999999997427
 51
240.000000002572
  0
LINE
  8
3
  6
CONTINUOUS
 62
3
 10
0.40193980255934
 20
2.28651879392327
 30
0.0
 11
0.40193980255934
 21
2.78652018281215
 31
0.0
  0
LINE
  8
3
  6
CONTINUOUS
 62
3
 10
0.40193980255934
 20
2.78652018281215
 30
0.0
 11
1.65193980255934
 21
2.78652018281215
 31
0.0
  0
LINE
  8
3
  6
CONTINUOUS
 62
3
 10
1.65193980255934
 20
2.78652018281215
 30
0.0
 11
1.65193980255934
 21
1.53651879392327
 31
0.0
  0
LINE
  8
3
  6
CONTINUOUS
 62
3
 10
1.65193980255934
 20
1.53651879392327
 30
0.0
 11
1.15193980255934
 21
1.53651879392327
 31
0.0
  0
LINE
  8
3
  6
CONTINUOUS
 62
3
 10
1.15193980255934
 20
1.53651879392327
 30
0.0
 11
0.40193980255934
 21
2.28651879392327
 31
0.0
  0
ARC
  8
3
  6
CONTINUOUS
 62
3
 10
1.38114813588671
 20
2.98505073837367
 30
0.0
 40
0.0885833333273643
 50
89.9999999961411
 51
180.000000003859
  0
ARC
  8
3
  6
CONTINUOUS
 62
3
 10
1.38114813589267
 20
2.98505073836771
 30
0.0
 40
0.0885833333333301
 50
179.999999999999
 51
359.999999999999
  0
ARC
  8
3
  6
CONTINUOUS
 62
3
 10
1.38114813589864
 20
2.98505073837368
 30
0.0
 40
0.0885833333273643
 50
359.999999996141
 51
90.0000000038585
  0
ARC
  8
3
  6
CONTINUOUS
 62
3
 10
1.38114813588307
 20
3.24238546059391
 30
0.0
 40
0.0885833333237283
 50
134.999999997427
 51
180.000000002572
  0
ARC
  8
3
  6
CONTINUOUS
 62
3
 10
1.38114813589267
 20
3.24238546058993
 30
0.0
 40
0.0885833333333301
 50
179.999999999999
 51
359.999999999999
  0
ARC
  8
3
  6
CONTINUOUS
 62
3
 10
1.38114813589597
 20
3.24238546059788
 30
0.0
 40
0.0885833333300354
 50
359.999999994855
 51
135.000000005145
  0
ARC
  8
3
  6
CONTINUOUS
 62
3
 10
0.753543969195796
 20
3.85442712726058
 30
0.0
 40
0.0885833333031236
 50
164.999999997427
 51
180.000000002572
  0
ARC
  8
3
  6
CONTINUOUS
 62
3
 10
0.753543969226006
 20
3.8544271272566
 30
0.0
 40
0.0885833333333336
 50
179.999999999999
 51
359.999999999999
  0
ARC
  8
3
  6
CONTINUOUS
 62
3
 10
0.753543969227054
 20
3.85442712726455
 30
0.0
 40
0.0885833333322864
 50
359.999999994854
 51
165.000000005145
  0
ARC
  8
3
  6
CONTINUOUS
 62
3
 10
0.524946747008378
 20
3.85442712724864
 30
0.0
 40
0.0885833333287411
 50
239.999999994855
 51
5.14475075276685E-9
  0
ARC
  8
3
  6
CONTINUOUS
 62
3
 10
0.524946747003784
 20
3.8544271272566
 30
0.0
 40
0.0885833333333336
 50
359.999999999999
 51
180
  0
ARC
  8
3
  6
CONTINUOUS
 62
3
 10
0.524946746996896
 20
3.85442712725262
 30
0.0
 40
0.0885833333264448
 50
179.999999997427
 51
240.000000002572
  0
LINE
  8
3
  6
CONTINUOUS
 62
3
 10
0.376943969226006
 20
3.60397990503438
 30
0.0
 11
0.376943969226006
 21
4.10397990503438
 31
0.0
  0
LINE
  8
3
  6
CONTINUOUS
 62
3
 10
0.376943969226006
 20
4.10397990503438
 30
0.0
 11
1.626943969226
 21
4.10397990503438
 31
0.0
  0
LINE
  8
3
  6
CONTINUOUS
 62
3
 10
1.626943969226
 20
4.10397990503438
 30
0.0
 11
1.626943969226
 21
2.85397990503438
 31
0.0
  0
LINE
  8
3
  6
CONTINUOUS
 62
3
 10
1.626943969226
 20
2.85397990503438
 30
0.0
 11
1.126943969226
 21
2.85397990503438
 31
0.0
  0
LINE
  8
3
  6
CONTINUOUS
 62
3
 10
1.126943969226
 20
2.85397990503438
 30
0.0
 11
0.376943969226006
 21
3.60397990503438
 31
0.0
  0
ARC
  8
3
  6
CONTINUOUS
 62
3
 10
3.30520508039754
 20
5.04493962724865
 30
0.0
 40
0.0885833332729152
 50
344.999999994855
 51
5.14487956523145E-9
  0
ARC
  8
3
  6
CONTINUOUS
 62
3
 10
3.30520508033712
 20
5.0449396272566
 30
0.0
 40
0.088583333333335
 50
359.999999999999
 51
180
  0
ARC
  8
3
  6
CONTINUOUS
 62
3
 10
3.30520508033659
 20
5.04493962725262
 30
0.0
 40
0.0885833333328114
 50
179.999999997427
 51
345.000000002572
  0
ARC
  8
3
  6
CONTINUOUS
 62
3
 10
3.53380230257854
 20
5.04493962724865
 30
0.0
 40
0.0885833333141312
 50
314.999999994854
 51
5.14458536392342E-9
  0
ARC
  8
3
  6
CONTINUOUS
 62
3
 10
3.53380230255934
 20
5.0449396272566
 30
0.0
 40
0.088583333333335
 50
359.999999999999
 51
180
  0
ARC
  8
3
  6
CONTINUOUS
 62
3
 10
3.53380230255769
 20
5.04493962725262
 30
0.0
 40
0.0885833333316875
 50
179.999999997427
 51
315.000000002572
  0
ARC
  8
3
  6
CONTINUOUS
 62
3
 10
4.16140646923197
 20
5.90325490502841
 30
0.0
 40
0.0885833333273692
 50
269.999999996141
 51
3.85850899514555E-9
  0
ARC
  8
3
  6
CONTINUOUS
 62
3
 10
4.16140646922601
 20
5.90325490503438
 30
0.0
 40
0.088583333333335
 50
359.999999999999
 51
180
  0
ARC
  8
3
  6
CONTINUOUS
 62
3
 10
4.16140646922004
 20
5.90325490502841
 30
0.0
 40
0.0885833333273692
 50
179.999999996141
 51
270.000000003858
  0
ARC
  8
3
  6
CONTINUOUS
 62
3
 10
4.16140646922814
 20
5.68095629391531
 30
0.0
 40
0.0885833333312034
 50
209.999999994854
 51
5.14468714167322E-9
  0
ARC
  8
3
  6
CONTINUOUS
 62
3
 10
4.16140646922601
 20
5.68095629392327
 30
0.0
 40
0.088583333333335
 50
359.999999999999
 51
180
  0
ARC
  8
3
  6
CONTINUOUS
 62
3
 10
4.16140646921116
 20
5.68095629391929
 30
0.0
 40
0.0885833333184916
 50
179.999999997428
 51
210.000000002572
  0
ARC
  8
3
  6
CONTINUOUS
 62
3
 10
4.09101619145282
 20
4.66287296058198
 30
0.0
 40
0.0885833333287409
 50
239.99999999485
 51
5.14351669755044E-9
  0
ARC
  8
3
  6
CONTINUOUS
 62
3
 10
4.09101619144823
 20
4.66287296058993
 30
0.0
 40
0.0885833333333346
 50
359.999999999996
 51
179.999999999997
  0
ARC
  8
3
  6
CONTINUOUS
 62
3
 10
4.09101619144134
 20
4.66287296058596
 30
0.0
 40
0.088583333326451
 50
179.999999997425
 51
240.000000002567
  0
ARC
  8
3
  6
CONTINUOUS
 62
3
 10
3.90720230256263
 20
4.37861323835975
 30
0.0
 40
0.0885833333300401
 50
224.999999994854
 51
5.14471258611067E-9
  0
ARC
  8
3
  6
CONTINUOUS
 62
3
 10
3.90720230255934
 20
4.37861323836771
 30
0.0
 40
0.088583333333335
 50
359.999999999999
 51
180
  0
ARC
  8
3
  6
CONTINUOUS
 62
3
 10
3.90720230254974
 20
4.37861323836373
 30
0.0
 40
0.0885833333237331
 50
179.999999997427
 51
225.000000002572
  0
LINE
  8
3
  6
CONTINUOUS
 62
3
 10
3.48707730255934
 20
4.20002296058993
 30
0.0
 11
3.15720230255934
 21
4.80002296058993
 31
0.0
  0
LINE
  8
3
  6
CONTINUOUS
 62
3
 10
3.15720230255934
 20
4.80002296058993
 30
0.0
 11
3.15720230255934
 21
5.30002296058993
 31
0.0
  0
LINE
  8
3
  6
CONTINUOUS
 62
3
 10
3.15720230255934
 20
5.30002296058993
 30
0.0
 11
3.90720230255934
 21
6.05002296058993
 31
0.0
  0
LINE
  8
3
  6
CONTINUOUS
 62
3
 10
3.90720230255934
 20
6.05002296058993
 30
0.0
 11
4.40720230255934
 21
6.05002296058993
 31
0.0
  0
LINE
  8
3
  6
CONTINUOUS
 62
3
 10
4.40720230255934
 20
6.05002296058993
 30
0.0
 11
4.40720230255934
 21
4.80002296058993
 31
0.0
  0
LINE
  8
3
  6
CONTINUOUS
 62
3
 10
4.40720230255934
 20
4.80002296058993
 30
0.0
 11
3.98707730255934
 21
4.20002296058993
 31
0.0
  0
LINE
  8
3
  6
CONTINUOUS
 62
3
 10
3.98707730255934
 20
4.20002296058993
 30
0.0
 11
3.48707730255934
 21
4.20002296058993
 31
0.0
  0
ARC
  8
3
  6
CONTINUOUS
 62
3
 10
3.37963008039752
 20
7.12881601613753
 30
0.0
 40
0.0885833332729318
 50
344.999999994858
 51
5.14560473169882E-9
  0
ARC
  8
3
  6
CONTINUOUS
 62
3
 10
3.37963008033712
 20
7.12881601614548
 30
0.0
 40
0.088583333333335
 50
2.67166593242935E-12
 51
180.000000000003
  0
ARC
  8
3
  6
CONTINUOUS
 62
3
 10
3.37963008033659
 20
7.1288160161415
 30
0.0
 40
0.088583333332811
 50
179.999999997428
 51
345.000000002576
  0
ARC
  8
3
  6
CONTINUOUS
 62
3
 10
3.60822730255769
 20
7.12881601614947
 30
0.0
 40
0.0885833333316823
 50
44.9999999974274
 51
180.000000002572
  0
ARC
  8
3
  6
CONTINUOUS
 62
3
 10
3.60822730255934
 20
7.12881601614549
 30
0.0
 40
0.0885833333333297
 50
179.999999999999
 51
359.999999999999
  0
ARC
  8
3
  6
CONTINUOUS
 62
3
 10
3.60822730257855
 20
7.12881601615344
 30
0.0
 40
0.088583333314126
 50
359.999999994854
 51
45.0000000051447
  0
ARC
  8
3
  6
CONTINUOUS
 62
3
 10
4.23583008034308
 20
7.98713129391729
 30
0.0
 40
0.0885833333273692
 50
269.999999996141
 51
3.85850899514555E-9
  0
ARC
  8
3
  6
CONTINUOUS
 62
3
 10
4.23583008033712
 20
7.98713129392326
 30
0.0
 40
0.088583333333335
 50
359.999999999999
 51
180
  0
ARC
  8
3
  6
CONTINUOUS
 62
3
 10
4.23583008033115
 20
7.98713129391729
 30
0.0
 40
0.0885833333273692
 50
179.999999996141
 51
270.000000003858
  0
ARC
  8
3
  6
CONTINUOUS
 62
3
 10
4.23583008034308
 20
7.76483268280618
 30
0.0
 40
0.0885833333273692
 50
269.999999996141
 51
3.85850899514555E-9
  0
ARC
  8
3
  6
CONTINUOUS
 62
3
 10
4.23583008033712
 20
7.76483268281215
 30
0.0
 40
0.088583333333335
 50
359.999999999999
 51
180
  0
ARC
  8
3
  6
CONTINUOUS
 62
3
 10
4.23583008033115
 20
7.76483268280618
 30
0.0
 40
0.0885833333273692
 50
179.999999996141
 51
270.000000003858
  0
ARC
  8
3
  6
CONTINUOUS
 62
3
 10
4.16544119145282
 20
6.74675073835975
 30
0.0
 40
0.0885833333287425
 50
239.999999994854
 51
5.1447253083294E-9
  0
ARC
  8
3
  6
CONTINUOUS
 62
3
 10
4.16544119144823
 20
6.74675073836771
 30
0.0
 40
0.088583333333335
 50
359.999999999999
 51
180
  0
ARC
  8
3
  6
CONTINUOUS
 62
3
 10
4.16544119144134
 20
6.74675073836373
 30
0.0
 40
0.0885833333264462
 50
179.999999997427
 51
240.000000002572
  0
ARC
  8
3
  6
CONTINUOUS
 62
3
 10
3.98162591367375
 20
6.46248962724864
 30
0.0
 40
0.0885833333300349
 50
224.999999994855
 51
5.14475075276685E-9
  0
ARC
  8
3
  6
CONTINUOUS
 62
3
 10
3.98162591367045
 20
6.4624896272566
 30
0.0
 40
0.0885833333333297
 50
359.999999999999
 51
180
  0
ARC
  8
3
  6
CONTINUOUS
 62
3
 10
3.98162591366085
 20
6.46248962725262
 30
0.0
 40
0.0885833333237279
 50
179.999999997427
 51
225.000000002572
  0
LINE
  8
3
  6
CONTINUOUS
 62
3
 10
3.56150230255934
 20
6.28389934947882
 30
0.0
 11
3.23162591367045
 21
6.88390187568824
 31
0.0
  0
LINE
  8
3
  6
CONTINUOUS
 62
3
 10
3.23162591367045
 20
6.88390187568824
 30
0.0
 11
3.23162591367045
 21
7.38389934947882
 31
0.0
  0
LINE
  8
3
  6
CONTINUOUS
 62
3
 10
3.23162591367045
 20
7.38389934947882
 30
0.0
 11
3.98162730255934
 21
8.13390073836771
 31
0.0
  0
LINE
  8
3
  6
CONTINUOUS
 62
3
 10
3.98162730255934
 20
8.13390073836771
 30
0.0
 11
4.48162591367045
 21
8.13390073836771
 31
0.0
  0
LINE
  8
3
  6
CONTINUOUS
 62
3
 10
4.48162591367045
 20
8.13390073836771
 30
0.0
 11
4.48162591367045
 21
6.88389934947882
 31
0.0
  0
LINE
  8
3
  6
CONTINUOUS
 62
3
 10
4.48162591367045
 20
6.88389934947882
 30
0.0
 11
4.0615016081149
 21
6.28389934947882
 31
0.0
  0
LINE
  8
3
  6
CONTINUOUS
 62
3
 10
4.0615016081149
 20
6.28389934947882
 30
0.0
 11
3.56150230255934
 21
6.28389934947882
 31
0.0
  0
ARC
  8
3
  6
CONTINUOUS
 62
3
 10
1.35258008033115
 20
7.10570768281812
 30
0.0
 40
0.0885833333273692
 50
89.9999999961377
 51
180.000000003855
  0
ARC
  8
3
  6
CONTINUOUS
 62
3
 10
1.35258008033712
 20
7.10570768281215
 30
0.0
 40
0.088583333333335
 50
179.999999999996
 51
359.999999999996
  0
ARC
  8
3
  6
CONTINUOUS
 62
3
 10
1.35258008034308
 20
7.10570768281812
 30
0.0
 40
0.0885833333273692
 50
359.999999996137
 51
90.0000000038551
  0
ARC
  8
3
  6
CONTINUOUS
 62
3
 10
1.35258008032751
 20
7.36304240503836
 30
0.0
 40
0.088583333323733
 50
134.999999997427
 51
180.000000002572
  0
ARC
  8
3
  6
CONTINUOUS
 62
3
 10
1.35258008033712
 20
7.36304240503438
 30
0.0
 40
0.088583333333335
 50
179.999999999999
 51
359.999999999999
  0
ARC
  8
3
  6
CONTINUOUS
 62
3
 10
1.35258008034041
 20
7.36304240504233
 30
0.0
 40
0.0885833333300402
 50
359.999999994855
 51
135.000000005145
  0
ARC
  8
3
  6
CONTINUOUS
 62
3
 10
0.724977302529112
 20
7.97508268281613
 30
0.0
 40
0.0885833333031065
 50
164.999999997423
 51
180.000000002571
  0
ARC
  8
3
  6
CONTINUOUS
 62
3
 10
0.724977302559339
 20
7.97508268281215
 30
0.0
 40
0.0885833333333335
 50
179.999999999997
 51
359.999999999997
  0
ARC
  8
3
  6
CONTINUOUS
 62
3
 10
0.724977302560386
 20
7.97508268282011
 30
0.0
 40
0.0885833333322866
 50
359.999999994853
 51
165.00000000514
  0
ARC
  8
3
  6
CONTINUOUS
 62
3
 10
0.496380080341711
 20
7.97508268280419
 30
0.0
 40
0.0885833333287411
 50
239.999999994855
 51
5.14475075276685E-9
  0
ARC
  8
3
  6
CONTINUOUS
 62
3
 10
0.496380080337117
 20
7.97508268281215
 30
0.0
 40
0.0885833333333336
 50
359.999999999999
 51
180
  0
ARC
  8
3
  6
CONTINUOUS
 62
3
 10
0.496380080330229
 20
7.97508268280817
 30
0.0
 40
0.0885833333264448
 50
179.999999997427
 51
240.000000002572
  0
LINE
  8
3
  6
CONTINUOUS
 62
3
 10
0.348375913670451
 20
7.72463684947882
 30
0.0
 11
0.348375913670451
 21
8.22463684947882
 31
0.0
  0
LINE
  8
3
  6
CONTINUOUS
 62
3
 10
0.348375913670451
 20
8.22463684947882
 30
0.0
 11
1.59837730255934
 21
8.22463684947882
 31
0.0
  0
LINE
  8
3
  6
CONTINUOUS
 62
3
 10
1.59837730255934
 20
8.22463684947882
 30
0.0
 11
1.59837730255934
 21
6.97463546058993
 31
0.0
  0
LINE
  8
3
  6
CONTINUOUS
 62
3
 10
1.59837730255934
 20
6.97463546058993
 30
0.0
 11
1.09837730255934
 21
6.97463546058993
 31
0.0
  0
LINE
  8
3
  6
CONTINUOUS
 62
3
 10
1.09837730255934
 20
6.97463546058993
 30
0.0
 11
0.348375913670451
 21
7.72463684947882
 31
0.0
  0
ARC
  8
3
  6
CONTINUOUS
 62
3
 10
1.32758424699782
 20
8.42316740504035
 30
0.0
 40
0.0885833333273696
 50
89.9999999961414
 51
180.000000003859
  0
ARC
  8
3
  6
CONTINUOUS
 62
3
 10
1.32758424700379
 20
8.42316740503438
 30
0.0
 40
0.088583333333335
 50
179.999999999999
 51
359.999999999999
  0
ARC
  8
3
  6
CONTINUOUS
 62
3
 10
1.32758424700975
 20
8.42316740504035
 30
0.0
 40
0.0885833333273696
 50
359.99999999614
 51
90.0000000038582
  0
ARC
  8
3
  6
CONTINUOUS
 62
3
 10
1.32758424699418
 20
8.68050212726058
 30
0.0
 40
0.0885833333237335
 50
134.999999997427
 51
180.000000002573
  0
ARC
  8
3
  6
CONTINUOUS
 62
3
 10
1.32758424700379
 20
8.6805021272566
 30
0.0
 40
0.088583333333335
 50
179.999999999999
 51
359.999999999999
  0
ARC
  8
3
  6
CONTINUOUS
 62
3
 10
1.32758424700708
 20
8.68050212726456
 30
0.0
 40
0.0885833333300405
 50
359.999999994854
 51
135.000000005144
  0
ARC
  8
3
  6
CONTINUOUS
 62
3
 10
0.699981469195796
 20
9.29254379392725
 30
0.0
 40
0.0885833333031238
 50
164.999999997427
 51
180.000000002572
  0
ARC
  8
3
  6
CONTINUOUS
 62
3
 10
0.699981469226006
 20
9.29254379392327
 30
0.0
 40
0.0885833333333335
 50
179.999999999999
 51
359.999999999999
  0
ARC
  8
3
  6
CONTINUOUS
 62
3
 10
0.699981469227054
 20
9.29254379393122
 30
0.0
 40
0.0885833333322862
 50
359.999999994855
 51
165.000000005145
  0
ARC
  8
3
  6
CONTINUOUS
 62
3
 10
0.471382858119487
 20
9.29254379391531
 30
0.0
 40
0.0885833333287426
 50
239.99999999486
 51
5.14646825229484E-9
  0
ARC
  8
3
  6
CONTINUOUS
 62
3
 10
0.471382858114895
 20
9.29254379392326
 30
0.0
 40
0.0885833333333335
 50
3.25688799381864E-12
 51
180.000000000003
  0
ARC
  8
3
  6
CONTINUOUS
 62
3
 10
0.471382858108002
 20
9.29254379391928
 30
0.0
 40
0.0885833333264402
 50
179.999999997429
 51
240.000000002577
  0
LINE
  8
3
  6
CONTINUOUS
 62
3
 10
0.323380080337118
 20
9.04209657170104
 30
0.0
 11
0.323380080337118
 21
9.54209657170104
 31
0.0
  0
LINE
  8
3
  6
CONTINUOUS
 62
3
 10
0.323380080337118
 20
9.54209657170104
 30
0.0
 11
1.57338008033712
 21
9.54209657170104
 31
0.0
  0
LINE
  8
3
  6
CONTINUOUS
 62
3
 10
1.57338008033712
 20
9.54209657170104
 30
0.0
 11
1.57338008033712
 21
8.29209657170104
 31
0.0
  0
LINE
  8
3
  6
CONTINUOUS
 62
3
 10
1.57338008033712
 20
8.29209657170104
 30
0.0
 11
1.07338008033712
 21
8.29209657170104
 31
0.0
  0
LINE
  8
3
  6
CONTINUOUS
 62
3
 10
1.07338008033712
 20
8.29209657170104
 30
0.0
 11
0.323380080337118
 21
9.04209657170104
 31
0.0
  0
ARC
  8
3
  6
CONTINUOUS
 62
3
 10
2.72847869144226
 20
9.81599379392923
 30
0.0
 40
0.0885833333273687
 50
89.9999999961443
 51
180.000000003862
  0
ARC
  8
3
  6
CONTINUOUS
 62
3
 10
2.72847869144823
 20
9.81599379392326
 30
0.0
 40
0.088583333333335
 50
180.000000000003
 51
3.24416577509279E-12
  0
ARC
  8
3
  6
CONTINUOUS
 62
3
 10
2.72847869145419
 20
9.81599379392923
 30
0.0
 40
0.0885833333273687
 50
359.999999996144
 51
90.0000000038622
  0
ARC
  8
3
  6
CONTINUOUS
 62
3
 10
2.72847869143862
 20
10.0733299050384
 30
0.0
 40
0.0885833333237334
 50
134.999999997427
 51
180.000000002573
  0
ARC
  8
3
  6
CONTINUOUS
 62
3
 10
2.72847869144823
 20
10.0733299050344
 30
0.0
 40
0.088583333333335
 50
179.999999999999
 51
359.999999999999
  0
ARC
  8
3
  6
CONTINUOUS
 62
3
 10
2.72847869145152
 20
10.0733299050424
 30
0.0
 40
0.0885833333300404
 50
359.999999994854
 51
135.000000005144
  0
ARC
  8
3
  6
CONTINUOUS
 62
3
 10
2.10087452475135
 20
10.6853701828161
 30
0.0
 40
0.0885833333031201
 50
164.999999997427
 51
180.000000002572
  0
ARC
  8
3
  6
CONTINUOUS
 62
3
 10
2.10087452478156
 20
10.6853701828121
 30
0.0
 40
0.0885833333333301
 50
179.999999999999
 51
359.999999999999
  0
ARC
  8
3
  6
CONTINUOUS
 62
3
 10
2.10087452478261
 20
10.6853701828201
 30
0.0
 40
0.0885833333322829
 50
359.999999994855
 51
165.000000005145
  0
ARC
  8
3
  6
CONTINUOUS
 62
3
 10
1.87227730256393
 20
10.6853701828042
 30
0.0
 40
0.0885833333287424
 50
239.999999994854
 51
5.14468714167322E-9
  0
ARC
  8
3
  6
CONTINUOUS
 62
3
 10
1.87227730255934
 20
10.6853701828121
 30
0.0
 40
0.088583333333335
 50
359.999999999999
 51
180
  0
ARC
  8
3
  6
CONTINUOUS
 62
3
 10
1.87227730255245
 20
10.6853701828081
 30
0.0
 40
0.0885833333264461
 50
179.999999997427
 51
240.000000002572
  0
LINE
  8
3
  6
CONTINUOUS
 62
3
 10
1.72427452478156
 20
10.4349229605899
 30
0.0
 11
1.72427452478156
 21
10.9349229605899
 31
0.0
  0
LINE
  8
3
  6
CONTINUOUS
 62
3
 10
1.72427452478156
 20
10.9349229605899
 30
0.0
 11
2.97427452478156
 21
10.9349229605899
 31
0.0
  0
LINE
  8
3
  6
CONTINUOUS
 62
3
 10
2.97427452478156
 20
10.9349229605899
 30
0.0
 11
2.97427452478156
 21
9.68492296058993
 31
0.0
  0
LINE
  8
3
  6
CONTINUOUS
 62
3
 10
2.97427452478156
 20
9.68492296058993
 30
0.0
 11
2.47427452478156
 21
9.68492296058993
 31
0.0
  0
LINE
  8
3
  6
CONTINUOUS
 62
3
 10
2.47427452478156
 20
9.68492296058993
 30
0.0
 11
1.72427452478156
 21
10.4349229605899
 31
0.0
  0
ARC
  8
3
  6
CONTINUOUS
 62
3
 10
0.458346747064204
 20
10.6599507383598
 30
0.0
 40
0.0885833332729136
 50
344.999999994855
 51
5.14443269729871E-9
  0
ARC
  8
3
  6
CONTINUOUS
 62
3
 10
0.458346747003784
 20
10.6599507383677
 30
0.0
 40
0.0885833333333335
 50
359.999999999999
 51
180
  0
ARC
  8
3
  6
CONTINUOUS
 62
3
 10
0.458346747003261
 20
10.6599507383637
 30
0.0
 40
0.0885833333328098
 50
179.999999997427
 51
345.000000002572
  0
ARC
  8
3
  6
CONTINUOUS
 62
3
 10
0.686943969245211
 20
10.6599507383598
 30
0.0
 40
0.0885833333141298
 50
314.999999994855
 51
5.14481436386048E-9
  0
ARC
  8
3
  6
CONTINUOUS
 62
3
 10
0.686943969226006
 20
10.6599507383677
 30
0.0
 40
0.0885833333333335
 50
359.999999999999
 51
180
  0
ARC
  8
3
  6
CONTINUOUS
 62
3
 10
0.686943969224359
 20
10.6599507383637
 30
0.0
 40
0.0885833333316861
 50
179.999999997427
 51
315.000000002572
  0
ARC
  8
3
  6
CONTINUOUS
 62
3
 10
1.31454674700975
 20
10.047909071695
 30
0.0
 40
0.0885833333273696
 50
269.999999996141
 51
3.85879524506689E-9
  0
ARC
  8
3
  6
CONTINUOUS
 62
3
 10
1.31454674700379
 20
10.047909071701
 30
0.0
 40
0.088583333333335
 50
359.999999999999
 51
180
  0
ARC
  8
3
  6
CONTINUOUS
 62
3
 10
1.31454674699782
 20
10.047909071695
 30
0.0
 40
0.0885833333273696
 50
179.99999999614
 51
270.000000003858
  0
ARC
  8
3
  6
CONTINUOUS
 62
3
 10
1.31454674706421
 20
9.79057434947087
 30
0.0
 40
0.0885833332729151
 50
344.999999994854
 51
5.14491614161029E-9
  0
ARC
  8
3
  6
CONTINUOUS
 62
3
 10
1.31454674700379
 20
9.79057434947882
 30
0.0
 40
0.088583333333335
 50
359.999999999999
 51
180
  0
ARC
  8
3
  6
CONTINUOUS
 62
3
 10
1.31454674700326
 20
9.79057434947484
 30
0.0
 40
0.0885833333328114
 50
179.999999997427
 51
345.000000002571
  0
LINE
  8
3
  6
CONTINUOUS
 62
3
 10
1.560343969226
 20
9.65950351614549
 30
0.0
 11
1.06034258033712
 21
9.65950351614549
 31
0.0
  0
LINE
  8
3
  6
CONTINUOUS
 62
3
 10
1.06034258033712
 20
9.65950351614549
 30
0.0
 11
0.310342580337118
 21
10.4095035161455
 31
0.0
  0
LINE
  8
3
  6
CONTINUOUS
 62
3
 10
0.310342580337118
 20
10.4095035161455
 30
0.0
 11
0.310342580337118
 21
10.9095035161455
 31
0.0
  0
LINE
  8
3
  6
CONTINUOUS
 62
3
 10
0.310342580337118
 20
10.9095035161455
 30
0.0
 11
1.560343969226
 21
10.9095035161455
 31
0.0
  0
LINE
  8
3
  6
CONTINUOUS
 62
3
 10
1.560343969226
 20
10.9095035161455
 30
0.0
 11
1.560343969226
 21
9.65950351614549
 31
0.0
  0
ARC
  8
3
  6
CONTINUOUS
 62
3
 10
2.74151619144226
 20
8.44858684948479
 30
0.0
 40
0.0885833333273696
 50
89.9999999961414
 51
180.000000003859
  0
ARC
  8
3
  6
CONTINUOUS
 62
3
 10
2.74151619144823
 20
8.44858684947882
 30
0.0
 40
0.088583333333335
 50
179.999999999999
 51
359.999999999999
  0
ARC
  8
3
  6
CONTINUOUS
 62
3
 10
2.74151619145419
 20
8.44858684948479
 30
0.0
 40
0.0885833333273696
 50
359.99999999614
 51
90.0000000038582
  0
ARC
  8
3
  6
CONTINUOUS
 62
3
 10
2.74151619143863
 20
8.70592296059391
 30
0.0
 40
0.0885833333237334
 50
134.999999997427
 51
180.000000002573
  0
ARC
  8
3
  6
CONTINUOUS
 62
3
 10
2.74151619144823
 20
8.70592296058993
 30
0.0
 40
0.088583333333335
 50
179.999999999999
 51
359.999999999999
  0
ARC
  8
3
  6
CONTINUOUS
 62
3
 10
2.74151619145152
 20
8.70592296059788
 30
0.0
 40
0.0885833333300404
 50
359.999999994854
 51
135.000000005144
  0
ARC
  8
3
  6
CONTINUOUS
 62
3
 10
2.11391202475135
 20
9.31796323837169
 30
0.0
 40
0.0885833333031201
 50
164.999999997427
 51
180.000000002572
  0
ARC
  8
3
  6
CONTINUOUS
 62
3
 10
2.11391202478156
 20
9.31796323836771
 30
0.0
 40
0.0885833333333301
 50
179.999999999999
 51
359.999999999999
  0
ARC
  8
3
  6
CONTINUOUS
 62
3
 10
2.11391202478261
 20
9.31796323837566
 30
0.0
 40
0.0885833333322829
 50
359.999999994855
 51
165.000000005145
  0
ARC
  8
3
  6
CONTINUOUS
 62
3
 10
1.88531480256393
 20
9.31796323835976
 30
0.0
 40
0.0885833333287424
 50
239.999999994854
 51
5.14468714167322E-9
  0
ARC
  8
3
  6
CONTINUOUS
 62
3
 10
1.88531480255934
 20
9.31796323836771
 30
0.0
 40
0.088583333333335
 50
359.999999999999
 51
180
  0
ARC
  8
3
  6
CONTINUOUS
 62
3
 10
1.88531480255245
 20
9.31796323836373
 30
0.0
 40
0.0885833333264461
 50
179.999999997427
 51
240.000000002572
  0
LINE
  8
3
  6
CONTINUOUS
 62
3
 10
1.73731202478156
 20
9.06751601614549
 30
0.0
 11
1.73731202478156
 21
9.56751601614549
 31
0.0
  0
LINE
  8
3
  6
CONTINUOUS
 62
3
 10
1.73731202478156
 20
9.56751601614549
 30
0.0
 11
2.98731202478156
 21
9.56751601614549
 31
0.0
  0
LINE
  8
3
  6
CONTINUOUS
 62
3
 10
2.98731202478156
 20
9.56751601614549
 30
0.0
 11
2.98731202478156
 21
8.31751601614549
 31
0.0
  0
LINE
  8
3
  6
CONTINUOUS
 62
3
 10
2.98731202478156
 20
8.31751601614549
 30
0.0
 11
2.48731202478156
 21
8.31751601614549
 31
0.0
  0
LINE
  8
3
  6
CONTINUOUS
 62
3
 10
2.48731202478156
 20
8.31751601614549
 30
0.0
 11
1.73731202478156
 21
9.06751601614549
 31
0.0
  0
ARC
  8
3
  6
CONTINUOUS
 62
3
 10
2.7665120247756
 20
7.13112712726256
 30
0.0
 40
0.0885833333273641
 50
89.9999999961444
 51
180.000000003862
  0
ARC
  8
3
  6
CONTINUOUS
 62
3
 10
2.76651202478156
 20
7.13112712725659
 30
0.0
 40
0.0885833333333301
 50
180.000000000003
 51
3.24416577509279E-12
  0
ARC
  8
3
  6
CONTINUOUS
 62
3
 10
2.76651202478753
 20
7.13112712726256
 30
0.0
 40
0.0885833333273641
 50
359.999999996144
 51
90.0000000038621
  0
ARC
  8
3
  6
CONTINUOUS
 62
3
 10
2.76651202477197
 20
7.38846184948279
 30
0.0
 40
0.0885833333237347
 50
134.999999997432
 51
180.000000002574
  0
ARC
  8
3
  6
CONTINUOUS
 62
3
 10
2.76651202478156
 20
7.38846184947881
 30
0.0
 40
0.0885833333333301
 50
180.000000000003
 51
3.24416577509279E-12
  0
ARC
  8
3
  6
CONTINUOUS
 62
3
 10
2.76651202478486
 20
7.38846184948677
 30
0.0
 40
0.0885833333300342
 50
359.999999994856
 51
135.00000000515
  0
ARC
  8
3
  6
CONTINUOUS
 62
3
 10
2.13890785808471
 20
8.00050351614946
 30
0.0
 40
0.0885833333031457
 50
164.999999997433
 51
180.000000002574
  0
ARC
  8
3
  6
CONTINUOUS
 62
3
 10
2.1389078581149
 20
8.00050351614548
 30
0.0
 40
0.088583333333335
 50
180.000000000003
 51
3.24416577509279E-12
  0
ARC
  8
3
  6
CONTINUOUS
 62
3
 10
2.13890785811594
 20
8.00050351615344
 30
0.0
 40
0.0885833333322875
 50
359.999999994856
 51
165.00000000515
  0
ARC
  8
3
  6
CONTINUOUS
 62
3
 10
1.91031063589726
 20
8.00050351613753
 30
0.0
 40
0.0885833333287393
 50
239.99999999486
 51
5.14653186338847E-9
  0
ARC
  8
3
  6
CONTINUOUS
 62
3
 10
1.91031063589267
 20
8.00050351614548
 30
0.0
 40
0.0885833333333301
 50
3.25688799381864E-12
 51
180.000000000003
  0
ARC
  8
3
  6
CONTINUOUS
 62
3
 10
1.91031063588578
 20
8.0005035161415
 30
0.0
 40
0.088583333326437
 50
179.999999997429
 51
240.000000002577
  0
LINE
  8
3
  6
CONTINUOUS
 62
3
 10
1.76230785811489
 20
7.75005629392327
 30
0.0
 11
1.76230785811489
 21
8.25005629392327
 31
0.0
  0
LINE
  8
3
  6
CONTINUOUS
 62
3
 10
1.76230785811489
 20
8.25005629392327
 30
0.0
 11
3.01230785811489
 21
8.25005629392327
 31
0.0
  0
LINE
  8
3
  6
CONTINUOUS
 62
3
 10
3.01230785811489
 20
8.25005629392327
 30
0.0
 11
3.01230785811489
 21
7.00005629392327
 31
0.0
  0
LINE
  8
3
  6
CONTINUOUS
 62
3
 10
3.01230785811489
 20
7.00005629392327
 30
0.0
 11
2.51230785811489
 21
7.00005629392327
 31
0.0
  0
LINE
  8
3
  6
CONTINUOUS
 62
3
 10
2.51230785811489
 20
7.00005629392327
 30
0.0
 11
1.76230785811489
 21
7.75005629392327
 31
0.0
  0
ARC
  8
3
  6
CONTINUOUS
 62
3
 10
2.7702745247756
 20
5.80545629392923
 30
0.0
 40
0.0885833333273639
 50
89.9999999961446
 51
180.000000003862
  0
ARC
  8
3
  6
CONTINUOUS
 62
3
 10
2.77027452478156
 20
5.80545629392326
 30
0.0
 40
0.0885833333333297
 50
180.000000000003
 51
3.24416577509279E-12
  0
ARC
  8
3
  6
CONTINUOUS
 62
3
 10
2.77027452478753
 20
5.80545629392923
 30
0.0
 40
0.0885833333273639
 50
359.999999996144
 51
90.000000003862
  0
ARC
  8
3
  6
CONTINUOUS
 62
3
 10
2.77027452477196
 20
6.06279101614947
 30
0.0
 40
0.0885833333237279
 50
134.999999997427
 51
180.000000002572
  0
ARC
  8
3
  6
CONTINUOUS
 62
3
 10
2.77027452478156
 20
6.06279101614549
 30
0.0
 40
0.0885833333333297
 50
179.999999999999
 51
359.999999999999
  0
ARC
  8
3
  6
CONTINUOUS
 62
3
 10
2.77027452478486
 20
6.06279101615344
 30
0.0
 40
0.0885833333300349
 50
359.999999994854
 51
135.000000005145
  0
ARC
  8
3
  6
CONTINUOUS
 62
3
 10
2.14267174697356
 20
6.67483268281613
 30
0.0
 40
0.0885833333031051
 50
164.999999997423
 51
180.000000002571
  0
ARC
  8
3
  6
CONTINUOUS
 62
3
 10
2.14267174700379
 20
6.67483268281215
 30
0.0
 40
0.088583333333335
 50
179.999999999996
 51
359.999999999996
  0
ARC
  8
3
  6
CONTINUOUS
 62
3
 10
2.14267174700483
 20
6.67483268282011
 30
0.0
 40
0.0885833333322882
 50
359.999999994853
 51
165.00000000514
  0
ARC
  8
3
  6
CONTINUOUS
 62
3
 10
1.91407313589726
 20
6.67483268280419
 30
0.0
 40
0.0885833333287378
 50
239.999999994855
 51
5.14481436386048E-9
  0
ARC
  8
3
  6
CONTINUOUS
 62
3
 10
1.91407313589267
 20
6.67483268281215
 30
0.0
 40
0.0885833333333302
 50
359.999999999999
 51
180
  0
ARC
  8
3
  6
CONTINUOUS
 62
3
 10
1.91407313588578
 20
6.67483268280817
 30
0.0
 40
0.0885833333264417
 50
179.999999997427
 51
240.000000002572
  0
LINE
  8
3
  6
CONTINUOUS
 62
3
 10
1.76607035811489
 20
6.42438546058993
 30
0.0
 11
1.76607035811489
 21
6.92438546058993
 31
0.0
  0
LINE
  8
3
  6
CONTINUOUS
 62
3
 10
1.76607035811489
 20
6.92438546058993
 30
0.0
 11
3.01607035811489
 21
6.92438546058993
 31
0.0
  0
LINE
  8
3
  6
CONTINUOUS
 62
3
 10
3.01607035811489
 20
6.92438546058993
 30
0.0
 11
3.01607035811489
 21
5.67438546058993
 31
0.0
  0
LINE
  8
3
  6
CONTINUOUS
 62
3
 10
3.01607035811489
 20
5.67438546058993
 30
0.0
 11
2.51607035811489
 21
5.67438546058993
 31
0.0
  0
LINE
  8
3
  6
CONTINUOUS
 62
3
 10
2.51607035811489
 20
5.67438546058993
 30
0.0
 11
1.76607035811489
 21
6.42438546058993
 31
0.0
  0
ARC
  8
3
  6
CONTINUOUS
 62
3
 10
0.500142580397537
 20
6.64941184947086
 30
0.0
 40
0.0885833332729137
 50
344.999999994855
 51
5.14500519714137E-9
  0
ARC
  8
3
  6
CONTINUOUS
 62
3
 10
0.500142580337117
 20
6.64941184947882
 30
0.0
 40
0.0885833333333335
 50
359.999999999999
 51
180
  0
ARC
  8
3
  6
CONTINUOUS
 62
3
 10
0.500142580336594
 20
6.64941184947484
 30
0.0
 40
0.0885833333328099
 50
179.999999997427
 51
345.000000002572
  0
ARC
  8
3
  6
CONTINUOUS
 62
3
 10
0.728739802578544
 20
6.64941184947086
 30
0.0
 40
0.0885833333141298
 50
314.999999994855
 51
5.14481436386048E-9
  0
ARC
  8
3
  6
CONTINUOUS
 62
3
 10
0.728739802559339
 20
6.64941184947882
 30
0.0
 40
0.0885833333333335
 50
359.999999999999
 51
180
  0
ARC
  8
3
  6
CONTINUOUS
 62
3
 10
0.728739802557692
 20
6.64941184947484
 30
0.0
 40
0.0885833333316861
 50
179.999999997427
 51
315.000000002572
  0
ARC
  8
3
  6
CONTINUOUS
 62
3
 10
1.35634258034308
 20
6.03737157169507
 30
0.0
 40
0.0885833333273691
 50
269.999999996141
 51
3.85858532845791E-9
  0
ARC
  8
3
  6
CONTINUOUS
 62
3
 10
1.35634258033712
 20
6.03737157170104
 30
0.0
 40
0.0885833333333348
 50
359.999999999999
 51
180
  0
ARC
  8
3
  6
CONTINUOUS
 62
3
 10
1.35634258033115
 20
6.03737157169507
 30
0.0
 40
0.0885833333273691
 50
179.999999996141
 51
270.000000003858
  0
ARC
  8
3
  6
CONTINUOUS
 62
3
 10
1.35634258039754
 20
5.78003684947087
 30
0.0
 40
0.0885833332729147
 50
344.999999994854
 51
5.14438339870114E-9
  0
ARC
  8
3
  6
CONTINUOUS
 62
3
 10
1.35634258033712
 20
5.78003684947882
 30
0.0
 40
0.0885833333333348
 50
359.999999999999
 51
180
  0
ARC
  8
3
  6
CONTINUOUS
 62
3
 10
1.35634258033659
 20
5.78003684947484
 30
0.0
 40
0.0885833333328111
 50
179.999999997427
 51
345.000000002572
  0
LINE
  8
3
  6
CONTINUOUS
 62
3
 10
1.60213980255934
 20
5.64896601614549
 30
0.0
 11
1.10213980255934
 21
5.64896601614549
 31
0.0
  0
LINE
  8
3
  6
CONTINUOUS
 62
3
 10
1.10213980255934
 20
5.64896601614549
 30
0.0
 11
0.35213980255934
 21
6.39896601614549
 31
0.0
  0
LINE
  8
3
  6
CONTINUOUS
 62
3
 10
0.35213980255934
 20
6.39896601614549
 30
0.0
 11
0.35213980255934
 21
6.89896601614549
 31
0.0
  0
LINE
  8
3
  6
CONTINUOUS
 62
3
 10
0.35213980255934
 20
6.89896601614549
 30
0.0
 11
1.60213980255934
 21
6.89896601614549
 31
0.0
  0
LINE
  8
3
  6
CONTINUOUS
 62
3
 10
1.60213980255934
 20
6.89896601614549
 30
0.0
 11
1.60213980255934
 21
5.64896601614549
 31
0.0
  0
ARC
  8
3
  6
CONTINUOUS
 62
3
 10
2.78204258033115
 20
4.37787712726256
 30
0.0
 40
0.0885833333273692
 50
89.9999999961411
 51
180.000000003859
  0
ARC
  8
3
  6
CONTINUOUS
 62
3
 10
2.78204258033712
 20
4.3778771272566
 30
0.0
 40
0.088583333333335
 50
179.999999999999
 51
359.999999999999
  0
ARC
  8
3
  6
CONTINUOUS
 62
3
 10
2.78204258034308
 20
4.37787712726257
 30
0.0
 40
0.0885833333273692
 50
359.999999996141
 51
90.0000000038585
  0
ARC
  8
3
  6
CONTINUOUS
 62
3
 10
2.78204258032751
 20
4.6352118494828
 30
0.0
 40
0.0885833333237331
 50
134.999999997427
 51
180.000000002572
  0
ARC
  8
3
  6
CONTINUOUS
 62
3
 10
2.78204258033712
 20
4.63521184947882
 30
0.0
 40
0.088583333333335
 50
179.999999999999
 51
359.999999999999
  0
ARC
  8
3
  6
CONTINUOUS
 62
3
 10
2.78204258034041
 20
4.63521184948677
 30
0.0
 40
0.0885833333300401
 50
359.999999994855
 51
135.000000005145
  0
ARC
  8
3
  6
CONTINUOUS
 62
3
 10
2.15443841364024
 20
5.24725351614947
 30
0.0
 40
0.0885833333031201
 50
164.999999997427
 51
180.000000002572
  0
ARC
  8
3
  6
CONTINUOUS
 62
3
 10
2.15443841367045
 20
5.24725351614549
 30
0.0
 40
0.0885833333333301
 50
179.999999999999
 51
359.999999999999
  0
ARC
  8
3
  6
CONTINUOUS
 62
3
 10
2.1544384136715
 20
5.24725351615344
 30
0.0
 40
0.0885833333322829
 50
359.999999994855
 51
165.000000005145
  0
ARC
  8
3
  6
CONTINUOUS
 62
3
 10
1.92584119145282
 20
5.24725351613753
 30
0.0
 40
0.0885833333287428
 50
239.999999994855
 51
5.14482708607921E-9
  0
ARC
  8
3
  6
CONTINUOUS
 62
3
 10
1.92584119144823
 20
5.24725351614549
 30
0.0
 40
0.0885833333333351
 50
359.999999999999
 51
180
  0
ARC
  8
3
  6
CONTINUOUS
 62
3
 10
1.92584119144134
 20
5.24725351614151
 30
0.0
 40
0.0885833333264466
 50
179.999999997427
 51
240.000000002572
  0
LINE
  8
3
  6
CONTINUOUS
 62
3
 10
1.77783841367045
 20
4.99680629392326
 30
0.0
 11
1.77783841367045
 21
5.49680629392326
 31
0.0
  0
LINE
  8
3
  6
CONTINUOUS
 62
3
 10
1.77783841367045
 20
5.49680629392326
 30
0.0
 11
3.02783841367045
 21
5.49680629392326
 31
0.0
  0
LINE
  8
3
  6
CONTINUOUS
 62
3
 10
3.02783841367045
 20
5.49680629392326
 30
0.0
 11
3.02783841367045
 21
4.24680629392327
 31
0.0
  0
LINE
  8
3
  6
CONTINUOUS
 62
3
 10
3.02783841367045
 20
4.24680629392327
 30
0.0
 11
2.52783841367045
 21
4.24680629392327
 31
0.0
  0
LINE
  8
3
  6
CONTINUOUS
 62
3
 10
2.52783841367045
 20
4.24680629392327
 30
0.0
 11
1.77783841367045
 21
4.99680629392326
 31
0.0
  0
ARC
  8
3
  6
CONTINUOUS
 62
3
 10
0.511909247064204
 20
5.22183407169309
 30
0.0
 40
0.0885833332729134
 50
344.999999994855
 51
5.14503064157882E-9
  0
ARC
  8
3
  6
CONTINUOUS
 62
3
 10
0.511909247003784
 20
5.22183407170104
 30
0.0
 40
0.088583333333333
 50
359.999999999999
 51
180
  0
ARC
  8
3
  6
CONTINUOUS
 62
3
 10
0.51190924700326
 20
5.22183407169706
 30
0.0
 40
0.0885833333328095
 50
179.999999997427
 51
345.000000002572
  0
ARC
  8
3
  6
CONTINUOUS
 62
3
 10
0.740506469245211
 20
5.22183407169309
 30
0.0
 40
0.0885833333141298
 50
314.999999994855
 51
5.14481436386048E-9
  0
ARC
  8
3
  6
CONTINUOUS
 62
3
 10
0.740506469226006
 20
5.22183407170104
 30
0.0
 40
0.0885833333333335
 50
359.999999999999
 51
180
  0
ARC
  8
3
  6
CONTINUOUS
 62
3
 10
0.740506469224359
 20
5.22183407169706
 30
0.0
 40
0.0885833333316861
 50
179.999999997427
 51
315.000000002572
  0
ARC
  8
3
  6
CONTINUOUS
 62
3
 10
1.36811063589864
 20
4.60979240502841
 30
0.0
 40
0.0885833333273641
 50
269.999999996141
 51
3.85836905073957E-9
  0
ARC
  8
3
  6
CONTINUOUS
 62
3
 10
1.36811063589267
 20
4.60979240503438
 30
0.0
 40
0.0885833333333301
 50
359.999999999999
 51
180
  0
ARC
  8
3
  6
CONTINUOUS
 62
3
 10
1.36811063588671
 20
4.60979240502841
 30
0.0
 40
0.0885833333273641
 50
179.999999996141
 51
270.000000003858
  0
ARC
  8
3
  6
CONTINUOUS
 62
3
 10
1.36811063595309
 20
4.35245768280419
 30
0.0
 40
0.0885833332729103
 50
344.999999994854
 51
5.14471258611067E-9
  0
ARC
  8
3
  6
CONTINUOUS
 62
3
 10
1.36811063589267
 20
4.35245768281215
 30
0.0
 40
0.0885833333333301
 50
359.999999999999
 51
180
  0
ARC
  8
3
  6
CONTINUOUS
 62
3
 10
1.36811063589215
 20
4.35245768280817
 30
0.0
 40
0.0885833333328065
 50
179.999999997427
 51
345.000000002572
  0
LINE
  8
3
  6
CONTINUOUS
 62
3
 10
1.613906469226
 20
4.22138684947882
 30
0.0
 11
1.11390646922601
 21
4.22138684947882
 31
0.0
  0
LINE
  8
3
  6
CONTINUOUS
 62
3
 10
1.11390646922601
 20
4.22138684947882
 30
0.0
 11
0.363906469226007
 21
4.97138684947882
 31
0.0
  0
LINE
  8
3
  6
CONTINUOUS
 62
3
 10
0.363906469226006
 20
4.97138684947882
 30
0.0
 11
0.363906469226006
 21
5.47138684947882
 31
0.0
  0
LINE
  8
3
  6
CONTINUOUS
 62
3
 10
0.363906469226006
 20
5.47138684947882
 30
0.0
 11
1.613906469226
 21
5.47138684947882
 31
0.0
  0
LINE
  8
3
  6
CONTINUOUS
 62
3
 10
1.613906469226
 20
5.47138684947882
 30
0.0
 11
1.613906469226
 21
4.22138684947882
 31
0.0
  0
ARC
  8
3
  6
CONTINUOUS
 62
3
 10
2.79508008033115
 20
3.01047018281811
 30
0.0
 40
0.0885833333273692
 50
89.9999999961411
 51
180.000000003859
  0
ARC
  8
3
  6
CONTINUOUS
 62
3
 10
2.79508008033712
 20
3.01047018281215
 30
0.0
 40
0.088583333333335
 50
179.999999999999
 51
359.999999999999
  0
ARC
  8
3
  6
CONTINUOUS
 62
3
 10
2.79508008034308
 20
3.01047018281812
 30
0.0
 40
0.0885833333273692
 50
359.999999996141
 51
90.0000000038585
  0
ARC
  8
3
  6
CONTINUOUS
 62
3
 10
2.79508008032751
 20
3.26780490503836
 30
0.0
 40
0.0885833333237331
 50
134.999999997427
 51
180.000000002572
  0
ARC
  8
3
  6
CONTINUOUS
 62
3
 10
2.79508008033712
 20
3.26780490503438
 30
0.0
 40
0.088583333333335
 50
179.999999999999
 51
359.999999999999
  0
ARC
  8
3
  6
CONTINUOUS
 62
3
 10
2.79508008034041
 20
3.26780490504233
 30
0.0
 40
0.0885833333300401
 50
359.999999994855
 51
135.000000005145
  0
ARC
  8
3
  6
CONTINUOUS
 62
3
 10
2.16747591364024
 20
3.87984657170502
 30
0.0
 40
0.0885833333031247
 50
164.999999997428
 51
180.000000002572
  0
ARC
  8
3
  6
CONTINUOUS
 62
3
 10
2.16747591367045
 20
3.87984657170104
 30
0.0
 40
0.0885833333333346
 50
179.999999999999
 51
359.999999999999
  0
ARC
  8
3
  6
CONTINUOUS
 62
3
 10
2.16747591367149
 20
3.87984657170899
 30
0.0
 40
0.0885833333322874
 50
359.999999994855
 51
165.000000005145
  0
ARC
  8
3
  6
CONTINUOUS
 62
3
 10
1.93887869145282
 20
3.87984657169308
 30
0.0
 40
0.0885833333287424
 50
239.999999994854
 51
5.14468714167322E-9
  0
ARC
  8
3
  6
CONTINUOUS
 62
3
 10
1.93887869144823
 20
3.87984657170104
 30
0.0
 40
0.0885833333333349
 50
359.999999999999
 51
180
  0
ARC
  8
3
  6
CONTINUOUS
 62
3
 10
1.93887869144134
 20
3.87984657169706
 30
0.0
 40
0.088583333326446
 50
179.999999997427
 51
240.000000002572
  0
LINE
  8
3
  6
CONTINUOUS
 62
3
 10
1.79087591367045
 20
3.62939934947882
 30
0.0
 11
1.79087591367045
 21
4.12939934947882
 31
0.0
  0
LINE
  8
3
  6
CONTINUOUS
 62
3
 10
1.79087591367045
 20
4.12939934947882
 30
0.0
 11
3.04087591367045
 21
4.12939934947882
 31
0.0
  0
LINE
  8
3
  6
CONTINUOUS
 62
3
 10
3.04087591367045
 20
4.12939934947882
 30
0.0
 11
3.04087591367045
 21
2.87939934947882
 31
0.0
  0
LINE
  8
3
  6
CONTINUOUS
 62
3
 10
3.04087591367045
 20
2.87939934947882
 30
0.0
 11
2.54087591367045
 21
2.87939934947882
 31
0.0
  0
LINE
  8
3
  6
CONTINUOUS
 62
3
 10
2.54087591367045
 20
2.87939934947882
 30
0.0
 11
1.79087591367045
 21
3.62939934947882
 31
0.0
  0
ARC
  8
3
  6
CONTINUOUS
 62
3
 10
2.82007591366449
 20
1.69301046059589
 30
0.0
 40
0.0885833333273643
 50
89.9999999961411
 51
180.000000003859
  0
ARC
  8
3
  6
CONTINUOUS
 62
3
 10
2.82007591367045
 20
1.69301046058993
 30
0.0
 40
0.0885833333333301
 50
179.999999999999
 51
359.999999999999
  0
ARC
  8
3
  6
CONTINUOUS
 62
3
 10
2.82007591367642
 20
1.6930104605959
 30
0.0
 40
0.0885833333273643
 50
359.999999996141
 51
90.0000000038585
  0
ARC
  8
3
  6
CONTINUOUS
 62
3
 10
2.82007591366084
 20
1.95034518281613
 30
0.0
 40
0.0885833333237224
 50
134.999999997423
 51
180.000000002571
  0
ARC
  8
3
  6
CONTINUOUS
 62
3
 10
2.82007591367045
 20
1.95034518281215
 30
0.0
 40
0.0885833333333301
 50
179.999999999996
 51
359.999999999996
  0
ARC
  8
3
  6
CONTINUOUS
 62
3
 10
2.82007591367375
 20
1.95034518282011
 30
0.0
 40
0.0885833333300363
 50
359.999999994853
 51
135.00000000514
  0
ARC
  8
3
  6
CONTINUOUS
 62
3
 10
2.19247174697358
 20
2.56238546059391
 30
0.0
 40
0.088583333303125
 50
164.999999997428
 51
180.000000002572
  0
ARC
  8
3
  6
CONTINUOUS
 62
3
 10
2.19247174700379
 20
2.56238546058993
 30
0.0
 40
0.088583333333335
 50
179.999999999999
 51
359.999999999999
  0
ARC
  8
3
  6
CONTINUOUS
 62
3
 10
2.19247174700483
 20
2.56238546059788
 30
0.0
 40
0.0885833333322878
 50
359.999999994854
 51
165.000000005145
  0
ARC
  8
3
  6
CONTINUOUS
 62
3
 10
1.96387452478616
 20
2.56238546058197
 30
0.0
 40
0.0885833333287374
 50
239.999999994855
 51
5.14481436386048E-9
  0
ARC
  8
3
  6
CONTINUOUS
 62
3
 10
1.96387452478156
 20
2.56238546058993
 30
0.0
 40
0.0885833333333298
 50
359.999999999999
 51
180
  0
ARC
  8
3
  6
CONTINUOUS
 62
3
 10
1.96387452477467
 20
2.56238546058595
 30
0.0
 40
0.0885833333264412
 50
179.999999997427
 51
240.000000002572
  0
LINE
  8
3
  6
CONTINUOUS
 62
3
 10
1.81587174700378
 20
2.3119396272566
 30
0.0
 11
1.81587174700378
 21
2.8119396272566
 31
0.0
  0
LINE
  8
3
  6
CONTINUOUS
 62
3
 10
1.81587174700378
 20
2.8119396272566
 30
0.0
 11
3.06587174700378
 21
2.8119396272566
 31
0.0
  0
LINE
  8
3
  6
CONTINUOUS
 62
3
 10
3.06587174700378
 20
2.8119396272566
 30
0.0
 11
3.06587174700378
 21
1.5619396272566
 31
0.0
  0
LINE
  8
3
  6
CONTINUOUS
 62
3
 10
3.06587174700378
 20
1.5619396272566
 30
0.0
 11
2.56587174700378
 21
1.5619396272566
 31
0.0
  0
LINE
  8
3
  6
CONTINUOUS
 62
3
 10
2.56587174700378
 20
1.5619396272566
 30
0.0
 11
1.81587174700378
 21
2.3119396272566
 31
0.0
  0
ARC
  8
3
  6
CONTINUOUS
 62
3
 10
3.32753285817532
 20
3.09502573835976
 30
0.0
 40
0.0885833332729152
 50
344.999999994855
 51
5.14487956523145E-9
  0
ARC
  8
3
  6
CONTINUOUS
 62
3
 10
3.3275328581149
 20
3.09502573836771
 30
0.0
 40
0.088583333333335
 50
359.999999999999
 51
180
  0
ARC
  8
3
  6
CONTINUOUS
 62
3
 10
3.32753285811437
 20
3.09502573836373
 30
0.0
 40
0.0885833333328114
 50
179.999999997427
 51
345.000000002572
  0
ARC
  8
3
  6
CONTINUOUS
 62
3
 10
3.55613008035632
 20
3.09502573835976
 30
0.0
 40
0.0885833333141312
 50
314.999999994854
 51
5.14458536392342E-9
  0
ARC
  8
3
  6
CONTINUOUS
 62
3
 10
3.55613008033712
 20
3.09502573836771
 30
0.0
 40
0.088583333333335
 50
359.999999999999
 51
180
  0
ARC
  8
3
  6
CONTINUOUS
 62
3
 10
3.55613008033547
 20
3.09502573836373
 30
0.0
 40
0.0885833333316875
 50
179.999999997427
 51
315.000000002572
  0
ARC
  8
3
  6
CONTINUOUS
 62
3
 10
4.18373285812086
 20
3.95334240502841
 30
0.0
 40
0.0885833333273692
 50
269.999999996141
 51
3.85850899514555E-9
  0
ARC
  8
3
  6
CONTINUOUS
 62
3
 10
4.1837328581149
 20
3.95334240503438
 30
0.0
 40
0.088583333333335
 50
359.999999999999
 51
180
  0
ARC
  8
3
  6
CONTINUOUS
 62
3
 10
4.18373285810893
 20
3.95334240502841
 30
0.0
 40
0.0885833333273692
 50
179.999999996141
 51
270.000000003858
  0
ARC
  8
3
  6
CONTINUOUS
 62
3
 10
4.18373285811703
 20
3.73104379391531
 30
0.0
 40
0.0885833333312035
 50
209.999999994855
 51
5.14471258611067E-9
  0
ARC
  8
3
  6
CONTINUOUS
 62
3
 10
4.1837328581149
 20
3.73104379392327
 30
0.0
 40
0.088583333333335
 50
359.999999999999
 51
180
  0
ARC
  8
3
  6
CONTINUOUS
 62
3
 10
4.18373285810005
 20
3.73104379391929
 30
0.0
 40
0.0885833333184918
 50
179.999999997427
 51
210.000000002572
  0
ARC
  8
3
  6
CONTINUOUS
 62
3
 10
4.1133439692306
 20
2.71296046058197
 30
0.0
 40
0.0885833333287431
 50
239.999999994854
 51
5.14462353057959E-9
  0
ARC
  8
3
  6
CONTINUOUS
 62
3
 10
4.11334396922601
 20
2.71296046058993
 30
0.0
 40
0.0885833333333355
 50
359.999999999999
 51
180
  0
ARC
  8
3
  6
CONTINUOUS
 62
3
 10
4.11334396921912
 20
2.71296046058595
 30
0.0
 40
0.0885833333264465
 50
179.999999997427
 51
240.000000002571
  0
ARC
  8
3
  6
CONTINUOUS
 62
3
 10
3.92952869145152
 20
2.42870073835975
 30
0.0
 40
0.0885833333300401
 50
224.999999994854
 51
5.14471258611067E-9
  0
ARC
  8
3
  6
CONTINUOUS
 62
3
 10
3.92952869144823
 20
2.42870073836771
 30
0.0
 40
0.088583333333335
 50
359.999999999999
 51
180
  0
ARC
  8
3
  6
CONTINUOUS
 62
3
 10
3.92952869143862
 20
2.42870073836373
 30
0.0
 40
0.0885833333237331
 50
179.999999997427
 51
225.000000002572
  0
LINE
  8
3
  6
CONTINUOUS
 62
3
 10
3.50940508033712
 20
2.25010907170104
 30
0.0
 11
3.17952869144823
 21
2.85011159791046
 31
0.0
  0
LINE
  8
3
  6
CONTINUOUS
 62
3
 10
3.17952869144823
 20
2.85011159791046
 30
0.0
 11
3.17952869144823
 21
3.35010907170104
 31
0.0
  0
LINE
  8
3
  6
CONTINUOUS
 62
3
 10
3.17952869144823
 20
3.35010907170104
 30
0.0
 11
3.92952869144823
 21
4.10010907170104
 31
0.0
  0
LINE
  8
3
  6
CONTINUOUS
 62
3
 10
3.92952869144823
 20
4.10010907170104
 30
0.0
 11
4.42953008033712
 21
4.10010907170104
 31
0.0
  0
LINE
  8
3
  6
CONTINUOUS
 62
3
 10
4.42953008033712
 20
4.10010907170104
 30
0.0
 11
4.42953008033712
 21
2.85010907170104
 31
0.0
  0
LINE
  8
3
  6
CONTINUOUS
 62
3
 10
4.42953008033712
 20
2.85010907170104
 30
0.0
 11
4.00940508033711
 21
2.25010907170104
 31
0.0
  0
LINE
  8
3
  6
CONTINUOUS
 62
3
 10
4.00940508033712
 20
2.25010907170104
 30
0.0
 11
3.50940508033712
 21
2.25010907170104
 31
0.0
  0
ARC
  8
3
  6
CONTINUOUS
 62
3
 10
4.21057174700975
 20
1.9562562939173
 30
0.0
 40
0.0885833333273692
 50
269.999999996141
 51
3.85850899514555E-9
  0
ARC
  8
3
  6
CONTINUOUS
 62
3
 10
4.21057174700379
 20
1.95625629392327
 30
0.0
 40
0.088583333333335
 50
359.999999999999
 51
180
  0
ARC
  8
3
  6
CONTINUOUS
 62
3
 10
4.21057174699782
 20
1.9562562939173
 30
0.0
 40
0.0885833333273692
 50
179.999999996141
 51
270.000000003858
  0
ARC
  8
3
  6
CONTINUOUS
 62
3
 10
4.21057174700989
 20
1.7339576828042
 30
0.0
 40
0.0885833333272295
 50
254.999999994849
 51
5.14312230876994E-9
  0
ARC
  8
3
  6
CONTINUOUS
 62
3
 10
4.21057174700379
 20
1.73395768281215
 30
0.0
 40
0.088583333333335
 50
359.999999999996
 51
179.999999999996
  0
ARC
  8
3
  6
CONTINUOUS
 62
3
 10
4.21057174699861
 20
1.73395768280818
 30
0.0
 40
0.0885833333281552
 50
179.999999997425
 51
255.000000002567
  0
ARC
  8
3
  6
CONTINUOUS
 62
3
 10
3.95636758033482
 20
0.431614627260576
 30
0.0
 40
0.0885833333310386
 50
59.9999999974268
 51
180.000000002572
  0
ARC
  8
3
  6
CONTINUOUS
 62
3
 10
3.95636758033712
 20
0.431614627256598
 30
0.0
 40
0.088583333333335
 50
179.999999999999
 51
359.999999999999
  0
ARC
  8
3
  6
CONTINUOUS
 62
3
 10
3.95636758035089
 20
0.431614627264553
 30
0.0
 40
0.088583333319558
 50
359.999999994854
 51
60.0000000051443
  0
ARC
  8
3
  6
CONTINUOUS
 62
3
 10
4.14018285810529
 20
0.715874349482796
 30
0.0
 40
0.0885833333237319
 50
134.999999997426
 51
180.000000002571
  0
ARC
  8
3
  6
CONTINUOUS
 62
3
 10
4.1401828581149
 20
0.71587434947882
 30
0.0
 40
0.0885833333333346
 50
179.999999999999
 51
359.999999999999
  0
ARC
  8
3
  6
CONTINUOUS
 62
3
 10
4.14018285811819
 20
0.715874349486775
 30
0.0
 40
0.0885833333300394
 50
359.999999994854
 51
135.000000005144
  0
ARC
  8
3
  6
CONTINUOUS
 62
3
 10
3.58296758030691
 20
1.09794101614947
 30
0.0
 40
0.0885833333031253
 50
164.999999997428
 51
180.000000002573
  0
ARC
  8
3
  6
CONTINUOUS
 62
3
 10
3.58296758033712
 20
1.09794101614549
 30
0.0
 40
0.088583333333335
 50
179.999999999999
 51
359.999999999999
  0
ARC
  8
3
  6
CONTINUOUS
 62
3
 10
3.58296758033816
 20
1.09794101615344
 30
0.0
 40
0.0885833333322879
 50
359.999999994855
 51
165.000000005145
  0
ARC
  8
3
  6
CONTINUOUS
 62
3
 10
3.35437035811949
 20
1.09794101613753
 30
0.0
 40
0.0885833333287425
 50
239.999999994854
 51
5.1447253083294E-9
  0
ARC
  8
3
  6
CONTINUOUS
 62
3
 10
3.3543703581149
 20
1.09794101614549
 30
0.0
 40
0.088583333333335
 50
359.999999999999
 51
180
  0
ARC
  8
3
  6
CONTINUOUS
 62
3
 10
3.35437035810801
 20
1.09794101614151
 30
0.0
 40
0.0885833333264462
 50
179.999999997427
 51
240.000000002572
  0
LINE
  8
3
  6
CONTINUOUS
 62
3
 10
3.20636758033712
 20
0.853026875688227
 30
0.0
 11
3.20636758033712
 21
1.35302434947882
 31
0.0
  0
LINE
  8
3
  6
CONTINUOUS
 62
3
 10
3.20636758033712
 20
1.35302434947882
 30
0.0
 11
3.95636758033712
 21
2.10302434947882
 31
0.0
  0
LINE
  8
3
  6
CONTINUOUS
 62
3
 10
3.95636758033712
 20
2.10302434947882
 30
0.0
 11
4.45636758033712
 21
2.10302434947882
 31
0.0
  0
LINE
  8
3
  6
CONTINUOUS
 62
3
 10
4.45636758033712
 20
2.10302434947882
 30
0.0
 11
4.45636758033712
 21
0.85302434947882
 31
0.0
  0
LINE
  8
3
  6
CONTINUOUS
 62
3
 10
4.45636758033712
 20
0.85302434947882
 30
0.0
 11
4.03624327478156
 21
0.25302434947882
 31
0.0
  0
LINE
  8
3
  6
CONTINUOUS
 62
3
 10
4.03624327478156
 20
0.25302434947882
 30
0.0
 11
3.536243969226
 21
0.25302434947882
 31
0.0
  0
LINE
  8
3
  6
CONTINUOUS
 62
3
 10
3.536243969226
 20
0.25302434947882
 30
0.0
 11
3.20636758033712
 21
0.853026875688227
 31
0.0
  0
LINE
  8
9
  6
CONTINUOUS
 62
9
 10
2.82770236440123
 20
0.367423938961472
 30
0.0
 11
2.82383841367045
 21
0.455922960589933
 31
0.0
  0
LINE
  8
9
  6
CONTINUOUS
 62
9
 10
2.82383841367045
 20
0.455922960589933
 30
0.0
 11
2.82165744430218
 21
0.40597054951084
 31
0.0
  0
LINE
  8
9
  6
CONTINUOUS
 62
9
 10
2.8265110220561
 20
0.627466192620974
 30
0.0
 11
2.76120053797034
 21
0.687312225178929
 31
0.0
  0
LINE
  8
9
  6
CONTINUOUS
 62
9
 10
2.76120053797034
 20
0.687312225178929
 30
0.0
 11
2.79498004835112
 21
0.650448358338423
 31
0.0
  0
LINE
  8
9
  6
CONTINUOUS
 62
9
 10
2.19715287218905
 20
1.2404701274228
 30
0.0
 11
2.11066931755835
 21
1.25964306989082
 31
0.0
  0
LINE
  8
9
  6
CONTINUOUS
 62
9
 10
2.11066931755835
 20
1.25964306989082
 30
0.0
 11
2.15835516509576
 21
1.24460777991561
 31
0.0
  0
LINE
  8
9
  6
CONTINUOUS
 62
9
 10
1.9642485894373
 20
1.23857497543262
 30
0.0
 11
1.9233453581149
 21
1.16000059912692
 31
0.0
  0
LINE
  8
9
  6
CONTINUOUS
 62
9
 10
1.9233453581149
 20
1.16000059912692
 30
0.0
 11
1.95021033853224
 21
1.20217017141756
 31
0.0
  0
LINE
  8
9
  6
CONTINUOUS
 62
9
 10
1.81963424700378
 20
0.836267405034379
 30
0.0
 11
1.81963424700378
 21
0.986267405034379
 31
0.0
  0
LINE
  8
9
  6
CONTINUOUS
 62
9
 10
1.81963424700378
 20
0.986267405034379
 30
0.0
 11
1.78427890794445
 21
1.02162274409371
 31
0.0
  0
LINE
  8
9
  6
CONTINUOUS
 62
9
 10
1.41377041995679
 20
0.342003105628138
 30
0.0
 11
1.40990646922601
 21
0.430502127256599
 31
0.0
  0
LINE
  8
9
  6
CONTINUOUS
 62
9
 10
1.40990646922601
 20
0.430502127256599
 30
0.0
 11
1.40772549985774
 21
0.380549716177506
 31
0.0
  0
LINE
  8
9
  6
CONTINUOUS
 62
9
 10
1.41257907761166
 20
0.60204674817653
 30
0.0
 11
1.3472685935259
 21
0.661892780734485
 31
0.0
  0
LINE
  8
9
  6
CONTINUOUS
 62
9
 10
1.3472685935259
 20
0.661892780734485
 30
0.0
 11
1.38104810390668
 21
0.625028913893979
 31
0.0
  0
LINE
  8
9
  6
CONTINUOUS
 62
9
 10
0.783220927744607
 20
1.21504929408946
 30
0.0
 11
0.696737373113899
 21
1.23422223655748
 31
0.0
  0
LINE
  8
9
  6
CONTINUOUS
 62
9
 10
0.696737373113899
 20
1.23422223655748
 30
0.0
 11
0.744423220651311
 21
1.21918694658227
 31
0.0
  0
LINE
  8
9
  6
CONTINUOUS
 62
9
 10
0.550316644992854
 20
1.21315414209928
 30
0.0
 11
0.509413413670451
 21
1.13457976579358
 31
0.0
  0
LINE
  8
9
  6
CONTINUOUS
 62
9
 10
0.509413413670451
 20
1.13457976579358
 30
0.0
 11
0.536278394087792
 21
1.17674933808422
 31
0.0
  0
LINE
  8
9
  6
CONTINUOUS
 62
9
 10
0.40570230255934
 20
0.810847960589929
 30
0.0
 11
0.40570230255934
 21
0.960847960589929
 31
0.0
  0
LINE
  8
9
  6
CONTINUOUS
 62
9
 10
0.40570230255934
 20
0.960847960589929
 30
0.0
 11
0.370346963500012
 21
0.996203299649256
 31
0.0
  0
LINE
  8
9
  6
CONTINUOUS
 62
9
 10
1.41000791995679
 20
1.66767393896147
 30
0.0
 11
1.40614396922601
 21
1.75617296058993
 31
0.0
  0
LINE
  8
9
  6
CONTINUOUS
 62
9
 10
1.40614396922601
 20
1.75617296058993
 30
0.0
 11
1.40396299985774
 21
1.70622054951084
 31
0.0
  0
LINE
  8
9
  6
CONTINUOUS
 62
9
 10
1.40881657761166
 20
1.92771758150986
 30
0.0
 11
1.3435060935259
 21
1.98756361406782
 31
0.0
  0
LINE
  8
9
  6
CONTINUOUS
 62
9
 10
1.3435060935259
 20
1.98756361406782
 30
0.0
 11
1.37728560390668
 21
1.95069974722731
 31
0.0
  0
LINE
  8
9
  6
CONTINUOUS
 62
9
 10
0.779458427744607
 20
2.5407201274228
 30
0.0
 11
0.692974873113899
 21
2.55989306989082
 31
0.0
  0
LINE
  8
9
  6
CONTINUOUS
 62
9
 10
0.692974873113899
 20
2.55989306989082
 30
0.0
 11
0.74066072065131
 21
2.54485777991561
 31
0.0
  0
LINE
  8
9
  6
CONTINUOUS
 62
9
 10
0.546554144992854
 20
2.53882497543262
 30
0.0
 11
0.50565091367045
 21
2.46025059912692
 31
0.0
  0
LINE
  8
9
  6
CONTINUOUS
 62
9
 10
0.50565091367045
 20
2.46025059912692
 30
0.0
 11
0.532515894087792
 21
2.50242017141756
 31
0.0
  0
LINE
  8
9
  6
CONTINUOUS
 62
9
 10
0.40193980255934
 20
2.13651879392327
 30
0.0
 11
0.40193980255934
 21
2.28651879392327
 31
0.0
  0
LINE
  8
9
  6
CONTINUOUS
 62
9
 10
0.40193980255934
 20
2.28651879392327
 30
0.0
 11
0.366584463500013
 21
2.3218741329826
 31
0.0
  0
LINE
  8
9
  6
CONTINUOUS
 62
9
 10
1.38501208662345
 20
2.98513505007258
 30
0.0
 11
1.38114813589267
 21
3.07363407170104
 31
0.0
  0
LINE
  8
9
  6
CONTINUOUS
 62
9
 10
1.38114813589267
 20
3.07363407170104
 30
0.0
 11
1.37896716652441
 21
3.02368166062195
 31
0.0
  0
LINE
  8
9
  6
CONTINUOUS
 62
9
 10
1.38382074427833
 20
3.24517730373208
 30
0.0
 11
1.31851026019257
 21
3.30502333629003
 31
0.0
  0
LINE
  8
9
  6
CONTINUOUS
 62
9
 10
1.31851026019257
 20
3.30502333629003
 30
0.0
 11
1.35228977057335
 21
3.26815946944953
 31
0.0
  0
LINE
  8
9
  6
CONTINUOUS
 62
9
 10
0.754462594411274
 20
3.85818123853391
 30
0.0
 11
0.667979039780566
 21
3.87735418100193
 31
0.0
  0
LINE
  8
9
  6
CONTINUOUS
 62
9
 10
0.667979039780566
 20
3.87735418100193
 30
0.0
 11
0.715664887317977
 21
3.86231889102672
 31
0.0
  0
LINE
  8
9
  6
CONTINUOUS
 62
9
 10
0.521558311659521
 20
3.85628608654373
 30
0.0
 11
0.480655080337118
 21
3.77771171023803
 31
0.0
  0
LINE
  8
9
  6
CONTINUOUS
 62
9
 10
0.480655080337118
 20
3.77771171023803
 30
0.0
 11
0.507520060754459
 21
3.81988128252867
 31
0.0
  0
LINE
  8
9
  6
CONTINUOUS
 62
9
 10
0.376943969226006
 20
3.45397990503438
 30
0.0
 11
0.376943969226006
 21
3.60397990503438
 31
0.0
  0
LINE
  8
9
  6
CONTINUOUS
 62
9
 10
0.376943969226006
 20
3.60397990503438
 30
0.0
 11
0.341588630166679
 21
3.63933524409371
 31
0.0
  0
LINE
  8
9
  6
CONTINUOUS
 62
9
 10
3.30428645515185
 20
5.04118551597928
 30
0.0
 11
3.39077000978256
 21
5.02201257351127
 31
0.0
  0
LINE
  8
9
  6
CONTINUOUS
 62
9
 10
3.39077000978256
 20
5.02201257351127
 30
0.0
 11
3.34308416224515
 21
5.03704786348648
 31
0.0
  0
LINE
  8
9
  6
CONTINUOUS
 62
9
 10
3.53112969417368
 20
5.04214778411445
 30
0.0
 11
3.59644017825945
 21
4.98230175155649
 31
0.0
  0
LINE
  8
9
  6
CONTINUOUS
 62
9
 10
3.59644017825945
 20
4.98230175155649
 30
0.0
 11
3.56266066787866
 21
5.019165618397
 31
0.0
  0
LINE
  8
9
  6
CONTINUOUS
 62
9
 10
4.15754251849523
 20
5.9031705933295
 30
0.0
 11
4.16140646922601
 21
5.81467157170104
 31
0.0
  0
LINE
  8
9
  6
CONTINUOUS
 62
9
 10
4.16140646922601
 20
5.81467157170104
 30
0.0
 11
4.16358743859427
 21
5.86462398278014
 31
0.0
  0
LINE
  8
9
  6
CONTINUOUS
 62
9
 10
4.15940147778236
 20
5.68426041756266
 30
0.0
 11
4.08469105220743
 21
5.6366646272566
 31
0.0
  0
LINE
  8
9
  6
CONTINUOUS
 62
9
 10
4.08469105220743
 20
5.6366646272566
 30
0.0
 11
4.12904159386635
 21
5.65975205791835
 31
0.0
  0
LINE
  8
9
  6
CONTINUOUS
 62
9
 10
4.08762775610396
 20
4.66473191987707
 30
0.0
 11
4.04672452478156
 21
4.58615754357136
 31
0.0
  0
LINE
  8
9
  6
CONTINUOUS
 62
9
 10
4.04672452478156
 20
4.58615754357136
 30
0.0
 11
4.0735895051989
 21
4.62832711586201
 31
0.0
  0
LINE
  8
9
  6
CONTINUOUS
 62
9
 10
3.90441045941718
 20
4.38128584675336
 30
0.0
 11
3.84456442685923
 21
4.3159753626676
 31
0.0
  0
LINE
  8
9
  6
CONTINUOUS
 62
9
 10
3.84456442685923
 20
4.3159753626676
 30
0.0
 11
3.88142829369973
 21
4.34975487304838
 31
0.0
  0
LINE
  8
9
  6
CONTINUOUS
 62
9
 10
3.55934408979641
 20
4.06857901260284
 30
0.0
 11
3.48707730255934
 21
4.20002296058993
 31
0.0
  0
LINE
  8
9
  6
CONTINUOUS
 62
9
 10
3.48707730255934
 20
4.20002296058993
 30
0.0
 11
3.43707730255934
 21
4.20002296058993
 31
0.0
  0
LINE
  8
9
  6
CONTINUOUS
 62
9
 10
3.37871145515185
 20
7.12506190486817
 30
0.0
 11
3.46519500978256
 21
7.10588896240016
 31
0.0
  0
LINE
  8
9
  6
CONTINUOUS
 62
9
 10
3.46519500978256
 20
7.10588896240016
 30
0.0
 11
3.41750916224515
 21
7.12092425237537
 31
0.0
  0
LINE
  8
9
  6
CONTINUOUS
 62
9
 10
3.6110191457015
 20
7.12614340775983
 30
0.0
 11
3.67086517825945
 21
7.19145389184559
 31
0.0
  0
LINE
  8
9
  6
CONTINUOUS
 62
9
 10
3.67086517825945
 20
7.19145389184559
 30
0.0
 11
3.63400131141894
 21
7.15767438146481
 31
0.0
  0
LINE
  8
9
  6
CONTINUOUS
 62
9
 10
4.23196612960634
 20
7.98704698221838
 30
0.0
 11
4.23583008033712
 21
7.89854796058992
 31
0.0
  0
LINE
  8
9
  6
CONTINUOUS
 62
9
 10
4.23583008033712
 20
7.89854796058992
 30
0.0
 11
4.23801104970538
 21
7.94850037166902
 31
0.0
  0
LINE
  8
9
  6
CONTINUOUS
 62
9
 10
4.23196612960634
 20
7.76474837110728
 30
0.0
 11
4.23583008033712
 21
7.67624934947881
 31
0.0
  0
LINE
  8
9
  6
CONTINUOUS
 62
9
 10
4.23583008033712
 20
7.67624934947881
 30
0.0
 11
4.23801104970538
 21
7.72620176055791
 31
0.0
  0
LINE
  8
9
  6
CONTINUOUS
 62
9
 10
4.16205275610396
 20
6.74860969765484
 30
0.0
 11
4.12114952478156
 21
6.67003532134914
 31
0.0
  0
LINE
  8
9
  6
CONTINUOUS
 62
9
 10
4.12114952478156
 20
6.67003532134914
 30
0.0
 11
4.1480145051989
 21
6.71220489363978
 31
0.0
  0
LINE
  8
9
  6
CONTINUOUS
 62
9
 10
3.9788340705283
 20
6.46516223564225
 30
0.0
 11
3.91898803797035
 21
6.39985175155649
 31
0.0
  0
LINE
  8
9
  6
CONTINUOUS
 62
9
 10
3.91898803797035
 20
6.39985175155649
 30
0.0
 11
3.95585190481085
 21
6.43363126193728
 31
0.0
  0
LINE
  8
9
  6
CONTINUOUS
 62
9
 10
3.63376908979641
 20
6.15245540149173
 30
0.0
 11
3.56150230255934
 21
6.28389934947882
 31
0.0
  0
LINE
  8
9
  6
CONTINUOUS
 62
9
 10
3.56150230255934
 20
6.28389934947882
 30
0.0
 11
3.51150230255934
 21
6.28389934947882
 31
0.0
  0
LINE
  8
9
  6
CONTINUOUS
 62
9
 10
1.3564440310679
 20
7.10579199451703
 30
0.0
 11
1.35258008033712
 21
7.19429101614549
 31
0.0
  0
LINE
  8
9
  6
CONTINUOUS
 62
9
 10
1.35258008033712
 20
7.19429101614549
 30
0.0
 11
1.35039911096885
 21
7.1443386050664
 31
0.0
  0
LINE
  8
9
  6
CONTINUOUS
 62
9
 10
1.35525268872277
 20
7.36583424817653
 30
0.0
 11
1.28994220463701
 21
7.42568028073449
 31
0.0
  0
LINE
  8
9
  6
CONTINUOUS
 62
9
 10
1.28994220463701
 20
7.42568028073449
 30
0.0
 11
1.32372171501779
 21
7.38881641389398
 31
0.0
  0
LINE
  8
9
  6
CONTINUOUS
 62
9
 10
0.725895927744607
 20
7.97883679408947
 30
0.0
 11
0.6394123731139
 21
7.99800973655749
 31
0.0
  0
LINE
  8
9
  6
CONTINUOUS
 62
9
 10
0.6394123731139
 20
7.99800973655749
 30
0.0
 11
0.687098220651311
 21
7.98297444658227
 31
0.0
  0
LINE
  8
9
  6
CONTINUOUS
 62
9
 10
0.492991644992854
 20
7.97694164209928
 30
0.0
 11
0.452088413670451
 21
7.89836726579358
 31
0.0
  0
LINE
  8
9
  6
CONTINUOUS
 62
9
 10
0.452088413670451
 20
7.89836726579358
 30
0.0
 11
0.478953394087792
 21
7.94053683808422
 31
0.0
  0
LINE
  8
9
  6
CONTINUOUS
 62
9
 10
0.348375913670451
 20
7.57463684947882
 30
0.0
 11
0.348375913670451
 21
7.72463684947882
 31
0.0
  0
LINE
  8
9
  6
CONTINUOUS
 62
9
 10
0.348375913670451
 20
7.72463684947882
 30
0.0
 11
0.313020574611124
 21
7.75999218853814
 31
0.0
  0
LINE
  8
9
  6
CONTINUOUS
 62
9
 10
1.33144819773457
 20
8.42325171673926
 30
0.0
 11
1.32758424700379
 21
8.51175073836772
 31
0.0
  0
LINE
  8
9
  6
CONTINUOUS
 62
9
 10
1.32758424700379
 20
8.51175073836772
 30
0.0
 11
1.32540327763552
 21
8.46179832728862
 31
0.0
  0
LINE
  8
9
  6
CONTINUOUS
 62
9
 10
1.33025685538944
 20
8.68329397039875
 30
0.0
 11
1.26494637130368
 21
8.74314000295671
 31
0.0
  0
LINE
  8
9
  6
CONTINUOUS
 62
9
 10
1.26494637130368
 20
8.74314000295671
 30
0.0
 11
1.29872588168446
 21
8.7062761361162
 31
0.0
  0
LINE
  8
9
  6
CONTINUOUS
 62
9
 10
0.700900094411274
 20
9.29629790520058
 30
0.0
 11
0.614416539780566
 21
9.3154708476686
 31
0.0
  0
LINE
  8
9
  6
CONTINUOUS
 62
9
 10
0.614416539780566
 20
9.3154708476686
 30
0.0
 11
0.662102387317978
 21
9.30043555769339
 31
0.0
  0
LINE
  8
9
  6
CONTINUOUS
 62
9
 10
0.467994422770632
 20
9.2944027532104
 30
0.0
 11
0.427091191448233
 21
9.21582837690469
 31
0.0
  0
LINE
  8
9
  6
CONTINUOUS
 62
9
 10
0.427091191448233
 20
9.21582837690469
 30
0.0
 11
0.453956171865572
 21
9.25799794919534
 31
0.0
  0
LINE
  8
9
  6
CONTINUOUS
 62
9
 10
0.323380080337118
 20
8.89209657170104
 30
0.0
 11
0.323380080337118
 21
9.04209657170104
 31
0.0
  0
LINE
  8
9
  6
CONTINUOUS
 62
9
 10
0.323380080337118
 20
9.04209657170104
 30
0.0
 11
0.28802474127779
 21
9.07745191076036
 31
0.0
  0
LINE
  8
9
  6
CONTINUOUS
 62
9
 10
2.73234264217901
 20
9.81607810562814
 30
0.0
 11
2.72847869144822
 21
9.9045771272566
 31
0.0
  0
LINE
  8
9
  6
CONTINUOUS
 62
9
 10
2.72847869144822
 20
9.9045771272566
 30
0.0
 11
2.72629772207996
 21
9.8546247161775
 31
0.0
  0
LINE
  8
9
  6
CONTINUOUS
 62
9
 10
2.73115129983388
 20
10.0761217481766
 30
0.0
 11
2.66584081574812
 21
10.1359677807345
 31
0.0
  0
LINE
  8
9
  6
CONTINUOUS
 62
9
 10
2.66584081574812
 20
10.1359677807345
 30
0.0
 11
2.6996203261289
 21
10.099103913894
 31
0.0
  0
LINE
  8
9
  6
CONTINUOUS
 62
9
 10
2.10179314996683
 20
10.6891242940894
 30
0.0
 11
2.01530959533613
 21
10.7082972365574
 31
0.0
  0
LINE
  8
9
  6
CONTINUOUS
 62
9
 10
2.01530959533613
 20
10.7082972365574
 30
0.0
 11
2.06299544287354
 21
10.6932619465822
 31
0.0
  0
LINE
  8
9
  6
CONTINUOUS
 62
9
 10
1.86888886721507
 20
10.6872291420992
 30
0.0
 11
1.82798563589267
 21
10.6086547657935
 31
0.0
  0
LINE
  8
9
  6
CONTINUOUS
 62
9
 10
1.82798563589267
 20
10.6086547657935
 30
0.0
 11
1.85485061631001
 21
10.6508243380842
 31
0.0
  0
LINE
  8
9
  6
CONTINUOUS
 62
9
 10
1.72427452478156
 20
10.2849229605899
 30
0.0
 11
1.72427452478156
 21
10.4349229605899
 31
0.0
  0
LINE
  8
9
  6
CONTINUOUS
 62
9
 10
1.72427452478156
 20
10.4349229605899
 30
0.0
 11
1.68891918572223
 21
10.4702782996492
 31
0.0
  0
LINE
  8
9
  6
CONTINUOUS
 62
9
 10
0.457428121818517
 20
10.6561966270904
 30
0.0
 11
0.543911676449224
 21
10.6370236846224
 31
0.0
  0
LINE
  8
9
  6
CONTINUOUS
 62
9
 10
0.543911676449224
 20
10.6370236846224
 30
0.0
 11
0.496225828911813
 21
10.6520589745976
 31
0.0
  0
LINE
  8
9
  6
CONTINUOUS
 62
9
 10
0.684271360840351
 20
10.6571588952256
 30
0.0
 11
0.749581844926115
 21
10.5973128626676
 31
0.0
  0
LINE
  8
9
  6
CONTINUOUS
 62
9
 10
0.749581844926115
 20
10.5973128626676
 30
0.0
 11
0.715802334545332
 21
10.6341767295081
 31
0.0
  0
LINE
  8
9
  6
CONTINUOUS
 62
9
 10
1.31068279627301
 20
10.0478247599961
 30
0.0
 11
1.31454674700379
 21
9.95932573836767
 31
0.0
  0
LINE
  8
9
  6
CONTINUOUS
 62
9
 10
1.31454674700379
 20
9.95932573836767
 30
0.0
 11
1.31672771637205
 21
10.0092781494468
 31
0.0
  0
LINE
  8
9
  6
CONTINUOUS
 62
9
 10
1.31362812181852
 20
9.78682023820151
 30
0.0
 11
1.40011167644923
 21
9.76764729573349
 31
0.0
  0
LINE
  8
9
  6
CONTINUOUS
 62
9
 10
1.40011167644923
 20
9.76764729573349
 30
0.0
 11
1.35242582891182
 21
9.7826825857087
 31
0.0
  0
LINE
  8
9
  6
CONTINUOUS
 62
9
 10
1.710343969226
 20
9.65950351614549
 30
0.0
 11
1.560343969226
 21
9.65950351614549
 31
0.0
  0
LINE
  8
9
  6
CONTINUOUS
 62
9
 10
1.560343969226
 20
9.65950351614549
 30
0.0
 11
1.560343969226
 21
9.60950351614549
 31
0.0
  0
LINE
  8
9
  6
CONTINUOUS
 62
9
 10
2.74538014217901
 20
8.44867116118369
 30
0.0
 11
2.74151619144823
 21
8.53717018281215
 31
0.0
  0
LINE
  8
9
  6
CONTINUOUS
 62
9
 10
2.74151619144823
 20
8.53717018281215
 30
0.0
 11
2.73933522207996
 21
8.48721777173306
 31
0.0
  0
LINE
  8
9
  6
CONTINUOUS
 62
9
 10
2.74418879983388
 20
8.70871480373209
 30
0.0
 11
2.67887831574812
 21
8.76856083629004
 31
0.0
  0
LINE
  8
9
  6
CONTINUOUS
 62
9
 10
2.67887831574812
 20
8.76856083629004
 30
0.0
 11
2.7126578261289
 21
8.73169696944954
 31
0.0
  0
LINE
  8
9
  6
CONTINUOUS
 62
9
 10
2.11483064996683
 20
9.32171734964503
 30
0.0
 11
2.02834709533613
 21
9.34089029211304
 31
0.0
  0
LINE
  8
9
  6
CONTINUOUS
 62
9
 10
2.02834709533613
 20
9.34089029211304
 30
0.0
 11
2.07603294287354
 21
9.32585500213783
 31
0.0
  0
LINE
  8
9
  6
CONTINUOUS
 62
9
 10
1.88192636721507
 20
9.31982219765484
 30
0.0
 11
1.84102313589267
 21
9.24124782134914
 31
0.0
  0
LINE
  8
9
  6
CONTINUOUS
 62
9
 10
1.84102313589267
 20
9.24124782134914
 30
0.0
 11
1.86788811631001
 21
9.28341739363978
 31
0.0
  0
LINE
  8
9
  6
CONTINUOUS
 62
9
 10
1.73731202478156
 20
8.91751601614549
 30
0.0
 11
1.73731202478156
 21
9.06751601614549
 31
0.0
  0
LINE
  8
9
  6
CONTINUOUS
 62
9
 10
1.73731202478156
 20
9.06751601614549
 30
0.0
 11
1.70195668572223
 21
9.10287135520482
 31
0.0
  0
LINE
  8
9
  6
CONTINUOUS
 62
9
 10
2.77037597551234
 20
7.13121143896147
 30
0.0
 11
2.76651202478156
 21
7.21971046058992
 31
0.0
  0
LINE
  8
9
  6
CONTINUOUS
 62
9
 10
2.76651202478156
 20
7.21971046058992
 30
0.0
 11
2.76433105541329
 21
7.16975804951083
 31
0.0
  0
LINE
  8
9
  6
CONTINUOUS
 62
9
 10
2.76918463316722
 20
7.39125369262097
 30
0.0
 11
2.70387414908145
 21
7.45109972517892
 31
0.0
  0
LINE
  8
9
  6
CONTINUOUS
 62
9
 10
2.70387414908145
 20
7.45109972517892
 30
0.0
 11
2.73765365946224
 21
7.41423585833841
 31
0.0
  0
LINE
  8
9
  6
CONTINUOUS
 62
9
 10
2.13982648330016
 20
8.0042576274228
 30
0.0
 11
2.05334292866945
 21
8.02343056989081
 31
0.0
  0
LINE
  8
9
  6
CONTINUOUS
 62
9
 10
2.05334292866945
 20
8.02343056989081
 30
0.0
 11
2.10102877620687
 21
8.0083952799156
 31
0.0
  0
LINE
  8
9
  6
CONTINUOUS
 62
9
 10
1.90692220054841
 20
8.00236247543262
 30
0.0
 11
1.86601896922601
 21
7.92378809912691
 31
0.0
  0
LINE
  8
9
  6
CONTINUOUS
 62
9
 10
1.86601896922601
 20
7.92378809912691
 30
0.0
 11
1.89288394964335
 21
7.96595767141756
 31
0.0
  0
LINE
  8
9
  6
CONTINUOUS
 62
9
 10
1.76230785811489
 20
7.60005629392327
 30
0.0
 11
1.76230785811489
 21
7.75005629392327
 31
0.0
  0
LINE
  8
9
  6
CONTINUOUS
 62
9
 10
1.76230785811489
 20
7.75005629392327
 30
0.0
 11
1.72695251905556
 21
7.7854116329826
 31
0.0
  0
LINE
  8
9
  6
CONTINUOUS
 62
9
 10
2.77413847551234
 20
5.80554060562814
 30
0.0
 11
2.77027452478156
 21
5.89403962725659
 31
0.0
  0
LINE
  8
9
  6
CONTINUOUS
 62
9
 10
2.77027452478156
 20
5.89403962725659
 30
0.0
 11
2.76809355541329
 21
5.8440872161775
 31
0.0
  0
LINE
  8
9
  6
CONTINUOUS
 62
9
 10
2.77294713316722
 20
6.06558285928764
 30
0.0
 11
2.70763664908146
 21
6.1254288918456
 31
0.0
  0
LINE
  8
9
  6
CONTINUOUS
 62
9
 10
2.70763664908146
 20
6.1254288918456
 30
0.0
 11
2.74141615946224
 21
6.08856502500509
 31
0.0
  0
LINE
  8
9
  6
CONTINUOUS
 62
9
 10
2.14359037218905
 20
6.67858679408947
 30
0.0
 11
2.05710681755835
 21
6.69775973655749
 31
0.0
  0
LINE
  8
9
  6
CONTINUOUS
 62
9
 10
2.05710681755835
 20
6.69775973655749
 30
0.0
 11
2.10479266509576
 21
6.68272444658227
 31
0.0
  0
LINE
  8
9
  6
CONTINUOUS
 62
9
 10
1.91068470054841
 20
6.67669164209928
 30
0.0
 11
1.86978146922601
 21
6.59811726579358
 31
0.0
  0
LINE
  8
9
  6
CONTINUOUS
 62
9
 10
1.86978146922601
 20
6.59811726579358
 30
0.0
 11
1.89664644964335
 21
6.64028683808422
 31
0.0
  0
LINE
  8
9
  6
CONTINUOUS
 62
9
 10
1.76607035811489
 20
6.27438546058993
 30
0.0
 11
1.76607035811489
 21
6.42438546058993
 31
0.0
  0
LINE
  8
9
  6
CONTINUOUS
 62
9
 10
1.76607035811489
 20
6.42438546058993
 30
0.0
 11
1.73071501905556
 21
6.45974079964926
 31
0.0
  0
LINE
  8
9
  6
CONTINUOUS
 62
9
 10
0.49922395515185
 20
6.6456577382015
 30
0.0
 11
0.585707509782557
 21
6.62648479573349
 31
0.0
  0
LINE
  8
9
  6
CONTINUOUS
 62
9
 10
0.585707509782557
 20
6.62648479573349
 30
0.0
 11
0.538021662245146
 21
6.6415200857087
 31
0.0
  0
LINE
  8
9
  6
CONTINUOUS
 62
9
 10
0.726067194173684
 20
6.64662000633666
 30
0.0
 11
0.791377678259448
 21
6.58677397377871
 31
0.0
  0
LINE
  8
9
  6
CONTINUOUS
 62
9
 10
0.791377678259448
 20
6.58677397377871
 30
0.0
 11
0.757598167878665
 21
6.62363784061922
 31
0.0
  0
LINE
  8
9
  6
CONTINUOUS
 62
9
 10
1.35247862960634
 20
6.03728725999617
 30
0.0
 11
1.35634258033712
 21
5.9487882383677
 31
0.0
  0
LINE
  8
9
  6
CONTINUOUS
 62
9
 10
1.35634258033712
 20
5.9487882383677
 30
0.0
 11
1.35852354970538
 21
5.9987406494468
 31
0.0
  0
LINE
  8
9
  6
CONTINUOUS
 62
9
 10
1.35542395515185
 20
5.7762827382015
 30
0.0
 11
1.44190750978256
 21
5.75710979573349
 31
0.0
  0
LINE
  8
9
  6
CONTINUOUS
 62
9
 10
1.44190750978256
 20
5.75710979573349
 30
0.0
 11
1.39422166224515
 21
5.7721450857087
 31
0.0
  0
LINE
  8
9
  6
CONTINUOUS
 62
9
 10
1.75213980255934
 20
5.64896601614549
 30
0.0
 11
1.60213980255934
 21
5.64896601614549
 31
0.0
  0
LINE
  8
9
  6
CONTINUOUS
 62
9
 10
1.60213980255934
 20
5.64896601614549
 30
0.0
 11
1.60213980255934
 21
5.59896601614549
 31
0.0
  0
LINE
  8
9
  6
CONTINUOUS
 62
9
 10
2.7859065310679
 20
4.37796143896147
 30
0.0
 11
2.78204258033712
 21
4.46646046058993
 31
0.0
  0
LINE
  8
9
  6
CONTINUOUS
 62
9
 10
2.78204258033712
 20
4.46646046058993
 30
0.0
 11
2.77986161096885
 21
4.41650804951084
 31
0.0
  0
LINE
  8
9
  6
CONTINUOUS
 62
9
 10
2.78471518872277
 20
4.63800369262097
 30
0.0
 11
2.71940470463701
 21
4.69784972517893
 31
0.0
  0
LINE
  8
9
  6
CONTINUOUS
 62
9
 10
2.71940470463701
 20
4.69784972517893
 30
0.0
 11
2.75318421501779
 21
4.66098585833842
 31
0.0
  0
LINE
  8
9
  6
CONTINUOUS
 62
9
 10
2.15535703885572
 20
5.2510076274228
 30
0.0
 11
2.06887348422502
 21
5.27018056989082
 31
0.0
  0
LINE
  8
9
  6
CONTINUOUS
 62
9
 10
2.06887348422502
 20
5.27018056989082
 30
0.0
 11
2.11655933176243
 21
5.25514527991561
 31
0.0
  0
LINE
  8
9
  6
CONTINUOUS
 62
9
 10
1.92245275610396
 20
5.24911247543262
 30
0.0
 11
1.88154952478156
 21
5.17053809912692
 31
0.0
  0
LINE
  8
9
  6
CONTINUOUS
 62
9
 10
1.88154952478156
 20
5.17053809912692
 30
0.0
 11
1.9084145051989
 21
5.21270767141756
 31
0.0
  0
LINE
  8
9
  6
CONTINUOUS
 62
9
 10
1.77783841367045
 20
4.84680629392326
 30
0.0
 11
1.77783841367045
 21
4.99680629392326
 31
0.0
  0
LINE
  8
9
  6
CONTINUOUS
 62
9
 10
1.77783841367045
 20
4.99680629392326
 30
0.0
 11
1.74248307461112
 21
5.03216163298259
 31
0.0
  0
LINE
  8
9
  6
CONTINUOUS
 62
9
 10
0.510990621818516
 20
5.21807996042372
 30
0.0
 11
0.597474176449224
 21
5.19890701795571
 31
0.0
  0
LINE
  8
9
  6
CONTINUOUS
 62
9
 10
0.597474176449224
 20
5.19890701795571
 30
0.0
 11
0.549788328911812
 21
5.21394230793092
 31
0.0
  0
LINE
  8
9
  6
CONTINUOUS
 62
9
 10
0.737833860840351
 20
5.21904222855889
 30
0.0
 11
0.803144344926115
 21
5.15919619600093
 31
0.0
  0
LINE
  8
9
  6
CONTINUOUS
 62
9
 10
0.803144344926115
 20
5.15919619600093
 30
0.0
 11
0.769364834545332
 21
5.19606006284144
 31
0.0
  0
LINE
  8
9
  6
CONTINUOUS
 62
9
 10
1.36424668516189
 20
4.60970809332951
 30
0.0
 11
1.36811063589267
 21
4.52120907170105
 31
0.0
  0
LINE
  8
9
  6
CONTINUOUS
 62
9
 10
1.36811063589267
 20
4.52120907170105
 30
0.0
 11
1.37029160526094
 21
4.57116148278014
 31
0.0
  0
LINE
  8
9
  6
CONTINUOUS
 62
9
 10
1.3671920107074
 20
4.34870357153483
 30
0.0
 11
1.45367556533811
 21
4.32953062906682
 31
0.0
  0
LINE
  8
9
  6
CONTINUOUS
 62
9
 10
1.45367556533811
 20
4.32953062906682
 30
0.0
 11
1.4059897178007
 21
4.34456591904203
 31
0.0
  0
LINE
  8
9
  6
CONTINUOUS
 62
9
 10
1.763906469226
 20
4.22138684947882
 30
0.0
 11
1.613906469226
 21
4.22138684947882
 31
0.0
  0
LINE
  8
9
  6
CONTINUOUS
 62
9
 10
1.613906469226
 20
4.22138684947882
 30
0.0
 11
1.613906469226
 21
4.17138684947882
 31
0.0
  0
LINE
  8
9
  6
CONTINUOUS
 62
9
 10
2.7989440310679
 20
3.01055449451702
 30
0.0
 11
2.79508008033712
 21
3.09905351614548
 31
0.0
  0
LINE
  8
9
  6
CONTINUOUS
 62
9
 10
2.79508008033712
 20
3.09905351614548
 30
0.0
 11
2.79289911096885
 21
3.04910110506639
 31
0.0
  0
LINE
  8
9
  6
CONTINUOUS
 62
9
 10
2.79775268872277
 20
3.27059674817653
 30
0.0
 11
2.73244220463701
 21
3.33044278073449
 31
0.0
  0
LINE
  8
9
  6
CONTINUOUS
 62
9
 10
2.73244220463701
 20
3.33044278073449
 30
0.0
 11
2.76622171501779
 21
3.29357891389398
 31
0.0
  0
LINE
  8
9
  6
CONTINUOUS
 62
9
 10
2.16839453885571
 20
3.88360068297835
 30
0.0
 11
2.08191098422501
 21
3.90277362544637
 31
0.0
  0
LINE
  8
9
  6
CONTINUOUS
 62
9
 10
2.08191098422501
 20
3.90277362544637
 30
0.0
 11
2.12959683176242
 21
3.88773833547116
 31
0.0
  0
LINE
  8
9
  6
CONTINUOUS
 62
9
 10
1.93549025610396
 20
3.88170553098817
 30
0.0
 11
1.89458702478156
 21
3.80313115468247
 31
0.0
  0
LINE
  8
9
  6
CONTINUOUS
 62
9
 10
1.89458702478156
 20
3.80313115468247
 30
0.0
 11
1.9214520051989
 21
3.84530072697311
 31
0.0
  0
LINE
  8
9
  6
CONTINUOUS
 62
9
 10
1.79087591367045
 20
3.47939934947882
 30
0.0
 11
1.79087591367045
 21
3.62939934947882
 31
0.0
  0
LINE
  8
9
  6
CONTINUOUS
 62
9
 10
1.79087591367045
 20
3.62939934947882
 30
0.0
 11
1.75552057461112
 21
3.66475468853815
 31
0.0
  0
LINE
  8
9
  6
CONTINUOUS
 62
9
 10
2.82393986440123
 20
1.6930947722948
 30
0.0
 11
2.82007591367045
 21
1.78159379392326
 31
0.0
  0
LINE
  8
9
  6
CONTINUOUS
 62
9
 10
2.82007591367045
 20
1.78159379392326
 30
0.0
 11
2.81789494430219
 21
1.73164138284417
 31
0.0
  0
LINE
  8
9
  6
CONTINUOUS
 62
9
 10
2.82274852205611
 20
1.95313702595431
 30
0.0
 11
2.75743803797035
 21
2.01298305851226
 31
0.0
  0
LINE
  8
9
  6
CONTINUOUS
 62
9
 10
2.75743803797035
 20
2.01298305851226
 30
0.0
 11
2.79121754835113
 21
1.97611919167176
 31
0.0
  0
LINE
  8
9
  6
CONTINUOUS
 62
9
 10
2.19339037218905
 20
2.56613957186724
 30
0.0
 11
2.10690681755835
 21
2.58531251433526
 31
0.0
  0
LINE
  8
9
  6
CONTINUOUS
 62
9
 10
2.10690681755835
 20
2.58531251433526
 30
0.0
 11
2.15459266509576
 21
2.57027722436005
 31
0.0
  0
LINE
  8
9
  6
CONTINUOUS
 62
9
 10
1.9604860894373
 20
2.56424441987706
 30
0.0
 11
1.9195828581149
 21
2.48567004357136
 31
0.0
  0
LINE
  8
9
  6
CONTINUOUS
 62
9
 10
1.9195828581149
 20
2.48567004357136
 30
0.0
 11
1.94644783853224
 21
2.527839615862
 31
0.0
  0
LINE
  8
9
  6
CONTINUOUS
 62
9
 10
1.81587174700378
 20
2.1619396272566
 30
0.0
 11
1.81587174700378
 21
2.3119396272566
 31
0.0
  0
LINE
  8
9
  6
CONTINUOUS
 62
9
 10
1.81587174700378
 20
2.3119396272566
 30
0.0
 11
1.78051640794445
 21
2.34729496631593
 31
0.0
  0
LINE
  8
9
  6
CONTINUOUS
 62
9
 10
3.32661423292963
 20
3.09127162709039
 30
0.0
 11
3.41309778756034
 21
3.07209868462238
 31
0.0
  0
LINE
  8
9
  6
CONTINUOUS
 62
9
 10
3.41309778756034
 20
3.07209868462238
 30
0.0
 11
3.36541194002293
 21
3.08713397459759
 31
0.0
  0
LINE
  8
9
  6
CONTINUOUS
 62
9
 10
3.55345747195146
 20
3.09223389522555
 30
0.0
 11
3.61876795603723
 21
3.0323878626676
 31
0.0
  0
LINE
  8
9
  6
CONTINUOUS
 62
9
 10
3.61876795603723
 20
3.0323878626676
 30
0.0
 11
3.58498844565644
 21
3.06925172950811
 31
0.0
  0
LINE
  8
9
  6
CONTINUOUS
 62
9
 10
4.17986890738412
 20
3.9532580933295
 30
0.0
 11
4.1837328581149
 21
3.86475907170104
 31
0.0
  0
LINE
  8
9
  6
CONTINUOUS
 62
9
 10
4.1837328581149
 20
3.86475907170104
 30
0.0
 11
4.18591382748316
 21
3.91471148278014
 31
0.0
  0
LINE
  8
9
  6
CONTINUOUS
 62
9
 10
4.18172786667125
 20
3.73434791756266
 30
0.0
 11
4.10701744109632
 21
3.6867521272566
 31
0.0
  0
LINE
  8
9
  6
CONTINUOUS
 62
9
 10
4.10701744109632
 20
3.6867521272566
 30
0.0
 11
4.15136798275524
 21
3.70983955791835
 31
0.0
  0
LINE
  8
9
  6
CONTINUOUS
 62
9
 10
4.10995553388174
 20
2.71481941987706
 30
0.0
 11
4.06905230255934
 21
2.63624504357136
 31
0.0
  0
LINE
  8
9
  6
CONTINUOUS
 62
9
 10
4.06905230255934
 20
2.63624504357136
 30
0.0
 11
4.09591728297668
 21
2.678414615862
 31
0.0
  0
LINE
  8
9
  6
CONTINUOUS
 62
9
 10
3.92673684830607
 20
2.43137334675336
 30
0.0
 11
3.86689081574812
 21
2.3660628626676
 31
0.0
  0
LINE
  8
9
  6
CONTINUOUS
 62
9
 10
3.86689081574812
 20
2.3660628626676
 30
0.0
 11
3.90375468258862
 21
2.39984237304838
 31
0.0
  0
LINE
  8
9
  6
CONTINUOUS
 62
9
 10
3.58167186757419
 20
2.11866512371395
 30
0.0
 11
3.50940508033712
 21
2.25010907170104
 31
0.0
  0
LINE
  8
9
  6
CONTINUOUS
 62
9
 10
3.50940508033712
 20
2.25010907170104
 30
0.0
 11
3.45940508033712
 21
2.25010907170104
 31
0.0
  0
LINE
  8
9
  6
CONTINUOUS
 62
9
 10
4.20670779627301
 20
1.95617198221839
 30
0.0
 11
4.21057174700379
 21
1.86767296058993
 31
0.0
  0
LINE
  8
9
  6
CONTINUOUS
 62
9
 10
4.21057174700379
 20
1.86767296058993
 30
0.0
 11
4.21275271637205
 21
1.91762537166903
 31
0.0
  0
LINE
  8
9
  6
CONTINUOUS
 62
9
 10
4.20681763572647
 20
1.73487630799742
 30
0.0
 11
4.18764469325845
 21
1.64839275336671
 31
0.0
  0
LINE
  8
9
  6
CONTINUOUS
 62
9
 10
4.18764469325845
 20
1.64839275336671
 30
0.0
 11
4.20267998323367
 21
1.69607860090412
 31
0.0
  0
LINE
  8
9
  6
CONTINUOUS
 62
9
 10
3.95975601568138
 20
0.429755667969466
 30
0.0
 11
4.00065924700379
 21
0.508330044275171
 31
0.0
  0
LINE
  8
9
  6
CONTINUOUS
 62
9
 10
4.00065924700379
 20
0.508330044275171
 30
0.0
 11
3.97379426658644
 21
0.466160471984527
 31
0.0
  0
LINE
  8
9
  6
CONTINUOUS
 62
9
 10
4.14285546650055
 20
0.718666192620974
 30
0.0
 11
4.07754498241479
 21
0.77851222517893
 31
0.0
  0
LINE
  8
9
  6
CONTINUOUS
 62
9
 10
4.07754498241479
 20
0.77851222517893
 30
0.0
 11
4.11132449279557
 21
0.741648358338423
 31
0.0
  0
LINE
  8
9
  6
CONTINUOUS
 62
9
 10
3.58388620552238
 20
1.1016951274228
 30
0.0
 11
3.49740265089168
 21
1.12086806989082
 31
0.0
  0
LINE
  8
9
  6
CONTINUOUS
 62
9
 10
3.49740265089168
 20
1.12086806989082
 30
0.0
 11
3.54508849842909
 21
1.10583277991561
 31
0.0
  0
LINE
  8
9
  6
CONTINUOUS
 62
9
 10
3.35098192277063
 20
1.09979997543262
 30
0.0
 11
3.31007869144823
 21
1.02122559912692
 31
0.0
  0
LINE
  8
9
  6
CONTINUOUS
 62
9
 10
3.31007869144823
 20
1.02122559912692
 30
0.0
 11
3.33694367186557
 21
1.06339517141756
 31
0.0
  0
LINE
  8
9
  6
CONTINUOUS
 62
9
 10
3.20636758033712
 20
0.703026875688227
 30
0.0
 11
3.20636758033712
 21
0.853026875688227
 31
0.0
  0
LINE
  8
9
  6
CONTINUOUS
 62
9
 10
3.20636758033712
 20
0.853026875688227
 30
0.0
 11
3.1822786512581
 21
0.896841525017256
 31
0.0
  0
ENDSEC
  0
EOF
