  0
SECTION
  2
HEADER
  9
$ACADVER
  1
AC1003
  9
$EXTMIN
 10
1
 20
12
  9
$EXTMAX
 10
5.78637310087687
 20
1
  9
$INSUNITS
 70
1
  9
$INSBASE
 10
3.39318655043843
 20
6.5
999
Created with OMAX LAYOUT for Windows. (www.omax.com) 5/8/2025
  0
ENDSEC
  0
SECTION
  2
TABLES
  0
TABLE
  2
LAYER
 70
    10
  0
LAYER
  2
0
 70
     0
 62
     7
  6
CONTINUOUS
  0
LAYER
  2
1
 70
     0
 62
     7
  6
CONTINUOUS
  0
LAYER
  2
2
 70
     0
 62
     7
  6
CONTINUOUS
  0
LAYER
  2
3
 70
     0
 62
     7
  6
CONTINUOUS
  0
LAYER
  2
4
 70
     0
 62
     7
  6
CONTINUOUS
  0
LAYER
  2
5
 70
     0
 62
     7
  6
CONTINUOUS
  0
LAYER
  2
6
 70
     0
 62
     7
  6
CONTINUOUS
  0
LAYER
  2
7
 70
     0
 62
     7
  6
CONTINUOUS
  0
LAYER
  2
8
 70
     0
 62
     7
  6
CONTINUOUS
  0
LAYER
  2
9
 70
     0
 62
     7
  6
CONTINUOUS
  0
LAYER
  2
10
 70
     0
 62
     7
  6
CONTINUOUS
  0
LAYER
  2
11
 70
     0
 62
     7
  6
CONTINUOUS
  0
LAYER
  2
12
 70
     0
 62
     7
  6
CONTINUOUS
  0
LAYER
  2
13
 70
     0
 62
     7
  6
CONTINUOUS
  0
LAYER
  2
14
 70
     0
 62
     7
  6
CONTINUOUS
  0
LAYER
  2
15
 70
     0
 62
     7
  6
CONTINUOUS
  0
LAYER
  2
16
 70
     0
 62
     7
  6
CONTINUOUS
  0
LAYER
  2
17
 70
     0
 62
     7
  6
CONTINUOUS
  0
LAYER
  2
18
 70
     0
 62
     7
  6
CONTINUOUS
  0
LAYER
  2
19
 70
     0
 62
     7
  6
CONTINUOUS
  0
LAYER
  2
20
 70
     0
 62
     7
  6
CONTINUOUS
  0
LAYER
  2
21
 70
     0
 62
     7
  6
CONTINUOUS
  0
LAYER
  2
22
 70
     0
 62
     7
  6
CONTINUOUS
  0
LAYER
  2
23
 70
     0
 62
     7
  6
CONTINUOUS
  0
LAYER
  2
24
 70
     0
 62
     7
  6
CONTINUOUS
  0
LAYER
  2
25
 70
     0
 62
     7
  6
CONTINUOUS
  0
LAYER
  2
26
 70
     0
 62
     7
  6
CONTINUOUS
  0
LAYER
  2
27
 70
     0
 62
     7
  6
CONTINUOUS
  0
LAYER
  2
28
 70
     0
 62
     7
  6
CONTINUOUS
  0
LAYER
  2
29
 70
     0
 62
     7
  6
CONTINUOUS
  0
LAYER
  2
30
 70
     0
 62
     7
  6
CONTINUOUS
  0
LAYER
  2
31
 70
     0
 62
     7
  6
CONTINUOUS
  0
ENDTAB
  0
ENDSEC
  0
SECTION
  2
ENTITIES
  0
LINE
  8
0
  6
CONTINUOUS
 62
0
 10
4.31192954824206
 20
1.21887565507256
 30
0.0
 11
4.26257838108129
 21
1.21084681332112
 31
0.0
  0
LINE
  8
0
  6
CONTINUOUS
 62
0
 10
2.8
 20
11.0014989321598
 30
0.0
 11
2.8
 21
10.9514989321598
 31
0.0
  0
ARC
  8
3
  6
CONTINUOUS
 62
3
 10
5.40103769104856
 20
1.25
 30
0.0
 40
0.0885826771653551
 50
179.999999999999
 51
359.999999999999
  0
ARC
  8
3
  6
CONTINUOUS
 62
3
 10
5.40103769104856
 20
1.25
 30
0.0
 40
0.0885826771653551
 50
359.999999999999
 51
180
  0
ARC
  8
3
  6
CONTINUOUS
 62
3
 10
4.6492991847261
 20
2.26276547472185
 30
0.0
 40
0.0885826771653546
 50
179.999999999999
 51
359.999999999999
  0
ARC
  8
3
  6
CONTINUOUS
 62
3
 10
4.6492991847261
 20
2.26276547472185
 30
0.0
 40
0.0885826771653546
 50
359.999999999999
 51
180
  0
ARC
  8
3
  6
CONTINUOUS
 62
3
 10
2.1769728298649
 20
5.79361343043286
 30
0.0
 40
0.0885826771653542
 50
179.999999999999
 51
359.999999999999
  0
ARC
  8
3
  6
CONTINUOUS
 62
3
 10
2.1769728298649
 20
5.79361343043287
 30
0.0
 40
0.0885826771653542
 50
359.999999999999
 51
180
  0
ARC
  8
3
  6
CONTINUOUS
 62
3
 10
4.1098875635618
 20
1.88506539138469
 30
0.0
 40
0.0885826771653546
 50
179.999999999999
 51
359.999999999999
  0
ARC
  8
3
  6
CONTINUOUS
 62
3
 10
4.1098875635618
 20
1.88506539138469
 30
0.0
 40
0.0885826771653546
 50
359.999999999999
 51
180
  0
ARC
  8
3
  6
CONTINUOUS
 62
3
 10
1.6375612087006
 20
5.4159133470957
 30
0.0
 40
0.0885826771653545
 50
179.999999999999
 51
359.999999999999
  0
ARC
  8
3
  6
CONTINUOUS
 62
3
 10
1.6375612087006
 20
5.4159133470957
 30
0.0
 40
0.0885826771653545
 50
359.999999999999
 51
180
  0
ARC
  8
3
  6
CONTINUOUS
 62
3
 10
1.95425
 20
7.5
 30
0.0
 40
0.0885826771653546
 50
179.999999999999
 51
359.999999999999
  0
ARC
  8
3
  6
CONTINUOUS
 62
3
 10
1.95425
 20
7.5
 30
0.0
 40
0.0885826771653546
 50
359.999999999999
 51
180
  0
ARC
  8
3
  6
CONTINUOUS
 62
3
 10
1.95425
 20
10.5
 30
0.0
 40
0.0885826771653546
 50
179.999999999999
 51
359.999999999999
  0
ARC
  8
3
  6
CONTINUOUS
 62
3
 10
1.95425
 20
10.5
 30
0.0
 40
0.0885826771653546
 50
359.999999999999
 51
180
  0
ARC
  8
3
  6
CONTINUOUS
 62
3
 10
2.45425
 20
11.5
 30
0.0
 40
0.088582677165354
 50
179.999999999999
 51
359.999999999999
  0
ARC
  8
3
  6
CONTINUOUS
 62
3
 10
2.45425
 20
11.5
 30
0.0
 40
0.088582677165354
 50
359.999999999999
 51
180
  0
ARC
  8
3
  6
CONTINUOUS
 62
3
 10
2.45425
 20
6.5
 30
0.0
 40
0.088582677165354
 50
179.999999999999
 51
359.999999999999
  0
ARC
  8
3
  6
CONTINUOUS
 62
3
 10
2.45425
 20
6.5
 30
0.0
 40
0.088582677165354
 50
359.999999999999
 51
180
  0
ARC
  8
3
  6
CONTINUOUS
 62
3
 10
1.29575
 20
6.5
 30
0.0
 40
0.0885826771653541
 50
179.999999999999
 51
359.999999999999
  0
ARC
  8
3
  6
CONTINUOUS
 62
3
 10
1.29575
 20
6.5
 30
0.0
 40
0.0885826771653541
 50
359.999999999999
 51
180
  0
ARC
  8
3
  6
CONTINUOUS
 62
3
 10
1.29575
 20
11.5
 30
0.0
 40
0.0885826771653545
 50
179.999999999999
 51
359.999999999999
  0
ARC
  8
3
  6
CONTINUOUS
 62
3
 10
1.29575
 20
11.5
 30
0.0
 40
0.0885826771653545
 50
359.999999999999
 51
180
  0
ARC
  8
3
  6
CONTINUOUS
 62
3
 10
2.59
 20
11.99
 30
0.0
 40
0.0100000000000001
 50
1.37399962239224E-12
 51
90.0000000000008
  0
LINE
  8
3
  6
CONTINUOUS
 62
3
 10
2.59
 20
12
 30
0.0
 11
1.25
 21
12
 31
0.0
  0
ARC
  8
3
  6
CONTINUOUS
 62
3
 10
1.25
 20
11.75
 30
0.0
 40
0.250000000000001
 50
89.9999999999996
 51
180.000000000002
  0
LINE
  8
3
  6
CONTINUOUS
 62
3
 10
1
 20
11.75
 30
0.0
 11
1
 21
6.25
 31
0.0
  0
ARC
  8
3
  6
CONTINUOUS
 62
3
 10
1.25
 20
6.25
 30
0.0
 40
0.25
 50
179.999999999999
 51
270.000000000001
  0
LINE
  8
3
  6
CONTINUOUS
 62
3
 10
1.25
 20
6
 30
0.0
 11
1.56828405197637
 21
6
 31
0.0
  0
ARC
  8
3
  6
CONTINUOUS
 62
3
 10
1.56828405197637
 20
5.99
 30
0.0
 40
0.00999999999999987
 50
305.000000000001
 51
90.0000000000006
  0
LINE
  8
3
  6
CONTINUOUS
 62
3
 10
1.57401981633988
 20
5.98180847955711
 30
0.0
 11
1.31329678449886
 21
5.79924824727714
 31
0.0
  0
ARC
  8
3
  6
CONTINUOUS
 62
3
 10
1.45669089358662
 20
5.59446023620489
 30
0.0
 40
0.25
 50
124.999999999999
 51
215.000000000001
  0
LINE
  8
3
  6
CONTINUOUS
 62
3
 10
1.25190288251437
 20
5.45106612711712
 30
0.0
 11
4.01101745555109
 21
1.51064214926162
 31
0.0
  0
ARC
  8
3
  6
CONTINUOUS
 62
3
 10
4.21580546662334
 20
1.65403625834938
 30
0.0
 40
0.249999999999999
 50
215
 51
267.703420331269
  0
LINE
  8
3
  6
CONTINUOUS
 62
3
 10
4.3591995757111
 20
1.44924824727713
 30
0.0
 11
4.64590279121225
 21
1.65
 31
0.0
  0
LINE
  8
3
  6
CONTINUOUS
 62
3
 10
4.64590279121225
 20
1.65
 30
0.0
 11
5.02639144261425
 21
1.10660589091224
 31
0.0
  0
ARC
  8
3
  6
CONTINUOUS
 62
3
 10
5.23117945368649
 20
1.25
 30
0.0
 40
0.249999999999998
 50
215.000000000001
 51
270.000000000001
  0
LINE
  8
3
  6
CONTINUOUS
 62
3
 10
5.2311794536865
 20
1
 30
0.0
 11
5.53637310087686
 21
1
 31
0.0
  0
ARC
  8
3
  6
CONTINUOUS
 62
3
 10
5.53637310087687
 20
1.25
 30
0.0
 40
0.249999999999999
 50
269.999999999999
 51
34.9999999999999
  0
LINE
  8
3
  6
CONTINUOUS
 62
3
 10
5.74116111194911
 20
1.39339410908776
 30
0.0
 11
2.64521198892775
 21
5.8148676781057
 31
0.0
  0
ARC
  8
3
  6
CONTINUOUS
 62
3
 10
2.85
 20
5.95826178719345
 30
0.0
 40
0.249999999999997
 50
179.999999999997
 51
214.999999999999
  0
LINE
  8
3
  6
CONTINUOUS
 62
3
 10
2.6
 20
5.95826178719346
 30
0.0
 11
2.6
 21
6.24054010425501
 31
0.0
  0
ARC
  8
3
  6
CONTINUOUS
 62
3
 10
2.725
 20
6.24054010425501
 30
0.0
 40
0.125
 50
136.219851962806
 51
180
  0
ARC
  8
3
  6
CONTINUOUS
 62
3
 10
2.45425
 20
6.5
 30
0.0
 40
0.25
 50
316.219851962806
 51
43.7801480371933
  0
ARC
  8
3
  6
CONTINUOUS
 62
3
 10
2.725
 20
6.75945989574499
 30
0.0
 40
0.124999999999999
 50
179.999999999999
 51
223.780148037193
  0
LINE
  8
3
  6
CONTINUOUS
 62
3
 10
2.6
 20
6.75945989574499
 30
0.0
 11
2.6
 21
10.9264989321598
 31
0.0
  0
ARC
  8
3
  6
CONTINUOUS
 62
3
 10
2.72500000000001
 20
11.240540104255
 30
0.0
 40
0.125000000000007
 50
136.219851962807
 51
180
  0
ARC
  8
3
  6
CONTINUOUS
 62
3
 10
2.45425
 20
11.5
 30
0.0
 40
0.249999999999997
 50
316.219851962806
 51
43.7801480371936
  0
ARC
  8
3
  6
CONTINUOUS
 62
3
 10
2.72500000000001
 20
11.759459895745
 30
0.0
 40
0.125000000000005
 50
179.999999999998
 51
223.780148037192
  0
LINE
  8
3
  6
CONTINUOUS
 62
3
 10
2.6
 20
11.759459895745
 30
0.0
 11
2.6
 21
11.99
 31
0.0
  0
LINE
  8
3
  6
CONTINUOUS
 62
3
 10
4.30448976481729
 20
1.42029474459146
 30
0.0
 11
4.30639279886711
 21
1.36877343493056
 31
0.0
  0
LINE
  8
3
  6
CONTINUOUS
 62
3
 10
4.20578743049575
 20
1.40423706108857
 30
0.0
 11
4.22031407818359
 21
1.35476946164504
 31
0.0
  0
ARC
  8
3
  6
CONTINUOUS
 62
3
 10
4.21580546662334
 20
1.65403625834939
 30
0.0
 40
0.249999999999997
 50
290.7773383969
 51
305.000000000001
  0
LINE
  8
3
  6
CONTINUOUS
 62
3
 10
2.6
 20
11.0264989321598
 30
0.0
 11
2.65115831849295
 21
11.0201041423482
 31
0.0
  0
LINE
  8
3
  6
CONTINUOUS
 62
3
 10
2.6
 20
10.9264989321598
 30
0.0
 11
2.65115831849295
 21
10.9328937219714
 31
0.0
  0
LINE
  8
3
  6
CONTINUOUS
 62
3
 10
2.6
 20
11.0264989321598
 30
0.0
 11
2.6
 21
11.240540104255
 31
0.0
  0
LINE
  8
9
  6
CONTINUOUS
 62
9
 10
4.30639279886711
 20
1.36877343493056
 30
0.0
 11
4.31192954824206
 21
1.21887565507256
 31
0.0
  0
LINE
  8
9
  6
CONTINUOUS
 62
9
 10
4.22031407818359
 20
1.35476946164504
 30
0.0
 11
4.26257838108129
 21
1.21084681332112
 31
0.0
  0
LINE
  8
9
  6
CONTINUOUS
 62
9
 10
2.65115831849295
 20
11.0201041423482
 30
0.0
 11
2.8
 21
11.0014989321598
 31
0.0
  0
LINE
  8
9
  6
CONTINUOUS
 62
9
 10
2.65115831849295
 20
10.9328937219714
 30
0.0
 11
2.8
 21
10.9514989321598
 31
0.0
  0
ENDSEC
  0
EOF
