  0
SECTION
  2
HEADER
  9
$ACADVER
  1
AC1003
  9
$EXTMIN
 10
0.2830653242909
 20
6.34785009445518
  9
$EXTMAX
 10
7.82299769782089
 20
0.113257102724619
  9
$INSUNITS
 70
1
  9
$INSBASE
 10
4.0530315110559
 20
3.2305535985899
999
Created with OMAX LAYOUT for Windows. (www.omax.com) 3/21/2025
  0
ENDSEC
  0
SECTION
  2
TABLES
  0
TABLE
  2
LAYER
 70
    10
  0
LAYER
  2
0
 70
     0
 62
     7
  6
CONTINUOUS
  0
LAYER
  2
1
 70
     0
 62
     7
  6
CONTINUOUS
  0
LAYER
  2
2
 70
     0
 62
     7
  6
CONTINUOUS
  0
LAYER
  2
3
 70
     0
 62
     7
  6
CONTINUOUS
  0
LAYER
  2
4
 70
     0
 62
     7
  6
CONTINUOUS
  0
LAYER
  2
5
 70
     0
 62
     7
  6
CONTINUOUS
  0
LAYER
  2
6
 70
     0
 62
     7
  6
CONTINUOUS
  0
LAYER
  2
7
 70
     0
 62
     7
  6
CONTINUOUS
  0
LAYER
  2
8
 70
     0
 62
     7
  6
CONTINUOUS
  0
LAYER
  2
9
 70
     0
 62
     7
  6
CONTINUOUS
  0
LAYER
  2
10
 70
     0
 62
     7
  6
CONTINUOUS
  0
LAYER
  2
11
 70
     0
 62
     7
  6
CONTINUOUS
  0
LAYER
  2
12
 70
     0
 62
     7
  6
CONTINUOUS
  0
LAYER
  2
13
 70
     0
 62
     7
  6
CONTINUOUS
  0
LAYER
  2
14
 70
     0
 62
     7
  6
CONTINUOUS
  0
LAYER
  2
15
 70
     0
 62
     7
  6
CONTINUOUS
  0
LAYER
  2
16
 70
     0
 62
     7
  6
CONTINUOUS
  0
LAYER
  2
17
 70
     0
 62
     7
  6
CONTINUOUS
  0
LAYER
  2
18
 70
     0
 62
     7
  6
CONTINUOUS
  0
LAYER
  2
19
 70
     0
 62
     7
  6
CONTINUOUS
  0
LAYER
  2
20
 70
     0
 62
     7
  6
CONTINUOUS
  0
LAYER
  2
21
 70
     0
 62
     7
  6
CONTINUOUS
  0
LAYER
  2
22
 70
     0
 62
     7
  6
CONTINUOUS
  0
LAYER
  2
23
 70
     0
 62
     7
  6
CONTINUOUS
  0
LAYER
  2
24
 70
     0
 62
     7
  6
CONTINUOUS
  0
LAYER
  2
25
 70
     0
 62
     7
  6
CONTINUOUS
  0
LAYER
  2
26
 70
     0
 62
     7
  6
CONTINUOUS
  0
LAYER
  2
27
 70
     0
 62
     7
  6
CONTINUOUS
  0
LAYER
  2
28
 70
     0
 62
     7
  6
CONTINUOUS
  0
LAYER
  2
29
 70
     0
 62
     7
  6
CONTINUOUS
  0
LAYER
  2
30
 70
     0
 62
     7
  6
CONTINUOUS
  0
LAYER
  2
31
 70
     0
 62
     7
  6
CONTINUOUS
  0
ENDTAB
  0
ENDSEC
  0
SECTION
  2
ENTITIES
  0
LINE
  8
0
  6
CONTINUOUS
 62
0
 10
0.283071308932002
 20
0.233324147594191
 30
0.0
 11
6.88575218892985
 21
4.24801194955659
 31
0.0
  0
LINE
  8
0
  6
CONTINUOUS
 62
0
 10
6.92814721039856
 20
4.33889507055984
 30
0.0
 11
7.51041007300616
 21
5.12195055503393
 31
0.0
  0
LINE
  8
0
  6
CONTINUOUS
 62
0
 10
7.47161236591286
 20
5.12608820752674
 30
0.0
 11
6.82041146189505
 21
5.12355333281171
 31
0.0
  0
LINE
  8
0
  6
CONTINUOUS
 62
0
 10
6.78161375480175
 20
5.12769098530452
 30
0.0
 11
6.13335817632945
 21
5.12148769990593
 31
0.0
  0
LINE
  8
0
  6
CONTINUOUS
 62
0
 10
6.1273132562304
 20
5.1600343104553
 30
0.0
 11
6.13051171152451
 21
5.95024511025708
 31
0.0
  0
LINE
  8
0
  6
CONTINUOUS
 62
0
 10
6.16930941861781
 20
5.94610745776428
 30
0.0
 11
6.82050893374673
 21
5.94864094359041
 31
0.0
  0
LINE
  8
0
  6
CONTINUOUS
 62
0
 10
6.85930664084003
 20
5.94450329109761
 30
0.0
 11
7.51421801318527
 21
5.94811966870429
 31
0.0
  0
LINE
  8
0
  6
CONTINUOUS
 62
0
 10
7.53720017890272
 20
5.97965064240927
 30
0.0
 11
7.76223250513379
 21
6.21374608859916
 31
0.0
  0
LINE
  8
0
  6
CONTINUOUS
 62
0
 10
7.69740025310735
 20
6.13723557542741
 30
0.0
 11
7.7535276691069
 21
6.26776330217985
 31
0.0
  0
LINE
  8
0
  6
CONTINUOUS
 62
0
 10
7.7535276691069
 20
6.26776330217985
 30
0.0
 11
7.64494728736797
 21
6.31837109599277
 31
0.0
  0
LINE
  8
0
  6
CONTINUOUS
 62
0
 10
7.64494728736797
 20
6.31837109599277
 30
0.0
 11
7.5728926515774
 21
6.32815012393398
 31
0.0
  0
LINE
  8
0
  6
CONTINUOUS
 62
0
 10
7.5728926515774
 20
6.32815012393398
 30
0.0
 11
6.07230772853774
 21
6.33163759445519
 31
0.0
  0
LINE
  8
0
  6
CONTINUOUS
 62
0
 10
6.07230772853774
 20
6.33163759445519
 30
0.0
 11
5.98384018225558
 21
6.31741023600699
 31
0.0
  0
LINE
  8
0
  6
CONTINUOUS
 62
0
 10
5.98384018225558
 20
6.31741023600699
 30
0.0
 11
5.91346540834193
 21
6.28683976676386
 31
0.0
  0
LINE
  8
0
  6
CONTINUOUS
 62
0
 10
5.91346540834193
 20
6.28683976676386
 30
0.0
 11
5.87171093338074
 21
6.25729079776343
 31
0.0
  0
LINE
  8
0
  6
CONTINUOUS
 62
0
 10
5.87171093338074
 20
6.25729079776343
 30
0.0
 11
5.8236004687909
 21
6.20762331312834
 31
0.0
  0
LINE
  8
0
  6
CONTINUOUS
 62
0
 10
5.8236004687909
 20
6.20762331312834
 30
0.0
 11
5.80097915626253
 21
6.17339670682598
 31
0.0
  0
LINE
  8
0
  6
CONTINUOUS
 62
0
 10
5.80097915626253
 20
6.17339670682598
 30
0.0
 11
5.77414315870077
 21
6.10966833741414
 31
0.0
  0
LINE
  8
0
  6
CONTINUOUS
 62
0
 10
5.77414315870077
 20
6.10966833741414
 30
0.0
 11
5.00744941115207
 21
4.26422444955658
 31
0.0
  0
LINE
  8
0
  6
CONTINUOUS
 62
0
 10
5.04984443262078
 20
4.35510757055983
 30
0.0
 11
5.63210590633949
 21
5.13816305503393
 31
0.0
  0
LINE
  8
0
  6
CONTINUOUS
 62
0
 10
5.59330819924619
 20
5.14230070752674
 30
0.0
 11
4.94210868411727
 21
5.13976583281171
 31
0.0
  0
LINE
  8
0
  6
CONTINUOUS
 62
0
 10
4.90331097702397
 20
5.14390348530452
 30
0.0
 11
4.25505539855167
 21
5.13770019990593
 31
0.0
  0
LINE
  8
0
  6
CONTINUOUS
 62
0
 10
4.24901047845263
 20
5.1762468104553
 30
0.0
 11
4.25220754485784
 21
5.96645761025708
 31
0.0
  0
LINE
  8
0
  6
CONTINUOUS
 62
0
 10
4.29100525195114
 20
5.96231995776428
 30
0.0
 11
4.94220615596895
 21
5.96485344359041
 31
0.0
  0
LINE
  8
0
  6
CONTINUOUS
 62
0
 10
4.98100386306225
 20
5.96071579109761
 30
0.0
 11
5.6359138465186
 21
5.96433216870429
 31
0.0
  0
LINE
  8
0
  6
CONTINUOUS
 62
0
 10
5.65889601223605
 20
5.99586314240927
 30
0.0
 11
5.88392779623159
 21
6.22995911047986
 31
0.0
  0
LINE
  8
0
  6
CONTINUOUS
 62
0
 10
5.81909575363476
 20
6.1534484198455
 30
0.0
 11
5.87522266036928
 21
6.28397639621154
 31
0.0
  0
LINE
  8
0
  6
CONTINUOUS
 62
0
 10
5.87522266036928
 20
6.28397639621154
 30
0.0
 11
5.76664170587434
 21
6.33458393158465
 31
0.0
  0
LINE
  8
0
  6
CONTINUOUS
 62
0
 10
5.76664170587434
 20
6.33458393158465
 30
0.0
 11
5.69458780059259
 21
6.34436262875227
 31
0.0
  0
LINE
  8
0
  6
CONTINUOUS
 62
0
 10
5.69458780059259
 20
6.34436262875227
 30
0.0
 11
4.19400495075996
 21
6.34785009445518
 31
0.0
  0
LINE
  8
0
  6
CONTINUOUS
 62
0
 10
4.19400495075996
 20
6.34785009445518
 30
0.0
 11
4.10553748707756
 21
6.33362276373617
 31
0.0
  0
LINE
  8
0
  6
CONTINUOUS
 62
0
 10
4.10553748707756
 20
6.33362276373617
 30
0.0
 11
4.03516276724247
 21
6.30305235154774
 31
0.0
  0
LINE
  8
0
  6
CONTINUOUS
 62
0
 10
4.03516276724247
 20
6.30305235154774
 30
0.0
 11
3.99340831396589
 21
6.2735034353842
 31
0.0
  0
LINE
  8
0
  6
CONTINUOUS
 62
0
 10
3.99340831396589
 20
6.2735034353842
 30
0.0
 11
3.94529785633208
 21
6.22383603501558
 31
0.0
  0
LINE
  8
0
  6
CONTINUOUS
 62
0
 10
3.94529785633208
 20
6.22383603501558
 30
0.0
 11
3.92267653262308
 21
6.18960948270442
 31
0.0
  0
LINE
  8
0
  6
CONTINUOUS
 62
0
 10
3.92267653262308
 20
6.18960948270442
 30
0.0
 11
3.89584048839597
 21
6.12588120386879
 31
0.0
  0
LINE
  8
0
  6
CONTINUOUS
 62
0
 10
3.89584048839597
 20
6.12588120386879
 30
0.0
 11
3.72695099356763
 21
5.12680377436449
 31
0.0
  0
LINE
  8
0
  6
CONTINUOUS
 62
0
 10
3.70396882785018
 20
5.09527280065951
 30
0.0
 11
3.04401452098066
 21
4.27406298654909
 31
0.0
  0
LINE
  8
0
  6
CONTINUOUS
 62
0
 10
3.03528812606493
 20
4.37396758884748
 30
0.0
 11
3.04066285078394
 21
5.12948944392282
 31
0.0
  0
LINE
  8
0
  6
CONTINUOUS
 62
0
 10
3.00186514369064
 20
5.13362709641563
 30
0.0
 11
2.35361095410723
 21
5.12742242212815
 31
0.0
  0
LINE
  8
0
  6
CONTINUOUS
 62
0
 10
2.34756603400818
 20
5.16596903267752
 30
0.0
 11
2.3507631004134
 21
5.9561798324793
 31
0.0
  0
LINE
  8
0
  6
CONTINUOUS
 62
0
 10
2.3895608075067
 20
5.9520421799865
 30
0.0
 11
3.04076171152452
 21
5.95457705470152
 31
0.0
  0
LINE
  8
0
  6
CONTINUOUS
 62
0
 10
3.07955941861781
 20
5.95043940220872
 30
0.0
 11
3.73446940207416
 21
5.95405439092651
 31
0.0
  0
LINE
  8
0
  6
CONTINUOUS
 62
0
 10
3.75745156779161
 20
5.9855853646315
 30
0.0
 11
3.98248384866741
 21
6.21968224336309
 31
0.0
  0
LINE
  8
0
  6
CONTINUOUS
 62
0
 10
3.9176516141587
 20
6.14317171534745
 30
0.0
 11
3.98031157401479
 21
6.26957290711012
 31
0.0
  0
LINE
  8
0
  6
CONTINUOUS
 62
0
 10
3.98031157401479
 20
6.26957290711012
 30
0.0
 11
3.88235603262597
 21
6.31902826702679
 31
0.0
  0
LINE
  8
0
  6
CONTINUOUS
 62
0
 10
3.88235603262597
 20
6.31902826702679
 30
0.0
 11
3.79314389722838
 21
6.33408623564813
 31
0.0
  0
LINE
  8
0
  6
CONTINUOUS
 62
0
 10
3.79314389722838
 20
6.33408623564813
 30
0.0
 11
2.29255768009114
 21
6.33757302091807
 31
0.0
  0
LINE
  8
0
  6
CONTINUOUS
 62
0
 10
2.29255768009114
 20
6.33757302091807
 30
0.0
 11
2.20408717125603
 21
6.32334398145364
 31
0.0
  0
LINE
  8
0
  6
CONTINUOUS
 62
0
 10
2.20408717125603
 20
6.32334398145364
 30
0.0
 11
2.13371357152514
 21
6.29277249192415
 31
0.0
  0
LINE
  8
0
  6
CONTINUOUS
 62
0
 10
2.13371357152514
 20
6.29277249192415
 30
0.0
 11
2.09195994800338
 21
6.2632230935433
 31
0.0
  0
LINE
  8
0
  6
CONTINUOUS
 62
0
 10
2.09195994800338
 20
6.2632230935433
 30
0.0
 11
2.04385064119467
 21
6.21355533093133
 31
0.0
  0
LINE
  8
0
  6
CONTINUOUS
 62
0
 10
2.04385064119467
 20
6.21355533093133
 30
0.0
 11
2.02122997844882
 21
6.1793287271131
 31
0.0
  0
LINE
  8
0
  6
CONTINUOUS
 62
0
 10
2.02122997844882
 20
6.1793287271131
 30
0.0
 11
1.99439495117657
 21
6.11560060650852
 31
0.0
  0
LINE
  8
0
  6
CONTINUOUS
 62
0
 10
1.99439495117657
 20
6.11560060650852
 30
0.0
 11
1.22770080004096
 21
4.27015917177881
 31
0.0
  0
LINE
  8
0
  6
CONTINUOUS
 62
0
 10
1.27009582150967
 20
4.36104229278206
 30
0.0
 11
1.85235868411727
 21
5.14409777725615
 31
0.0
  0
LINE
  8
0
  6
CONTINUOUS
 62
0
 10
1.81356097702397
 20
5.14823542974896
 30
0.0
 11
1.16236007300616
 21
5.14570194392282
 31
0.0
  0
LINE
  8
0
  6
CONTINUOUS
 62
0
 10
1.12356236591286
 20
5.14983959641563
 30
0.0
 11
0.475308176329448
 21
5.14363492212816
 31
0.0
  0
LINE
  8
0
  6
CONTINUOUS
 62
0
 10
0.469263256230402
 20
5.18218153267753
 30
0.0
 11
0.472460322635624
 21
5.9723923324793
 31
0.0
  0
LINE
  8
0
  6
CONTINUOUS
 62
0
 10
0.51125802972892
 20
5.9682546799865
 30
0.0
 11
1.16245754485784
 21
5.97078955470152
 31
0.0
  0
LINE
  8
0
  6
CONTINUOUS
 62
0
 10
1.20125525195114
 20
5.96665190220872
 30
0.0
 11
1.85616662429638
 21
5.97026689092651
 31
0.0
  0
LINE
  8
0
  6
CONTINUOUS
 62
0
 10
1.87914879001383
 20
6.00179786463149
 30
0.0
 11
2.10306000453948
 21
6.236972081658
 31
0.0
  0
LINE
  8
0
  6
CONTINUOUS
 62
0
 10
2.03866137386272
 20
6.16009623437433
 30
0.0
 11
2.15064925192712
 21
6.23886316482664
 31
0.0
  0
LINE
  8
0
  6
CONTINUOUS
 62
0
 10
2.15064925192712
 20
6.23886316482664
 30
0.0
 11
2.21159725527378
 21
6.12615324965156
 31
0.0
  0
LINE
  8
0
  6
CONTINUOUS
 62
0
 10
2.21159725527378
 20
6.12615324965156
 30
0.0
 11
2.22602640551965
 21
6.03685474714074
 31
0.0
  0
LINE
  8
0
  6
CONTINUOUS
 62
0
 10
2.22602640551965
 20
6.03685474714074
 30
0.0
 11
2.2180995395028
 21
4.07788672239172
 31
0.0
  0
LINE
  8
0
  6
CONTINUOUS
 62
0
 10
2.2180995395028
 20
4.07788672239172
 30
0.0
 11
2.20825515105298
 21
3.99785659196961
 31
0.0
  0
LINE
  8
0
  6
CONTINUOUS
 62
0
 10
2.20825515105298
 20
3.99785659196961
 30
0.0
 11
2.1823059785662
 21
3.87864439304658
 31
0.0
  0
LINE
  8
0
  6
CONTINUOUS
 62
0
 10
2.1823059785662
 20
3.87864439304658
 30
0.0
 11
1.56657577617043
 21
1.41975505580792
 31
0.0
  0
LINE
  8
0
  6
CONTINUOUS
 62
0
 10
1.56670125185323
 20
1.40017818890283
 30
0.0
 11
1.4632236709833
 21
0.706102393184852
 31
0.0
  0
LINE
  8
0
  6
CONTINUOUS
 62
0
 10
1.44364680407822
 20
0.705976917502054
 30
0.0
 11
0.749285288215276
 21
0.808723123277984
 31
0.0
  0
LINE
  8
0
  6
CONTINUOUS
 62
0
 10
0.754230954011164
 20
0.827665400115838
 30
0.0
 11
1.04181864387811
 21
1.32906740402876
 31
0.0
  0
LINE
  8
0
  6
CONTINUOUS
 62
0
 10
0.984312582473493
 20
1.41122659359604
 30
0.0
 11
0.856205522497056
 21
1.52758664402847
 31
0.0
  0
LINE
  8
0
  6
CONTINUOUS
 62
0
 10
0.842273862447901
 20
1.54134085466526
 30
0.0
 11
0.474208176329448
 21
2.09369881101704
 31
0.0
  0
LINE
  8
0
  6
CONTINUOUS
 62
0
 10
0.468163256230404
 20
2.13224542156641
 30
0.0
 11
0.471360322635624
 21
2.92245622136819
 31
0.0
  0
LINE
  8
0
  6
CONTINUOUS
 62
0
 10
0.51015802972892
 20
2.91831856887539
 30
0.0
 11
1.15841221931233
 21
2.92452185427396
 31
0.0
  0
LINE
  8
0
  6
CONTINUOUS
 62
0
 10
1.16445713941138
 20
2.88597524372459
 30
0.0
 11
1.15942282263562
 21
2.08825622136819
 31
0.0
  0
LINE
  8
0
  6
CONTINUOUS
 62
0
 10
1.19822052972892
 20
2.08411856887539
 30
0.0
 11
1.85420400966278
 21
2.09049047768371
 31
0.0
  0
LINE
  8
0
  6
CONTINUOUS
 62
0
 10
1.84815908956373
 20
2.12903708823308
 30
0.0
 11
1.85506662429638
 21
2.92033077981541
 31
0.0
  0
LINE
  8
0
  6
CONTINUOUS
 62
0
 10
1.87804879001383
 20
2.95186175352039
 30
0.0
 11
2.10215378448534
 21
3.18685065863031
 31
0.0
  0
LINE
  8
0
  6
CONTINUOUS
 62
0
 10
2.03768061882502
 20
3.1100373105822
 30
0.0
 11
2.37245597949347
 21
2.09687327419829
 31
0.0
  0
LINE
  8
0
  6
CONTINUOUS
 62
0
 10
2.38827152086932
 20
2.0612046480005
 30
0.0
 11
2.65175783576959
 21
0.811589105439488
 31
0.0
  0
LINE
  8
0
  6
CONTINUOUS
 62
0
 10
2.67133470267468
 20
0.811714581122287
 30
0.0
 11
3.3712515639158
 21
0.706810053927537
 31
0.0
  0
LINE
  8
0
  6
CONTINUOUS
 62
0
 10
3.371126088233
 20
0.726386920832627
 30
0.0
 11
3.47447640484132
 21
1.42626829282873
 31
0.0
  0
LINE
  8
0
  6
CONTINUOUS
 62
0
 10
3.4575850786164
 20
1.41637119424732
 30
0.0
 11
2.94764086610033
 21
1.33340907069542
 31
0.0
  0
LINE
  8
0
  6
CONTINUOUS
 62
0
 10
2.89013480469572
 20
1.41556826026271
 30
0.0
 11
2.76209362154861
 21
1.52892312327799
 31
0.0
  0
LINE
  8
0
  6
CONTINUOUS
 62
0
 10
2.76703928734449
 20
1.54786540011584
 30
0.0
 11
3.06524504485784
 21
2.09259788803485
 31
0.0
  0
LINE
  8
0
  6
CONTINUOUS
 62
0
 10
3.10404275195114
 20
2.08846023554205
 30
0.0
 11
3.760026231885
 21
2.09483353323927
 31
0.0
  0
LINE
  8
0
  6
CONTINUOUS
 62
0
 10
3.75398131178596
 20
2.13338014378864
 30
0.0
 11
3.75901562856171
 21
2.93109916614504
 31
0.0
  0
LINE
  8
0
  6
CONTINUOUS
 62
0
 10
3.72021792146842
 20
2.93523681863784
 30
0.0
 11
3.0690170174506
 21
2.93270194392282
 31
0.0
  0
LINE
  8
0
  6
CONTINUOUS
 62
0
 10
3.03021931035731
 20
2.93683959641562
 30
0.0
 11
2.38077377842877
 21
2.93334384245432
 31
0.0
  0
LINE
  8
0
  6
CONTINUOUS
 62
0
 10
2.34924280472379
 20
2.95632600817177
 30
0.0
 11
2.12016230047867
 21
3.18634774319227
 31
0.0
  0
LINE
  8
0
  6
CONTINUOUS
 62
0
 10
2.19667150602286
 20
3.12151394802632
 30
0.0
 11
2.11838199503529
 21
3.23384377395723
 31
0.0
  0
LINE
  8
0
  6
CONTINUOUS
 62
0
 10
2.11838199503529
 20
3.23384377395723
 30
0.0
 11
2.23051113467793
 21
3.29396305376361
 31
0.0
  0
LINE
  8
0
  6
CONTINUOUS
 62
0
 10
2.23051113467793
 20
3.29396305376361
 30
0.0
 11
2.31897856187106
 21
3.30819037223296
 31
0.0
  0
LINE
  8
0
  6
CONTINUOUS
 62
0
 10
2.31897856187106
 20
3.30819037223296
 30
0.0
 11
3.81956348491572
 21
3.30470290171175
 31
0.0
  0
LINE
  8
0
  6
CONTINUOUS
 62
0
 10
3.81956348491572
 20
3.30470290171175
 30
0.0
 11
3.89161886375027
 21
3.29492353762983
 31
0.0
  0
LINE
  8
0
  6
CONTINUOUS
 62
0
 10
3.89161886375027
 20
3.29492353762983
 30
0.0
 11
3.95639863825667
 21
3.27073701749623
 31
0.0
  0
LINE
  8
0
  6
CONTINUOUS
 62
0
 10
3.95639863825667
 20
3.27073701749623
 30
0.0
 11
4.00019866637693
 21
3.24431547915649
 31
0.0
  0
LINE
  8
0
  6
CONTINUOUS
 62
0
 10
4.00019866637693
 20
3.24431547915649
 30
0.0
 11
4.05639911478194
 21
3.19207959683771
 31
0.0
  0
LINE
  8
0
  6
CONTINUOUS
 62
0
 10
4.05639911478194
 20
3.19207959683771
 30
0.0
 11
4.08594860149215
 21
3.1503259384742
 31
0.0
  0
LINE
  8
0
  6
CONTINUOUS
 62
0
 10
4.08594860149215
 20
3.1503259384742
 30
0.0
 11
4.11652018716559
 21
3.07995225055068
 31
0.0
  0
LINE
  8
0
  6
CONTINUOUS
 62
0
 10
4.11652018716559
 20
3.07995225055068
 30
0.0
 11
4.13074862774114
 21
2.99125960804065
 31
0.0
  0
LINE
  8
0
  6
CONTINUOUS
 62
0
 10
4.13074862774114
 20
2.99125960804065
 30
0.0
 11
4.24638097949347
 21
2.0865968853094
 31
0.0
  0
LINE
  8
0
  6
CONTINUOUS
 62
0
 10
4.26219652086932
 20
2.05092825911161
 30
0.0
 11
4.52568422465848
 21
0.8013127165506
 31
0.0
  0
LINE
  8
0
  6
CONTINUOUS
 62
0
 10
4.54526109156357
 20
0.801438192233398
 30
0.0
 11
5.24517795280468
 21
0.696532276149759
 31
0.0
  0
LINE
  8
0
  6
CONTINUOUS
 62
0
 10
5.24505247712188
 20
0.716109143054844
 30
0.0
 11
5.34840279373021
 21
1.41599190393984
 31
0.0
  0
LINE
  8
0
  6
CONTINUOUS
 62
0
 10
5.33151146750529
 20
1.40609480535844
 30
0.0
 11
4.82156586610033
 21
1.32313268180653
 31
0.0
  0
LINE
  8
0
  6
CONTINUOUS
 62
0
 10
4.76405980469572
 20
1.40529187137381
 30
0.0
 11
4.6360200104375
 21
1.5186467343891
 31
0.0
  0
LINE
  8
0
  6
CONTINUOUS
 62
0
 10
4.64096567623338
 20
1.53758901122695
 30
0.0
 11
4.93917143374673
 21
2.08232149914597
 31
0.0
  0
LINE
  8
0
  6
CONTINUOUS
 62
0
 10
4.97796914084003
 20
2.07818384665317
 30
0.0
 11
5.633951231885
 21
2.08455575546149
 31
0.0
  0
LINE
  8
0
  6
CONTINUOUS
 62
0
 10
5.62790631178596
 20
2.12310236601086
 30
0.0
 11
5.6329420174506
 21
2.92082138836726
 31
0.0
  0
LINE
  8
0
  6
CONTINUOUS
 62
0
 10
5.59414431035731
 20
2.92495904086006
 30
0.0
 11
4.94294340633949
 21
2.92242555503393
 31
0.0
  0
LINE
  8
0
  6
CONTINUOUS
 62
0
 10
4.90414569924619
 20
2.92656320752673
 30
0.0
 11
4.25469877842877
 21
2.92306606467655
 31
0.0
  0
LINE
  8
0
  6
CONTINUOUS
 62
0
 10
4.22316780472379
 20
2.946048230394
 30
0.0
 11
3.99408814464626
 21
3.17606939931357
 31
0.0
  0
LINE
  8
0
  6
CONTINUOUS
 62
0
 10
4.07059753547158
 20
3.11123582279521
 30
0.0
 11
3.99230778271996
 21
3.22356547636436
 31
0.0
  0
LINE
  8
0
  6
CONTINUOUS
 62
0
 10
3.99230778271996
 20
3.22356547636436
 30
0.0
 11
4.10443721295513
 21
3.28368517248736
 31
0.0
  0
LINE
  8
0
  6
CONTINUOUS
 62
0
 10
4.10443721295513
 20
3.28368517248736
 30
0.0
 11
4.19290495075996
 21
3.29791259445519
 31
0.0
  0
LINE
  8
0
  6
CONTINUOUS
 62
0
 10
4.19290495075996
 20
3.29791259445519
 30
0.0
 11
5.69373187120142
 21
3.2944245615141
 31
0.0
  0
LINE
  8
0
  6
CONTINUOUS
 62
0
 10
5.69373187120142
 20
3.2944245615141
 30
0.0
 11
5.78317417389006
 21
3.27922808945721
 31
0.0
  0
LINE
  8
0
  6
CONTINUOUS
 62
0
 10
5.78317417389006
 20
3.27922808945721
 30
0.0
 11
5.84678524331481
 21
3.25233337344326
 31
0.0
  0
LINE
  8
0
  6
CONTINUOUS
 62
0
 10
5.84678524331481
 20
3.25233337344326
 30
0.0
 11
5.88094215632895
 21
3.22969862044872
 31
0.0
  0
LINE
  8
0
  6
CONTINUOUS
 62
0
 10
5.88094215632895
 20
3.22969862044872
 30
0.0
 11
5.93050128892407
 21
3.1815988670268
 31
0.0
  0
LINE
  8
0
  6
CONTINUOUS
 62
0
 10
5.93050128892407
 20
3.1815988670268
 30
0.0
 11
5.95998269030489
 21
3.13987363658348
 31
0.0
  0
LINE
  8
0
  6
CONTINUOUS
 62
0
 10
5.95998269030489
 20
3.13987363658348
 30
0.0
 11
5.99048099647534
 21
3.06957037311136
 31
0.0
  0
LINE
  8
0
  6
CONTINUOUS
 62
0
 10
5.99048099647534
 20
3.06957037311136
 30
0.0
 11
6.15220320171569
 21
2.09093855197607
 31
0.0
  0
LINE
  8
0
  6
CONTINUOUS
 62
0
 10
6.16801874309154
 20
2.05526992577828
 30
0.0
 11
6.4315064468807
 21
0.805654383217266
 31
0.0
  0
LINE
  8
0
  6
CONTINUOUS
 62
0
 10
6.45108331378579
 20
0.805779858900065
 30
0.0
 11
7.15100017502691
 21
0.700873942816425
 31
0.0
  0
LINE
  8
0
  6
CONTINUOUS
 62
0
 10
7.15087469934411
 20
0.720450809721516
 30
0.0
 11
7.25422501595243
 21
1.4203335706065
 31
0.0
  0
LINE
  8
0
  6
CONTINUOUS
 62
0
 10
7.23733368972751
 20
1.4104364720251
 30
0.0
 11
6.72738808832256
 21
1.3274743484732
 31
0.0
  0
LINE
  8
0
  6
CONTINUOUS
 62
0
 10
6.66988202691794
 20
1.40963353804048
 30
0.0
 11
6.54184223265972
 21
1.52298840105576
 31
0.0
  0
LINE
  8
0
  6
CONTINUOUS
 62
0
 10
6.54678789845561
 20
1.54193067789361
 30
0.0
 11
6.84499365596895
 21
2.08666316581263
 31
0.0
  0
LINE
  8
0
  6
CONTINUOUS
 62
0
 10
6.88379136306225
 20
2.08252551331983
 30
0.0
 11
7.53977345410722
 21
2.08889742212816
 31
0.0
  0
LINE
  8
0
  6
CONTINUOUS
 62
0
 10
7.53372853400817
 20
2.12744403267752
 30
0.0
 11
7.53876423967282
 21
2.92516305503393
 31
0.0
  0
LINE
  8
0
  6
CONTINUOUS
 62
0
 10
7.49996653257953
 20
2.92930070752673
 30
0.0
 11
6.84876562856172
 21
2.9267672217006
 31
0.0
  0
LINE
  8
0
  6
CONTINUOUS
 62
0
 10
6.80996792146842
 20
2.9309048741934
 30
0.0
 11
6.16052100065099
 21
2.92740773134321
 31
0.0
  0
LINE
  8
0
  6
CONTINUOUS
 62
0
 10
6.12899002694601
 20
2.95038989706066
 30
0.0
 11
5.89991051770898
 21
3.1804112236738
 31
0.0
  0
LINE
  8
0
  6
CONTINUOUS
 62
0
 10
5.97641985692303
 20
3.11557758624959
 30
0.0
 11
5.90216057787844
 21
3.14377843240504
 31
0.0
  0
LINE
  8
0
  6
CONTINUOUS
 62
0
 10
5.90216057787844
 20
3.14377843240504
 30
0.0
 11
5.86164865414356
 21
3.06706609656443
 31
0.0
  0
LINE
  8
0
  6
CONTINUOUS
 62
0
 10
5.86164865414356
 20
3.06706609656443
 30
0.0
 11
5.84800287397417
 21
2.99092439330661
 31
0.0
  0
LINE
  8
0
  6
CONTINUOUS
 62
0
 10
5.84800287397417
 20
2.99092439330661
 30
0.0
 11
5.84391907816809
 21
1.10673313578476
 31
0.0
  0
LINE
  8
0
  6
CONTINUOUS
 62
0
 10
5.84391907816809
 20
1.10673313578476
 30
0.0
 11
5.85440494086821
 21
0.967732319535894
 31
0.0
  0
LINE
  8
0
  6
CONTINUOUS
 62
0
 10
5.85440494086821
 20
0.967732319535894
 30
0.0
 11
5.88412295444024
 21
0.831541204173142
 31
0.0
  0
LINE
  8
0
  6
CONTINUOUS
 62
0
 10
5.88412295444024
 20
0.831541204173142
 30
0.0
 11
5.93249535802633
 21
0.700807540544676
 31
0.0
  0
LINE
  8
0
  6
CONTINUOUS
 62
0
 10
5.93249535802633
 20
0.700807540544676
 30
0.0
 11
5.98939776979939
 21
0.592886062448177
 31
0.0
  0
LINE
  8
0
  6
CONTINUOUS
 62
0
 10
5.98939776979939
 20
0.592886062448177
 30
0.0
 11
6.03004665827671
 21
0.530929719266333
 31
0.0
  0
LINE
  8
0
  6
CONTINUOUS
 62
0
 10
6.03004665827671
 20
0.530929719266333
 30
0.0
 11
6.12802626574096
 21
0.414135108597652
 31
0.0
  0
LINE
  8
0
  6
CONTINUOUS
 62
0
 10
6.12802626574096
 20
0.414135108597652
 30
0.0
 11
6.23208614154692
 21
0.321384246166809
 31
0.0
  0
LINE
  8
0
  6
CONTINUOUS
 62
0
 10
6.23208614154692
 20
0.321384246166809
 30
0.0
 11
6.34803550334704
 21
0.244009019300835
 31
0.0
  0
LINE
  8
0
  6
CONTINUOUS
 62
0
 10
6.34803550334704
 20
0.244009019300835
 30
0.0
 11
6.47362012904885
 21
0.183513713518037
 31
0.0
  0
LINE
  8
0
  6
CONTINUOUS
 62
0
 10
6.47362012904885
 20
0.183513713518037
 30
0.0
 11
6.60639847319371
 21
0.141074444431901
 31
0.0
  0
LINE
  8
0
  6
CONTINUOUS
 62
0
 10
6.60639847319371
 20
0.141074444431901
 30
0.0
 11
6.72646304763918
 21
0.119408160409185
 31
0.0
  0
LINE
  8
0
  6
CONTINUOUS
 62
0
 10
6.72646304763918
 20
0.119408160409185
 30
0.0
 11
6.80030805481142
 21
0.113257102724619
 31
0.0
  0
LINE
  8
0
  6
CONTINUOUS
 62
0
 10
6.80030805481142
 20
0.113257102724619
 30
0.0
 11
6.95266849080997
 21
0.118480329929151
 31
0.0
  0
LINE
  8
0
  6
CONTINUOUS
 62
0
 10
6.95266849080997
 20
0.118480329929151
 30
0.0
 11
7.82299769782089
 21
0.233324147594191
 31
0.0
  0
ARC
  8
3
  6
CONTINUOUS
 62
3
 10
6.81722400815981
 20
4.14239019379425
 30
0.0
 40
0.275592282583022
 50
60.0021656436224
 51
180.000721884637
  0
ARC
  8
3
  6
CONTINUOUS
 62
3
 10
6.81722200337645
 20
4.14239366597884
 30
0.0
 40
0.275590277865275
 50
180.001443764129
 51
0.00144376412983313
  0
ARC
  8
3
  6
CONTINUOUS
 62
3
 10
6.81722801726588
 20
4.14239713830158
 30
0.0
 40
0.275584263910222
 50
0.000721876919994061
 51
60.0021656513399
  0
ARC
  8
3
  6
CONTINUOUS
 62
3
 10
7.50949144779068
 20
5.11819644376059
 30
0.0
 40
0.0885833333031259
 50
164.999999997427
 51
180.000000002571
  0
ARC
  8
3
  6
CONTINUOUS
 62
3
 10
7.50949144782089
 20
5.11819644375662
 30
0.0
 40
0.0885833333333359
 50
179.999999999999
 51
359.999999999999
  0
ARC
  8
3
  6
CONTINUOUS
 62
3
 10
7.50949144782194
 20
5.11819644376457
 30
0.0
 40
0.0885833333322885
 50
359.999999994855
 51
165.000000005145
  0
ARC
  8
3
  6
CONTINUOUS
 62
3
 10
6.81949283667957
 20
5.11979922153837
 30
0.0
 40
0.088583333303125
 50
164.999999997426
 51
180.000000002571
  0
ARC
  8
3
  6
CONTINUOUS
 62
3
 10
6.81949283670978
 20
5.1197992215344
 30
0.0
 40
0.088583333333335
 50
179.999999999999
 51
359.999999999999
  0
ARC
  8
3
  6
CONTINUOUS
 62
3
 10
6.81949283671083
 20
5.11979922154235
 30
0.0
 40
0.0885833333322876
 50
359.999999994855
 51
165.000000005145
  0
ARC
  8
3
  6
CONTINUOUS
 62
3
 10
6.12949422559271
 20
5.12140338820702
 30
0.0
 40
0.0885833333273692
 50
89.9999999961411
 51
180.000000003859
  0
ARC
  8
3
  6
CONTINUOUS
 62
3
 10
6.12949422559867
 20
5.12140338820106
 30
0.0
 40
0.088583333333335
 50
179.999999999999
 51
359.999999999999
  0
ARC
  8
3
  6
CONTINUOUS
 62
3
 10
6.12949422560464
 20
5.12140338820702
 30
0.0
 40
0.0885833333273692
 50
359.999999996141
 51
90.0000000038585
  0
ARC
  8
3
  6
CONTINUOUS
 62
3
 10
6.1314303367702
 20
5.95399922152644
 30
0.0
 40
0.0885833332729148
 50
344.999999994854
 51
5.14383634329593E-9
  0
ARC
  8
3
  6
CONTINUOUS
 62
3
 10
6.13143033670978
 20
5.9539992215344
 30
0.0
 40
0.088583333333335
 50
359.999999999999
 51
180
  0
ARC
  8
3
  6
CONTINUOUS
 62
3
 10
6.13143033670926
 20
5.95399922153042
 30
0.0
 40
0.0885833333328112
 50
179.999999997427
 51
345.000000002572
  0
ARC
  8
3
  6
CONTINUOUS
 62
3
 10
6.82142755899242
 20
5.95239505485977
 30
0.0
 40
0.0885833332729148
 50
344.999999994854
 51
5.14383634329593E-9
  0
ARC
  8
3
  6
CONTINUOUS
 62
3
 10
6.821427558932
 20
5.95239505486773
 30
0.0
 40
0.088583333333335
 50
359.999999999999
 51
180
  0
ARC
  8
3
  6
CONTINUOUS
 62
3
 10
6.82142755893148
 20
5.95239505486375
 30
0.0
 40
0.0885833333328112
 50
179.999999997427
 51
345.000000002572
  0
ARC
  8
3
  6
CONTINUOUS
 62
3
 10
7.51142617004146
 20
5.95079227709392
 30
0.0
 40
0.0885833333316886
 50
44.9999999974274
 51
180.000000002572
  0
ARC
  8
3
  6
CONTINUOUS
 62
3
 10
7.51142617004311
 20
5.95079227708994
 30
0.0
 40
0.0885833333333359
 50
179.999999999999
 51
359.999999999999
  0
ARC
  8
3
  6
CONTINUOUS
 62
3
 10
7.51142617006232
 20
5.9507922770979
 30
0.0
 40
0.0885833333141322
 50
359.999999994854
 51
45.0000000051446
  0
ARC
  8
3
  6
CONTINUOUS
 62
3
 10
7.57157851331316
 20
6.01565225631708
 30
0.0
 40
0.125001460165119
 50
359.868103328979
 51
44.7327435115939
  0
LINE
  8
3
  6
CONTINUOUS
 62
3
 10
7.69657964226533
 20
6.01536449931217
 30
0.0
 11
7.69221434209015
 21
4.13766926085605
 31
0.0
  0
ARC
  8
3
  6
CONTINUOUS
 62
3
 10
6.81721907385093
 20
4.14119356241697
 30
0.0
 40
0.875002365792529
 50
179.787998923931
 51
359.769225594073
  0
LINE
  8
3
  6
CONTINUOUS
 62
3
 10
5.94222269782089
 20
4.14443116597884
 30
0.0
 11
5.94658309552702
 21
6.02001737013722
 31
0.0
  0
ARC
  8
3
  6
CONTINUOUS
 62
3
 10
6.07158145533316
 20
6.01913697824088
 30
0.0
 40
0.125001460167932
 50
89.866841234911
 51
179.596459457745
  0
LINE
  8
3
  6
CONTINUOUS
 62
3
 10
6.07187196582499
 20
6.14413810082692
 30
0.0
 11
7.57245688886469
 21
6.14065063031132
 31
0.0
  0
ARC
  8
3
  6
CONTINUOUS
 62
3
 10
7.57157851330638
 20
6.01565225631993
 30
0.0
 40
0.125001460167925
 50
44.7327435084782
 51
89.5973836910923
  0
ARC
  8
3
  6
CONTINUOUS
 62
3
 10
4.93892123038204
 20
4.15860269379425
 30
0.0
 40
0.275592282583016
 50
60.0021656436223
 51
180.000721884637
  0
ARC
  8
3
  6
CONTINUOUS
 62
3
 10
4.93891922559867
 20
4.15860616597884
 30
0.0
 40
0.275590277865269
 50
180.001443764129
 51
0.00144376412983313
  0
ARC
  8
3
  6
CONTINUOUS
 62
3
 10
4.9389252394881
 20
4.15860963830158
 30
0.0
 40
0.275584263910215
 50
0.000721876919943172
 51
60.0021656513398
  0
ARC
  8
3
  6
CONTINUOUS
 62
3
 10
5.63118728112401
 20
5.13440894376059
 30
0.0
 40
0.088583333303125
 50
164.999999997426
 51
180.000000002571
  0
ARC
  8
3
  6
CONTINUOUS
 62
3
 10
5.63118728115422
 20
5.13440894375662
 30
0.0
 40
0.088583333333335
 50
179.999999999999
 51
359.999999999999
  0
ARC
  8
3
  6
CONTINUOUS
 62
3
 10
5.63118728115527
 20
5.13440894376457
 30
0.0
 40
0.0885833333322876
 50
359.999999994855
 51
165.000000005145
  0
ARC
  8
3
  6
CONTINUOUS
 62
3
 10
4.94119005890179
 20
5.13601172153837
 30
0.0
 40
0.088583333303125
 50
164.999999997426
 51
180.000000002571
  0
ARC
  8
3
  6
CONTINUOUS
 62
3
 10
4.941190058932
 20
5.1360117215344
 30
0.0
 40
0.088583333333335
 50
179.999999999999
 51
359.999999999999
  0
ARC
  8
3
  6
CONTINUOUS
 62
3
 10
4.94119005893305
 20
5.13601172154235
 30
0.0
 40
0.0885833333322876
 50
359.999999994855
 51
165.000000005145
  0
ARC
  8
3
  6
CONTINUOUS
 62
3
 10
4.25119144781493
 20
5.13761588820702
 30
0.0
 40
0.0885833333273692
 50
89.9999999961411
 51
180.000000003859
  0
ARC
  8
3
  6
CONTINUOUS
 62
3
 10
4.25119144782089
 20
5.13761588820106
 30
0.0
 40
0.088583333333335
 50
179.999999999999
 51
359.999999999999
  0
ARC
  8
3
  6
CONTINUOUS
 62
3
 10
4.25119144782686
 20
5.13761588820702
 30
0.0
 40
0.0885833333273692
 50
359.999999996141
 51
90.0000000038585
  0
ARC
  8
3
  6
CONTINUOUS
 62
3
 10
4.25312617010353
 20
5.97021172152644
 30
0.0
 40
0.0885833332729148
 50
344.999999994854
 51
5.14383634329593E-9
  0
ARC
  8
3
  6
CONTINUOUS
 62
3
 10
4.25312617004311
 20
5.9702117215344
 30
0.0
 40
0.088583333333335
 50
359.999999999999
 51
180
  0
ARC
  8
3
  6
CONTINUOUS
 62
3
 10
4.25312617004259
 20
5.97021172153042
 30
0.0
 40
0.0885833333328112
 50
179.999999997427
 51
345.000000002572
  0
ARC
  8
3
  6
CONTINUOUS
 62
3
 10
4.94312478121464
 20
5.96860755485978
 30
0.0
 40
0.0885833332729146
 50
344.999999994851
 51
5.14169742027265E-9
  0
ARC
  8
3
  6
CONTINUOUS
 62
3
 10
4.94312478115422
 20
5.96860755486773
 30
0.0
 40
0.0885833333333346
 50
359.999999999999
 51
180
  0
ARC
  8
3
  6
CONTINUOUS
 62
3
 10
4.9431247811537
 20
5.96860755486375
 30
0.0
 40
0.0885833333328103
 50
179.999999997427
 51
345.000000002572
  0
ARC
  8
3
  6
CONTINUOUS
 62
3
 10
5.6331220033748
 20
5.96700477709392
 30
0.0
 40
0.0885833333316823
 50
44.9999999974274
 51
180.000000002572
  0
ARC
  8
3
  6
CONTINUOUS
 62
3
 10
5.63312200337645
 20
5.96700477708994
 30
0.0
 40
0.0885833333333297
 50
179.999999999999
 51
359.999999999999
  0
ARC
  8
3
  6
CONTINUOUS
 62
3
 10
5.63312200339565
 20
5.9670047770979
 30
0.0
 40
0.088583333314126
 50
359.999999994854
 51
45.0000000051447
  0
ARC
  8
3
  6
CONTINUOUS
 62
3
 10
5.69327434664653
 20
6.03186475632847
 30
0.0
 40
0.125001460165116
 50
359.868103323756
 51
44.7329003451921
  0
LINE
  8
3
  6
CONTINUOUS
 62
3
 10
5.81827547559867
 20
6.03157699931217
 30
0.0
 11
5.81390920539373
 21
4.15346451114292
 31
0.0
  0
ARC
  8
3
  6
CONTINUOUS
 62
3
 10
4.9389178198152
 20
4.15784803779216
 30
0.0
 40
0.875002365792529
 50
179.816939959292
 51
359.712962345266
  0
LINE
  8
3
  6
CONTINUOUS
 62
3
 10
4.06391992004311
 20
4.16064366597884
 30
0.0
 11
4.06828031818673
 21
6.03623005822827
 31
0.0
  0
ARC
  8
3
  6
CONTINUOUS
 62
3
 10
4.19327867666796
 20
6.03534947824294
 30
0.0
 40
0.125001460167925
 50
89.8668408281521
 51
179.596373242968
  0
LINE
  8
3
  6
CONTINUOUS
 62
3
 10
4.19356918804721
 20
6.16035060082691
 30
0.0
 11
5.69415203787988
 21
6.15686313512961
 31
0.0
  0
ARC
  8
3
  6
CONTINUOUS
 62
3
 10
5.69327434663975
 20
6.03186475633133
 30
0.0
 40
0.125001460167923
 50
44.7329003420768
 51
89.5976973635122
  0
ARC
  8
3
  6
CONTINUOUS
 62
3
 10
3.72974283671308
 20
5.12413116597088
 30
0.0
 40
0.0885833333300401
 50
224.999999994854
 51
5.14471258611067E-9
  0
ARC
  8
3
  6
CONTINUOUS
 62
3
 10
3.72974283670978
 20
5.12413116597884
 30
0.0
 40
0.088583333333335
 50
359.999999999999
 51
180
  0
ARC
  8
3
  6
CONTINUOUS
 62
3
 10
3.72974283670018
 20
5.12413116597486
 30
0.0
 40
0.0885833333237331
 50
179.999999997427
 51
225.000000002572
  0
ARC
  8
3
  6
CONTINUOUS
 62
3
 10
3.03747478113567
 20
4.14832977710851
 30
0.0
 40
0.275590277846714
 50
90.0014437602711
 51
180.001443767988
  0
ARC
  8
3
  6
CONTINUOUS
 62
3
 10
3.03747478115423
 20
4.14832977708995
 30
0.0
 40
0.275590277865274
 50
180.001443764129
 51
0.00144376412983313
  0
ARC
  8
3
  6
CONTINUOUS
 62
3
 10
3.03747478117279
 20
4.14832977710851
 30
0.0
 40
0.275590277846714
 50
0.00144376027114602
 51
90.0014437679886
  0
ARC
  8
3
  6
CONTINUOUS
 62
3
 10
3.03974422556846
 20
5.12573533264948
 30
0.0
 40
0.088583333303125
 50
164.999999997428
 51
180.000000002572
  0
ARC
  8
3
  6
CONTINUOUS
 62
3
 10
3.03974422559867
 20
5.12573533264551
 30
0.0
 40
0.088583333333335
 50
179.999999999999
 51
359.999999999999
  0
ARC
  8
3
  6
CONTINUOUS
 62
3
 10
3.03974422559972
 20
5.12573533265346
 30
0.0
 40
0.0885833333322878
 50
359.999999994854
 51
165.000000005145
  0
ARC
  8
3
  6
CONTINUOUS
 62
3
 10
2.34974700337048
 20
5.12733811042925
 30
0.0
 40
0.0885833333273643
 50
89.9999999961379
 51
180.000000003855
  0
ARC
  8
3
  6
CONTINUOUS
 62
3
 10
2.34974700337645
 20
5.12733811042328
 30
0.0
 40
0.0885833333333299
 50
179.999999999996
 51
359.999999999996
  0
ARC
  8
3
  6
CONTINUOUS
 62
3
 10
2.34974700338241
 20
5.12733811042925
 30
0.0
 40
0.0885833333273645
 50
359.999999996137
 51
90.0000000038549
  0
ARC
  8
3
  6
CONTINUOUS
 62
3
 10
2.35168172565909
 20
5.95993394374866
 30
0.0
 40
0.0885833332729152
 50
344.999999994855
 51
5.14487956523145E-9
  0
ARC
  8
3
  6
CONTINUOUS
 62
3
 10
2.35168172559867
 20
5.95993394375662
 30
0.0
 40
0.088583333333335
 50
359.999999999999
 51
180
  0
ARC
  8
3
  6
CONTINUOUS
 62
3
 10
2.35168172559815
 20
5.95993394375264
 30
0.0
 40
0.0885833333328114
 50
179.999999997427
 51
345.000000002572
  0
ARC
  8
3
  6
CONTINUOUS
 62
3
 10
3.0416803367702
 20
5.95833116597088
 30
0.0
 40
0.0885833332729153
 50
344.999999994856
 51
5.14593391910836E-9
  0
ARC
  8
3
  6
CONTINUOUS
 62
3
 10
3.04168033670978
 20
5.95833116597884
 30
0.0
 40
0.0885833333333352
 50
359.999999999999
 51
180
  0
ARC
  8
3
  6
CONTINUOUS
 62
3
 10
3.04168033670926
 20
5.95833116597486
 30
0.0
 40
0.0885833333328119
 50
179.999999997427
 51
345.000000002572
  0
ARC
  8
3
  6
CONTINUOUS
 62
3
 10
3.73167755893035
 20
5.95672699931615
 30
0.0
 40
0.0885833333316865
 50
44.9999999974222
 51
180.000000002571
  0
ARC
  8
3
  6
CONTINUOUS
 62
3
 10
3.731677558932
 20
5.95672699931217
 30
0.0
 40
0.088583333333335
 50
179.999999999996
 51
359.999999999996
  0
ARC
  8
3
  6
CONTINUOUS
 62
3
 10
3.7316775589512
 20
5.95672699932012
 30
0.0
 40
0.0885833333141378
 50
359.999999994853
 51
45.0000000051395
  0
ARC
  8
3
  6
CONTINUOUS
 62
3
 10
3.79182990220205
 20
6.02158836742917
 30
0.0
 40
0.125001460165114
 50
359.868103328532
 51
44.7327566299508
  0
LINE
  8
3
  6
CONTINUOUS
 62
3
 10
3.91683103115422
 20
6.02130061042328
 30
0.0
 11
3.91246573152954
 21
4.14360560875881
 31
0.0
  0
ARC
  8
3
  6
CONTINUOUS
 62
3
 10
3.03747331949595
 20
4.14777921944502
 30
0.0
 40
0.875002365792529
 50
179.830531890886
 51
359.726707956731
  0
LINE
  8
3
  6
CONTINUOUS
 62
3
 10
2.16247478115423
 20
4.15036727708995
 30
0.0
 11
2.16683586935218
 21
6.02595178187217
 31
0.0
  0
ARC
  8
3
  6
CONTINUOUS
 62
3
 10
2.2918342362551
 20
6.02507239815825
 30
0.0
 40
0.125001460167931
 50
89.8680986919922
 51
179.596921580577
  0
LINE
  8
3
  6
CONTINUOUS
 62
3
 10
2.29212200337645
 20
6.15007352708995
 30
0.0
 11
3.79270822051372
 21
6.14658674182562
 31
0.0
  0
ARC
  8
3
  6
CONTINUOUS
 62
3
 10
3.79182990219528
 20
6.02158836743202
 30
0.0
 40
0.12500146016792
 50
44.7327566268352
 51
89.5974099282538
  0
ARC
  8
3
  6
CONTINUOUS
 62
3
 10
1.15917261927093
 20
4.16453741601647
 30
0.0
 40
0.27559228258302
 50
60.0021656436224
 51
180.000721884637
  0
ARC
  8
3
  6
CONTINUOUS
 62
3
 10
1.15917061448756
 20
4.16454088820106
 30
0.0
 40
0.275590277865273
 50
180.001443764129
 51
0.00144376412983313
  0
ARC
  8
3
  6
CONTINUOUS
 62
3
 10
1.15917662837699
 20
4.1645443605238
 30
0.0
 40
0.27558426391022
 50
0.000721876919968617
 51
60.0021656513398
  0
ARC
  8
3
  6
CONTINUOUS
 62
3
 10
1.85144005890179
 20
5.14034366598281
 30
0.0
 40
0.088583333303125
 50
164.999999997428
 51
180.000000002572
  0
ARC
  8
3
  6
CONTINUOUS
 62
3
 10
1.851440058932
 20
5.14034366597884
 30
0.0
 40
0.088583333333335
 50
179.999999999999
 51
359.999999999999
  0
ARC
  8
3
  6
CONTINUOUS
 62
3
 10
1.85144005893305
 20
5.14034366598679
 30
0.0
 40
0.0885833333322878
 50
359.999999994854
 51
165.000000005145
  0
ARC
  8
3
  6
CONTINUOUS
 62
3
 10
1.16144144779068
 20
5.14194783264948
 30
0.0
 40
0.088583333303125
 50
164.999999997428
 51
180.000000002572
  0
ARC
  8
3
  6
CONTINUOUS
 62
3
 10
1.16144144782089
 20
5.14194783264551
 30
0.0
 40
0.088583333333335
 50
179.999999999999
 51
359.999999999999
  0
ARC
  8
3
  6
CONTINUOUS
 62
3
 10
1.16144144782194
 20
5.14194783265346
 30
0.0
 40
0.0885833333322878
 50
359.999999994854
 51
165.000000005145
  0
ARC
  8
3
  6
CONTINUOUS
 62
3
 10
0.471444225592703
 20
5.14355061042925
 30
0.0
 40
0.0885833333273673
 50
89.9999999961412
 51
180.000000003859
  0
ARC
  8
3
  6
CONTINUOUS
 62
3
 10
0.471444225598669
 20
5.14355061042329
 30
0.0
 40
0.088583333333333
 50
179.999999999999
 51
359.999999999999
  0
ARC
  8
3
  6
CONTINUOUS
 62
3
 10
0.471444225604635
 20
5.14355061042925
 30
0.0
 40
0.0885833333273673
 50
359.999999996141
 51
90.0000000038584
  0
ARC
  8
3
  6
CONTINUOUS
 62
3
 10
0.473378947881311
 20
5.97614644374866
 30
0.0
 40
0.0885833332729137
 50
344.999999994854
 51
5.1447253083294E-9
  0
ARC
  8
3
  6
CONTINUOUS
 62
3
 10
0.473378947820891
 20
5.97614644375662
 30
0.0
 40
0.0885833333333336
 50
359.999999999999
 51
180
  0
ARC
  8
3
  6
CONTINUOUS
 62
3
 10
0.473378947820368
 20
5.97614644375264
 30
0.0
 40
0.08858333333281
 50
179.999999997427
 51
345.000000002572
  0
ARC
  8
3
  6
CONTINUOUS
 62
3
 10
1.16337617010353
 20
5.97454366597088
 30
0.0
 40
0.0885833332729152
 50
344.999999994855
 51
5.14487956523145E-9
  0
ARC
  8
3
  6
CONTINUOUS
 62
3
 10
1.16337617004311
 20
5.97454366597884
 30
0.0
 40
0.088583333333335
 50
359.999999999999
 51
180
  0
ARC
  8
3
  6
CONTINUOUS
 62
3
 10
1.16337617004259
 20
5.97454366597486
 30
0.0
 40
0.0885833333328114
 50
179.999999997427
 51
345.000000002572
  0
ARC
  8
3
  6
CONTINUOUS
 62
3
 10
1.85337478115257
 20
5.97293949931614
 30
0.0
 40
0.0885833333316876
 50
44.9999999974272
 51
180.000000002572
  0
ARC
  8
3
  6
CONTINUOUS
 62
3
 10
1.85337478115422
 20
5.97293949931217
 30
0.0
 40
0.088583333333335
 50
179.999999999999
 51
359.999999999999
  0
ARC
  8
3
  6
CONTINUOUS
 62
3
 10
1.85337478117343
 20
5.97293949932012
 30
0.0
 40
0.0885833333141313
 50
359.999999994855
 51
45.0000000051447
  0
ARC
  8
3
  6
CONTINUOUS
 62
3
 10
1.91353536365692
 20
6.03780977865393
 30
0.0
 40
0.124992548994907
 50
359.863690736157
 51
45.0566915730075
  0
LINE
  8
3
  6
CONTINUOUS
 62
3
 10
2.038527558932
 20
6.03751241597884
 30
0.0
 11
2.03416059259263
 21
4.15939900161214
 31
0.0
  0
ARC
  8
3
  6
CONTINUOUS
 62
3
 10
1.15916920963493
 20
4.16378305137235
 30
0.0
 40
0.875002365792529
 50
179.816959037717
 51
359.712928091157
  0
LINE
  8
3
  6
CONTINUOUS
 62
3
 10
0.284171308932002
 20
4.16657838820106
 30
0.0
 11
0.288531707343382
 21
6.04216489557067
 31
0.0
  0
ARC
  8
3
  6
CONTINUOUS
 62
3
 10
0.413530065013584
 20
6.04128420046643
 30
0.0
 40
0.12500146016793
 50
89.8668405791395
 51
179.596320475652
  0
LINE
  8
3
  6
CONTINUOUS
 62
3
 10
0.413820576936101
 20
6.16628532304914
 30
0.0
 11
1.91299065351856
 21
6.16280114074152
 31
0.0
  0
ARC
  8
3
  6
CONTINUOUS
 62
3
 10
1.91353536365017
 20
6.03780977865671
 30
0.0
 40
0.124992548997713
 50
45.0566915699168
 51
90.2496924067669
  0
ARC
  8
3
  6
CONTINUOUS
 62
3
 10
1.56949294970945
 20
1.41904436028281
 30
0.0
 40
0.0688984981989341
 50
255.008662797897
 51
0.00288760615884837
  0
ARC
  8
3
  6
CONTINUOUS
 62
3
 10
1.56949561448756
 20
1.41904088820106
 30
0.0
 40
0.0688958336833169
 50
0.0057752020280553
 51
180.005775202028
  0
ARC
  8
3
  6
CONTINUOUS
 62
3
 10
1.56949109004259
 20
1.41903741574771
 30
0.0
 40
0.0688913089758544
 50
180.002887598441
 51
255.008662805614
  0
ARC
  8
3
  6
CONTINUOUS
 62
3
 10
1.46253588794941
 20
0.703179083978323
 30
0.0
 40
0.0689222179938276
 50
165.008662800469
 51
180.002887603586
  0
ARC
  8
3
  6
CONTINUOUS
 62
3
 10
1.46250950337645
 20
0.703182554867725
 30
0.0
 40
0.0688958336833172
 50
180.005775202027
 51
0.00577520202739374
  0
ARC
  8
3
  6
CONTINUOUS
 62
3
 10
1.46250996015097
 20
0.703186027119164
 30
0.0
 40
0.0688953766463033
 50
0.00288759586866623
 51
165.008662808186
  0
ARC
  8
3
  6
CONTINUOUS
 62
3
 10
0.746651786249197
 20
0.810165193860753
 30
0.0
 40
0.0688978385158064
 50
60.0086628004688
 51
180.002887603586
  0
ARC
  8
3
  6
CONTINUOUS
 62
3
 10
0.746649781154224
 20
0.810168665978836
 30
0.0
 40
0.0688958336833207
 50
180.005775202027
 51
0.00577520202739374
  0
ARC
  8
3
  6
CONTINUOUS
 62
3
 10
0.746655794355334
 20
0.810172138510308
 30
0.0
 40
0.0688898202197124
 50
0.00288759586864079
 51
60.0086628081862
  0
ARC
  8
3
  6
CONTINUOUS
 62
3
 10
1.15806460054475
 20
1.11462213827177
 30
0.0
 40
0.393695374961398
 50
119.998484048912
 51
179.9994946864
  0
ARC
  8
3
  6
CONTINUOUS
 62
3
 10
1.15807061448756
 20
1.11461866597883
 30
0.0
 40
0.393701388950135
 50
179.998989367656
 51
359.998989367655
  0
ARC
  8
3
  6
CONTINUOUS
 62
3
 10
1.15806860974808
 20
1.11461519380965
 30
0.0
 40
0.393703393643676
 50
359.999494678683
 51
119.998484056629
  0
ARC
  8
3
  6
CONTINUOUS
 62
3
 10
0.85364190720031
 20
1.52602352739617
 30
0.0
 40
0.0689018483558123
 50
120.00866280047
 51
180.002887603587
  0
ARC
  8
3
  6
CONTINUOUS
 62
3
 10
0.853635892265336
 20
1.52602699931217
 30
0.0
 40
0.0688958336833202
 50
180.005775202028
 51
0.00577520202841152
  0
ARC
  8
3
  6
CONTINUOUS
 62
3
 10
0.85363789654903
 20
1.5260304716416
 30
0.0
 40
0.0688938291371326
 50
0.00288759586913695
 51
120.008662808188
  0
ARC
  8
3
  6
CONTINUOUS
 62
3
 10
0.470344225592703
 20
2.09361449931814
 30
0.0
 40
0.0885833333273672
 50
89.9999999961378
 51
180.000000003855
  0
ARC
  8
3
  6
CONTINUOUS
 62
3
 10
0.470344225598669
 20
2.09361449931217
 30
0.0
 40
0.088583333333333
 50
179.999999999996
 51
359.999999999996
  0
ARC
  8
3
  6
CONTINUOUS
 62
3
 10
0.470344225604635
 20
2.09361449931814
 30
0.0
 40
0.0885833333273672
 50
359.999999996137
 51
90.0000000038552
  0
ARC
  8
3
  6
CONTINUOUS
 62
3
 10
0.472278947881311
 20
2.92621033263755
 30
0.0
 40
0.0885833332729137
 50
344.999999994854
 51
5.1447253083294E-9
  0
ARC
  8
3
  6
CONTINUOUS
 62
3
 10
0.472278947820891
 20
2.92621033264551
 30
0.0
 40
0.0885833333333336
 50
359.999999999999
 51
180
  0
ARC
  8
3
  6
CONTINUOUS
 62
3
 10
0.472278947820368
 20
2.92621033264153
 30
0.0
 40
0.08858333333281
 50
179.999999997427
 51
345.000000002572
  0
ARC
  8
3
  6
CONTINUOUS
 62
3
 10
1.16227617004908
 20
2.92460616597287
 30
0.0
 40
0.0885833333273692
 50
269.999999996141
 51
3.85850899514555E-9
  0
ARC
  8
3
  6
CONTINUOUS
 62
3
 10
1.16227617004311
 20
2.92460616597884
 30
0.0
 40
0.088583333333335
 50
359.999999999999
 51
180
  0
ARC
  8
3
  6
CONTINUOUS
 62
3
 10
1.16227617003715
 20
2.92460616597287
 30
0.0
 40
0.0885833333273692
 50
179.999999996141
 51
270.000000003858
  0
ARC
  8
3
  6
CONTINUOUS
 62
3
 10
1.16034144788131
 20
2.09201033263755
 30
0.0
 40
0.0885833332729152
 50
344.999999994855
 51
5.14487956523145E-9
  0
ARC
  8
3
  6
CONTINUOUS
 62
3
 10
1.16034144782089
 20
2.09201033264551
 30
0.0
 40
0.088583333333335
 50
359.999999999999
 51
180
  0
ARC
  8
3
  6
CONTINUOUS
 62
3
 10
1.16034144782037
 20
2.09201033264153
 30
0.0
 40
0.0885833333328114
 50
179.999999997427
 51
345.000000002572
  0
ARC
  8
3
  6
CONTINUOUS
 62
3
 10
1.85034005892604
 20
2.0904061659848
 30
0.0
 40
0.0885833333273692
 50
89.9999999961411
 51
180.000000003859
  0
ARC
  8
3
  6
CONTINUOUS
 62
3
 10
1.850340058932
 20
2.09040616597884
 30
0.0
 40
0.088583333333335
 50
179.999999999999
 51
359.999999999999
  0
ARC
  8
3
  6
CONTINUOUS
 62
3
 10
1.85034005893797
 20
2.0904061659848
 30
0.0
 40
0.0885833333273692
 50
359.999999996141
 51
90.0000000038585
  0
ARC
  8
3
  6
CONTINUOUS
 62
3
 10
1.85227478115257
 20
2.92300338820504
 30
0.0
 40
0.0885833333316866
 50
44.9999999974227
 51
180.000000002571
  0
ARC
  8
3
  6
CONTINUOUS
 62
3
 10
1.85227478115422
 20
2.92300338820106
 30
0.0
 40
0.088583333333335
 50
179.999999999996
 51
359.999999999996
  0
ARC
  8
3
  6
CONTINUOUS
 62
3
 10
1.85227478117342
 20
2.92300338820901
 30
0.0
 40
0.0885833333141373
 50
359.999999994853
 51
45.00000000514
  0
ARC
  8
3
  6
CONTINUOUS
 62
3
 10
1.91243605644874
 20
2.98787227762329
 30
0.0
 40
0.124992548994903
 50
359.864009538356
 51
45.0011178595835
  0
LINE
  8
3
  6
CONTINUOUS
 62
3
 10
2.03742825337645
 20
2.98757561042328
 30
0.0
 11
2.03306295382298
 21
1.10988063939472
 31
0.0
  0
ARC
  8
3
  6
CONTINUOUS
 62
3
 10
1.15806769008343
 20
1.11340605793317
 30
0.0
 40
0.875002365792529
 50
179.788089576385
 51
359.769152452994
  0
LINE
  8
3
  6
CONTINUOUS
 62
3
 10
0.283071308932002
 20
1.11664227708995
 30
0.0
 11
0.28743170734039
 21
2.99222878317316
 31
0.0
  0
ARC
  8
3
  6
CONTINUOUS
 62
3
 10
0.412430065019656
 20
2.9913480893553
 30
0.0
 40
0.12500146016793
 50
89.8668405819223
 51
179.596321065298
  0
LINE
  8
3
  6
CONTINUOUS
 62
3
 10
0.412720576936102
 20
3.11634921193803
 30
0.0
 11
1.91213451197084
 21
3.11286446288531
 31
0.0
  0
ARC
  8
3
  6
CONTINUOUS
 62
3
 10
1.91243605644198
 20
2.98787227762608
 30
0.0
 40
0.124992548997709
 50
45.0011178564886
 51
90.1382261777161
  0
ARC
  8
3
  6
CONTINUOUS
 62
3
 10
2.37616644783126
 20
2.09795477708199
 30
0.0
 40
0.0885833333229686
 50
284.999999994854
 51
5.14476983609494E-9
  0
ARC
  8
3
  6
CONTINUOUS
 62
3
 10
2.37616644782089
 20
2.09795477708995
 30
0.0
 40
0.088583333333335
 50
359.999999999999
 51
180
  0
ARC
  8
3
  6
CONTINUOUS
 62
3
 10
2.37616644781784
 20
2.09795477708597
 30
0.0
 40
0.0885833333302832
 50
179.999999997427
 51
285.000000002572
  0
ARC
  8
3
  6
CONTINUOUS
 62
3
 10
2.65244561882699
 20
0.814512414642923
 30
0.0
 40
0.0689222179703154
 50
345.008662797898
 51
0.00288760616031779
  0
ARC
  8
3
  6
CONTINUOUS
 62
3
 10
2.65247200337645
 20
0.814508943756615
 30
0.0
 40
0.0688958336833172
 50
0.00577520202777541
 51
180.005775202028
  0
ARC
  8
3
  6
CONTINUOUS
 62
3
 10
2.65247154660233
 20
0.814505471508269
 30
0.0
 40
0.0688953766467107
 50
180.002887598441
 51
345.008662805614
  0
ARC
  8
3
  6
CONTINUOUS
 62
3
 10
3.36833439037915
 20
0.707520749449555
 30
0.0
 40
0.0688984982013133
 50
75.0086628004692
 51
180.002887603586
  0
ARC
  8
3
  6
CONTINUOUS
 62
3
 10
3.36833172559867
 20
0.707524221534392
 30
0.0
 40
0.0688958336833223
 50
180.005775202027
 51
0.00577520202785174
  0
ARC
  8
3
  6
CONTINUOUS
 62
3
 10
3.36833625004767
 20
0.707527693990834
 30
0.0
 40
0.0688913089718294
 50
0.00288759586888887
 51
75.0086628081866
  0
ARC
  8
3
  6
CONTINUOUS
 62
3
 10
3.47531737923085
 20
1.42338602706071
 30
0.0
 40
0.0688962908997665
 50
195.008662797891
 51
0.0028876061568319
  0
ARC
  8
3
  6
CONTINUOUS
 62
3
 10
3.47531783670978
 20
1.42338255486773
 30
0.0
 40
0.0688958336833223
 50
0.00577520202398419
 51
180.005775202024
  0
ARC
  8
3
  6
CONTINUOUS
 62
3
 10
3.47529147298249
 20
1.42337908131372
 30
0.0
 40
0.0688694696935072
 50
180.002887598439
 51
195.008662805609
  0
ARC
  8
3
  6
CONTINUOUS
 62
3
 10
3.06388682276697
 20
1.11896380493844
 30
0.0
 40
0.393695374961394
 50
119.99848404891
 51
179.9994946864
  0
ARC
  8
3
  6
CONTINUOUS
 62
3
 10
3.06389283670978
 20
1.1189603326455
 30
0.0
 40
0.393701388950136
 50
179.998989367655
 51
359.998989367655
  0
ARC
  8
3
  6
CONTINUOUS
 62
3
 10
3.0638908319703
 20
1.11895686047632
 30
0.0
 40
0.393703393643679
 50
359.999494678682
 51
119.998484056628
  0
ARC
  8
3
  6
CONTINUOUS
 62
3
 10
2.75946011958253
 20
1.53036519386076
 30
0.0
 40
0.0688978385158032
 50
60.0086628004697
 51
180.002887603587
  0
ARC
  8
3
  6
CONTINUOUS
 62
3
 10
2.75945811448756
 20
1.53036866597884
 30
0.0
 40
0.0688958336833172
 50
180.005775202028
 51
0.00577520202804258
  0
ARC
  8
3
  6
CONTINUOUS
 62
3
 10
2.75946412768867
 20
1.53037213851031
 30
0.0
 40
0.0688898202197085
 50
0.00288759586886979
 51
60.0086628081869
  0
ARC
  8
3
  6
CONTINUOUS
 62
3
 10
3.06616367010353
 20
2.09635199930421
 30
0.0
 40
0.0885833332729148
 50
344.999999994854
 51
5.14383634329593E-9
  0
ARC
  8
3
  6
CONTINUOUS
 62
3
 10
3.06616367004311
 20
2.09635199931217
 30
0.0
 40
0.0885833333333348
 50
359.999999999999
 51
180
  0
ARC
  8
3
  6
CONTINUOUS
 62
3
 10
3.06616367004259
 20
2.09635199930819
 30
0.0
 40
0.088583333332811
 50
179.999999997427
 51
345.000000002572
  0
ARC
  8
3
  6
CONTINUOUS
 62
3
 10
3.75616228114826
 20
2.09474922154036
 30
0.0
 40
0.0885833333273692
 50
89.9999999961411
 51
180.000000003859
  0
ARC
  8
3
  6
CONTINUOUS
 62
3
 10
3.75616228115422
 20
2.0947492215344
 30
0.0
 40
0.088583333333335
 50
179.999999999999
 51
359.999999999999
  0
ARC
  8
3
  6
CONTINUOUS
 62
3
 10
3.75616228116019
 20
2.09474922154036
 30
0.0
 40
0.0885833333273692
 50
359.999999996141
 51
90.0000000038585
  0
ARC
  8
3
  6
CONTINUOUS
 62
3
 10
3.75809700334624
 20
2.9273450548717
 30
0.0
 40
0.0885833333031201
 50
164.999999997427
 51
180.000000002572
  0
ARC
  8
3
  6
CONTINUOUS
 62
3
 10
3.75809700337645
 20
2.92734505486773
 30
0.0
 40
0.0885833333333301
 50
179.999999999999
 51
359.999999999999
  0
ARC
  8
3
  6
CONTINUOUS
 62
3
 10
3.75809700337749
 20
2.92734505487568
 30
0.0
 40
0.0885833333322829
 50
359.999999994855
 51
165.000000005145
  0
ARC
  8
3
  6
CONTINUOUS
 62
3
 10
3.06809839223513
 20
2.92894783264948
 30
0.0
 40
0.0885833333031197
 50
164.999999997427
 51
180.000000002572
  0
ARC
  8
3
  6
CONTINUOUS
 62
3
 10
3.06809839226534
 20
2.92894783264551
 30
0.0
 40
0.0885833333333297
 50
179.999999999999
 51
359.999999999999
  0
ARC
  8
3
  6
CONTINUOUS
 62
3
 10
3.06809839226638
 20
2.92894783265346
 30
0.0
 40
0.0885833333322824
 50
359.999999994855
 51
165.000000005145
  0
ARC
  8
3
  6
CONTINUOUS
 62
3
 10
2.37810117003351
 20
2.93055199931614
 30
0.0
 40
0.0885833333237331
 50
134.999999997427
 51
180.000000002572
  0
ARC
  8
3
  6
CONTINUOUS
 62
3
 10
2.37810117004311
 20
2.93055199931217
 30
0.0
 40
0.0885833333333348
 50
179.999999999999
 51
359.999999999999
  0
ARC
  8
3
  6
CONTINUOUS
 62
3
 10
2.37810117004641
 20
2.93055199932012
 30
0.0
 40
0.0885833333300399
 50
359.999999994854
 51
135.000000005145
  0
ARC
  8
3
  6
CONTINUOUS
 62
3
 10
2.31825228738979
 20
2.99568975602443
 30
0.0
 40
0.125001460165114
 50
89.8668406497197
 51
134.73158790391
  0
LINE
  8
3
  6
CONTINUOUS
 62
3
 10
2.31854279915832
 20
3.12069087860469
 30
0.0
 11
3.81912772220301
 21
3.11720340808909
 31
0.0
  0
ARC
  8
3
  6
CONTINUOUS
 62
3
 10
3.81824865221049
 20
2.99220503897949
 30
0.0
 40
0.125001460167926
 50
359.868101090052
 51
89.5970653817496
  0
LINE
  8
3
  6
CONTINUOUS
 62
3
 10
3.94324978115423
 20
2.99191727708995
 30
0.0
 11
3.93888281478615
 21
1.1138045459756
 31
0.0
  0
ARC
  8
3
  6
CONTINUOUS
 62
3
 10
3.06389143180898
 20
1.11818859184758
 30
0.0
 40
0.875002365792529
 50
179.816958050241
 51
359.712928345764
  0
LINE
  8
3
  6
CONTINUOUS
 62
3
 10
2.18889353115422
 20
1.12098394375662
 30
0.0
 11
2.19325392949111
 21
2.99657041909699
 31
0.0
  0
ARC
  8
3
  6
CONTINUOUS
 62
3
 10
2.31825228738694
 20
2.99568975601766
 30
0.0
 40
0.12500146016792
 50
134.731587900794
 51
179.596335154984
  0
ARC
  8
3
  6
CONTINUOUS
 62
3
 10
4.25009144783126
 20
2.0876783881931
 30
0.0
 40
0.0885833333229686
 50
284.999999994854
 51
5.14476983609494E-9
  0
ARC
  8
3
  6
CONTINUOUS
 62
3
 10
4.25009144782089
 20
2.08767838820106
 30
0.0
 40
0.088583333333335
 50
359.999999999999
 51
180
  0
ARC
  8
3
  6
CONTINUOUS
 62
3
 10
4.25009144781784
 20
2.08767838819708
 30
0.0
 40
0.0885833333302832
 50
179.999999997427
 51
285.000000002572
  0
ARC
  8
3
  6
CONTINUOUS
 62
3
 10
4.52637200771588
 20
0.804236025754036
 30
0.0
 40
0.0689222179703136
 50
345.008662797896
 51
0.00288760615904716
  0
ARC
  8
3
  6
CONTINUOUS
 62
3
 10
4.52639839226534
 20
0.804232554867726
 30
0.0
 40
0.0688958336833169
 50
0.00577520202739374
 51
180.005775202027
  0
ARC
  8
3
  6
CONTINUOUS
 62
3
 10
4.52639793549122
 20
0.804229082619381
 30
0.0
 40
0.0688953766467103
 50
180.002887598441
 51
345.008662805613
  0
ARC
  8
3
  6
CONTINUOUS
 62
3
 10
5.24226077926803
 20
0.697242971671777
 30
0.0
 40
0.0688984982013079
 50
75.0086628004696
 51
180.002887603586
  0
ARC
  8
3
  6
CONTINUOUS
 62
3
 10
5.24225811448756
 20
0.697246443756614
 30
0.0
 40
0.0688958336833169
 50
180.005775202028
 51
0.00577520202786446
  0
ARC
  8
3
  6
CONTINUOUS
 62
3
 10
5.24226263893655
 20
0.697249916213056
 30
0.0
 40
0.068891308971824
 50
0.00288759586892067
 51
75.008662808187
  0
ARC
  8
3
  6
CONTINUOUS
 62
3
 10
5.34924376811974
 20
1.41310963817183
 30
0.0
 40
0.068896290899767
 50
195.008662797897
 51
0.00288760615896923
  0
ARC
  8
3
  6
CONTINUOUS
 62
3
 10
5.34924422559867
 20
1.41310616597884
 30
0.0
 40
0.0688958336833223
 50
0.00577520202823341
 51
180.005775202028
  0
ARC
  8
3
  6
CONTINUOUS
 62
3
 10
5.34921786187136
 20
1.41310269242483
 30
0.0
 40
0.0688694696934882
 50
180.00288759844
 51
195.008662805613
  0
ARC
  8
3
  6
CONTINUOUS
 62
3
 10
4.93781182276697
 20
1.10868741604955
 30
0.0
 40
0.393695374961394
 50
119.99848404891
 51
179.9994946864
  0
ARC
  8
3
  6
CONTINUOUS
 62
3
 10
4.93781783670978
 20
1.10868394375661
 30
0.0
 40
0.393701388950136
 50
179.998989367655
 51
359.998989367655
  0
ARC
  8
3
  6
CONTINUOUS
 62
3
 10
4.9378158319703
 20
1.10868047158743
 30
0.0
 40
0.393703393643679
 50
359.999494678682
 51
119.998484056628
  0
ARC
  8
3
  6
CONTINUOUS
 62
3
 10
4.63338650847142
 20
1.52008880497187
 30
0.0
 40
0.068897838515803
 50
60.0086628004695
 51
180.002887603586
  0
ARC
  8
3
  6
CONTINUOUS
 62
3
 10
4.63338450337645
 20
1.52009227708995
 30
0.0
 40
0.0688958336833169
 50
180.005775202028
 51
0.00577520202804258
  0
ARC
  8
3
  6
CONTINUOUS
 62
3
 10
4.63339051657756
 20
1.52009574962142
 30
0.0
 40
0.0688898202197081
 50
0.00288759586884434
 51
60.0086628081866
  0
ARC
  8
3
  6
CONTINUOUS
 62
3
 10
4.94009005899242
 20
2.08607561041533
 30
0.0
 40
0.0885833332729148
 50
344.999999994854
 51
5.14383634329593E-9
  0
ARC
  8
3
  6
CONTINUOUS
 62
3
 10
4.940090058932
 20
2.08607561042329
 30
0.0
 40
0.088583333333335
 50
359.999999999999
 51
180
  0
ARC
  8
3
  6
CONTINUOUS
 62
3
 10
4.94009005893148
 20
2.08607561041931
 30
0.0
 40
0.0885833333328112
 50
179.999999997427
 51
345.000000002572
  0
ARC
  8
3
  6
CONTINUOUS
 62
3
 10
5.63008728114826
 20
2.08447144376258
 30
0.0
 40
0.0885833333273692
 50
89.9999999961411
 51
180.000000003859
  0
ARC
  8
3
  6
CONTINUOUS
 62
3
 10
5.63008728115422
 20
2.08447144375662
 30
0.0
 40
0.088583333333335
 50
179.999999999999
 51
359.999999999999
  0
ARC
  8
3
  6
CONTINUOUS
 62
3
 10
5.63008728116019
 20
2.08447144376258
 30
0.0
 40
0.0885833333273692
 50
359.999999996141
 51
90.0000000038585
  0
ARC
  8
3
  6
CONTINUOUS
 62
3
 10
5.63202339223513
 20
2.91706727709392
 30
0.0
 40
0.0885833333031198
 50
164.999999997428
 51
180.000000002573
  0
ARC
  8
3
  6
CONTINUOUS
 62
3
 10
5.63202339226534
 20
2.91706727708995
 30
0.0
 40
0.0885833333333297
 50
179.999999999999
 51
359.999999999999
  0
ARC
  8
3
  6
CONTINUOUS
 62
3
 10
5.63202339226638
 20
2.9170672770979
 30
0.0
 40
0.0885833333322826
 50
359.999999994854
 51
165.000000005145
  0
ARC
  8
3
  6
CONTINUOUS
 62
3
 10
4.94202478112401
 20
2.91867144376059
 30
0.0
 40
0.088583333303125
 50
164.999999997426
 51
180.000000002571
  0
ARC
  8
3
  6
CONTINUOUS
 62
3
 10
4.94202478115422
 20
2.91867144375662
 30
0.0
 40
0.088583333333335
 50
179.999999999999
 51
359.999999999999
  0
ARC
  8
3
  6
CONTINUOUS
 62
3
 10
4.94202478115527
 20
2.91867144376457
 30
0.0
 40
0.0885833333322876
 50
359.999999994855
 51
165.000000005145
  0
ARC
  8
3
  6
CONTINUOUS
 62
3
 10
4.25202617003351
 20
2.92027422153837
 30
0.0
 40
0.0885833333237331
 50
134.999999997427
 51
180.000000002572
  0
ARC
  8
3
  6
CONTINUOUS
 62
3
 10
4.25202617004311
 20
2.9202742215344
 30
0.0
 40
0.088583333333335
 50
179.999999999999
 51
359.999999999999
  0
ARC
  8
3
  6
CONTINUOUS
 62
3
 10
4.25202617004641
 20
2.92027422154235
 30
0.0
 40
0.0885833333300401
 50
359.999999994855
 51
135.000000005145
  0
ARC
  8
3
  6
CONTINUOUS
 62
3
 10
4.1921786764173
 20
2.98541197824634
 30
0.0
 40
0.125001460165121
 50
89.8668407132539
 51
134.731751643288
  0
LINE
  8
3
  6
CONTINUOUS
 62
3
 10
4.19246918804722
 20
3.11041310082692
 30
0.0
 11
5.69329610848872
 21
3.10692506789144
 31
0.0
  0
ARC
  8
3
  6
CONTINUOUS
 62
3
 10
5.69217434663439
 20
2.98192864116469
 30
0.0
 40
0.125001460167921
 50
359.86810518135
 51
89.4858213457369
  0
LINE
  8
3
  6
CONTINUOUS
 62
3
 10
5.81717547559867
 20
2.98164088820106
 30
0.0
 11
5.81280920542206
 21
1.10352841221619
 31
0.0
  0
ARC
  8
3
  6
CONTINUOUS
 62
3
 10
4.93781781987279
 20
1.10791194470713
 30
0.0
 40
0.875002365792529
 50
179.816941139659
 51
359.712961962742
  0
LINE
  8
3
  6
CONTINUOUS
 62
3
 10
4.06281992004311
 20
1.11070755486773
 30
0.0
 11
4.06718031348813
 21
2.98629192701905
 31
0.0
  0
ARC
  8
3
  6
CONTINUOUS
 62
3
 10
4.19217867641445
 20
2.98541197823956
 30
0.0
 40
0.125001460167927
 50
134.731751640173
 51
179.596662570207
  0
ARC
  8
3
  6
CONTINUOUS
 62
3
 10
6.15591367005348
 20
2.09202005485977
 30
0.0
 40
0.0885833333229686
 50
284.999999994854
 51
5.14476983609494E-9
  0
ARC
  8
3
  6
CONTINUOUS
 62
3
 10
6.15591367004311
 20
2.09202005486773
 30
0.0
 40
0.088583333333335
 50
359.999999999999
 51
180
  0
ARC
  8
3
  6
CONTINUOUS
 62
3
 10
6.15591367004006
 20
2.09202005486375
 30
0.0
 40
0.0885833333302832
 50
179.999999997427
 51
285.000000002572
  0
ARC
  8
3
  6
CONTINUOUS
 62
3
 10
6.4321942299381
 20
0.808577692420703
 30
0.0
 40
0.0689222179703173
 50
345.008662797897
 51
0.00288760615864005
  0
ARC
  8
3
  6
CONTINUOUS
 62
3
 10
6.43222061448756
 20
0.808574221534392
 30
0.0
 40
0.0688958336833169
 50
0.00577520202823341
 51
180.005775202028
  0
ARC
  8
3
  6
CONTINUOUS
 62
3
 10
6.43222015771344
 20
0.808570749286046
 30
0.0
 40
0.0688953766467101
 50
180.002887598441
 51
345.008662805615
  0
ARC
  8
3
  6
CONTINUOUS
 62
3
 10
7.14808300149026
 20
0.701584638338443
 30
0.0
 40
0.0688984982013144
 50
75.0086628004697
 51
180.002887603587
  0
ARC
  8
3
  6
CONTINUOUS
 62
3
 10
7.14808033670978
 20
0.70158811042328
 30
0.0
 40
0.0688958336833232
 50
180.005775202028
 51
0.00577520202822069
  0
ARC
  8
3
  6
CONTINUOUS
 62
3
 10
7.14808486115878
 20
0.701591582879723
 30
0.0
 40
0.06889130897183
 50
0.0028875958690479
 51
75.008662808187
  0
ARC
  8
3
  6
CONTINUOUS
 62
3
 10
7.25506599034196
 20
1.41745130483849
 30
0.0
 40
0.068896290899767
 50
195.008662797897
 51
0.00288760615886746
  0
ARC
  8
3
  6
CONTINUOUS
 62
3
 10
7.25506644782089
 20
1.4174478326455
 30
0.0
 40
0.0688958336833223
 50
0.0057752020280553
 51
180.005775202028
  0
ARC
  8
3
  6
CONTINUOUS
 62
3
 10
7.25504008409358
 20
1.41744435909149
 30
0.0
 40
0.0688694696934886
 50
180.00288759844
 51
195.008662805613
  0
ARC
  8
3
  6
CONTINUOUS
 62
3
 10
6.84363404498919
 20
1.11302908271622
 30
0.0
 40
0.39369537496139
 50
119.998484048911
 51
179.9994946864
  0
ARC
  8
3
  6
CONTINUOUS
 62
3
 10
6.843640058932
 20
1.11302561042328
 30
0.0
 40
0.393701388950131
 50
179.998989367655
 51
359.998989367655
  0
ARC
  8
3
  6
CONTINUOUS
 62
3
 10
6.84363805419252
 20
1.1130221382541
 30
0.0
 40
0.393703393643674
 50
359.999494678682
 51
119.998484056628
  0
ARC
  8
3
  6
CONTINUOUS
 62
3
 10
6.53920873069365
 20
1.52443047163853
 30
0.0
 40
0.0688978385158082
 50
60.0086628004701
 51
180.002887603586
  0
ARC
  8
3
  6
CONTINUOUS
 62
3
 10
6.53920672559867
 20
1.52443394375661
 30
0.0
 40
0.0688958336833223
 50
180.005775202028
 51
0.00577520202822069
  0
ARC
  8
3
  6
CONTINUOUS
 62
3
 10
6.53921273879978
 20
1.52443741628808
 30
0.0
 40
0.068889820219713
 50
0.00288759586920056
 51
60.0086628081877
  0
ARC
  8
3
  6
CONTINUOUS
 62
3
 10
6.84591228121464
 20
2.09041727708199
 30
0.0
 40
0.0885833332729148
 50
344.999999994854
 51
5.14383634329593E-9
  0
ARC
  8
3
  6
CONTINUOUS
 62
3
 10
6.84591228115422
 20
2.09041727708995
 30
0.0
 40
0.088583333333335
 50
359.999999999999
 51
180
  0
ARC
  8
3
  6
CONTINUOUS
 62
3
 10
6.8459122811537
 20
2.09041727708597
 30
0.0
 40
0.0885833333328112
 50
179.999999997427
 51
345.000000002572
  0
ARC
  8
3
  6
CONTINUOUS
 62
3
 10
7.53590950337048
 20
2.08881311042925
 30
0.0
 40
0.0885833333273692
 50
89.9999999961446
 51
180.000000003862
  0
ARC
  8
3
  6
CONTINUOUS
 62
3
 10
7.53590950337644
 20
2.08881311042328
 30
0.0
 40
0.088583333333335
 50
180.000000000003
 51
3.10422136910839E-12
  0
ARC
  8
3
  6
CONTINUOUS
 62
3
 10
7.53590950338241
 20
2.08881311042925
 30
0.0
 40
0.0885833333273694
 50
359.999999996144
 51
90.0000000038618
  0
ARC
  8
3
  6
CONTINUOUS
 62
3
 10
7.53784561445735
 20
2.92140894376059
 30
0.0
 40
0.0885833333031208
 50
164.999999997428
 51
180.000000002573
  0
ARC
  8
3
  6
CONTINUOUS
 62
3
 10
7.53784561448756
 20
2.92140894375662
 30
0.0
 40
0.0885833333333306
 50
179.999999999999
 51
359.999999999999
  0
ARC
  8
3
  6
CONTINUOUS
 62
3
 10
7.5378456144886
 20
2.92140894376457
 30
0.0
 40
0.0885833333322836
 50
359.999999994855
 51
165.000000005145
  0
ARC
  8
3
  6
CONTINUOUS
 62
3
 10
6.84784700334624
 20
2.92301311042726
 30
0.0
 40
0.0885833333031202
 50
164.999999997426
 51
180.000000002571
  0
ARC
  8
3
  6
CONTINUOUS
 62
3
 10
6.84784700337645
 20
2.92301311042329
 30
0.0
 40
0.0885833333333301
 50
179.999999999999
 51
359.999999999999
  0
ARC
  8
3
  6
CONTINUOUS
 62
3
 10
6.84784700337749
 20
2.92301311043124
 30
0.0
 40
0.0885833333322826
 50
359.999999994854
 51
165.000000005145
  0
ARC
  8
3
  6
CONTINUOUS
 62
3
 10
6.15784839225573
 20
2.92461588820503
 30
0.0
 40
0.0885833333237283
 50
134.999999997428
 51
180.000000002573
  0
ARC
  8
3
  6
CONTINUOUS
 62
3
 10
6.15784839226534
 20
2.92461588820106
 30
0.0
 40
0.0885833333333301
 50
179.999999999999
 51
359.999999999999
  0
ARC
  8
3
  6
CONTINUOUS
 62
3
 10
6.15784839226863
 20
2.92461588820901
 30
0.0
 40
0.0885833333300358
 50
359.999999994855
 51
135.000000005145
  0
ARC
  8
3
  6
CONTINUOUS
 62
3
 10
6.09800089770568
 20
2.98975364491517
 30
0.0
 40
0.125001460165117
 50
89.8668402852207
 51
134.73170603255
  0
LINE
  8
3
  6
CONTINUOUS
 62
3
 10
6.09829141026943
 20
3.11475476749358
 30
0.0
 11
7.59887426010526
 21
3.11126730179627
 31
0.0
  0
ARC
  8
3
  6
CONTINUOUS
 62
3
 10
7.59799656886594
 20
2.98626892299798
 30
0.0
 40
0.125001460167929
 50
359.868103322458
 51
89.5976973638862
  0
LINE
  8
3
  6
CONTINUOUS
 62
3
 10
7.72299769782089
 20
2.98598116597884
 30
0.0
 11
7.7186314336249
 21
1.1078712625008
 31
0.0
  0
ARC
  8
3
  6
CONTINUOUS
 62
3
 10
6.84364004200388
 20
1.1122535828491
 30
0.0
 40
0.875002365792528
 50
179.816939271832
 51
359.713041335704
  0
LINE
  8
3
  6
CONTINUOUS
 62
3
 10
5.96864214226534
 20
1.11504922153439
 30
0.0
 11
5.97300253617108
 21
2.99063379176586
 31
0.0
  0
ARC
  8
3
  6
CONTINUOUS
 62
3
 10
6.09800089770283
 20
2.98975364490839
 30
0.0
 40
0.125001460167923
 50
134.731706029435
 51
179.596571776764
  0
LINE
  8
9
  6
CONTINUOUS
 62
9
 10
6.88575218892985
 20
4.24801194955659
 30
0.0
 11
6.95501112820003
 21
4.38106531979263
 31
0.0
  0
LINE
  8
9
  6
CONTINUOUS
 62
9
 10
6.95501112820003
 20
4.38106531979263
 30
0.0
 11
6.92814721039856
 21
4.33889507055984
 31
0.0
  0
LINE
  8
9
  6
CONTINUOUS
 62
9
 10
7.51041007300616
 20
5.12195055503393
 30
0.0
 11
7.42392651837545
 21
5.14112349750195
 31
0.0
  0
LINE
  8
9
  6
CONTINUOUS
 62
9
 10
7.42392651837545
 20
5.14112349750195
 30
0.0
 11
7.47161236591286
 21
5.12608820752674
 31
0.0
  0
LINE
  8
9
  6
CONTINUOUS
 62
9
 10
6.82041146189505
 20
5.12355333281171
 30
0.0
 11
6.73392790726434
 21
5.14272627527973
 31
0.0
  0
LINE
  8
9
  6
CONTINUOUS
 62
9
 10
6.73392790726434
 20
5.14272627527973
 30
0.0
 11
6.78161375480175
 21
5.12769098530452
 31
0.0
  0
LINE
  8
9
  6
CONTINUOUS
 62
9
 10
6.13335817632945
 20
5.12148769990593
 30
0.0
 11
6.12949422559867
 21
5.20998672153439
 31
0.0
  0
LINE
  8
9
  6
CONTINUOUS
 62
9
 10
6.12949422559867
 20
5.20998672153439
 30
0.0
 11
6.1273132562304
 21
5.1600343104553
 31
0.0
  0
LINE
  8
9
  6
CONTINUOUS
 62
9
 10
6.13051171152451
 20
5.95024511025708
 30
0.0
 11
6.21699526615522
 21
5.93107216778906
 31
0.0
  0
LINE
  8
9
  6
CONTINUOUS
 62
9
 10
6.21699526615522
 20
5.93107216778906
 30
0.0
 11
6.16930941861781
 21
5.94610745776428
 31
0.0
  0
LINE
  8
9
  6
CONTINUOUS
 62
9
 10
6.82050893374673
 20
5.94864094359041
 30
0.0
 11
6.90699248837744
 21
5.92946800112239
 31
0.0
  0
LINE
  8
9
  6
CONTINUOUS
 62
9
 10
6.90699248837744
 20
5.92946800112239
 30
0.0
 11
6.85930664084003
 21
5.94450329109761
 31
0.0
  0
LINE
  8
9
  6
CONTINUOUS
 62
9
 10
7.51421801318527
 20
5.94811966870429
 30
0.0
 11
7.57406404574322
 21
6.01343015279006
 31
0.0
  0
LINE
  8
9
  6
CONTINUOUS
 62
9
 10
7.57406404574322
 20
6.01343015279006
 30
0.0
 11
7.53720017890272
 21
5.97965064240927
 31
0.0
  0
LINE
  8
9
  6
CONTINUOUS
 62
9
 10
7.76223250513379
 20
6.21374608859916
 30
0.0
 11
7.66037922315466
 21
6.10362838361907
 31
0.0
  0
LINE
  8
9
  6
CONTINUOUS
 62
9
 10
7.66037922315466
 20
6.10362838361907
 30
0.0
 11
7.69740025310735
 21
6.13723557542741
 31
0.0
  0
LINE
  8
9
  6
CONTINUOUS
 62
9
 10
5.00744941115207
 20
4.26422444955658
 30
0.0
 11
5.07670835042226
 21
4.39727781979263
 31
0.0
  0
LINE
  8
9
  6
CONTINUOUS
 62
9
 10
5.07670835042226
 20
4.39727781979263
 30
0.0
 11
5.04984443262078
 21
4.35510757055983
 31
0.0
  0
LINE
  8
9
  6
CONTINUOUS
 62
9
 10
5.63210590633949
 20
5.13816305503393
 30
0.0
 11
5.54562235170878
 21
5.15733599750195
 31
0.0
  0
LINE
  8
9
  6
CONTINUOUS
 62
9
 10
5.54562235170878
 20
5.15733599750195
 30
0.0
 11
5.59330819924619
 21
5.14230070752674
 31
0.0
  0
LINE
  8
9
  6
CONTINUOUS
 62
9
 10
4.94210868411727
 20
5.13976583281171
 30
0.0
 11
4.85562512948656
 21
5.15893877527973
 31
0.0
  0
LINE
  8
9
  6
CONTINUOUS
 62
9
 10
4.85562512948656
 20
5.15893877527973
 30
0.0
 11
4.90331097702397
 21
5.14390348530452
 31
0.0
  0
LINE
  8
9
  6
CONTINUOUS
 62
9
 10
4.25505539855167
 20
5.13770019990593
 30
0.0
 11
4.25119144782089
 21
5.22619922153439
 31
0.0
  0
LINE
  8
9
  6
CONTINUOUS
 62
9
 10
4.25119144782089
 20
5.22619922153439
 30
0.0
 11
4.24901047845263
 21
5.1762468104553
 31
0.0
  0
LINE
  8
9
  6
CONTINUOUS
 62
9
 10
4.25220754485784
 20
5.96645761025708
 30
0.0
 11
4.33869109948855
 21
5.94728466778906
 31
0.0
  0
LINE
  8
9
  6
CONTINUOUS
 62
9
 10
4.33869109948855
 20
5.94728466778906
 30
0.0
 11
4.29100525195114
 21
5.96231995776428
 31
0.0
  0
LINE
  8
9
  6
CONTINUOUS
 62
9
 10
4.94220615596895
 20
5.96485344359041
 30
0.0
 11
5.02868971059966
 21
5.94568050112239
 31
0.0
  0
LINE
  8
9
  6
CONTINUOUS
 62
9
 10
5.02868971059966
 20
5.94568050112239
 30
0.0
 11
4.98100386306225
 21
5.96071579109761
 31
0.0
  0
LINE
  8
9
  6
CONTINUOUS
 62
9
 10
5.6359138465186
 20
5.96433216870429
 30
0.0
 11
5.69575987907655
 21
6.02964265279005
 31
0.0
  0
LINE
  8
9
  6
CONTINUOUS
 62
9
 10
5.69575987907655
 20
6.02964265279005
 30
0.0
 11
5.65889601223605
 21
5.99586314240927
 31
0.0
  0
LINE
  8
9
  6
CONTINUOUS
 62
9
 10
5.88392779623159
 20
6.22995911047986
 30
0.0
 11
5.78207481567393
 21
6.11984112670101
 31
0.0
  0
LINE
  8
9
  6
CONTINUOUS
 62
9
 10
5.78207481567393
 20
6.11984112670101
 30
0.0
 11
5.81909575363476
 21
6.1534484198455
 31
0.0
  0
LINE
  8
9
  6
CONTINUOUS
 62
9
 10
3.72695099356763
 20
5.12680377436449
 30
0.0
 11
3.66710496100967
 21
5.06149329027873
 31
0.0
  0
LINE
  8
9
  6
CONTINUOUS
 62
9
 10
3.66710496100967
 20
5.06149329027873
 30
0.0
 11
3.70396882785018
 21
5.09527280065951
 31
0.0
  0
LINE
  8
9
  6
CONTINUOUS
 62
9
 10
3.04401452098066
 20
4.27406298654909
 30
0.0
 11
3.03746783670978
 21
4.42392005486773
 31
0.0
  0
LINE
  8
9
  6
CONTINUOUS
 62
9
 10
3.03746783670978
 20
4.42392005486773
 30
0.0
 11
3.03528812606493
 21
4.37396758884748
 31
0.0
  0
LINE
  8
9
  6
CONTINUOUS
 62
9
 10
3.04066285078394
 20
5.12948944392282
 30
0.0
 11
2.95417929615323
 21
5.14866238639084
 31
0.0
  0
LINE
  8
9
  6
CONTINUOUS
 62
9
 10
2.95417929615323
 20
5.14866238639084
 30
0.0
 11
3.00186514369064
 21
5.13362709641563
 31
0.0
  0
LINE
  8
9
  6
CONTINUOUS
 62
9
 10
2.35361095410723
 20
5.12742242212815
 30
0.0
 11
2.34974700337645
 21
5.21592144375661
 31
0.0
  0
LINE
  8
9
  6
CONTINUOUS
 62
9
 10
2.34974700337645
 20
5.21592144375661
 30
0.0
 11
2.34756603400818
 21
5.16596903267752
 31
0.0
  0
LINE
  8
9
  6
CONTINUOUS
 62
9
 10
2.3507631004134
 20
5.9561798324793
 30
0.0
 11
2.43724665504411
 21
5.93700689001128
 31
0.0
  0
LINE
  8
9
  6
CONTINUOUS
 62
9
 10
2.43724665504411
 20
5.93700689001128
 30
0.0
 11
2.3895608075067
 21
5.9520421799865
 31
0.0
  0
LINE
  8
9
  6
CONTINUOUS
 62
9
 10
3.04076171152452
 20
5.95457705470152
 30
0.0
 11
3.12724526615522
 21
5.9354041122335
 31
0.0
  0
LINE
  8
9
  6
CONTINUOUS
 62
9
 10
3.12724526615522
 20
5.9354041122335
 30
0.0
 11
3.07955941861781
 21
5.95043940220872
 31
0.0
  0
LINE
  8
9
  6
CONTINUOUS
 62
9
 10
3.73446940207416
 20
5.95405439092651
 30
0.0
 11
3.79431543463211
 21
6.01936487501228
 31
0.0
  0
LINE
  8
9
  6
CONTINUOUS
 62
9
 10
3.79431543463211
 20
6.01936487501228
 30
0.0
 11
3.75745156779161
 21
5.9855853646315
 31
0.0
  0
LINE
  8
9
  6
CONTINUOUS
 62
9
 10
3.98248384866741
 20
6.21968224336309
 30
0.0
 11
3.88063059190067
 21
6.10956451506283
 31
0.0
  0
LINE
  8
9
  6
CONTINUOUS
 62
9
 10
3.88063059190067
 20
6.10956451506283
 30
0.0
 11
3.9176516141587
 21
6.14317171534745
 31
0.0
  0
LINE
  8
9
  6
CONTINUOUS
 62
9
 10
1.22770080004096
 20
4.27015917177881
 30
0.0
 11
1.29695973931114
 21
4.40321254201485
 31
0.0
  0
LINE
  8
9
  6
CONTINUOUS
 62
9
 10
1.29695973931114
 20
4.40321254201485
 30
0.0
 11
1.27009582150967
 21
4.36104229278206
 31
0.0
  0
LINE
  8
9
  6
CONTINUOUS
 62
9
 10
1.85235868411727
 20
5.14409777725615
 30
0.0
 11
1.76587512948656
 21
5.16327071972417
 31
0.0
  0
LINE
  8
9
  6
CONTINUOUS
 62
9
 10
1.76587512948656
 20
5.16327071972417
 30
0.0
 11
1.81356097702397
 21
5.14823542974896
 31
0.0
  0
LINE
  8
9
  6
CONTINUOUS
 62
9
 10
1.16236007300616
 20
5.14570194392282
 30
0.0
 11
1.07587651837545
 21
5.16487488639084
 31
0.0
  0
LINE
  8
9
  6
CONTINUOUS
 62
9
 10
1.07587651837545
 20
5.16487488639084
 30
0.0
 11
1.12356236591286
 21
5.14983959641563
 31
0.0
  0
LINE
  8
9
  6
CONTINUOUS
 62
9
 10
0.475308176329448
 20
5.14363492212816
 30
0.0
 11
0.471444225598669
 21
5.23213394375662
 31
0.0
  0
LINE
  8
9
  6
CONTINUOUS
 62
9
 10
0.471444225598669
 20
5.23213394375662
 30
0.0
 11
0.469263256230402
 21
5.18218153267753
 31
0.0
  0
LINE
  8
9
  6
CONTINUOUS
 62
9
 10
0.472460322635624
 20
5.9723923324793
 30
0.0
 11
0.558943877266331
 21
5.95321939001128
 31
0.0
  0
LINE
  8
9
  6
CONTINUOUS
 62
9
 10
0.558943877266331
 20
5.95321939001128
 30
0.0
 11
0.51125802972892
 21
5.9682546799865
 31
0.0
  0
LINE
  8
9
  6
CONTINUOUS
 62
9
 10
1.16245754485784
 20
5.97078955470152
 30
0.0
 11
1.24894109948855
 21
5.9516166122335
 31
0.0
  0
LINE
  8
9
  6
CONTINUOUS
 62
9
 10
1.24894109948855
 20
5.9516166122335
 30
0.0
 11
1.20125525195114
 21
5.96665190220872
 31
0.0
  0
LINE
  8
9
  6
CONTINUOUS
 62
9
 10
1.85616662429638
 20
5.97026689092651
 30
0.0
 11
1.91601265685433
 21
6.03557737501228
 31
0.0
  0
LINE
  8
9
  6
CONTINUOUS
 62
9
 10
1.91601265685433
 20
6.03557737501228
 30
0.0
 11
1.87914879001383
 21
6.00179786463149
 31
0.0
  0
LINE
  8
9
  6
CONTINUOUS
 62
9
 10
2.10306000453948
 20
6.236972081658
 30
0.0
 11
2.00183094835417
 21
6.12628026541203
 31
0.0
  0
LINE
  8
9
  6
CONTINUOUS
 62
9
 10
2.00183094835417
 20
6.12628026541203
 30
0.0
 11
2.03866137386272
 21
6.16009623437433
 31
0.0
  0
LINE
  8
9
  6
CONTINUOUS
 62
9
 10
1.56657577617043
 20
1.41975505580792
 30
0.0
 11
1.55167076851092
 21
1.35249082610621
 31
0.0
  0
LINE
  8
9
  6
CONTINUOUS
 62
9
 10
1.55167076851092
 20
1.35249082610621
 30
0.0
 11
1.56670125185323
 21
1.40017818890283
 31
0.0
  0
LINE
  8
9
  6
CONTINUOUS
 62
9
 10
1.4632236709833
 20
0.706102393184852
 30
0.0
 11
1.3959594412816
 21
0.721007400844363
 31
0.0
  0
LINE
  8
9
  6
CONTINUOUS
 62
9
 10
1.3959594412816
 20
0.721007400844363
 30
0.0
 11
1.44364680407822
 21
0.705976917502054
 31
0.0
  0
LINE
  8
9
  6
CONTINUOUS
 62
9
 10
0.749285288215276
 20
0.808723123277984
 30
0.0
 11
0.781091683755587
 21
0.869837680082625
 31
0.0
  0
LINE
  8
9
  6
CONTINUOUS
 62
9
 10
0.781091683755587
 20
0.869837680082625
 30
0.0
 11
0.754230954011164
 21
0.827665400115838
 31
0.0
  0
LINE
  8
9
  6
CONTINUOUS
 62
9
 10
1.04181864387811
 20
1.32906740402876
 30
0.0
 11
0.961225934108414
 21
1.45557754248405
 31
0.0
  0
LINE
  8
9
  6
CONTINUOUS
 62
9
 10
0.961225934108414
 20
1.45557754248405
 30
0.0
 11
0.984312582473493
 21
1.41122659359604
 31
0.0
  0
LINE
  8
9
  6
CONTINUOUS
 62
9
 10
0.856205522497056
 20
1.52758664402847
 30
0.0
 11
0.819181961533365
 21
1.58568906897151
 31
0.0
  0
LINE
  8
9
  6
CONTINUOUS
 62
9
 10
0.819181961533365
 20
1.58568906897151
 30
0.0
 11
0.842273862447901
 21
1.54134085466526
 31
0.0
  0
LINE
  8
9
  6
CONTINUOUS
 62
9
 10
0.474208176329448
 20
2.09369881101704
 30
0.0
 11
0.470344225598674
 21
2.1821978326455
 31
0.0
  0
LINE
  8
9
  6
CONTINUOUS
 62
9
 10
0.470344225598674
 20
2.1821978326455
 30
0.0
 11
0.468163256230404
 21
2.13224542156641
 31
0.0
  0
LINE
  8
9
  6
CONTINUOUS
 62
9
 10
0.471360322635624
 20
2.92245622136819
 30
0.0
 11
0.557843877266332
 21
2.90328327890017
 31
0.0
  0
LINE
  8
9
  6
CONTINUOUS
 62
9
 10
0.557843877266332
 20
2.90328327890017
 30
0.0
 11
0.51015802972892
 21
2.91831856887539
 31
0.0
  0
LINE
  8
9
  6
CONTINUOUS
 62
9
 10
1.15841221931233
 20
2.92452185427396
 30
0.0
 11
1.16227617004311
 21
2.8360228326455
 31
0.0
  0
LINE
  8
9
  6
CONTINUOUS
 62
9
 10
1.16227617004311
 20
2.8360228326455
 30
0.0
 11
1.16445713941138
 21
2.88597524372459
 31
0.0
  0
LINE
  8
9
  6
CONTINUOUS
 62
9
 10
1.15942282263562
 20
2.08825622136819
 30
0.0
 11
1.24590637726633
 21
2.06908327890017
 31
0.0
  0
LINE
  8
9
  6
CONTINUOUS
 62
9
 10
1.24590637726633
 20
2.06908327890017
 30
0.0
 11
1.19822052972892
 21
2.08411856887539
 31
0.0
  0
LINE
  8
9
  6
CONTINUOUS
 62
9
 10
1.85420400966278
 20
2.09049047768371
 30
0.0
 11
1.850340058932
 21
2.17898949931217
 31
0.0
  0
LINE
  8
9
  6
CONTINUOUS
 62
9
 10
1.850340058932
 20
2.17898949931217
 30
0.0
 11
1.84815908956373
 21
2.12903708823308
 31
0.0
  0
LINE
  8
9
  6
CONTINUOUS
 62
9
 10
1.85506662429638
 20
2.92033077981541
 30
0.0
 11
1.91491265685433
 21
2.98564126390117
 31
0.0
  0
LINE
  8
9
  6
CONTINUOUS
 62
9
 10
1.91491265685433
 20
2.98564126390117
 30
0.0
 11
1.87804879001383
 21
2.95186175352039
 31
0.0
  0
LINE
  8
9
  6
CONTINUOUS
 62
9
 10
2.10215378448534
 20
3.18685065863031
 30
0.0
 11
2.00081741104094
 21
3.07625708098162
 31
0.0
  0
LINE
  8
9
  6
CONTINUOUS
 62
9
 10
2.00081741104094
 20
3.07625708098162
 30
0.0
 11
2.03768061882502
 21
3.1100373105822
 31
0.0
  0
LINE
  8
9
  6
CONTINUOUS
 62
9
 10
2.37245597949347
 20
2.09687327419829
 30
0.0
 11
2.39909350156622
 21
2.0123898476445
 31
0.0
  0
LINE
  8
9
  6
CONTINUOUS
 62
9
 10
2.39909350156622
 20
2.0123898476445
 30
0.0
 11
2.38827152086932
 21
2.0612046480005
 31
0.0
  0
LINE
  8
9
  6
CONTINUOUS
 62
9
 10
2.65175783576959
 20
0.811589105439488
 30
0.0
 11
2.7190220654713
 21
0.796684097779978
 31
0.0
  0
LINE
  8
9
  6
CONTINUOUS
 62
9
 10
2.7190220654713
 20
0.796684097779978
 30
0.0
 11
2.67133470267468
 21
0.811714581122287
 31
0.0
  0
LINE
  8
9
  6
CONTINUOUS
 62
9
 10
3.3712515639158
 20
0.706810053927537
 30
0.0
 11
3.38615657157531
 21
0.774074283629248
 31
0.0
  0
LINE
  8
9
  6
CONTINUOUS
 62
9
 10
3.38615657157531
 20
0.774074283629248
 30
0.0
 11
3.371126088233
 21
0.726386920832627
 31
0.0
  0
LINE
  8
9
  6
CONTINUOUS
 62
9
 10
3.47447640484132
 20
1.42626829282873
 30
0.0
 11
3.40877136932389
 21
1.40554429325462
 31
0.0
  0
LINE
  8
9
  6
CONTINUOUS
 62
9
 10
3.40877136932389
 20
1.40554429325462
 30
0.0
 11
3.4575850786164
 21
1.41637119424732
 31
0.0
  0
LINE
  8
9
  6
CONTINUOUS
 62
9
 10
2.94764086610033
 20
1.33340907069542
 30
0.0
 11
2.86704815633064
 21
1.45991920915072
 31
0.0
  0
LINE
  8
9
  6
CONTINUOUS
 62
9
 10
2.86704815633064
 20
1.45991920915072
 30
0.0
 11
2.89013480469572
 21
1.41556826026271
 31
0.0
  0
LINE
  8
9
  6
CONTINUOUS
 62
9
 10
2.76209362154861
 20
1.52892312327799
 30
0.0
 11
2.79390001708892
 21
1.59003768008263
 31
0.0
  0
LINE
  8
9
  6
CONTINUOUS
 62
9
 10
2.79390001708892
 20
1.59003768008263
 30
0.0
 11
2.76703928734449
 21
1.54786540011584
 31
0.0
  0
LINE
  8
9
  6
CONTINUOUS
 62
9
 10
3.06524504485784
 20
2.09259788803485
 30
0.0
 11
3.15172859948855
 21
2.07342494556683
 31
0.0
  0
LINE
  8
9
  6
CONTINUOUS
 62
9
 10
3.15172859948855
 20
2.07342494556683
 30
0.0
 11
3.10404275195114
 21
2.08846023554205
 31
0.0
  0
LINE
  8
9
  6
CONTINUOUS
 62
9
 10
3.760026231885
 20
2.09483353323927
 30
0.0
 11
3.75616228115422
 21
2.18333255486773
 31
0.0
  0
LINE
  8
9
  6
CONTINUOUS
 62
9
 10
3.75616228115422
 20
2.18333255486773
 30
0.0
 11
3.75398131178596
 21
2.13338014378864
 31
0.0
  0
LINE
  8
9
  6
CONTINUOUS
 62
9
 10
3.75901562856171
 20
2.93109916614504
 30
0.0
 11
3.67253207393101
 21
2.95027210861306
 31
0.0
  0
LINE
  8
9
  6
CONTINUOUS
 62
9
 10
3.67253207393101
 20
2.95027210861306
 30
0.0
 11
3.72021792146842
 21
2.93523681863784
 31
0.0
  0
LINE
  8
9
  6
CONTINUOUS
 62
9
 10
3.0690170174506
 20
2.93270194392282
 30
0.0
 11
2.9825334628199
 21
2.95187488639084
 31
0.0
  0
LINE
  8
9
  6
CONTINUOUS
 62
9
 10
2.9825334628199
 20
2.95187488639084
 30
0.0
 11
3.03021931035731
 21
2.93683959641562
 31
0.0
  0
LINE
  8
9
  6
CONTINUOUS
 62
9
 10
2.38077377842877
 20
2.93334384245432
 30
0.0
 11
2.315463294343
 21
2.99318987501228
 31
0.0
  0
LINE
  8
9
  6
CONTINUOUS
 62
9
 10
2.315463294343
 20
2.99318987501228
 30
0.0
 11
2.34924280472379
 21
2.95632600817177
 31
0.0
  0
LINE
  8
9
  6
CONTINUOUS
 62
9
 10
2.12016230047867
 20
3.18634774319227
 30
0.0
 11
2.23027795114132
 21
3.08449224025237
 31
0.0
  0
LINE
  8
9
  6
CONTINUOUS
 62
9
 10
2.23027795114132
 20
3.08449224025237
 30
0.0
 11
2.19667150602286
 21
3.12151394802632
 31
0.0
  0
LINE
  8
9
  6
CONTINUOUS
 62
9
 10
4.24638097949347
 20
2.0865968853094
 30
0.0
 11
4.27301850156622
 21
2.00211345875561
 31
0.0
  0
LINE
  8
9
  6
CONTINUOUS
 62
9
 10
4.27301850156622
 20
2.00211345875561
 30
0.0
 11
4.26219652086932
 21
2.05092825911161
 31
0.0
  0
LINE
  8
9
  6
CONTINUOUS
 62
9
 10
4.52568422465848
 20
0.8013127165506
 30
0.0
 11
4.59294845436019
 21
0.786407708891089
 31
0.0
  0
LINE
  8
9
  6
CONTINUOUS
 62
9
 10
4.59294845436019
 20
0.786407708891089
 30
0.0
 11
4.54526109156357
 21
0.801438192233398
 31
0.0
  0
LINE
  8
9
  6
CONTINUOUS
 62
9
 10
5.24517795280468
 20
0.696532276149759
 30
0.0
 11
5.26008296046419
 21
0.763796505851465
 31
0.0
  0
LINE
  8
9
  6
CONTINUOUS
 62
9
 10
5.26008296046419
 20
0.763796505851465
 30
0.0
 11
5.24505247712188
 21
0.716109143054844
 31
0.0
  0
LINE
  8
9
  6
CONTINUOUS
 62
9
 10
5.34840279373021
 20
1.41599190393984
 30
0.0
 11
5.28269775821278
 21
1.39526790436573
 31
0.0
  0
LINE
  8
9
  6
CONTINUOUS
 62
9
 10
5.28269775821278
 20
1.39526790436573
 30
0.0
 11
5.33151146750529
 21
1.40609480535844
 31
0.0
  0
LINE
  8
9
  6
CONTINUOUS
 62
9
 10
4.82156586610033
 20
1.32313268180653
 30
0.0
 11
4.74097315633064
 21
1.44964282026183
 31
0.0
  0
LINE
  8
9
  6
CONTINUOUS
 62
9
 10
4.74097315633064
 20
1.44964282026183
 30
0.0
 11
4.76405980469572
 21
1.40529187137381
 31
0.0
  0
LINE
  8
9
  6
CONTINUOUS
 62
9
 10
4.6360200104375
 20
1.5186467343891
 30
0.0
 11
4.66782640597781
 21
1.57976129119374
 31
0.0
  0
LINE
  8
9
  6
CONTINUOUS
 62
9
 10
4.66782640597781
 20
1.57976129119374
 30
0.0
 11
4.64096567623338
 21
1.53758901122695
 31
0.0
  0
LINE
  8
9
  6
CONTINUOUS
 62
9
 10
4.93917143374673
 20
2.08232149914597
 30
0.0
 11
5.02565498837744
 21
2.06314855667795
 31
0.0
  0
LINE
  8
9
  6
CONTINUOUS
 62
9
 10
5.02565498837744
 20
2.06314855667795
 30
0.0
 11
4.97796914084003
 21
2.07818384665317
 31
0.0
  0
LINE
  8
9
  6
CONTINUOUS
 62
9
 10
5.633951231885
 20
2.08455575546149
 30
0.0
 11
5.63008728115422
 21
2.17305477708995
 31
0.0
  0
LINE
  8
9
  6
CONTINUOUS
 62
9
 10
5.63008728115422
 20
2.17305477708995
 30
0.0
 11
5.62790631178596
 21
2.12310236601086
 31
0.0
  0
LINE
  8
9
  6
CONTINUOUS
 62
9
 10
5.6329420174506
 20
2.92082138836726
 30
0.0
 11
5.5464584628199
 21
2.93999433083528
 31
0.0
  0
LINE
  8
9
  6
CONTINUOUS
 62
9
 10
5.5464584628199
 20
2.93999433083528
 30
0.0
 11
5.59414431035731
 21
2.92495904086006
 31
0.0
  0
LINE
  8
9
  6
CONTINUOUS
 62
9
 10
4.94294340633949
 20
2.92242555503393
 30
0.0
 11
4.85645985170878
 21
2.94159849750195
 31
0.0
  0
LINE
  8
9
  6
CONTINUOUS
 62
9
 10
4.85645985170878
 20
2.94159849750195
 30
0.0
 11
4.90414569924619
 21
2.92656320752673
 31
0.0
  0
LINE
  8
9
  6
CONTINUOUS
 62
9
 10
4.25469877842877
 20
2.92306606467655
 30
0.0
 11
4.189388294343
 21
2.98291209723451
 31
0.0
  0
LINE
  8
9
  6
CONTINUOUS
 62
9
 10
4.189388294343
 20
2.98291209723451
 30
0.0
 11
4.22316780472379
 21
2.946048230394
 31
0.0
  0
LINE
  8
9
  6
CONTINUOUS
 62
9
 10
3.99408814464626
 20
3.17606939931357
 30
0.0
 11
4.10420408639022
 21
3.07421421106162
 31
0.0
  0
LINE
  8
9
  6
CONTINUOUS
 62
9
 10
4.10420408639022
 20
3.07421421106162
 30
0.0
 11
4.07059753547158
 21
3.11123582279521
 31
0.0
  0
LINE
  8
9
  6
CONTINUOUS
 62
9
 10
6.15220320171569
 20
2.09093855197607
 30
0.0
 11
6.17884072378844
 21
2.00645512542228
 31
0.0
  0
LINE
  8
9
  6
CONTINUOUS
 62
9
 10
6.17884072378844
 20
2.00645512542228
 30
0.0
 11
6.16801874309154
 21
2.05526992577828
 31
0.0
  0
LINE
  8
9
  6
CONTINUOUS
 62
9
 10
6.4315064468807
 20
0.805654383217266
 30
0.0
 11
6.49877067658241
 21
0.790749375557756
 31
0.0
  0
LINE
  8
9
  6
CONTINUOUS
 62
9
 10
6.49877067658241
 20
0.790749375557756
 30
0.0
 11
6.45108331378579
 21
0.805779858900065
 31
0.0
  0
LINE
  8
9
  6
CONTINUOUS
 62
9
 10
7.15100017502691
 20
0.700873942816425
 30
0.0
 11
7.16590518268642
 21
0.768138172518138
 31
0.0
  0
LINE
  8
9
  6
CONTINUOUS
 62
9
 10
7.16590518268642
 20
0.768138172518138
 30
0.0
 11
7.15087469934411
 21
0.720450809721516
 31
0.0
  0
LINE
  8
9
  6
CONTINUOUS
 62
9
 10
7.25422501595243
 20
1.4203335706065
 30
0.0
 11
7.188519980435
 21
1.39960957103239
 31
0.0
  0
LINE
  8
9
  6
CONTINUOUS
 62
9
 10
7.188519980435
 20
1.39960957103239
 30
0.0
 11
7.23733368972751
 21
1.4104364720251
 31
0.0
  0
LINE
  8
9
  6
CONTINUOUS
 62
9
 10
6.72738808832256
 20
1.3274743484732
 30
0.0
 11
6.64679537855286
 21
1.4539844869285
 31
0.0
  0
LINE
  8
9
  6
CONTINUOUS
 62
9
 10
6.64679537855286
 20
1.4539844869285
 30
0.0
 11
6.66988202691794
 21
1.40963353804048
 31
0.0
  0
LINE
  8
9
  6
CONTINUOUS
 62
9
 10
6.54184223265972
 20
1.52298840105576
 30
0.0
 11
6.57364862820003
 21
1.5841029578604
 31
0.0
  0
LINE
  8
9
  6
CONTINUOUS
 62
9
 10
6.57364862820003
 20
1.5841029578604
 30
0.0
 11
6.54678789845561
 21
1.54193067789361
 31
0.0
  0
LINE
  8
9
  6
CONTINUOUS
 62
9
 10
6.84499365596895
 20
2.08666316581263
 30
0.0
 11
6.93147721059966
 21
2.06749022334461
 31
0.0
  0
LINE
  8
9
  6
CONTINUOUS
 62
9
 10
6.93147721059966
 20
2.06749022334461
 30
0.0
 11
6.88379136306225
 21
2.08252551331983
 31
0.0
  0
LINE
  8
9
  6
CONTINUOUS
 62
9
 10
7.53977345410722
 20
2.08889742212816
 30
0.0
 11
7.53590950337644
 21
2.17739644375662
 31
0.0
  0
LINE
  8
9
  6
CONTINUOUS
 62
9
 10
7.53590950337644
 20
2.17739644375662
 30
0.0
 11
7.53372853400817
 21
2.12744403267752
 31
0.0
  0
LINE
  8
9
  6
CONTINUOUS
 62
9
 10
7.53876423967282
 20
2.92516305503393
 30
0.0
 11
7.45228068504212
 21
2.94433599750195
 31
0.0
  0
LINE
  8
9
  6
CONTINUOUS
 62
9
 10
7.45228068504212
 20
2.94433599750195
 30
0.0
 11
7.49996653257953
 21
2.92930070752673
 31
0.0
  0
LINE
  8
9
  6
CONTINUOUS
 62
9
 10
6.84876562856172
 20
2.9267672217006
 30
0.0
 11
6.76228207393101
 21
2.94594016416862
 31
0.0
  0
LINE
  8
9
  6
CONTINUOUS
 62
9
 10
6.76228207393101
 20
2.94594016416862
 30
0.0
 11
6.80996792146842
 21
2.9309048741934
 31
0.0
  0
LINE
  8
9
  6
CONTINUOUS
 62
9
 10
6.16052100065099
 20
2.92740773134321
 30
0.0
 11
6.09521051656523
 21
2.98725376390116
 31
0.0
  0
LINE
  8
9
  6
CONTINUOUS
 62
9
 10
6.09521051656523
 20
2.98725376390116
 30
0.0
 11
6.12899002694601
 21
2.95038989706066
 31
0.0
  0
LINE
  8
9
  6
CONTINUOUS
 62
9
 10
5.89991051770898
 20
3.1804112236738
 30
0.0
 11
6.01002637837032
 21
3.07855594776326
 31
0.0
  0
LINE
  8
9
  6
CONTINUOUS
 62
9
 10
6.01002637837032
 20
3.07855594776326
 30
0.0
 11
5.97641985692303
 21
3.11557758624959
 31
0.0
  0
ENDSEC
  0
EOF
