  0
SECTION
  2
HEADER
  9
$ACADVER
  1
AC1003
  9
$EXTMIN
 10
0.579031111186265
 20
3.43495803471029
  9
$EXTMAX
 10
8.39280729089481
 20
0.480396086413243
  9
$INSUNITS
 70
1
  9
$INSBASE
 10
4.48591920104054
 20
1.95767706056177
999
Created with OMAX LAYOUT for Windows. (www.omax.com) 3/25/2025
  0
ENDSEC
  0
SECTION
  2
TABLES
  0
TABLE
  2
LAYER
 70
    10
  0
LAYER
  2
0
 70
     0
 62
     7
  6
CONTINUOUS
  0
LAYER
  2
1
 70
     0
 62
     7
  6
CONTINUOUS
  0
LAYER
  2
2
 70
     0
 62
     7
  6
CONTINUOUS
  0
LAYER
  2
3
 70
     0
 62
     7
  6
CONTINUOUS
  0
LAYER
  2
4
 70
     0
 62
     7
  6
CONTINUOUS
  0
LAYER
  2
5
 70
     0
 62
     7
  6
CONTINUOUS
  0
LAYER
  2
6
 70
     0
 62
     7
  6
CONTINUOUS
  0
LAYER
  2
7
 70
     0
 62
     7
  6
CONTINUOUS
  0
LAYER
  2
8
 70
     0
 62
     7
  6
CONTINUOUS
  0
LAYER
  2
9
 70
     0
 62
     7
  6
CONTINUOUS
  0
LAYER
  2
10
 70
     0
 62
     7
  6
CONTINUOUS
  0
LAYER
  2
11
 70
     0
 62
     7
  6
CONTINUOUS
  0
LAYER
  2
12
 70
     0
 62
     7
  6
CONTINUOUS
  0
LAYER
  2
13
 70
     0
 62
     7
  6
CONTINUOUS
  0
LAYER
  2
14
 70
     0
 62
     7
  6
CONTINUOUS
  0
LAYER
  2
15
 70
     0
 62
     7
  6
CONTINUOUS
  0
LAYER
  2
16
 70
     0
 62
     7
  6
CONTINUOUS
  0
LAYER
  2
17
 70
     0
 62
     7
  6
CONTINUOUS
  0
LAYER
  2
18
 70
     0
 62
     7
  6
CONTINUOUS
  0
LAYER
  2
19
 70
     0
 62
     7
  6
CONTINUOUS
  0
LAYER
  2
20
 70
     0
 62
     7
  6
CONTINUOUS
  0
LAYER
  2
21
 70
     0
 62
     7
  6
CONTINUOUS
  0
LAYER
  2
22
 70
     0
 62
     7
  6
CONTINUOUS
  0
LAYER
  2
23
 70
     0
 62
     7
  6
CONTINUOUS
  0
LAYER
  2
24
 70
     0
 62
     7
  6
CONTINUOUS
  0
LAYER
  2
25
 70
     0
 62
     7
  6
CONTINUOUS
  0
LAYER
  2
26
 70
     0
 62
     7
  6
CONTINUOUS
  0
LAYER
  2
27
 70
     0
 62
     7
  6
CONTINUOUS
  0
LAYER
  2
28
 70
     0
 62
     7
  6
CONTINUOUS
  0
LAYER
  2
29
 70
     0
 62
     7
  6
CONTINUOUS
  0
LAYER
  2
30
 70
     0
 62
     7
  6
CONTINUOUS
  0
LAYER
  2
31
 70
     0
 62
     7
  6
CONTINUOUS
  0
ENDTAB
  0
ENDSEC
  0
SECTION
  2
ENTITIES
  0
LINE
  8
0
  6
CONTINUOUS
 62
0
 10
0.579084254797809
 20
0.480645668369966
 30
0.0
 11
1.51346477131904
 21
1.41839764599016
 31
0.0
  0
LINE
  8
0
  6
CONTINUOUS
 62
0
 10
1.56955476592658
 20
1.50153002255639
 30
0.0
 11
2.15528328157815
 21
2.32896420769198
 31
0.0
  0
LINE
  8
0
  6
CONTINUOUS
 62
0
 10
2.11626621267252
 20
2.32902252384872
 30
0.0
 11
1.46532481651179
 21
2.33656885570857
 31
0.0
  0
LINE
  8
0
  6
CONTINUOUS
 62
0
 10
1.42630774760616
 20
2.33662717186531
 30
0.0
 11
0.778674842433615
 21
2.33982288026641
 31
0.0
  0
LINE
  8
0
  6
CONTINUOUS
 62
0
 10
0.778733158590358
 20
2.37883994917204
 30
0.0
 11
0.783500476891931
 21
3.16906269574993
 31
0.0
  0
LINE
  8
0
  6
CONTINUOUS
 62
0
 10
0.822517545797563
 20
3.16900437959319
 30
0.0
 11
1.47345894195826
 21
3.16145804773337
 31
0.0
  0
LINE
  8
0
  6
CONTINUOUS
 62
0
 10
1.5124760108639
 20
3.16139973157663
 30
0.0
 11
2.16627792967312
 21
3.15460660159012
 31
0.0
  0
LINE
  8
0
  6
CONTINUOUS
 62
0
 10
2.1939083994282
 20
3.18215459984543
 30
0.0
 11
2.41655964768363
 21
3.4188946584561
 31
0.0
  0
LINE
  8
0
  6
CONTINUOUS
 62
0
 10
2.35124233610697
 20
3.34279782319324
 30
0.0
 11
2.76124651054056
 21
3.19721610361119
 31
0.0
  0
LINE
  8
0
  6
CONTINUOUS
 62
0
 10
2.76118819438381
 20
3.15819903470556
 30
0.0
 11
2.7523227828885
 21
2.36268320888932
 31
0.0
  0
LINE
  8
0
  6
CONTINUOUS
 62
0
 10
2.77178081406812
 20
2.32886427795746
 30
0.0
 11
3.45505621510247
 21
1.46347647900676
 31
0.0
  0
LINE
  8
0
  6
CONTINUOUS
 62
0
 10
3.46206538704761
 20
1.56351622629386
 30
0.0
 11
3.44968783213671
 21
2.35602101665227
 31
0.0
  0
LINE
  8
0
  6
CONTINUOUS
 62
0
 10
3.44974614829345
 20
2.3950380855579
 30
0.0
 11
3.45451346659503
 21
3.18526083213585
 31
0.0
  0
LINE
  8
0
  6
CONTINUOUS
 62
0
 10
3.49353053550066
 20
3.18520251597911
 30
0.0
 11
4.14116344067322
 21
3.18200680757801
 31
0.0
  0
LINE
  8
0
  6
CONTINUOUS
 62
0
 10
4.14110512451648
 20
3.14298973867239
 30
0.0
 11
4.13529567374428
 21
2.34510787764754
 31
0.0
  0
LINE
  8
0
  6
CONTINUOUS
 62
0
 10
4.17431274264991
 20
2.34504956149079
 30
0.0
 11
4.47028608183745
 21
2.31189023532208
 31
0.0
  0
LINE
  8
0
  6
CONTINUOUS
 62
0
 10
4.37029117965135
 20
2.30426796102786
 30
0.0
 11
7.37235120953835
 21
1.50977610597702
 31
0.0
  0
LINE
  8
0
  6
CONTINUOUS
 62
0
 10
7.32840145685879
 20
1.5999176544884
 30
0.0
 11
6.72666405080224
 21
3.24047104895737
 31
0.0
  0
LINE
  8
0
  6
CONTINUOUS
 62
0
 10
6.76568111970787
 20
3.24041273280063
 30
0.0
 11
7.41662251586857
 21
3.23286640094081
 31
0.0
  0
LINE
  8
0
  6
CONTINUOUS
 62
0
 10
7.4556395847742
 20
3.23280808478407
 30
0.0
 11
8.10327248994676
 21
3.22961237638297
 31
0.0
  0
LINE
  8
0
  6
CONTINUOUS
 62
0
 10
8.10321417379001
 20
3.19059530747735
 30
0.0
 11
8.09844685548846
 21
2.40037256089942
 31
0.0
  0
LINE
  8
0
  6
CONTINUOUS
 62
0
 10
8.05942978658283
 20
2.40043087705616
 30
0.0
 11
7.4084883904221
 21
2.40797720891601
 31
0.0
  0
LINE
  8
0
  6
CONTINUOUS
 62
0
 10
7.36947132151647
 20
2.40803552507276
 30
0.0
 11
6.71752100811062
 21
2.41558622980002
 31
0.0
  0
LINE
  8
0
  6
CONTINUOUS
 62
0
 10
6.67981832025657
 20
2.40554419836506
 30
0.0
 11
6.38265998847511
 21
2.3690011534468
 31
0.0
  0
LINE
  8
0
  6
CONTINUOUS
 62
0
 10
6.48265489066121
 20
2.37662342774102
 30
0.0
 11
5.45724280263533
 21
1.4792389456806
 31
0.0
  0
LINE
  8
0
  6
CONTINUOUS
 62
0
 10
5.48990533470319
 20
1.57405581405084
 30
0.0
 11
6.12656858876877
 21
3.20911808296864
 31
0.0
  0
LINE
  8
0
  6
CONTINUOUS
 62
0
 10
6.08755151986314
 20
3.20917639912538
 30
0.0
 11
5.43661012370244
 21
3.21672273098526
 31
0.0
  0
LINE
  8
0
  6
CONTINUOUS
 62
0
 10
5.3975930547968
 20
3.216781047142
 30
0.0
 11
4.74230103517732
 21
3.22101888801367
 31
0.0
  0
LINE
  8
0
  6
CONTINUOUS
 62
0
 10
4.74224271902058
 20
3.18200181910804
 30
0.0
 11
4.73643326824837
 21
2.38411995808323
 31
0.0
  0
LINE
  8
0
  6
CONTINUOUS
 62
0
 10
4.775450337154
 20
2.38406164192648
 30
0.0
 11
5.4263917333147
 21
2.37651531006661
 31
0.0
  0
LINE
  8
0
  6
CONTINUOUS
 62
0
 10
5.46540880222033
 20
2.37645699390986
 30
0.0
 11
6.11635019838105
 21
2.36891066205002
 31
0.0
  0
LINE
  8
0
  6
CONTINUOUS
 62
0
 10
6.15536726728668
 20
2.36885234589327
 30
0.0
 11
6.45134060647421
 21
2.33569301972456
 31
0.0
  0
LINE
  8
0
  6
CONTINUOUS
 62
0
 10
6.35134570428811
 20
2.32807074543034
 30
0.0
 11
8.39280729089481
 21
0.480645668369966
 31
0.0
  0
LINE
  8
0
  6
CONTINUOUS
 62
0
 10
2.3047864149908
 20
0.700113919596689
 30
0.0
 11
2.27336193279703
 21
0.661223021961726
 31
0.0
  0
LINE
  8
0
  6
CONTINUOUS
 62
0
 10
4.26602450583536
 20
0.698963722433247
 30
0.0
 11
4.23345998479505
 21
0.661022294291767
 31
0.0
  0
LINE
  8
0
  6
CONTINUOUS
 62
0
 10
6.20100894986059
 20
0.670089550732907
 30
0.0
 11
6.16604234377452
 21
0.634349706597524
 31
0.0
  0
LINE
  8
0
  6
CONTINUOUS
 62
0
 10
8.07222838378585
 20
0.591634711552052
 30
0.0
 11
8.03262091519992
 21
0.56111834820032
 31
0.0
  0
ARC
  8
3
  6
CONTINUOUS
 62
3
 10
1.45403158368719
 20
1.35539655894811
 30
0.0
 40
0.236220599972356
 50
51.0016685881081
 51
126.001668598398
  0
ARC
  8
3
  6
CONTINUOUS
 62
3
 10
1.45403158368628
 20
1.35539655891328
 30
0.0
 40
0.236220599999999
 50
126.001668593253
 51
306.001668593253
  0
ARC
  8
3
  6
CONTINUOUS
 62
3
 10
1.45403158371301
 20
1.35539655891258
 30
0.0
 40
0.236220599983723
 50
306.001668588108
 51
51.0016685983979
  0
ARC
  8
3
  6
CONTINUOUS
 62
3
 10
2.15476221534283
 20
2.32513465046852
 30
0.0
 40
0.0885827249999982
 50
171.001668593253
 51
306.001668593253
  0
ARC
  8
3
  6
CONTINUOUS
 62
3
 10
2.15476221534283
 20
2.32513465046852
 30
0.0
 40
0.0885827249999982
 50
306.001668593253
 51
126.001668593253
  0
ARC
  8
3
  6
CONTINUOUS
 62
3
 10
2.15476221532511
 20
2.32513465047938
 30
0.0
 40
0.0885827249807947
 50
126.001668588108
 51
171.001668598398
  0
ARC
  8
3
  6
CONTINUOUS
 62
3
 10
1.46480375027648
 20
2.33273929848511
 30
0.0
 40
0.0885827250000017
 50
171.001668593253
 51
306.001668593253
  0
ARC
  8
3
  6
CONTINUOUS
 62
3
 10
1.46480375027648
 20
2.33273929848511
 30
0.0
 40
0.0885827250000017
 50
306.001668593253
 51
126.001668593253
  0
ARC
  8
3
  6
CONTINUOUS
 62
3
 10
1.46480375025875
 20
2.33273929849597
 30
0.0
 40
0.0885827249807984
 50
126.001668588108
 51
171.001668598398
  0
ARC
  8
3
  6
CONTINUOUS
 62
3
 10
0.774845285205299
 20
2.34034394652194
 30
0.0
 40
0.0885827249807986
 50
81.0016685881078
 51
126.001668598398
  0
ARC
  8
3
  6
CONTINUOUS
 62
3
 10
0.774845285210152
 20
2.34034394650173
 30
0.0
 40
0.088582725000002
 50
126.001668593253
 51
306.001668593253
  0
ARC
  8
3
  6
CONTINUOUS
 62
3
 10
0.774845285218525
 20
2.34034394650374
 30
0.0
 40
0.0885827249967071
 50
306.001668588108
 51
81.0016685983979
  0
ARC
  8
3
  6
CONTINUOUS
 62
3
 10
0.784021543131748
 20
3.17289225298074
 30
0.0
 40
0.0885827249967071
 50
351.001668588108
 51
126.001668598398
  0
ARC
  8
3
  6
CONTINUOUS
 62
3
 10
0.784021543127248
 20
3.17289225297339
 30
0.0
 40
0.0885827250000019
 50
126.001668593253
 51
306.001668593253
  0
ARC
  8
3
  6
CONTINUOUS
 62
3
 10
0.784021543144973
 20
3.17289225296253
 30
0.0
 40
0.0885827249807983
 50
306.001668588108
 51
351.001668598397
  0
ARC
  8
3
  6
CONTINUOUS
 62
3
 10
1.47398000819808
 20
3.16528760496418
 30
0.0
 40
0.0885827249967072
 50
351.001668588108
 51
126.001668598398
  0
ARC
  8
3
  6
CONTINUOUS
 62
3
 10
1.47398000819358
 20
3.16528760495683
 30
0.0
 40
0.088582725000002
 50
126.001668593253
 51
306.001668593253
  0
ARC
  8
3
  6
CONTINUOUS
 62
3
 10
1.47398000821131
 20
3.16528760494597
 30
0.0
 40
0.0885827249807987
 50
306.001668588108
 51
351.001668598398
  0
ARC
  8
3
  6
CONTINUOUS
 62
3
 10
2.16393847326167
 20
3.15768295695133
 30
0.0
 40
0.088582724992044
 50
36.0016685881079
 51
126.001668598398
  0
ARC
  8
3
  6
CONTINUOUS
 62
3
 10
2.16393847325991
 20
3.15768295694021
 30
0.0
 40
0.0885827249999984
 50
126.001668593253
 51
306.001668593252
  0
ARC
  8
3
  6
CONTINUOUS
 62
3
 10
2.16393847327102
 20
3.15768295693846
 30
0.0
 40
0.088582724992044
 50
306.001668588108
 51
36.0016685983978
  0
ARC
  8
3
  6
CONTINUOUS
 62
3
 10
2.22465124141495
 20
3.22201777048567
 30
0.0
 40
0.12500006749719
 50
359.368517650468
 51
44.3685176504689
  0
LINE
  8
3
  6
CONTINUOUS
 62
3
 10
2.34964371696766
 20
3.22064011686232
 30
0.0
 11
2.32897891257473
 21
1.34575298352992
 31
0.0
  0
ARC
  8
3
  6
CONTINUOUS
 62
3
 10
1.45403158368628
 20
1.35539655891325
 30
0.0
 40
0.875000472500016
 50
179.368517649176
 51
317.785393913345
  0
LINE
  8
3
  6
CONTINUOUS
 62
3
 10
0.57908425479782
 20
1.36504013429663
 30
0.0
 11
0.599749059190743
 21
3.23992726762903
 31
0.0
  0
ARC
  8
3
  6
CONTINUOUS
 62
3
 10
0.724741534746226
 20
3.23854961400286
 30
0.0
 40
0.125000067499989
 50
89.3685176491839
 51
179.368517649186
  0
LINE
  8
3
  6
CONTINUOUS
 62
3
 10
0.726119188372405
 20
3.36354208955834
 30
0.0
 11
2.22602889503835
 21
3.347010246044
 31
0.0
  0
ARC
  8
3
  6
CONTINUOUS
 62
3
 10
2.2246512414082
 20
3.22201777048855
 30
0.0
 40
0.125000067499996
 50
44.3685176473636
 51
89.3685176473638
  0
ARC
  8
3
  6
CONTINUOUS
 62
3
 10
2.76507606776887
 20
3.19669503735566
 30
0.0
 40
0.0885827249807983
 50
261.001668588108
 51
306.001668598398
  0
ARC
  8
3
  6
CONTINUOUS
 62
3
 10
2.76507606776402
 20
3.19669503737587
 30
0.0
 40
0.0885827250000019
 50
306.001668593253
 51
126.001668593253
  0
ARC
  8
3
  6
CONTINUOUS
 62
3
 10
2.76507606776402
 20
3.19669503737587
 30
0.0
 40
0.0885827250000019
 50
126.001668593253
 51
261.001668593253
  0
ARC
  8
3
  6
CONTINUOUS
 62
3
 10
2.755899809876
 20
2.36414673085065
 30
0.0
 40
0.0885827249395826
 50
291.001668588108
 51
306.001668598398
  0
ARC
  8
3
  6
CONTINUOUS
 62
3
 10
2.75589980984692
 20
2.36414673090421
 30
0.0
 40
0.0885827250000021
 50
306.001668593253
 51
126.001668593253
  0
ARC
  8
3
  6
CONTINUOUS
 62
3
 10
2.75589980984692
 20
2.36414673090421
 30
0.0
 40
0.088582725000002
 50
126.001668593253
 51
291.001668593253
  0
ARC
  8
3
  6
CONTINUOUS
 62
3
 10
3.43508610831011
 20
1.37919934336966
 30
0.0
 40
0.23622059994879
 50
81.0016685881081
 51
126.001668598398
  0
ARC
  8
3
  6
CONTINUOUS
 62
3
 10
3.43508610832305
 20
1.37919934331576
 30
0.0
 40
0.236220599999999
 50
126.001668593253
 51
306.001668593253
  0
ARC
  8
3
  6
CONTINUOUS
 62
3
 10
3.43508610834538
 20
1.37919934332112
 30
0.0
 40
0.236220599991213
 50
306.001668588108
 51
81.001668598398
  0
ARC
  8
3
  6
CONTINUOUS
 62
3
 10
3.44585827490839
 20
2.3565420829078
 30
0.0
 40
0.0885827249807983
 50
81.0016685881086
 51
126.001668598398
  0
ARC
  8
3
  6
CONTINUOUS
 62
3
 10
3.44585827491324
 20
2.35654208288759
 30
0.0
 40
0.0885827250000018
 50
126.001668593253
 51
306.001668593253
  0
ARC
  8
3
  6
CONTINUOUS
 62
3
 10
3.44585827492162
 20
2.3565420828896
 30
0.0
 40
0.088582724996707
 50
306.001668588108
 51
81.0016685983984
  0
ARC
  8
3
  6
CONTINUOUS
 62
3
 10
3.45503453283485
 20
3.18909038936666
 30
0.0
 40
0.0885827249967073
 50
351.001668588108
 51
126.001668598398
  0
ARC
  8
3
  6
CONTINUOUS
 62
3
 10
3.45503453283035
 20
3.18909038935931
 30
0.0
 40
0.088582725000002
 50
126.001668593253
 51
306.001668593253
  0
ARC
  8
3
  6
CONTINUOUS
 62
3
 10
3.45503453284807
 20
3.18909038934845
 30
0.0
 40
0.0885827249807987
 50
306.001668588107
 51
351.001668598397
  0
ARC
  8
3
  6
CONTINUOUS
 62
3
 10
4.14499299790153
 20
3.18148574132248
 30
0.0
 40
0.0885827249807949
 50
261.001668588108
 51
306.001668598397
  0
ARC
  8
3
  6
CONTINUOUS
 62
3
 10
4.14499299789668
 20
3.1814857413427
 30
0.0
 40
0.0885827249999984
 50
306.001668593252
 51
126.001668593253
  0
ARC
  8
3
  6
CONTINUOUS
 62
3
 10
4.14499299789668
 20
3.18148574134269
 30
0.0
 40
0.0885827249999982
 50
126.001668593252
 51
261.001668593253
  0
ARC
  8
3
  6
CONTINUOUS
 62
3
 10
4.1358167399841
 20
2.34893743487834
 30
0.0
 40
0.0885827249967037
 50
351.001668588108
 51
126.001668598398
  0
ARC
  8
3
  6
CONTINUOUS
 62
3
 10
4.1358167399796
 20
2.348937434871
 30
0.0
 40
0.0885827249999983
 50
126.001668593253
 51
306.001668593253
  0
ARC
  8
3
  6
CONTINUOUS
 62
3
 10
4.13581673999732
 20
2.34893743486014
 30
0.0
 40
0.088582724980795
 50
306.001668588108
 51
351.001668598397
  0
LINE
  8
3
  6
CONTINUOUS
 62
3
 10
4.32036583940797
 20
2.3069993345986
 30
0.0
 11
4.3100334372115
 21
1.3695557679324
 31
0.0
  0
ARC
  8
3
  6
CONTINUOUS
 62
3
 10
3.43508610832305
 20
1.37919934331573
 30
0.0
 40
0.875000472500016
 50
179.368517649176
 51
316.085207939695
  0
LINE
  8
3
  6
CONTINUOUS
 62
3
 10
2.56013877943459
 20
1.38884291869911
 30
0.0
 11
2.58080358382751
 21
3.26373005203151
 31
0.0
  0
ARC
  8
3
  6
CONTINUOUS
 62
3
 10
2.705796059383
 20
3.26235239840534
 30
0.0
 40
0.125000067499989
 50
89.3685176491839
 51
179.368517649186
  0
LINE
  8
3
  6
CONTINUOUS
 62
3
 10
2.70717371300917
 20
3.38734487396082
 30
0.0
 11
4.20708341967512
 21
3.37081303044648
 31
0.0
  0
ARC
  8
3
  6
CONTINUOUS
 62
3
 10
4.20570576604894
 20
3.24582055489099
 30
0.0
 40
0.125000067499996
 50
359.368517649182
 51
89.3685176491828
  0
LINE
  8
3
  6
CONTINUOUS
 62
3
 10
4.33069824160443
 20
3.2444429012648
 30
0.0
 11
4.32036583940797
 21
2.3069993345986
 31
0.0
  0
ARC
  8
3
  6
CONTINUOUS
 62
3
 10
7.39719515751904
 20
1.42680491226353
 30
0.0
 40
0.23622059983888
 50
111.001668588108
 51
126.001668598398
  0
ARC
  8
3
  6
CONTINUOUS
 62
3
 10
7.39719515759658
 20
1.42680491212072
 30
0.0
 40
0.236220599999999
 50
126.001668593253
 51
306.001668593253
  0
ARC
  8
3
  6
CONTINUOUS
 62
3
 10
7.39719515761539
 20
1.42680491213093
 30
0.0
 40
0.236220599997206
 50
306.001668588108
 51
111.001668598398
  0
ARC
  8
3
  6
CONTINUOUS
 62
3
 10
6.72718511704205
 20
3.24430060618818
 30
0.0
 40
0.0885827249967069
 50
351.001668588108
 51
126.001668598398
  0
ARC
  8
3
  6
CONTINUOUS
 62
3
 10
6.72718511703755
 20
3.24430060618084
 30
0.0
 40
0.0885827250000019
 50
126.001668593253
 51
306.001668593253
  0
ARC
  8
3
  6
CONTINUOUS
 62
3
 10
6.72718511705528
 20
3.24430060616998
 30
0.0
 40
0.0885827249807982
 50
306.001668588108
 51
351.001668598398
  0
ARC
  8
3
  6
CONTINUOUS
 62
3
 10
7.41714358210839
 20
3.23669595817162
 30
0.0
 40
0.0885827249967076
 50
351.001668588108
 51
126.001668598398
  0
ARC
  8
3
  6
CONTINUOUS
 62
3
 10
7.41714358210389
 20
3.23669595816428
 30
0.0
 40
0.0885827250000023
 50
126.001668593253
 51
306.001668593253
  0
ARC
  8
3
  6
CONTINUOUS
 62
3
 10
7.41714358212161
 20
3.23669595815342
 30
0.0
 40
0.0885827249807987
 50
306.001668588107
 51
351.001668598397
  0
ARC
  8
3
  6
CONTINUOUS
 62
3
 10
8.10710204717507
 20
3.22909131012745
 30
0.0
 40
0.0885827249807952
 50
261.001668588109
 51
306.001668598398
  0
ARC
  8
3
  6
CONTINUOUS
 62
3
 10
8.10710204717022
 20
3.22909131014766
 30
0.0
 40
0.0885827249999987
 50
306.001668593253
 51
126.001668593253
  0
ARC
  8
3
  6
CONTINUOUS
 62
3
 10
8.10710204717022
 20
3.22909131014766
 30
0.0
 40
0.0885827249999992
 50
126.001668593253
 51
261.001668593253
  0
ARC
  8
3
  6
CONTINUOUS
 62
3
 10
8.09792578925314
 20
2.39654300367596
 30
0.0
 40
0.0885827249999981
 50
171.001668593252
 51
306.001668593252
  0
ARC
  8
3
  6
CONTINUOUS
 62
3
 10
8.09792578925314
 20
2.39654300367596
 30
0.0
 40
0.0885827249999981
 50
306.001668593252
 51
126.001668593253
  0
ARC
  8
3
  6
CONTINUOUS
 62
3
 10
8.09792578923541
 20
2.39654300368682
 30
0.0
 40
0.0885827249807945
 50
126.001668588108
 51
171.001668598398
  0
ARC
  8
3
  6
CONTINUOUS
 62
3
 10
7.40796732418678
 20
2.40414765169255
 30
0.0
 40
0.0885827250000019
 50
171.001668593253
 51
306.001668593253
  0
ARC
  8
3
  6
CONTINUOUS
 62
3
 10
7.40796732418678
 20
2.40414765169255
 30
0.0
 40
0.0885827250000021
 50
306.001668593253
 51
126.001668593253
  0
ARC
  8
3
  6
CONTINUOUS
 62
3
 10
7.40796732416906
 20
2.40414765170341
 30
0.0
 40
0.0885827249807981
 50
126.001668588108
 51
171.001668598398
  0
ARC
  8
3
  6
CONTINUOUS
 62
3
 10
6.71800885911672
 20
2.41175229970078
 30
0.0
 40
0.0885827249954095
 50
186.001668588108
 51
306.001668598398
  0
ARC
  8
3
  6
CONTINUOUS
 62
3
 10
6.71800885912046
 20
2.41175229970917
 30
0.0
 40
0.0885827250000021
 50
306.001668593253
 51
126.001668593253
  0
ARC
  8
3
  6
CONTINUOUS
 62
3
 10
6.71800885912046
 20
2.41175229970917
 30
0.0
 40
0.0885827250000022
 50
126.001668593254
 51
186.001668593254
  0
LINE
  8
3
  6
CONTINUOUS
 62
3
 10
6.53258023090459
 20
2.37389205417028
 30
0.0
 11
6.54291263310105
 21
3.31133562083648
 31
0.0
  0
ARC
  8
3
  6
CONTINUOUS
 62
3
 10
6.66790510865653
 20
3.3099579672103
 30
0.0
 40
0.125000067499989
 50
89.3685176491839
 51
179.368517649186
  0
LINE
  8
3
  6
CONTINUOUS
 62
3
 10
6.66928276228271
 20
3.43495044276579
 30
0.0
 11
8.16919246894866
 21
3.41841859925144
 31
0.0
  0
ARC
  8
3
  6
CONTINUOUS
 62
3
 10
8.16781481532248
 20
3.29342612369595
 30
0.0
 40
0.125000067499997
 50
359.368517649182
 51
89.368517649183
  0
LINE
  8
3
  6
CONTINUOUS
 62
3
 10
8.29280729087797
 20
3.29204847006977
 30
0.0
 11
8.27214248648504
 21
1.41716133673736
 31
0.0
  0
ARC
  8
3
  6
CONTINUOUS
 62
3
 10
7.39719515759659
 20
1.42680491212069
 30
0.0
 40
0.875000472500015
 50
179.368517649176
 51
304.337343076179
  0
LINE
  8
3
  6
CONTINUOUS
 62
3
 10
6.52224782870813
 20
1.43644848750408
 30
0.0
 11
6.53258023090459
 21
2.37389205417028
 31
0.0
  0
ARC
  8
3
  6
CONTINUOUS
 62
3
 10
5.41614063295538
 20
1.40300212776043
 30
0.0
 40
0.23622059996326
 50
66.0016685881081
 51
126.001668598398
  0
ARC
  8
3
  6
CONTINUOUS
 62
3
 10
5.41614063295982
 20
1.40300212771824
 30
0.0
 40
0.2362206
 50
126.001668593253
 51
306.001668593253
  0
ARC
  8
3
  6
CONTINUOUS
 62
3
 10
5.41614063298418
 20
1.4030021277208
 30
0.0
 40
0.236220599987753
 50
306.001668588108
 51
66.001668598398
  0
ARC
  8
3
  6
CONTINUOUS
 62
3
 10
6.12604752253345
 20
3.20528852574518
 30
0.0
 40
0.0885827249999987
 50
171.001668593253
 51
306.001668593253
  0
ARC
  8
3
  6
CONTINUOUS
 62
3
 10
6.12604752253345
 20
3.20528852574518
 30
0.0
 40
0.0885827249999987
 50
306.001668593253
 51
126.001668593253
  0
ARC
  8
3
  6
CONTINUOUS
 62
3
 10
6.12604752251573
 20
3.20528852575604
 30
0.0
 40
0.0885827249807952
 50
126.001668588108
 51
171.001668598398
  0
ARC
  8
3
  6
CONTINUOUS
 62
3
 10
5.43608905746712
 20
3.21289317376179
 30
0.0
 40
0.0885827250000017
 50
171.001668593252
 51
306.001668593253
  0
ARC
  8
3
  6
CONTINUOUS
 62
3
 10
5.43608905746712
 20
3.21289317376179
 30
0.0
 40
0.0885827250000019
 50
306.001668593253
 51
126.001668593253
  0
ARC
  8
3
  6
CONTINUOUS
 62
3
 10
5.4360890574494
 20
3.21289317377265
 30
0.0
 40
0.0885827249807981
 50
126.001668588108
 51
171.001668598398
  0
ARC
  8
3
  6
CONTINUOUS
 62
3
 10
4.74613059240564
 20
3.22049782175814
 30
0.0
 40
0.0885827249807985
 50
261.001668588108
 51
306.001668598398
  0
ARC
  8
3
  6
CONTINUOUS
 62
3
 10
4.74613059240079
 20
3.22049782177836
 30
0.0
 40
0.0885827250000021
 50
306.001668593253
 51
126.001668593253
  0
ARC
  8
3
  6
CONTINUOUS
 62
3
 10
4.74613059240079
 20
3.22049782177835
 30
0.0
 40
0.0885827250000024
 50
126.001668593253
 51
261.001668593253
  0
ARC
  8
3
  6
CONTINUOUS
 62
3
 10
4.73695433448819
 20
2.38794951531403
 30
0.0
 40
0.0885827249967069
 50
351.001668588108
 51
126.001668598398
  0
ARC
  8
3
  6
CONTINUOUS
 62
3
 10
4.73695433448369
 20
2.38794951530669
 30
0.0
 40
0.0885827250000019
 50
126.001668593253
 51
306.001668593253
  0
ARC
  8
3
  6
CONTINUOUS
 62
3
 10
4.73695433450141
 20
2.38794951529583
 30
0.0
 40
0.0885827249807982
 50
306.001668588108
 51
351.001668598398
  0
ARC
  8
3
  6
CONTINUOUS
 62
3
 10
5.42691279955451
 20
2.38034486729741
 30
0.0
 40
0.0885827249967067
 50
351.001668588108
 51
126.001668598398
  0
ARC
  8
3
  6
CONTINUOUS
 62
3
 10
5.42691279955001
 20
2.38034486729007
 30
0.0
 40
0.0885827250000017
 50
126.001668593253
 51
306.001668593253
  0
ARC
  8
3
  6
CONTINUOUS
 62
3
 10
5.42691279956774
 20
2.38034486727921
 30
0.0
 40
0.0885827249807982
 50
306.001668588108
 51
351.001668598398
  0
ARC
  8
3
  6
CONTINUOUS
 62
3
 10
6.11687126462087
 20
2.37274021928082
 30
0.0
 40
0.0885827249967031
 50
351.001668588107
 51
126.001668598398
  0
ARC
  8
3
  6
CONTINUOUS
 62
3
 10
6.11687126461637
 20
2.37274021927348
 30
0.0
 40
0.088582724999998
 50
126.001668593252
 51
306.001668593252
  0
ARC
  8
3
  6
CONTINUOUS
 62
3
 10
6.11687126463409
 20
2.37274021926262
 30
0.0
 40
0.0885827249807945
 50
306.001668588107
 51
351.001668598397
  0
LINE
  8
3
  6
CONTINUOUS
 62
3
 10
6.30142036404474
 20
2.33080211900108
 30
0.0
 11
6.29108796184827
 21
1.39335855233488
 31
0.0
  0
ARC
  8
3
  6
CONTINUOUS
 62
3
 10
5.41614063295982
 20
1.40300212771821
 30
0.0
 40
0.875000472500016
 50
179.368517649176
 51
312.350728247552
  0
LINE
  8
3
  6
CONTINUOUS
 62
3
 10
4.54119330407136
 20
1.41264570310159
 30
0.0
 11
4.56185810846428
 21
3.28753283643399
 31
0.0
  0
ARC
  8
3
  6
CONTINUOUS
 62
3
 10
4.68685058401976
 20
3.28615518280782
 30
0.0
 40
0.125000067499989
 50
89.3685176491837
 51
179.368517649186
  0
LINE
  8
3
  6
CONTINUOUS
 62
3
 10
4.68822823764594
 20
3.4111476583633
 30
0.0
 11
6.18813794431189
 21
3.39461581484896
 31
0.0
  0
ARC
  8
3
  6
CONTINUOUS
 62
3
 10
6.18676029068571
 20
3.26962333929347
 30
0.0
 40
0.125000067499996
 50
359.368517649182
 51
89.3685176491829
  0
LINE
  8
3
  6
CONTINUOUS
 62
3
 10
6.3117527662412
 20
3.26824568566729
 30
0.0
 11
6.30142036404474
 21
2.33080211900108
 31
0.0
  0
LINE
  8
3
  6
CONTINUOUS
 62
3
 10
2.16493506554826
 20
0.84525729718979
 30
0.0
 11
2.20070786493056
 21
0.808130841499493
 31
0.0
  0
LINE
  8
3
  6
CONTINUOUS
 62
3
 10
2.10208610116071
 20
0.767475501919864
 30
0.0
 11
2.14589701888564
 21
0.740297010868076
 31
0.0
  0
ARC
  8
3
  6
CONTINUOUS
 62
3
 10
1.45403158368629
 20
1.35539655891326
 30
0.0
 40
0.875000472500014
 50
324.337048291188
 51
359.368517649176
  0
LINE
  8
3
  6
CONTINUOUS
 62
3
 10
4.13054105378954
 20
0.848192520665178
 30
0.0
 11
4.16519658174096
 21
0.810021048723837
 31
0.0
  0
LINE
  8
3
  6
CONTINUOUS
 62
3
 10
4.06541201170892
 20
0.772309664382218
 30
0.0
 11
4.1083972703551
 21
0.743843290765564
 31
0.0
  0
ARC
  8
3
  6
CONTINUOUS
 62
3
 10
3.43508610832306
 20
1.37919934331575
 30
0.0
 40
0.875000472500014
 50
322.636862317539
 51
359.368517649176
  0
LINE
  8
3
  6
CONTINUOUS
 62
3
 10
6.07553287635943
 20
0.827825897142169
 30
0.0
 11
6.1076286010163
 21
0.787478265904847
 31
0.0
  0
LINE
  8
3
  6
CONTINUOUS
 62
3
 10
6.00559966418729
 20
0.756346208871403
 30
0.0
 11
6.0466395526985
 21
0.725140529279426
 31
0.0
  0
ARC
  8
3
  6
CONTINUOUS
 62
3
 10
5.41614063295983
 20
1.40300212771823
 30
0.0
 40
0.875000472500014
 50
318.902382625395
 51
359.368517649176
  0
LINE
  8
3
  6
CONTINUOUS
 62
3
 10
7.96996666467735
 20
0.765322767575828
 30
0.0
 11
7.99612435265662
 21
0.720894823132851
 31
0.0
  0
LINE
  8
3
  6
CONTINUOUS
 62
3
 10
7.8907517275055
 20
0.704290040872363
 30
0.0
 11
7.92704067294709
 21
0.66766792560836
 31
0.0
  0
ARC
  8
3
  6
CONTINUOUS
 62
3
 10
7.3971951575966
 20
1.42680491212071
 30
0.0
 40
0.875000472500013
 50
310.888997454022
 51
359.368517649176
  0
LINE
  8
9
  6
CONTINUOUS
 62
9
 10
1.51346477131904
 20
1.41839764599016
 30
0.0
 11
1.60268467775219
 21
1.5389787734358
 31
0.0
  0
LINE
  8
9
  6
CONTINUOUS
 62
9
 10
1.60268467775219
 20
1.5389787734358
 30
0.0
 11
1.56955476592658
 21
1.50153002255639
 31
0.0
  0
LINE
  8
9
  6
CONTINUOUS
 62
9
 10
2.15528328157815
 20
2.32896420769198
 30
0.0
 11
2.06726968715816
 21
2.33898949367513
 31
0.0
  0
LINE
  8
9
  6
CONTINUOUS
 62
9
 10
2.06726968715816
 20
2.33898949367513
 30
0.0
 11
2.11626621267252
 21
2.32902252384872
 31
0.0
  0
LINE
  8
9
  6
CONTINUOUS
 62
9
 10
1.46532481651179
 20
2.33656885570857
 30
0.0
 11
1.3773112220918
 21
2.34659414169172
 31
0.0
  0
LINE
  8
9
  6
CONTINUOUS
 62
9
 10
1.3773112220918
 20
2.34659414169172
 30
0.0
 11
1.42630774760616
 21
2.33662717186531
 31
0.0
  0
LINE
  8
9
  6
CONTINUOUS
 62
9
 10
0.778674842433615
 20
2.33982288026641
 30
0.0
 11
0.788700128416769
 21
2.4278364746864
 31
0.0
  0
LINE
  8
9
  6
CONTINUOUS
 62
9
 10
0.788700128416769
 20
2.4278364746864
 30
0.0
 11
0.778733158590358
 21
2.37883994917204
 31
0.0
  0
LINE
  8
9
  6
CONTINUOUS
 62
9
 10
0.783500476891931
 20
3.16906269574993
 30
0.0
 11
0.871514071311923
 21
3.15903740976678
 31
0.0
  0
LINE
  8
9
  6
CONTINUOUS
 62
9
 10
0.871514071311923
 20
3.15903740976678
 30
0.0
 11
0.822517545797563
 21
3.16900437959319
 31
0.0
  0
LINE
  8
9
  6
CONTINUOUS
 62
9
 10
1.47345894195826
 20
3.16145804773337
 30
0.0
 11
1.56147253637826
 21
3.15143276175022
 31
0.0
  0
LINE
  8
9
  6
CONTINUOUS
 62
9
 10
1.56147253637826
 20
3.15143276175022
 30
0.0
 11
1.5124760108639
 21
3.16139973157663
 31
0.0
  0
LINE
  8
9
  6
CONTINUOUS
 62
9
 10
2.16627792967312
 20
3.15460660159012
 30
0.0
 11
2.23560188682612
 21
3.20975266333908
 31
0.0
  0
LINE
  8
9
  6
CONTINUOUS
 62
9
 10
2.23560188682612
 20
3.20975266333908
 30
0.0
 11
2.1939083994282
 21
3.18215459984543
 31
0.0
  0
LINE
  8
9
  6
CONTINUOUS
 62
9
 10
2.41655964768363
 20
3.4188946584561
 30
0.0
 11
2.31400841669476
 21
3.30942664932709
 31
0.0
  0
LINE
  8
9
  6
CONTINUOUS
 62
9
 10
2.31400841669476
 20
3.30942664932709
 30
0.0
 11
2.35124233610697
 21
3.34279782319324
 31
0.0
  0
LINE
  8
9
  6
CONTINUOUS
 62
9
 10
2.76124651054056
 20
3.19721610361119
 30
0.0
 11
2.7512212245574
 21
3.1092025091912
 31
0.0
  0
LINE
  8
9
  6
CONTINUOUS
 62
9
 10
2.7512212245574
 20
3.1092025091912
 30
0.0
 11
2.76118819438381
 21
3.15819903470556
 31
0.0
  0
LINE
  8
9
  6
CONTINUOUS
 62
9
 10
2.7523227828885
 20
2.36268320888932
 30
0.0
 11
2.78764742775688
 21
2.28144855725165
 31
0.0
  0
LINE
  8
9
  6
CONTINUOUS
 62
9
 10
2.78764742775688
 20
2.28144855725165
 30
0.0
 11
2.77178081406812
 21
2.32886427795746
 31
0.0
  0
LINE
  8
9
  6
CONTINUOUS
 62
9
 10
3.45505621510247
 20
1.46347647900676
 30
0.0
 11
3.47203235687403
 21
1.61251275180822
 31
0.0
  0
LINE
  8
9
  6
CONTINUOUS
 62
9
 10
3.47203235687403
 20
1.61251275180822
 30
0.0
 11
3.46206538704761
 21
1.56351622629386
 31
0.0
  0
LINE
  8
9
  6
CONTINUOUS
 62
9
 10
3.44968783213671
 20
2.35602101665227
 30
0.0
 11
3.45971311811986
 21
2.44403461107226
 31
0.0
  0
LINE
  8
9
  6
CONTINUOUS
 62
9
 10
3.45971311811986
 20
2.44403461107226
 30
0.0
 11
3.44974614829345
 21
2.3950380855579
 31
0.0
  0
LINE
  8
9
  6
CONTINUOUS
 62
9
 10
3.45451346659503
 20
3.18526083213585
 30
0.0
 11
3.54252706101503
 21
3.1752355461527
 31
0.0
  0
LINE
  8
9
  6
CONTINUOUS
 62
9
 10
3.54252706101503
 20
3.1752355461527
 30
0.0
 11
3.49353053550066
 21
3.18520251597911
 31
0.0
  0
LINE
  8
9
  6
CONTINUOUS
 62
9
 10
4.14116344067322
 20
3.18200680757801
 30
0.0
 11
4.13113815469007
 21
3.09399321315802
 31
0.0
  0
LINE
  8
9
  6
CONTINUOUS
 62
9
 10
4.13113815469007
 20
3.09399321315802
 30
0.0
 11
4.14110512451648
 21
3.14298973867239
 31
0.0
  0
LINE
  8
9
  6
CONTINUOUS
 62
9
 10
4.13529567374428
 20
2.34510787764754
 30
0.0
 11
4.22330926816427
 21
2.33508259166438
 31
0.0
  0
LINE
  8
9
  6
CONTINUOUS
 62
9
 10
4.22330926816427
 20
2.33508259166438
 30
0.0
 11
4.17431274264991
 21
2.34504956149079
 31
0.0
  0
LINE
  8
9
  6
CONTINUOUS
 62
9
 10
4.47028608183745
 20
2.31189023532208
 30
0.0
 11
4.32036583940797
 21
2.3069993345986
 31
0.0
  0
LINE
  8
9
  6
CONTINUOUS
 62
9
 10
4.32036583940797
 20
2.3069993345986
 30
0.0
 11
4.37029117965135
 21
2.30426796102786
 31
0.0
  0
LINE
  8
9
  6
CONTINUOUS
 62
9
 10
7.37235120953835
 20
1.50977610597702
 30
0.0
 11
7.31253484317004
 21
1.64733337519422
 31
0.0
  0
LINE
  8
9
  6
CONTINUOUS
 62
9
 10
7.31253484317004
 20
1.64733337519422
 30
0.0
 11
7.32840145685879
 21
1.5999176544884
 31
0.0
  0
LINE
  8
9
  6
CONTINUOUS
 62
9
 10
6.72666405080224
 20
3.24047104895737
 30
0.0
 11
6.81467764522223
 21
3.23044576297422
 31
0.0
  0
LINE
  8
9
  6
CONTINUOUS
 62
9
 10
6.81467764522223
 20
3.23044576297422
 30
0.0
 11
6.76568111970787
 21
3.24041273280063
 31
0.0
  0
LINE
  8
9
  6
CONTINUOUS
 62
9
 10
7.41662251586857
 20
3.23286640094081
 30
0.0
 11
7.50463611028856
 21
3.22284111495766
 31
0.0
  0
LINE
  8
9
  6
CONTINUOUS
 62
9
 10
7.50463611028856
 20
3.22284111495766
 30
0.0
 11
7.4556395847742
 21
3.23280808478407
 31
0.0
  0
LINE
  8
9
  6
CONTINUOUS
 62
9
 10
8.10327248994676
 20
3.22961237638297
 30
0.0
 11
8.0932472039636
 21
3.14159878196299
 31
0.0
  0
LINE
  8
9
  6
CONTINUOUS
 62
9
 10
8.0932472039636
 20
3.14159878196299
 30
0.0
 11
8.10321417379001
 21
3.19059530747735
 31
0.0
  0
LINE
  8
9
  6
CONTINUOUS
 62
9
 10
8.09844685548846
 20
2.40037256089942
 30
0.0
 11
8.01043326106847
 21
2.41039784688258
 31
0.0
  0
LINE
  8
9
  6
CONTINUOUS
 62
9
 10
8.01043326106847
 20
2.41039784688258
 30
0.0
 11
8.05942978658283
 21
2.40043087705616
 31
0.0
  0
LINE
  8
9
  6
CONTINUOUS
 62
9
 10
7.4084883904221
 20
2.40797720891601
 30
0.0
 11
7.32047479600211
 21
2.41800249489917
 31
0.0
  0
LINE
  8
9
  6
CONTINUOUS
 62
9
 10
7.32047479600211
 20
2.41800249489917
 30
0.0
 11
7.36947132151647
 21
2.40803552507276
 31
0.0
  0
LINE
  8
9
  6
CONTINUOUS
 62
9
 10
6.71752100811062
 20
2.41558622980002
 30
0.0
 11
6.62991166925078
 21
2.40249031798326
 31
0.0
  0
LINE
  8
9
  6
CONTINUOUS
 62
9
 10
6.62991166925078
 20
2.40249031798326
 30
0.0
 11
6.67981832025657
 21
2.40554419836506
 31
0.0
  0
LINE
  8
9
  6
CONTINUOUS
 62
9
 10
6.38265998847511
 20
2.3690011534468
 30
0.0
 11
6.53258023090459
 21
2.37389205417028
 31
0.0
  0
LINE
  8
9
  6
CONTINUOUS
 62
9
 10
6.53258023090459
 20
2.37389205417028
 30
0.0
 11
6.48265489066121
 21
2.37662342774102
 31
0.0
  0
LINE
  8
9
  6
CONTINUOUS
 62
9
 10
5.45724280263533
 20
1.4792389456806
 30
0.0
 11
5.51221392221533
 21
1.61880318183055
 31
0.0
  0
LINE
  8
9
  6
CONTINUOUS
 62
9
 10
5.51221392221533
 20
1.61880318183055
 30
0.0
 11
5.48990533470319
 21
1.57405581405084
 31
0.0
  0
LINE
  8
9
  6
CONTINUOUS
 62
9
 10
6.12656858876877
 20
3.20911808296864
 30
0.0
 11
6.03855499434878
 21
3.21914336895179
 31
0.0
  0
LINE
  8
9
  6
CONTINUOUS
 62
9
 10
6.03855499434878
 20
3.21914336895179
 30
0.0
 11
6.08755151986314
 21
3.20917639912538
 31
0.0
  0
LINE
  8
9
  6
CONTINUOUS
 62
9
 10
5.43661012370244
 20
3.21672273098526
 30
0.0
 11
5.34859652928245
 21
3.22674801696841
 31
0.0
  0
LINE
  8
9
  6
CONTINUOUS
 62
9
 10
5.34859652928245
 20
3.22674801696841
 30
0.0
 11
5.3975930547968
 21
3.216781047142
 31
0.0
  0
LINE
  8
9
  6
CONTINUOUS
 62
9
 10
4.74230103517732
 20
3.22101888801367
 30
0.0
 11
4.73227574919417
 21
3.13300529359368
 31
0.0
  0
LINE
  8
9
  6
CONTINUOUS
 62
9
 10
4.73227574919417
 20
3.13300529359368
 30
0.0
 11
4.74224271902058
 21
3.18200181910804
 31
0.0
  0
LINE
  8
9
  6
CONTINUOUS
 62
9
 10
4.73643326824837
 20
2.38411995808323
 30
0.0
 11
4.82444686266836
 21
2.37409467210007
 31
0.0
  0
LINE
  8
9
  6
CONTINUOUS
 62
9
 10
4.82444686266836
 20
2.37409467210007
 30
0.0
 11
4.775450337154
 21
2.38406164192648
 31
0.0
  0
LINE
  8
9
  6
CONTINUOUS
 62
9
 10
5.4263917333147
 20
2.37651531006661
 30
0.0
 11
5.51440532773469
 21
2.36649002408345
 31
0.0
  0
LINE
  8
9
  6
CONTINUOUS
 62
9
 10
5.51440532773469
 20
2.36649002408345
 30
0.0
 11
5.46540880222033
 21
2.37645699390986
 31
0.0
  0
LINE
  8
9
  6
CONTINUOUS
 62
9
 10
6.11635019838105
 20
2.36891066205002
 30
0.0
 11
6.20436379280104
 21
2.35888537606686
 31
0.0
  0
LINE
  8
9
  6
CONTINUOUS
 62
9
 10
6.20436379280104
 20
2.35888537606686
 30
0.0
 11
6.15536726728668
 21
2.36885234589327
 31
0.0
  0
LINE
  8
9
  6
CONTINUOUS
 62
9
 10
6.45134060647421
 20
2.33569301972456
 30
0.0
 11
6.30142036404474
 21
2.33080211900108
 31
0.0
  0
LINE
  8
9
  6
CONTINUOUS
 62
9
 10
6.30142036404474
 20
2.33080211900108
 30
0.0
 11
6.35134570428811
 21
2.32807074543034
 31
0.0
  0
LINE
  8
9
  6
CONTINUOUS
 62
9
 10
2.20070786493056
 20
0.808130841499493
 30
0.0
 11
2.3047864149908
 21
0.700113919596689
 31
0.0
  0
LINE
  8
9
  6
CONTINUOUS
 62
9
 10
2.14589701888564
 20
0.740297010868076
 30
0.0
 11
2.27336193279703
 21
0.661223021961726
 31
0.0
  0
LINE
  8
9
  6
CONTINUOUS
 62
9
 10
4.16519658174096
 20
0.810021048723837
 30
0.0
 11
4.26602450583536
 21
0.698963722433247
 31
0.0
  0
LINE
  8
9
  6
CONTINUOUS
 62
9
 10
4.1083972703551
 20
0.743843290765564
 30
0.0
 11
4.23345998479505
 21
0.661022294291767
 31
0.0
  0
LINE
  8
9
  6
CONTINUOUS
 62
9
 10
6.1076286010163
 20
0.787478265904847
 30
0.0
 11
6.20100894986059
 21
0.670089550732907
 31
0.0
  0
LINE
  8
9
  6
CONTINUOUS
 62
9
 10
6.0466395526985
 20
0.725140529279426
 30
0.0
 11
6.16604234377452
 21
0.634349706597524
 31
0.0
  0
LINE
  8
9
  6
CONTINUOUS
 62
9
 10
7.99612435265662
 20
0.720894823132851
 30
0.0
 11
8.07222838378585
 21
0.591634711552052
 31
0.0
  0
LINE
  8
9
  6
CONTINUOUS
 62
9
 10
7.92704067294709
 20
0.66766792560836
 30
0.0
 11
8.03262091519992
 21
0.56111834820032
 31
0.0
  0
ENDSEC
  0
EOF
